<svg width="84" height="92" viewBox="0 0 84 92" fill="none" xmlns="http://www.w3.org/2000/svg">
<g filter="url(#filter0_d_6224_6096)">
<path d="M38.7363 1.8125C40.6561 0.727626 43.0318 0.724703 44.957 1.83203L75.7236 19.3779L75.7275 19.3809C77.6437 20.4851 78.8514 22.5172 78.8604 24.7061L79 59.5625C79.0088 61.7507 77.8182 63.7933 75.8906 64.8828L45.2637 82.1924C43.3384 83.2804 40.9545 83.2631 39.043 82.1729L8.27637 64.627C6.36322 63.5357 5.14847 61.4862 5.13965 59.2988L5 24.4424C4.99131 22.2543 6.18182 20.2115 8.10938 19.1221L38.7363 1.8125Z" fill="#DBD4FF" stroke="#8980B3" stroke-width="2"/>
<path d="M49 24.3333V27.8333M35 24.3333V27.8333" stroke="#8980B3" stroke-width="1.75" stroke-linecap="round" stroke-linejoin="round"/>
<path d="M50.75 26.0833H33.25C31.9614 26.0833 30.9167 27.128 30.9167 28.4167V45.3333C30.9167 46.622 31.9614 47.6667 33.25 47.6667H50.75C52.0387 47.6667 53.0834 46.622 53.0834 45.3333V28.4167C53.0834 27.128 52.0387 26.0833 50.75 26.0833Z" stroke="#8980B3" stroke-width="1.75" stroke-linecap="round" stroke-linejoin="round"/>
<path d="M30.9167 31.9167H53.0834" stroke="#8980B3" stroke-width="1.75" stroke-linecap="round" stroke-linejoin="round"/>
<path d="M41.9947 37.1667H42.0052M41.9947 41.8333H42.0052M46.6561 37.1667H46.6666M37.3333 37.1667H37.3438M37.3333 41.8333H37.3438" stroke="#8980B3" stroke-width="2.33333" stroke-linecap="round" stroke-linejoin="round"/>
<path d="M24.6274 54.764V57.212H27.5074V58.328H24.6274V60.884H27.8674V62H23.2594V53.648H27.8674V54.764H24.6274ZM32.1083 60.776L33.9803 55.388H35.4323L32.9123 62H31.2803L28.7723 55.388H30.2363L32.1083 60.776ZM42.5264 58.532C42.5264 58.78 42.5104 59.004 42.4784 59.204H37.4264C37.4664 59.732 37.6624 60.156 38.0144 60.476C38.3664 60.796 38.7984 60.956 39.3104 60.956C40.0464 60.956 40.5664 60.648 40.8704 60.032H42.3464C42.1464 60.64 41.7824 61.14 41.2544 61.532C40.7344 61.916 40.0864 62.108 39.3104 62.108C38.6784 62.108 38.1104 61.968 37.6064 61.688C37.1104 61.4 36.7184 61 36.4304 60.488C36.1504 59.968 36.0104 59.368 36.0104 58.688C36.0104 58.008 36.1464 57.412 36.4184 56.9C36.6984 56.38 37.0864 55.98 37.5824 55.7C38.0864 55.42 38.6624 55.28 39.3104 55.28C39.9344 55.28 40.4904 55.416 40.9784 55.688C41.4664 55.96 41.8464 56.344 42.1184 56.84C42.3904 57.328 42.5264 57.892 42.5264 58.532ZM41.0984 58.1C41.0904 57.596 40.9104 57.192 40.5584 56.888C40.2064 56.584 39.7704 56.432 39.2504 56.432C38.7784 56.432 38.3744 56.584 38.0384 56.888C37.7024 57.184 37.5024 57.588 37.4384 58.1H41.0984ZM47.2087 55.28C47.7287 55.28 48.1927 55.388 48.6007 55.604C49.0167 55.82 49.3407 56.14 49.5727 56.564C49.8047 56.988 49.9207 57.5 49.9207 58.1V62H48.5647V58.304C48.5647 57.712 48.4167 57.26 48.1207 56.948C47.8247 56.628 47.4207 56.468 46.9087 56.468C46.3967 56.468 45.9887 56.628 45.6847 56.948C45.3887 57.26 45.2407 57.712 45.2407 58.304V62H43.8727V55.388H45.2407V56.144C45.4647 55.872 45.7487 55.66 46.0927 55.508C46.4447 55.356 46.8167 55.28 47.2087 55.28ZM53.2616 56.504V60.164C53.2616 60.412 53.3176 60.592 53.4296 60.704C53.5496 60.808 53.7496 60.86 54.0296 60.86H54.8696V62H53.7896C53.1736 62 52.7016 61.856 52.3736 61.568C52.0456 61.28 51.8816 60.812 51.8816 60.164V56.504H51.1016V55.388H51.8816V53.744H53.2616V55.388H54.8696V56.504H53.2616ZM58.5305 62.108C58.0105 62.108 57.5425 62.016 57.1265 61.832C56.7185 61.64 56.3945 61.384 56.1545 61.064C55.9145 60.736 55.7865 60.372 55.7705 59.972H57.1865C57.2105 60.252 57.3425 60.488 57.5825 60.68C57.8305 60.864 58.1385 60.956 58.5065 60.956C58.8905 60.956 59.1865 60.884 59.3945 60.74C59.6105 60.588 59.7185 60.396 59.7185 60.164C59.7185 59.916 59.5985 59.732 59.3585 59.612C59.1265 59.492 58.7545 59.36 58.2425 59.216C57.7465 59.08 57.3425 58.948 57.0305 58.82C56.7185 58.692 56.4465 58.496 56.2145 58.232C55.9905 57.968 55.8785 57.62 55.8785 57.188C55.8785 56.836 55.9825 56.516 56.1905 56.228C56.3985 55.932 56.6945 55.7 57.0785 55.532C57.4705 55.364 57.9185 55.28 58.4225 55.28C59.1745 55.28 59.7785 55.472 60.2345 55.856C60.6985 56.232 60.9465 56.748 60.9785 57.404H59.6105C59.5865 57.108 59.4665 56.872 59.2505 56.696C59.0345 56.52 58.7425 56.432 58.3745 56.432C58.0145 56.432 57.7385 56.5 57.5465 56.636C57.3545 56.772 57.2585 56.952 57.2585 57.176C57.2585 57.352 57.3225 57.5 57.4505 57.62C57.5785 57.74 57.7345 57.836 57.9185 57.908C58.1025 57.972 58.3745 58.056 58.7345 58.16C59.2145 58.288 59.6065 58.42 59.9105 58.556C60.2225 58.684 60.4905 58.876 60.7145 59.132C60.9385 59.388 61.0545 59.728 61.0625 60.152C61.0625 60.528 60.9585 60.864 60.7505 61.16C60.5425 61.456 60.2465 61.688 59.8625 61.856C59.4865 62.024 59.0425 62.108 58.5305 62.108Z" fill="#8980B3"/>
</g>
<defs>
<filter id="filter0_d_6224_6096" x="0" y="0" width="84" height="92" filterUnits="userSpaceOnUse" color-interpolation-filters="sRGB">
<feFlood flood-opacity="0" result="BackgroundImageFix"/>
<feColorMatrix in="SourceAlpha" type="matrix" values="0 0 0 0 0 0 0 0 0 0 0 0 0 0 0 0 0 0 127 0" result="hardAlpha"/>
<feOffset dy="4"/>
<feGaussianBlur stdDeviation="2"/>
<feComposite in2="hardAlpha" operator="out"/>
<feColorMatrix type="matrix" values="0 0 0 0 0 0 0 0 0 0.054902 0 0 0 0 0.313726 0 0 0 0.1 0"/>
<feBlend mode="normal" in2="BackgroundImageFix" result="effect1_dropShadow_6224_6096"/>
<feBlend mode="normal" in="SourceGraphic" in2="effect1_dropShadow_6224_6096" result="shape"/>
</filter>
</defs>
</svg>
