<svg width="24" height="25" viewBox="0 0 24 25" fill="none" xmlns="http://www.w3.org/2000/svg">
<path d="M15 15.5L17 17.5" stroke="#000E50" stroke-width="1.5" stroke-linejoin="round"/>
<path d="M17 10C17 5.85786 13.6421 2.5 9.5 2.5C5.35786 2.5 2 5.85786 2 10C2 14.1421 5.35786 17.5 9.5 17.5C13.6421 17.5 17 14.1421 17 10Z" stroke="#000E50" stroke-width="1.5" stroke-linejoin="round"/>
<path d="M17.361 19.6043C16.8797 19.1229 16.8797 18.3424 17.361 17.861C17.8424 17.3797 18.6229 17.3797 19.1043 17.861L21.639 20.3957C22.1203 20.8771 22.1203 21.6576 21.639 22.139C21.1576 22.6203 20.3771 22.6203 19.8957 22.139L17.361 19.6043Z" stroke="#000E50" stroke-width="1.5" stroke-linecap="round"/>
</svg>
