<svg width="24" height="24" viewBox="0 0 24 24" fill="none" xmlns="http://www.w3.org/2000/svg">
<path d="M17.5 5.49999C18.3967 6.01871 19 6.88957 19 8C19 9.11042 18.3967 9.98128 17.5 10.5M19 14.5C20.78 15.4897 22 17.6609 22 20" stroke="#2A46BE" stroke-width="1.5" stroke-linecap="round" stroke-linejoin="round"/>
<path d="M6.5 5.5C5.6033 6.01871 5 6.88958 5 8.00001C5 9.11043 5.6033 9.98129 6.5 10.5M5 14.5C3.22002 15.4897 2 17.6609 2 20" stroke="#2A46BE" stroke-width="1.5" stroke-linecap="round" stroke-linejoin="round"/>
<path d="M12.875 14.5H11.125C7.74226 14.5 5 17.4101 5 21H19C19 17.4101 16.2577 14.5 12.875 14.5Z" stroke="#2A46BE" stroke-width="1.5" stroke-linecap="round" stroke-linejoin="round"/>
<path d="M12 11C13.933 11 15.5 9.433 15.5 7.5C15.5 5.567 13.933 4 12 4C10.067 4 8.5 5.567 8.5 7.5C8.5 9.433 10.067 11 12 11Z" stroke="#2A46BE" stroke-width="1.5" stroke-linecap="round" stroke-linejoin="round"/>
</svg>
