<svg width="28" height="28" viewBox="0 0 28 28" fill="none" xmlns="http://www.w3.org/2000/svg">
<path d="M16.3337 16.6272V19.0648C15.6038 18.8069 14.8185 18.6665 14.0003 18.6665C10.1343 18.6665 7.00033 21.8005 7.00033 25.6665H4.66699C4.66699 20.5118 8.84567 16.3332 14.0003 16.3332C14.806 16.3332 15.5879 16.4353 16.3337 16.6272ZM14.0003 15.1665C10.1328 15.1665 7.00033 12.034 7.00033 8.1665C7.00033 4.299 10.1328 1.1665 14.0003 1.1665C17.8678 1.1665 21.0003 4.299 21.0003 8.1665C21.0003 12.034 17.8678 15.1665 14.0003 15.1665ZM14.0003 12.8332C16.5787 12.8332 18.667 10.7448 18.667 8.1665C18.667 5.58817 16.5787 3.49984 14.0003 3.49984C11.422 3.49984 9.33366 5.58817 9.33366 8.1665C9.33366 10.7448 11.422 12.8332 14.0003 12.8332ZM21.0003 19.8332V16.3332H23.3337V19.8332H26.8337V22.1665H23.3337V25.6665H21.0003V22.1665H17.5003V19.8332H21.0003Z" fill="#2A46BE"/>
</svg>
