<svg width="24" height="24" viewBox="0 0 24 24" fill="none" xmlns="http://www.w3.org/2000/svg">
<mask id="mask0_1506_24559" style="mask-type:luminance" maskUnits="userSpaceOnUse" x="0" y="0" width="24" height="24">
<rect width="24" height="24" fill="white"/>
</mask>
<g mask="url(#mask0_1506_24559)">
<path d="M3.7781 7.31507L3.778 7.31489C3.75496 7.2752 3.75 7.24798 3.75 7.22222C3.75 7.19646 3.75496 7.16925 3.778 7.12956L3.7781 7.12938L5.6827 3.84561C5.68272 3.84557 5.68274 3.84554 5.68276 3.8455C5.68278 3.84548 5.68279 3.84545 5.68281 3.84543C5.70717 3.8035 5.72965 3.78451 5.75221 3.77139C5.77223 3.75974 5.79761 3.75 5.8453 3.75H9.6547C9.70239 3.75 9.72777 3.75974 9.74779 3.77139L10.125 3.12315L9.74779 3.77139C9.77035 3.78451 9.79283 3.8035 9.81719 3.84543C9.81723 3.84549 9.81726 3.84555 9.8173 3.84561L11.7219 7.12938L11.722 7.12956C11.745 7.16925 11.75 7.19646 11.75 7.22222C11.75 7.24798 11.745 7.2752 11.722 7.31489L11.7219 7.31507L9.8173 10.5988C9.79289 10.6409 9.77038 10.6599 9.74779 10.6731C9.72777 10.6847 9.7024 10.6944 9.6547 10.6944H5.8453C5.7976 10.6944 5.77223 10.6847 5.75221 10.6731C5.72962 10.6599 5.70711 10.6409 5.6827 10.5988L3.7781 7.31507Z" stroke="#000E50" stroke-width="1.5"/>
<path d="M3.7781 17.3151L3.778 17.3149C3.75496 17.2752 3.75 17.248 3.75 17.2222C3.75 17.1965 3.75496 17.1692 3.778 17.1296L3.7781 17.1294L5.6827 13.8456C5.68272 13.8456 5.68274 13.8455 5.68276 13.8455C5.68278 13.8455 5.68279 13.8455 5.68281 13.8454C5.70717 13.8035 5.72965 13.7845 5.75221 13.7714C5.77223 13.7597 5.79761 13.75 5.8453 13.75H9.6547C9.70239 13.75 9.72777 13.7597 9.74779 13.7714L10.125 13.1231L9.74779 13.7714C9.77035 13.7845 9.79283 13.8035 9.81719 13.8454C9.81723 13.8455 9.81726 13.8455 9.8173 13.8456L11.7219 17.1294L11.722 17.1296C11.745 17.1692 11.75 17.1965 11.75 17.2222C11.75 17.248 11.745 17.2752 11.722 17.3149L11.7219 17.3151L9.8173 20.5988C9.79289 20.6409 9.77038 20.6599 9.74779 20.6731C9.72777 20.6847 9.7024 20.6944 9.6547 20.6944H5.8453C5.7976 20.6944 5.77223 20.6847 5.75221 20.6731C5.72962 20.6599 5.70711 20.6409 5.6827 20.5988L3.7781 17.3151Z" stroke="#000E50" stroke-width="1.5"/>
<path d="M17.375 16.75C17.2396 16.75 17.1276 16.7057 17.0391 16.6172C16.9505 16.5286 16.9062 16.4167 16.9062 16.2812V12.8438H13.4688C13.3333 12.8438 13.2214 12.7995 13.1328 12.7109C13.0443 12.6224 13 12.5104 13 12.375C13 12.2396 13.0443 12.1276 13.1328 12.0391C13.2214 11.9505 13.3333 11.9062 13.4688 11.9062H16.9062V8.46875C16.9062 8.33333 16.9505 8.22135 17.0391 8.13281C17.1276 8.04427 17.2396 8 17.375 8C17.5104 8 17.6224 8.04427 17.7109 8.13281C17.7995 8.22135 17.8438 8.33333 17.8438 8.46875V11.9062H21.2812C21.4167 11.9062 21.5286 11.9505 21.6172 12.0391C21.7057 12.1276 21.75 12.2396 21.75 12.375C21.75 12.5104 21.7057 12.6224 21.6172 12.7109C21.5286 12.7995 21.4167 12.8438 21.2812 12.8438H17.8438V16.2812C17.8438 16.4167 17.7995 16.5286 17.7109 16.6172C17.6224 16.7057 17.5104 16.75 17.375 16.75Z" fill="#000E50"/>
</g>
</svg>
