<svg width="24" height="24" viewBox="0 0 24 24" fill="none" xmlns="http://www.w3.org/2000/svg">
<mask id="mask0_1408_1263" style="mask-type:alpha" maskUnits="userSpaceOnUse" x="0" y="0" width="24" height="24">
<rect width="24" height="24" fill="#D9D9D9"/>
</mask>
<g mask="url(#mask0_1408_1263)">
<path d="M17.5 16.5V18.5C17.5 18.6333 17.55 18.75 17.65 18.85C17.75 18.95 17.8667 19 18 19C18.1333 19 18.25 18.95 18.35 18.85C18.45 18.75 18.5 18.6333 18.5 18.5V16.5H20.5C20.6333 16.5 20.75 16.45 20.85 16.35C20.95 16.25 21 16.1333 21 16C21 15.8667 20.95 15.75 20.85 15.65C20.75 15.55 20.6333 15.5 20.5 15.5H18.5V13.5C18.5 13.3667 18.45 13.25 18.35 13.15C18.25 13.05 18.1333 13 18 13C17.8667 13 17.75 13.05 17.65 13.15C17.55 13.25 17.5 13.3667 17.5 13.5V15.5H15.5C15.3667 15.5 15.25 15.55 15.15 15.65C15.05 15.75 15 15.8667 15 16C15 16.1333 15.05 16.25 15.15 16.35C15.25 16.45 15.3667 16.5 15.5 16.5H17.5ZM18 21C16.6167 21 15.4375 20.5125 14.4625 19.5375C13.4875 18.5625 13 17.3833 13 16C13 14.6167 13.4875 13.4375 14.4625 12.4625C15.4375 11.4875 16.6167 11 18 11C19.3833 11 20.5625 11.4875 21.5375 12.4625C22.5125 13.4375 23 14.6167 23 16C23 17.3833 22.5125 18.5625 21.5375 19.5375C20.5625 20.5125 19.3833 21 18 21ZM6 19C5.45 19 4.97917 18.8042 4.5875 18.4125C4.19583 18.0208 4 17.55 4 17V8C4 7.68333 4.07083 7.38333 4.2125 7.1C4.35417 6.81667 4.55 6.58333 4.8 6.4L10.8 1.9C11.15 1.63333 11.55 1.5 12 1.5C12.45 1.5 12.85 1.63333 13.2 1.9L19.2 6.4C19.45 6.58333 19.6458 6.81667 19.7875 7.1C19.9292 7.38333 20 7.68333 20 8V9.3C19.6833 9.2 19.3583 9.125 19.025 9.075C18.6917 9.025 18.35 9 18 9V8L12 3.5L6 8V17H11.075C11.125 17.35 11.2 17.6917 11.3 18.025C11.4 18.3583 11.525 18.6833 11.675 19H6Z" fill="#000E50"/>
</g>
</svg>
