<svg width="66" height="76" viewBox="0 0 66 76" fill="none" xmlns="http://www.w3.org/2000/svg">
<path d="M3.87502 58.4414L3.87504 58.4414L30.368 74.2332C32.0643 75.2444 34.1861 75.2608 35.8956 74.251L62.2684 58.6722C63.9749 57.6642 65.0076 55.7903 65 53.806L64.8797 22.4356C64.8721 20.4498 63.8239 18.5863 62.1288 17.5656L62.125 17.5633L35.6358 1.77385C35.6351 1.77342 35.6344 1.77299 35.6336 1.77256C33.9243 0.744332 31.8088 0.746925 30.1044 1.75377L3.73158 17.3325C2.0251 18.3405 0.992392 20.2144 1.00004 22.1987C1.00004 22.1987 1.00004 22.1987 1.00004 22.1987L1.12025 53.5692L2.12024 53.5654L1.12025 53.5692C1.12791 55.5531 2.18201 57.4322 3.87502 58.4414Z" fill="#FFFBDB" stroke="#FFA020" stroke-width="2"/>
<path d="M37.6042 36.4521V33.2021H34.3542V31.5771H37.6042V28.3271H39.2292V31.5771H42.4792V33.2021H39.2292V36.4521H37.6042ZM24.3334 33.5V31.875H32.2146V32.6604C32.2146 32.8771 32.2417 33.1569 32.2959 33.5H24.3334ZM24.3334 29.0041V27.3791H34.7063C34.3993 27.5958 34.1195 27.8441 33.8667 28.1239C33.6139 28.4038 33.3882 28.6972 33.1896 29.0041H24.3334ZM24.3334 24.4812V22.8562H40.5834V24.4812H24.3334ZM24.3334 19.9583V18.3333H40.5834V19.9583H24.3334Z" fill="#FFA020"/>
<path d="M27.2244 57H25.5444L21.7404 51.252V57H20.0604V48.612H21.7404L25.5444 54.372V48.612H27.2244V57ZM31.8366 57.108C31.1966 57.108 30.6206 56.968 30.1086 56.688C29.5966 56.4 29.1926 55.996 28.8966 55.476C28.6086 54.956 28.4646 54.356 28.4646 53.676C28.4646 52.996 28.6126 52.396 28.9086 51.876C29.2126 51.356 29.6246 50.956 30.1446 50.676C30.6646 50.388 31.2446 50.244 31.8846 50.244C32.5246 50.244 33.1046 50.388 33.6246 50.676C34.1446 50.956 34.5526 51.356 34.8486 51.876C35.1526 52.396 35.3046 52.996 35.3046 53.676C35.3046 54.356 35.1486 54.956 34.8366 55.476C34.5326 55.996 34.1166 56.4 33.5886 56.688C33.0686 56.968 32.4846 57.108 31.8366 57.108ZM31.8366 55.644C32.1406 55.644 32.4246 55.572 32.6886 55.428C32.9606 55.276 33.1766 55.052 33.3366 54.756C33.4966 54.46 33.5766 54.1 33.5766 53.676C33.5766 53.044 33.4086 52.56 33.0726 52.224C32.7446 51.88 32.3406 51.708 31.8606 51.708C31.3806 51.708 30.9766 51.88 30.6486 52.224C30.3286 52.56 30.1686 53.044 30.1686 53.676C30.1686 54.308 30.3246 54.796 30.6366 55.14C30.9566 55.476 31.3566 55.644 31.8366 55.644ZM38.493 51.732V54.948C38.493 55.172 38.545 55.336 38.649 55.44C38.761 55.536 38.945 55.584 39.201 55.584H39.981V57H38.925C37.509 57 36.801 56.312 36.801 54.936V51.732H36.009V50.352H36.801V48.708H38.493V50.352H39.981V51.732H38.493ZM47.3693 53.532C47.3693 53.772 47.3533 53.988 47.3213 54.18H42.4613C42.5013 54.66 42.6693 55.036 42.9653 55.308C43.2613 55.58 43.6253 55.716 44.0573 55.716C44.6813 55.716 45.1253 55.448 45.3893 54.912H47.2013C47.0093 55.552 46.6413 56.08 46.0973 56.496C45.5533 56.904 44.8853 57.108 44.0933 57.108C43.4533 57.108 42.8773 56.968 42.3653 56.688C41.8613 56.4 41.4653 55.996 41.1773 55.476C40.8973 54.956 40.7573 54.356 40.7573 53.676C40.7573 52.988 40.8973 52.384 41.1773 51.864C41.4573 51.344 41.8493 50.944 42.3533 50.664C42.8573 50.384 43.4373 50.244 44.0933 50.244C44.7253 50.244 45.2893 50.38 45.7853 50.652C46.2893 50.924 46.6773 51.312 46.9493 51.816C47.2293 52.312 47.3693 52.884 47.3693 53.532ZM45.6293 53.052C45.6213 52.62 45.4653 52.276 45.1613 52.02C44.8573 51.756 44.4853 51.624 44.0453 51.624C43.6293 51.624 43.2773 51.752 42.9893 52.008C42.7093 52.256 42.5373 52.604 42.4733 53.052H45.6293Z" fill="#FFA020"/>
</svg>
