<svg width="24" height="24" viewBox="0 0 24 24" fill="none" xmlns="http://www.w3.org/2000/svg">
<path d="M19 14C18.7833 14 18.6042 13.9291 18.4625 13.7875C18.3208 13.6458 18.25 13.4666 18.25 13.25V10.75H15.75C15.5333 10.75 15.3542 10.6791 15.2125 10.5375C15.0708 10.3958 15 10.2166 15 9.99998C15 9.78331 15.0708 9.60414 15.2125 9.46248C15.3542 9.32081 15.5333 9.24998 15.75 9.24998H18.25V6.74998C18.25 6.53331 18.3208 6.35414 18.4625 6.21248C18.6042 6.07081 18.7833 5.99998 19 5.99998C19.2167 5.99998 19.3958 6.07081 19.5375 6.21248C19.6792 6.35414 19.75 6.53331 19.75 6.74998V9.24998H22.25C22.4667 9.24998 22.6458 9.32081 22.7875 9.46248C22.9292 9.60414 23 9.78331 23 9.99998C23 10.2166 22.9292 10.3958 22.7875 10.5375C22.6458 10.6791 22.4667 10.75 22.25 10.75H19.75V13.25C19.75 13.4666 19.6792 13.6458 19.5375 13.7875C19.3958 13.9291 19.2167 14 19 14ZM9 11.975C7.9 11.975 7 11.625 6.3 10.925C5.6 10.225 5.25 9.32498 5.25 8.22498C5.25 7.12498 5.6 6.22498 6.3 5.52498C7 4.82498 7.9 4.47498 9 4.47498C10.1 4.47498 11 4.82498 11.7 5.52498C12.4 6.22498 12.75 7.12498 12.75 8.22498C12.75 9.32498 12.4 10.225 11.7 10.925C11 11.625 10.1 11.975 9 11.975ZM1.75 20C1.53333 20 1.35417 19.9291 1.2125 19.7875C1.07083 19.6458 1 19.4666 1 19.25V17.65C1 17.0666 1.15 16.5375 1.45 16.0625C1.75 15.5875 2.16667 15.2333 2.7 15C3.95 14.45 5.0625 14.0625 6.0375 13.8375C7.0125 13.6125 8 13.5 9 13.5C10 13.5 10.9875 13.6125 11.9625 13.8375C12.9375 14.0625 14.0417 14.45 15.275 15C15.8083 15.25 16.2292 15.6083 16.5375 16.075C16.8458 16.5416 17 17.0666 17 17.65V19.25C17 19.4666 16.9292 19.6458 16.7875 19.7875C16.6458 19.9291 16.4667 20 16.25 20H1.75ZM2.5 18.5H15.5V17.65C15.5 17.3833 15.4333 17.1291 15.3 16.8875C15.1667 16.6458 14.9583 16.4666 14.675 16.35C13.5083 15.7833 12.5125 15.4166 11.6875 15.25C10.8625 15.0833 9.96667 15 9 15C8.03333 15 7.1375 15.0875 6.3125 15.2625C5.4875 15.4375 4.48333 15.8 3.3 16.35C3.05 16.4666 2.85417 16.6458 2.7125 16.8875C2.57083 17.1291 2.5 17.3833 2.5 17.65V18.5ZM9 10.475C9.65 10.475 10.1875 10.2625 10.6125 9.83748C11.0375 9.41248 11.25 8.87498 11.25 8.22498C11.25 7.57498 11.0375 7.03748 10.6125 6.61248C10.1875 6.18748 9.65 5.97498 9 5.97498C8.35 5.97498 7.8125 6.18748 7.3875 6.61248C6.9625 7.03748 6.75 7.57498 6.75 8.22498C6.75 8.87498 6.9625 9.41248 7.3875 9.83748C7.8125 10.2625 8.35 10.475 9 10.475Z" fill="#000E50"/>
</svg>
