<svg width="25" height="25" viewBox="0 0 25 25" fill="none" xmlns="http://www.w3.org/2000/svg">
<path d="M18 22.5C20.2091 22.5 22 20.7091 22 18.5C22 17.0194 21.1956 15.7267 20 15.0351V4.5C20 3.39543 19.1046 2.5 18 2.5C16.8954 2.5 16 3.39543 16 4.5V15.0351C14.8044 15.7267 14 17.0194 14 18.5C14 20.7091 15.7909 22.5 18 22.5Z" stroke="#000E50" stroke-width="1.5" stroke-linejoin="round"/>
<path d="M4.5 10L6.5 12L4.5 14M11.5 6.5L9.5 8.5L7.5 6.5M11.5 17L9.5 15L7.5 17M12 12H3M9.5 5V18.5" stroke="#000E50" stroke-width="1.5" stroke-linecap="round" stroke-linejoin="round"/>
</svg>
