<svg width="25" height="24" viewBox="0 0 25 24" fill="none" xmlns="http://www.w3.org/2000/svg">
<path d="M2.50269 5.94145C6.00269 9.37313 11.0782 7.90241 12.2351 5.94145C12.4053 5.65301 12.5027 5.31814 12.5027 4.96096C12.5027 3.87795 11.6073 3 10.5027 3C9.39812 3 8.50269 3.87795 8.50269 4.96096" stroke="#000E50" stroke-width="1.5" stroke-linecap="round" stroke-linejoin="round"/>
<path d="M17.5027 8.92814C17.5027 7.31097 18.622 6 20.0027 6C21.3834 6 22.5027 7.31097 22.5027 8.92814C22.5027 9.6452 22.2826 10.3021 21.9173 10.8111C19.849 14.1915 9.77909 12.9164 4.50269 11.8563" stroke="#000E50" stroke-width="1.5" stroke-linecap="round" stroke-linejoin="round"/>
<path d="M13.5881 19.8873C13.794 20.5356 14.3496 21 15.0027 21C15.8311 21 16.5027 20.2528 16.5027 19.331C16.5027 19.0176 16.4251 18.7244 16.29 18.4738C15.0026 15.9925 8.50265 14.3239 2.50269 18.7746" stroke="#000E50" stroke-width="1.5" stroke-linecap="round" stroke-linejoin="round"/>
<path d="M19.5027 15.5H21.5027" stroke="#000E50" stroke-width="1.5" stroke-linecap="round" stroke-linejoin="round"/>
</svg>
