<svg width="16" height="17" viewBox="0 0 16 17" fill="none" xmlns="http://www.w3.org/2000/svg">
<path d="M7.99981 14.8833C7.17758 14.8833 6.40258 14.7278 5.6748 14.4167C4.94703 14.1056 4.31369 13.6806 3.7748 13.1417C3.23592 12.6028 2.80814 11.9694 2.49147 11.2417C2.1748 10.5139 2.01647 9.73333 2.01647 8.9C2.01647 8.07778 2.1748 7.30278 2.49147 6.575C2.80814 5.84722 3.23592 5.21111 3.7748 4.66667C4.31369 4.12222 4.94703 3.69444 5.6748 3.38333C6.40258 3.07222 7.17758 2.91667 7.99981 2.91667C8.82203 2.91667 9.59703 3.07222 10.3248 3.38333C11.0526 3.69444 11.6887 4.12222 12.2331 4.66667C12.7776 5.21111 13.2054 5.84722 13.5165 6.575C13.8276 7.30278 13.9831 8.07778 13.9831 8.9C13.9831 9.73333 13.8276 10.5139 13.5165 11.2417C13.2054 11.9694 12.7776 12.6028 12.2331 13.1417C11.6887 13.6806 11.0526 14.1056 10.3248 14.4167C9.59703 14.7278 8.82203 14.8833 7.99981 14.8833ZM7.5498 6.08333V8.95C7.5498 9.01667 7.56092 9.07778 7.58314 9.13333C7.60536 9.18889 7.64425 9.24444 7.69981 9.3L9.68314 11.2833C9.77203 11.3722 9.88314 11.4167 10.0165 11.4167C10.1498 11.4167 10.2665 11.3667 10.3665 11.2667C10.4665 11.1667 10.5165 11.05 10.5165 10.9167C10.5165 10.7833 10.4665 10.6667 10.3665 10.5667L8.5498 8.75V6.06667C8.5498 5.93333 8.50258 5.81944 8.40814 5.725C8.31369 5.63056 8.19425 5.58333 8.0498 5.58333C7.90536 5.58333 7.78592 5.63056 7.69147 5.725C7.59703 5.81944 7.5498 5.93889 7.5498 6.08333ZM1.8998 4.8C1.7998 4.88889 1.68314 4.93333 1.5498 4.93333C1.41647 4.93333 1.2998 4.88333 1.1998 4.78333C1.0998 4.68333 1.0498 4.56389 1.0498 4.425C1.0498 4.28611 1.0998 4.17222 1.1998 4.08333L3.23314 2.13333C3.33314 2.04444 3.4498 2 3.58314 2C3.71647 2 3.83314 2.05 3.93314 2.15C4.03314 2.25 4.08314 2.36944 4.08314 2.50833C4.08314 2.64722 4.03314 2.76111 3.93314 2.85L1.8998 4.8ZM14.0998 4.78333L12.0665 2.83333C11.9776 2.74444 11.9304 2.63333 11.9248 2.5C11.9192 2.36667 11.9665 2.25 12.0665 2.15C12.1554 2.06111 12.2692 2.01667 12.4081 2.01667C12.547 2.01667 12.6665 2.06111 12.7665 2.15L14.7998 4.1C14.8887 4.18889 14.9359 4.3 14.9415 4.43333C14.947 4.56667 14.8998 4.68333 14.7998 4.78333C14.7109 4.87222 14.597 4.91667 14.4581 4.91667C14.3192 4.91667 14.1998 4.87222 14.0998 4.78333ZM7.99981 13.8833C9.38869 13.8833 10.5665 13.4 11.5331 12.4333C12.4998 11.4667 12.9831 10.2889 12.9831 8.9C12.9831 7.51111 12.4998 6.33333 11.5331 5.36667C10.5665 4.4 9.38869 3.91667 7.99981 3.91667C6.61092 3.91667 5.43314 4.4 4.46647 5.36667C3.4998 6.33333 3.01647 7.51111 3.01647 8.9C3.01647 10.2889 3.4998 11.4667 4.46647 12.4333C5.43314 13.4 6.61092 13.8833 7.99981 13.8833Z" fill="#FF6961"/>
</svg>
