<svg width="24" height="24" viewBox="0 0 24 24" fill="none" xmlns="http://www.w3.org/2000/svg">
<path fill-rule="evenodd" clip-rule="evenodd" d="M13.0413 4.75536L19.2414 11.8312C19.365 11.9723 19.5025 12.0368 19.6663 12.0368C19.8301 12.0368 19.9675 11.9723 20.0911 11.8312C20.1943 11.7134 20.25 11.5638 20.25 11.3585C20.25 11.1532 20.1943 11.0036 20.0911 10.8858L12.6406 2.38288C12.587 2.32167 12.5443 2.29153 12.5139 2.27766C12.4765 2.26058 12.4312 2.25 12.375 2.25C12.3188 2.25 12.2735 2.26058 12.2361 2.27766C12.2057 2.29153 12.163 2.32167 12.1094 2.38288L4.65889 10.8858C4.55412 11.0053 4.5 11.1518 4.5 11.3464C4.5 11.5333 4.55655 11.6902 4.68011 11.8312C4.79044 11.9572 4.92245 12.0255 5.089 12.0374C5.2314 12.0475 5.36788 11.9918 5.50857 11.8312L11.7087 4.75537L11.7087 21.827C11.7087 22.1987 12.007 22.5 12.375 22.5C12.743 22.5 13.0413 22.1987 13.0413 21.827V4.75536Z" fill="#000E50"/>
</svg>
