<svg width="25" height="24" viewBox="0 0 25 24" fill="none" xmlns="http://www.w3.org/2000/svg">
<path d="M18.5 2.25C18.3011 2.25 18.1103 2.32902 17.9697 2.46967C17.829 2.61032 17.75 2.80109 17.75 3V6H7.25V3C7.25 2.80109 7.17098 2.61032 7.03033 2.46967C6.88968 2.32902 6.69891 2.25 6.5 2.25C6.30109 2.25 6.11032 2.32902 5.96967 2.46967C5.82902 2.61032 5.75 2.80109 5.75 3V21C5.75 21.1989 5.82902 21.3897 5.96967 21.5303C6.11032 21.671 6.30109 21.75 6.5 21.75C6.69891 21.75 6.88968 21.671 7.03033 21.5303C7.17098 21.3897 7.25 21.1989 7.25 21V18H17.75V21C17.75 21.1989 17.829 21.3897 17.9697 21.5303C18.1103 21.671 18.3011 21.75 18.5 21.75C18.6989 21.75 18.8897 21.671 19.0303 21.5303C19.171 21.3897 19.25 21.1989 19.25 21V3C19.25 2.80109 19.171 2.61032 19.0303 2.46967C18.8897 2.32902 18.6989 2.25 18.5 2.25ZM17.75 7.5V11.25H7.25V7.5H17.75ZM7.25 16.5V12.75H17.75V16.5H7.25Z" fill="black"/>
</svg>
