<svg width="20" height="20" viewBox="0 0 20 20" fill="none" xmlns="http://www.w3.org/2000/svg">
<g clip-path="url(#clip0_230_17747)">
<path fill-rule="evenodd" clip-rule="evenodd" d="M10 20C4.48625 20 0 15.5138 0 10C0 4.48625 4.48625 0 10 0C15.5138 0 20 4.48625 20 10C20 15.5138 15.5138 20 10 20ZM1.25 10C1.25 14.825 5.175 18.75 10 18.75C12.1881 18.75 14.1856 17.9375 15.7212 16.605L3.395 4.27875C2.0625 5.81437 1.25 7.81187 1.25 10ZM10 1.25C7.81187 1.25 5.81437 2.0625 4.27875 3.395L16.605 15.7212C17.9375 14.1856 18.75 12.1881 18.75 10C18.75 5.175 14.825 1.25 10 1.25Z" fill="#000E50"/>
</g>
<defs>
<clipPath id="clip0_230_17747">
<rect width="20" height="20" fill="white"/>
</clipPath>
</defs>
</svg>
