<svg width="25" height="24" viewBox="0 0 25 24" fill="none" xmlns="http://www.w3.org/2000/svg">
<path d="M19.2527 2.25H5.75269C5.35486 2.25 4.97333 2.40804 4.69203 2.68934C4.41072 2.97064 4.25269 3.35218 4.25269 3.75V20.25C4.25269 20.6478 4.41072 21.0294 4.69203 21.3107C4.97333 21.592 5.35486 21.75 5.75269 21.75H19.2527C19.6505 21.75 20.032 21.592 20.3133 21.3107C20.5947 21.0294 20.7527 20.6478 20.7527 20.25V3.75C20.7527 3.35218 20.5947 2.97064 20.3133 2.68934C20.032 2.40804 19.6505 2.25 19.2527 2.25ZM14.7527 13.5H19.2527V15.75H11.0027V13.5H14.7527ZM15.5027 12V9.75H19.2527V12H15.5027ZM19.2527 3.75V8.25H14.7527C14.5538 8.25 14.363 8.32902 14.2224 8.46967C14.0817 8.61032 14.0027 8.80109 14.0027 9V12H10.2527C10.0538 12 9.86301 12.079 9.72236 12.2197C9.5817 12.3603 9.50269 12.5511 9.50269 12.75V15.75H5.75269V3.75H19.2527ZM19.2527 20.25H5.75269V17.25H19.2527V20.25Z" fill="black"/>
</svg>
