<svg width="34" height="36" viewBox="0 0 34 36" fill="none" xmlns="http://www.w3.org/2000/svg">
<path d="M7.89727 24.8541C8.15699 24.8541 8.36949 24.769 8.53477 24.5989C8.70004 24.4287 8.78268 24.21 8.78268 23.9426V22.5208H25.216V23.9426C25.216 24.21 25.2987 24.4287 25.4639 24.5989C25.6292 24.769 25.8417 24.8541 26.1014 24.8541C26.3612 24.8541 26.5737 24.7629 26.7389 24.5806C26.9042 24.3984 26.9868 24.1857 26.9868 23.9426V18.9478C26.9868 18.5589 26.8452 18.1336 26.5619 17.6718C26.2785 17.21 25.9125 16.8576 25.4639 16.6145V14.3541C25.4639 13.6249 25.2573 13.0477 24.8441 12.6223C24.4309 12.197 23.882 11.9843 23.1973 11.9843H18.6639C18.2862 11.9843 17.9556 12.0572 17.6723 12.203C17.3889 12.3489 17.1528 12.5555 16.9639 12.8228C16.7987 12.5555 16.5743 12.3489 16.291 12.203C16.0077 12.0572 15.6653 11.9843 15.2639 11.9843H10.8014C10.1167 11.9843 9.56775 12.197 9.15456 12.6223C8.74136 13.0477 8.53477 13.6249 8.53477 14.3541V16.6145C8.08615 16.8576 7.72018 17.21 7.43685 17.6718C7.15352 18.1336 7.01185 18.5589 7.01185 18.9478V23.9426C7.01185 24.1857 7.09449 24.3984 7.25977 24.5806C7.42504 24.7629 7.63754 24.8541 7.89727 24.8541ZM17.7077 16.6145V13.9166C17.7077 13.7951 17.749 13.6918 17.8316 13.6067C17.9143 13.5216 18.0264 13.4791 18.1681 13.4791H23.6223C23.7403 13.4791 23.8407 13.5216 23.9233 13.6067C24.0059 13.6918 24.0473 13.7951 24.0473 13.9166V16.6145H17.7077ZM9.95143 16.6145V13.9166C9.95143 13.7951 9.99275 13.6918 10.0754 13.6067C10.158 13.5216 10.2584 13.4791 10.3764 13.4791H15.866C15.9841 13.4791 16.0844 13.5216 16.1671 13.6067C16.2497 13.6918 16.291 13.7951 16.291 13.9166V16.6145H9.95143ZM8.78268 21.026V19.5312C8.78268 19.0937 8.91254 18.7412 9.17227 18.4739C9.43199 18.2065 9.77435 18.0728 10.1993 18.0728H23.7993C24.2243 18.0728 24.5667 18.2065 24.8264 18.4739C25.0862 18.7412 25.216 19.0937 25.216 19.5312V21.026H8.78268ZM5.59518 31.8541C5.02852 31.8541 4.54449 31.6475 4.1431 31.2343C3.74171 30.8211 3.54102 30.3228 3.54102 29.7395V6.26034C3.54102 5.677 3.74171 5.17874 4.1431 4.76554C4.54449 4.35235 5.02852 4.14575 5.59518 4.14575H28.4035C28.9702 4.14575 29.4542 4.35235 29.8556 4.76554C30.257 5.17874 30.4577 5.677 30.4577 6.26034V29.7395C30.4577 30.3228 30.257 30.8211 29.8556 31.2343C29.4542 31.6475 28.9702 31.8541 28.4035 31.8541H5.59518ZM5.59518 30.2135H28.4035C28.5452 30.2135 28.6573 30.1709 28.74 30.0859C28.8226 30.0008 28.8639 29.8853 28.8639 29.7395V6.26034C28.8639 6.1145 28.8226 5.99905 28.74 5.91398C28.6573 5.82891 28.5452 5.78638 28.4035 5.78638H5.59518C5.45352 5.78638 5.34136 5.82891 5.25872 5.91398C5.17609 5.99905 5.13477 6.1145 5.13477 6.26034V29.7395C5.13477 29.8853 5.17609 30.0008 5.25872 30.0859C5.34136 30.1709 5.45352 30.2135 5.59518 30.2135ZM5.13477 30.2135C5.13477 30.2135 5.13477 30.1709 5.13477 30.0859C5.13477 30.0008 5.13477 29.8853 5.13477 29.7395V6.26034C5.13477 6.1145 5.13477 5.99905 5.13477 5.91398C5.13477 5.82891 5.13477 5.78638 5.13477 5.78638C5.13477 5.78638 5.13477 5.82891 5.13477 5.91398C5.13477 5.99905 5.13477 6.1145 5.13477 6.26034V29.7395C5.13477 29.8853 5.13477 30.0008 5.13477 30.0859C5.13477 30.1709 5.13477 30.2135 5.13477 30.2135Z" fill="#000E50"/>
</svg>
