<svg width="25" height="24" viewBox="0 0 25 24" fill="none" xmlns="http://www.w3.org/2000/svg">
<path d="M22.5 17.5H2.5" stroke="#000728" stroke-width="1.5" stroke-linecap="round" stroke-linejoin="round"/>
<path d="M22.5 21V14C22.5 12.8954 21.6046 12 20.5 12H4.5C3.39543 12 2.5 12.8954 2.5 14V21" stroke="#000728" stroke-width="1.5" stroke-linecap="round" stroke-linejoin="round"/>
<path d="M18 12V9.5C18 9.22386 17.7761 9 17.5 9H14C13.7239 9 13.5 9.22386 13.5 9.5V12" stroke="#000728" stroke-width="1.5" stroke-linejoin="round"/>
<path d="M11.5 12V9.5C11.5 9.22386 11.2761 9 11 9H7.5C7.22386 9 7 9.22386 7 9.5V12" stroke="#000728" stroke-width="1.5" stroke-linejoin="round"/>
<path d="M21 12V6.50333C21 6.1867 20.8508 5.88734 20.5922 5.70462C18.1716 3.99433 15.6695 3 12.5 3C9.33052 3 6.8284 3.99433 4.40783 5.70462C4.14924 5.88734 4 6.1867 4 6.50333V12" stroke="#000728" stroke-width="1.5" stroke-linejoin="round"/>
</svg>
