<svg xmlns="http://www.w3.org/2000/svg" width="76" height="96" viewBox="0 0 76 96" fill="none">
  <path d="M65.4936 53.3497C60.6591 53.3497 56.7401 49.4435 56.7401 44.625C56.7401 39.8065 60.6591 35.9004 65.4936 35.9004C70.328 35.9004 74.2471 39.8065 74.2471 44.625C74.2471 49.4435 70.328 53.3497 65.4936 53.3497Z" fill="white"/>
  <path d="M69.4327 44.8935C69.5 44.8935 69.5673 44.8935 69.6347 44.8935C70.1733 44.7928 70.51 44.2559 70.409 43.719L69.9377 41.3701C69.8367 40.8332 69.298 40.4976 68.7593 40.5983C68.2206 40.6989 67.884 41.2358 67.985 41.7727L68.4563 44.1217C68.5573 44.5915 68.9613 44.927 69.4327 44.927V44.8935Z" fill="#2A46BB"/>
  <path d="M59.2315 56.6047C60.7128 60.0275 59.7701 64.0878 57.7501 67.2421C55.73 70.3964 52.7337 72.7118 49.7709 74.9936C40.7144 81.9398 31.0182 88.8525 19.7397 90.8323C16.5076 91.4028 12.7705 91.4027 10.4475 89.0538C8.62945 87.2417 8.19178 84.423 8.42745 81.8727C8.93246 76.3695 11.9962 71.336 16.0363 67.5441C20.0764 63.7522 25.0591 61.1013 30.1092 58.8194C35.799 56.2356 41.8255 53.5511 47.8856 51.9403C52.2623 50.7659 57.3461 52.1417 59.2651 56.6047H59.2315Z" fill="white"/>
  <path d="M43.4751 48.6854C43.4751 47.9136 43.4415 47.1753 43.3405 46.4371C43.2395 45.6988 43.3068 46.0344 43.2731 45.8331C43.2731 45.6988 43.2395 45.6317 43.2731 45.8331C43.2731 45.766 43.2731 45.7324 43.2731 45.6653C43.2731 45.5646 43.2731 45.4304 43.2395 45.3297C43.1721 44.8935 43.1048 44.4908 43.0038 44.0546C42.6671 42.209 42.1621 40.3969 41.5898 38.6184C40.2767 34.491 38.627 30.5984 36.708 26.7394C34.7216 22.7462 32.4659 18.8537 29.9409 15.1289C27.7525 11.8739 25.3958 8.82028 22.5677 6.06865C21.9617 5.49819 21.3557 4.92773 20.716 4.42438C20.0764 3.92103 20.413 4.18948 20.2783 4.08882C20.1437 3.98815 20.211 4.0217 20.1773 3.98815C20.0763 3.92103 20.009 3.85392 19.908 3.78681C19.605 3.58547 19.3357 3.35057 18.999 3.18279C18.4603 2.81367 17.8879 2.51166 17.2819 2.20965C16.6759 1.90764 17.1473 2.14254 17.0799 2.10898C16.8779 2.00831 17.181 2.14254 17.0126 2.07543C16.8443 2.00831 16.7433 1.97476 16.6086 1.90764C16.3392 1.80697 16.0699 1.73986 15.8006 1.67275C15.5313 1.60564 15.5312 1.60564 15.3966 1.60564C15.2619 1.60564 15.0936 1.60564 15.3629 1.60564C15.2956 1.60564 15.2282 1.60564 15.1609 1.60564C14.9252 1.60564 14.6559 1.60564 14.3866 1.60564C14.1172 1.60564 14.2519 1.60564 14.2182 1.60564C14.1845 1.60564 13.9489 1.63919 14.2182 1.60564C14.0835 1.60564 13.9825 1.63919 13.8479 1.67275C13.7132 1.70631 13.6122 1.73986 13.5112 1.77342C13.4102 1.80697 13.4102 1.80697 13.3429 1.84053C13.2755 1.87409 13.0399 1.97476 13.2755 1.84053C12.2655 2.34388 11.4238 2.94789 10.7505 3.82036C10.0771 4.69283 9.57215 5.69953 9.23548 6.70622C8.56213 8.6525 8.32645 10.4981 8.22544 12.5115C8.15811 14.0551 8.32643 15.7665 8.49477 17.1758C9.30278 22.8133 11.1882 28.3501 13.9826 33.3165C14.7232 34.6252 15.4976 35.9675 16.4066 37.1755C16.4739 37.2426 16.3056 37.0413 16.4066 37.1755C16.5076 37.3097 16.4739 37.2762 16.5413 37.3433C16.6423 37.4775 16.7433 37.6117 16.8779 37.7124C17.1136 37.9809 17.383 38.2493 17.6523 38.5178C19.0327 39.9271 20.4803 41.2023 21.9954 42.4774C23.7124 43.9203 25.3958 45.2626 27.1801 46.5378C28.9645 47.8129 30.0755 48.5847 31.6916 49.3229C33.3076 50.0612 31.8262 49.3901 31.9272 49.4236C32.1292 49.5243 31.8262 49.3901 32.0282 49.4572C32.2302 49.5243 32.2639 49.5578 32.3986 49.5914C32.5332 49.625 32.6342 49.6585 32.7689 49.6921C32.9036 49.7256 32.8699 49.6921 32.9372 49.6921C33.0382 49.6921 32.7352 49.6921 32.9372 49.6921C32.7016 49.9941 32.4659 50.2961 32.2639 50.5981C31.5569 47.2424 28.9309 44.7593 26.3048 42.7459C24.6214 41.4707 22.8371 40.3634 21.0527 39.2896C18.797 37.9473 16.4403 36.7057 14.0499 35.6655C11.9288 34.7259 9.63947 33.887 7.28276 33.5178C4.92604 33.1487 7.18175 33.5178 7.14808 33.5178C7.31641 33.5178 7.08075 33.5178 7.08075 33.5178C6.94608 33.5178 6.81143 33.5178 6.71043 33.4843C6.47475 33.4843 6.23905 33.4843 6.00338 33.4507C5.76771 33.4172 5.5994 33.4507 5.36372 33.4507C5.12805 33.4507 5.16171 33.4507 5.06071 33.4507C5.26272 33.4507 4.9597 33.4507 4.89237 33.4507C4.72403 33.4843 4.52204 33.5178 4.35371 33.585C4.18537 33.6521 4.01702 33.7192 4.21902 33.6185C4.11802 33.6521 4.05067 33.6856 3.98333 33.7527C3.91599 33.8199 3.81501 33.8534 3.74767 33.887C3.68034 33.9205 3.71403 33.9205 3.68036 33.9541C3.81503 33.8534 3.54569 34.0547 3.68036 33.9541C3.54569 34.0547 3.41099 34.2225 3.27632 34.3568C3.14165 34.491 3.20901 34.4574 3.17535 34.491C3.10801 34.5581 3.04068 34.6588 3.00702 34.7259C2.87234 34.8937 2.77135 35.095 2.67034 35.2963C2.56934 35.4977 2.53564 35.5983 2.60297 35.4306C2.56931 35.5312 2.53567 35.6319 2.502 35.7326C2.43466 35.9339 2.36734 36.1353 2.33367 36.3366C2.3 36.5379 2.33363 36.5044 2.29997 36.605C2.29997 36.8064 2.2663 36.7057 2.29997 36.605C2.29997 36.6722 2.29997 36.7057 2.29997 36.7728C2.29997 36.9742 2.29997 37.2091 2.29997 37.4104C2.29997 37.6117 2.29997 37.8131 2.29997 38.0144C2.29997 38.2158 2.3 38.2493 2.33367 38.35C2.33367 38.1822 2.33365 38.5178 2.36732 38.5513C2.73766 40.5647 3.6467 42.2761 4.85872 44.021C6.13808 45.8666 7.75408 47.6451 9.50478 49.1887C11.1881 50.6988 12.9725 52.041 15.0262 53.1484C17.0799 54.2557 15.9352 53.6517 16.4403 53.8531C16.9453 54.0544 16.676 53.9537 16.8106 54.0209C16.9453 54.088 16.9453 54.088 16.8106 54.0209C16.878 54.0209 16.9453 54.0544 16.979 54.088C17.2146 54.1886 17.4503 54.2557 17.686 54.3564C18.1236 54.4906 18.5276 54.6249 18.9653 54.7255C19.403 54.8262 19.3693 54.7926 19.5377 54.8262C19.706 54.8598 19.4367 54.8262 19.6724 54.8262C19.908 54.8262 19.908 54.8262 20.009 54.8262C20.3457 54.8262 20.716 54.8262 21.0527 54.8262C21.3894 54.8262 21.7597 55.1953 21.7597 55.5309C21.7597 55.8665 21.423 56.202 21.0527 56.2356C19.2347 56.4705 17.3493 55.7993 15.6996 55.0611C14.0499 54.3229 11.5922 52.7457 9.74048 51.2692C7.82144 49.7256 6.07072 47.9807 4.55569 46.0344C3.14167 44.2224 1.89597 42.2425 1.25629 40.0614C0.683945 38.2157 0.616631 36.2024 1.52565 34.491C2.43466 32.7796 2.50197 32.9809 3.27632 32.5447C4.05067 32.1085 4.95969 31.9407 5.83504 31.9407C8.12441 31.9071 10.4475 32.6454 12.5685 33.4843C15.1609 34.491 17.6523 35.699 20.0763 37.0413C22.5004 38.3835 24.2174 39.4573 26.1365 40.7996C28.7288 42.6452 31.3549 44.7928 32.8026 47.7122C33.2066 48.484 33.5096 49.3229 33.678 50.1619C33.8463 51.0008 33.476 51.1014 33.0046 51.0679C32.5333 51.0343 31.7589 50.7659 31.1866 50.531C30.4459 50.1954 29.7389 49.7927 29.0655 49.3565C27.2475 48.2156 25.4968 46.9404 23.8134 45.5982C22.13 44.2559 20.3793 42.813 18.7296 41.3029C17.0799 39.7929 16.3056 39.0547 15.2956 37.746C14.2856 36.4373 13.5786 35.095 12.8042 33.7192C11.9625 32.2091 11.2218 30.632 10.5485 29.0548C9.40378 26.3368 8.49477 23.518 7.85509 20.6322C7.21541 17.7463 7.04709 16.3705 6.94608 14.2229C6.84509 12.5786 6.97975 10.9008 7.24909 9.29007C7.61943 7.00823 8.32645 4.65928 9.77414 2.81367C11.2218 0.968063 12.5349 0.229821 14.3866 0.0284817C17.0463 -0.23997 19.605 1.43785 21.5577 3.01501C24.4868 5.36396 26.9445 8.28337 29.2002 11.2699C31.8936 14.8604 34.284 18.7194 36.4387 22.6791C38.627 26.7059 40.5461 30.8333 42.1284 35.1286C43.7108 39.4238 44.5525 42.4439 44.9565 46.2693C45.0238 47.0075 45.0912 47.7458 45.0912 48.5176C45.0912 49.4236 43.6771 49.4236 43.6771 48.5176L43.4751 48.6854Z" fill="#2A46BB"/>
  <path d="M55.6964 41.5714C55.629 43.4506 55.6627 45.3968 56.3361 47.1753C56.3361 47.1753 56.4371 47.4102 56.3697 47.276C56.3697 47.3431 56.4371 47.4102 56.4707 47.4773C56.5381 47.6451 56.6054 47.7793 56.7064 47.9471C56.8411 48.2156 57.0094 48.484 57.1777 48.7525C57.5144 49.2894 57.9184 49.7927 58.2888 50.2961C60.7802 53.7524 61.9248 57.9805 61.4872 62.2086C61.1505 65.7992 59.9048 69.2555 57.7838 72.2085C55.6627 75.1614 54.114 76.5037 51.9256 78.2486C49.5016 80.1949 46.8756 81.8727 44.1485 83.3492C41.3204 84.8928 38.3577 86.2015 35.3276 87.3424C32.4659 88.4162 29.5369 89.3223 26.5741 90.0269C23.9481 90.631 21.2547 91.1007 18.5276 91.3021C16.4403 91.4363 14.2519 91.4363 12.1982 90.933C10.1445 90.4296 9.20177 89.8927 8.32642 88.584C7.45107 87.2753 7.45107 86.2686 7.31641 85.1277C7.18173 83.9868 7.31642 82.1076 7.61943 80.6311C8.39378 77.2084 10.0771 73.9869 12.0298 71.1011C14.2855 67.7454 17.0126 64.6583 19.908 61.8395C22.8034 59.0543 25.9681 56.4705 29.3349 54.2557C30.9172 53.2155 32.5333 52.2424 34.2503 51.4706C35.9673 50.6988 38.425 49.8934 40.5797 49.4236C44.6535 48.5511 48.9629 48.2827 53.104 48.9203C57.2451 49.5578 56.5044 49.7256 58.0868 50.4639C59.6691 51.2021 59.3661 51.1014 60.0058 51.4034C60.6455 51.7055 60.5108 51.6383 60.8475 51.7726C61.1842 51.9068 61.5545 52.0075 61.9585 52.1081C62.8338 52.3095 63.6755 52.3766 64.5846 52.3766C65.4936 52.3766 66.5709 52.343 67.5473 52.1081C69.0623 51.7055 70.409 50.8665 71.4864 49.6921C73.7084 47.276 74.4154 43.6855 73.1361 40.5983C72.3954 38.8198 70.9814 37.1419 69.2643 36.2024C67.5473 35.2628 64.8202 34.9272 62.6655 35.2963C60.5108 35.6655 58.5581 36.5715 56.9421 38.0144C55.326 39.4573 55.8311 38.2829 55.7637 37.7124C55.5954 36.4037 55.6964 35.0279 55.9994 33.7192C56.6054 31.0347 58.1878 28.7193 60.5108 27.2428C62.4298 26.0347 64.6856 25.5314 66.9076 25.2965C69.1296 25.0616 67.6146 25.6321 67.6146 26.0012C67.6146 26.3703 67.2779 26.6723 66.9076 26.7059C65.0559 26.8737 63.2379 27.3099 61.6555 28.1824C60.0731 29.0548 61.0158 28.585 60.6791 28.7864C60.3425 28.9877 60.2415 29.1219 59.9385 29.3904C59.6355 29.6588 59.4671 29.8602 59.2314 30.1286C58.9958 30.3971 59.1304 30.2293 59.0968 30.2964C59.0631 30.3635 58.9284 30.4978 58.9958 30.4306C59.0631 30.3635 58.9284 30.5313 58.8948 30.5649C58.8274 30.632 58.7938 30.6991 58.7264 30.7662C58.3898 31.2696 58.0868 31.7729 57.8511 32.3434C57.8848 32.2427 57.6154 32.9138 57.8511 32.3434C57.8174 32.444 57.8511 32.4105 57.8174 32.444C57.8174 32.5112 57.7837 32.5447 57.7501 32.6118C57.6827 32.746 57.6491 32.8803 57.6154 33.0145C57.5481 33.2829 57.4471 33.5178 57.3798 33.7863C57.3124 34.0547 57.2787 34.2561 57.2114 34.491C57.1441 34.7259 57.1777 34.7259 57.1441 34.8265C57.1104 34.9272 57.1441 34.9272 57.1441 34.9943C57.1441 34.8601 57.1441 34.9272 57.1441 34.9943C57.1104 35.397 57.0767 35.7997 57.0431 36.1688C57.0094 36.5379 57.0431 36.7728 57.0431 37.1084C57.0431 37.444 57.1104 37.7124 57.0431 37.2762L55.8647 36.9742C57.5818 35.4641 59.6691 34.3568 61.9585 33.9541C64.2479 33.5514 66.8403 33.6521 68.995 34.5581C72.7657 36.1017 75.3581 40.1956 75.1561 44.2559C74.9878 47.6787 73.0351 50.9672 70.005 52.645C68.288 53.5846 66.4026 53.8195 64.4499 53.8195C62.4972 53.8195 61.0495 53.4504 59.4671 52.7457C57.8848 52.041 56.8074 51.3699 55.3597 50.9337C53.6427 50.3968 51.9256 50.1619 50.1413 50.0947C45.8992 49.8934 41.5561 50.4639 37.516 51.7726C33.8126 52.9806 30.4795 55.1282 27.3485 57.4436C24.2174 59.759 21.0863 62.5778 18.3256 65.5643C15.6996 68.4166 13.2755 71.5038 11.4238 74.893C10.5821 76.403 9.9088 77.8795 9.40379 79.5238C8.89877 81.168 8.96611 81.0674 8.83144 81.8392C8.69677 82.611 8.73042 82.4096 8.69675 82.8459C8.66309 83.2821 8.62945 83.5841 8.62945 83.9197C8.62945 84.2552 8.62944 84.6244 8.66311 84.9935C8.69678 85.3626 8.69677 85.4968 8.79778 85.8995C8.89877 86.3022 8.93243 86.5706 9.03343 86.9062C9.13443 87.2418 9.13444 87.2418 9.20177 87.376C9.26911 87.5102 9.26912 87.5102 9.30279 87.6109C9.37012 87.8122 9.23546 87.5102 9.30279 87.6109C9.37012 87.7115 9.43745 87.8793 9.50478 88.0135C9.57212 88.1478 9.6058 88.1478 9.63947 88.1813C9.67313 88.2149 9.50479 88.0471 9.63947 88.1478C9.77413 88.2485 9.70677 88.2149 9.70677 88.2484C9.80778 88.3827 9.90878 88.4833 10.0434 88.584C10.1781 88.6847 10.1445 88.6847 10.2118 88.7182C10.0435 88.5505 10.2118 88.7182 10.3128 88.7854C10.6158 88.9867 10.9188 89.1545 11.2218 89.2887C11.5248 89.4229 11.1881 89.2887 11.2218 89.2887C11.2555 89.2887 11.2892 89.2887 11.3565 89.3223C11.4575 89.3558 11.5585 89.3894 11.6595 89.4229C11.8615 89.49 12.0298 89.5572 12.2318 89.5907C12.6358 89.6914 13.0735 89.792 13.5112 89.8592C13.9489 89.9263 13.7132 89.8592 13.8142 89.8927C13.9152 89.9263 13.6459 89.8927 13.8479 89.8927C14.0499 89.8927 13.9825 89.8927 14.0499 89.8927C14.2856 89.8927 14.5549 89.9598 14.7906 89.9598C15.8679 90.0269 16.9789 90.0269 18.0563 89.9598C19.1337 89.8927 19.302 89.8927 19.908 89.8256C20.514 89.7585 20.5477 89.7585 20.8507 89.7249C21.1537 89.6914 20.9854 89.7249 21.0864 89.7249C21.221 89.7249 21.1874 89.7249 21.0864 89.7249C21.0864 89.7249 21.1537 89.7249 21.1873 89.7249C21.3557 89.7249 21.524 89.6914 21.6924 89.6578C24.5204 89.2216 27.3485 88.584 30.1092 87.7451C33.0719 86.8726 36.0346 85.7653 38.7954 84.5237C41.6908 83.2485 44.4851 81.7721 47.1449 80.0607C49.6362 78.45 51.8583 76.7721 53.9794 74.6245C56.1004 72.4769 54.922 73.6514 55.3597 73.1145C55.7974 72.5776 55.7974 72.6111 55.9994 72.3427C56.2014 72.0742 56.1341 72.1749 56.1004 72.2085C56.0667 72.242 56.1677 72.1078 56.2014 72.0742C56.3024 71.94 56.4034 71.8058 56.5044 71.638C57.2451 70.5977 57.8847 69.5239 58.4234 68.383C58.9621 67.2421 58.4908 68.2488 58.5244 68.1817C58.5581 68.1146 58.6254 67.9803 58.5581 68.1146C58.6254 67.9803 58.6928 67.8126 58.7264 67.6783C58.9621 67.0408 59.1641 66.4367 59.3661 65.7992C59.7365 64.5576 59.9721 63.316 60.0731 62.0408C60.2751 59.6583 59.9721 57.2758 59.1305 55.0275C58.5581 53.4839 57.7501 52.1417 56.7737 50.833C55.9994 49.7592 55.2587 48.6854 54.7874 47.4102C54.1477 45.5982 54.114 43.6183 54.1813 41.7392C54.2487 39.86 55.6291 40.8332 55.5954 41.7392L55.6964 41.5714Z" fill="#2A46BB"/>
  <path d="M5.9024 95.8658L7.5521 96C7.78777 94.1208 9.2018 91.0336 10.4475 89.2887C11.6932 87.5438 12.6022 87.2082 14.5212 85.7988C17.6186 83.517 20.6487 82.0741 23.6114 81.5036C25.3621 83.2485 26.8772 84.4566 28.2575 85.1613C29.6042 85.8659 30.6479 85.9666 31.3549 85.4297C32.0619 84.8928 32.3313 84.3223 32.2976 83.5841C32.2639 82.8459 31.9609 82.1747 31.3886 81.5707C29.8062 79.9265 27.4495 79.356 24.3184 79.7922C20.7833 75.8661 20.3457 72.9131 23.0054 70.9669C24.0491 70.1951 25.2948 69.6582 26.7088 69.3897C28.1228 69.1213 29.6042 69.0541 31.1529 69.289C32.5333 71.7722 34.284 74.1547 36.4387 76.3695C37.5834 77.5439 38.7954 78.5171 40.1084 79.2889C41.4214 80.0607 42.5325 80.0942 43.4415 79.4567C44.4178 78.752 44.6872 77.7117 44.2832 76.3359C43.8792 74.9601 43.0038 73.6178 41.7244 72.2756C40.7481 71.2689 39.4351 70.3629 37.7517 69.591C36.0683 68.8193 34.2839 68.2823 32.4322 67.9803C30.9509 64.9267 30.9509 62.8798 32.3649 61.8395C33.7789 60.7993 35.597 60.3966 37.6844 60.6986C40.0411 64.1549 42.7681 67.5106 45.8992 70.732C48.0202 72.9131 49.8046 74.4903 51.2523 75.4299C52.7 76.3695 53.8447 76.5372 54.6527 75.9668C55.4607 75.3628 55.3597 74.0541 54.316 72.0742C53.2723 70.0944 51.6563 67.9803 49.5016 65.6985C48.1212 64.2556 46.4715 62.9469 44.5188 61.7724C42.5998 60.5979 40.6807 59.7926 38.7617 59.3228C37.4823 57.4772 34.3176 53.786 36.304 52.2088C37.7854 51.0343 41.1184 51.7055 42.7681 52.4101C44.4178 53.0813 46.2695 54.2222 48.3232 55.7322C50.3769 57.2758 52.296 58.9872 54.1477 60.8664C56.8411 63.6851 58.7938 65.9334 59.9385 67.6448C61.1168 69.3562 62.3962 71.638 63.8776 74.4567L65.5272 73.7521C64.1132 70.9333 62.7665 68.6515 61.5545 66.873C60.3425 65.0945 58.3224 62.7455 55.5281 59.8597C53.5417 57.8127 51.4206 55.9336 49.0976 54.2893C46.8082 52.645 44.6535 51.4706 42.7008 50.7659C40.7481 50.0947 36.7753 49.7256 35.1256 51.3699C33.4759 53.0142 33.9136 54.692 36.6407 59.0208C34.587 58.9537 32.8026 59.4906 31.2539 60.5979C29.3348 62.0073 29.0992 64.3562 30.4796 67.6783C26.9445 67.477 24.1164 68.1481 21.928 69.7588C20.0763 71.1011 19.302 72.6783 19.5713 74.4903C19.8407 76.3024 20.817 78.1815 22.5004 80.1278C20.9517 80.5305 19.403 81.1345 17.8206 81.9398C16.2383 82.7452 14.7906 83.6177 13.4776 84.5908C11.4238 86.1008 10.6495 86.6377 9.30279 88.584C7.9561 90.5303 6.20538 93.7182 6.00338 95.8322L5.9024 95.8658ZM40.0747 61.3697C42.9701 62.3764 45.6299 64.1549 48.0876 66.7052C49.8046 68.5173 51.2186 70.2622 52.296 71.94C53.3734 73.6178 53.7774 74.591 53.4743 74.7923C53.1713 74.9936 52.5317 74.6245 51.387 73.7185C50.276 72.8125 48.8619 71.5038 47.2122 69.7588C44.8555 67.3092 42.4651 64.4905 40.0747 61.3362V61.3697ZM33.3413 69.7253C34.7553 70.0608 36.102 70.5642 37.3477 71.2018C38.5934 71.8393 39.5697 72.544 40.3441 73.3158C41.4214 74.4232 42.1284 75.4634 42.4988 76.403C42.8691 77.3426 42.8018 77.9802 42.2968 78.3493C41.9601 78.5842 41.3204 78.3493 40.3778 77.7117C39.4351 77.0406 38.5597 76.3023 37.7854 75.4634C36.0683 73.6514 34.587 71.7722 33.3413 69.7588V69.7253ZM25.6315 81.2016C27.5842 81.1009 29.0655 81.5707 30.0419 82.5774C30.7489 83.2821 30.7825 83.8526 30.2439 84.2888C29.7052 84.725 29.5032 84.2888 28.6615 83.7519C27.8198 83.215 26.8435 82.3761 25.6651 81.2352L25.6315 81.2016Z" fill="url(#paint0_linear_560_8323)"/>
  <defs>
    <linearGradient id="paint0_linear_560_8323" x1="74.642" y1="40.9981" x2="-1.65144" y2="44.6614" gradientUnits="userSpaceOnUse">
      <stop stop-color="#6FF9D8"/>
      <stop offset="1" stop-color="#C3B7FF"/>
    </linearGradient>
  </defs>
</svg>
