<svg width="24" height="24" viewBox="0 0 24 24" fill="none" xmlns="http://www.w3.org/2000/svg">
<path d="M6.525 21.0001C6.125 21.0001 5.775 20.8501 5.475 20.5501C5.175 20.2501 5.025 19.9001 5.025 19.5001V5.25012H4.75C4.53333 5.25012 4.35417 5.17929 4.2125 5.03762C4.07083 4.89596 4 4.71679 4 4.50012C4 4.28346 4.07083 4.10429 4.2125 3.96262C4.35417 3.82096 4.53333 3.75012 4.75 3.75012H8.7C8.7 3.53346 8.77083 3.35429 8.9125 3.21262C9.05417 3.07096 9.23333 3.00012 9.45 3.00012H14.55C14.7667 3.00012 14.9458 3.07096 15.0875 3.21262C15.2292 3.35429 15.3 3.53346 15.3 3.75012H19.25C19.4667 3.75012 19.6458 3.82096 19.7875 3.96262C19.9292 4.10429 20 4.28346 20 4.50012C20 4.71679 19.9292 4.89596 19.7875 5.03762C19.6458 5.17929 19.4667 5.25012 19.25 5.25012H18.975V19.5001C18.975 19.9001 18.825 20.2501 18.525 20.5501C18.225 20.8501 17.875 21.0001 17.475 21.0001H6.525ZM6.525 5.25012V19.5001H17.475V5.25012H6.525ZM9.175 16.6001C9.175 16.8168 9.24583 16.996 9.3875 17.1376C9.52917 17.2793 9.70833 17.3501 9.925 17.3501C10.1417 17.3501 10.3208 17.2793 10.4625 17.1376C10.6042 16.996 10.675 16.8168 10.675 16.6001V8.12512C10.675 7.90846 10.6042 7.72929 10.4625 7.58762C10.3208 7.44596 10.1417 7.37512 9.925 7.37512C9.70833 7.37512 9.52917 7.44596 9.3875 7.58762C9.24583 7.72929 9.175 7.90846 9.175 8.12512V16.6001ZM13.325 16.6001C13.325 16.8168 13.3958 16.996 13.5375 17.1376C13.6792 17.2793 13.8583 17.3501 14.075 17.3501C14.2917 17.3501 14.4708 17.2793 14.6125 17.1376C14.7542 16.996 14.825 16.8168 14.825 16.6001V8.12512C14.825 7.90846 14.7542 7.72929 14.6125 7.58762C14.4708 7.44596 14.2917 7.37512 14.075 7.37512C13.8583 7.37512 13.6792 7.44596 13.5375 7.58762C13.3958 7.72929 13.325 7.90846 13.325 8.12512V16.6001ZM6.525 5.25012V19.5001V5.25012Z" fill="#D70015"/>
</svg>
