<svg width="25" height="25" viewBox="0 0 25 25" fill="none" xmlns="http://www.w3.org/2000/svg">
<path d="M3.69942 14.577C2.451 15.8081 2.34974 18.1176 2.64192 20.2508C2.90703 22.1863 5.08474 23.0985 6.71736 22.0762C9.70397 20.2061 12.8233 17.7421 15.8121 14.7946C18.8826 11.7665 20.565 9.46137 22.0489 6.86746C22.9487 5.29457 22.5272 3.19728 20.7051 2.73217C18.7102 2.22298 16.1245 2.43189 13.8429 4.57744M3.69942 14.577C2.86568 10.837 5.79564 6.43182 12.671 10.2942M3.69942 14.577C4.32273 14.5897 5.72295 14.8717 7.05977 15.8244M13.8429 4.57744C9.32796 3.5048 7.41435 6.7548 7.35129 8.6954M13.8429 4.57744C14.8094 4.80706 15.8951 5.23476 17.1074 5.91579" stroke="#000E50" stroke-width="1.5" stroke-linecap="round" stroke-linejoin="round"/>
</svg>
