<svg width="20" height="20" viewBox="0 0 20 20" fill="none" xmlns="http://www.w3.org/2000/svg">
<g id="Frame">
<path id="Vector" d="M3.10417 16.6668C2.9375 16.6668 2.79514 16.6043 2.67708 16.4793C2.55903 16.3543 2.5 16.2016 2.5 16.021C2.5 15.8543 2.55903 15.712 2.67708 15.5939C2.79514 15.4759 2.94444 15.4168 3.125 15.4168H16.8958C17.0625 15.4168 17.2049 15.4793 17.3229 15.6043C17.441 15.7293 17.5 15.8752 17.5 16.0418C17.5 16.2224 17.441 16.3717 17.3229 16.4897C17.2049 16.6078 17.0556 16.6668 16.875 16.6668H3.10417ZM3.10417 4.5835C2.9375 4.5835 2.79514 4.521 2.67708 4.396C2.55903 4.271 2.5 4.11822 2.5 3.93766C2.5 3.771 2.55903 3.62864 2.67708 3.51058C2.79514 3.39252 2.94444 3.3335 3.125 3.3335H16.8958C17.0625 3.3335 17.2049 3.396 17.3229 3.521C17.441 3.646 17.5 3.79183 17.5 3.9585C17.5 4.13905 17.441 4.28836 17.3229 4.40641C17.2049 4.52447 17.0556 4.5835 16.875 4.5835H3.10417ZM3.75 13.1043C3.40278 13.1043 3.10764 12.9828 2.86458 12.7397C2.62153 12.4967 2.5 12.2016 2.5 11.8543V8.146C2.5 7.79877 2.62153 7.50363 2.86458 7.26058C3.10764 7.01752 3.40278 6.896 3.75 6.896H16.25C16.5972 6.896 16.8924 7.01752 17.1354 7.26058C17.3785 7.50363 17.5 7.79877 17.5 8.146V11.8543C17.5 12.2016 17.3785 12.4967 17.1354 12.7397C16.8924 12.9828 16.5972 13.1043 16.25 13.1043H3.75ZM3.75 11.8543H16.25V8.146H3.75V11.8543ZM3.75 8.146V11.8543V8.146Z" fill="#000E50"/>
</g>
</svg>
