<svg width="24" height="24" viewBox="0 0 24 24" fill="none" xmlns="http://www.w3.org/2000/svg">
<g id="checklist">
<path id="Vector" d="M21.7962 8.53122C21.7962 7.98122 21.3462 7.53122 20.7962 7.53122H13.7962C13.2462 7.53122 12.7962 7.98122 12.7962 8.53122C12.7962 9.08122 13.2462 9.53122 13.7962 9.53122H20.7962C21.3462 9.53122 21.7962 9.08122 21.7962 8.53122ZM12.7962 16.5312C12.7962 17.0812 13.2462 17.5312 13.7962 17.5312H20.7962C21.3462 17.5312 21.7962 17.0812 21.7962 16.5312C21.7962 15.9812 21.3462 15.5312 20.7962 15.5312H13.7962C13.2462 15.5312 12.7962 15.9812 12.7962 16.5312ZM10.2662 5.16122C10.6562 5.55122 10.6562 6.18122 10.2662 6.57122L6.03624 10.8212C5.64623 11.2112 5.01624 11.2112 4.61624 10.8212L2.49624 8.69122C2.10624 8.30122 2.10624 7.67122 2.49624 7.28122C2.88624 6.89122 3.51624 6.89122 3.90624 7.28122L5.32624 8.70122L8.86623 5.16122C9.24623 4.78122 9.88624 4.78122 10.2662 5.16122ZM10.2762 13.1712C10.6662 13.5612 10.6662 14.1912 10.2762 14.5812L6.04624 18.8312C5.65624 19.2212 5.02624 19.2212 4.62624 18.8312L2.49624 16.6912C2.10624 16.3012 2.10624 15.6712 2.49624 15.2812C2.88624 14.8912 3.51624 14.8912 3.90624 15.2812L5.32624 16.7012L8.86623 13.1612C9.24623 12.7812 9.88623 12.7812 10.2762 13.1712Z" fill="#000E50"/>
</g>
</svg>
