<svg width="25" height="24" viewBox="0 0 25 24" fill="none" xmlns="http://www.w3.org/2000/svg">
<path d="M19.5 7L17.7314 20.2643C17.5989 21.2579 16.7514 22 15.749 22H9.25103C8.24863 22 7.40106 21.2579 7.26858 20.2643L5.5 7" stroke="#000E50" stroke-width="1.5" stroke-linejoin="round"/>
<path d="M19.5 7L18.6522 4.0326C18.5526 3.68409 18.3673 3.35937 18.0632 3.16211C15.5646 1.54115 9.31118 1.68446 6.94119 3.1663C6.63386 3.35846 6.4474 3.68409 6.34783 4.0326L5.5 7" stroke="#000E50" stroke-width="1.5" stroke-linejoin="round"/>
<path d="M4.5 7H20.5" stroke="#000E50" stroke-width="1.5" stroke-linecap="round" stroke-linejoin="round"/>
<path d="M12.5 17C13.6046 17 14.5 15.8807 14.5 14.5C14.5 13.1193 13.6046 12 12.5 12C11.3954 12 10.5 13.1193 10.5 14.5C10.5 15.8807 11.3954 17 12.5 17Z" stroke="#000E50" stroke-width="1.5" stroke-linejoin="round"/>
</svg>
