<svg width="27" height="26" viewBox="0 0 27 26" fill="none" xmlns="http://www.w3.org/2000/svg">
<path d="M20.4857 8.63704L12.4857 4.12768C12.1837 3.95744 11.8165 3.95744 11.5144 4.12768L3.51436 8.63703C3.19689 8.81598 2.99999 9.1555 3 9.52397L3.00008 18.476C3.00008 18.8445 3.19697 19.184 3.51444 19.363L11.5144 23.8723C11.8165 24.0426 12.1837 24.0426 12.4857 23.8723L20.4857 19.363C20.8031 19.184 21 18.8445 21 18.476V9.52396C21 9.15549 20.8031 8.81599 20.4857 8.63704Z" stroke="#000E50" stroke-width="1.5" stroke-linejoin="round"/>
<path d="M8 13.5C8 13.5 10 14 11.5 17C11.5 17 17.0588 7.83333 22 6" stroke="white" stroke-width="5" stroke-linecap="round" stroke-linejoin="round"/>
<path d="M8 13.5C8 13.5 10 14 11.5 17C11.5 17 17.0588 7.83333 22 6" stroke="#000E50" stroke-width="1.5" stroke-linecap="round" stroke-linejoin="round"/>
</svg>
