<svg width="32" height="32" viewBox="0 0 32 32" fill="none" xmlns="http://www.w3.org/2000/svg">
<path fill-rule="evenodd" clip-rule="evenodd" d="M7.26465 10.5166C7.26465 8.72045 8.7207 7.2644 10.5168 7.2644H25.6815C27.4776 7.2644 28.9337 8.72045 28.9337 10.5166V25.6812C28.9337 27.4774 27.4776 28.9334 25.6815 28.9334H10.5168C8.7207 28.9334 7.26465 27.4774 7.26465 25.6812V10.5166ZM10.5168 8.95072C9.65202 8.95072 8.95096 9.65178 8.95096 10.5166V25.6812C8.95096 26.546 9.65202 27.2471 10.5168 27.2471H25.6815C26.5463 27.2471 27.2473 26.546 27.2473 25.6812V10.5166C27.2473 9.65178 26.5463 8.95072 25.6815 8.95072H10.5168Z" fill="#000E50"/>
<path fill-rule="evenodd" clip-rule="evenodd" d="M6.99741 4C5.34198 4 4 5.34198 4 6.99741V22.5395C4 24.1949 5.34198 25.5369 6.99741 25.5369H7.33045V23.9827H6.99741C6.20035 23.9827 5.55421 23.3366 5.55421 22.5395V6.99741C5.55421 6.20035 6.20035 5.55421 6.99741 5.55421H22.5395C23.3366 5.55421 23.9827 6.20035 23.9827 6.99741V7.33045H25.5369V6.99741C25.5369 5.34198 24.1949 4 22.5395 4H6.99741Z" fill="#000E50"/>
</svg>
