<svg width="25" height="24" viewBox="0 0 25 24" fill="none" xmlns="http://www.w3.org/2000/svg">
<path d="M19.5013 7L17.7327 20.2643C17.6002 21.2579 16.7527 22 15.7503 22H9.25237C8.24997 22 7.4024 21.2579 7.26992 20.2643L5.50134 7" stroke="#000E50" stroke-width="1.5" stroke-linejoin="round"/>
<path d="M19.5013 7L18.6535 4.0326C18.5539 3.68409 18.3686 3.35937 18.0645 3.16211C15.5659 1.54115 9.31252 1.68446 6.94253 3.1663C6.6352 3.35846 6.44874 3.68409 6.34917 4.0326L5.50134 7" stroke="#000E50" stroke-width="1.5" stroke-linejoin="round"/>
<path d="M4.50134 7H20.5013" stroke="#000E50" stroke-width="1.5" stroke-linecap="round" stroke-linejoin="round"/>
<path d="M12.5013 17C13.6059 17 14.5013 15.8807 14.5013 14.5C14.5013 13.1193 13.6059 12 12.5013 12C11.3968 12 10.5013 13.1193 10.5013 14.5C10.5013 15.8807 11.3968 17 12.5013 17Z" stroke="#000E50" stroke-width="1.5" stroke-linejoin="round"/>
</svg>
