<svg width="24" height="24" viewBox="0 0 24 24" fill="none" xmlns="http://www.w3.org/2000/svg">
<path d="M12 21C9.5 21 7.375 20.125 5.625 18.375C3.875 16.625 3 14.5 3 12C3 9.74999 3.6625 7.84166 4.9875 6.27499C6.3125 4.70832 8.05 3.69999 10.2 3.24999C10.8833 3.11666 11.35 3.23332 11.6 3.59999C11.85 3.96666 11.8417 4.46666 11.575 5.09999C11.425 5.48332 11.3083 5.87499 11.225 6.27499C11.1417 6.67499 11.1 7.08332 11.1 7.49999C11.1 8.99999 11.625 10.275 12.675 11.325C13.725 12.375 15 12.9 16.5 12.9C16.9167 12.9 17.3208 12.8625 17.7125 12.7875C18.1042 12.7125 18.4833 12.6083 18.85 12.475C19.5667 12.2083 20.1 12.2208 20.45 12.5125C20.8 12.8042 20.8917 13.3 20.725 14C20.275 16.0167 19.2667 17.6875 17.7 19.0125C16.1333 20.3375 14.2333 21 12 21ZM12 19.5C13.8167 19.5 15.4 18.9375 16.75 17.8125C18.1 16.6875 18.9417 15.3667 19.275 13.85C18.8583 14.0333 18.4125 14.1708 17.9375 14.2625C17.4625 14.3542 16.9833 14.4 16.5 14.4C14.5833 14.4 12.9542 13.7292 11.6125 12.3875C10.2708 11.0458 9.6 9.41666 9.6 7.49999C9.6 7.09999 9.64167 6.67082 9.725 6.21249C9.80833 5.75416 9.95833 5.23332 10.175 4.64999C8.54167 5.09999 7.1875 6.01249 6.1125 7.38749C5.0375 8.76249 4.5 10.3 4.5 12C4.5 14.0833 5.22917 15.8542 6.6875 17.3125C8.14583 18.7708 9.91667 19.5 12 19.5Z" fill="#000E50"/>
</svg>
