<svg width="34" height="36" viewBox="0 0 34 36" fill="none" xmlns="http://www.w3.org/2000/svg">
<path d="M5.02917 30.7239C4.95833 30.7239 4.8816 30.6996 4.79896 30.651C4.71632 30.6023 4.66319 30.5294 4.63958 30.4322L4.07292 29.8489C3.95486 29.6787 3.93715 29.5086 4.01979 29.3385C4.10243 29.1683 4.23819 29.0833 4.42708 29.0833H29.2896C29.4785 29.0833 29.6083 29.1683 29.6792 29.3385C29.75 29.5086 29.7382 29.6787 29.6437 29.8489L29.0417 30.4322C29.0181 30.5294 28.9708 30.6023 28.9 30.651C28.8292 30.6996 28.7465 30.7239 28.6521 30.7239H5.02917ZM4.8875 26.4947C5.02917 26.1787 5.18264 25.8749 5.34792 25.5833C5.51319 25.2916 5.7375 24.9878 6.02083 24.6718V12.7864H5.3125C5.1 12.7864 4.92882 12.7135 4.79896 12.5676C4.6691 12.4218 4.60417 12.2517 4.60417 12.0572C4.60417 11.8385 4.6691 11.6562 4.79896 11.5103C4.92882 11.3645 5.1 11.2916 5.3125 11.2916H6.02083V9.97909H5.3125C5.1 9.97909 4.92882 9.90617 4.79896 9.76034C4.6691 9.6145 4.60417 9.43221 4.60417 9.21346C4.60417 9.01902 4.6691 8.84888 4.79896 8.70304C4.92882 8.55721 5.1 8.48429 5.3125 8.48429H6.02083V7.17179H5.3125C5.1 7.17179 4.92882 7.09888 4.79896 6.95304C4.6691 6.80721 4.60417 6.62492 4.60417 6.40617C4.60417 6.21172 4.6691 6.04159 4.79896 5.89575C4.92882 5.74992 5.1 5.677 5.3125 5.677H14.4854C14.9812 5.677 15.4003 5.83499 15.7427 6.15096C16.0851 6.46693 16.2562 6.95304 16.2562 7.60929V8.48429H28.9708C29.1597 8.48429 29.325 8.55721 29.4667 8.70304C29.6083 8.84888 29.6792 9.03117 29.6792 9.24992C29.6792 9.46867 29.6083 9.64488 29.4667 9.77856C29.325 9.91225 29.1597 9.97909 28.9708 9.97909H16.2562V10.8905C16.2562 11.5225 16.0851 11.9964 15.7427 12.3124C15.4003 12.6284 14.9812 12.7864 14.4854 12.7864H11.1208V22.8124C11.6639 22.861 12.1951 23.0008 12.7146 23.2317C13.234 23.4626 13.7063 23.7725 14.1313 24.1614C14.391 22.703 15.1524 21.4452 16.4156 20.3879C17.6788 19.3306 19.2076 18.802 21.0021 18.802C23.0562 18.802 24.7385 19.4643 26.049 20.789C27.3594 22.1136 28.0264 23.7725 28.05 25.7655V26.4947H4.8875ZM15.725 24.8541H26.3146C26.2201 23.6388 25.6653 22.5997 24.65 21.7369C23.6347 20.8741 22.4187 20.4426 21.0021 20.4426C19.609 20.4426 18.4108 20.8741 17.4073 21.7369C16.4038 22.5997 15.8431 23.6388 15.725 24.8541ZM11.1208 8.48429H14.9104V7.60929C14.9104 7.48777 14.8632 7.38447 14.7687 7.2994C14.6743 7.21433 14.5681 7.17179 14.45 7.17179H11.1208V8.48429ZM11.1208 11.2916H14.45C14.5681 11.2916 14.6743 11.2491 14.7687 11.164C14.8632 11.0789 14.9104 10.9756 14.9104 10.8541V9.97909H11.1208V11.2916ZM7.4375 8.48429H9.70417V7.17179H7.4375V8.48429ZM7.4375 11.2916H9.70417V9.97909H7.4375V11.2916ZM7.4375 23.6145C7.69722 23.4201 8.03368 23.2438 8.44687 23.0859C8.86007 22.9279 9.27917 22.8367 9.70417 22.8124V12.7864H7.4375V23.6145ZM15.725 24.8541C15.8431 24.8541 16.4038 24.8541 17.4073 24.8541C18.4108 24.8541 19.609 24.8541 21.0021 24.8541C22.4187 24.8541 23.6347 24.8541 24.65 24.8541C25.6653 24.8541 26.2201 24.8541 26.3146 24.8541H15.725Z" fill="#000E50"/>
</svg>
