<svg width="42" height="8" viewBox="0 0 42 8" fill="none" xmlns="http://www.w3.org/2000/svg">
<path fill-rule="evenodd" clip-rule="evenodd" d="M13.0275 3.56493C13.0275 5.54481 14.5822 7.07993 16.5829 7.07993C17.1484 7.07993 17.6329 6.96878 18.2301 6.68745V5.14091C17.705 5.66658 17.2397 5.87867 16.644 5.87867C15.3208 5.87867 14.3815 4.91917 14.3815 3.55504C14.3815 2.26192 15.3504 1.24178 16.5829 1.24178C17.2095 1.24178 17.684 1.46538 18.2301 1.99957V0.453836C17.6535 0.161325 17.1794 0.0400391 16.6139 0.0400391C14.6233 0.0400391 13.0275 1.60637 13.0275 3.56493ZM9.65579 1.92904C9.65579 2.29306 9.88717 2.48536 10.6757 2.77714C12.1702 3.3239 12.6131 3.80815 12.6131 4.87847C12.6131 6.18229 11.6552 7.09022 10.29 7.09022C9.29015 7.09022 8.56309 6.69653 7.9578 5.80781L8.80663 4.99043C9.10903 5.57538 9.61387 5.88897 10.2406 5.88897C10.8269 5.88897 11.2607 5.48457 11.2607 4.93887C11.2607 4.65601 11.1293 4.4132 10.8667 4.24173C10.7347 4.16049 10.4729 4.03977 9.95843 3.85809C8.72442 3.41413 8.3013 2.93897 8.3013 2.011C8.3013 0.908655 9.21029 0.081062 10.4021 0.081062C11.1407 0.081062 11.8165 0.333523 12.3815 0.827663L11.694 1.72782C11.3518 1.34426 11.028 1.18236 10.6346 1.18236C10.0683 1.18236 9.65579 1.50487 9.65579 1.92904ZM6.14906 6.92824H7.46301V0.192376H6.14906V6.92824ZM3.46345 5.25238C3.05073 5.62532 2.51438 5.78795 1.6655 5.78795H1.31288V1.33348H1.6655C2.51438 1.33348 3.02965 1.48549 3.46345 1.87845C3.91783 2.28284 4.19107 2.91002 4.19107 3.55512C4.19107 4.20184 3.91783 4.84799 3.46345 5.25238ZM1.9286 0.192376H0V6.928H1.91845C2.93856 6.928 3.67503 6.68753 4.32171 6.15043C5.09018 5.51473 5.54455 4.55629 5.54455 3.56501C5.54455 1.5771 4.0594 0.192376 1.9286 0.192376ZM26.8516 0.192376L28.6477 4.71681L30.4673 0.192376H31.8915L28.9816 7.10109H28.2745L25.4161 0.192376H26.8516ZM32.4857 6.92816H36.2117V5.78779H33.7985V3.96956H36.1229V2.82862H33.7985V1.33364H36.2117V0.192213H32.4857V6.92816ZM38.3942 3.29333H38.778C39.6173 3.29333 40.062 2.92875 40.062 2.25163C40.062 1.59615 39.6173 1.25338 38.7988 1.25338H38.3942V3.29333ZM39.0302 0.192133C40.5453 0.192133 41.4139 0.919762 41.4139 2.18085C41.4139 3.21218 40.869 3.8893 39.8794 4.09044L42 6.92808H40.3842L38.5657 4.22211H38.3942V6.92808H37.0818V0.192133H39.0302Z" fill="#1D1D1B"/>
<path fill-rule="evenodd" clip-rule="evenodd" d="M25.2614 5.51415C26.3278 3.84664 25.8407 1.6314 24.1735 0.56513C22.5061 -0.501141 20.2905 -0.0143796 19.2241 1.65313C18.1579 3.32015 18.6452 5.53612 20.3125 6.60239C21.9797 7.66866 24.1952 7.18117 25.2614 5.51415Z" fill="url(#paint0_linear_582_1096)"/>
<defs>
<linearGradient id="paint0_linear_582_1096" x1="27.1919" y1="2.49548" x2="21.1546" y2="-1.36554" gradientUnits="userSpaceOnUse">
<stop stop-color="#F6A000"/>
<stop offset="0.623918" stop-color="#E47E02"/>
<stop offset="1" stop-color="#D36002"/>
</linearGradient>
</defs>
</svg>
