<svg width="25" height="24" viewBox="0 0 25 24" fill="none" xmlns="http://www.w3.org/2000/svg">
<path d="M22.504 4C22.504 2.89543 21.6086 2 20.504 2H4.50403C3.39946 2 2.50403 2.89543 2.50403 4V20C2.50403 21.1046 3.39946 22 4.50403 22H20.504C21.6086 22 22.504 21.1046 22.504 20V4Z" stroke="#000E50" stroke-width="1.5" stroke-linejoin="round"/>
<path d="M2.50403 8H22.504" stroke="#000E50" stroke-width="1.5"/>
<path d="M5.50403 5H9.50403" stroke="#000E50" stroke-width="1.5" stroke-linecap="round"/>
<path d="M9.50403 18C11.1609 18 12.504 16.6569 12.504 15C12.504 13.3431 11.1609 12 9.50403 12C7.84718 12 6.50403 13.3431 6.50403 15C6.50403 16.6569 7.84718 18 9.50403 18Z" stroke="#000E50" stroke-width="1.5" stroke-linecap="round" stroke-linejoin="round"/>
<path d="M15.504 18L15.5124 15.5M15.5124 15.5V12.0998C15.5124 12.0387 15.5665 11.9917 15.6269 12.0026C16.0535 12.079 16.8541 12.2911 17.3609 12.8032C17.5376 12.9819 17.619 13.2274 17.6629 13.4743L18.0024 15.3826C18.0133 15.4438 17.966 15.5 17.9035 15.5H15.5124Z" stroke="#000E50" stroke-width="1.5" stroke-linecap="round" stroke-linejoin="round"/>
</svg>
