<svg width="34" height="35" viewBox="0 0 34 35" fill="none" xmlns="http://www.w3.org/2000/svg">
<path d="M7.79167 31.3541V17.4635L7.225 16.8801C6.98889 16.6371 6.82361 16.3819 6.72917 16.1145C6.63472 15.8471 6.5875 15.5555 6.5875 15.2395C6.5875 14.9478 6.63472 14.6622 6.72917 14.3827C6.82361 14.1032 6.98889 13.8541 7.225 13.6353L11.6875 9.00513H17.4958L22.9146 3.427L25.3937 5.97909C26.291 6.9027 26.9639 7.95999 27.4125 9.15096C27.8611 10.3419 28.0972 11.5451 28.1208 12.7603C28.0972 13.9513 27.8611 15.1484 27.4125 16.3515C26.9639 17.5546 26.291 18.618 25.3937 19.5416L22.3125 22.7135V31.3541H7.79167ZM9.38542 29.7135H20.7188V22.0208L24.225 18.3749C24.9806 17.5971 25.5531 16.7221 25.9427 15.7499C26.3323 14.7777 26.5271 13.7812 26.5271 12.7603C26.5271 11.7152 26.3382 10.7187 25.9604 9.77075C25.5826 8.82283 25.016 7.95999 24.2604 7.18221L22.9146 5.76034L18.1687 10.6822H12.3604L10.9083 12.1405L13.7417 15.0208C14.3792 15.677 14.8514 16.4062 15.1583 17.2083C15.4653 18.0103 15.6187 18.8489 15.6187 19.7239C15.6187 20.4773 15.4948 21.2247 15.2469 21.9661C14.999 22.7074 14.6271 23.3819 14.1313 23.9895L9.38542 19.1041V29.7135Z" fill="#000E50"/>
</svg>
