<svg width="34" height="36" viewBox="0 0 34 36" fill="none" xmlns="http://www.w3.org/2000/svg">
<path d="M5.77357 30.3959C5.53746 30.3959 5.34266 30.3169 5.18919 30.1589C5.03572 30.0009 4.95898 29.8004 4.95898 29.5574C4.95898 29.3143 5.03572 29.1199 5.18919 28.974C5.34266 28.8282 5.53746 28.7553 5.77357 28.7553H7.79232V7.71883C7.79232 7.1355 7.98711 6.63723 8.37669 6.22404C8.76628 5.81085 9.2444 5.60425 9.81107 5.60425H24.1548C24.7215 5.60425 25.2055 5.81085 25.6069 6.22404C26.0083 6.63723 26.209 7.1355 26.209 7.71883V28.7553H28.2277C28.4638 28.7553 28.6586 28.8343 28.8121 28.9923C28.9656 29.1503 29.0423 29.3386 29.0423 29.5574C29.0423 29.8004 28.9656 30.0009 28.8121 30.1589C28.6586 30.3169 28.4638 30.3959 28.2277 30.3959H5.77357ZM24.6152 28.7553V7.71883C24.6152 7.573 24.5739 7.45755 24.4913 7.37248C24.4086 7.28741 24.2965 7.24487 24.1548 7.24487H9.38607C9.38607 7.24487 9.38607 7.28741 9.38607 7.37248C9.38607 7.45755 9.38607 7.573 9.38607 7.71883V28.7553H24.6152ZM20.1882 19.0574C20.4951 19.0574 20.7548 18.948 20.9673 18.7292C21.1798 18.5105 21.2861 18.2431 21.2861 17.9272C21.2861 17.5869 21.1798 17.3134 20.9673 17.1069C20.7548 16.9003 20.4951 16.797 20.1882 16.797C19.8576 16.797 19.592 16.9003 19.3913 17.1069C19.1906 17.3134 19.0902 17.5869 19.0902 17.9272C19.0902 18.2431 19.1906 18.5105 19.3913 18.7292C19.592 18.948 19.8576 19.0574 20.1882 19.0574ZM9.38607 7.24487C9.38607 7.24487 9.38607 7.28741 9.38607 7.37248C9.38607 7.45755 9.38607 7.573 9.38607 7.71883V28.7553V7.71883C9.38607 7.573 9.38607 7.45755 9.38607 7.37248C9.38607 7.28741 9.38607 7.24487 9.38607 7.24487Z" fill="#000E50"/>
</svg>
