<svg width="24" height="24" viewBox="0 0 24 24" fill="none" xmlns="http://www.w3.org/2000/svg">
<path d="M15.5 5.49985L17.2929 3.70696C17.6834 3.31643 18.3165 3.31643 18.7071 3.70696L20.2929 5.29274C20.6834 5.68327 20.6834 6.31643 20.2929 6.70695L18.5 8.49985M15.5 5.49985L9.39171 11.6082C9.13539 11.8645 8.95356 12.1857 8.86564 12.5373L8 15.9999L11.4626 15.1343C11.8142 15.0463 12.1354 14.8645 12.3917 14.6082L18.5 8.49985M15.5 5.49985L18.5 8.49985" stroke="#000E50" stroke-width="1.5" stroke-linejoin="round"/>
<path d="M10.5 5H5C3.89543 5 3 5.89543 3 7V19C3 20.1046 3.89543 21 5 21H16.9999C18.1045 21 18.9999 20.1046 18.9999 19V13.5" stroke="#000E50" stroke-width="1.5" stroke-linecap="round" stroke-linejoin="round"/>
</svg>
