<svg width="32" height="32" viewBox="0 0 32 32" fill="none" xmlns="http://www.w3.org/2000/svg">
<g clip-path="url(#clip0_312_2699)">
<path d="M16.7055 16.1095C16.9476 16.1093 17.1797 16.013 17.3507 15.8417L25.9455 7.24689V11.6904C25.9455 11.9325 26.0417 12.1648 26.213 12.336C26.3842 12.5072 26.6164 12.6034 26.8586 12.6034C27.1007 12.6034 27.333 12.5072 27.5042 12.336C27.6754 12.1648 27.7716 11.9325 27.7716 11.6904V5.04341C27.7716 4.80126 27.6754 4.56902 27.5042 4.3978C27.333 4.22657 27.1007 4.13037 26.8586 4.13037H20.2116C19.9695 4.13037 19.7372 4.22657 19.566 4.3978C19.3948 4.56902 19.2986 4.80126 19.2986 5.04341C19.2986 5.28557 19.3948 5.51781 19.566 5.68903C19.7372 5.86026 19.9695 5.95646 20.2116 5.95646H24.6551L15.9994 14.5512C15.8719 14.6789 15.7851 14.8415 15.7499 15.0186C15.7148 15.1956 15.7328 15.379 15.8019 15.5458C15.8709 15.7125 15.9878 15.855 16.1378 15.9554C16.2878 16.0557 16.4642 16.1093 16.6447 16.1095H16.7055Z" fill="#000E50"/>
<path d="M26.9564 16.986C26.7143 16.986 26.482 17.0822 26.3108 17.2534C26.1396 17.4247 26.0434 17.6569 26.0434 17.8991V25.4469C26.0434 25.6051 25.9805 25.7568 25.8687 25.8687C25.7568 25.9806 25.6051 26.0434 25.4469 26.0434H6.55295C6.39474 26.0434 6.24301 25.9806 6.13114 25.8687C6.01927 25.7568 5.95642 25.6051 5.95642 25.4469V6.55298C5.95642 6.39477 6.01927 6.24304 6.13114 6.13118C6.24301 6.01931 6.39474 5.95646 6.55295 5.95646H13.699C13.9412 5.95646 14.1734 5.86026 14.3447 5.68903C14.5159 5.51781 14.6121 5.28557 14.6121 5.04341C14.6121 4.80126 14.5159 4.56902 14.3447 4.3978C14.1734 4.22657 13.9412 4.13037 13.699 4.13037H6.55295C5.9072 4.13037 5.28791 4.38689 4.8313 4.8435C4.37468 5.30011 4.11816 5.91941 4.11816 6.56515V25.4469C4.11816 26.0926 4.37468 26.7119 4.8313 27.1685C5.28791 27.6252 5.9072 27.8817 6.55295 27.8817H25.4469C26.0926 27.8817 26.7119 27.6252 27.1685 27.1685C27.6251 26.7119 27.8816 26.0926 27.8816 25.4469V17.8991C27.8817 17.7781 27.8576 17.6584 27.811 17.5468C27.7644 17.4352 27.696 17.3341 27.6099 17.2491C27.5238 17.1642 27.4218 17.0972 27.3096 17.052C27.1974 17.0068 27.0773 16.9844 26.9564 16.986Z" fill="#000E50"/>
</g>
<defs>
<clipPath id="clip0_312_2699">
<rect width="32" height="32" fill="white"/>
</clipPath>
</defs>
</svg>
