<svg width="24" height="24" viewBox="0 0 24 24" fill="none" xmlns="http://www.w3.org/2000/svg">
<path d="M12.475 13.475C12.375 13.475 12.2875 13.4375 12.2125 13.3625C12.1375 13.2875 12.1 13.2 12.1 13.1V12.375C12.1 12.3417 12.1333 12.2583 12.2 12.125L17.825 6.5L19.075 7.75L13.45 13.375C13.4167 13.4083 13.3333 13.4417 13.2 13.475H12.475ZM19.725 7.1L20.65 6.175C20.75 6.075 20.8 5.97083 20.8 5.8625C20.8 5.75417 20.75 5.65 20.65 5.55L19.975 4.875C19.8917 4.79167 19.8042 4.75 19.7125 4.75C19.6208 4.75 19.5333 4.79167 19.45 4.875L18.475 5.85L19.725 7.1ZM4.75 19C4.53333 19 4.35417 18.9292 4.2125 18.7875C4.07083 18.6458 4 18.4667 4 18.25C4 18.0333 4.07083 17.8542 4.2125 17.7125C4.35417 17.5708 4.53333 17.5 4.75 17.5H6.1V9.85C6.1 8.43333 6.52083 7.18333 7.3625 6.1C8.20417 5.01667 9.28333 4.33333 10.6 4.05V3.325C10.6 2.94167 10.7375 2.625 11.0125 2.375C11.2875 2.125 11.6167 2 12 2C12.3833 2 12.7125 2.125 12.9875 2.375C13.2625 2.625 13.4 2.94167 13.4 3.325V4.05C14.0167 4.15 14.5583 4.35417 15.025 4.6625C15.4917 4.97083 15.95 5.35 16.4 5.8L15.325 6.875C14.8583 6.39167 14.3583 6.025 13.825 5.775C13.2917 5.525 12.6833 5.4 12 5.4C10.75 5.4 9.70417 5.82917 8.8625 6.6875C8.02083 7.54583 7.6 8.6 7.6 9.85V17.5H16.425V12.525L17.925 11.025V17.5H19.25C19.4667 17.5 19.6458 17.5708 19.7875 17.7125C19.9292 17.8542 20 18.0333 20 18.25C20 18.4667 19.9292 18.6458 19.7875 18.7875C19.6458 18.9292 19.4667 19 19.25 19H4.75ZM12 22C11.45 22 10.9792 21.8042 10.5875 21.4125C10.1958 21.0208 10 20.55 10 20H14C14 20.55 13.8042 21.0208 13.4125 21.4125C13.0208 21.8042 12.55 22 12 22Z" fill="#000E50"/>
</svg>
