<svg width="25" height="24" viewBox="0 0 25 24" fill="none" xmlns="http://www.w3.org/2000/svg">
<path d="M20 3H5C4.60218 3 4.22064 3.15804 3.93934 3.43934C3.65804 3.72064 3.5 4.10218 3.5 4.5V19.5C3.5 19.8978 3.65804 20.2794 3.93934 20.5607C4.22064 20.842 4.60218 21 5 21H20C20.3978 21 20.7794 20.842 21.0607 20.5607C21.342 20.2794 21.5 19.8978 21.5 19.5V4.5C21.5 4.10218 21.342 3.72064 21.0607 3.43934C20.7794 3.15804 20.3978 3 20 3ZM17 10.5V19.5H13.25V10.5H17ZM11.75 19.5H8V10.5H11.75V19.5ZM20 19.5H18.5V9.75C18.5 9.55109 18.421 9.36032 18.2803 9.21967C18.1397 9.07902 17.9489 9 17.75 9H7.25C7.05109 9 6.86032 9.07902 6.71967 9.21967C6.57902 9.36032 6.5 9.55109 6.5 9.75V19.5H5V4.5H20V19.5ZM14.75 6.75C14.75 6.94891 14.671 7.13968 14.5303 7.28033C14.3897 7.42098 14.1989 7.5 14 7.5H11C10.8011 7.5 10.6103 7.42098 10.4697 7.28033C10.329 7.13968 10.25 6.94891 10.25 6.75C10.25 6.55109 10.329 6.36032 10.4697 6.21967C10.6103 6.07902 10.8011 6 11 6H14C14.1989 6 14.3897 6.07902 14.5303 6.21967C14.671 6.36032 14.75 6.55109 14.75 6.75Z" fill="#000E50"/>
</svg>
