<svg width="25" height="25" viewBox="0 0 25 25" fill="none" xmlns="http://www.w3.org/2000/svg">
<path d="M18.5 11H20.5C21.4768 11 21.9652 11 22.2651 11.3607C22.5649 11.7215 22.4861 12.1456 22.3286 12.9938C21.3985 18 17 18 17 18" stroke="#000E50" stroke-width="1.5" stroke-linejoin="round"/>
<path d="M5.93709 21.4017C3.27215 18.3524 2.65375 14.2931 2.52269 10.0148C2.5056 9.45699 2.95689 9 3.51498 9H17.485C18.0431 9 18.4944 9.45699 18.4773 10.0148C18.3463 14.2931 17.7279 18.3524 15.0629 21.4017C14.7166 21.7979 14.2049 22 13.6786 22H7.32141C6.79515 22 6.2834 21.7979 5.93709 21.4017Z" stroke="#000E50" stroke-width="1.5" stroke-linecap="round" stroke-linejoin="round"/>
<path d="M11.8089 3C11.2622 3.33861 10.5012 4.5 10.5012 6M8.03971 4.5C8.03971 4.5 7.5 5 7.5 6M14.5012 4.5C14.2279 4.6693 14 5.5 14 6" stroke="#000E50" stroke-width="1.5" stroke-linecap="round" stroke-linejoin="round"/>
</svg>
