<svg width="16" height="17" viewBox="0 0 16 17" fill="none" xmlns="http://www.w3.org/2000/svg">
<path d="M8.2 12.9168H3C2.72222 12.9168 2.48611 12.8196 2.29167 12.6252C2.09722 12.4307 2 12.1946 2 11.9168V3.91683C2 3.63905 2.09722 3.40294 2.29167 3.2085C2.48611 3.01405 2.72222 2.91683 3 2.91683H4V1.5835H5V2.91683H9.66667V1.5835H10.6667V2.91683H11.6667C11.9444 2.91683 12.1806 3.01405 12.375 3.2085C12.5694 3.40294 12.6667 3.63905 12.6667 3.91683V8.45016C12.5778 8.43905 12.4944 8.43072 12.4167 8.42516C12.3389 8.41961 12.2556 8.41683 12.1667 8.41683C12.0778 8.41683 11.9944 8.41961 11.9167 8.42516C11.8389 8.43072 11.7556 8.43905 11.6667 8.45016V5.91683H3V11.9168H8.2C8.18889 12.0057 8.18056 12.0891 8.175 12.1668C8.16944 12.2446 8.16667 12.3279 8.16667 12.4168C8.16667 12.5057 8.16944 12.5891 8.175 12.6668C8.18056 12.7446 8.18889 12.8279 8.2 12.9168ZM11.6667 14.9168V12.9168H9.66667V11.9168H11.6667V9.91683H12.6667V11.9168H14.6667V12.9168H12.6667V14.9168H11.6667Z" fill="#666E96"/>
</svg>
