<svg width="24" height="24" viewBox="0 0 24 24" fill="none" xmlns="http://www.w3.org/2000/svg">
<path d="M10.75 18C10.5333 18 10.3542 17.9292 10.2125 17.7875C10.0708 17.6458 10 17.4667 10 17.25C10 17.0333 10.0708 16.8542 10.2125 16.7125C10.3542 16.5708 10.5333 16.5 10.75 16.5H13.25C13.4667 16.5 13.6458 16.5708 13.7875 16.7125C13.9292 16.8542 14 17.0333 14 17.25C14 17.4667 13.9292 17.6458 13.7875 17.7875C13.6458 17.9292 13.4667 18 13.25 18H10.75ZM3.75 7.5C3.53333 7.5 3.35417 7.42917 3.2125 7.2875C3.07083 7.14583 3 6.96667 3 6.75C3 6.53333 3.07083 6.35417 3.2125 6.2125C3.35417 6.07083 3.53333 6 3.75 6H20.25C20.4667 6 20.6458 6.07083 20.7875 6.2125C20.9292 6.35417 21 6.53333 21 6.75C21 6.96667 20.9292 7.14583 20.7875 7.2875C20.6458 7.42917 20.4667 7.5 20.25 7.5H3.75ZM6.75 12.75C6.53333 12.75 6.35417 12.6792 6.2125 12.5375C6.07083 12.3958 6 12.2167 6 12C6 11.7833 6.07083 11.6042 6.2125 11.4625C6.35417 11.3208 6.53333 11.25 6.75 11.25H17.25C17.4667 11.25 17.6458 11.3208 17.7875 11.4625C17.9292 11.6042 18 11.7833 18 12C18 12.2167 17.9292 12.3958 17.7875 12.5375C17.6458 12.6792 17.4667 12.75 17.25 12.75H6.75Z" fill="#000E50"/>
</svg>
