<svg width="25" height="24" viewBox="0 0 25 24" fill="none" xmlns="http://www.w3.org/2000/svg">
<path d="M7.50269 22V14C7.50269 13.4477 7.95041 13 8.50269 13H16.5027C17.055 13 17.5027 13.4477 17.5027 14V22" stroke="#000728" stroke-width="1.5" stroke-linecap="round" stroke-linejoin="round"/>
<path d="M7.50269 16H17.5027M7.50269 19H17.5027" stroke="#000728" stroke-width="1.5" stroke-linecap="round" stroke-linejoin="round"/>
<path d="M12.5117 7.02344H12.5027" stroke="#000728" stroke-width="2" stroke-linecap="round" stroke-linejoin="round"/>
<path d="M11.6702 2.55588L4.18404 7.5553C3.76787 7.83322 3.51772 8.30038 3.51709 8.80082L3.50171 20.9987C3.50101 21.5515 3.94893 22 4.50171 22H20.5025C21.0548 22 21.5025 21.5523 21.5025 21V8.80281C21.5025 8.30128 21.2518 7.83293 20.8345 7.55473L13.3353 2.55521C12.831 2.21907 12.1741 2.21933 11.6702 2.55588Z" stroke="#000728" stroke-width="1.5" stroke-linejoin="round"/>
</svg>
