<svg width="35" height="35" viewBox="0 0 35 35" fill="none" xmlns="http://www.w3.org/2000/svg">
<path d="M26.0708 12.4323L24.6188 13.7812C24.4063 14 24.1229 14.1215 23.7688 14.1458C23.4146 14.1701 23.084 14.0851 22.7771 13.8906C22.5174 13.6962 22.358 13.4227 22.299 13.0703C22.2399 12.7179 22.2576 12.3837 22.3521 12.0677L22.9896 9.80729L21.3958 8.85938C21.1125 8.68924 20.9236 8.45226 20.8292 8.14844C20.7347 7.84462 20.7347 7.52257 20.8292 7.18229C20.9236 6.84201 21.0948 6.58681 21.3427 6.41667C21.5906 6.24653 21.8917 6.16146 22.2458 6.16146H24.1229L24.6896 4.375C24.784 4.05903 24.9552 3.77951 25.2031 3.53646C25.451 3.2934 25.7403 3.17188 26.0708 3.17188C26.425 3.17188 26.7201 3.2934 26.9563 3.53646C27.1924 3.77951 27.3576 4.05903 27.4521 4.375L28.0188 6.16146H29.8958C30.2028 6.16146 30.492 6.2526 30.7635 6.4349C31.0351 6.61719 31.2181 6.86632 31.3125 7.18229C31.4306 7.49826 31.4483 7.81424 31.3656 8.13021C31.283 8.44618 31.0882 8.68924 30.7813 8.85938L29.1521 9.80729L29.7896 12.0677C29.884 12.3594 29.9076 12.6875 29.8604 13.0521C29.8132 13.4167 29.6479 13.6962 29.3646 13.8906C29.0813 14.0851 28.7625 14.1701 28.4083 14.1458C28.0542 14.1215 27.759 14 27.5229 13.7812L26.0708 12.4323ZM26.0708 10.4635C26.4486 10.4635 26.7733 10.3299 27.0448 10.0625C27.3163 9.79514 27.4521 9.46701 27.4521 9.07813C27.4521 8.68924 27.3163 8.36111 27.0448 8.09375C26.7733 7.82639 26.4486 7.69271 26.0708 7.69271C25.6931 7.69271 25.3743 7.82639 25.1146 8.09375C24.8549 8.36111 24.725 8.68924 24.725 9.07813C24.725 9.46701 24.8549 9.79514 25.1146 10.0625C25.3743 10.3299 25.6931 10.4635 26.0708 10.4635ZM18.775 26.3229C19.2472 27.5382 19.076 28.6806 18.2615 29.75C17.4469 30.8194 16.3785 31.3542 15.0563 31.3542C14.3715 31.3542 13.7458 31.1719 13.1792 30.8073C12.6125 30.4427 12.1639 29.8958 11.8333 29.1667C10.3694 29.2396 9.05313 28.6806 7.88438 27.4896C6.71563 26.2986 6.14306 24.9618 6.16667 23.4792C5.50556 23.1389 4.98611 22.6042 4.60833 21.875C4.23056 21.1458 4.04167 20.4288 4.04167 19.724C4.04167 18.2656 4.56702 17.178 5.61771 16.4609C6.6684 15.7439 7.91389 15.7014 9.35417 16.3333L11.3375 17.1719C11.6917 16.2483 12.2347 15.5191 12.9667 14.9844C13.6986 14.4497 14.525 14.158 15.4458 14.1094V11.7396C15.4458 11.5208 15.5108 11.3507 15.6406 11.2292C15.7705 11.1076 15.9417 11.0469 16.1542 11.0469C16.3667 11.0469 16.5378 11.1076 16.6677 11.2292C16.7976 11.3507 16.8625 11.5208 16.8625 11.7396V14.1823C17.8542 14.3038 18.7396 14.796 19.5188 15.6589C20.2979 16.5217 20.7347 17.4028 20.8292 18.3021H23.1667C23.3792 18.3021 23.5503 18.375 23.6802 18.5208C23.8101 18.6667 23.875 18.8368 23.875 19.0312C23.875 19.25 23.8101 19.4323 23.6802 19.5781C23.5503 19.724 23.3792 19.7969 23.1667 19.7969H20.9C20.8292 20.7205 20.534 21.5651 20.0146 22.3307C19.4951 23.0964 18.7868 23.6493 17.8896 23.9896L18.775 26.3229ZM11.2667 27.526C11.1722 26.8698 11.1781 26.1892 11.2844 25.4844C11.3906 24.7795 11.5736 24.0868 11.8333 23.4062C11.1958 23.7222 10.5347 23.9106 9.85 23.9714C9.16528 24.0321 8.46875 24.0139 7.76042 23.9167C7.83125 24.7917 8.23264 25.612 8.96458 26.3776C9.69653 27.1432 10.4639 27.526 11.2667 27.526ZM8.75208 22.349C9.69653 22.349 10.7 22.0938 11.7625 21.5833C12.825 21.0729 13.6396 20.6233 14.2063 20.2344L8.92917 17.9375C8.24445 17.6458 7.52431 17.6823 6.76875 18.0469C6.0132 18.4115 5.63542 18.9462 5.63542 19.651C5.63542 20.3316 6.0191 20.9514 6.78646 21.5104C7.55382 22.0694 8.20903 22.349 8.75208 22.349ZM15.0563 29.7135C15.859 29.7135 16.4965 29.434 16.9688 28.875C17.441 28.316 17.5354 27.6719 17.2521 26.9427L15.0208 21.0729C14.4542 21.9236 13.9583 22.7682 13.5333 23.6068C13.1083 24.4453 12.8958 25.4479 12.8958 26.6146C12.8958 27.2222 13.0847 27.8906 13.4625 28.6198C13.8403 29.349 14.3715 29.7135 15.0563 29.7135ZM17.2521 22.4583C17.984 22.0938 18.5094 21.6319 18.8281 21.0729C19.1469 20.5139 19.3063 19.8941 19.3063 19.2135C19.3063 18.2899 18.9816 17.4939 18.3323 16.8255C17.683 16.1571 16.9097 15.8229 16.0125 15.8229C15.3278 15.8229 14.6903 16.0052 14.1 16.3698C13.5097 16.7344 13.1083 17.2691 12.8958 17.974L16.0479 19.2865L17.2521 22.4583Z" fill="#000E50"/>
</svg>
