<svg width="54" height="54" viewBox="0 0 54 54" fill="none" xmlns="http://www.w3.org/2000/svg">
<rect x="0.5" y="0.5" width="53" height="53" rx="26.5" stroke="#000E50"/>
<path d="M41.0014 27.3109C41.0014 26.1598 40.9061 25.3198 40.6998 24.4487H27.2871V29.6442H35.1601C35.0014 30.9354 34.1442 32.8798 32.2394 34.1864L32.2127 34.3604L36.4536 37.58L36.7474 37.6087C39.4458 35.1665 41.0014 31.5731 41.0014 27.3109Z" fill="#4285F4"/>
<path d="M27.2863 40.9998C31.1434 40.9998 34.3814 39.7553 36.7466 37.6086L32.2386 34.1863C31.0323 35.0108 29.4132 35.5863 27.2863 35.5863C23.5086 35.5863 20.3023 33.1441 19.1593 29.7686L18.9918 29.7825L14.5821 33.127L14.5244 33.2841C16.8736 37.8574 21.699 40.9998 27.2863 40.9998Z" fill="#34A853"/>
<path d="M19.1596 29.769C18.8581 28.8979 18.6835 27.9645 18.6835 27.0001C18.6835 26.0356 18.8581 25.1023 19.1438 24.2312L19.1358 24.0456L14.6708 20.6475L14.5247 20.7156C13.5565 22.6134 13.001 24.7445 13.001 27.0001C13.001 29.2556 13.5565 31.3867 14.5247 33.2845L19.1596 29.769Z" fill="#FBBC05"/>
<path d="M27.2864 18.4133C29.9689 18.4133 31.7784 19.5489 32.8102 20.4978L36.8419 16.64C34.3658 14.3844 31.1435 13 27.2864 13C21.699 13 16.8736 16.1422 14.5244 20.7155L19.1435 24.2311C20.3023 20.8555 23.5086 18.4133 27.2864 18.4133Z" fill="#EB4335"/>
</svg>
