<svg width="25" height="25" viewBox="0 0 25 25" fill="none" xmlns="http://www.w3.org/2000/svg">
<path d="M20.5249 11.5209C18.1915 13.8544 14.7234 14.1697 12.7789 12.2251C10.8343 10.2806 11.1496 6.81254 13.4831 4.47907C15.8165 2.14561 19.2846 1.83034 21.2291 3.77489C23.1737 5.71944 22.8584 9.18746 20.5249 11.5209Z" stroke="#000E50" stroke-width="1.5" stroke-linejoin="round"/>
<path d="M18.4266 9.42264C16.0695 11.7797 13.5218 13.0536 12.7361 12.2679C11.9504 11.4822 13.2243 8.93447 15.5814 6.57736C17.9385 4.22026 20.4862 2.94638 21.2719 3.73208C22.0576 4.51778 20.7837 7.06553 18.4266 9.42264Z" stroke="#000E50" stroke-width="1.5" stroke-linejoin="round"/>
<path d="M8.05176 19.136L5.14007 22.0477C4.53704 22.6508 3.55933 22.6508 2.9563 22.0477C2.35327 21.4447 2.35327 20.467 2.9563 19.864L5.86799 16.9523C6.47102 16.3492 7.44873 16.3492 8.05176 16.9523C8.65479 17.5553 8.65479 18.533 8.05176 19.136Z" stroke="#000E50" stroke-width="1.5" stroke-linejoin="round"/>
<path d="M8.50403 16.5L12.504 12.5" stroke="#000E50" stroke-width="1.5" stroke-linejoin="round"/>
</svg>
