<svg width="25" height="24" viewBox="0 0 25 24" fill="none" xmlns="http://www.w3.org/2000/svg">
<path d="M5.47314 10.6515C8.40176 7.16666 10.5092 5.18111 11.3794 2C15.8685 4.49772 21.3996 10.8567 20.9832 15.5826C20.6499 19.3654 17.8743 21.1971 14.4948 22C14.4948 22 16.6506 19.0346 17.0535 16.7813C17.4207 13.087 14.7376 10.6672 13.4261 10.017C13.4261 10.017 14.2474 13.5002 12.4216 15.5092C11.3545 12.0355 8.90587 12.0141 8.90587 12.0141C9.91036 14.5106 7.67881 15.5699 7.43393 17.2908C6.9367 20.7851 9.48685 22 9.48685 22C2.86167 19.6629 3.22447 13.0012 5.47314 10.6515Z" stroke="#000E50" stroke-width="1.5" stroke-linejoin="round"/>
</svg>
