<svg width="24" height="24" viewBox="0 0 24 24" fill="none" xmlns="http://www.w3.org/2000/svg">
<path d="M20.4857 6.63704L12.4857 2.12768C12.1837 1.95744 11.8165 1.95744 11.5144 2.12768L3.51436 6.63703C3.19689 6.81598 2.99999 7.1555 3 7.52397L3.00008 16.476C3.00008 16.8445 3.19697 17.184 3.51444 17.363L11.5144 21.8723C11.8165 22.0426 12.1837 22.0426 12.4857 21.8723L20.4857 17.363C20.8031 17.184 21 16.8445 21 16.476V7.52396C21 7.15549 20.8031 6.81599 20.4857 6.63704Z" stroke="#000E50" stroke-width="1.5" stroke-linejoin="round"/>
<path d="M18.6 7.70964L12.3778 4.10214C12.1429 3.96595 11.8573 3.96595 11.6223 4.10214L5.40006 7.70963C5.15314 7.85278 4.99999 8.1244 5 8.41918L5.00006 15.5808C5.00006 15.8756 5.1532 16.1472 5.40012 16.2904L11.6223 19.8979C11.8573 20.0341 12.1429 20.0341 12.3778 19.8979L18.6 16.2904C18.8469 16.1472 19 15.8756 19 15.5808V8.41917C19 8.12439 18.8469 7.85279 18.6 7.70964Z" fill="#000E50"/>
</svg>
