<svg width="24" height="24" viewBox="0 0 24 24" fill="none" xmlns="http://www.w3.org/2000/svg">
<path d="M7.675 21C7.40833 21 7.15833 20.9333 6.925 20.8C6.69166 20.6667 6.50833 20.4833 6.375 20.25L2.025 12.75C1.95833 12.6333 1.90833 12.5125 1.875 12.3875C1.84166 12.2625 1.825 12.1333 1.825 12C1.825 11.8667 1.84166 11.7375 1.875 11.6125C1.90833 11.4875 1.95833 11.3667 2.025 11.25L6.375 3.75C6.50833 3.51667 6.69166 3.33333 6.925 3.2C7.15833 3.06667 7.40833 3 7.675 3H16.325C16.5917 3 16.8417 3.06667 17.075 3.2C17.3083 3.33333 17.4917 3.51667 17.625 3.75L21.975 11.25C22.0417 11.3667 22.0917 11.4875 22.125 11.6125C22.1583 11.7375 22.175 11.8667 22.175 12C22.175 12.1333 22.1583 12.2625 22.125 12.3875C22.0917 12.5125 22.0417 12.6333 21.975 12.75L17.625 20.25C17.4917 20.4833 17.3083 20.6667 17.075 20.8C16.8417 20.9333 16.5917 21 16.325 21H7.675ZM7.65 19.5H16.35L20.65 12L16.35 4.5H7.65L3.325 12L7.65 19.5Z" fill="#000728"/>
</svg>
