<svg width="25" height="25" viewBox="0 0 25 25" fill="none" xmlns="http://www.w3.org/2000/svg">
<path d="M16.5 22.5C15.434 21.2553 14.0337 20.5 12.5 20.5C10.9663 20.5 9.56603 21.2553 8.5 22.5" stroke="#000728" stroke-width="1.5" stroke-linecap="round" stroke-linejoin="round"/>
<path d="M21.5 10.5L20.0528 11.2236C19.714 11.393 19.5 11.7392 19.5 12.118V13.5C19.5 14.5 18.5 15.5 17.5 15.5M3.5 10.5L4.9472 11.2236C5.28599 11.393 5.5 11.7392 5.5 12.118V13.5C5.5 14.5 6.5 15.5 7.5 15.5" stroke="#000728" stroke-width="1.5" stroke-linecap="round" stroke-linejoin="round"/>
<path d="M12.5 16.5V22.5" stroke="#000728" stroke-width="1.5" stroke-linecap="round" stroke-linejoin="round"/>
<path d="M8.81061 9.74254L7.62125 4.98507C7.30567 3.72278 8.26039 2.5 9.56153 2.5H15.4384C16.7396 2.5 17.6943 3.72278 17.3787 4.98507L16.1894 9.74254C16.0781 10.1877 15.6781 10.5 15.2192 10.5H9.78076C9.32189 10.5 8.92191 10.1877 8.81061 9.74254Z" stroke="#000728" stroke-width="1.5" stroke-linejoin="round"/>
<path d="M12.5 10.5V13.5" stroke="#000728" stroke-width="1.5" stroke-linejoin="round"/>
<path d="M7.5 15.625V16.5H17.5V15.625C17.5 14.8302 17.0449 14.1134 16.3462 13.8077C13.8846 12.7308 11.1154 12.7308 8.65385 13.8077C7.95513 14.1134 7.5 14.8302 7.5 15.625Z" stroke="#000728" stroke-width="1.5" stroke-linecap="round" stroke-linejoin="round"/>
</svg>
