<svg width="25" height="25" viewBox="0 0 25 25" fill="none" xmlns="http://www.w3.org/2000/svg">
<path d="M11.0013 19.5C15.6958 19.5 19.5013 15.6944 19.5013 11C19.5013 6.30558 15.6958 2.5 11.0013 2.5C6.30692 2.5 2.50134 6.30558 2.50134 11C2.50134 15.6944 6.30692 19.5 11.0013 19.5Z" stroke="#000728" stroke-width="1.5" stroke-linecap="round" stroke-linejoin="round"/>
<path d="M11.0011 11H11.0088M14.5013 7.5L13.5013 8.5M8.50134 13.5L7.50134 14.5M14.5013 14.5L13.5013 13.5M8.50134 8.5L7.50134 7.5" stroke="#000728" stroke-width="1.5" stroke-linecap="round" stroke-linejoin="round"/>
<path d="M11.0013 19.5H21.0013C21.8297 19.5 22.5013 20.1716 22.5013 21C22.5013 21.8284 21.8297 22.5 21.0013 22.5H16.0013" stroke="#000728" stroke-width="1.5" stroke-linecap="round" stroke-linejoin="round"/>
</svg>
