<svg width="25" height="24" viewBox="0 0 25 24" fill="none" xmlns="http://www.w3.org/2000/svg">
<path d="M21.4713 6.20155L13.2213 1.68749C13.0009 1.56569 12.7532 1.5018 12.5013 1.5018C12.2495 1.5018 12.0018 1.56569 11.7813 1.68749L3.53134 6.20342C3.29574 6.33233 3.09906 6.52214 2.96186 6.75301C2.82466 6.98388 2.75195 7.24736 2.75134 7.51592V16.4822C2.75195 16.7507 2.82466 17.0142 2.96186 17.2451C3.09906 17.476 3.29574 17.6658 3.53134 17.7947L11.7813 22.3106C12.0018 22.4324 12.2495 22.4963 12.5013 22.4963C12.7532 22.4963 13.0009 22.4324 13.2213 22.3106L21.4713 17.7947C21.7069 17.6658 21.9036 17.476 22.0408 17.2451C22.178 17.0142 22.2507 16.7507 22.2513 16.4822V7.51686C22.2512 7.24782 22.1788 6.98376 22.0415 6.75234C21.9043 6.52093 21.7074 6.33069 21.4713 6.20155ZM12.5013 2.99999L20.0332 7.12499L12.5013 11.25L4.96947 7.12499L12.5013 2.99999ZM4.25134 8.43749L11.7513 12.5419V20.5847L4.25134 16.4831V8.43749ZM13.2513 20.5847V12.5456L20.7513 8.43749V16.4794L13.2513 20.5847Z" fill="#000E50"/>
</svg>
