<svg width="24" height="25" viewBox="0 0 24 25" fill="none" xmlns="http://www.w3.org/2000/svg">
<path d="M12 3.89197C14.8036 3.89197 15.1356 3.90263 16.2428 3.95308C17.2666 3.99984 17.8226 4.17087 18.1926 4.31468C18.6827 4.50515 19.0325 4.73271 19.3999 5.10013C19.7674 5.46754 19.9948 5.81732 20.1853 6.30738C20.3291 6.67742 20.5002 7.23343 20.5469 8.2571C20.5974 9.36436 20.608 9.69642 20.608 12.5C20.608 15.3037 20.5974 15.6357 20.5469 16.7429C20.5002 17.7667 20.3291 18.3226 20.1853 18.6926C19.9948 19.1827 19.7673 19.5325 19.3999 19.9C19.0325 20.2674 18.6827 20.4949 18.1926 20.6853C17.8226 20.8291 17.2666 21.0002 16.2428 21.0469C15.1358 21.0974 14.8037 21.1081 12 21.1081C9.19617 21.1081 8.86411 21.0974 7.7571 21.0469C6.73335 21.0002 6.17742 20.8291 5.80738 20.6853C5.31732 20.4949 4.96746 20.2674 4.60004 19.9C4.23263 19.5325 4.00507 19.1827 3.81468 18.6926C3.67087 18.3227 3.49976 17.7667 3.45308 16.7429C3.40255 15.6357 3.39189 15.3037 3.39189 12.5C3.39189 9.69642 3.40255 9.36436 3.45308 8.25718C3.49984 7.23343 3.67087 6.67742 3.81468 6.30738C4.00507 5.81732 4.23263 5.46754 4.60004 5.10013C4.96754 4.73263 5.31732 4.50515 5.80738 4.31468C6.17734 4.17087 6.73335 3.99984 7.7571 3.95308C8.86427 3.90263 9.19634 3.89197 12 3.89197ZM12 2C9.14835 2 8.79077 2.01206 7.67088 2.06316C6.55321 2.11419 5.78991 2.2917 5.12209 2.55125C4.43155 2.81957 3.84601 3.17862 3.26228 3.76236C2.67854 4.34609 2.31957 4.93163 2.05125 5.62209C1.79162 6.28999 1.61419 7.05329 1.56316 8.17088C1.51206 9.29077 1.5 9.64835 1.5 12.5C1.5 15.3517 1.51206 15.7092 1.56316 16.8291C1.61419 17.9468 1.79162 18.7101 2.05125 19.3779C2.31949 20.0684 2.67854 20.654 3.26228 21.2377C3.84601 21.8215 4.43155 22.1804 5.12209 22.4487C5.78999 22.7084 6.55321 22.8858 7.6708 22.9368C8.79077 22.9879 9.14835 23 12 23C14.8517 23 15.2092 22.9879 16.3291 22.9368C17.4467 22.8858 18.21 22.7084 18.8778 22.4487C19.5684 22.1805 20.1539 21.8215 20.7376 21.2377C21.3214 20.654 21.6804 20.0684 21.9487 19.3779C22.2083 18.71 22.3858 17.9468 22.4368 16.8292C22.4879 15.7092 22.5 15.3517 22.5 12.5C22.5 9.64835 22.4879 9.29077 22.4368 8.17088C22.3858 7.05329 22.2083 6.28999 21.9487 5.62217C21.6804 4.93163 21.3214 4.34609 20.7376 3.76236C20.1539 3.17862 19.5684 2.81949 18.8779 2.55125C18.21 2.2917 17.4467 2.11419 16.3291 2.06316C15.2092 2.01206 14.8517 2 12 2ZM12 7.10809C9.0221 7.10809 6.60809 9.52227 6.60809 12.5C6.60809 15.4779 9.0221 17.8919 12 17.8919C14.9778 17.8919 17.3919 15.4779 17.3919 12.5C17.3919 9.52218 14.9778 7.10809 12 7.10809ZM12 16C10.067 16 8.49997 14.433 8.49997 12.5C8.49997 10.567 10.067 8.99997 12 8.99997C13.933 8.99997 15.5 10.567 15.5 12.5C15.5 14.433 13.933 16 12 16ZM18.8649 6.89505C18.8649 7.591 18.3008 8.15505 17.6049 8.15505C16.909 8.15505 16.3449 7.591 16.3449 6.89505C16.3449 6.19918 16.909 5.63505 17.6049 5.63505C18.3008 5.63505 18.8649 6.19918 18.8649 6.89505Z" fill="#0A0A08"/>
</svg>
