<svg width="25" height="24" viewBox="0 0 25 24" fill="none" xmlns="http://www.w3.org/2000/svg">
<path d="M21.5 11.0511V6.12325C21.5 5.34825 20.9145 4.70502 20.1551 4.57302C17.095 4.04108 14.5546 2.85772 13.3152 2.20154C12.8077 1.93282 12.1923 1.93282 11.6848 2.20154C10.4454 2.85772 7.90502 4.04108 4.84489 4.57302C4.08552 4.70502 3.5 5.34825 3.5 6.12325V11.0511C3.5 17.4795 10.0376 20.9859 11.9689 21.8815C12.3097 22.0395 12.6903 22.0395 13.0311 21.8815C14.9624 20.9859 21.5 17.4795 21.5 11.0511Z" stroke="#000E50" stroke-width="1.5" stroke-linecap="round"/>
<path d="M14.2516 8.25C14.2516 9.2165 13.4678 10 12.5008 10C11.5339 10 10.75 9.2165 10.75 8.25C10.75 7.2835 11.5339 6.5 12.5008 6.5C13.4678 6.5 14.2516 7.2835 14.2516 8.25Z" stroke="#000E50" stroke-width="1.5"/>
<path d="M15.125 16H9.875C9.39175 16 9 15.6082 9 15.125C9 13.6753 10.1753 12.5 11.625 12.5H13.375C14.8247 12.5 16 13.6753 16 15.125C16 15.6082 15.6082 16 15.125 16Z" stroke="#000E50" stroke-width="1.5" stroke-linecap="round" stroke-linejoin="round"/>

</svg>
