<svg width="25" height="24" viewBox="0 0 25 24" fill="none" xmlns="http://www.w3.org/2000/svg">
<path d="M4.50525 8.50195V21.002" stroke="#000E50" stroke-width="1.5" stroke-linejoin="round"/>
<path d="M2.50525 21.002H22.5052" stroke="#000E50" stroke-width="1.5" stroke-linecap="round" stroke-linejoin="round"/>
<path d="M21.5052 15.002H14.5052V17.5179C14.5052 19.4421 16.0722 21.002 18.0052 21.002C19.9382 21.002 21.5052 19.4421 21.5052 17.5179V15.002Z" stroke="#000E50" stroke-width="1.5" stroke-linejoin="round"/>
<path d="M18.0052 11.002V15.002" stroke="#000E50" stroke-width="1.5" stroke-linejoin="round"/>
<path d="M6.00525 8.5H3.50525C2.95297 8.5 2.50525 8.05228 2.50525 7.5V4C2.50525 3.44772 2.95297 3 3.50525 3H19.5052C20.0575 3 20.5052 3.44772 20.5052 4V10C20.5052 10.5523 20.0575 11 19.5052 11H16.1822C15.7733 11 15.4056 10.751 15.2538 10.3714L14.7566 9.12861C14.6048 8.74895 14.2371 8.5 13.8282 8.5H10.5018V17.0553C10.5018 18.4126 11.4621 20.8131 14.3064 21.0006" stroke="#000E50" stroke-width="1.5" stroke-linecap="round" stroke-linejoin="round"/>
</svg>
