<svg width="35" height="21" viewBox="0 0 35 21" fill="none" xmlns="http://www.w3.org/2000/svg">
<path fill-rule="evenodd" clip-rule="evenodd" d="M17.5086 18.2781C19.3537 19.9723 21.8315 21 24.5266 21C30.3148 21 34.9995 16.2953 34.9995 10.5089C34.9995 4.70488 30.3148 0 24.5266 0C21.8315 0 19.3537 1.02745 17.5086 2.7219C15.3923 4.65057 14.0537 7.42656 14.0537 10.5089C14.0539 13.5913 15.3923 16.3675 17.5086 18.2781Z" fill="#E9B040"/>
<path fill-rule="evenodd" clip-rule="evenodd" d="M33.6074 16.349C33.6074 16.1687 33.7522 16.0247 33.9329 16.0247C34.1318 16.0247 34.2763 16.1689 34.2763 16.349C34.2763 16.5476 34.1315 16.6917 33.9329 16.6917C33.7522 16.6917 33.6074 16.5476 33.6074 16.349ZM33.9329 16.6197C34.0777 16.6197 34.2039 16.4933 34.2039 16.3492C34.2039 16.2052 34.0775 16.097 33.9329 16.097C33.806 16.097 33.6798 16.2052 33.6798 16.3492C33.6798 16.4933 33.8063 16.6197 33.9329 16.6197ZM33.8967 16.5115H33.8244V16.205H33.9508C33.9691 16.205 34.0053 16.205 34.0232 16.2232C34.0594 16.2411 34.0594 16.2593 34.0594 16.2954C34.0594 16.3314 34.0415 16.3675 34.0053 16.3675L34.0777 16.5118H33.987L33.9508 16.3853H33.8967V16.5115V16.3312H33.9691C33.987 16.3312 33.987 16.313 33.987 16.2952C33.987 16.2769 33.987 16.2769 33.9691 16.2591H33.8967V16.5115Z" fill="#E9B040"/>
<path fill-rule="evenodd" clip-rule="evenodd" d="M20.8915 9.39151C20.8553 9.01303 20.7829 8.65259 20.7106 8.2739H14.3074C14.3798 7.89542 14.4883 7.53498 14.5967 7.17432H20.4032C20.2771 6.79485 20.1322 6.42185 19.9691 6.0567H15.0491C15.2301 5.67489 15.4293 5.30193 15.646 4.93909H19.3543C19.1157 4.55412 18.8497 4.18665 18.5585 3.83951H16.442C16.7694 3.44108 17.1261 3.06751 17.5092 2.7219C15.6462 1.04548 13.1861 0 10.4729 0C4.70285 0 0 4.70488 0 10.5089C0 16.2953 4.70285 21 10.4729 21C13.1861 21 15.646 19.9723 17.5092 18.2781C17.8864 17.9385 18.2372 17.5709 18.5585 17.1783H16.442C16.1525 16.8179 15.8993 16.4574 15.646 16.0607H19.3543C19.5874 15.7042 19.793 15.3306 19.9693 14.9431H15.0491C14.8862 14.5826 14.7236 14.2222 14.5967 13.8433H20.4032C20.5296 13.4828 20.6203 13.1046 20.7103 12.7257C20.7827 12.3652 20.8551 11.987 20.8913 11.6081C20.928 11.2426 20.9462 10.8755 20.9458 10.5083C20.9458 10.1304 20.9277 9.75195 20.8915 9.39151Z" fill="#CC2131"/>
<path fill-rule="evenodd" clip-rule="evenodd" d="M33.6074 12.9425C33.6074 12.7444 33.7522 12.6003 33.9329 12.6003C34.1318 12.6003 34.2763 12.7446 34.2763 12.9425C34.2763 13.1229 34.1315 13.2852 33.9329 13.2852C33.7522 13.2852 33.6074 13.1227 33.6074 12.9425ZM33.9329 13.1948C34.0777 13.1948 34.2039 13.0866 34.2039 12.9425C34.2039 12.7985 34.0775 12.6903 33.9329 12.6903C33.806 12.6903 33.6798 12.7985 33.6798 12.9425C33.6798 13.0866 33.8063 13.1948 33.9329 13.1948ZM33.8967 13.0866H33.8244V12.7983H34.0232C34.0594 12.8165 34.0594 12.8526 34.0594 12.8887C34.0594 12.9065 34.0415 12.9425 34.0053 12.9608L34.0777 13.0868H33.987L33.9508 12.9786H33.8967V13.0866V12.9245H33.9329C33.9508 12.9245 33.9691 12.9245 33.9691 12.9063C33.987 12.9063 33.987 12.8884 33.987 12.8702C33.987 12.8702 33.987 12.8524 33.9691 12.8524C33.9691 12.8341 33.9508 12.8524 33.9329 12.8524H33.8967V13.0866Z" fill="white"/>
<path fill-rule="evenodd" clip-rule="evenodd" d="M13.9455 13.5374C13.6019 13.6273 13.3486 13.6816 13.0955 13.6816C12.5528 13.6816 12.2271 13.339 12.2271 12.7261C12.2271 12.6001 12.2452 12.4739 12.2633 12.3296L12.3357 11.9153L12.39 11.5726L12.8783 8.61653H13.9636L13.837 9.2655H14.5244L14.3615 10.347H13.6741L13.3848 12.1134C13.3667 12.2038 13.3667 12.2577 13.3667 12.2937C13.3667 12.5282 13.4753 12.6181 13.7465 12.6181C13.8732 12.6181 13.9815 12.6003 14.0901 12.5821L13.9455 13.5374ZM17.4547 13.5013C17.0569 13.6095 16.6952 13.6634 16.2971 13.6634C15.067 13.6634 14.3615 13.0144 14.3615 11.7349C14.3615 10.2386 15.1937 9.15709 16.3511 9.15709C17.2736 9.15709 17.8705 9.76999 17.8705 10.7251C17.8705 11.0499 17.8343 11.3562 17.7441 11.7888H15.483C15.4649 11.861 15.4649 11.897 15.4649 11.9331C15.4649 12.4378 15.8085 12.69 16.4597 12.69C16.8757 12.69 17.2374 12.6001 17.6355 12.42L17.4547 13.5013ZM16.7854 10.9237V10.7073C16.7854 10.3468 16.5864 10.1485 16.2428 10.1485C15.8809 10.1485 15.6278 10.4188 15.5192 10.9235L16.7854 10.9237ZM5.26323 13.5913H4.14175L4.79296 9.49971L3.32788 13.5913H2.55021L2.45974 9.51775L1.77233 13.5913H0.668945L1.55519 8.2739H3.20122L3.23741 11.5548L4.34079 8.2739H6.14968L5.26323 13.5913ZM7.99476 11.6628C7.88619 11.6446 7.85 11.6446 7.77761 11.6446C7.1264 11.6446 6.8009 11.8968 6.8009 12.2935C6.8009 12.564 6.96375 12.7444 7.21688 12.7444C7.75952 12.7444 7.97645 12.2935 7.99476 11.6628ZM8.8991 13.5913H7.92238L7.94047 13.1409C7.68714 13.4831 7.34354 13.6634 6.74661 13.6634C6.20397 13.6634 5.7337 13.1769 5.7337 12.4739C5.7337 12.2757 5.76989 12.0956 5.82418 11.9153C6.00492 11.2481 6.67423 10.8337 7.70523 10.8155C7.8319 10.8155 8.03074 10.8155 8.21169 10.8337C8.24767 10.6895 8.24767 10.6351 8.24767 10.5452C8.24767 10.2567 8.01264 10.1665 7.48809 10.1665C7.16259 10.1665 6.80068 10.2206 6.54756 10.3108L6.38471 10.3468L6.31233 10.3647L6.47518 9.3913C6.99973 9.22901 7.37952 9.15709 7.79571 9.15709C8.77243 9.15709 9.29698 9.6077 9.29698 10.4368C9.29698 10.6532 9.31507 10.8155 9.24269 11.2841L8.98957 12.8343L8.95338 13.1048L8.93529 13.3212L8.91719 13.4655L8.8991 13.5913ZM22.9174 9.30135C23.2429 9.30135 23.5324 9.39151 23.9303 9.58966L24.1291 8.43599C24.0206 8.38189 23.9844 8.38189 23.8398 8.32779L23.3879 8.20156C23.2431 8.16549 23.0624 8.14746 22.8631 8.14746C22.3021 8.14746 21.9766 8.16549 21.6333 8.36385C21.4523 8.49008 21.2171 8.65238 20.9637 8.94069L20.819 8.90463L19.6613 9.71568L19.7158 9.26507H18.5217L17.8167 13.591H18.9564L19.3722 11.2661C19.3722 11.2661 19.5353 10.9413 19.6074 10.8335C19.8246 10.563 20.0053 10.563 20.2404 10.563H20.331C20.2931 10.8377 20.2749 11.1148 20.2765 11.3921C20.2765 12.798 21.0723 13.6814 22.3024 13.6814C22.61 13.6814 22.8816 13.6454 23.2974 13.5372L23.4966 12.3116C23.135 12.5097 22.8092 12.5999 22.5378 12.5999C21.8687 12.5999 21.4704 12.0952 21.4704 11.3021C21.47 10.1304 22.0671 9.30135 22.9174 9.30135ZM32.5217 8.2739L32.2688 9.78803C31.9974 9.37348 31.6717 9.17512 31.2376 9.17512C30.6404 9.17512 30.0799 9.51753 29.7361 10.1665V10.1487L29.0127 9.71589L29.0851 9.26528H27.8731L27.1857 13.5913H28.3072L28.6872 11.2663C28.6872 11.2663 28.9765 10.9415 29.0489 10.8337C29.2299 10.6173 29.4106 10.581 29.5554 10.5632C29.4289 10.9237 29.3565 11.3562 29.3565 11.8431C29.3565 12.9247 29.9171 13.6456 30.749 13.6456C31.1652 13.6456 31.4907 13.5013 31.7981 13.1587L31.744 13.5913H32.8114L33.6796 8.2739H32.5217ZM31.1292 12.564C30.7492 12.564 30.5504 12.2757 30.5504 11.7167C30.5504 10.8694 30.9121 10.2567 31.4364 10.2567C31.8343 10.2567 32.0336 10.5632 32.0336 11.104C32.0336 11.9692 31.6719 12.564 31.1292 12.564ZM25.902 11.6628C25.7935 11.6446 25.7573 11.6446 25.6849 11.6446C25.0333 11.6446 24.7078 11.8968 24.7078 12.2935C24.7078 12.564 24.8708 12.7444 25.1239 12.7444C25.6666 12.7444 25.8837 12.2935 25.902 11.6628ZM26.8064 13.5913H25.8113L25.8475 13.1409C25.5944 13.4831 25.2504 13.6634 24.6539 13.6634C24.0929 13.6634 23.6048 13.1947 23.6048 12.4739C23.6048 11.4466 24.3823 10.8157 25.6123 10.8157C25.7392 10.8157 25.9378 10.8157 26.1009 10.8339C26.1371 10.6897 26.1554 10.6354 26.1554 10.5454C26.1554 10.2569 25.9201 10.1667 25.3775 10.1667C25.0699 10.1667 24.6901 10.2208 24.437 10.311L24.2922 10.347L24.2198 10.3649L24.3825 9.39152C24.9072 9.22922 25.2872 9.1573 25.703 9.1573C26.6797 9.1573 27.1862 9.60791 27.1862 10.437C27.1862 10.6534 27.2224 10.8157 27.1321 11.2843L26.8969 12.8345L26.8607 13.105L26.8245 13.3214L26.8066 13.4657V13.5913H26.8064ZM11.2685 10.1845C11.4857 10.1845 11.7931 10.2026 12.1188 10.2567L12.2816 9.24725C11.9559 9.21119 11.5218 9.15709 11.2685 9.15709C10.0025 9.15709 9.5865 9.84212 9.5865 10.6351C9.5865 11.1581 9.82153 11.5364 10.4366 11.8247C10.8887 12.0411 10.9611 12.0769 10.9611 12.2755C10.9611 12.5456 10.7261 12.7081 10.2918 12.7081C9.9482 12.7081 9.62248 12.6538 9.26079 12.5277L9.13412 13.5189L9.152 13.5372L9.36915 13.5732C9.44153 13.591 9.532 13.6093 9.65867 13.6271C9.92989 13.6454 10.1651 13.6632 10.3099 13.6632C11.5761 13.6632 12.1007 13.1767 12.1007 12.2212C12.1007 11.6265 11.8112 11.2661 11.2504 11.0138C10.7621 10.7972 10.7078 10.7616 10.7078 10.563C10.7078 10.3649 10.9249 10.1845 11.2685 10.1845Z" fill="#1B3771"/>
<path fill-rule="evenodd" clip-rule="evenodd" d="M24.4367 8.09352L24.2374 9.2472C23.8395 9.04884 23.55 8.95889 23.2245 8.95889C22.3743 8.95889 21.7775 9.78797 21.7775 10.9597C21.7775 11.771 22.1754 12.2574 22.8449 12.2574C23.116 12.2574 23.4417 12.1675 23.8034 11.9873L23.6045 13.1947C23.1883 13.3029 22.9171 13.3572 22.6095 13.3572C21.3797 13.3572 20.6199 12.4738 20.6199 11.0501C20.6199 9.15725 21.669 7.82324 23.1702 7.82324C23.3691 7.82324 23.5498 7.84127 23.6946 7.87734L24.147 7.98554C24.2919 8.03964 24.3281 8.05767 24.4367 8.09352ZM20.7827 8.88676H20.6742C20.2946 8.88676 20.0774 9.06708 19.7336 9.58961L19.8422 8.92261H18.811L18.1059 13.2488H19.2457C19.6615 10.599 19.77 10.1484 20.3127 10.1484H20.3851C20.4936 9.62568 20.6382 9.24699 20.8191 8.90458L20.7827 8.88676ZM14.235 13.1947C13.9276 13.3029 13.6743 13.339 13.4211 13.339C12.8423 13.339 12.5166 13.0146 12.5166 12.3839C12.5166 12.2757 12.5347 12.1316 12.5528 12.0052L12.6252 11.5726L12.6795 11.2304L13.1678 8.27385H14.2893L14.1626 8.92282H14.7415L14.5967 9.98634H14.0179L13.7105 11.789C13.6924 11.8611 13.6924 11.9154 13.6924 11.9693C13.6924 12.1857 13.8009 12.2759 14.0722 12.2759C14.1988 12.2759 14.3072 12.2759 14.3796 12.2398L14.235 13.1947ZM9.87575 10.2927C9.87575 10.8337 10.1289 11.2119 10.7258 11.5005C11.1961 11.7169 11.2685 11.7888 11.2685 11.9691C11.2685 12.2396 11.0694 12.3656 10.6172 12.3656C10.2736 12.3656 9.96602 12.3117 9.60433 12.2035L9.44147 13.1947L9.49575 13.2129L9.6948 13.249C9.76697 13.2668 9.85766 13.2851 10.0022 13.2851C10.2553 13.3211 10.4725 13.3211 10.6172 13.3211C11.8109 13.3211 12.3718 12.8703 12.3718 11.8791C12.3718 11.2841 12.1368 10.9414 11.5761 10.6714C11.0877 10.455 11.0334 10.4011 11.0334 10.2027C11.0334 9.96851 11.2325 9.86032 11.5942 9.86032C11.8113 9.86032 12.1187 9.87835 12.4082 9.91442L12.5709 8.92303C12.2816 8.86894 11.8294 8.83287 11.5761 8.83287C10.3098 8.83266 9.85766 9.49966 9.87575 10.2927ZM33.1009 13.249H32.0335L32.088 12.8343C31.7804 13.1586 31.4547 13.3029 31.0385 13.3029C30.2065 13.3029 29.6639 12.6003 29.6639 11.5187C29.6639 10.0765 30.5141 8.85069 31.5087 8.85069C31.9611 8.85069 32.2866 9.04905 32.5945 9.44556L32.8476 7.93144H33.9691L33.1009 13.249ZM31.4366 12.2396C31.9613 12.2396 32.323 11.6267 32.323 10.7794C32.323 10.2206 32.1238 9.93202 31.7259 9.93202C31.2194 9.93202 30.8399 10.5269 30.8399 11.3742C30.8399 11.9513 31.0387 12.2396 31.4366 12.2396ZM17.7078 13.1586C17.3097 13.2851 16.948 13.339 16.532 13.339C15.2658 13.339 14.6146 12.6722 14.6146 11.3923C14.6146 9.9142 15.4468 8.81462 16.5863 8.81462C17.5269 8.81462 18.1236 9.42753 18.1236 10.3828C18.1236 10.7074 18.0874 11.014 17.9788 11.4644H15.7363C15.7182 11.5187 15.7182 11.5548 15.7182 11.5908C15.7182 12.0955 16.062 12.3478 16.713 12.3478C17.129 12.3478 17.4907 12.2757 17.8888 12.0773L17.7078 13.1586ZM17.0747 10.581V10.3648C17.0747 10.0044 16.8756 9.80601 16.532 9.80601C16.1704 9.80601 15.917 10.0765 15.8084 10.581H17.0747ZM5.55269 13.249H4.43121L5.08243 9.15704L3.61735 13.249H2.83947L2.74899 9.1931L2.0618 13.249H1.0127L1.89894 7.93144H3.52687L3.58116 11.2302L4.66624 7.93144H6.43893L5.55269 13.249ZM8.35639 11.3201C8.24782 11.3201 8.19353 11.3023 8.10306 11.3023C7.46994 11.3023 7.14443 11.5365 7.14443 11.9691C7.14443 12.2396 7.2892 12.4017 7.54232 12.4017C8.01258 12.4017 8.3383 11.9691 8.35639 11.3201ZM9.18835 13.249H8.24761L8.2657 12.7982C7.97618 13.1586 7.59639 13.3211 7.07184 13.3211C6.45682 13.3211 6.04084 12.8525 6.04084 12.1494C6.04084 11.0861 6.76422 10.4732 8.03046 10.4732C8.15713 10.4732 8.31999 10.4913 8.50073 10.5091C8.53692 10.365 8.53692 10.3109 8.53692 10.2388C8.53692 9.95048 8.33787 9.84228 7.81332 9.84228C7.48782 9.84228 7.12591 9.87835 6.87279 9.95048L6.70994 10.0046L6.60136 10.0226L6.76422 9.04926C7.32496 8.88697 7.70475 8.83287 8.12094 8.83287C9.09766 8.83287 9.62221 9.26545 9.62221 10.0945C9.62221 10.3109 9.60411 10.4732 9.53173 10.9599L9.2784 12.4923L9.24221 12.7623L9.22411 12.9787L9.20602 13.1412L9.18835 13.249ZM26.2637 11.3201C26.1368 11.3201 26.0827 11.3023 26.0106 11.3023C25.3593 11.3023 25.0334 11.5365 25.0334 11.9691C25.0334 12.2396 25.1965 12.4017 25.4496 12.4017C25.902 12.4017 26.2454 11.9691 26.2637 11.3201ZM27.0956 13.249H26.1551L26.173 12.7982C25.8837 13.1586 25.5039 13.3211 24.9793 13.3211C24.3643 13.3211 23.9481 12.8525 23.9481 12.1494C23.9481 11.0861 24.6715 10.4732 25.9377 10.4732C26.0646 10.4732 26.2275 10.4913 26.3901 10.5091C26.4263 10.365 26.4446 10.3109 26.4446 10.2388C26.4446 9.95048 26.2454 9.84228 25.7212 9.84228C25.3953 9.84228 25.0157 9.87835 24.7624 9.95048L24.6176 10.0046L24.5091 10.0226L24.6717 9.04926C25.2327 8.88697 25.6122 8.83287 26.0284 8.83287C27.0052 8.83287 27.5116 9.26545 27.5116 10.0945C27.5116 10.3109 27.5116 10.4732 27.4213 10.9599L27.1861 12.4923L27.1499 12.7623L27.1137 12.9787L27.0958 13.1412L27.0956 13.249ZM30.1344 8.88676H30.0258C29.6462 8.88676 29.4291 9.06708 29.0853 9.58961L29.1938 8.92261H28.1626L27.4752 13.2488H28.5967C29.0129 10.599 29.1215 10.1484 29.6641 10.1484H29.7365C29.845 9.62568 29.9896 9.24699 30.1705 8.90458L30.1344 8.88676Z" fill="white"/>
</svg>
