<svg width="24" height="24" viewBox="0 0 24 24" fill="none" xmlns="http://www.w3.org/2000/svg">
<path d="M6.34226 14.7278L3.51383 17.5563L7.04936 21.0918L20.4844 7.65678L16.9488 4.12125L14.8275 6.24257L16.2417 7.65678L14.8275 9.071L13.4133 7.65678L11.292 9.7781L13.4133 11.8994L11.9991 13.3136L9.87779 11.1923L7.75647 13.3136L9.17068 14.7278L7.75647 16.142L6.34226 14.7278ZM17.6559 1.99993L22.6057 6.94968C22.9962 7.3402 22.9962 7.97336 22.6057 8.36389L7.75647 23.2131C7.36595 23.6036 6.73278 23.6036 6.34226 23.2131L1.39251 18.2634C1.00198 17.8728 1.00198 17.2397 1.39251 16.8492L16.2417 1.99993C16.6322 1.6094 17.2654 1.6094 17.6559 1.99993Z" fill="#000E50"/>
</svg>
