<svg width="25" height="24" viewBox="0 0 25 24" fill="none" xmlns="http://www.w3.org/2000/svg">
<path d="M7.07498 23.1501C6.60831 23.1501 6.20414 22.9793 5.86248 22.6376C5.52081 22.2959 5.34998 21.8918 5.34998 21.4251V2.5751C5.34998 2.10843 5.52081 1.70426 5.86248 1.3626C6.20414 1.02093 6.60831 0.850098 7.07498 0.850098H17.925C18.3916 0.850098 18.7958 1.02093 19.1375 1.3626C19.4791 1.70426 19.65 2.10843 19.65 2.5751V21.4251C19.65 21.8918 19.4791 22.2959 19.1375 22.6376C18.7958 22.9793 18.3916 23.1501 17.925 23.1501H7.07498ZM12.5 21.0501C12.7166 21.0501 12.8958 20.9793 13.0375 20.8376C13.1791 20.6959 13.25 20.5168 13.25 20.3001C13.25 20.0834 13.1791 19.9043 13.0375 19.7626C12.8958 19.6209 12.7166 19.5501 12.5 19.5501C12.2833 19.5501 12.1041 19.6209 11.9625 19.7626C11.8208 19.9043 11.75 20.0834 11.75 20.3001C11.75 20.5168 11.8208 20.6959 11.9625 20.8376C12.1041 20.9793 12.2833 21.0501 12.5 21.0501ZM7.07498 17.6751H17.925V4.8251H7.07498V17.6751Z" fill="#000E50"/>
</svg>
