<svg width="25" height="24" viewBox="0 0 25 24" fill="none" xmlns="http://www.w3.org/2000/svg">
<path d="M18.5 6V4C18.5 2.89543 17.6046 2 16.5 2H4.5C3.39543 2 2.5 2.89543 2.5 4V20C2.5 21.1046 3.39543 22 4.5 22H16.5C17.6046 22 18.5 21.1046 18.5 20V18" stroke="#000E50" stroke-width="1.5" stroke-linecap="round" stroke-linejoin="round"/>
<path d="M22.207 8.87868L21.6212 8.29289C21.2306 7.90237 20.5975 7.90237 20.207 8.29289L13.428 15.0718C13.1488 15.351 12.9585 15.7066 12.8811 16.0938L12.4998 18L14.4061 17.6188C14.7932 17.5413 15.1488 17.351 15.428 17.0718L22.207 10.2929C22.5975 9.90237 22.5975 9.2692 22.207 8.87868Z" stroke="#000E50" stroke-width="1.5" stroke-linejoin="round"/>
<path d="M18.5 10L20.5 12" stroke="#000E50" stroke-width="1.5" stroke-linecap="round" stroke-linejoin="round"/>
<path d="M5.5 19H6.5L7.75 16.5L9 19H10" stroke="#000E50" stroke-width="1.5" stroke-linecap="round" stroke-linejoin="round"/>
<path d="M6.5 6H14.5" stroke="#000E50" stroke-width="1.5" stroke-linecap="round" stroke-linejoin="round"/>
<path d="M6.5 10H12.5" stroke="#000E50" stroke-width="1.5" stroke-linecap="round" stroke-linejoin="round"/>
</svg>
