<svg width="20" height="20" viewBox="0 0 20 20" fill="none" xmlns="http://www.w3.org/2000/svg">
<g clip-path="url(#clip0_230_17678)">
<path fill-rule="evenodd" clip-rule="evenodd" d="M10 20C4.48625 20 0 15.5138 0 10C0 4.48625 4.48625 0 10 0C15.5138 0 20 4.48625 20 10C20 15.5138 15.5138 20 10 20ZM10 1.25C5.175 1.25 1.25 5.175 1.25 10C1.25 14.825 5.175 18.75 10 18.75C14.825 18.75 18.75 14.825 18.75 10C18.75 5.175 14.825 1.25 10 1.25ZM13.1694 14.4187C12.9906 14.4187 12.8131 14.3425 12.6894 14.1944L9.52 10.4006C9.50125 10.3775 9.49438 10.35 9.47937 10.325C9.45625 10.2881 9.43312 10.2531 9.4175 10.2112C9.4025 10.1694 9.3975 10.1269 9.39188 10.0831C9.38813 10.0544 9.375 10.0294 9.375 10V4.375C9.375 4.03 9.655 3.75 10 3.75C10.345 3.75 10.625 4.03 10.625 4.375V9.77312L13.6487 13.3931C13.87 13.6581 13.8344 14.0525 13.5694 14.2737C13.4525 14.3712 13.3106 14.4187 13.1694 14.4187Z" fill="#000E50"/>
</g>
<defs>
<clipPath id="clip0_230_17678">
<rect width="20" height="20" fill="white"/>
</clipPath>
</defs>
</svg>
