<svg width="24" height="24" viewBox="0 0 24 24" fill="none" xmlns="http://www.w3.org/2000/svg">
<path d="M4.75004 21C4.53337 21 4.35421 20.9291 4.21254 20.7875C4.07087 20.6458 4.00004 20.4666 4.00004 20.25V10.975L2.50004 12.125C2.33337 12.2583 2.15004 12.3083 1.95004 12.275C1.75004 12.2416 1.58337 12.1416 1.45004 11.975C1.31671 11.8083 1.26671 11.625 1.30004 11.425C1.33337 11.225 1.43337 11.0583 1.60004 10.925L11.55 3.34995C11.6167 3.29995 11.6875 3.26245 11.7625 3.23745C11.8375 3.21245 11.9167 3.19995 12 3.19995C12.0834 3.19995 12.1625 3.21245 12.2375 3.23745C12.3125 3.26245 12.3834 3.29995 12.45 3.34995L22.425 10.95C22.5917 11.0833 22.6875 11.25 22.7125 11.45C22.7375 11.65 22.6834 11.8333 22.55 12C22.4167 12.1666 22.2542 12.2625 22.0625 12.2875C21.8709 12.3125 21.6917 12.2583 21.525 12.125L20 10.975V20.25C20 20.4666 19.9292 20.6458 19.7875 20.7875C19.6459 20.9291 19.4667 21 19.25 21H4.75004ZM5.50004 19.5H18.5V9.82495L12 4.87495L5.50004 9.82495V19.5ZM5.50004 19.5H12H18.5H5.50004ZM8.00004 15C8.28337 15 8.52087 14.9041 8.71254 14.7125C8.90421 14.5208 9.00004 14.2833 9.00004 14C9.00004 13.7166 8.90421 13.4791 8.71254 13.2875C8.52087 13.0958 8.28337 13 8.00004 13C7.71671 13 7.47921 13.0958 7.28754 13.2875C7.09587 13.4791 7.00004 13.7166 7.00004 14C7.00004 14.2833 7.09587 14.5208 7.28754 14.7125C7.47921 14.9041 7.71671 15 8.00004 15ZM12 15C12.2834 15 12.5209 14.9041 12.7125 14.7125C12.9042 14.5208 13 14.2833 13 14C13 13.7166 12.9042 13.4791 12.7125 13.2875C12.5209 13.0958 12.2834 13 12 13C11.7167 13 11.4792 13.0958 11.2875 13.2875C11.0959 13.4791 11 13.7166 11 14C11 14.2833 11.0959 14.5208 11.2875 14.7125C11.4792 14.9041 11.7167 15 12 15ZM16 15C16.2834 15 16.5209 14.9041 16.7125 14.7125C16.9042 14.5208 17 14.2833 17 14C17 13.7166 16.9042 13.4791 16.7125 13.2875C16.5209 13.0958 16.2834 13 16 13C15.7167 13 15.4792 13.0958 15.2875 13.2875C15.0959 13.4791 15 13.7166 15 14C15 14.2833 15.0959 14.5208 15.2875 14.7125C15.4792 14.9041 15.7167 15 16 15Z" fill="#000E50"/>
</svg>
