<svg width="35" height="36" viewBox="0 0 35 36" fill="none" xmlns="http://www.w3.org/2000/svg">
<path d="M7.51315 30.3959C6.94648 30.3959 6.46246 30.1893 6.06107 29.7761C5.65968 29.3629 5.45898 28.8647 5.45898 28.2813V7.71883C5.45898 7.1355 5.65968 6.63723 6.06107 6.22404C6.46246 5.81085 6.94648 5.60425 7.51315 5.60425H27.4881C28.0548 5.60425 28.5388 5.81085 28.9402 6.22404C29.3416 6.63723 29.5423 7.1355 29.5423 7.71883V28.2813C29.5423 28.8647 29.3416 29.3629 28.9402 29.7761C28.5388 30.1893 28.0548 30.3959 27.4881 30.3959H7.51315ZM7.05273 17.3803V28.2813C7.05273 28.4029 7.09996 28.5122 7.1944 28.6095C7.28885 28.7067 7.3951 28.7553 7.51315 28.7553H27.4881C27.6062 28.7553 27.7125 28.7067 27.8069 28.6095C27.9013 28.5122 27.9486 28.4029 27.9486 28.2813V17.3803H23.6277V24.3074H11.3736V17.3803H7.05273ZM13.0027 22.6303H21.9986V17.3803H13.0027V22.6303ZM7.05273 15.7032H27.9486V7.71883C27.9486 7.5973 27.9013 7.48793 27.8069 7.39071C27.7125 7.29348 27.6062 7.24487 27.4881 7.24487H7.51315C7.3951 7.24487 7.28885 7.29348 7.1944 7.39071C7.09996 7.48793 7.05273 7.5973 7.05273 7.71883V15.7032ZM11.7986 12.0574C11.5152 12.0574 11.2791 11.9541 11.0902 11.7475C10.9013 11.5409 10.8069 11.2917 10.8069 11.0001C10.8069 10.7327 10.9072 10.4957 11.1079 10.2891C11.3086 10.0825 11.5388 9.97925 11.7986 9.97925C12.0819 9.97925 12.318 10.0825 12.5069 10.2891C12.6958 10.4957 12.7902 10.7449 12.7902 11.0365C12.7902 11.3039 12.6958 11.5409 12.5069 11.7475C12.318 11.9541 12.0819 12.0574 11.7986 12.0574ZM17.4652 12.0574C17.1819 12.0574 16.9458 11.9541 16.7569 11.7475C16.568 11.5409 16.4736 11.2917 16.4736 11.0001C16.4736 10.7327 16.5739 10.4957 16.7746 10.2891C16.9753 10.0825 17.2055 9.97925 17.4652 9.97925C17.7486 9.97925 17.9847 10.0825 18.1736 10.2891C18.3625 10.4957 18.4569 10.7449 18.4569 11.0365C18.4569 11.3039 18.3625 11.5409 18.1736 11.7475C17.9847 11.9541 17.7486 12.0574 17.4652 12.0574ZM23.1319 12.0574C22.8486 12.0574 22.6125 11.9541 22.4236 11.7475C22.2347 11.5409 22.1402 11.2917 22.1402 11.0001C22.1402 10.7327 22.2406 10.4957 22.4413 10.2891C22.642 10.0825 22.8722 9.97925 23.1319 9.97925C23.4152 9.97925 23.6513 10.0825 23.8402 10.2891C24.0291 10.4957 24.1236 10.7449 24.1236 11.0365C24.1236 11.3039 24.0291 11.5409 23.8402 11.7475C23.6513 11.9541 23.4152 12.0574 23.1319 12.0574Z" fill="#000E50"/>
</svg>
