<svg width="16" height="17" viewBox="0 0 16 17" fill="none" xmlns="http://www.w3.org/2000/svg">
<path d="M7.69842 4.94287H7.68064C7.64508 4.94287 7.62731 4.96065 7.60953 5.01398C7.53842 5.17398 7.59175 5.49398 7.69842 5.83176C7.78731 5.24509 7.73397 4.9962 7.69842 4.94287Z" fill="#666E96"/>
<path d="M5.29759 11.0592C5.29759 11.0769 5.27981 11.1481 5.42203 11.2547C5.45759 11.2369 5.70647 11.1303 6.15092 10.3125C5.54647 10.6325 5.31536 10.8992 5.29759 11.0592Z" fill="#C80A0A"/>
<path d="M7.09375 9.35246C7.66264 9.12135 8.30264 8.94357 8.87153 8.80135C8.49819 8.37468 8.12486 7.82357 7.82264 7.27246C7.62708 7.94802 7.37819 8.69468 7.09375 9.35246Z" fill="#C80A0A"/>
<path d="M8 0.25C3.59111 0.25 0 3.84111 0 8.25C0 12.6589 3.57333 16.25 8 16.25C12.4267 16.25 16 12.6767 16 8.25C16 3.82333 12.4089 0.25 8 0.25ZM11.0222 9.49444C10.8622 9.70778 10.6667 9.81444 10.4178 9.81444C10.08 9.81444 9.68889 9.60111 9.26222 9.19222C8.48 9.35222 7.57333 9.65444 6.82667 9.97444C6.59556 10.4544 6.38222 10.8633 6.16889 11.1478C5.88444 11.5389 5.63556 11.7344 5.40444 11.7344C5.31556 11.7344 5.20889 11.6989 5.13778 11.6456C4.85333 11.4322 4.81778 11.1833 4.83556 11.0233C4.88889 10.5789 5.44 10.0989 6.48889 9.63667C6.89778 8.73 7.28889 7.61 7.53778 6.68556C7.27111 6.08111 7.00444 5.31667 7.2 4.85444C7.27111 4.69444 7.39556 4.58778 7.53778 4.53444C7.60889 4.51667 7.66222 4.49889 7.71556 4.49889C7.85778 4.49889 7.98222 4.55222 8.07111 4.67667C8.16 4.78333 8.39111 5.08556 8.03556 6.63222C8.40889 7.39667 8.92444 8.17889 9.44 8.71222C9.79556 8.64111 10.1156 8.60556 10.3644 8.60556C10.7911 8.60556 11.0578 8.71222 11.1644 8.90778C11.2178 9.06778 11.1822 9.26333 11.0222 9.49444Z" fill="#C80A0A"/>
<path d="M9.84961 9.08585C10.0807 9.26363 10.2763 9.35252 10.4185 9.35252C10.4896 9.35252 10.5607 9.33474 10.6496 9.21029C10.6852 9.15696 10.7029 9.1214 10.7207 9.10363C10.6852 9.08585 10.5963 9.05029 10.3474 9.05029C10.1874 9.05029 10.0274 9.06807 9.84961 9.08585Z" fill="#C80A0A"/>
</svg>
