<svg width="25" height="24" viewBox="0 0 25 24" fill="none" xmlns="http://www.w3.org/2000/svg">
<path d="M23.337 6.82875L18.9973 4.65938C18.4582 3.67875 17.1148 3 15.5013 3C13.3985 3 11.7513 4.15313 11.7513 5.625C11.7515 5.83306 11.7851 6.03974 11.8507 6.23719L10.0207 7.15219C9.3825 6.88041 8.69499 6.74348 8.00134 6.75C5.89853 6.75 4.25134 7.90312 4.25134 9.375C4.25155 9.58306 4.2851 9.78974 4.35072 9.98719L1.66572 11.3287C1.54111 11.3911 1.43634 11.4869 1.36315 11.6055C1.28996 11.7241 1.25124 11.8607 1.25134 12V18C1.25124 18.1393 1.28996 18.2759 1.36315 18.3945C1.43634 18.5131 1.54111 18.6089 1.66572 18.6713L7.66572 21.6712C7.76992 21.7234 7.88483 21.7505 8.00134 21.7505C8.11786 21.7505 8.23277 21.7234 8.33697 21.6712L23.337 14.1713C23.4616 14.1089 23.5663 14.0131 23.6395 13.8945C23.7127 13.7759 23.7514 13.6393 23.7513 13.5V7.5C23.7514 7.36067 23.7127 7.22406 23.6395 7.10549C23.5663 6.98693 23.4616 6.8911 23.337 6.82875ZM8.00134 14.1619L3.67853 12L5.28259 11.1984C5.96134 11.6944 6.92134 12 8.00134 12C10.1042 12 11.7513 10.8469 11.7513 9.375C11.7478 8.93929 11.6049 8.51615 11.3435 8.1675L12.7826 7.44844C13.4613 7.94437 14.4213 8.25 15.5013 8.25C17.2245 8.25 18.641 7.47563 19.0967 6.38625L21.3242 7.5L8.00134 14.1619ZM15.5013 4.5C16.7895 4.5 17.7513 5.09438 17.7513 5.625C17.7513 6.15562 16.7895 6.75 15.5013 6.75C14.2132 6.75 13.2513 6.15562 13.2513 5.625C13.2513 5.09438 14.2132 4.5 15.5013 4.5ZM8.00134 8.25C9.28947 8.25 10.2513 8.84438 10.2513 9.375C10.2513 9.90562 9.28947 10.5 8.00134 10.5C7.09478 10.5 6.35041 10.2056 5.98853 9.84375C5.96452 9.81274 5.93819 9.7836 5.90978 9.75656C5.81494 9.6512 5.75903 9.51655 5.75134 9.375C5.75134 8.84438 6.71322 8.25 8.00134 8.25ZM2.75134 13.2131L7.25134 15.4631V19.7869L2.75134 17.5369V13.2131ZM8.75134 19.7869V15.4631L22.2513 8.71313V13.0369L8.75134 19.7869Z" fill="#000E50"/>
</svg>
