<svg width="24" height="24" viewBox="0 0 24 24" fill="none" xmlns="http://www.w3.org/2000/svg">
<path d="M22.0039 21H21.0039C19.5525 21 18.2819 20.1411 18.0039 19C17.7259 20.1411 16.4553 21 15.0039 21C13.5525 21 12.2819 20.1411 12.0039 19C11.7259 20.1411 10.4553 21 9.00391 21C7.55254 21 6.28187 20.1411 6.00391 19C5.72595 20.1411 4.45528 21 3.00391 21H2.00391" stroke="#000E50" stroke-width="1.5" stroke-linecap="round" stroke-linejoin="round"/>
<path d="M18.0039 3L16.5897 4.41421C16.2146 4.78929 16.0039 5.29799 16.0039 5.82843V17" stroke="#000E50" stroke-width="1.5" stroke-linecap="round" stroke-linejoin="round"/>
<path d="M10.0039 3L8.5897 4.41421C8.21462 4.78929 8.00391 5.29799 8.00391 5.82843V17" stroke="#000E50" stroke-width="1.5" stroke-linecap="round" stroke-linejoin="round"/>
<path d="M8.00391 7H16.0039M8.00391 11H16.0039M8.00391 15H16.0039" stroke="#000E50" stroke-width="1.5" stroke-linecap="round" stroke-linejoin="round"/>
</svg>
