<svg width="20" height="20" viewBox="0 0 20 20" fill="none" xmlns="http://www.w3.org/2000/svg">
<path d="M7.24984 14.9998C7.40262 14.9998 7.53456 14.9408 7.64567 14.8228C7.75678 14.7047 7.81234 14.5693 7.81234 14.4165V10.8332H9.99984L10.6665 12.1457C10.7221 12.2568 10.8019 12.3436 10.9061 12.4061C11.0103 12.4686 11.1179 12.4998 11.229 12.4998H14.3748C14.5554 12.4998 14.7047 12.4408 14.8228 12.3228C14.9408 12.2047 14.9998 12.0554 14.9998 11.8748V8.12484C14.9998 7.94428 14.9408 7.79498 14.8228 7.67692C14.7047 7.55887 14.5554 7.49984 14.3748 7.49984H12.4998L11.8332 6.18734C11.7776 6.07623 11.6978 5.98942 11.5936 5.92692C11.4894 5.86442 11.3818 5.83317 11.2707 5.83317H7.2915C7.11095 5.83317 6.96164 5.8922 6.84359 6.01025C6.72553 6.12831 6.6665 6.27762 6.6665 6.45817V14.4373C6.6665 14.5901 6.72553 14.7221 6.84359 14.8332C6.96164 14.9443 7.09706 14.9998 7.24984 14.9998ZM11.604 11.354L10.7707 9.68734H7.81234V6.979H10.8957L11.729 8.64567H13.854V11.354H11.604ZM9.99984 18.3332C8.81928 18.3332 7.72206 18.1214 6.70817 17.6978C5.69428 17.2741 4.81234 16.6873 4.06234 15.9373C3.31234 15.1873 2.72553 14.3054 2.30192 13.2915C1.87831 12.2776 1.6665 11.1804 1.6665 9.99984C1.6665 8.83317 1.87831 7.74289 2.30192 6.729C2.72553 5.71512 3.31234 4.83317 4.06234 4.08317C4.81234 3.33317 5.69428 2.74289 6.70817 2.31234C7.72206 1.88178 8.81928 1.6665 9.99984 1.6665C11.1665 1.6665 12.2568 1.88178 13.2707 2.31234C14.2846 2.74289 15.1665 3.33317 15.9165 4.08317C16.6665 4.83317 17.2568 5.71512 17.6873 6.729C18.1179 7.74289 18.3332 8.83317 18.3332 9.99984C18.3332 11.1804 18.1179 12.2776 17.6873 13.2915C17.2568 14.3054 16.6665 15.1873 15.9165 15.9373C15.1665 16.6873 14.2846 17.2741 13.2707 17.6978C12.2568 18.1214 11.1665 18.3332 9.99984 18.3332ZM9.99984 17.0832C12.0137 17.0832 13.6978 16.4061 15.0519 15.0519C16.4061 13.6978 17.0832 12.0137 17.0832 9.99984C17.0832 7.98595 16.4061 6.30192 15.0519 4.94775C13.6978 3.59359 12.0137 2.9165 9.99984 2.9165C7.98595 2.9165 6.30192 3.59359 4.94775 4.94775C3.59359 6.30192 2.9165 7.98595 2.9165 9.99984C2.9165 12.0137 3.59359 13.6978 4.94775 15.0519C6.30192 16.4061 7.98595 17.0832 9.99984 17.0832Z" fill="#666E96"/>
</svg>
