<svg width="36" height="36" viewBox="0 0 36 36" fill="none" xmlns="http://www.w3.org/2000/svg">
<path d="M10.5 12L21.75 3L33 12" stroke="#000E50" stroke-width="2.25" stroke-linecap="round" stroke-linejoin="round"/>
<path d="M12.75 10.5V30M30.75 30V10.5" stroke="#000E50" stroke-width="2.25" stroke-linecap="round" stroke-linejoin="round"/>
<path d="M5.25 21C6.49264 21 7.5 19.6569 7.5 18C7.5 16.3431 6.49264 15 5.25 15C4.00736 15 3 16.3431 3 18C3 19.6569 4.00736 21 5.25 21Z" stroke="#000E50" stroke-width="2.25" stroke-linecap="round" stroke-linejoin="round"/>
<path d="M5.25 21V30" stroke="#000E50" stroke-width="2.25" stroke-linecap="round" stroke-linejoin="round"/>
<path d="M3 30H33" stroke="#000E50" stroke-width="2.25" stroke-linecap="round" stroke-linejoin="round"/>
<path d="M18.75 30V22.5C18.75 21.6716 19.4216 21 20.25 21H23.25C24.0784 21 24.75 21.6716 24.75 22.5V30" stroke="#000E50" stroke-width="2.25" stroke-linecap="round" stroke-linejoin="round"/>
<path d="M20.25 13.5H23.25" stroke="#000E50" stroke-width="2.25" stroke-linecap="round" stroke-linejoin="round"/>
</svg>
