<svg width="24" height="24" viewBox="0 0 24 24" fill="none" xmlns="http://www.w3.org/2000/svg">
<path d="M17.5 17.2502V14.0002C17.5 13.7835 17.5709 13.6043 17.7125 13.4627C17.8542 13.321 18.0334 13.2502 18.25 13.2502C18.4667 13.2502 18.6459 13.321 18.7875 13.4627C18.9292 13.6043 19 13.7752 19 13.9752V18.0002C19 18.2168 18.9292 18.396 18.7875 18.5377C18.6459 18.6793 18.4667 18.7502 18.25 18.7502H5.90005L7.50005 20.3502C7.66672 20.5168 7.75005 20.7043 7.75005 20.9127C7.75005 21.121 7.67505 21.3002 7.52505 21.4502C7.37505 21.6002 7.20005 21.6793 7.00005 21.6877C6.80005 21.696 6.62505 21.6252 6.47505 21.4752L3.52505 18.5252C3.37505 18.3752 3.30005 18.2002 3.30005 18.0002C3.30005 17.8002 3.37505 17.6252 3.52505 17.4752L6.45005 14.5502C6.60005 14.4002 6.77922 14.3252 6.98755 14.3252C7.19588 14.3252 7.37505 14.4002 7.52505 14.5502C7.67505 14.7002 7.75005 14.8793 7.75005 15.0877C7.75005 15.296 7.67505 15.4752 7.52505 15.6252L5.90005 17.2502H17.5ZM6.50005 6.75017V10.0002C6.50005 10.2168 6.42922 10.396 6.28755 10.5377C6.14588 10.6793 5.96672 10.7502 5.75005 10.7502C5.53338 10.7502 5.35422 10.6793 5.21255 10.5377C5.07088 10.396 5.00005 10.2252 5.00005 10.0252V6.00017C5.00005 5.7835 5.07088 5.60434 5.21255 5.46267C5.35422 5.321 5.53338 5.25017 5.75005 5.25017H18.1L16.5 3.65017C16.35 3.50017 16.2709 3.31684 16.2625 3.10017C16.2542 2.8835 16.325 2.70017 16.475 2.55017C16.625 2.40017 16.8 2.321 17 2.31267C17.2 2.30434 17.375 2.37517 17.525 2.52517L20.475 5.47517C20.625 5.62517 20.7001 5.80017 20.7001 6.00017C20.7001 6.20017 20.625 6.37517 20.475 6.52517L17.55 9.45017C17.4 9.60017 17.2209 9.67517 17.0125 9.67517C16.8042 9.67517 16.625 9.60017 16.475 9.45017C16.325 9.30017 16.25 9.121 16.25 8.91267C16.25 8.70434 16.325 8.52517 16.475 8.37517L18.1 6.75017H6.50005Z" fill="#000E50"/>
</svg>
