<svg width="24" height="24" viewBox="0 0 24 24" fill="none" xmlns="http://www.w3.org/2000/svg">
<path d="M5.39312 11.3056C6.15739 10.3806 6.34596 9.75557 6.26739 9.48057C6.20739 9.27362 5.92026 9.16668 5.92026 9.16668C5.66156 9.08402 5.44173 8.91428 5.30034 8.68802C5.15895 8.46176 5.10531 8.19385 5.14907 7.93255C5.19283 7.67125 5.33112 7.43372 5.53903 7.26276C5.74694 7.09179 6.01081 6.99861 6.28311 7.00002C6.39837 7.00015 6.51296 7.017 6.6231 7.05002C6.76596 7.09307 8.0388 7.51251 8.45022 8.82223C8.80164 9.94307 8.37165 11.2458 7.17309 12.6958C6.40882 13.6208 6.22025 14.2458 6.29882 14.5208C6.35882 14.7278 6.63739 14.8319 6.64024 14.8333C6.89846 14.9159 7.11797 15.0851 7.25938 15.3108C7.40079 15.5365 7.45484 15.8038 7.41183 16.0647C7.36883 16.3256 7.23157 16.5631 7.02471 16.7345C6.81784 16.9059 6.55491 17.0001 6.28311 17C6.16785 16.9999 6.05326 16.983 5.94311 16.95C5.80026 16.9069 4.52742 16.4875 4.11599 15.1778C3.76457 14.0569 4.19456 12.7542 5.39312 11.3056ZM11.1073 11.3056C11.8716 10.3806 12.0602 9.75557 11.9816 9.48057C11.9216 9.27362 11.6345 9.16668 11.6345 9.16668C11.3758 9.08402 11.1559 8.91428 11.0145 8.68802C10.8732 8.46176 10.8195 8.19385 10.8633 7.93255C10.907 7.67125 11.0453 7.43372 11.2532 7.26276C11.4611 7.09179 11.725 6.99861 11.9973 7.00002C12.1126 7.00015 12.2272 7.017 12.3373 7.05002C12.4802 7.09307 13.753 7.51251 14.1644 8.82223C14.5159 9.94307 14.0859 11.2458 12.8873 12.6958C12.123 13.6208 11.9345 14.2458 12.013 14.5208C12.073 14.7278 12.3516 14.8319 12.3545 14.8333C12.6127 14.9159 12.8322 15.0851 12.9736 15.3108C13.115 15.5365 13.1691 15.8038 13.126 16.0647C13.083 16.3256 12.9458 16.5631 12.7389 16.7345C12.532 16.9059 12.2691 17.0001 11.9973 17C11.8821 16.9999 11.7675 16.983 11.6573 16.95C11.5145 16.9069 10.2416 16.4875 9.8302 15.1778C9.47878 14.0569 9.90877 12.7542 11.1073 11.3056ZM16.8215 11.3056C17.5858 10.3806 17.7744 9.75557 17.6958 9.48057C17.6358 9.27362 17.3487 9.16668 17.3487 9.16668C17.09 9.08402 16.8701 8.91428 16.7288 8.68802C16.5874 8.46176 16.5337 8.19385 16.5775 7.93255C16.6212 7.67125 16.7595 7.43372 16.9674 7.26276C17.1754 7.09179 17.4392 6.99861 17.7115 7.00002C17.8268 7.00015 17.9414 7.017 18.0515 7.05002C18.1944 7.09307 19.4672 7.51251 19.8786 8.82223C20.2301 9.94307 19.8001 11.2458 18.6015 12.6958C17.8372 13.6208 17.6487 14.2458 17.7272 14.5208C17.7872 14.7278 18.0658 14.8319 18.0687 14.8333C18.3269 14.9159 18.5464 15.0851 18.6878 15.3108C18.8292 15.5365 18.8833 15.8038 18.8403 16.0647C18.7972 16.3256 18.66 16.5631 18.4531 16.7345C18.2463 16.9059 17.9833 17.0001 17.7115 17C17.5963 16.9999 17.4817 16.983 17.3715 16.95C17.2287 16.9069 15.9558 16.4875 15.5444 15.1778C15.193 14.0569 15.623 12.7542 16.8215 11.3056Z" fill="#000E50"/>
</svg>
