<svg width="26" height="25" viewBox="0 0 26 25" fill="none" xmlns="http://www.w3.org/2000/svg">
<path d="M11.35 18.95C11.1333 18.95 10.9541 18.8791 10.8125 18.7375C10.6708 18.5958 10.6 18.4166 10.6 18.2C10.6 17.9833 10.6708 17.8041 10.8125 17.6625C10.9541 17.5208 11.1333 17.45 11.35 17.45H13.85C14.0666 17.45 14.2458 17.5208 14.3875 17.6625C14.5291 17.8041 14.6 17.9833 14.6 18.2C14.6 18.4166 14.5291 18.5958 14.3875 18.7375C14.2458 18.8791 14.0666 18.95 13.85 18.95H11.35ZM4.34998 8.44998C4.13331 8.44998 3.95414 8.37915 3.81248 8.23748C3.67081 8.09581 3.59998 7.91665 3.59998 7.69998C3.59998 7.48331 3.67081 7.30415 3.81248 7.16248C3.95414 7.02082 4.13331 6.94998 4.34998 6.94998H20.85C21.0666 6.94998 21.2458 7.02082 21.3875 7.16248C21.5291 7.30415 21.6 7.48331 21.6 7.69998C21.6 7.91665 21.5291 8.09581 21.3875 8.23748C21.2458 8.37915 21.0666 8.44998 20.85 8.44998H4.34998ZM7.34998 13.7C7.13331 13.7 6.95414 13.6291 6.81248 13.4875C6.67081 13.3458 6.59998 13.1666 6.59998 12.95C6.59998 12.7333 6.67081 12.5541 6.81248 12.4125C6.95414 12.2708 7.13331 12.2 7.34998 12.2H17.85C18.0666 12.2 18.2458 12.2708 18.3875 12.4125C18.5291 12.5541 18.6 12.7333 18.6 12.95C18.6 13.1666 18.5291 13.3458 18.3875 13.4875C18.2458 13.6291 18.0666 13.7 17.85 13.7H7.34998Z" fill="#000E50"/>
<path d="M24.6 5.44998C24.6 7.65912 22.8091 9.44998 20.6 9.44998C18.3908 9.44998 16.6 7.65912 16.6 5.44998C16.6 3.24084 18.3908 1.44998 20.6 1.44998C22.8091 1.44998 24.6 3.24084 24.6 5.44998Z" fill="#E9F1FD"/>
<path fill-rule="evenodd" clip-rule="evenodd" d="M26 5.44999C26 8.43233 23.5823 10.85 20.6 10.85C17.6176 10.85 15.2 8.43233 15.2 5.44999C15.2 2.46765 17.6176 0.0499878 20.6 0.0499878C23.5823 0.0499878 26 2.46765 26 5.44999ZM20.6 9.44999C22.8091 9.44999 24.6 7.65913 24.6 5.44999C24.6 3.24085 22.8091 1.44999 20.6 1.44999C18.3908 1.44999 16.6 3.24085 16.6 5.44999C16.6 7.65913 18.3908 9.44999 20.6 9.44999Z" fill="#000E50"/>
</svg>
