<svg width="34" height="35" viewBox="0 0 34 35" fill="none" xmlns="http://www.w3.org/2000/svg">
<path d="M10.8021 24.8647C10.5424 24.8647 10.3122 24.7614 10.1115 24.5548C9.91077 24.3482 9.81042 24.1112 9.81042 23.8438C9.81042 23.5522 9.91077 23.303 10.1115 23.0964C10.3122 22.8898 10.5424 22.7865 10.8021 22.7865C11.0854 22.7865 11.3215 22.8898 11.5104 23.0964C11.6993 23.303 11.7938 23.5522 11.7938 23.8438C11.7938 24.1112 11.6993 24.3482 11.5104 24.5548C11.3215 24.7614 11.0854 24.8647 10.8021 24.8647ZM17 24.8647C16.7167 24.8647 16.4806 24.7614 16.2917 24.5548C16.1028 24.3482 16.0083 24.1112 16.0083 23.8438C16.0083 23.5522 16.1028 23.303 16.2917 23.0964C16.4806 22.8898 16.7167 22.7865 17 22.7865C17.2833 22.7865 17.5195 22.8898 17.7083 23.0964C17.8972 23.303 17.9917 23.5522 17.9917 23.8438C17.9917 24.1112 17.8972 24.3482 17.7083 24.5548C17.5195 24.7614 17.2833 24.8647 17 24.8647ZM23.1979 24.8647C22.9146 24.8647 22.6785 24.7614 22.4896 24.5548C22.3007 24.3482 22.2063 24.1112 22.2063 23.8438C22.2063 23.5522 22.3007 23.303 22.4896 23.0964C22.6785 22.8898 22.9146 22.7865 23.1979 22.7865C23.4576 22.7865 23.6879 22.8898 23.8885 23.0964C24.0892 23.303 24.1896 23.5522 24.1896 23.8438C24.1896 24.1112 24.0892 24.3482 23.8885 24.5548C23.6879 24.7614 23.4576 24.8647 23.1979 24.8647ZM8.81876 19.323C8.53542 19.323 8.29341 19.2258 8.09271 19.0313C7.89202 18.8369 7.79167 18.5938 7.79167 18.3022V17.6459C7.79167 15.1911 8.60626 13.0643 10.2354 11.2657C11.8646 9.4671 13.8479 8.45842 16.1854 8.23967V5.94279C16.1854 5.69973 16.2622 5.49921 16.4156 5.34123C16.5691 5.18324 16.7639 5.10425 17 5.10425C17.2361 5.10425 17.4309 5.18324 17.5844 5.34123C17.7379 5.49921 17.8146 5.69973 17.8146 5.94279V8.23967C20.1521 8.45842 22.1354 9.4671 23.7646 11.2657C25.3938 13.0643 26.2083 15.1911 26.2083 17.6459V18.3022C26.2083 18.5938 26.108 18.8369 25.9073 19.0313C25.7066 19.2258 25.4646 19.323 25.1813 19.323H8.81876ZM9.38542 17.6824H24.6146C24.6146 15.5192 23.8708 13.672 22.3833 12.1407C20.8958 10.6095 19.1014 9.84383 17 9.84383C14.8986 9.84383 13.1042 10.6095 11.6167 12.1407C10.1292 13.672 9.38542 15.5192 9.38542 17.6824ZM10.8021 29.7865C10.5424 29.7865 10.3122 29.6832 10.1115 29.4766C9.91077 29.27 9.81042 29.0331 9.81042 28.7657C9.81042 28.474 9.91077 28.231 10.1115 28.0365C10.3122 27.8421 10.5424 27.7449 10.8021 27.7449C11.0854 27.7449 11.3215 27.8421 11.5104 28.0365C11.6993 28.231 11.7938 28.474 11.7938 28.7657C11.7938 29.0331 11.6993 29.27 11.5104 29.4766C11.3215 29.6832 11.0854 29.7865 10.8021 29.7865ZM17 29.7865C16.7167 29.7865 16.4806 29.6832 16.2917 29.4766C16.1028 29.27 16.0083 29.0331 16.0083 28.7657C16.0083 28.474 16.1028 28.231 16.2917 28.0365C16.4806 27.8421 16.7167 27.7449 17 27.7449C17.2833 27.7449 17.5195 27.8421 17.7083 28.0365C17.8972 28.231 17.9917 28.474 17.9917 28.7657C17.9917 29.0331 17.8972 29.27 17.7083 29.4766C17.5195 29.6832 17.2833 29.7865 17 29.7865ZM23.1979 29.7865C22.9146 29.7865 22.6785 29.6832 22.4896 29.4766C22.3007 29.27 22.2063 29.0331 22.2063 28.7657C22.2063 28.474 22.3007 28.231 22.4896 28.0365C22.6785 27.8421 22.9146 27.7449 23.1979 27.7449C23.4576 27.7449 23.6879 27.8421 23.8885 28.0365C24.0892 28.231 24.1896 28.474 24.1896 28.7657C24.1896 29.0331 24.0892 29.27 23.8885 29.4766C23.6879 29.6832 23.4576 29.7865 23.1979 29.7865Z" fill="#000E50"/>
</svg>
