<svg width="24" height="25" viewBox="0 0 24 25" fill="none" xmlns="http://www.w3.org/2000/svg">
<path d="M4.96643 11.1515C7.89505 7.66666 10.0025 5.68111 10.8727 2.5C15.3618 4.99772 20.8929 11.3567 20.4765 16.0826C20.1432 19.8654 17.3676 21.6971 13.9881 22.5C13.9881 22.5 16.1439 19.5346 16.5468 17.2813C16.914 13.587 14.2309 11.1672 12.9194 10.517C12.9194 10.517 13.7407 14.0002 11.9149 16.0092C10.8478 12.5355 8.39916 12.5141 8.39916 12.5141C9.40365 15.0106 7.1721 16.0699 6.92722 17.7908C6.42999 21.2851 8.98014 22.5 8.98014 22.5C2.35496 20.1629 2.71776 13.5012 4.96643 11.1515Z" stroke="#000E50" stroke-width="1.5" stroke-linejoin="round"/>
</svg>
