<svg width="51" height="29" viewBox="0 0 51 29" fill="none" xmlns="http://www.w3.org/2000/svg">
<g clip-path="url(#clip0_313_4887)">
<path d="M39.9665 9.78631C41.1331 10.348 42.062 11.1473 42.7533 12.1627C43.4446 13.178 43.7903 14.3446 43.7903 15.6192C43.7903 18.1252 42.9478 20.3503 41.2411 22.2946C39.556 24.2389 37.2877 25.7512 34.4793 26.8097C31.6708 27.8683 28.6247 28.4084 25.3626 28.4084C21.2148 28.4084 17.2182 27.9115 13.3296 26.9178C9.46259 25.924 6.26529 24.3902 3.7593 22.273C1.25332 20.1775 0.000323393 17.5419 0.000323532 14.3662C0.00032365 11.6658 0.95087 9.26783 2.85196 7.19391C4.75306 5.09839 7.17263 3.47814 10.1323 2.31156C13.9345 0.777719 18.2551 -1.41647e-06 23.1159 -1.204e-06C26.6588 -1.04913e-06 30.3098 0.410463 34.0688 1.25299C37.8278 2.07392 41.1979 3.54295 44.2224 5.66007C45.6914 6.71864 47.1388 8.18767 48.543 10.0456C49.9472 11.9034 50.6602 13.9126 50.6602 16.0945L49.5368 16.0945C49.5368 14.1502 48.8887 12.3139 47.5493 10.5856C46.2315 8.85737 44.8921 7.51796 43.5527 6.58902C40.6362 4.57991 37.3525 3.17569 33.7447 2.35476C30.1154 1.53384 26.5724 1.12337 23.1375 1.12337C18.4928 1.12337 14.2801 1.87949 10.5211 3.39172C7.73432 4.49349 5.46597 5.98412 3.7377 7.86361C2.00944 9.7431 1.1453 11.925 1.1453 14.4094C1.1453 17.3043 2.33348 19.7022 4.70985 21.6681C7.08622 23.6124 10.1107 25.0383 13.8049 25.9456C17.499 26.8529 21.366 27.3066 25.4059 27.3066C28.5167 27.3066 31.39 26.8097 34.0256 25.8376C36.6612 24.8654 38.7567 23.4828 40.3338 21.7114C41.8676 19.9615 42.6669 17.9092 42.6669 15.6192C42.6669 13.9342 42.0404 12.5731 40.809 11.5794C39.5776 10.564 38.0222 10.0672 36.1643 10.0672L36.1643 8.94378C37.5469 8.94378 38.8215 9.22463 39.9665 9.78631Z" fill="#C3B7FF"/>
</g>
<defs>
<clipPath id="clip0_313_4887">
<rect width="28.43" height="50.6598" fill="white" transform="translate(50.6602) rotate(90)"/>
</clipPath>
</defs>
</svg>
