<svg width="20" height="20" viewBox="0 0 20 20" fill="none" xmlns="http://www.w3.org/2000/svg">
<path fill-rule="evenodd" clip-rule="evenodd" d="M11.7067 0.000217493C11.5435 0.00550684 11.387 0.0660506 11.2627 0.171935C11.1384 0.27782 11.0537 0.422771 11.0225 0.583053C11.0043 0.675954 11.0046 0.771535 11.0233 0.864336C11.042 0.957138 11.0788 1.04534 11.1316 1.12391C11.1845 1.20248 11.2522 1.26988 11.3311 1.32225C11.41 1.37462 11.4984 1.41094 11.5913 1.42914C13.2724 1.76178 14.8168 2.58525 16.0286 3.79706C18.7882 6.55668 19.3587 10.8101 17.4237 14.1993C17.3766 14.2814 17.3461 14.372 17.3339 14.4659C17.3218 14.5597 17.3283 14.6551 17.353 14.7465C17.3777 14.8378 17.4201 14.9235 17.4779 14.9984C17.5357 15.0734 17.6077 15.1362 17.6898 15.1834C17.7719 15.2305 17.8625 15.261 17.9563 15.2732C18.0502 15.2853 18.1456 15.2789 18.2369 15.2542C18.3283 15.2295 18.4139 15.187 18.4889 15.1292C18.5639 15.0714 18.6267 14.9994 18.6739 14.9173C20.9276 10.9696 20.2593 5.98931 17.0451 2.775C15.6314 1.36131 13.8298 0.402338 11.8686 0.0142907C11.8154 0.00352338 11.761 -0.00122096 11.7067 0.000217493ZM7.50729 0.121297C7.4655 0.124254 7.42405 0.130848 7.3834 0.141005C5.64032 0.592151 4.04887 1.50183 2.77572 2.775C1.50291 4.04783 0.593021 5.64019 0.141751 7.38274C0.0937691 7.56756 0.121075 7.76385 0.217676 7.92855C0.314277 8.09325 0.472279 8.21289 0.657 8.26121C0.842002 8.30915 1.03847 8.28165 1.2032 8.18476C1.36793 8.08787 1.48744 7.92953 1.53546 7.74455C1.92228 6.25086 2.70533 4.88811 3.79636 3.79707C4.88769 2.70573 6.25107 1.92708 7.7452 1.54036C7.92961 1.49202 8.08736 1.3726 8.18393 1.20823C8.2805 1.04385 8.30801 0.847915 8.26046 0.663301C8.21883 0.498731 8.12047 0.354131 7.98269 0.254978C7.8449 0.155826 7.67655 0.108489 7.50729 0.121297ZM10.0005 3.29167C6.3035 3.29167 3.29098 6.30424 3.29098 10.0013C3.29098 13.6983 6.3035 16.7109 10.0005 16.7109C13.6975 16.7109 16.71 13.6983 16.71 10.0013C16.71 6.30424 13.6975 3.29167 10.0005 3.29167ZM10.0005 4.73326C12.9184 4.73326 15.2684 7.08333 15.2684 10.0013C15.2684 12.9192 12.9184 15.2679 10.0005 15.2679C7.08259 15.2679 4.73255 12.9192 4.73255 10.0013C4.73255 7.08333 7.08259 4.73326 10.0005 4.73326ZM0.737249 11.0149C0.683913 11.0132 0.630556 11.0175 0.57816 11.0276C0.391309 11.0653 0.227009 11.1755 0.121211 11.3341C0.0154141 11.4926 -0.0232643 11.6866 0.0136401 11.8737C0.401847 13.8344 1.36236 15.6326 2.77572 17.0459C5.98999 20.2602 10.9646 20.9271 14.9122 18.6734C15.0772 18.5789 15.1982 18.423 15.2488 18.2398C15.2994 18.0565 15.2756 17.8607 15.1825 17.6949C15.1359 17.6124 15.0734 17.5398 14.9986 17.4815C14.9239 17.4231 14.8383 17.3801 14.7469 17.3548C14.6555 17.3296 14.56 17.3227 14.4659 17.3344C14.3718 17.3461 14.2809 17.3763 14.1985 17.4232C10.8093 19.3582 6.55594 18.7891 3.79636 16.0295C2.58482 14.8179 1.75702 13.2729 1.42424 11.5921C1.39184 11.4324 1.30627 11.2884 1.18151 11.1836C1.05674 11.0787 0.900145 11.0193 0.737249 11.0149Z" fill="#000E50"/>
</svg>
