<svg width="24" height="24" viewBox="0 0 24 24" fill="none" xmlns="http://www.w3.org/2000/svg">
<path d="M5.39849 11.3056C6.16277 10.3806 6.35133 9.75557 6.27276 9.48057C6.21276 9.27362 5.92563 9.16668 5.92563 9.16668C5.66693 9.08402 5.4471 8.91428 5.30571 8.68802C5.16432 8.46176 5.11068 8.19385 5.15444 7.93255C5.1982 7.67125 5.33649 7.43372 5.5444 7.26276C5.75231 7.09179 6.01618 6.99861 6.28848 7.00002C6.40374 7.00015 6.51833 7.017 6.62847 7.05002C6.77133 7.09307 8.04417 7.51251 8.45559 8.82223C8.80701 9.94307 8.37702 11.2458 7.17847 12.6958C6.41419 13.6208 6.22562 14.2458 6.30419 14.5208C6.36419 14.7278 6.64276 14.8319 6.64562 14.8333C6.90383 14.9159 7.12334 15.0851 7.26475 15.3108C7.40617 15.5365 7.46022 15.8038 7.41721 16.0647C7.3742 16.3256 7.23694 16.5631 7.03008 16.7345C6.82321 16.9059 6.56028 17.0001 6.28848 17C6.17322 16.9999 6.05863 16.983 5.94848 16.95C5.80563 16.9069 4.53279 16.4875 4.12137 15.1778C3.76994 14.0569 4.19994 12.7542 5.39849 11.3056ZM11.1127 11.3056C11.877 10.3806 12.0655 9.75557 11.987 9.48057C11.927 9.27362 11.6398 9.16668 11.6398 9.16668C11.3811 9.08402 11.1613 8.91428 11.0199 8.68802C10.8785 8.46176 10.8249 8.19385 10.8686 7.93255C10.9124 7.67125 11.0507 7.43372 11.2586 7.26276C11.4665 7.09179 11.7304 6.99861 12.0027 7.00002C12.1179 7.00015 12.2325 7.017 12.3427 7.05002C12.4855 7.09307 13.7584 7.51251 14.1698 8.82223C14.5212 9.94307 14.0912 11.2458 12.8927 12.6958C12.1284 13.6208 11.9398 14.2458 12.0184 14.5208C12.0784 14.7278 12.357 14.8319 12.3598 14.8333C12.618 14.9159 12.8375 15.0851 12.979 15.3108C13.1204 15.5365 13.1744 15.8038 13.1314 16.0647C13.0884 16.3256 12.9511 16.5631 12.7443 16.7345C12.5374 16.9059 12.2745 17.0001 12.0027 17C11.8874 16.9999 11.7728 16.983 11.6627 16.95C11.5198 16.9069 10.247 16.4875 9.83557 15.1778C9.48415 14.0569 9.91414 12.7542 11.1127 11.3056ZM16.8269 11.3056C17.5912 10.3806 17.7797 9.75557 17.7012 9.48057C17.6412 9.27362 17.354 9.16668 17.354 9.16668C17.0953 9.08402 16.8755 8.91428 16.7341 8.68802C16.5927 8.46176 16.5391 8.19385 16.5829 7.93255C16.6266 7.67125 16.7649 7.43372 16.9728 7.26276C17.1807 7.09179 17.4446 6.99861 17.7169 7.00002C17.8322 7.00015 17.9467 7.017 18.0569 7.05002C18.1997 7.09307 19.4726 7.51251 19.884 8.82223C20.2354 9.94307 19.8054 11.2458 18.6069 12.6958C17.8426 13.6208 17.654 14.2458 17.7326 14.5208C17.7926 14.7278 18.0712 14.8319 18.074 14.8333C18.3322 14.9159 18.5518 15.0851 18.6932 15.3108C18.8346 15.5365 18.8886 15.8038 18.8456 16.0647C18.8026 16.3256 18.6654 16.5631 18.4585 16.7345C18.2516 16.9059 17.9887 17.0001 17.7169 17C17.6016 16.9999 17.487 16.983 17.3769 16.95C17.234 16.9069 15.9612 16.4875 15.5498 15.1778C15.1984 14.0569 15.6283 12.7542 16.8269 11.3056Z" fill="#000E50"/>
</svg>
