<svg width="24" height="24" viewBox="0 0 24 24" fill="none" xmlns="http://www.w3.org/2000/svg">
<path d="M19.6839 2.39996H4.32393C3.26354 2.39996 2.40393 3.25958 2.40393 4.31996V19.68C2.40393 20.7404 3.26354 21.6 4.32393 21.6H19.6839C20.7443 21.6 21.6039 20.7404 21.6039 19.68V4.31996C21.6039 3.25958 20.7443 2.39996 19.6839 2.39996Z" stroke="#000E50" stroke-width="1.44" stroke-linejoin="round"/>
<path d="M6.2439 18.72H10.0839" stroke="#000E50" stroke-width="1.44" stroke-linecap="round" stroke-linejoin="round"/>
<path d="M12.0039 13.92C14.1247 13.92 15.8439 12.2007 15.8439 10.08C15.8439 7.95922 14.1247 6.23999 12.0039 6.23999C9.8832 6.23999 8.16394 7.95922 8.16394 10.08C8.16394 12.2007 9.8832 13.92 12.0039 13.92Z" stroke="#000E50" stroke-width="1.44" stroke-linecap="round" stroke-linejoin="round"/>
<path d="M15.3639 10.08H16.8039M12.0039 13.44V14.88M8.64386 10.08H7.20386M12.0039 6.71997V5.27997" stroke="#000E50" stroke-width="1.44" stroke-linecap="round"/>
</svg>
