<svg width="20" height="20" viewBox="0 0 20 20" fill="none" xmlns="http://www.w3.org/2000/svg">
<path fill-rule="evenodd" clip-rule="evenodd" d="M12.6869 9.99999L5.94761 16.7393C5.82633 16.8605 5.77083 16.9955 5.77083 17.1562C5.77083 17.317 5.82633 17.4519 5.94761 17.5732C6.04892 17.6745 6.17759 17.7292 6.35417 17.7292C6.53075 17.7292 6.65941 17.6745 6.76072 17.5732L14.0732 10.2607C14.1259 10.2081 14.1518 10.1661 14.1637 10.1363C14.1784 10.0996 14.1875 10.0551 14.1875 9.99999C14.1875 9.94484 14.1784 9.9004 14.1637 9.86367C14.1518 9.83384 14.1259 9.79191 14.0732 9.73927L6.76072 2.42677C6.65789 2.32394 6.53191 2.27082 6.36458 2.27082C6.20381 2.27082 6.06889 2.32632 5.94761 2.4476C5.83933 2.55588 5.78056 2.68545 5.77035 2.84892C5.76161 2.98868 5.80953 3.12263 5.94761 3.26071L12.6869 9.99999Z" fill="#000E50"/>
</svg>
