<svg width="16" height="17" viewBox="0 0 16 17" fill="none" xmlns="http://www.w3.org/2000/svg">
<path d="M7.93301 15.1666C6.99967 15.1555 6.13023 14.9777 5.32467 14.6333C4.51912 14.2888 3.8219 13.8166 3.23301 13.2166C2.64412 12.6166 2.18023 11.9138 1.84134 11.1083C1.50245 10.3027 1.33301 9.43325 1.33301 8.49992C1.33301 7.55547 1.50523 6.6777 1.84967 5.86659C2.19412 5.05547 2.66634 4.34992 3.26634 3.74992C3.86634 3.14992 4.5719 2.68047 5.38301 2.34159C6.19412 2.0027 7.06634 1.83325 7.99967 1.83325C8.66634 1.83325 9.3219 1.93047 9.96634 2.12492C10.6108 2.31936 11.233 2.61103 11.833 2.99992C11.9552 3.0777 12.0247 3.18325 12.0413 3.31659C12.058 3.44992 12.0219 3.57214 11.933 3.68325C11.8441 3.79436 11.733 3.86103 11.5997 3.88325C11.4663 3.90547 11.3386 3.8777 11.2163 3.79992C10.7163 3.4777 10.1969 3.23603 9.65801 3.07492C9.11912 2.91381 8.56634 2.83325 7.99967 2.83325C6.38856 2.83325 5.04134 3.37492 3.95801 4.45825C2.87467 5.54159 2.33301 6.88881 2.33301 8.49992C2.33301 10.111 2.87467 11.4583 3.95801 12.5416C5.04134 13.6249 6.38856 14.1666 7.99967 14.1666C8.43301 14.1666 8.86079 14.1221 9.28301 14.0333C9.70523 13.9444 10.1108 13.8055 10.4997 13.6166C10.633 13.561 10.7663 13.5444 10.8997 13.5666C11.033 13.5888 11.1386 13.6555 11.2163 13.7666C11.3052 13.8888 11.333 14.0194 11.2997 14.1583C11.2663 14.2971 11.1886 14.3944 11.0663 14.4499C10.5775 14.6944 10.0719 14.8749 9.54967 14.9916C9.02745 15.1083 8.48856 15.1666 7.93301 15.1666ZM6.66634 11.1833L4.63301 9.13325C4.53301 9.03325 4.48301 8.91103 4.48301 8.76659C4.48301 8.62214 4.53856 8.49436 4.64967 8.38325C4.74967 8.28325 4.87467 8.23047 5.02467 8.22492C5.17467 8.21936 5.29967 8.27214 5.39967 8.38325L7.01634 10.0166L13.5497 3.48325C13.6497 3.38325 13.7719 3.33047 13.9163 3.32492C14.0608 3.31936 14.1886 3.37214 14.2997 3.48325C14.4108 3.59436 14.4663 3.72214 14.4663 3.86659C14.4663 4.01103 14.4108 4.13881 14.2997 4.24992L7.36634 11.1833C7.26634 11.2833 7.1469 11.3333 7.00801 11.3333C6.86912 11.3333 6.75523 11.2833 6.66634 11.1833ZM13.333 13.6666C13.1886 13.6666 13.0691 13.6194 12.9747 13.5249C12.8802 13.4305 12.833 13.311 12.833 13.1666V11.6666H11.333C11.1886 11.6666 11.0691 11.6194 10.9747 11.5249C10.8802 11.4305 10.833 11.311 10.833 11.1666C10.833 11.0221 10.8802 10.9027 10.9747 10.8083C11.0691 10.7138 11.1886 10.6666 11.333 10.6666H12.833V9.16659C12.833 9.02214 12.8802 8.9027 12.9747 8.80825C13.0691 8.71381 13.1886 8.66659 13.333 8.66659C13.4775 8.66659 13.5969 8.71381 13.6913 8.80825C13.7858 8.9027 13.833 9.02214 13.833 9.16659V10.6666H15.333C15.4775 10.6666 15.5969 10.7138 15.6913 10.8083C15.7858 10.9027 15.833 11.0221 15.833 11.1666C15.833 11.311 15.7858 11.4305 15.6913 11.5249C15.5969 11.6194 15.4775 11.6666 15.333 11.6666H13.833V13.1666C13.833 13.311 13.7858 13.4305 13.6913 13.5249C13.5969 13.6194 13.4775 13.6666 13.333 13.6666Z" fill="#666E96"/>
</svg>
