<svg width="29" height="34" viewBox="0 0 29 34" fill="none" xmlns="http://www.w3.org/2000/svg">
<path d="M1 20.3846V8.61959C1 8.00215 1.33629 7.42701 1.87265 7.11407L12.1274 1.23154C12.668 0.922821 13.3363 0.922821 13.8726 1.23154L24.1274 7.11407C24.668 7.42278 25 7.99793 25 8.61959V20.3846C25 21.0021 24.6637 21.5772 24.1274 21.8859L13.8726 27.7685C13.332 28.0772 12.6637 28.0772 12.1274 27.7685L1.87265 21.8859C1.33203 21.5772 1 21.0021 1 20.3804V20.3846ZM24.1571 8.61959C24.1571 8.30241 23.9869 8.00638 23.7102 7.84991L13.4555 1.96738C13.1788 1.80668 12.834 1.80668 12.5615 1.96738L2.30685 7.84991C2.03015 8.01061 1.85988 8.30241 1.85988 8.61959V20.3846C1.85988 20.7018 2.03015 20.9978 2.30685 21.1543L12.5615 27.0368C12.8382 27.1975 13.183 27.1975 13.4555 27.0368L23.7102 21.1543C23.9869 20.9978 24.1571 20.7018 24.1571 20.3846V8.61959Z" fill="#000E50" stroke="#000E50" stroke-width="0.5"/>
<path d="M3 25.1026V12.9018C3 12.2615 3.3503 11.665 3.90901 11.3405L14.591 5.24011C15.1541 4.91996 15.8503 4.91996 16.409 5.24011L27.091 11.3405C27.6541 11.6607 28 12.2571 28 12.9018V25.1026C28 25.7429 27.6497 26.3393 27.091 26.6595L16.409 32.7599C15.8459 33.08 15.1497 33.08 14.591 32.7599L3.90901 26.6595C3.34587 26.3393 3 25.7429 3 25.0982V25.1026ZM27.122 12.9018C27.122 12.5729 26.9447 12.2659 26.6564 12.1036L15.9745 6.00321C15.6862 5.83656 15.3271 5.83656 15.0433 6.00321L4.3613 12.1036C4.07308 12.2703 3.89571 12.5729 3.89571 12.9018V25.1026C3.89571 25.4315 4.07308 25.7385 4.3613 25.9008L15.0433 32.0012C15.3315 32.1678 15.6907 32.1678 15.9745 32.0012L26.6564 25.9008C26.9447 25.7385 27.122 25.4315 27.122 25.1026V12.9018Z" fill="#2A46BE" stroke="#000E50" stroke-width="0.5"/>
</svg>