<svg width="18" height="18" viewBox="0 0 18 18" fill="none" xmlns="http://www.w3.org/2000/svg">
<path transform="rotate(90,8,9.8)" d="M 11.1 16.2 H 5 C 4.7 16.2 4.4 16 4.2 15.7 L 1.1 10.3 C 1 10 1 9.7 1.1 9.4 L 4.2 4 C 4.4 3.7 4.7 3.5 5 3.5 H 11.1 C 11.4 3.5 11.7 3.7 11.9 4 L 15 9.4 C 15.1 9.7 15.1 10 15 10.3 L 11.9 15.7 C 11.7 16 11.4 16.2 11.1 16.2 H 11.1 Z M 5 3.9 C 4.8 3.9 4.7 4 4.6 4.2 L 1.5 9.6 C 1.4 9.7 1.4 9.9 1.5 10.1 L 4.6 15.5 C 4.7 15.6 4.8 15.7 5 15.7 H 11.1 C 11.3 15.7 11.4 15.6 11.5 15.5 L 14.6 10.1 C 14.7 9.9 14.7 9.7 14.6 9.6 L 11.5 4.2 C 11.4 4 11.3 3.9 11.1 3.9 H 5 Z" fill="#000E50" stroke="#000E50" stroke-width="0.5"/>
<path d="M 4 16.9 L 4.5 17 C 6 14 7.8 11.2 9.9 8.5 C 12 5.9 14.4 3.5 17 1.4 L 16.7 1 C 14.2 3 11.9 5.4 9.8 7.9 C 7.8 10.4 6 13.2 4.4 16.1 L 4.4 16.2 L 4.4 16.1 C 4.3 15.1 4.2 13.2 4 11.4 C 4 10.3 3.9 9.4 3.8 8.8 L 3.4 8.8 C 3.4 9.7 3.5 11.1 3.7 12.5 C 3.8 14.2 3.9 16 4 16.9 Z" fill="#000E50" stroke="#000E50" stroke-width="0.5"/>
</svg>