<svg width="24" height="25" viewBox="0 0 24 25" fill="none" xmlns="http://www.w3.org/2000/svg">
<path d="M16.9804 11.7331C16.8894 11.6895 16.7976 11.6478 16.705 11.608C16.5429 8.62134 14.9109 6.91148 12.1706 6.89398H12.1334C10.4943 6.89398 9.13118 7.59355 8.29216 8.86667L9.79924 9.90048C10.426 8.94947 11.4097 8.7468 12.1342 8.7468H12.1592C13.0615 8.75259 13.7423 9.01498 14.183 9.52653C14.5037 9.89895 14.7182 10.4137 14.8244 11.0632C14.0244 10.9273 13.1592 10.8854 12.2344 10.9386C9.62905 11.0885 7.95408 12.6081 8.06663 14.7194C8.12372 15.7904 8.65726 16.7118 9.5689 17.3137C10.3397 17.8225 11.3325 18.0713 12.3642 18.015C13.7268 17.9403 14.7957 17.4205 15.5414 16.4699C16.1078 15.748 16.466 14.8125 16.6241 13.6338C17.2735 14.0257 17.7547 14.5414 18.0205 15.1613C18.4725 16.2151 18.4988 17.9469 17.0858 19.3587C15.8478 20.5955 14.3596 21.1306 12.1106 21.1471C9.61582 21.1286 7.72899 20.3285 6.50235 18.769C5.35369 17.3088 4.76001 15.1996 4.7378 12.5C4.76001 9.80041 5.35358 7.69122 6.50235 6.23095C7.7291 4.67148 9.61582 3.87141 12.1106 3.85281C14.6234 3.87141 16.5431 4.67531 17.8168 6.24233C18.4413 7.0108 18.9121 7.97702 19.2226 9.1038L20.9886 8.63261C20.6124 7.24573 20.0203 6.0507 19.2147 5.05955C17.5818 3.05077 15.1937 2.02133 12.1168 2H12.1044C9.03372 2.02122 6.67232 3.05459 5.08594 5.07125C3.67435 6.86555 2.94613 9.36258 2.92174 12.4926L2.92163 12.5V12.5073C2.94613 15.6373 3.67435 18.1343 5.08594 19.9289C6.67232 21.9454 9.03372 22.9788 12.1044 23H12.1168C14.8468 22.9811 16.7711 22.2663 18.3564 20.6825C20.4305 18.6103 20.368 16.013 19.6844 14.4185C19.194 13.2751 18.259 12.3464 16.9804 11.7331ZM12.2666 16.1648C11.1248 16.2291 9.93848 15.7166 9.88007 14.6188C9.83665 13.8048 10.4593 12.8966 12.3367 12.7884C12.5518 12.776 12.7628 12.7699 12.97 12.7699C13.652 12.7699 14.29 12.8362 14.87 12.963C14.6536 15.6648 13.3847 16.1035 12.2666 16.1648Z" fill="black"/>
</svg>
