<svg width="17" height="16" viewBox="0 0 17 16" fill="none" xmlns="http://www.w3.org/2000/svg">
<path transform="matrix(0,1,-1,0,16.9,0.8)" d="M 11.1 15.2 H 5 C 4.7 15.2 4.4 15 4.2 14.7 L 1.1 9.3 C 1 9 1 8.7 1.1 8.4 L 4.2 3 C 4.4 2.7 4.7 2.5 5 2.5 H 11.1 C 11.4 2.5 11.7 2.7 11.9 3 L 15 8.4 C 15.1 8.7 15.1 9 15 9.3 L 11.9 14.7 C 11.7 15 11.4 15.2 11.1 15.2 H 11.1 Z M 5 2.9 C 4.8 2.9 4.7 3 4.6 3.2 L 1.5 8.6 C 1.4 8.7 1.4 8.9 1.5 9.1 L 4.6 14.5 C 4.7 14.6 4.8 14.7 5 14.7 H 11.1 C 11.3 14.7 11.4 14.6 11.5 14.5 L 14.6 9.1 C 14.7 8.9 14.7 8.7 14.6 8.6 L 11.5 3.2 C 11.4 3 11.3 2.9 11.1 2.9 H 5 Z" fill="#2a46be" stroke="#2a46be" stroke-width="0.5"/>
</svg>
