<svg width="24" height="25" viewBox="0 0 24 25" fill="none" xmlns="http://www.w3.org/2000/svg">
<path d="M15.0013 18.1V8.5C15.0013 5.1863 12.315 2.5 9.00134 2.5C5.68764 2.5 3.00134 5.1863 3.00134 8.5V18.1C3.00134 19.4255 4.07586 20.5 5.40134 20.5H12.6013C13.9269 20.5 15.0013 19.4255 15.0013 18.1Z" stroke="#000E50" stroke-width="1.5" stroke-linecap="round" stroke-linejoin="round"/>
<path d="M18.0013 20.5C18.0013 19.3954 18.8967 18.5 20.0013 18.5C21.1059 18.5 22.0013 19.3954 22.0013 20.5" fill="#000E50"/>
<path d="M18.0013 20.5C18.0013 19.3954 18.8967 18.5 20.0013 18.5C21.1059 18.5 22.0013 19.3954 22.0013 20.5H18.0013Z" stroke="#000E50" stroke-linecap="round" stroke-linejoin="round"/>
<path d="M20.0013 18.5V9.5C20.0013 8.3954 19.1059 7.5 18.0013 7.5H10.7513H8.50134" stroke="#000E50" stroke-width="1.5" stroke-linecap="round" stroke-linejoin="round"/>
<path d="M15.0013 11.5H5.25134H3.00134" stroke="#000E50" stroke-width="1.5" stroke-linecap="round" stroke-linejoin="round"/>
<path d="M10.0013 7.5C10.0013 8.05229 9.55363 8.5 9.00134 8.5C8.44905 8.5 8.00134 8.05229 8.00134 7.5C8.00134 6.94772 8.44905 6.5 9.00134 6.5C9.55363 6.5 10.0013 6.94772 10.0013 7.5Z" stroke="#000E50" stroke-width="1.2" stroke-linecap="round" stroke-linejoin="round"/>
<path d="M10.8195 14.5H7.18316C7.08275 14.5 7.00134 14.5672 7.00134 14.65V17.35C7.00134 17.4328 7.08275 17.5 7.18316 17.5H10.8195C10.9199 17.5 11.0013 17.4328 11.0013 17.35V14.65C11.0013 14.5672 10.9199 14.5 10.8195 14.5Z" stroke="#000E50" stroke-width="1.5" stroke-linejoin="round"/>
<path d="M6.00134 21.5V21.6" stroke="#000E50" stroke-width="2" stroke-linecap="round" stroke-linejoin="round"/>
<path d="M12.0013 21.5V21.6" stroke="#000E50" stroke-width="2" stroke-linecap="round" stroke-linejoin="round"/>
</svg>
