<svg width="28" height="28" viewBox="0 0 28 28" fill="none" xmlns="http://www.w3.org/2000/svg">
<path d="M5.25 13.125C4.78333 13.125 4.375 12.95 4.025 12.6C3.675 12.25 3.5 11.8417 3.5 11.375V5.25C3.5 4.78333 3.675 4.375 4.025 4.025C4.375 3.675 4.78333 3.5 5.25 3.5H22.75C23.2167 3.5 23.625 3.675 23.975 4.025C24.325 4.375 24.5 4.78333 24.5 5.25V11.375C24.5 11.8417 24.325 12.25 23.975 12.6C23.625 12.95 23.2167 13.125 22.75 13.125H5.25ZM5.25 11.375H22.75V5.25H5.25V11.375ZM5.25 24.5C4.78333 24.5 4.375 24.325 4.025 23.975C3.675 23.625 3.5 23.2167 3.5 22.75V16.625C3.5 16.1583 3.675 15.75 4.025 15.4C4.375 15.05 4.78333 14.875 5.25 14.875H22.75C23.2167 14.875 23.625 15.05 23.975 15.4C24.325 15.75 24.5 16.1583 24.5 16.625V22.75C24.5 23.2167 24.325 23.625 23.975 23.975C23.625 24.325 23.2167 24.5 22.75 24.5H5.25ZM5.25 22.75H22.75V16.625H5.25V22.75ZM5.25 5.25V11.375V5.25ZM5.25 16.625V22.75V16.625Z" fill="#000E50"/>
</svg>
