<svg width="24" height="25" viewBox="0 0 24 25" fill="none" xmlns="http://www.w3.org/2000/svg">
<path d="M6.00391 5.5H10.0039" stroke="#000E50" stroke-width="1.5" stroke-linecap="round"/>
<path d="M3.00391 8.5H21.0039" stroke="#000E50" stroke-width="1.5"/>
<path d="M2.00391 22.5H22.0039" stroke="#000E50" stroke-width="1.5" stroke-linecap="round"/>
<path d="M21.0039 22.5V4.5C21.0039 3.39543 20.1085 2.5 19.0039 2.5H5.00391C3.89934 2.5 3.00391 3.39543 3.00391 4.5V22.5" stroke="#000E50" stroke-width="1.5" stroke-linejoin="round"/>
<path d="M14.2539 16.5007C14.2539 17.7428 13.2467 18.75 12.0039 18.75C10.7611 18.75 9.75391 17.7428 9.75391 16.5007C9.75391 15.798 10.1535 15.0908 10.732 14.4536C11.1755 13.9651 11.6692 13.5785 12.0039 13.3414C12.3386 13.5785 12.8323 13.9651 13.2758 14.4536C13.8543 15.0908 14.2539 15.798 14.2539 16.5007ZM11.7677 13.1803L11.7678 13.1804L11.7677 13.1803Z" stroke="#000E50" stroke-width="1.5" stroke-linecap="round" stroke-linejoin="round"/>
</svg>
