<svg width="24" height="24" viewBox="0 0 24 24" fill="none" xmlns="http://www.w3.org/2000/svg">
<path d="M4.96508 10.6515C7.8937 7.16666 10.0012 5.18111 10.8714 2C15.3605 4.49772 20.8916 10.8567 20.4752 15.5826C20.1419 19.3654 17.3663 21.1971 13.9868 22C13.9868 22 16.1426 19.0346 16.5455 16.7813C16.9127 13.087 14.2296 10.6672 12.9181 10.017C12.9181 10.017 13.7394 13.5002 11.9136 15.5092C10.8465 12.0355 8.39781 12.0141 8.39781 12.0141C9.4023 14.5106 7.17075 15.5699 6.92587 17.2908C6.42864 20.7851 8.97879 22 8.97879 22C2.35361 19.6629 2.71641 13.0012 4.96508 10.6515Z" stroke="#000E50" stroke-width="1.5" stroke-linejoin="round"/>
</svg>
