<svg width="30" height="30" viewBox="0 0 30 30" fill="none" xmlns="http://www.w3.org/2000/svg">
<path fill-rule="evenodd" clip-rule="evenodd" d="M25.9105 6.02621C27.9227 8.46863 29.1329 11.5956 29.1329 15C29.1329 18.4045 27.9227 21.5314 25.9101 23.9735C25.6665 24.2694 25.4089 24.5529 25.1435 24.8268C22.5731 27.4793 18.9769 29.1334 14.9995 29.1334C11.0222 29.1334 7.42603 27.4793 4.85526 24.8272C4.59031 24.553 4.33265 24.2698 4.08866 23.9739C2.07642 21.5315 0.866211 18.4045 0.866211 15C0.866211 11.5956 2.07639 8.46862 4.08904 6.02658C4.33263 5.73062 4.59017 5.44717 4.85562 5.17322C7.42602 2.52075 11.0222 0.866699 14.9995 0.866699C18.9769 0.866699 22.5731 2.52075 25.1438 5.17282C25.4088 5.44704 25.6665 5.73025 25.9105 6.02621ZM10.456 3.12676C9.50475 4.16427 8.68819 5.51494 8.05635 7.08958C7.33832 6.76128 6.67017 6.38426 6.06307 5.9648C7.30451 4.73683 8.79729 3.76334 10.456 3.12676ZM5.11326 7.01131C3.48359 9.02425 2.45653 11.543 2.30493 14.2914H6.63194C6.69355 12.1815 7.02889 10.1907 7.58188 8.42119C6.68855 8.01844 5.8607 7.54475 5.11326 7.01131ZM14.2909 8.52284C12.5213 8.45438 10.8488 8.13116 9.34426 7.60608C10.4918 4.69204 12.2805 2.72977 14.2909 2.35372V8.52284ZM15.7082 8.52322C17.4777 8.45475 19.15 8.1312 20.6548 7.60643C19.5073 4.69237 17.7186 2.72979 15.7082 2.35408V8.52322ZM23.936 5.9648C23.3289 6.38428 22.6611 6.76131 21.9428 7.08961C21.311 5.51504 20.4944 4.16414 19.5432 3.12682C21.2019 3.7634 22.6946 4.73687 23.936 5.9648ZM8.04873 14.2914H14.2909V9.94024C12.3628 9.87054 10.5356 9.51855 8.88435 8.93921C8.40344 10.5462 8.10714 12.3615 8.04873 14.2914ZM15.7082 14.2914V9.94024C17.6362 9.87054 19.4635 9.51856 21.1147 8.93922C21.5953 10.5462 21.8919 12.3615 21.9504 14.2914H15.7082ZM27.6942 14.2914C27.5426 11.543 26.5155 9.02427 24.8862 7.01132C24.1388 7.54475 23.3109 8.01845 22.4176 8.4212C22.9702 10.1907 23.3055 12.1815 23.3675 14.2914H27.6942ZM24.8855 22.9887C24.1383 22.4553 23.3105 21.9816 22.4172 21.5789C22.9702 19.8093 23.3055 17.8185 23.3671 15.7087H27.6938C27.5422 18.457 26.5151 20.9758 24.8855 22.9887ZM21.9504 15.7087H15.7082V20.0598C17.6363 20.1295 19.4635 20.4815 21.1147 21.0609C21.5956 19.4539 21.892 17.6386 21.9504 15.7087ZM14.2909 15.7087V20.0598C12.3628 20.1295 10.5356 20.4815 8.88438 21.0608C8.40379 19.4538 8.10715 17.6386 8.04873 15.7087H14.2909ZM7.58151 21.5789C7.02888 19.8093 6.69354 17.8185 6.63158 15.7087H2.30493C2.45653 18.457 3.48357 20.9758 5.11289 22.9888C5.86033 22.4553 6.68818 21.9816 7.58151 21.5789ZM10.4559 26.8732C8.79719 26.2367 7.30448 25.2632 6.06307 24.0353C6.67016 23.6158 7.33804 23.2388 8.05634 22.9105C8.68814 24.485 9.50465 25.8359 10.4559 26.8732ZM14.2909 21.4768C12.5214 21.5453 10.8491 21.8689 9.34427 22.3936C10.4918 25.3077 12.2805 27.2703 14.2909 27.646V21.4768ZM15.7082 21.4772C17.4777 21.5457 19.1503 21.8689 20.6548 22.394C19.5073 25.3077 17.7186 27.2703 15.7082 27.646V21.4772ZM19.5431 26.8733C21.2018 26.2367 22.6946 25.2632 23.936 24.0353C23.3289 23.6158 22.6608 23.2388 21.9427 22.9105C21.3109 24.4851 20.4943 25.8358 19.5431 26.8733Z" fill="#000E50"/>
</svg>
