<svg width="24" height="24" viewBox="0 0 24 24" fill="none" xmlns="http://www.w3.org/2000/svg">
<path d="M16.975 12.05C16.875 12.05 16.7833 12.0333 16.7 12C16.6167 11.9667 16.5333 11.9083 16.45 11.825L12.175 7.55C12.0917 7.46667 12.0333 7.38333 12 7.3C11.9667 7.21667 11.95 7.125 11.95 7.025C11.95 6.925 11.9667 6.83333 12 6.75C12.0333 6.66667 12.0917 6.58333 12.175 6.5L16.45 2.225C16.5333 2.14167 16.6167 2.08333 16.7 2.05C16.7833 2.01667 16.875 2 16.975 2C17.075 2 17.1667 2.01667 17.25 2.05C17.3333 2.08333 17.4167 2.14167 17.5 2.225L21.775 6.5C21.8583 6.58333 21.9167 6.66667 21.95 6.75C21.9833 6.83333 22 6.925 22 7.025C22 7.125 21.9833 7.21667 21.95 7.3C21.9167 7.38333 21.8583 7.46667 21.775 7.55L17.5 11.825C17.4167 11.9083 17.3333 11.9667 17.25 12C17.1667 12.0333 17.075 12.05 16.975 12.05ZM3.75 10.55C3.53333 10.55 3.35417 10.4792 3.2125 10.3375C3.07083 10.1958 3 10.0167 3 9.8V3.775C3 3.55833 3.07083 3.37917 3.2125 3.2375C3.35417 3.09583 3.53333 3.025 3.75 3.025H9.775C9.99167 3.025 10.1708 3.09583 10.3125 3.2375C10.4542 3.37917 10.525 3.55833 10.525 3.775V9.8C10.525 10.0167 10.4542 10.1958 10.3125 10.3375C10.1708 10.4792 9.99167 10.55 9.775 10.55H3.75ZM14.2 21C13.9833 21 13.8042 20.9292 13.6625 20.7875C13.5208 20.6458 13.45 20.4667 13.45 20.25V14.225C13.45 14.0083 13.5208 13.8292 13.6625 13.6875C13.8042 13.5458 13.9833 13.475 14.2 13.475H20.225C20.4417 13.475 20.6208 13.5458 20.7625 13.6875C20.9042 13.8292 20.975 14.0083 20.975 14.225V20.25C20.975 20.4667 20.9042 20.6458 20.7625 20.7875C20.6208 20.9292 20.4417 21 20.225 21H14.2ZM3.75 21C3.53333 21 3.35417 20.9292 3.2125 20.7875C3.07083 20.6458 3 20.4667 3 20.25V14.225C3 14.0083 3.07083 13.8292 3.2125 13.6875C3.35417 13.5458 3.53333 13.475 3.75 13.475H9.775C9.99167 13.475 10.1708 13.5458 10.3125 13.6875C10.4542 13.8292 10.525 14.0083 10.525 14.225V20.25C10.525 20.4667 10.4542 20.6458 10.3125 20.7875C10.1708 20.9292 9.99167 21 9.775 21H3.75ZM4.5 9.05H9.025V4.525H4.5V9.05ZM17.05 10.325L20.275 7.1L17.05 3.875L13.825 7.1L17.05 10.325ZM14.95 19.5H19.475V14.975H14.95V19.5ZM4.5 19.5H9.025V14.975H4.5V19.5Z" fill="#000E50"/>
</svg>
