<svg width="24" height="24" viewBox="0 0 24 24" fill="none" xmlns="http://www.w3.org/2000/svg">
<path d="M3.5 21C3.1 21 2.75 20.85 2.45 20.55C2.15 20.25 2 19.9 2 19.5V7.175C2 6.775 2.15 6.425 2.45 6.125C2.75 5.825 3.1 5.675 3.5 5.675H8.25V3.5C8.25 3.1 8.4 2.75 8.7 2.45C9 2.15 9.35 2 9.75 2H14.25C14.65 2 15 2.15 15.3 2.45C15.6 2.75 15.75 3.1 15.75 3.5V5.675H20.5C20.9 5.675 21.25 5.825 21.55 6.125C21.85 6.425 22 6.775 22 7.175V19.5C22 19.9 21.85 20.25 21.55 20.55C21.25 20.85 20.9 21 20.5 21H3.5ZM9.75 5.675H14.25V3.5H9.75V5.675ZM3.5 19.5H20.5V7.175H3.5V19.5ZM3.5 19.5V7.175V19.5Z" fill="#000E50"/>
</svg>
