<svg width="23" height="28" viewBox="0 0 23 28" fill="none" xmlns="http://www.w3.org/2000/svg">
<path d="M10 8.41699C15.2927 8.41699 19.583 12.7073 19.583 18C19.583 23.2927 15.2927 27.583 10 27.583C4.70727 27.583 0.416992 23.2927 0.416992 18C0.416992 12.7073 4.70727 8.41699 10 8.41699Z" fill="#DEF7F6" stroke="#2A46BE" stroke-width="0.833333" stroke-linecap="round" stroke-linejoin="round"/>
<path d="M5.85327 18.0628L6.55818 17.8816C7.03264 19.7491 7.56132 21.274 8.15778 23.3785C9.54049 19.1417 11.3163 15.5402 13.5124 11.6518C15.7084 7.76337 18.257 4.16763 21.1444 0.864578L21.673 1.35237C18.6907 4.80873 16.0744 8.5299 13.8377 12.5298C11.601 16.5297 9.82516 20.7108 8.51024 25.0591H7.77821C7.14109 22.8292 6.50396 20.5017 5.85327 18.0628Z" fill="#2A46BE" stroke="#2A46BE" stroke-width="0.833333"/>
</svg>
