<svg width="84" height="92" viewBox="0 0 84 92" fill="none" xmlns="http://www.w3.org/2000/svg">
<g filter="url(#filter0_d_6224_6089)">
<path d="M38.7363 1.8125C40.6561 0.727626 43.0318 0.724703 44.957 1.83203L75.7236 19.3779L75.7275 19.3809C77.6437 20.4851 78.8514 22.5172 78.8604 24.7061L79 59.5625C79.0088 61.7507 77.8182 63.7933 75.8906 64.8828L45.2637 82.1924C43.3384 83.2804 40.9545 83.2631 39.043 82.1729L8.27637 64.627C6.36322 63.5357 5.14847 61.4862 5.13965 59.2988L5 24.4424C4.99131 22.2543 6.18182 20.2115 8.10938 19.1221L38.7363 1.8125Z" fill="#FFFBDB" stroke="#FFA020" stroke-width="2"/>
<path d="M47.8333 24.3333V27.25M42 24.3333V27.25M36.1667 24.3333V27.25" stroke="#FFA020" stroke-width="1.75" stroke-linecap="round" stroke-linejoin="round"/>
<path d="M49.5833 26.0833H34.4167C33.128 26.0833 32.0833 27.128 32.0833 28.4167V45.3333C32.0833 46.622 33.128 47.6667 34.4167 47.6667H49.5833C50.872 47.6667 51.9167 46.622 51.9167 45.3333V28.4167C51.9167 27.128 50.872 26.0833 49.5833 26.0833Z" stroke="#FFA020" stroke-width="1.75" stroke-linejoin="round"/>
<path d="M37.9167 40.6667H41.4167M37.9167 34.8333H46.0833" stroke="#FFA020" stroke-width="1.75" stroke-linecap="round" stroke-linejoin="round"/>
<path d="M32.461 62H31.093L26.977 55.772V62H25.609V53.648H26.977L31.093 59.864V53.648H32.461V62ZM37.1254 62.108C36.5014 62.108 35.9374 61.968 35.4334 61.688C34.9294 61.4 34.5334 61 34.2454 60.488C33.9574 59.968 33.8134 59.368 33.8134 58.688C33.8134 58.016 33.9614 57.42 34.2574 56.9C34.5534 56.38 34.9574 55.98 35.4694 55.7C35.9814 55.42 36.5534 55.28 37.1854 55.28C37.8174 55.28 38.3894 55.42 38.9014 55.7C39.4134 55.98 39.8174 56.38 40.1134 56.9C40.4094 57.42 40.5574 58.016 40.5574 58.688C40.5574 59.36 40.4054 59.956 40.1014 60.476C39.7974 60.996 39.3814 61.4 38.8534 61.688C38.3334 61.968 37.7574 62.108 37.1254 62.108ZM37.1254 60.92C37.4774 60.92 37.8054 60.836 38.1094 60.668C38.4214 60.5 38.6734 60.248 38.8654 59.912C39.0574 59.576 39.1534 59.168 39.1534 58.688C39.1534 58.208 39.0614 57.804 38.8774 57.476C38.6934 57.14 38.4494 56.888 38.1454 56.72C37.8414 56.552 37.5134 56.468 37.1614 56.468C36.8094 56.468 36.4814 56.552 36.1774 56.72C35.8814 56.888 35.6454 57.14 35.4694 57.476C35.2934 57.804 35.2054 58.208 35.2054 58.688C35.2054 59.4 35.3854 59.952 35.7454 60.344C36.1134 60.728 36.5734 60.92 37.1254 60.92ZM43.5058 56.504V60.164C43.5058 60.412 43.5618 60.592 43.6738 60.704C43.7938 60.808 43.9938 60.86 44.2738 60.86H45.1138V62H44.0338C43.4178 62 42.9458 61.856 42.6178 61.568C42.2898 61.28 42.1258 60.812 42.1258 60.164V56.504H41.3458V55.388H42.1258V53.744H43.5058V55.388H45.1138V56.504H43.5058ZM52.4346 58.532C52.4346 58.78 52.4186 59.004 52.3866 59.204H47.3346C47.3746 59.732 47.5706 60.156 47.9226 60.476C48.2746 60.796 48.7066 60.956 49.2186 60.956C49.9546 60.956 50.4746 60.648 50.7786 60.032H52.2546C52.0546 60.64 51.6906 61.14 51.1626 61.532C50.6426 61.916 49.9946 62.108 49.2186 62.108C48.5866 62.108 48.0186 61.968 47.5146 61.688C47.0186 61.4 46.6266 61 46.3386 60.488C46.0586 59.968 45.9186 59.368 45.9186 58.688C45.9186 58.008 46.0546 57.412 46.3266 56.9C46.6066 56.38 46.9946 55.98 47.4906 55.7C47.9946 55.42 48.5706 55.28 49.2186 55.28C49.8426 55.28 50.3986 55.416 50.8866 55.688C51.3746 55.96 51.7546 56.344 52.0266 56.84C52.2986 57.328 52.4346 57.892 52.4346 58.532ZM51.0066 58.1C50.9986 57.596 50.8186 57.192 50.4666 56.888C50.1146 56.584 49.6786 56.432 49.1586 56.432C48.6866 56.432 48.2826 56.584 47.9466 56.888C47.6106 57.184 47.4106 57.588 47.3466 58.1H51.0066ZM56.1809 62.108C55.6609 62.108 55.1929 62.016 54.7769 61.832C54.3689 61.64 54.0449 61.384 53.8049 61.064C53.5649 60.736 53.4369 60.372 53.4209 59.972H54.8369C54.8609 60.252 54.9929 60.488 55.2329 60.68C55.4809 60.864 55.7889 60.956 56.1569 60.956C56.5409 60.956 56.8369 60.884 57.0449 60.74C57.2609 60.588 57.3689 60.396 57.3689 60.164C57.3689 59.916 57.2489 59.732 57.0089 59.612C56.7769 59.492 56.4049 59.36 55.8929 59.216C55.3969 59.08 54.9929 58.948 54.6809 58.82C54.3689 58.692 54.0969 58.496 53.8649 58.232C53.6409 57.968 53.5289 57.62 53.5289 57.188C53.5289 56.836 53.6329 56.516 53.8409 56.228C54.0489 55.932 54.3449 55.7 54.7289 55.532C55.1209 55.364 55.5689 55.28 56.0729 55.28C56.8249 55.28 57.4289 55.472 57.8849 55.856C58.3489 56.232 58.5969 56.748 58.6289 57.404H57.2609C57.2369 57.108 57.1169 56.872 56.9009 56.696C56.6849 56.52 56.3929 56.432 56.0249 56.432C55.6649 56.432 55.3889 56.5 55.1969 56.636C55.0049 56.772 54.9089 56.952 54.9089 57.176C54.9089 57.352 54.9729 57.5 55.1009 57.62C55.2289 57.74 55.3849 57.836 55.5689 57.908C55.7529 57.972 56.0249 58.056 56.3849 58.16C56.8649 58.288 57.2569 58.42 57.5609 58.556C57.8729 58.684 58.1409 58.876 58.3649 59.132C58.5889 59.388 58.7049 59.728 58.7129 60.152C58.7129 60.528 58.6089 60.864 58.4009 61.16C58.1929 61.456 57.8969 61.688 57.5129 61.856C57.1369 62.024 56.6929 62.108 56.1809 62.108Z" fill="#FFA020"/>
</g>
<defs>
<filter id="filter0_d_6224_6089" x="0" y="0" width="84" height="92" filterUnits="userSpaceOnUse" color-interpolation-filters="sRGB">
<feFlood flood-opacity="0" result="BackgroundImageFix"/>
<feColorMatrix in="SourceAlpha" type="matrix" values="0 0 0 0 0 0 0 0 0 0 0 0 0 0 0 0 0 0 127 0" result="hardAlpha"/>
<feOffset dy="4"/>
<feGaussianBlur stdDeviation="2"/>
<feComposite in2="hardAlpha" operator="out"/>
<feColorMatrix type="matrix" values="0 0 0 0 0 0 0 0 0 0.054902 0 0 0 0 0.313726 0 0 0 0.1 0"/>
<feBlend mode="normal" in2="BackgroundImageFix" result="effect1_dropShadow_6224_6089"/>
<feBlend mode="normal" in="SourceGraphic" in2="effect1_dropShadow_6224_6089" result="shape"/>
</filter>
</defs>
</svg>
