<svg width="10" height="10" viewBox="0 0 10 10" fill="none" xmlns="http://www.w3.org/2000/svg">
<path d="M5 9.1665C7.07108 9.1665 8.75 7.48759 8.75 5.4165C8.75 3.34544 7.07108 1.6665 5 1.6665C2.92893 1.6665 1.25 3.34544 1.25 5.4165C1.25 7.48759 2.92893 9.1665 5 9.1665Z" stroke="#666E96" stroke-width="0.625" stroke-linecap="round"/>
<path d="M2.08333 7.9165L1.25 8.74984M7.91667 7.9165L8.75 8.74984" stroke="#666E96" stroke-width="0.625" stroke-linecap="round" stroke-linejoin="round"/>
<path d="M5 3.9585V5.62516L5.83333 6.4585" stroke="#666E96" stroke-width="0.625" stroke-linecap="round" stroke-linejoin="round"/>
<path d="M5 1.4585V0.833496" stroke="#666E96" stroke-width="0.625" stroke-linecap="round" stroke-linejoin="round"/>
<path d="M4.1665 0.833496H5.83317" stroke="#666E96" stroke-width="0.625" stroke-linecap="round" stroke-linejoin="round"/>
<path d="M1.04185 2.50002L0.914949 2.11932C0.86504 1.96959 0.904007 1.80453 1.01561 1.69293L1.27642 1.43211C1.38802 1.32051 1.55309 1.28154 1.70282 1.33145L2.08352 1.45835" stroke="#666E96" stroke-width="0.625" stroke-linecap="round" stroke-linejoin="round"/>
<path d="M8.95817 2.50002L9.08509 2.11932C9.13496 1.96959 9.096 1.80453 8.98442 1.69293L8.72359 1.43211C8.612 1.32051 8.44692 1.28154 8.29721 1.33145L7.9165 1.45835" stroke="#666E96" stroke-width="0.625" stroke-linecap="round" stroke-linejoin="round"/>
</svg>
