<svg width="40" height="20" viewBox="0 0 40 20" fill="none" xmlns="http://www.w3.org/2000/svg">
<g clip-path="url(#clip0_1817_20711)">
<rect x="40" y="20" width="40" height="20" rx="10" transform="rotate(-180 40 20)" fill="#6CC47C"/>
<path d="M30.0833 2C27.8056 2 25.8889 2.77777 24.3333 4.33333C22.7778 5.88889 22 7.77778 22 10C22 12.2222 22.7778 14.1111 24.3333 15.6667C25.8889 17.2222 27.7778 18 30 18C32.2222 18 34.1111 17.2222 35.6667 15.6667C37.2222 14.1111 38 12.2222 38 10C38 7.77778 37.2361 5.88889 35.7083 4.33333C34.1806 2.77778 32.3056 2 30.0833 2Z" fill="white"/>
</g>
<defs>
<clipPath id="clip0_1817_20711">
<rect width="40" height="20" fill="white" transform="translate(40 20) rotate(-180)"/>
</clipPath>
</defs>
</svg>
