<svg width="84" height="92" viewBox="0 0 84 92" fill="none" xmlns="http://www.w3.org/2000/svg">
<g filter="url(#filter0_d_6224_6075)">
<path d="M38.7363 1.8125C40.6561 0.727626 43.0318 0.724703 44.957 1.83203L75.7236 19.3779L75.7275 19.3809C77.6437 20.4851 78.8514 22.5172 78.8604 24.7061L79 59.5625C79.0088 61.7507 77.8182 63.7933 75.8906 64.8828L45.2637 82.1924C43.3384 83.2804 40.9545 83.2631 39.043 82.1729L8.27637 64.627C6.36322 63.5357 5.14847 61.4862 5.13965 59.2988L5 24.4424C4.99131 22.2543 6.18182 20.2115 8.10938 19.1221L38.7363 1.8125Z" fill="#E0F8E5" stroke="#6CC47C" stroke-width="2"/>
<path d="M51.9167 45.3333V26.6667C51.9167 25.378 50.872 24.3333 49.5834 24.3333H34.4169C33.1282 24.3333 32.0835 25.378 32.0835 26.6666L32.0834 45.3333C32.0834 46.622 33.128 47.6667 34.4167 47.6667H49.5834C50.872 47.6667 51.9167 46.622 51.9167 45.3333Z" stroke="#6CC47C" stroke-width="1.75" stroke-linecap="round" stroke-linejoin="round"/>
<path d="M37.3333 30.1667H46.6667M37.3333 36H46.6667M37.3333 41.8333H42" stroke="#6CC47C" stroke-width="1.75" stroke-linecap="round" stroke-linejoin="round"/>
<path d="M30.7412 53.66C31.6292 53.66 32.4052 53.832 33.0692 54.176C33.7412 54.512 34.2572 55 34.6172 55.64C34.9852 56.272 35.1692 57.012 35.1692 57.86C35.1692 58.708 34.9852 59.444 34.6172 60.068C34.2572 60.692 33.7412 61.172 33.0692 61.508C32.4052 61.836 31.6292 62 30.7412 62H28.0172V53.66H30.7412ZM30.7412 60.884C31.7172 60.884 32.4652 60.62 32.9852 60.092C33.5052 59.564 33.7652 58.82 33.7652 57.86C33.7652 56.892 33.5052 56.136 32.9852 55.592C32.4652 55.048 31.7172 54.776 30.7412 54.776H29.3852V60.884H30.7412ZM39.393 62.108C38.769 62.108 38.205 61.968 37.701 61.688C37.197 61.4 36.801 61 36.513 60.488C36.225 59.968 36.081 59.368 36.081 58.688C36.081 58.016 36.229 57.42 36.525 56.9C36.821 56.38 37.225 55.98 37.737 55.7C38.249 55.42 38.821 55.28 39.453 55.28C40.085 55.28 40.657 55.42 41.169 55.7C41.681 55.98 42.085 56.38 42.381 56.9C42.677 57.42 42.825 58.016 42.825 58.688C42.825 59.36 42.673 59.956 42.369 60.476C42.065 60.996 41.649 61.4 41.121 61.688C40.601 61.968 40.025 62.108 39.393 62.108ZM39.393 60.92C39.745 60.92 40.073 60.836 40.377 60.668C40.689 60.5 40.941 60.248 41.133 59.912C41.325 59.576 41.421 59.168 41.421 58.688C41.421 58.208 41.329 57.804 41.145 57.476C40.961 57.14 40.717 56.888 40.413 56.72C40.109 56.552 39.781 56.468 39.429 56.468C39.077 56.468 38.749 56.552 38.445 56.72C38.149 56.888 37.913 57.14 37.737 57.476C37.561 57.804 37.473 58.208 37.473 58.688C37.473 59.4 37.653 59.952 38.013 60.344C38.381 60.728 38.841 60.92 39.393 60.92ZM43.7213 58.688C43.7213 58.008 43.8573 57.412 44.1293 56.9C44.4093 56.38 44.7933 55.98 45.2813 55.7C45.7693 55.42 46.3293 55.28 46.9613 55.28C47.7613 55.28 48.4213 55.472 48.9413 55.856C49.4693 56.232 49.8253 56.772 50.0093 57.476H48.5333C48.4133 57.148 48.2213 56.892 47.9573 56.708C47.6933 56.524 47.3613 56.432 46.9613 56.432C46.4013 56.432 45.9533 56.632 45.6173 57.032C45.2893 57.424 45.1253 57.976 45.1253 58.688C45.1253 59.4 45.2893 59.956 45.6173 60.356C45.9533 60.756 46.4013 60.956 46.9613 60.956C47.7533 60.956 48.2773 60.608 48.5333 59.912H50.0093C49.8173 60.584 49.4573 61.12 48.9293 61.52C48.4013 61.912 47.7453 62.108 46.9613 62.108C46.3293 62.108 45.7693 61.968 45.2813 61.688C44.7933 61.4 44.4093 61 44.1293 60.488C43.8573 59.968 43.7213 59.368 43.7213 58.688ZM53.7727 62.108C53.2527 62.108 52.7847 62.016 52.3687 61.832C51.9607 61.64 51.6367 61.384 51.3967 61.064C51.1567 60.736 51.0287 60.372 51.0127 59.972H52.4287C52.4527 60.252 52.5847 60.488 52.8247 60.68C53.0727 60.864 53.3807 60.956 53.7487 60.956C54.1327 60.956 54.4287 60.884 54.6367 60.74C54.8527 60.588 54.9607 60.396 54.9607 60.164C54.9607 59.916 54.8407 59.732 54.6007 59.612C54.3687 59.492 53.9967 59.36 53.4847 59.216C52.9887 59.08 52.5847 58.948 52.2727 58.82C51.9607 58.692 51.6887 58.496 51.4567 58.232C51.2327 57.968 51.1207 57.62 51.1207 57.188C51.1207 56.836 51.2247 56.516 51.4327 56.228C51.6407 55.932 51.9367 55.7 52.3207 55.532C52.7127 55.364 53.1607 55.28 53.6647 55.28C54.4167 55.28 55.0207 55.472 55.4767 55.856C55.9407 56.232 56.1887 56.748 56.2207 57.404H54.8527C54.8287 57.108 54.7087 56.872 54.4927 56.696C54.2767 56.52 53.9847 56.432 53.6167 56.432C53.2567 56.432 52.9807 56.5 52.7887 56.636C52.5967 56.772 52.5007 56.952 52.5007 57.176C52.5007 57.352 52.5647 57.5 52.6927 57.62C52.8207 57.74 52.9767 57.836 53.1607 57.908C53.3447 57.972 53.6167 58.056 53.9767 58.16C54.4567 58.288 54.8487 58.42 55.1527 58.556C55.4647 58.684 55.7327 58.876 55.9567 59.132C56.1807 59.388 56.2967 59.728 56.3047 60.152C56.3047 60.528 56.2007 60.864 55.9927 61.16C55.7847 61.456 55.4887 61.688 55.1047 61.856C54.7287 62.024 54.2847 62.108 53.7727 62.108Z" fill="#6CC47C"/>
</g>
<defs>
<filter id="filter0_d_6224_6075" x="0" y="0" width="84" height="92" filterUnits="userSpaceOnUse" color-interpolation-filters="sRGB">
<feFlood flood-opacity="0" result="BackgroundImageFix"/>
<feColorMatrix in="SourceAlpha" type="matrix" values="0 0 0 0 0 0 0 0 0 0 0 0 0 0 0 0 0 0 127 0" result="hardAlpha"/>
<feOffset dy="4"/>
<feGaussianBlur stdDeviation="2"/>
<feComposite in2="hardAlpha" operator="out"/>
<feColorMatrix type="matrix" values="0 0 0 0 0 0 0 0 0 0.054902 0 0 0 0 0.313726 0 0 0 0.1 0"/>
<feBlend mode="normal" in2="BackgroundImageFix" result="effect1_dropShadow_6224_6075"/>
<feBlend mode="normal" in="SourceGraphic" in2="effect1_dropShadow_6224_6075" result="shape"/>
</filter>
</defs>
</svg>
