<svg width="84" height="92" viewBox="0 0 84 92" fill="none" xmlns="http://www.w3.org/2000/svg">
<g filter="url(#filter0_d_6224_6082)">
<path d="M38.7363 1.8125C40.6561 0.727626 43.0318 0.724703 44.957 1.83203L75.7236 19.3779L75.7275 19.3809C77.6437 20.4851 78.8514 22.5172 78.8604 24.7061L79 59.5625C79.0088 61.7507 77.8182 63.7933 75.8906 64.8828L45.2637 82.1924C43.3384 83.2804 40.9545 83.2631 39.043 82.1729L8.27637 64.627C6.36322 63.5357 5.14847 61.4862 5.13965 59.2988L5 24.4424C4.99131 22.2543 6.18182 20.2115 8.10938 19.1221L38.7363 1.8125Z" fill="#FFE2E0" stroke="#FF6961" stroke-width="2"/>
<path d="M53.6667 36C53.6667 29.5566 48.4433 24.3333 42 24.3333C35.5567 24.3333 30.3333 29.5566 30.3333 36C30.3333 42.4432 35.5567 47.6666 42 47.6666C48.4433 47.6666 53.6667 42.4432 53.6667 36Z" stroke="#FF6961" stroke-width="1.75"/>
<path d="M37.3333 37.2499C37.3333 37.2499 39.0833 38 40.1333 39.5C40.1333 39.5 42.5833 34.5 46.6667 32.5" stroke="#FF6961" stroke-width="1.75" stroke-linecap="round" stroke-linejoin="round"/>
<path d="M31.1025 53.66V54.776H28.8825V62H27.5145V54.776H25.2825V53.66H31.1025ZM32.0319 58.664C32.0319 58 32.1679 57.412 32.4399 56.9C32.7199 56.388 33.0959 55.992 33.5679 55.712C34.0479 55.424 34.5759 55.28 35.1519 55.28C35.6719 55.28 36.1239 55.384 36.5079 55.592C36.8999 55.792 37.2119 56.044 37.4439 56.348V55.388H38.8239V62H37.4439V61.016C37.2119 61.328 36.8959 61.588 36.4959 61.796C36.0959 62.004 35.6399 62.108 35.1279 62.108C34.5599 62.108 34.0399 61.964 33.5679 61.676C33.0959 61.38 32.7199 60.972 32.4399 60.452C32.1679 59.924 32.0319 59.328 32.0319 58.664ZM37.4439 58.688C37.4439 58.232 37.3479 57.836 37.1559 57.5C36.9719 57.164 36.7279 56.908 36.4239 56.732C36.1199 56.556 35.7919 56.468 35.4399 56.468C35.0879 56.468 34.7599 56.556 34.4559 56.732C34.1519 56.9 33.9039 57.152 33.7119 57.488C33.5279 57.816 33.4359 58.208 33.4359 58.664C33.4359 59.12 33.5279 59.52 33.7119 59.864C33.9039 60.208 34.1519 60.472 34.4559 60.656C34.7679 60.832 35.0959 60.92 35.4399 60.92C35.7919 60.92 36.1199 60.832 36.4239 60.656C36.7279 60.48 36.9719 60.224 37.1559 59.888C37.3479 59.544 37.4439 59.144 37.4439 58.688ZM43.0207 62.108C42.5007 62.108 42.0327 62.016 41.6167 61.832C41.2087 61.64 40.8847 61.384 40.6447 61.064C40.4047 60.736 40.2767 60.372 40.2607 59.972H41.6767C41.7007 60.252 41.8327 60.488 42.0727 60.68C42.3207 60.864 42.6287 60.956 42.9967 60.956C43.3807 60.956 43.6767 60.884 43.8847 60.74C44.1007 60.588 44.2087 60.396 44.2087 60.164C44.2087 59.916 44.0887 59.732 43.8487 59.612C43.6167 59.492 43.2447 59.36 42.7327 59.216C42.2367 59.08 41.8327 58.948 41.5207 58.82C41.2087 58.692 40.9367 58.496 40.7047 58.232C40.4807 57.968 40.3687 57.62 40.3687 57.188C40.3687 56.836 40.4727 56.516 40.6807 56.228C40.8887 55.932 41.1847 55.7 41.5687 55.532C41.9607 55.364 42.4087 55.28 42.9127 55.28C43.6647 55.28 44.2687 55.472 44.7247 55.856C45.1887 56.232 45.4367 56.748 45.4687 57.404H44.1007C44.0767 57.108 43.9567 56.872 43.7407 56.696C43.5247 56.52 43.2327 56.432 42.8647 56.432C42.5047 56.432 42.2287 56.5 42.0367 56.636C41.8447 56.772 41.7487 56.952 41.7487 57.176C41.7487 57.352 41.8127 57.5 41.9407 57.62C42.0687 57.74 42.2247 57.836 42.4087 57.908C42.5927 57.972 42.8647 58.056 43.2247 58.16C43.7047 58.288 44.0967 58.42 44.4007 58.556C44.7127 58.684 44.9807 58.876 45.2047 59.132C45.4287 59.388 45.5447 59.728 45.5527 60.152C45.5527 60.528 45.4487 60.864 45.2407 61.16C45.0327 61.456 44.7367 61.688 44.3527 61.856C43.9767 62.024 43.5327 62.108 43.0207 62.108ZM49.6469 58.7L52.6949 62H50.8469L48.3989 59.156V62H47.0309V53.12H48.3989V58.28L50.7989 55.388H52.6949L49.6469 58.7ZM56.0754 62.108C55.5554 62.108 55.0874 62.016 54.6714 61.832C54.2634 61.64 53.9394 61.384 53.6994 61.064C53.4594 60.736 53.3314 60.372 53.3154 59.972H54.7314C54.7554 60.252 54.8874 60.488 55.1274 60.68C55.3754 60.864 55.6834 60.956 56.0514 60.956C56.4354 60.956 56.7314 60.884 56.9394 60.74C57.1554 60.588 57.2634 60.396 57.2634 60.164C57.2634 59.916 57.1434 59.732 56.9034 59.612C56.6714 59.492 56.2994 59.36 55.7874 59.216C55.2914 59.08 54.8874 58.948 54.5754 58.82C54.2634 58.692 53.9914 58.496 53.7594 58.232C53.5354 57.968 53.4234 57.62 53.4234 57.188C53.4234 56.836 53.5274 56.516 53.7354 56.228C53.9434 55.932 54.2394 55.7 54.6234 55.532C55.0154 55.364 55.4634 55.28 55.9674 55.28C56.7194 55.28 57.3234 55.472 57.7794 55.856C58.2434 56.232 58.4914 56.748 58.5234 57.404H57.1554C57.1314 57.108 57.0114 56.872 56.7954 56.696C56.5794 56.52 56.2874 56.432 55.9194 56.432C55.5594 56.432 55.2834 56.5 55.0914 56.636C54.8994 56.772 54.8034 56.952 54.8034 57.176C54.8034 57.352 54.8674 57.5 54.9954 57.62C55.1234 57.74 55.2794 57.836 55.4634 57.908C55.6474 57.972 55.9194 58.056 56.2794 58.16C56.7594 58.288 57.1514 58.42 57.4554 58.556C57.7674 58.684 58.0354 58.876 58.2594 59.132C58.4834 59.388 58.5994 59.728 58.6074 60.152C58.6074 60.528 58.5034 60.864 58.2954 61.16C58.0874 61.456 57.7914 61.688 57.4074 61.856C57.0314 62.024 56.5874 62.108 56.0754 62.108Z" fill="#FF6961"/>
</g>
<defs>
<filter id="filter0_d_6224_6082" x="0" y="0" width="84" height="92" filterUnits="userSpaceOnUse" color-interpolation-filters="sRGB">
<feFlood flood-opacity="0" result="BackgroundImageFix"/>
<feColorMatrix in="SourceAlpha" type="matrix" values="0 0 0 0 0 0 0 0 0 0 0 0 0 0 0 0 0 0 127 0" result="hardAlpha"/>
<feOffset dy="4"/>
<feGaussianBlur stdDeviation="2"/>
<feComposite in2="hardAlpha" operator="out"/>
<feColorMatrix type="matrix" values="0 0 0 0 0 0 0 0 0 0.054902 0 0 0 0 0.313726 0 0 0 0.1 0"/>
<feBlend mode="normal" in2="BackgroundImageFix" result="effect1_dropShadow_6224_6082"/>
<feBlend mode="normal" in="SourceGraphic" in2="effect1_dropShadow_6224_6082" result="shape"/>
</filter>
</defs>
</svg>
