<svg width="28" height="28" viewBox="0 0 28 28" fill="none" xmlns="http://www.w3.org/2000/svg">
<rect width="28" height="28" rx="14" fill="#17B97F"/>
<path d="M12.4171 16.1247L12.7715 16.4791L13.1251 16.1239L17.4784 11.7497C17.4785 11.7496 17.4786 11.7495 17.4787 11.7494C17.5415 11.6868 17.5963 11.667 17.6665 11.667C17.7354 11.667 17.7742 11.685 17.8174 11.7325C17.882 11.8036 17.904 11.8662 17.9064 11.9348C17.9083 11.9891 17.8964 12.0216 17.8546 12.0634L12.8963 17.0218C12.8462 17.0719 12.8083 17.0837 12.7603 17.0837C12.7122 17.0837 12.6743 17.0719 12.6242 17.0218L10.1242 14.5218L10.1158 14.5134L10.107 14.5054C10.0555 14.4585 10.0415 14.4214 10.0415 14.3649C10.0415 14.3064 10.0577 14.2538 10.1242 14.1872C10.1908 14.1206 10.2435 14.1045 10.3019 14.1045C10.3745 14.1045 10.4163 14.1239 10.4588 14.1664L12.4171 16.1247ZM13.9998 21.9587C12.8669 21.9587 11.8181 21.7548 10.8482 21.3512C9.87094 20.9446 9.03069 20.3866 8.32214 19.678C7.61359 18.9695 7.0556 18.1292 6.64897 17.152C6.24538 16.1821 6.0415 15.1332 6.0415 14.0003C6.0415 12.8821 6.24508 11.8401 6.64897 10.8695C7.0556 9.89226 7.61359 9.05201 8.32214 8.34346C9.03129 7.63431 9.87245 7.07244 10.8508 6.65877C11.8201 6.24894 12.868 6.04199 13.9998 6.04199C15.117 6.04199 16.158 6.24863 17.128 6.65877C18.1064 7.07244 18.9475 7.63431 19.6567 8.34346C20.3664 9.05318 20.9283 9.89135 21.3419 10.8628C21.7512 11.8245 21.9582 12.8685 21.9582 14.0003C21.9582 15.1322 21.7512 16.1801 21.3414 17.1494C20.9277 18.1277 20.3659 18.9689 19.6567 19.678C18.9481 20.3866 18.1079 20.9446 17.1307 21.3512C16.16 21.7551 15.118 21.9587 13.9998 21.9587ZM13.9998 21.542C16.1251 21.542 17.9282 20.8208 19.3742 19.3747C20.8203 17.9287 21.5415 16.1256 21.5415 14.0003C21.5415 11.8751 20.8203 10.072 19.3742 8.62594C17.9282 7.17988 16.1251 6.45866 13.9998 6.45866C11.8746 6.45866 10.0715 7.17988 8.62545 8.62594C7.1794 10.072 6.45817 11.8751 6.45817 14.0003C6.45817 16.1256 7.1794 17.9287 8.62545 19.3747C10.0715 20.8208 11.8746 21.542 13.9998 21.542Z" fill="black" stroke="white"/>
</svg>
