<svg width="28" height="28" viewBox="0 0 28 28" fill="none" xmlns="http://www.w3.org/2000/svg">
<rect width="28" height="28" rx="14" fill="#EBB323"/>
<path d="M13.9998 22.3337C9.39746 22.3337 5.6665 18.6027 5.6665 14.0003C5.6665 9.39795 9.39746 5.66699 13.9998 5.66699C18.6022 5.66699 22.3332 9.39795 22.3332 14.0003C22.3332 18.6027 18.6022 22.3337 13.9998 22.3337ZM13.9998 20.667C17.6818 20.667 20.6665 17.6822 20.6665 14.0003C20.6665 10.3184 17.6818 7.33366 13.9998 7.33366C10.3179 7.33366 7.33317 10.3184 7.33317 14.0003C7.33317 17.6822 10.3179 20.667 13.9998 20.667ZM13.1665 16.5003H14.8332V18.167H13.1665V16.5003ZM13.1665 9.83366H14.8332V14.8337H13.1665V9.83366Z" fill="white"/>
</svg>
