<svg width="109" height="13" viewBox="0 0 109 13" fill="none" xmlns="http://www.w3.org/2000/svg">
<g clip-path="url(#clip0_3790_32885)">
<path d="M87.2138 2.76744C77.6996 2.45349 70.5984 2.31395 65.8757 2.31395C61.9114 2.31395 57.9817 2.38372 54.0863 2.55814C42.7796 3.0814 32.9206 3.98837 24.544 5.34884C16.1673 6.7093 8.23877 9.0814 0.758381 12.5349L0 10.8256C7.54934 7.26744 15.5813 4.82558 24.0614 3.5C32.5414 2.17442 42.5038 1.23256 53.914 0.709302C57.9472 0.569767 61.877 0.5 65.8068 0.5C70.5984 0.5 77.7685 0.639535 87.2827 0.953488C96.9004 1.26744 104.139 1.40698 109 1.40698V3.22093C104.071 3.22093 96.8314 3.0814 87.2138 2.76744Z" fill="#6FF9D8"/>
</g>
<defs>
<clipPath id="clip0_3790_32885">
<rect width="109" height="12" fill="white" transform="translate(0 0.5)"/>
</clipPath>
</defs>
</svg>
