<svg width="24" height="24" viewBox="0 0 24 24" fill="none" xmlns="http://www.w3.org/2000/svg">
<path d="M4 6C4 4.89543 4.89543 4 6 4H18C19.1046 4 20 4.89543 20 6V18C20 19.1046 19.1046 20 18 20H6C4.89543 20 4 19.1046 4 18V6Z" fill="#9C27B0"/>
<path d="M9 7V17H11V13H13C14.1046 13 15 12.1046 15 11V9C15 7.89543 14.1046 7 13 7H9ZM11 9H13V11H11V9Z" fill="white"/>
<path d="M7 15C7 15.5523 7.44772 16 8 16C8.55228 16 9 15.5523 9 15C9 14.4477 8.55228 14 8 14C7.44772 14 7 14.4477 7 15Z" fill="white"/>
<path d="M15 15C15 15.5523 15.4477 16 16 16C16.5523 16 17 15.5523 17 15C17 14.4477 16.5523 14 16 14C15.4477 14 15 14.4477 15 15Z" fill="white"/>
</svg>
