<svg width="24" height="24" viewBox="0 0 24 24" fill="none" xmlns="http://www.w3.org/2000/svg">
<g filter="url(#filter0_ii_1772_29799)">
<path fill-rule="evenodd" clip-rule="evenodd" d="M5.50234 2.00098C4.61869 2.00098 3.90234 2.71732 3.90234 3.60098V20.401C3.90234 21.2846 4.61869 22.001 5.50234 22.001H18.5023C19.386 22.001 20.1023 21.2846 20.1023 20.401V3.60098C20.1023 3.58408 20.1021 3.56724 20.1016 3.55047V7.00098L15.1016 2.00098H5.50234Z" fill="#576A95"/>
</g>
<g filter="url(#filter1_dd_1772_29799)">
<path d="M13.375 14.4893V17.2053C13.375 17.2945 13.3573 17.3829 13.3231 17.4653C13.2889 17.5476 13.2388 17.6225 13.1756 17.6855C13.048 17.8128 12.875 17.8844 12.6946 17.8843H11.3054C11.1251 17.8844 10.9521 17.8129 10.8244 17.6856C10.7612 17.6226 10.711 17.5477 10.6768 17.4653C10.6426 17.3828 10.625 17.2945 10.625 17.2052V14.4893H13.375ZM12.6946 16.0453H11.3054V17.4091H12.6946V16.0453ZM13.3523 11.7733V13.1371H11.9859V11.7733H13.3523ZM12.0029 2.19922V3.57422H13.375V4.94922H12.0028V6.22234H13.375V7.59734H12.0029V8.95547H13.375V10.3136H12.0029V11.6716H10.625V10.3135H11.9971V8.95534H10.625V7.59734H11.9971V6.22234H10.625V4.84734H11.9971V3.57422H10.625V2.19922H12.0029Z" fill="white"/>
</g>
<path d="M19.6325 6.53125L15.5703 6.53125L20.1016 11.0625V7L19.6325 6.53125Z" fill="url(#paint0_linear_1772_29799)"/>
<path d="M16.7016 7L20.1016 7L15.1016 2L15.1016 5.4C15.1016 6.28366 15.8179 7 16.7016 7Z" fill="#BBC3D4"/>
<defs>
<filter id="filter0_ii_1772_29799" x="3.90234" y="1.90098" width="16.2002" height="20.2" filterUnits="userSpaceOnUse" color-interpolation-filters="sRGB">
<feFlood flood-opacity="0" result="BackgroundImageFix"/>
<feBlend mode="normal" in="SourceGraphic" in2="BackgroundImageFix" result="shape"/>
<feColorMatrix in="SourceAlpha" type="matrix" values="0 0 0 0 0 0 0 0 0 0 0 0 0 0 0 0 0 0 127 0" result="hardAlpha"/>
<feOffset dy="-0.2"/>
<feGaussianBlur stdDeviation="0.05"/>
<feComposite in2="hardAlpha" operator="arithmetic" k2="-1" k3="1"/>
<feColorMatrix type="matrix" values="0 0 0 0 0 0 0 0 0 0 0 0 0 0 0 0 0 0 0.3 0"/>
<feBlend mode="normal" in2="shape" result="effect1_innerShadow_1772_29799"/>
<feColorMatrix in="SourceAlpha" type="matrix" values="0 0 0 0 0 0 0 0 0 0 0 0 0 0 0 0 0 0 127 0" result="hardAlpha"/>
<feOffset dy="0.2"/>
<feGaussianBlur stdDeviation="0.05"/>
<feComposite in2="hardAlpha" operator="arithmetic" k2="-1" k3="1"/>
<feColorMatrix type="matrix" values="0 0 0 0 1 0 0 0 0 1 0 0 0 0 1 0 0 0 0.3 0"/>
<feBlend mode="normal" in2="effect1_innerShadow_1772_29799" result="effect2_innerShadow_1772_29799"/>
</filter>
<filter id="filter1_dd_1772_29799" x="10.525" y="2.09922" width="3.65" height="16.7851" filterUnits="userSpaceOnUse" color-interpolation-filters="sRGB">
<feFlood flood-opacity="0" result="BackgroundImageFix"/>
<feColorMatrix in="SourceAlpha" type="matrix" values="0 0 0 0 0 0 0 0 0 0 0 0 0 0 0 0 0 0 127 0" result="hardAlpha"/>
<feOffset dx="0.4" dy="0.6"/>
<feGaussianBlur stdDeviation="0.2"/>
<feColorMatrix type="matrix" values="0 0 0 0 0 0 0 0 0 0 0 0 0 0 0 0 0 0 0.1 0"/>
<feBlend mode="normal" in2="BackgroundImageFix" result="effect1_dropShadow_1772_29799"/>
<feColorMatrix in="SourceAlpha" type="matrix" values="0 0 0 0 0 0 0 0 0 0 0 0 0 0 0 0 0 0 127 0" result="hardAlpha"/>
<feOffset/>
<feGaussianBlur stdDeviation="0.05"/>
<feColorMatrix type="matrix" values="0 0 0 0 0 0 0 0 0 0 0 0 0 0 0 0 0 0 0.4 0"/>
<feBlend mode="normal" in2="effect1_dropShadow_1772_29799" result="effect2_dropShadow_1772_29799"/>
<feBlend mode="normal" in="SourceGraphic" in2="effect2_dropShadow_1772_29799" result="shape"/>
</filter>
<linearGradient id="paint0_linear_1772_29799" x1="16.5859" y1="5.51563" x2="21.1172" y2="10.0469" gradientUnits="userSpaceOnUse">
<stop stop-opacity="0.2"/>
<stop offset="1" stop-opacity="0"/>
</linearGradient>
</defs>
</svg>
