<svg width="24" height="24" viewBox="0 0 24 24" fill="none" xmlns="http://www.w3.org/2000/svg">
<path d="M21.5 19.5V4.5C21.5 3.39543 20.6046 2.5 19.5 2.5H4.5C3.39543 2.5 2.5 3.39543 2.5 4.5V19.5C2.5 20.6046 3.39543 21.5 4.5 21.5H19.5C20.6046 21.5 21.5 20.6046 21.5 19.5Z" stroke="#000E50" stroke-width="1.5" stroke-linejoin="round"/>
<path d="M16 9.5C16.8284 9.5 17.5 8.82843 17.5 8C17.5 7.17157 16.8284 6.5 16 6.5C15.1716 6.5 14.5 7.17157 14.5 8C14.5 8.82843 15.1716 9.5 16 9.5Z" stroke="#000E50" stroke-width="1.5"/>
<path d="M15 21.5C14.5 19 13.0934 16.7821 11.1937 15.3341C8.84967 13.5474 6 13 2.5 13" stroke="#000E50" stroke-width="1.5" stroke-linejoin="round"/>
<path d="M13.5 18C15.1014 16.6733 16.8266 15.9928 18.5694 16.0001C19.5576 15.999 20.5412 16.2216 21.5 16.6617" stroke="#000E50" stroke-width="1.5" stroke-linejoin="round"/>
</svg>
