<svg width="24" height="25" viewBox="0 0 24 25" fill="none" xmlns="http://www.w3.org/2000/svg">
<path d="M7 8.5L14.5 2.5L22 8.5" stroke="#000E50" stroke-width="1.5" stroke-linecap="round" stroke-linejoin="round"/>
<path d="M8.5 7.5V20.5M20.5 20.5V7.5" stroke="#000E50" stroke-width="1.5" stroke-linecap="round" stroke-linejoin="round"/>
<path d="M3.5 14.5C4.32843 14.5 5 13.6046 5 12.5C5 11.3954 4.32843 10.5 3.5 10.5C2.67157 10.5 2 11.3954 2 12.5C2 13.6046 2.67157 14.5 3.5 14.5Z" stroke="#000E50" stroke-width="1.5" stroke-linecap="round" stroke-linejoin="round"/>
<path d="M3.5 14.5V20.5" stroke="#000E50" stroke-width="1.5" stroke-linecap="round" stroke-linejoin="round"/>
<path d="M2 20.5H22" stroke="#000E50" stroke-width="1.5" stroke-linecap="round" stroke-linejoin="round"/>
<path d="M12.5 20.5V15.5C12.5 14.9477 12.9477 14.5 13.5 14.5H15.5C16.0523 14.5 16.5 14.9477 16.5 15.5V20.5" stroke="#000E50" stroke-width="1.5" stroke-linecap="round" stroke-linejoin="round"/>
<path d="M13.5 9.5H15.5" stroke="#000E50" stroke-width="1.5" stroke-linecap="round" stroke-linejoin="round"/>
</svg>
