<svg width="83" height="95" viewBox="0 0 83 95" fill="none" xmlns="http://www.w3.org/2000/svg">
<path d="M37.1167 4.07373C39.6336 2.58011 42.7657 2.57336 45.2954 4.09814L75.5884 22.2378L75.5991 22.2446C78.0859 23.749 79.6056 26.4774 79.6167 29.3755L79.7534 65.4116C79.7644 68.3052 78.2681 71.0621 75.7456 72.5591L45.5903 90.4546C43.0571 91.9578 39.9176 91.9311 37.4126 90.4312L7.11963 72.2905C4.62601 70.7972 3.10242 68.0454 3.09131 65.1528L2.95361 29.1167L2.95459 29.1157C2.944 26.2226 4.43938 23.466 6.96143 21.9692L37.1167 4.07373Z" fill="url(#paint0_linear_601_13187)" stroke="white" stroke-width="5.90769"/>
<defs>
<linearGradient id="paint0_linear_601_13187" x1="76.8" y1="5.90771" x2="-11.3586" y2="33.5515" gradientUnits="userSpaceOnUse">
<stop stop-color="#C3B7FF"/>
<stop offset="1" stop-color="#6FF9D8"/>
</linearGradient>
</defs>
</svg>
