<svg width="56" height="65" viewBox="0 0 56 65" fill="none" xmlns="http://www.w3.org/2000/svg">
<path d="M27.0547 3.01172C27.5661 2.7084 28.1875 2.71115 28.6924 3.0166L28.7012 3.02148L52.1328 17.0527V17.0537C52.6725 17.3802 53.0334 18.0032 53.0361 18.6768L53.1426 46.5615C53.1452 47.2385 52.7901 47.8418 52.2803 48.1445L28.9453 61.9922C28.4437 62.2898 27.8117 62.2895 27.2988 61.9824L3.85742 47.9453C3.36828 47.6522 3.01232 47.0819 2.96777 46.4531L2.96289 46.3271L2.85742 18.4424C2.85482 17.7655 3.20993 17.1631 3.71973 16.8604L27.0547 3.01172Z" fill="url(#paint0_linear_3790_33028)" stroke="white" stroke-width="4.57143"/>
<defs>
<linearGradient id="paint0_linear_3790_33028" x1="55.4284" y1="0.5" x2="-12.7895" y2="21.891" gradientUnits="userSpaceOnUse">
<stop stop-color="#C3B7FF"/>
<stop offset="1" stop-color="#6FF9D8"/>
</linearGradient>
</defs>
</svg>
