<svg width="25" height="24" viewBox="0 0 25 24" fill="none" xmlns="http://www.w3.org/2000/svg">
<mask id="mask0_6594_1569" style="mask-type:alpha" maskUnits="userSpaceOnUse" x="0" y="0" width="25" height="24">
<rect x="0.502441" width="24" height="24" fill="#D9D9D9"/>
</mask>
<g mask="url(#mask0_6594_1569)">
<path d="M19.5024 8.99994C19.7858 8.99994 20.0233 8.90411 20.2149 8.71244C20.4066 8.52077 20.5024 8.28327 20.5024 7.99994C20.5024 7.71661 20.4066 7.47911 20.2149 7.28744C20.0233 7.09577 19.7858 6.99994 19.5024 6.99994C19.2191 6.99994 18.9816 7.09577 18.7899 7.28744C18.5983 7.47911 18.5024 7.71661 18.5024 7.99994C18.5024 8.28327 18.5983 8.52077 18.7899 8.71244C18.9816 8.90411 19.2191 8.99994 19.5024 8.99994ZM19.5011 9.99994C18.934 9.99994 18.4592 9.80871 18.0765 9.42624C17.6938 9.04377 17.5024 8.56985 17.5024 8.00446C17.5024 7.45016 17.6937 6.9775 18.0761 6.58646C18.4586 6.19545 18.9325 5.99994 19.4979 5.99994C20.0522 5.99994 20.5249 6.19451 20.9159 6.58366C21.3069 6.97281 21.5024 7.44536 21.5024 8.00129C21.5024 8.56834 21.3079 9.04321 20.9187 9.42589C20.5296 9.80859 20.057 9.99994 19.5011 9.99994ZM12.5024 7.99994C12.9191 7.99994 13.2733 7.85827 13.5649 7.57494C13.8566 7.29161 14.0024 6.93327 14.0024 6.49994C14.0024 6.08327 13.8566 5.72911 13.5649 5.43744C13.2733 5.14577 12.9191 4.99994 12.5024 4.99994C12.0691 4.99994 11.7108 5.14577 11.4274 5.43744C11.1441 5.72911 11.0024 6.08327 11.0024 6.49994C11.0024 6.93327 11.1441 7.29161 11.4274 7.57494C11.7108 7.85827 12.0691 7.99994 12.5024 7.99994ZM12.5036 8.99994C11.8015 8.99994 11.2092 8.75946 10.7265 8.27851C10.2438 7.79758 10.0024 7.20679 10.0024 6.50614C10.0024 5.81739 10.2429 5.2275 10.7238 4.73646C11.2048 4.24545 11.7956 3.99994 12.4962 3.99994C13.185 3.99994 13.7749 4.24387 14.2659 4.73174C14.7569 5.2196 15.0024 5.80861 15.0024 6.49876C15.0024 7.20083 14.7585 7.79321 14.2706 8.27589C13.7828 8.75859 13.1938 8.99994 12.5036 8.99994ZM7.96399 13.3749C7.96399 13.9775 8.24347 14.6378 8.80244 15.3557C9.36142 16.0737 10.473 17.1897 12.1371 18.7038L12.5024 19.0307L12.9063 18.6461C14.473 17.2294 15.5537 16.1465 16.1486 15.3975C16.7435 14.6484 17.0409 13.9742 17.0409 13.3749C17.0409 12.8415 16.8641 12.3892 16.5106 12.0181C16.157 11.647 15.721 11.4615 15.2024 11.4615C14.8909 11.4615 14.596 11.5307 14.3178 11.6692C14.0396 11.8076 13.8018 11.9942 13.6044 12.2288L12.5774 13.4615H12.4217L11.3755 12.2288C11.1781 11.9942 10.9431 11.8076 10.6707 11.6692C10.3983 11.5307 10.1089 11.4615 9.80244 11.4615C9.26032 11.4615 8.81839 11.647 8.47664 12.0181C8.13487 12.3892 7.96399 12.8415 7.96399 13.3749ZM6.96397 13.3749C6.96397 12.6198 7.24153 11.9454 7.79667 11.3519C8.3518 10.7583 9.02039 10.4615 9.80244 10.4615C10.2935 10.4615 10.7509 10.5781 11.1746 10.8115C11.5983 11.0448 11.9576 11.3486 12.2524 11.723L12.5024 12.0115L12.7524 11.7038C13.0601 11.3422 13.4217 11.0448 13.8371 10.8115C14.2524 10.5781 14.7076 10.4615 15.2024 10.4615C15.9717 10.4615 16.6371 10.76 17.1986 11.3571C17.7601 11.9542 18.0409 12.6268 18.0409 13.3749C18.0409 14.1557 17.7361 14.9528 17.1265 15.7663C16.5169 16.5798 15.3294 17.7923 13.564 19.4038L12.5024 20.3846L11.4794 19.4615C9.655 17.782 8.44634 16.5461 7.85339 15.7538C7.26044 14.9615 6.96397 14.1685 6.96397 13.3749ZM5.50244 8.99994C5.78577 8.99994 6.02327 8.90411 6.21494 8.71244C6.40661 8.52077 6.50244 8.28327 6.50244 7.99994C6.50244 7.71661 6.40661 7.47911 6.21494 7.28744C6.02327 7.09577 5.78577 6.99994 5.50244 6.99994C5.21911 6.99994 4.98161 7.09577 4.78994 7.28744C4.59827 7.47911 4.50244 7.71661 4.50244 7.99994C4.50244 8.28327 4.59827 8.52077 4.78994 8.71244C4.98161 8.90411 5.21911 8.99994 5.50244 8.99994ZM12.5774 20.9999V19.9999H20.5024V13.6153C20.5024 13.4486 20.4415 13.3044 20.3197 13.1826C20.198 13.0608 20.0537 12.9999 19.8871 12.9999H17.6294V11.9999H19.8871C20.3313 11.9999 20.7116 12.1581 21.0279 12.4745C21.3443 12.7908 21.5024 13.1711 21.5024 13.6153V20.191C21.5024 20.4239 21.425 20.6169 21.2702 20.7701C21.1154 20.9233 20.9236 20.9999 20.6948 20.9999H12.5774ZM4.50244 19.9999H12.5774V20.9999H4.31012C4.08128 20.9999 3.88946 20.9225 3.73464 20.7677C3.57984 20.6129 3.50244 20.4211 3.50244 20.1923V13.6217C3.50244 13.17 3.65725 12.7868 3.96687 12.472C4.27648 12.1573 4.66013 11.9999 5.11782 11.9999H7.37552V12.9999H5.11782C4.93833 12.9999 4.7909 13.0608 4.67552 13.1826C4.56013 13.3044 4.50244 13.4486 4.50244 13.6153V19.9999ZM5.50109 9.99994C4.93404 9.99994 4.45917 9.80871 4.07647 9.42624C3.69378 9.04377 3.50244 8.56985 3.50244 8.00446C3.50244 7.45016 3.69367 6.9775 4.07614 6.58646C4.45861 6.19545 4.93253 5.99994 5.49792 5.99994C6.05222 5.99994 6.52488 6.19451 6.91592 6.58366C7.30693 6.97281 7.50244 7.44536 7.50244 8.00129C7.50244 8.56834 7.30787 9.04321 6.91872 9.42589C6.52957 9.80859 6.05702 9.99994 5.50109 9.99994Z" fill="#000E50"/>
<path d="M4.50244 19.9999V12.9999M4.50244 19.9999H12.5774M4.50244 19.9999V13.6153C4.50244 13.4486 4.56013 13.3044 4.67552 13.1826C4.7909 13.0608 4.93833 12.9999 5.11782 12.9999H7.37552V11.9999H5.11782C4.66013 11.9999 4.27648 12.1573 3.96687 12.472C3.65725 12.7868 3.50244 13.17 3.50244 13.6217V20.1923C3.50244 20.4211 3.57984 20.6129 3.73464 20.7677C3.88946 20.9225 4.08128 20.9999 4.31012 20.9999H12.5774M20.5024 19.9999V12.9999M20.5024 19.9999H12.5774M20.5024 19.9999V13.6153C20.5024 13.4486 20.4415 13.3044 20.3197 13.1826C20.198 13.0608 20.0537 12.9999 19.8871 12.9999H17.6294V11.9999H19.8871C20.3313 11.9999 20.7116 12.1581 21.0279 12.4745C21.3443 12.7908 21.5024 13.1711 21.5024 13.6153V20.191C21.5024 20.4239 21.425 20.6169 21.2702 20.7701C21.1154 20.9233 20.9236 20.9999 20.6948 20.9999H12.5774M12.5774 20.9999V19.9999M19.5024 8.99994C19.7858 8.99994 20.0233 8.90411 20.2149 8.71244C20.4066 8.52077 20.5024 8.28327 20.5024 7.99994C20.5024 7.71661 20.4066 7.47911 20.2149 7.28744C20.0233 7.09577 19.7858 6.99994 19.5024 6.99994C19.2191 6.99994 18.9816 7.09577 18.7899 7.28744C18.5983 7.47911 18.5024 7.71661 18.5024 7.99994C18.5024 8.28327 18.5983 8.52077 18.7899 8.71244C18.9816 8.90411 19.2191 8.99994 19.5024 8.99994ZM19.5011 9.99994C18.934 9.99994 18.4592 9.80871 18.0765 9.42624C17.6938 9.04377 17.5024 8.56985 17.5024 8.00446C17.5024 7.45016 17.6937 6.9775 18.0761 6.58646C18.4586 6.19545 18.9325 5.99994 19.4979 5.99994C20.0522 5.99994 20.5249 6.19451 20.9159 6.58366C21.3069 6.97281 21.5024 7.44536 21.5024 8.00129C21.5024 8.56834 21.3079 9.04321 20.9187 9.42589C20.5296 9.80859 20.057 9.99994 19.5011 9.99994ZM12.5024 7.99994C12.9191 7.99994 13.2733 7.85827 13.5649 7.57494C13.8566 7.29161 14.0024 6.93327 14.0024 6.49994C14.0024 6.08327 13.8566 5.72911 13.5649 5.43744C13.2733 5.14577 12.9191 4.99994 12.5024 4.99994C12.0691 4.99994 11.7108 5.14577 11.4274 5.43744C11.1441 5.72911 11.0024 6.08327 11.0024 6.49994C11.0024 6.93327 11.1441 7.29161 11.4274 7.57494C11.7108 7.85827 12.0691 7.99994 12.5024 7.99994ZM12.5036 8.99994C11.8015 8.99994 11.2092 8.75946 10.7265 8.27851C10.2438 7.79758 10.0024 7.20679 10.0024 6.50614C10.0024 5.81739 10.2429 5.2275 10.7238 4.73646C11.2048 4.24545 11.7956 3.99994 12.4962 3.99994C13.185 3.99994 13.7749 4.24387 14.2659 4.73174C14.7569 5.2196 15.0024 5.80861 15.0024 6.49876C15.0024 7.20083 14.7585 7.79321 14.2706 8.27589C13.7828 8.75859 13.1938 8.99994 12.5036 8.99994ZM7.96399 13.3749C7.96399 13.9775 8.24347 14.6378 8.80244 15.3557C9.36142 16.0737 10.473 17.1897 12.1371 18.7038L12.5024 19.0307L12.9063 18.6461C14.473 17.2294 15.5537 16.1465 16.1486 15.3975C16.7435 14.6484 17.0409 13.9742 17.0409 13.3749C17.0409 12.8415 16.8641 12.3892 16.5106 12.0181C16.157 11.647 15.721 11.4615 15.2024 11.4615C14.8909 11.4615 14.596 11.5307 14.3178 11.6692C14.0396 11.8076 13.8018 11.9942 13.6044 12.2288L12.5774 13.4615H12.4217L11.3755 12.2288C11.1781 11.9942 10.9431 11.8076 10.6707 11.6692C10.3983 11.5307 10.1089 11.4615 9.80244 11.4615C9.26032 11.4615 8.81839 11.647 8.47664 12.0181C8.13487 12.3892 7.96399 12.8415 7.96399 13.3749ZM6.96397 13.3749C6.96397 12.6198 7.24153 11.9454 7.79667 11.3519C8.3518 10.7583 9.02039 10.4615 9.80244 10.4615C10.2935 10.4615 10.7509 10.5781 11.1746 10.8115C11.5983 11.0448 11.9576 11.3486 12.2524 11.723L12.5024 12.0115L12.7524 11.7038C13.0601 11.3422 13.4217 11.0448 13.8371 10.8115C14.2524 10.5781 14.7076 10.4615 15.2024 10.4615C15.9717 10.4615 16.6371 10.76 17.1986 11.3571C17.7601 11.9542 18.0409 12.6268 18.0409 13.3749C18.0409 14.1557 17.7361 14.9528 17.1265 15.7663C16.5169 16.5798 15.3294 17.7923 13.564 19.4038L12.5024 20.3846L11.4794 19.4615C9.655 17.782 8.44634 16.5461 7.85339 15.7538C7.26044 14.9615 6.96397 14.1685 6.96397 13.3749ZM5.50244 8.99994C5.78577 8.99994 6.02327 8.90411 6.21494 8.71244C6.40661 8.52077 6.50244 8.28327 6.50244 7.99994C6.50244 7.71661 6.40661 7.47911 6.21494 7.28744C6.02327 7.09577 5.78577 6.99994 5.50244 6.99994C5.21911 6.99994 4.98161 7.09577 4.78994 7.28744C4.59827 7.47911 4.50244 7.71661 4.50244 7.99994C4.50244 8.28327 4.59827 8.52077 4.78994 8.71244C4.98161 8.90411 5.21911 8.99994 5.50244 8.99994ZM5.50109 9.99994C4.93404 9.99994 4.45917 9.80871 4.07647 9.42624C3.69378 9.04377 3.50244 8.56985 3.50244 8.00446C3.50244 7.45016 3.69367 6.9775 4.07614 6.58646C4.45861 6.19545 4.93253 5.99994 5.49792 5.99994C6.05222 5.99994 6.52488 6.19451 6.91592 6.58366C7.30693 6.97281 7.50244 7.44536 7.50244 8.00129C7.50244 8.56834 7.30787 9.04321 6.91872 9.42589C6.52957 9.80859 6.05702 9.99994 5.50109 9.99994Z" stroke="#000E50" stroke-width="0.4"/>
</g>
</svg>
