<svg width="38" height="40" viewBox="0 0 38 40" fill="none" xmlns="http://www.w3.org/2000/svg">
<g clip-path="url(#clip0_6594_590)">
<path d="M13.4503 2.94441L24.4634 9.18567C25.2145 9.61129 26.1386 9.61129 26.8879 9.18567L30.1098 7.3604C30.8556 6.93815 30.8556 5.88167 30.1098 5.45942L21.2656 0.447907C20.2111 -0.149302 18.9114 -0.149302 17.8569 0.447907L13.4485 2.94441H13.4503Z" fill="#000E50"/>
<path d="M7.33582 8.33948C7.33582 7.74227 7.49871 7.16693 7.79191 6.6673L17.8689 12.3837C18.6148 12.8059 18.6148 13.8624 17.8689 14.2847L7.79191 20.0011C7.49871 19.5014 7.33582 18.9261 7.33582 18.3289V8.33948Z" fill="#000E50"/>
<path d="M9.04019 5.44261C8.51208 5.74206 8.08685 6.16767 7.79193 6.66731L13.4451 9.87542L19.563 6.40992L13.4485 2.94611L9.03848 5.44429L9.04019 5.44261Z" fill="#6FF9D8"/>
<path d="M13.4503 23.7222L24.4634 17.481C25.2145 17.0553 26.1386 17.0553 26.8879 17.481L30.1098 19.3079C30.8556 19.7302 30.8556 20.7866 30.1098 21.2089L21.2656 26.2187C20.2111 26.8159 18.9114 26.8159 17.8569 26.2187L13.4485 23.7222H13.4503Z" fill="#000E50"/>
<path d="M9.04019 21.2241C8.51208 20.9246 8.08685 20.5007 7.79193 19.9994L13.4451 16.7913L19.563 20.2568L13.4485 23.7206L9.03848 21.2224L9.04019 21.2241Z" fill="#C3B7FF"/>
<g clip-path="url(#clip1_6594_590)">
<path d="M32.9496 31.002C34.2603 31.0095 35.4834 31.605 36.2777 32.5537L36.2846 31.458C36.2847 31.2727 36.4058 31.155 36.5931 31.1563L37.0189 31.1592C37.2062 31.1593 37.3249 31.2795 37.3236 31.4649L37.2797 39.2822C37.2795 39.4675 37.1584 39.5843 36.9711 39.583L36.5453 39.5811C36.3581 39.5809 36.2393 39.4608 36.2406 39.2754L36.2474 38.1807C35.4417 39.1193 34.2124 39.7019 32.9017 39.6944C30.4678 39.6805 28.5031 37.7163 28.517 35.3067C28.531 32.9311 30.5157 30.9883 32.9496 31.002ZM15.0385 30.9033C17.4047 30.9174 19.1981 32.7123 19.3207 35.3565C19.3207 35.5583 19.1995 35.6595 19.0121 35.6582L12.016 35.6192C12.2621 37.2719 13.5665 38.3915 15.1156 38.4004C16.1714 38.4067 17.0769 37.8887 17.7094 37.3184C17.8458 37.1848 18.0166 37.2029 18.1351 37.3555L18.473 37.7783C18.5914 37.9133 18.5899 38.0643 18.4701 38.1992C17.4934 39.187 16.2489 39.602 15.1078 39.5957C12.5197 39.5816 10.7455 37.4322 10.7582 35.0742C10.7722 32.648 12.672 30.8895 15.0385 30.9033ZM4.84217 30.8477C7.20839 30.8605 9.00185 32.6567 9.1244 35.3008C9.1244 35.5027 9.00324 35.6038 8.8158 35.6026L1.81873 35.5635C2.06482 37.2163 3.36915 38.3359 4.91834 38.3447C5.97408 38.3511 6.87937 37.833 7.51307 37.2627C7.64947 37.1292 7.82032 37.1472 7.93885 37.2998L8.27674 37.7227C8.39517 37.8576 8.39362 38.0086 8.27381 38.1436C7.29715 39.1326 6.05261 39.5464 4.91151 39.5401C2.32469 39.5259 0.549162 37.3765 0.561897 35.0186C0.575922 32.5924 2.47567 30.8338 4.84217 30.8477ZM21.1683 31.0723C21.3047 31.0723 21.4232 31.1403 21.473 31.2764L23.9408 37.6416L26.4955 31.3047C26.5478 31.1697 26.6667 31.1023 26.8031 31.1035L27.5346 31.1074C27.722 31.1074 27.8065 31.2101 27.7377 31.3955L24.4076 39.3125C24.3553 39.4474 24.2363 39.514 24.1 39.5127L23.7426 39.5088C23.6063 39.5087 23.4876 39.4406 23.4379 39.3057L20.2133 31.3535C20.1458 31.1681 20.2332 31.0671 20.4193 31.0684L21.1683 31.0723ZM32.9447 32.1817C31.1739 32.1717 29.7361 33.579 29.7269 35.3135C29.7167 37.0824 31.1398 38.5056 32.9096 38.5156C34.6803 38.5256 36.1182 37.1195 36.1273 35.3496C36.1375 33.6148 34.7145 32.1918 32.9447 32.1817ZM15.0326 32.0313C13.6532 32.0239 12.2862 32.976 12.0209 34.626L18.0316 34.6592C17.8021 33.1755 16.5308 32.0401 15.0326 32.0313ZM4.83533 31.9756C3.45585 31.9681 2.08893 32.9203 1.82362 34.5703L7.83338 34.6035H7.83436C7.60485 33.1198 6.33352 31.9844 4.83533 31.9756Z" fill="#000E50"/>
</g>
</g>
<defs>
<clipPath id="clip0_6594_590">
<rect width="38" height="40" fill="white" transform="translate(0.00244141)"/>
</clipPath>
<clipPath id="clip1_6594_590">
<rect width="37.619" height="9.52381" fill="white" transform="translate(0.192932 30.4762)"/>
</clipPath>
</defs>
</svg>
