<svg width="24" height="24" viewBox="0 0 24 24" fill="none" xmlns="http://www.w3.org/2000/svg">
<path d="M12.3 19H4.5C4.08333 19 3.72917 18.8542 3.4375 18.5625C3.14583 18.2708 3 17.9167 3 17.5V5.5C3 5.08333 3.14583 4.72917 3.4375 4.4375C3.72917 4.14583 4.08333 4 4.5 4H6V2H7.5V4H14.5V2H16V4H17.5C17.9167 4 18.2708 4.14583 18.5625 4.4375C18.8542 4.72917 19 5.08333 19 5.5V12.3C18.8667 12.2833 18.7417 12.2708 18.625 12.2625C18.5083 12.2542 18.3833 12.25 18.25 12.25C18.1167 12.25 17.9917 12.2542 17.875 12.2625C17.7583 12.2708 17.6333 12.2833 17.5 12.3V8.5H4.5V17.5H12.3C12.2833 17.6333 12.2708 17.7583 12.2625 17.875C12.2542 17.9917 12.25 18.1167 12.25 18.25C12.25 18.3833 12.2542 18.5083 12.2625 18.625C12.2708 18.7417 12.2833 18.8667 12.3 19ZM17.5 22V19H14.5V17.5H17.5V14.5H19V17.5H22V19H19V22H17.5Z" fill="#000E50"/>
</svg>
