<svg width="30" height="29" viewBox="0 0 30 29" fill="none" xmlns="http://www.w3.org/2000/svg">
<path d="M15.0856 22.9362C14.8268 22.9362 14.6128 22.8518 14.4435 22.683C14.2743 22.5142 14.1897 22.3008 14.1897 22.0426V15.4894H7.61965C7.36083 15.4894 7.1468 15.405 6.97757 15.2362C6.80835 15.0674 6.72373 14.854 6.72373 14.5958C6.72373 14.3376 6.80835 14.1242 6.97757 13.9554C7.1468 13.7866 7.36083 13.7022 7.61965 13.7022H14.1897V7.14899C14.1897 6.89083 14.2743 6.67736 14.4435 6.50856C14.6128 6.33977 14.8268 6.25537 15.0856 6.25537C15.3444 6.25537 15.5584 6.33977 15.7277 6.50856C15.8969 6.67736 15.9815 6.89083 15.9815 7.14899V13.7022H22.5515C22.8104 13.7022 23.0244 13.7866 23.1936 13.9554C23.3628 14.1242 23.4475 14.3376 23.4475 14.5958C23.4475 14.854 23.3628 15.0674 23.1936 15.2362C23.0244 15.405 22.8104 15.4894 22.5515 15.4894H15.9815V22.0426C15.9815 22.3008 15.8969 22.5142 15.7277 22.683C15.5584 22.8518 15.3444 22.9362 15.0856 22.9362Z"/>
</svg>
