<svg width="84" height="97" viewBox="0 0 84 97" fill="none" xmlns="http://www.w3.org/2000/svg">
  <path d="M 81 23.4 L 44 2.1 C 42.8 1.4 41.2 1.4 40 2.1 L 3 23.4 C 1.8 24.1 1 25.4 1 26.9 V 70.3 C 1 71.8 1.8 73.1 3 73.8 L 40 95.1 C 41.2 95.8 42.8 95.8 44 95.1 L 81 73.8 C 82.2 73.1 83 71.8 83 70.3 V 26.9 C 83 25.4 82.2 24.1 81 23.4 Z" fill="white" fill-opacity="0.4" stroke="url(#paint0_linear_640_206)" stroke-width="2" stroke-linecap="round" stroke-dasharray="5 5"/>
  <path d="M 42.5 51.2 C 42.2 51.2 41.9 51.1 41.7 50.9 C 41.5 50.7 41.4 50.4 41.4 50.1 V 42.1 H 33.6 C 33.3 42.1 33.1 42 32.9 41.8 C 32.7 41.6 32.6 41.3 32.6 41 C 32.6 40.7 32.7 40.4 32.9 40.2 C 33.1 40 33.3 39.9 33.6 39.9 H 41.4 V 31.9 C 41.4 31.6 41.5 31.3 41.7 31.1 C 41.9 30.9 42.2 30.8 42.5 30.8 C 42.8 30.8 43 30.9 43.2 31.1 C 43.4 31.3 43.5 31.6 43.5 31.9 V 39.9 H 51.3 C 51.6 39.9 51.9 40 52.1 40.2 C 52.3 40.4 52.4 40.7 52.4 41 C 52.4 41.3 52.3 41.6 52.1 41.8 C 51.9 42 51.6 42.1 51.3 42.1 H 43.5 V 50.1 C 43.5 50.4 43.4 50.7 43.2 50.9 C 43 51.1 42.8 51.2 42.5 51.2 Z" fill="url(#paint1_linear_640_206)"/>
  <path d="M 36.1 68.8 H 32.6 L 32 70.5 H 30.6 L 33.6 62.2 H 35.1 L 38.1 70.5 H 36.7 L 36.1 68.8 Z M 35.7 67.7 L 34.4 63.8 L 33 67.7 H 35.7 Z M 39 67.2 C 39 66.5 39.1 65.9 39.4 65.4 C 39.7 64.9 40 64.5 40.5 64.2 C 41 63.9 41.5 63.8 42.1 63.8 C 42.5 63.8 43 63.9 43.4 64.1 C 43.8 64.3 44.1 64.5 44.4 64.8 V 61.6 H 45.8 V 70.5 H 44.4 V 69.5 C 44.2 69.8 43.9 70.1 43.5 70.3 C 43.1 70.5 42.6 70.6 42.1 70.6 C 41.5 70.6 41 70.5 40.5 70.2 C 40 69.9 39.7 69.5 39.4 69 C 39.1 68.4 39 67.8 39 67.2 Z M 44.4 67.2 C 44.4 66.7 44.3 66.4 44.1 66 C 43.9 65.7 43.7 65.4 43.4 65.2 C 43.1 65.1 42.7 65 42.4 65 C 42 65 41.7 65.1 41.4 65.2 C 41.1 65.4 40.8 65.7 40.7 66 C 40.5 66.3 40.4 66.7 40.4 67.2 C 40.4 67.6 40.5 68 40.7 68.4 C 40.8 68.7 41.1 69 41.4 69.2 C 41.7 69.3 42 69.4 42.4 69.4 C 42.7 69.4 43.1 69.3 43.4 69.2 C 43.7 69 43.9 68.7 44.1 68.4 C 44.3 68.1 44.4 67.7 44.4 67.2 Z M 47.1 67.2 C 47.1 66.5 47.2 65.9 47.5 65.4 C 47.8 64.9 48.2 64.5 48.6 64.2 C 49.1 63.9 49.7 63.8 50.2 63.8 C 50.7 63.8 51.1 63.9 51.5 64.1 C 51.9 64.3 52.3 64.5 52.5 64.8 V 61.6 H 53.9 V 70.5 H 52.5 V 69.5 C 52.3 69.8 52 70.1 51.6 70.3 C 51.2 70.5 50.7 70.6 50.2 70.6 C 49.7 70.6 49.1 70.5 48.6 70.2 C 48.2 69.9 47.8 69.5 47.5 69 C 47.2 68.4 47.1 67.8 47.1 67.2 Z M 52.5 67.2 C 52.5 66.7 52.4 66.4 52.2 66 C 52.1 65.7 51.8 65.4 51.5 65.2 C 51.2 65.1 50.9 65 50.5 65 C 50.2 65 49.8 65.1 49.5 65.2 C 49.2 65.4 49 65.7 48.8 66 C 48.6 66.3 48.5 66.7 48.5 67.2 C 48.5 67.6 48.6 68 48.8 68.4 C 49 68.7 49.2 69 49.5 69.2 C 49.8 69.3 50.2 69.4 50.5 69.4 C 50.9 69.4 51.2 69.3 51.5 69.2 C 51.8 69 52.1 68.7 52.2 68.4 C 52.4 68.1 52.5 67.7 52.5 67.2 Z" fill="#666e96"/>
  <defs>
  <linearGradient id="paint0_linear_640_206" x1="83" y1="1" x2="-18.8811" y2="33.1049" gradientUnits="userSpaceOnUse">
  <stop stop-color="#c3b7ff"/>
  <stop offset="1" stop-color="#6ff9d8"/>
  </linearGradient>
  <linearGradient id="paint1_linear_640_206" x1="52.3994" y1="30.8071" x2="28.348" y2="39.3545" gradientUnits="userSpaceOnUse">
  <stop stop-color="#c3b7ff"/>
  <stop offset="1" stop-color="#6ff9d8"/>
  </linearGradient>
  </defs>
  </svg>