<svg width="53" height="129" viewBox="0 0 53 129" fill="none" xmlns="http://www.w3.org/2000/svg">
<g clip-path="url(#clip0_266_5742)">
<path d="M17.3837 115.732C23.7282 118.883 29.022 121.227 33.4066 122.847C28.5161 114.49 24.3643 105.004 20.951 94.3891C17.5378 83.7741 15.3467 73.6093 14.3874 63.7481C13.6664 56.923 13.6305 48.6706 14.2894 38.8442C14.8057 31.1445 15.7276 23.9876 16.9866 17.2952C18.3189 10.6078 20.081 5.20136 22.356 0.934271L25.6943 2.77866C23.7373 6.69876 22.0633 11.8901 20.824 18.2891C19.5113 24.6832 18.6873 31.4784 18.2005 38.7382C17.5515 48.4179 17.5874 56.6703 18.3083 63.4954C19.2725 73.2833 21.3904 83.4431 24.745 93.8332C28.0947 104.297 32.2613 113.563 37.1666 121.7C38.376 116.845 39.9829 108.261 42.1289 96.0301L45.9225 96.5791C45.1629 101.316 44.1243 106.918 42.8898 113.244C41.5821 119.565 40.5439 124.062 39.7802 126.663L36.2988 128.05C32.398 126.904 26.4492 124.443 18.5258 120.671C10.5291 116.893 4.70774 113.63 1.06171 110.881L3.18467 107.783C6.27847 109.979 11.0392 112.582 17.3837 115.732Z" fill="#DEF7F6"/>
</g>
<defs>
<clipPath id="clip0_266_5742">
<rect width="125.898" height="43.8769" fill="white" transform="translate(52.2017 2.93555) rotate(93.8362)"/>
</clipPath>
</defs>
</svg>
