<svg width="32" height="32" viewBox="0 0 32 32" fill="none" xmlns="http://www.w3.org/2000/svg">
<path d="M20.9 28.4L9.20002 16.7C9.08891 16.5889 9.01114 16.4778 8.96669 16.3667C8.92225 16.2556 8.90002 16.1333 8.90002 16C8.90002 15.8667 8.92225 15.7444 8.96669 15.6333C9.01114 15.5222 9.08891 15.4111 9.20002 15.3L20.9 3.6C21.1445 3.35556 21.4556 3.23334 21.8334 3.23334C22.2111 3.23334 22.5222 3.35556 22.7667 3.6C23.0334 3.86667 23.1667 4.18334 23.1667 4.55C23.1667 4.91667 23.0334 5.23334 22.7667 5.5L12.2667 16L22.7667 26.5C23.0556 26.7889 23.1889 27.1111 23.1667 27.4667C23.1445 27.8222 23.0111 28.1222 22.7667 28.3667C22.5 28.6333 22.1834 28.7667 21.8167 28.7667C21.45 28.7667 21.1445 28.6444 20.9 28.4V28.4Z"/>
</svg>
