<svg width="303" height="399" viewBox="0 0 303 399" fill="none" xmlns="http://www.w3.org/2000/svg">
<g opacity="0.12">
<path d="M286.476 84.7564C286.476 81.3225 288.32 78.1532 291.306 76.4569L337.125 50.4233C340.049 48.7618 343.632 48.7618 346.556 50.4233L392.375 76.4569C395.361 78.1532 397.205 81.3225 397.205 84.7564L397.205 136.543C397.205 139.977 395.361 143.146 392.375 144.842L346.556 170.876C343.632 172.537 340.049 172.537 337.125 170.876L291.306 144.842C288.32 143.146 286.476 139.977 286.476 136.543L286.476 84.7564Z" stroke="#F9F8FF" stroke-width="1.27275"/>
<path d="M143.93 84.7505C143.93 81.3166 145.774 78.1474 148.76 76.451L194.579 50.4175C197.503 48.756 201.086 48.756 204.01 50.4175L249.829 76.451C252.815 78.1474 254.659 81.3166 254.659 84.7505L254.659 136.537C254.659 139.971 252.815 143.14 249.829 144.836L204.01 170.87C201.086 172.531 197.503 172.531 194.579 170.87L148.76 144.836C145.774 143.14 143.93 139.971 143.93 136.537L143.93 84.7505Z" stroke="#F9F8FF" stroke-width="1.27275"/>
<path d="M1.38004 84.7505C1.38004 81.3166 3.22443 78.1474 6.21004 76.451L52.0291 50.4175C54.9533 48.756 58.5361 48.756 61.4603 50.4175L107.279 76.451C110.265 78.1474 112.109 81.3166 112.109 84.7505L112.109 136.537C112.109 139.971 110.265 143.14 107.279 144.836L61.4603 170.87C58.5361 172.531 54.9533 172.531 52.029 170.87L6.21003 144.836C3.22442 143.14 1.38003 139.971 1.38003 136.537L1.38004 84.7505Z" stroke="#F9F8FF" stroke-width="1.27275"/>
<path d="M215.201 -27.2495C215.201 -30.6834 217.045 -33.8526 220.031 -35.549L265.85 -61.5825C268.774 -63.244 272.357 -63.244 275.281 -61.5825L321.1 -35.549C324.086 -33.8526 325.93 -30.6834 325.93 -27.2495L325.93 24.537C325.93 27.9709 324.086 31.1401 321.1 32.8365L275.281 58.87C272.357 60.5315 268.774 60.5315 265.85 58.87L220.031 32.8365C217.045 31.1401 215.201 27.9708 215.201 24.537L215.201 -27.2495Z" stroke="#F9F8FF" stroke-width="1.27275"/>
<path d="M72.6549 -27.2495C72.6549 -30.6834 74.4993 -33.8526 77.4849 -35.549L123.304 -61.5825C126.228 -63.244 129.811 -63.244 132.735 -61.5825L178.554 -35.549C181.54 -33.8526 183.384 -30.6834 183.384 -27.2495L183.384 24.537C183.384 27.9709 181.54 31.1401 178.554 32.8365L132.735 58.87C129.811 60.5315 126.228 60.5315 123.304 58.87L77.4849 32.8365C74.4993 31.1401 72.6549 27.9708 72.6549 24.537L72.6549 -27.2495Z" stroke="#F9F8FF" stroke-width="1.27275"/>
<path d="M72.6549 196.755C72.6549 193.322 74.4993 190.152 77.4849 188.456L123.304 162.422C126.228 160.761 129.811 160.761 132.735 162.422L178.554 188.456C181.54 190.152 183.384 193.322 183.384 196.755L183.384 248.542C183.384 251.976 181.54 255.145 178.554 256.841L132.735 282.875C129.811 284.536 126.228 284.536 123.304 282.875L77.4849 256.841C74.4993 255.145 72.6549 251.976 72.6549 248.542L72.6549 196.755Z" stroke="#F9F8FF" stroke-width="1.27275"/>
<path d="M286.476 308.756C286.476 305.322 288.32 302.153 291.306 300.457L337.125 274.423C340.049 272.762 343.632 272.762 346.556 274.423L392.375 300.457C395.361 302.153 397.205 305.323 397.205 308.756L397.205 360.543C397.205 363.977 395.361 367.146 392.375 368.842L346.556 394.876C343.632 396.537 340.049 396.537 337.125 394.876L291.306 368.842C288.32 367.146 286.476 363.977 286.476 360.543L286.476 308.756Z" stroke="#F9F8FF" stroke-width="1.27275"/>
<path d="M143.93 308.756C143.93 305.322 145.774 302.153 148.76 300.457L194.579 274.423C197.503 272.762 201.086 272.762 204.01 274.423L249.829 300.457C252.815 302.153 254.659 305.323 254.659 308.756L254.659 360.543C254.659 363.977 252.815 367.146 249.829 368.842L204.01 394.876C201.086 396.537 197.503 396.537 194.579 394.876L148.76 368.842C145.774 367.146 143.93 363.977 143.93 360.543L143.93 308.756Z" stroke="#F9F8FF" stroke-width="1.27275"/>
<path d="M215.201 196.755C215.201 193.322 217.045 190.152 220.031 188.456L265.85 162.422C268.774 160.761 272.357 160.761 275.281 162.422L321.1 188.456C324.086 190.152 325.93 193.322 325.93 196.755L325.93 248.542C325.93 251.976 324.086 255.145 321.1 256.841L275.281 282.875C272.357 284.536 268.774 284.536 265.85 282.875L220.031 256.841C217.045 255.145 215.201 251.976 215.201 248.542L215.201 196.755Z" stroke="#F9F8FF" stroke-width="1.27275"/>
</g>
</svg>
