<svg width="25" height="24" viewBox="0 0 25 24" fill="none" xmlns="http://www.w3.org/2000/svg">
<path d="M15.68 10.94C15.88 10.5 16 10.02 16 9.5C16 7.57 14.43 6 12.5 6C11.98 6 11.5 6.12 11.06 6.32L15.68 10.94Z" fill="#FF6961"/>
<path d="M12.5 2C6.98 2 2.5 6.48 2.5 12C2.5 17.52 6.98 22 12.5 22C18.02 22 22.5 17.52 22.5 12C22.5 6.48 18.02 2 12.5 2ZM4.5 12C4.5 10.15 5.13 8.45 6.19 7.1L9.05 9.96C9.26 11.52 10.48 12.75 12.04 12.95L14.24 15.15C13.67 15.05 13.09 15 12.5 15C10.18 15 8.05 15.8 6.36 17.12C5.2 15.73 4.5 13.95 4.5 12ZM12.5 20C10.76 20 9.16 19.44 7.85 18.5C9.16 17.56 10.76 17 12.5 17C14.24 17 15.84 17.56 17.15 18.5C15.84 19.44 14.24 20 12.5 20ZM18.81 16.9L7.6 5.69C8.95 4.63 10.65 4 12.5 4C16.92 4 20.5 7.58 20.5 12C20.5 13.85 19.87 15.54 18.81 16.9Z" fill="#FF6961"/>
</svg>
