<svg width="59" height="59" viewBox="0 0 59 59" fill="none" xmlns="http://www.w3.org/2000/svg">
<g clip-path="url(#clip0_859_1260)">
<path d="M12.5406 31.7071L13.2252 33.1992C8.71308 35.0643 4.60548 37.2402 0.964662 39.7582L0 38.3904C4.07648 35.686 8.24631 33.4478 12.5406 31.7071ZM3.39188 22.8788C5.47679 23.9668 7.09494 24.775 8.24631 25.3035C9.39768 25.8319 10.6424 26.2982 11.9494 26.6712L11.5137 28.3188C9.21097 27.6349 6.22363 26.3293 2.55169 24.402L3.39188 22.8788ZM15.9947 36.6496L17.2083 37.6133C13.2874 42.6802 9.24209 48.2756 5.13449 54.3994L3.7653 53.4357C8.09072 47.0321 12.1672 41.4368 15.9947 36.6496ZM6.22363 11.7192L7.59283 10.7555C10.3623 14.921 13.1007 18.8688 15.8703 22.6301L14.5011 23.5938C11.7627 19.8325 8.99314 15.8846 6.22363 11.7192ZM16.5549 4.6628C17.4573 7.08746 18.4842 10.0406 19.6667 13.46L21.9694 20.019L20.4757 20.5474L18.173 13.9884C16.9905 10.569 15.9636 7.61591 15.0612 5.19125L16.5549 4.6628ZM21.6893 39.696L23.3075 39.9758C22.5295 45.7266 21.5649 51.8504 20.3824 58.4094L18.7642 58.1296C19.9467 51.5706 20.9425 45.4157 21.6893 39.696ZM28.6287 0H30.2468C29.9668 8.39304 29.7489 14.7034 29.5622 18.8999L27.9441 18.7756C28.1308 14.6412 28.3486 8.39304 28.6287 0ZM29.8423 41.53C30.5269 48.8973 31.0248 54.6791 31.3982 58.8757L29.7801 59C29.4066 54.8035 28.9088 49.0216 28.2242 41.6544L29.8423 41.53ZM35.2569 39.2919C36.6883 43.4573 38.2753 48.3999 40.0179 54.1818L38.3998 54.5859C37.1862 50.0785 35.6303 45.1359 33.7943 39.8203L35.2569 39.2919ZM43.5343 9.60537L44.7479 10.6934L35.9415 20.0501L34.7278 18.9621L43.5343 9.60537ZM40.1424 35.0954C41.7605 36.4631 44.2189 38.4526 47.4552 41.0638L52.2162 44.8562L51.1893 46.1307C49.5712 44.7629 47.1129 42.8045 43.8766 40.1623L39.1155 36.3699L40.1424 35.0954ZM54.6435 15.294L55.7326 16.5063C51.2205 20.7961 45.9926 23.8425 40.0802 25.6454L39.5512 24.1533C45.2769 22.4125 50.318 19.4594 54.6435 15.294ZM58.5955 27.3551L59 28.9715C54.9858 29.9663 49.1044 30.7434 41.356 31.334L41.2315 29.7176C48.8555 29.1581 54.6435 28.3498 58.5955 27.3551Z" fill="#C3B7FF"/>
</g>
<defs>
<clipPath id="clip0_859_1260">
<rect width="59" height="59" fill="white"/>
</clipPath>
</defs>
</svg>
