<svg width="36" height="45" viewBox="0 0 36 45" fill="none" xmlns="http://www.w3.org/2000/svg">
<path d="M31.53 24.59C30.59 28.8 29.53 32.16 28.38 34.69C26.96 37.74 25.05 40.19 22.65 42.06C20.25 43.93 17.65 44.86 14.86 44.86C11.68 44.86 8.97 43.68 6.72 41.32C4.47 38.96 2.78001 36.01 1.67001 32.47C0.550013 28.93 0 25.42 0 21.95C0 18.78 0.400002 15.49 1.19 12.1C1.98 8.71 3.21998 5.85 4.88998 3.51C6.55998 1.17 8.64001 0 11.13 0C13.02 0 14.65 0.710003 16.02 2.12C17.39 3.54 18.43 5.36 19.14 7.59C19.85 9.82 20.2 12.16 20.2 14.61C20.2 17.44 19.63 20.33 18.49 23.27C17.35 26.21 15.69 29.01 13.5 31.67L12.34 30.64C14.44 28.11 16.02 25.47 17.07 22.72C18.12 19.97 18.65 17.27 18.65 14.61C18.65 11.05 17.97 7.98 16.62 5.41C15.27 2.84 13.43 1.55 11.12 1.55C9.01999 1.55 7.25 2.62 5.81 4.77C4.37 6.92 3.3 9.56 2.59 12.72C1.88 15.87 1.53 18.95 1.53 21.96C1.53 25.31 2.03001 28.63 3.04001 31.94C4.05001 35.25 5.55999 37.97 7.57999 40.11C9.59999 42.26 12.02 43.33 14.85 43.33C17.38 43.33 19.7 42.49 21.8 40.82C23.9 39.15 25.62 36.89 26.95 34.06C27.64 32.64 28.2 31.14 28.66 29.55C29.11 27.96 29.57 26.1 30.04 23.95L27.66 26.07L26.69 24.85C27.68 24.04 29.09 22.77 30.94 21.05C31.84 22.25 32.58 23.33 33.16 24.3C33.74 25.27 34.37 26.43 35.06 27.81L33.64 28.45C32.65 26.52 31.94 25.23 31.52 24.59H31.53Z" fill="#6FF9D8"/>
</svg>
