<svg width="65" height="65" viewBox="0 0 65 65" fill="none" xmlns="http://www.w3.org/2000/svg">
<path d="M41.3465 25.0924L50.1986 54.2413C50.4441 55.0496 49.6064 55.7622 48.8486 55.389C47.9988 54.9708 47.1562 54.6036 46.8709 54.4369C43.7371 52.6091 40.6038 50.7819 37.47 48.954C34.1478 47.0161 30.8256 45.0787 27.5027 43.1408C25.8892 42.1995 24.1486 41.473 22.5982 40.4228C21.5938 39.7427 20.6994 37.8336 19.5535 37.6031C18.9294 37.4779 18.3299 37.8595 17.7888 38.1947C16.788 38.8146 15.7239 39.3328 14.6183 39.7379C11.78 40.7779 9.69515 40.0484 7.99431 37.5929C7.70844 37.18 7.43218 36.7401 7.35394 36.2435C7.20408 35.2974 8.00695 34.7931 8.52575 34.1425C9.40204 33.0423 9.4538 31.5046 9.29973 30.1058C9.10834 28.3713 8.47279 26.177 9.71922 24.7024C10.6419 23.6107 12.3391 23.1575 12.8176 21.6998C13.0162 21.0955 12.6063 20.4762 12.2229 19.9689C11.3761 18.8464 10.507 17.5121 10.8134 16.1393C11.0553 15.0535 11.9774 14.2639 12.8976 13.6386C13.733 13.071 14.7074 12.5125 15.7432 12.4692C16.7446 12.4271 17.6799 12.9206 18.6802 12.9663C19.4813 13.003 20.2552 12.6804 21.0545 12.613C22.4002 12.4999 23.9554 13.0602 24.9888 12.1899C25.4865 11.771 25.7086 11.1204 25.9795 10.5282C26.6547 9.05127 27.7724 7.65858 29.2427 6.92793C31.0537 6.02756 33.2733 5.68631 35.1324 6.64988C35.5814 6.88279 36.0153 7.20779 36.2067 7.67664C36.7676 9.05187 34.9777 10.3489 35.0036 11.8336C35.0217 12.8435 35.9293 13.6675 36.9121 13.9022C36.9217 13.9046 36.9314 13.907 36.941 13.9088C38.4992 14.2639 39.42 15.8781 38.897 17.3887C38.7887 17.7017 38.6876 18.0201 38.6039 18.3481C38.4823 18.8253 38.8952 19.2442 39.1064 19.639C40.5671 22.3654 41.3459 25.0924 41.3459 25.0924H41.3465Z" fill="#DEF7F6"/>
<path d="M41.6939 31.4113L43.5813 37.5375C41.7529 38.1935 40.3867 39.7619 39.2348 41.3418C38.0347 42.9879 36.9122 44.7663 35.2252 45.9075C36.9128 44.7663 38.0353 42.9879 39.2348 41.3418C40.3867 39.7619 41.7529 38.1935 43.5813 37.5375L45.5801 44.0255C44.9343 44.3751 44.4498 45.0907 44.2121 45.8148C43.8792 46.8301 43.8606 47.9309 43.4947 48.9348C43.3141 49.4295 43.0042 49.911 42.6087 50.2601L27.9187 41.65C30.5795 41.3298 33.3396 40.8892 35.4232 39.2275C38.0473 37.1349 39.0849 33.4943 41.6933 31.4113H41.6939Z" fill="#F2C90F"/>
<path d="M43.4946 48.9342C43.8605 47.9303 43.8792 46.8295 44.212 45.8142C44.4498 45.0902 44.9342 44.3752 45.58 44.0249L48.0296 51.9742C48.2246 52.6067 47.5397 53.149 46.9685 52.8143L42.6087 50.2589C43.0041 49.9098 43.3141 49.4283 43.4946 48.9336V48.9342Z" fill="#2A46BE"/>
<path d="M47.3381 52.948C47.503 52.948 47.6661 52.892 47.8051 52.7818C48.0555 52.5838 48.1524 52.2715 48.0585 51.9663L45.5988 43.9816L45.5663 43.999C44.965 44.3246 44.448 44.9999 44.1838 45.8052C44.0249 46.2891 43.9364 46.8 43.8504 47.2936C43.7559 47.837 43.6584 48.3992 43.4664 48.924C43.2798 49.4362 42.9681 49.902 42.5889 50.2372L42.5576 50.2649L46.9535 52.8414C47.0751 52.913 47.2075 52.948 47.3381 52.948ZM45.5626 44.07L48.0007 51.9838C48.0874 52.2643 47.9977 52.5519 47.7678 52.7343C47.5373 52.9167 47.237 52.9377 46.9836 52.7891L42.6593 50.2547C43.0319 49.9158 43.3376 49.4524 43.523 48.945C43.7162 48.4154 43.8143 47.8503 43.9094 47.3044C43.9948 46.8127 44.0833 46.3041 44.2404 45.8244C44.495 45.048 44.9879 44.395 45.562 44.07H45.5626Z" fill="url(#paint0_linear_116_1499)"/>
<path d="M23.5132 37.9184L38.9291 25.7917C39.3299 25.4764 39.9215 25.6617 40.072 26.1486L41.6934 31.4112C39.0843 33.4942 38.0467 37.1348 35.4233 39.2275C33.3397 40.8892 30.5796 41.3291 27.9188 41.6499L23.5951 39.1161C23.1539 38.8573 23.1112 38.2356 23.5132 37.919V37.9184Z" fill="#2A46BE"/>
<path d="M27.9119 41.6806L27.9221 41.6794C30.589 41.3581 33.3665 40.9061 35.4417 39.251C36.7597 38.1995 37.692 36.7382 38.5936 35.3245C39.4885 33.9216 40.4136 32.4711 41.7118 31.4347L41.728 31.4221L41.722 31.4022L40.1006 26.1396C40.0272 25.9013 39.8412 25.7147 39.6035 25.6407C39.3658 25.5667 39.1064 25.6142 38.9108 25.7683L23.4949 37.895C23.2981 38.0497 23.191 38.291 23.2078 38.5408C23.2247 38.7906 23.3637 39.015 23.5798 39.1414L27.9119 41.6806ZM41.6588 31.4004C40.3612 32.4422 39.4374 33.8909 38.5436 35.292C37.6445 36.7015 36.7152 38.1586 35.405 39.204C33.3442 40.8477 30.5805 41.2985 27.9258 41.6187L23.6111 39.0897C23.4095 38.9717 23.2849 38.7701 23.2686 38.5366C23.253 38.3031 23.3487 38.087 23.5328 37.9419L38.9487 25.8152C39.1316 25.6714 39.364 25.6287 39.5866 25.6979C39.8087 25.7671 39.9754 25.9344 40.044 26.1571L41.6594 31.4004H41.6588Z" fill="url(#paint1_linear_116_1499)"/>
<path d="M23.1061 37.8141C21.594 35.8542 23.9342 31.5144 28.3329 28.1208C32.7316 24.7272 37.5232 23.565 39.0352 25.5248C40.5472 27.4847 38.2071 31.8245 33.8084 35.2181C29.4097 38.6117 24.6181 39.7739 23.1061 37.8141Z" fill="#DEF7FB"/>
<path d="M25.5374 39.4243C26.1422 39.4243 26.8103 39.3376 27.5313 39.1631C29.6408 38.6515 32.0145 37.4352 34.2137 35.7391C36.4128 34.0425 38.1919 32.0558 39.2223 30.1449C40.3411 28.0704 40.4615 26.2847 39.5611 25.1171C38.6608 23.9495 36.9027 23.6124 34.6121 24.1679C32.5026 24.6795 30.1289 25.8959 27.9297 27.5919C25.7306 29.2879 23.9515 31.2752 22.9211 33.1861C21.8023 35.2607 21.6819 37.0464 22.5823 38.214C23.1992 39.0138 24.2193 39.4243 25.5374 39.4243ZM36.6078 25.2308C37.4932 25.2308 38.1576 25.4667 38.5121 25.9266C39.0658 26.6446 38.8997 27.953 38.0565 29.5172C37.1122 31.268 35.4601 33.1054 33.4048 34.6913C31.3495 36.2772 29.1527 37.4087 27.2189 37.8769C25.4922 38.2958 24.1844 38.1237 23.6307 37.4057C23.077 36.6877 23.2431 35.3792 24.0863 33.815C25.0306 32.0642 26.6827 30.2268 28.738 28.6409C30.7933 27.055 32.9901 25.9235 34.9239 25.4553C35.5444 25.3048 36.1113 25.2308 36.6078 25.2308Z" fill="#2A46BE"/>
<path d="M28.3316 34.403C28.331 34.267 28.3213 34.1322 28.3033 33.9974L28.3195 34.1171C28.2798 33.8349 28.2028 33.5598 28.0932 33.2962L28.139 33.404C28.0529 33.1999 27.9482 33.0043 27.826 32.8202C27.7947 32.7726 27.7616 32.7257 27.7279 32.6793C27.7074 32.6516 27.637 32.5668 27.7339 32.6853C27.7159 32.6631 27.6984 32.6402 27.6804 32.6185C27.6099 32.5331 27.5359 32.45 27.4583 32.3712C27.3806 32.2923 27.2994 32.2171 27.2145 32.1455C27.1929 32.1268 27.1706 32.1088 27.1483 32.0913C27.0586 32.0191 27.2169 32.1419 27.1555 32.0961C27.1128 32.0642 27.0695 32.0329 27.0255 32.0028C26.8402 31.8765 26.6434 31.7687 26.4363 31.6809L26.5441 31.7266C26.2937 31.6225 26.0331 31.5502 25.7647 31.5135L25.8844 31.5298C25.6052 31.4937 25.3235 31.4949 25.0448 31.531L25.1646 31.5147C24.8571 31.5563 24.5579 31.6387 24.2715 31.7579C24.3076 31.7428 24.3431 31.7278 24.3792 31.7121C24.1776 31.797 23.9838 31.8993 23.8008 32.0185C23.7593 32.0456 23.719 32.0733 23.6786 32.1015C23.6558 32.1178 23.6329 32.1346 23.6106 32.1515C23.5191 32.2201 23.6774 32.0973 23.6185 32.1455C23.5366 32.2123 23.4566 32.2803 23.3801 32.3531C23.3037 32.4259 23.2309 32.5018 23.1617 32.5812C23.1249 32.6233 23.0906 32.6679 23.0545 32.7112C23.1586 32.5866 23.0485 32.7208 23.0244 32.7552C22.8986 32.9333 22.7927 33.1247 22.7067 33.3251L22.7524 33.2174C22.6946 33.3546 22.6561 33.4972 22.6344 33.6447L22.6507 33.5249C22.632 33.6664 22.629 33.8084 22.6471 33.9504L22.6308 33.8307C22.6447 33.9288 22.6681 34.0239 22.706 34.1153L22.6603 34.0076C22.676 34.0431 22.6928 34.0774 22.7127 34.1099C22.7235 34.1286 22.7367 34.1454 22.7482 34.1635C22.6693 34.0401 22.694 34.0961 22.7229 34.1274C22.7355 34.1412 22.7482 34.1539 22.762 34.1665C22.83 34.2285 22.6934 34.1208 22.7259 34.1406C22.7608 34.1617 22.7939 34.1833 22.8312 34.2002L22.7235 34.1545C22.7771 34.1767 22.8324 34.1924 22.8896 34.2008C22.8499 34.1954 22.8096 34.19 22.7698 34.1846C22.8204 34.1906 22.8704 34.1912 22.9209 34.1858C22.8812 34.1912 22.8409 34.1966 22.8011 34.202C22.8547 34.1942 22.9059 34.1803 22.9558 34.1593L22.8481 34.205C22.8728 34.1942 22.8962 34.1821 22.9197 34.1683C22.9396 34.1563 23.0136 34.1015 22.9414 34.1575C22.8692 34.2134 22.9414 34.1551 22.9588 34.1382C22.9793 34.1183 22.9992 34.0979 23.0172 34.0762C23.025 34.0672 23.0317 34.0582 23.0395 34.0491C22.945 34.1557 22.9865 34.1208 23.0058 34.0913C23.0202 34.0684 23.0359 34.0467 23.0497 34.0233C23.0816 33.9703 23.1081 33.9149 23.1322 33.8584L23.0864 33.9661C23.1346 33.8475 23.1671 33.7247 23.1845 33.5984L23.1683 33.7181C23.1833 33.599 23.1845 33.4798 23.1683 33.3606L23.1845 33.4804C23.1592 33.3107 23.1087 33.144 23.0431 32.9863L23.0888 33.094C23.0232 32.9399 22.9414 32.7931 22.8433 32.6571C22.833 32.6426 22.8222 32.6282 22.8114 32.6137C22.768 32.5553 22.8932 32.716 22.827 32.6348C22.8005 32.6023 22.7735 32.5704 22.7452 32.5397C22.691 32.4795 22.6338 32.4223 22.5742 32.3676C22.5454 32.3411 22.5159 32.3152 22.4858 32.2899C22.4671 32.2743 22.4485 32.2592 22.4292 32.2442C22.3696 32.1954 22.5249 32.3158 22.4629 32.2701C22.3937 32.2195 22.3239 32.1702 22.251 32.1244C22.1036 32.0323 21.9483 31.9529 21.7882 31.8849L21.896 31.9306C21.5962 31.8054 21.2815 31.7224 20.9601 31.679C20.9998 31.6845 21.0401 31.6899 21.0798 31.6953C20.7621 31.6544 20.4413 31.6526 20.1235 31.6941C20.1632 31.6887 20.2035 31.6833 20.2433 31.6778C19.9237 31.7212 19.6179 31.8127 19.3206 31.9366C19.3567 31.9216 19.3923 31.9065 19.4284 31.8909C19.1268 32.0191 18.8392 32.178 18.5683 32.3621C18.5039 32.4061 18.4401 32.4512 18.3775 32.4982C18.3492 32.5192 18.2403 32.6089 18.3571 32.5126C18.321 32.5427 18.283 32.571 18.2469 32.6005C18.1187 32.7052 17.9948 32.8147 17.875 32.9285C17.6318 33.1584 17.4043 33.4052 17.1889 33.6609C17.1371 33.7223 17.0866 33.7843 17.036 33.8469C17.0107 33.8782 16.986 33.9095 16.9608 33.9414C16.9505 33.954 16.9409 33.9667 16.9313 33.9793C16.9217 33.992 16.9114 34.0046 16.9018 34.0172C16.9475 33.9577 16.9566 33.9462 16.9283 33.9829C16.826 34.1171 16.7261 34.2532 16.6279 34.3904C16.5214 34.5402 16.4173 34.6919 16.315 34.8448C16.1994 35.0175 16.0815 35.1909 15.999 35.3828L16.0448 35.2751C16.0117 35.3564 15.9858 35.4388 15.9719 35.5255L15.9882 35.4057C15.9792 35.4743 15.9779 35.5405 15.987 35.6091L15.9707 35.4894C15.9785 35.5369 15.99 35.5827 16.008 35.6272L15.9623 35.5195C15.9761 35.5514 15.993 35.5796 16.0111 35.6091C16.0544 35.6802 15.9346 35.5231 15.9834 35.5724C15.9942 35.5833 16.0044 35.5947 16.0159 35.6055C16.0273 35.6164 16.0393 35.6254 16.0508 35.6356C15.9412 35.5369 15.9767 35.5796 16.0098 35.6013C16.0405 35.6212 16.0736 35.638 16.1067 35.6525L15.999 35.6067C16.064 35.6338 16.1308 35.6519 16.2006 35.6615C16.1609 35.6561 16.1206 35.6507 16.0809 35.6452C16.1573 35.6549 16.2337 35.6543 16.3102 35.6446C16.2704 35.6501 16.2301 35.6555 16.1904 35.6609C16.2554 35.6513 16.3186 35.6344 16.38 35.6097C16.3439 35.6248 16.3084 35.6398 16.2723 35.6555C16.3072 35.6404 16.3409 35.6236 16.3734 35.6037C16.3908 35.5929 16.4534 35.5459 16.3806 35.6019C16.3078 35.6579 16.3698 35.6091 16.3842 35.5953C16.3962 35.5839 16.4065 35.5718 16.4179 35.5598C16.4636 35.5128 16.3397 35.6729 16.4017 35.5802C16.4269 35.5417 16.448 35.5014 16.4667 35.4593L16.4209 35.567C16.448 35.5008 16.4667 35.4328 16.4775 35.3618L16.4612 35.4815C16.4721 35.3967 16.4715 35.3124 16.4612 35.227L16.4775 35.3467C16.4642 35.2534 16.439 35.1644 16.4035 35.0771L16.4492 35.1848C16.4239 35.1258 16.395 35.0687 16.3601 35.0151C16.3511 35.0007 16.3415 34.9868 16.3318 34.973C16.2975 34.9218 16.3655 35.0139 16.3661 35.0157C16.3625 34.9946 16.315 34.9555 16.2999 34.9399C16.2789 34.9182 16.2572 34.8971 16.2343 34.8779C16.2079 34.855 16.1603 34.8309 16.271 34.9044C16.259 34.8965 16.2476 34.8869 16.2355 34.8791C16.1705 34.8346 16.1013 34.7978 16.0291 34.7659L16.1368 34.8117C16.0207 34.7629 15.8997 34.731 15.7751 34.713C15.8148 34.7184 15.8552 34.7238 15.8949 34.7292C15.736 34.7088 15.5765 34.7106 15.4182 34.731L15.538 34.7148C15.3502 34.7413 15.1703 34.7942 14.9951 34.8671L15.1029 34.8213C14.6822 35.0013 14.3162 35.2793 13.9551 35.5562C13.8691 35.6224 13.7066 35.629 13.6073 35.6019C13.5025 35.573 13.3888 35.4924 13.3376 35.3943C13.2823 35.2896 13.2546 35.1626 13.2919 35.0464C13.3292 34.9302 13.4008 34.8526 13.4995 34.7768C14.0207 34.3765 14.5841 33.9583 15.2497 33.8511C15.5982 33.7952 15.9629 33.7909 16.2999 33.9113C16.6478 34.0353 16.9391 34.2465 17.1389 34.5601C17.2996 34.8123 17.3965 35.1433 17.3682 35.4436C17.3333 35.8162 17.1756 36.1358 16.8681 36.356C16.655 36.5089 16.3553 36.5781 16.0959 36.5504C15.7817 36.5173 15.4868 36.397 15.2888 36.1412C15.0469 35.8282 15.0234 35.4099 15.1685 35.0476C15.2954 34.7298 15.4898 34.4524 15.683 34.1719C16.0363 33.6585 16.4137 33.1578 16.8356 32.698C17.2473 32.2502 17.7089 31.8421 18.2204 31.5111C18.6965 31.2036 19.2388 30.9508 19.7973 30.8407C20.8006 30.6433 21.9086 30.816 22.7692 31.3841C23.1923 31.6634 23.5673 32.0359 23.8002 32.4903C24.0548 32.9887 24.1734 33.5634 23.9934 34.1075C23.9061 34.3717 23.7647 34.6396 23.5468 34.8201C23.2736 35.0464 22.948 35.1403 22.5971 35.0615C21.9838 34.9242 21.7136 34.2748 21.7323 33.7019C21.7509 33.1289 21.9965 32.6203 22.3323 32.181C22.688 31.7164 23.1352 31.3282 23.6558 31.0579C24.1752 30.7889 24.7427 30.6294 25.3277 30.6029C25.9175 30.5765 26.4971 30.7101 27.0286 30.9622C28.0535 31.4497 28.8522 32.4428 29.126 33.5424C29.1958 33.8222 29.2331 34.1141 29.2349 34.403C29.2361 34.639 29.0261 34.8652 28.7835 34.8544C28.538 34.8436 28.334 34.6564 28.3322 34.403H28.3316ZM35.0175 28.3327C34.5108 28.4038 34.0046 28.4266 33.4942 28.3749C32.9905 28.3237 32.4934 28.2238 32.0143 28.0595C31.0579 27.7309 30.1732 27.1892 29.4739 26.4562C28.7745 25.7231 28.2587 24.8233 27.9656 23.855C27.82 23.3741 27.7339 22.8727 27.7032 22.3714C27.6719 21.8658 27.6792 21.3296 27.8856 20.8596C27.9879 20.6266 28.1793 20.4112 28.4134 20.3058C28.5548 20.2421 28.7011 20.1987 28.8594 20.2053C29.0177 20.212 29.1543 20.2523 29.2987 20.3179C29.7435 20.5207 30.0384 21.0407 30.0438 21.5204C30.0498 22.0669 29.6689 22.5333 29.2301 22.8138C28.7914 23.0942 28.3267 23.1947 27.8423 23.2573C26.9268 23.3747 25.9934 23.1881 25.1592 22.8071C24.3232 22.4256 23.595 21.8021 23.0924 21.0329C22.5809 20.2493 22.3317 19.2965 22.3401 18.3643C22.3485 17.4296 22.6085 16.4817 23.1141 15.6927C23.2459 15.4868 23.3958 15.2906 23.5571 15.1064C23.7184 14.9223 24.0379 14.9349 24.1956 15.1064C24.3702 15.2966 24.3617 15.5542 24.1956 15.745C24.1565 15.7896 24.1186 15.8347 24.0813 15.881C24.0085 15.9719 24.13 15.8148 24.0837 15.8768C24.0704 15.8943 24.0572 15.9123 24.044 15.9298C23.9766 16.0219 23.9128 16.117 23.8526 16.2139C23.7346 16.4052 23.6329 16.6057 23.545 16.8127L23.5908 16.705C23.4313 17.0871 23.3235 17.488 23.2682 17.8984L23.2844 17.7787C23.2297 18.197 23.2297 18.6201 23.2856 19.0377L23.2694 18.918C23.3229 19.3056 23.4247 19.6841 23.5769 20.0446L23.5312 19.9369C23.6179 20.1397 23.7196 20.3359 23.8369 20.5225C23.8947 20.614 23.9561 20.7031 24.0205 20.7897C24.0289 20.8012 24.0398 20.8126 24.0464 20.824C24.0506 20.8319 23.9796 20.7386 24.0091 20.7753C24.0247 20.7952 24.0404 20.815 24.056 20.8343C24.0921 20.8788 24.1294 20.9227 24.1673 20.9661C24.31 21.128 24.4653 21.279 24.6302 21.4181C24.6687 21.4506 24.7078 21.4825 24.7475 21.5138C24.8017 21.5571 24.7084 21.4837 24.7072 21.4831C24.718 21.4921 24.7307 21.5005 24.7415 21.509C24.7644 21.5264 24.7879 21.5433 24.8113 21.5601C24.8992 21.6233 24.9889 21.6835 25.081 21.7407C25.2892 21.8701 25.5083 21.9826 25.734 22.0795L25.6262 22.0338C26.012 22.1963 26.4177 22.3088 26.8323 22.3654L26.7126 22.3491C27.0911 22.3991 27.4745 22.4015 27.8531 22.3527L27.7333 22.369C28.0198 22.3305 28.3015 22.2649 28.5681 22.1529L28.4604 22.1987C28.5464 22.162 28.6301 22.1204 28.7113 22.0735C28.7541 22.0482 28.7962 22.0217 28.8365 21.9934C28.854 21.9814 28.8702 21.9688 28.8877 21.9561C28.7679 22.0416 28.8425 21.991 28.8696 21.9676C28.9039 21.9387 28.9364 21.908 28.9677 21.8755C28.9822 21.8604 28.996 21.8454 29.0092 21.8303C29.0213 21.8171 29.0803 21.7425 29.0261 21.8129C28.9719 21.8833 29.0285 21.8069 29.0387 21.7924C29.0502 21.7756 29.061 21.7581 29.0712 21.7407C29.0959 21.6991 29.117 21.6558 29.1362 21.6119L29.0905 21.7196C29.1182 21.6522 29.1398 21.5842 29.1513 21.512L29.135 21.6317C29.1435 21.5637 29.1435 21.4963 29.135 21.4277L29.1513 21.5475C29.1398 21.4662 29.1182 21.3886 29.0875 21.3121L29.1332 21.4199C29.111 21.3675 29.0851 21.3176 29.0544 21.2694C29.0423 21.2502 28.9816 21.1683 29.0357 21.2387C29.0899 21.3091 29.0255 21.2297 29.0111 21.214C28.9942 21.196 28.9767 21.1791 28.9587 21.1629C28.9479 21.1533 28.9346 21.1442 28.9244 21.1334C28.8919 21.1009 29.0123 21.1948 28.9731 21.1713C28.925 21.143 28.8804 21.1129 28.8287 21.0907L28.9364 21.1364C28.8889 21.1177 28.8407 21.1039 28.7902 21.0967L28.9099 21.1129C28.8648 21.1075 28.8209 21.1069 28.7763 21.1117L28.8961 21.0955C28.8498 21.1021 28.8058 21.1141 28.7619 21.131L28.8696 21.0852C28.8299 21.1027 28.795 21.1238 28.7589 21.1466C28.7312 21.1641 28.8534 21.0642 28.7799 21.1328C28.7655 21.1466 28.7517 21.1605 28.7384 21.1755C28.7065 21.2116 28.7065 21.2453 28.7595 21.1466C28.7498 21.1641 28.7366 21.1797 28.7264 21.1972C28.7017 21.2381 28.6806 21.2808 28.662 21.3248L28.7077 21.2171C28.6566 21.3422 28.6271 21.474 28.6084 21.6077L28.6247 21.4879C28.5687 21.92 28.5916 22.369 28.6493 22.7999L28.6331 22.6802C28.7059 23.211 28.8498 23.7292 29.0574 24.2227L29.0116 24.115C29.126 24.3834 29.2578 24.6434 29.4089 24.8932C29.4853 25.0196 29.5666 25.1429 29.652 25.2633C29.6911 25.3187 29.7321 25.3728 29.773 25.427C29.8091 25.4746 29.6996 25.3343 29.7537 25.4017C29.764 25.4144 29.7736 25.427 29.7832 25.439C29.8079 25.4703 29.8332 25.501 29.8591 25.5317C30.0456 25.7556 30.2497 25.9651 30.4687 26.1577C30.5199 26.2028 30.5717 26.2467 30.6246 26.2901C30.6523 26.3129 30.6806 26.3352 30.7089 26.3575C30.7341 26.3773 30.7889 26.411 30.6842 26.3382C30.7004 26.3496 30.7161 26.3623 30.7323 26.3743C30.8509 26.4628 30.9737 26.5471 31.0989 26.6265C31.3769 26.8022 31.6688 26.9545 31.9716 27.0833L31.8638 27.0376C32.367 27.2494 32.8966 27.3939 33.4377 27.4667C33.3979 27.4613 33.3576 27.4558 33.3179 27.4504C33.8271 27.5166 34.3429 27.519 34.8526 27.4516L34.7329 27.4679C34.7485 27.4655 34.7648 27.4637 34.7804 27.4613C34.9062 27.4438 35.0139 27.4402 35.1283 27.507C35.2222 27.5618 35.3112 27.6689 35.3359 27.7766C35.3624 27.8922 35.3564 28.0216 35.2902 28.1245C35.2312 28.216 35.1331 28.3159 35.0205 28.3321L35.0175 28.3327Z" fill="#6FF9D8"/>
<path d="M29.1724 27.8669C28.8047 28.4627 28.2967 29.0032 27.6636 29.3186C27.0641 29.6171 26.3925 29.7182 25.7371 29.5617C25.125 29.4161 24.5809 29.0399 24.1596 28.5807C23.6805 28.0589 23.3357 27.4432 23.0709 26.7902C22.7537 26.009 22.5852 25.1682 22.54 24.3268C22.5214 23.9747 22.9342 23.7779 23.2195 23.9368C23.6005 24.1499 23.8105 24.5874 23.8978 24.9985C23.9947 25.4529 23.9941 25.938 23.8731 26.3875C23.7353 26.9003 23.4193 27.3415 22.9914 27.6508C22.6315 27.9108 22.1879 28.0318 21.7504 28.0643C21.0011 28.1203 20.2446 27.8416 19.6403 27.4119C18.9223 26.9015 18.3511 26.21 17.9208 25.445C17.4411 24.5934 17.1191 23.6455 16.9669 22.6807C16.9422 22.5255 16.9217 22.3702 16.9037 22.2143C16.891 22.1072 16.9633 21.9681 17.0361 21.8953C17.1143 21.8171 17.2431 21.7581 17.3551 21.7629C17.467 21.7677 17.5928 21.8062 17.674 21.8953C17.7601 21.9892 17.7914 22.0885 17.8065 22.2143C17.8125 22.2643 17.8185 22.3136 17.8251 22.3636L17.8089 22.2438C17.9064 22.9672 18.0959 23.6768 18.3794 24.3497L18.3337 24.2419C18.554 24.7601 18.829 25.2567 19.1672 25.708C19.1793 25.7243 19.1913 25.743 19.2052 25.758C19.2052 25.758 19.1305 25.6623 19.1727 25.7159L19.2304 25.7881C19.2732 25.8411 19.3165 25.8928 19.361 25.944C19.4459 26.0415 19.5338 26.136 19.6253 26.2268C19.7119 26.3129 19.8016 26.3954 19.8943 26.4742C19.937 26.5109 19.9809 26.5464 20.0249 26.5813C20.0857 26.6301 19.9298 26.5097 19.9924 26.5561C20.002 26.5633 20.0122 26.5711 20.0219 26.5783L20.0959 26.6325C20.3071 26.783 20.5328 26.9117 20.7718 27.0129L20.664 26.9671C20.8897 27.061 21.1251 27.129 21.3676 27.1621L21.2478 27.1459C21.4585 27.1736 21.6703 27.1748 21.881 27.1483C21.8413 27.1537 21.8009 27.1591 21.7612 27.1645C21.9448 27.1399 22.1241 27.0935 22.2951 27.0219L22.1873 27.0676C22.283 27.0267 22.3751 26.9786 22.4624 26.922C22.4846 26.9075 22.5069 26.8925 22.528 26.8774C22.6183 26.8124 22.4588 26.9358 22.5171 26.8871C22.5569 26.854 22.5954 26.8203 22.6327 26.7848C22.67 26.7493 22.7067 26.7089 22.7416 26.6686C22.7663 26.6397 22.8181 26.553 22.7392 26.6746C22.7555 26.6499 22.7747 26.6265 22.791 26.6018C22.862 26.4965 22.921 26.3839 22.9715 26.2672L22.9258 26.3749C22.9944 26.2106 23.0359 26.0373 23.0594 25.8609L23.0432 25.9807C23.0721 25.755 23.0715 25.5263 23.0432 25.3006L23.0594 25.4204C23.0347 25.2404 22.9926 25.0635 22.9222 24.8955L22.9679 25.0033C22.9475 24.9563 22.9258 24.9106 22.8999 24.8661C22.8879 24.845 22.8752 24.8239 22.8614 24.8035C22.8379 24.7674 22.7765 24.7048 22.8813 24.8251C22.853 24.7932 22.8259 24.7607 22.7946 24.7318C22.7874 24.7252 22.7717 24.7168 22.7669 24.7084C22.7669 24.7072 22.868 24.78 22.8241 24.7529C22.8042 24.7403 22.785 24.727 22.7645 24.7156C22.9908 24.5856 23.2171 24.4556 23.444 24.3256C23.4548 24.5296 23.4741 24.7324 23.5012 24.9347L23.4849 24.8149C23.571 25.4402 23.7335 26.0541 23.9784 26.6361L23.9327 26.5284C24.0982 26.9184 24.3004 27.2933 24.5484 27.637C24.5755 27.6743 24.6032 27.711 24.6309 27.7477C24.5424 27.6298 24.5971 27.7038 24.6182 27.7303C24.6357 27.7519 24.6531 27.773 24.6706 27.7947C24.7314 27.8675 24.7946 27.9385 24.8608 28.0071C24.927 28.0757 24.9956 28.1419 25.0666 28.2051C25.0979 28.2328 25.1298 28.2599 25.1617 28.2864C25.1719 28.2948 25.2116 28.3171 25.2134 28.3279C25.2134 28.3315 25.1286 28.2635 25.1593 28.2864C25.1719 28.2954 25.1846 28.305 25.1972 28.3147C25.3633 28.4368 25.5421 28.5398 25.7316 28.6204C25.6955 28.6054 25.66 28.5903 25.6239 28.5747C25.8099 28.6517 26.0037 28.7047 26.2029 28.7318L26.0831 28.7155C26.2781 28.7402 26.4743 28.7396 26.6693 28.7143C26.6296 28.7197 26.5893 28.7251 26.5496 28.7305C26.7608 28.7017 26.9654 28.6439 27.1622 28.5626C27.1261 28.5777 27.0906 28.5927 27.0545 28.6084C27.1965 28.5482 27.3338 28.476 27.4638 28.3929C27.5312 28.3502 27.5962 28.3038 27.6606 28.2557C27.7033 28.2238 27.5715 28.3267 27.6281 28.281C27.6449 28.2677 27.6612 28.2545 27.678 28.2406C27.7111 28.213 27.7442 28.1847 27.7761 28.1558C27.9037 28.0408 28.0223 27.9162 28.1318 27.7838C28.1439 27.7688 28.1565 27.7537 28.1685 27.7387C28.1794 27.7255 28.2341 27.655 28.1836 27.72C28.133 27.785 28.18 27.7236 28.1908 27.7092C28.2046 27.6899 28.2191 27.6707 28.2329 27.6514C28.2895 27.5726 28.3425 27.4913 28.3936 27.4089C28.5176 27.2079 28.8029 27.1128 29.0111 27.247C29.2128 27.377 29.306 27.6496 29.173 27.8645L29.1724 27.8669ZM34.751 21.9465C34.6619 20.5195 34.828 19.0684 35.2325 17.6974C35.3456 17.3146 35.478 16.9379 35.6285 16.5683C35.6748 16.4552 35.726 16.3631 35.8361 16.2987C35.933 16.2421 36.0757 16.218 36.184 16.253C36.2923 16.2879 36.3989 16.3559 36.4536 16.4606C36.5084 16.5653 36.5439 16.6983 36.4994 16.8085C36.1172 17.7461 35.856 18.7302 35.7206 19.7335L35.7368 19.6137C35.6339 20.3871 35.6056 21.1689 35.6544 21.9477C35.6688 22.1836 35.4365 22.4093 35.203 22.3991C34.946 22.3876 34.7672 22.2005 34.7516 21.9477L34.751 21.9465Z" fill="#C3B7FF"/>
<path d="M16.9453 17.3502C16.4512 17.1564 15.936 17.0234 15.4106 16.953L15.5304 16.9692C14.9586 16.8946 14.3802 16.894 13.8091 16.9692L13.9288 16.953C13.9108 16.9554 13.8927 16.9578 13.8747 16.9608C13.7489 16.9783 13.6412 16.9819 13.5268 16.9151C13.4329 16.8603 13.3438 16.7532 13.3192 16.6455C13.2927 16.5299 13.2987 16.4005 13.3649 16.2976C13.4239 16.2061 13.5214 16.1062 13.6345 16.0899C14.234 16.0057 14.8334 15.9834 15.4353 16.0538C16.0371 16.1242 16.6221 16.2579 17.1855 16.4793C17.2986 16.5239 17.3919 16.578 17.4551 16.687C17.5117 16.7839 17.5357 16.9265 17.5008 17.0348C17.4659 17.1432 17.3979 17.2497 17.2932 17.3045C17.1885 17.3592 17.0567 17.3936 16.9453 17.3502Z" fill="#6FF9D8"/>
<path d="M12.2108 38.767C11.2539 38.8038 10.3463 38.2976 9.7956 37.5308C9.64273 37.3178 9.52898 37.0776 9.44532 36.8297C9.36949 36.6058 9.53199 36.3265 9.76069 36.2742C10.0105 36.217 10.235 36.35 10.3162 36.5895C10.3349 36.6443 10.3553 36.6985 10.3776 36.7514L10.3319 36.6437C10.392 36.7827 10.4649 36.9151 10.5503 37.0397C10.5702 37.0686 10.5967 37.0963 10.6135 37.127C10.6033 37.1083 10.5431 37.0379 10.5894 37.0951L10.6238 37.1366C10.6725 37.1944 10.7249 37.2498 10.779 37.3021C10.8332 37.3545 10.8844 37.4008 10.9403 37.4466C10.9542 37.458 10.9686 37.4689 10.9825 37.4803C10.8735 37.3882 10.9337 37.4424 10.9602 37.4616C10.9891 37.4827 11.0192 37.5038 11.0493 37.5236C11.1757 37.6079 11.3093 37.6795 11.4489 37.7397C11.4128 37.7246 11.3773 37.7096 11.3412 37.6939C11.5344 37.7752 11.7354 37.8324 11.9424 37.8619L11.8226 37.8456C11.9514 37.8625 12.0808 37.8691 12.2108 37.8643C12.4468 37.8552 12.6731 38.0785 12.6622 38.3157C12.6508 38.5678 12.4636 38.7574 12.2108 38.767Z" fill="#C3B7FF"/>
<path d="M13.3889 27.6809C13.2078 27.767 13.0344 27.8687 12.8713 27.9867C12.8473 28.0041 12.8238 28.0228 12.7997 28.0397C12.9153 27.9566 12.8455 28.0041 12.8208 28.024C12.7805 28.0565 12.7407 28.0902 12.7016 28.1245C12.6264 28.1913 12.5542 28.2611 12.4856 28.334C12.4169 28.4068 12.3519 28.4832 12.2881 28.5615C12.2352 28.6265 12.3507 28.4778 12.3044 28.5404C12.2869 28.5645 12.2689 28.5879 12.2514 28.6126C12.2231 28.6517 12.1961 28.6921 12.1696 28.7324C12.0576 28.9039 11.9613 29.0845 11.8813 29.2728L11.927 29.1651C11.8145 29.4329 11.7362 29.7128 11.6959 30.0005C11.6815 30.104 11.5743 30.2202 11.4883 30.2701C11.3914 30.3267 11.2487 30.3508 11.1404 30.3159C11.0315 30.2803 10.9255 30.2129 10.8708 30.1082C10.81 29.9933 10.8076 29.8879 10.825 29.7603C10.9544 28.8311 11.4817 27.9379 12.2171 27.3578C12.441 27.1808 12.6745 27.0237 12.9327 26.901C13.0441 26.848 13.1578 26.8215 13.2806 26.8552C13.3853 26.8841 13.4991 26.9647 13.5502 27.0628C13.6562 27.2639 13.6158 27.5726 13.3883 27.6803L13.3889 27.6809Z" fill="#6FF9D8"/>
<path d="M29.6611 15.6542C29.235 14.752 29.043 13.7499 29.1074 12.7533C29.1718 11.7566 29.4607 10.7774 29.9734 9.92094C30.2575 9.44608 30.612 9.00552 31.0225 8.63358C31.1976 8.47529 31.4901 8.44761 31.661 8.63358C31.8199 8.80631 31.8482 9.10242 31.661 9.27214C31.5172 9.40274 31.3806 9.54057 31.2518 9.68682C31.188 9.75964 31.1266 9.83427 31.0658 9.91011C31.0441 9.93779 31.0568 9.92154 31.1031 9.86136C31.0941 9.87279 31.0857 9.88423 31.0772 9.89566C31.064 9.91311 31.0513 9.92997 31.0387 9.94742C31.0092 9.98774 30.9797 10.0287 30.9508 10.0702C30.7294 10.3886 30.544 10.731 30.3929 11.0885L30.4387 10.9808C30.2382 11.4599 30.1028 11.963 30.033 12.477L30.0493 12.3572C29.9825 12.864 29.9807 13.3774 30.0481 13.8841L30.0318 13.7644C30.095 14.2272 30.216 14.6804 30.3971 15.1113L30.3514 15.0036C30.3797 15.0698 30.4092 15.1354 30.4399 15.201C30.4928 15.3129 30.5193 15.4255 30.4856 15.5489C30.4567 15.6536 30.3761 15.7673 30.278 15.8185C30.0776 15.9244 29.7682 15.8847 29.6605 15.6566L29.6611 15.6542Z" fill="#C3B7FF"/>
<defs>
<linearGradient id="paint0_linear_116_1499" x1="48.0934" y1="48.4648" x2="42.5576" y2="48.4648" gradientUnits="userSpaceOnUse">
<stop stop-color="#C3B7FF"/>
<stop offset="0.2" stop-color="#ACC9F4"/>
<stop offset="0.53" stop-color="#8DE1E6"/>
<stop offset="0.81" stop-color="#7AEFDE"/>
<stop offset="1" stop-color="#74F5DB"/>
</linearGradient>
<linearGradient id="paint1_linear_116_1499" x1="41.728" y1="33.6435" x2="23.206" y2="33.6435" gradientUnits="userSpaceOnUse">
<stop stop-color="#C3B7FF"/>
<stop offset="0.2" stop-color="#ACC9F4"/>
<stop offset="0.53" stop-color="#8DE1E6"/>
<stop offset="0.81" stop-color="#7AEFDE"/>
<stop offset="1" stop-color="#74F5DB"/>
</linearGradient>
</defs>
</svg>
