<svg width="42" height="42" viewBox="0 0 42 42" fill="none" xmlns="http://www.w3.org/2000/svg">
<g clip-path="url(#clip0_247_22058)">
<path d="M11.9817 11.2437L11.75 10.75L11.5183 11.2437L11 11.323L11.375 11.7072L11.2865 12.25L11.75 11.9937L12.2135 12.25L12.125 11.7072L12.5 11.323L11.9817 11.2437ZM11.0365 9.75L11.5 9.49375L11.9635 9.75L11.875 9.20725L12.25 8.823L11.7317 8.74375L11.5 8.25L11.2683 8.74375L10.75 8.823L11.125 9.20725L11.0365 9.75ZM8.7865 11.25L9.25 10.9937L9.7135 11.25L9.625 10.7072L10 10.323L9.48175 10.2437L9.25 9.75L9.01825 10.2437L8.5 10.323L8.875 10.7072L8.7865 11.25ZM8.7865 8.75L9.25 8.49375L9.7135 8.75L9.625 8.20725L10 7.823L9.48175 7.74375L9.25 7.25L9.01825 7.74375L8.5 7.823L8.875 8.20725L8.7865 8.75ZM11.2865 7.5L11.75 7.24375L12.2135 7.5L12.125 6.95725L12.5 6.573L11.9817 6.49375L11.75 6L11.5183 6.49375L11 6.573L11.375 6.95725L11.2865 7.5ZM20.691 7L21 6.82925L21.309 7L21.25 6.63825L21.5 6.382L21.1545 6.32925L21 6L20.8455 6.32925L20.5 6.382L20.75 6.63825L20.691 7ZM24.1545 9.32925L24 9L23.8455 9.32925L23.5 9.382L23.75 9.63825L23.691 10L24 9.82925L24.309 10L24.25 9.63825L24.5 9.382L24.1545 9.32925ZM23.441 7L23.75 6.82925L24.059 7L24 6.63825L24.25 6.382L23.9045 6.32925L23.75 6L23.5955 6.32925L23.25 6.382L23.5 6.63825L23.441 7ZM22.5955 11.5793L22.25 11.632L22.5 11.8883L22.441 12.25L22.75 12.0793L23.059 12.25L23 11.8883L23.25 11.632L22.9045 11.5793L22.75 11.25L22.5955 11.5793ZM21.941 8.75L22.25 8.57925L22.559 8.75L22.5 8.38825L22.75 8.132L22.4045 8.07925L22.25 7.75L22.0955 8.07925L21.75 8.132L22 8.38825L21.941 8.75Z" fill="#C3B7FF"/>
<path d="M30.6482 13.9894C32.2657 14.3262 32.4232 14.4842 32.7607 16.1019C32.7843 16.2143 32.8458 16.3152 32.9349 16.3875C33.024 16.4599 33.1353 16.4994 33.2501 16.4994C33.3649 16.4994 33.4762 16.4599 33.5653 16.3875C33.6545 16.3152 33.716 16.2143 33.7395 16.1019C34.0767 14.4842 34.2345 14.3262 35.852 13.9894C35.9645 13.966 36.0655 13.9046 36.138 13.8154C36.2105 13.7263 36.2501 13.6149 36.2501 13.4999C36.2501 13.385 36.2105 13.2736 36.138 13.1845C36.0655 13.0953 35.9645 13.0339 35.852 13.0104C34.2345 12.6734 34.0765 12.5154 33.7395 10.8979C33.7161 10.7855 33.6546 10.6845 33.5655 10.612C33.4763 10.5395 33.3649 10.4999 33.25 10.4999C33.1351 10.4999 33.0237 10.5395 32.9345 10.612C32.8454 10.6845 32.7839 10.7855 32.7605 10.8979C32.4237 12.5154 32.2655 12.6734 30.648 13.0104C30.5355 13.0339 30.4345 13.0954 30.362 13.1846C30.2896 13.2737 30.25 13.3851 30.2501 13.5C30.2501 13.615 30.2897 13.7264 30.3622 13.8155C30.4347 13.9046 30.5357 13.9661 30.6482 13.9894ZM33.25 12.6534C33.4377 13.0164 33.7335 13.3122 34.0965 13.4999C33.7336 13.6878 33.4379 13.9835 33.25 14.3464C33.0622 13.9834 32.7665 13.6876 32.4035 13.4997C32.7664 13.312 33.0622 13.0163 33.25 12.6534ZM18.1775 18.4902C18.1085 18.3769 17.9974 18.2956 17.8685 18.2642C17.7397 18.2328 17.6036 18.2539 17.4902 18.3227C16.5841 18.8482 15.8323 19.6031 15.3105 20.5114C15.2792 20.5692 15.2595 20.6325 15.2527 20.6978C15.2458 20.7631 15.2519 20.8291 15.2706 20.8921C15.2892 20.955 15.3201 21.0137 15.3615 21.0647C15.4028 21.1158 15.4538 21.1581 15.5115 21.1894C15.6287 21.2496 15.7645 21.2622 15.8908 21.2248C16.017 21.1874 16.124 21.1027 16.1895 20.9884C16.6272 20.2358 17.2549 19.6112 18.0097 19.1772C18.0659 19.1431 18.1147 19.0983 18.1535 19.0453C18.1923 18.9923 18.2202 18.9322 18.2358 18.8684C18.2513 18.8046 18.2542 18.7384 18.2441 18.6735C18.2341 18.6086 18.2116 18.5463 18.1775 18.4902Z" fill="#6FF9D8"/>
<path d="M29.5 29.5C29.5 29.2033 29.412 28.9133 29.2472 28.6666C29.0824 28.42 28.8481 28.2277 28.574 28.1142C28.2999 28.0007 27.9983 27.9709 27.7074 28.0288C27.4164 28.0867 27.1491 28.2296 26.9393 28.4393C26.7296 28.6491 26.5867 28.9164 26.5288 29.2074C26.4709 29.4983 26.5007 29.7999 26.6142 30.074C26.7277 30.3481 26.92 30.5824 27.1666 30.7472C27.4133 30.912 27.7033 31 28 31C28.3977 30.9995 28.7789 30.8414 29.0601 30.5601C29.3414 30.2789 29.4995 29.8977 29.5 29.5ZM27.5 29.5C27.5 29.4011 27.5293 29.3044 27.5843 29.2222C27.6392 29.14 27.7173 29.0759 27.8087 29.0381C27.9 29.0002 28.0006 28.9903 28.0975 29.0096C28.1945 29.0289 28.2836 29.0765 28.3536 29.1464C28.4235 29.2164 28.4711 29.3055 28.4904 29.4025C28.5097 29.4994 28.4998 29.6 28.4619 29.6913C28.4241 29.7827 28.36 29.8608 28.2778 29.9157C28.1956 29.9707 28.0989 30 28 30C27.8675 29.9998 27.7404 29.9471 27.6467 29.8533C27.5529 29.7596 27.5002 29.6325 27.5 29.5ZM18.5 29.5C18.5 29.2033 18.412 28.9133 18.2472 28.6666C18.0824 28.42 17.8481 28.2277 17.574 28.1142C17.2999 28.0007 16.9983 27.9709 16.7074 28.0288C16.4164 28.0867 16.1491 28.2296 15.9393 28.4393C15.7296 28.6491 15.5867 28.9164 15.5288 29.2074C15.4709 29.4983 15.5006 29.7999 15.6142 30.074C15.7277 30.3481 15.92 30.5824 16.1666 30.7472C16.4133 30.912 16.7033 31 17 31C17.3977 30.9995 17.7789 30.8414 18.0601 30.5601C18.3414 30.2789 18.4995 29.8977 18.5 29.5ZM16.5 29.5C16.5 29.4011 16.5293 29.3044 16.5843 29.2222C16.6392 29.14 16.7173 29.0759 16.8087 29.0381C16.9 29.0002 17.0006 28.9903 17.0975 29.0096C17.1945 29.0289 17.2836 29.0765 17.3536 29.1464C17.4235 29.2164 17.4711 29.3055 17.4904 29.4025C17.5097 29.4994 17.4998 29.6 17.4619 29.6913C17.4241 29.7827 17.36 29.8608 17.2778 29.9157C17.1956 29.9707 17.0989 30 17 30C16.8675 29.9998 16.7404 29.9471 16.6467 29.8533C16.5529 29.7596 16.5002 29.6325 16.5 29.5Z" fill="#C3B7FF"/>
<path d="M17.1543 24.3397C17.4089 24.3397 17.6153 24.1333 17.6153 23.8787C17.6153 23.6241 17.4089 23.4177 17.1543 23.4177C16.8996 23.4177 16.6933 23.6241 16.6933 23.8787C16.6933 24.1333 16.8996 24.3397 17.1543 24.3397Z" fill="#C3B7FF"/>
<path d="M27.759 24.3397C28.0136 24.3397 28.22 24.1333 28.22 23.8787C28.22 23.6241 28.0136 23.4177 27.759 23.4177C27.5044 23.4177 27.298 23.6241 27.298 23.8787C27.298 24.1333 27.5044 24.3397 27.759 24.3397Z" fill="#C3B7FF"/>
<path d="M10.75 21.75C11.0261 21.75 11.25 21.5261 11.25 21.25C11.25 20.9739 11.0261 20.75 10.75 20.75C10.4739 20.75 10.25 20.9739 10.25 21.25C10.25 21.5261 10.4739 21.75 10.75 21.75Z" fill="#6FF9D8"/>
<path d="M34.25 21.75C34.5261 21.75 34.75 21.5261 34.75 21.25C34.75 20.9739 34.5261 20.75 34.25 20.75C33.9739 20.75 33.75 20.9739 33.75 21.25C33.75 21.5261 33.9739 21.75 34.25 21.75Z" fill="#6FF9D8"/>
<path d="M24.9743 27.87C24.9452 27.7828 24.8926 27.7053 24.8223 27.6461C24.7519 27.5868 24.6666 27.5482 24.5758 27.5343L23.4575 27.3625L22.9525 26.2875C22.9121 26.2016 22.8481 26.129 22.768 26.0781C22.6879 26.0273 22.5949 26.0002 22.5 26.0002C22.4051 26.0002 22.3121 26.0273 22.232 26.0781C22.1519 26.129 22.0879 26.2016 22.0475 26.2875L21.5425 27.3625L20.4242 27.5343C20.3334 27.5482 20.2482 27.5869 20.1779 27.6461C20.1076 27.7054 20.055 27.7828 20.0258 27.87C19.9967 27.9571 19.9921 28.0507 20.0127 28.1402C20.0332 28.2298 20.078 28.312 20.1423 28.3778L20.9657 29.2215L20.7708 30.4195C20.7557 30.5121 20.767 30.607 20.8033 30.6935C20.8397 30.7799 20.8996 30.8544 20.9762 30.9084C21.0529 30.9624 21.1432 30.9938 21.2368 30.999C21.3304 31.0041 21.4236 30.9828 21.5058 30.9375L22.5 30.3883L23.4942 30.9375C23.5769 30.9812 23.6699 31.0015 23.7632 30.9965C23.8566 30.9914 23.9468 30.9611 24.0243 30.9088C24.1009 30.8547 24.1609 30.7802 24.1972 30.6936C24.2335 30.6071 24.2447 30.5121 24.2295 30.4195L24.0343 29.2215L24.858 28.3778C24.9222 28.312 24.967 28.2298 24.9875 28.1403C25.008 28.0507 25.0034 27.9572 24.9743 27.87ZM23.1423 28.7035C23.0876 28.7596 23.0468 28.8277 23.0233 28.9024C22.9997 28.9771 22.9941 29.0563 23.0068 29.1335L23.0768 29.5645L22.742 29.3795C22.6674 29.3403 22.5843 29.3198 22.5 29.3198C22.4157 29.3198 22.3326 29.3403 22.258 29.3795L21.923 29.5645L21.9935 29.1333C22.0062 29.056 22.0005 28.9768 21.977 28.9021C21.9534 28.8275 21.9127 28.7593 21.858 28.7033L21.5375 28.375L21.9575 28.3105C22.0386 28.2982 22.1154 28.266 22.1812 28.2169C22.2469 28.1678 22.2996 28.1033 22.3345 28.029L22.5 27.6765L22.6655 28.029C22.7004 28.1033 22.7531 28.1678 22.8188 28.2169C22.8846 28.266 22.9614 28.2982 23.0425 28.3105L23.4625 28.375L23.1423 28.7035Z" fill="#6FF9D8"/>
<path d="M9.9605 23.8832L10.375 22.9585C10.1205 22.9033 9.88155 22.7921 9.67553 22.6328C9.46951 22.4736 9.30165 22.2704 9.18418 22.038C9.06671 21.8056 9.0026 21.5499 8.99654 21.2896C8.99047 21.0293 9.0426 20.7709 9.14912 20.5333C9.25564 20.2957 9.41386 20.0849 9.61223 19.9162C9.81061 19.7475 10.0441 19.6253 10.2958 19.5583C10.5474 19.4914 10.8108 19.4815 11.0668 19.5294C11.3227 19.5772 11.5648 19.6816 11.7753 19.835L12.1893 18.9112C11.8563 18.7061 11.4834 18.5745 11.0954 18.5251C10.7075 18.4757 10.3135 18.5096 9.93973 18.6247C9.56598 18.7398 9.2211 18.9333 8.92813 19.1924C8.63517 19.4514 8.40088 19.77 8.24091 20.1268C8.08095 20.4837 7.999 20.8706 8.00055 21.2617C8.00209 21.6527 8.08709 22.0389 8.24987 22.3945C8.41265 22.7501 8.64945 23.0668 8.94445 23.3236C9.23945 23.5803 9.58585 23.7711 9.9605 23.8832Z" fill="#C3B7FF"/>
<path d="M20.3457 36.5H21.3032C21.4359 36.5 21.563 36.4473 21.6568 36.3536C21.7506 36.2598 21.8032 36.1326 21.8032 36C21.8032 35.8674 21.7506 35.7402 21.6568 35.6464C21.563 35.5527 21.4359 35.5 21.3032 35.5H20.3457C20.2131 35.5 20.086 35.5527 19.9922 35.6464C19.8984 35.7402 19.8457 35.8674 19.8457 36C19.8457 36.1326 19.8984 36.2598 19.9922 36.3536C20.086 36.4473 20.2131 36.5 20.3457 36.5Z" fill="#6FF9D8"/>
<path d="M23.6967 36.5H24.6542C24.7869 36.5 24.914 36.4473 25.0078 36.3536C25.1016 36.2598 25.1542 36.1326 25.1542 36C25.1542 35.8674 25.1016 35.7402 25.0078 35.6464C24.914 35.5527 24.7869 35.5 24.6542 35.5H23.6967C23.5641 35.5 23.437 35.5527 23.3432 35.6464C23.2494 35.7402 23.1967 35.8674 23.1967 36C23.1967 36.1326 23.2494 36.2598 23.3432 36.3536C23.437 36.4473 23.5641 36.5 23.6967 36.5Z" fill="#C3B7FF"/>
<path d="M27.048 36.5H28.0055C28.1381 36.5 28.2653 36.4473 28.3591 36.3536C28.4528 36.2598 28.5055 36.1326 28.5055 36C28.5055 35.8674 28.4528 35.7402 28.3591 35.6464C28.2653 35.5527 28.1381 35.5 28.0055 35.5H27.048C26.9154 35.5 26.7882 35.5527 26.6945 35.6464C26.6007 35.7402 26.548 35.8674 26.548 36C26.548 36.1326 26.6007 36.2598 26.6945 36.3536C26.7882 36.4473 26.9154 36.5 27.048 36.5Z" fill="#6FF9D8"/>
<path d="M30.399 36.5H31.3563C31.4889 36.5 31.616 36.4473 31.7098 36.3536C31.8036 36.2598 31.8563 36.1326 31.8563 36C31.8563 35.8674 31.8036 35.7402 31.7098 35.6464C31.616 35.5527 31.4889 35.5 31.3563 35.5H30.3988C30.2661 35.5 30.139 35.5527 30.0452 35.6464C29.9514 35.7402 29.8988 35.8674 29.8988 36C29.8988 36.1326 29.9514 36.2598 30.0452 36.3536C30.139 36.4473 30.2664 36.5 30.399 36.5Z" fill="#C3B7FF"/>
<path d="M13.6435 36.5H14.601C14.7336 36.5 14.8608 36.4473 14.9546 36.3536C15.0483 36.2598 15.101 36.1326 15.101 36C15.101 35.8674 15.0483 35.7402 14.9546 35.6464C14.8608 35.5527 14.7336 35.5 14.601 35.5H13.6435C13.5109 35.5 13.3837 35.5527 13.2899 35.6464C13.1962 35.7402 13.1435 35.8674 13.1435 36C13.1435 36.1326 13.1962 36.2598 13.2899 36.3536C13.3837 36.4473 13.5109 36.5 13.6435 36.5Z" fill="#6FF9D8"/>
<path d="M16.9948 36.5H17.9523C18.0849 36.5 18.212 36.4473 18.3058 36.3536C18.3996 36.2598 18.4523 36.1326 18.4523 36C18.4523 35.8674 18.3996 35.7402 18.3058 35.6464C18.212 35.5527 18.0849 35.5 17.9523 35.5H16.9948C16.8621 35.5 16.735 35.5527 16.6412 35.6464C16.5474 35.7402 16.4948 35.8674 16.4948 36C16.4948 36.1326 16.5474 36.2598 16.6412 36.3536C16.735 36.4473 16.8621 36.5 16.9948 36.5Z" fill="#C3B7FF"/>
<path d="M22.5 20.25C22.7761 20.25 23 20.0261 23 19.75C23 19.4739 22.7761 19.25 22.5 19.25C22.2239 19.25 22 19.4739 22 19.75C22 20.0261 22.2239 20.25 22.5 20.25Z" fill="#6FF9D8"/>
<path d="M29.4887 21.1895C29.6053 21.1262 29.6919 21.0192 29.7295 20.8921C29.7672 20.7649 29.7528 20.628 29.6895 20.5115C29.1677 19.6032 28.4159 18.8483 27.5097 18.3228C27.4536 18.2887 27.3914 18.2659 27.3265 18.2559C27.2616 18.2458 27.1954 18.2487 27.1316 18.2642C27.0678 18.2798 27.0077 18.3078 26.9547 18.3465C26.9017 18.3853 26.8569 18.4342 26.8227 18.4903C26.7886 18.5464 26.7659 18.6086 26.7559 18.6735C26.7458 18.7384 26.7487 18.8047 26.7642 18.8685C26.7798 18.9322 26.8077 18.9924 26.8465 19.0453C26.8853 19.0983 26.9341 19.1432 26.9902 19.1773C27.7451 19.6112 28.3728 20.2358 28.8105 20.9885C28.876 21.1028 28.983 21.1875 29.1093 21.225C29.2357 21.2624 29.3715 21.2497 29.4887 21.1895Z" fill="#6FF9D8"/>
<path d="M0.5 38C0.776142 38 1 37.7761 1 37.5C1 37.2239 0.776142 37 0.5 37C0.223858 37 0 37.2239 0 37.5C0 37.7761 0.223858 38 0.5 38Z" fill="#C3B7FF"/>
<path d="M2.75 37H2C1.86739 37 1.74021 37.0527 1.64645 37.1464C1.55268 37.2402 1.5 37.3674 1.5 37.5C1.5 37.6326 1.55268 37.7598 1.64645 37.8536C1.74021 37.9473 1.86739 38 2 38H2.75C2.88261 38 3.00979 37.9473 3.10355 37.8536C3.19732 37.7598 3.25 37.6326 3.25 37.5C3.25 37.3674 3.19732 37.2402 3.10355 37.1464C3.00979 37.0527 2.88261 37 2.75 37ZM40 37H39.25C39.1174 37 38.9902 37.0527 38.8964 37.1464C38.8027 37.2402 38.75 37.3674 38.75 37.5C38.75 37.6326 38.8027 37.7598 38.8964 37.8536C38.9902 37.9473 39.1174 38 39.25 38H40C40.1326 38 40.2598 37.9473 40.3536 37.8536C40.4473 37.7598 40.5 37.6326 40.5 37.5C40.5 37.3674 40.4473 37.2402 40.3536 37.1464C40.2598 37.0527 40.1326 37 40 37Z" fill="#C3B7FF"/>
<path d="M41.5 38C41.7761 38 42 37.7761 42 37.5C42 37.2239 41.7761 37 41.5 37C41.2239 37 41 37.2239 41 37.5C41 37.7761 41.2239 38 41.5 38Z" fill="#C3B7FF"/>
<path d="M29.5385 39H27.4615C27.3356 39.0098 27.218 39.0667 27.1322 39.1594C27.0464 39.2521 26.9988 39.3737 26.9988 39.5C26.9988 39.6263 27.0464 39.7479 27.1322 39.8406C27.218 39.9333 27.3356 39.9902 27.4615 40H29.5385C29.6644 39.9902 29.782 39.9333 29.8678 39.8406C29.9536 39.7479 30.0012 39.6263 30.0012 39.5C30.0012 39.3737 29.9536 39.2521 29.8678 39.1594C29.782 39.0667 29.6644 39.0098 29.5385 39ZM14.5385 39H12.4615C12.3356 39.0098 12.218 39.0667 12.1322 39.1594C12.0464 39.2521 11.9988 39.3737 11.9988 39.5C11.9988 39.6263 12.0464 39.7479 12.1322 39.8406C12.218 39.9333 12.3356 39.9902 12.4615 40H14.5385C14.6644 39.9902 14.782 39.9333 14.8678 39.8406C14.9536 39.7479 15.0012 39.6263 15.0012 39.5C15.0012 39.3737 14.9536 39.2521 14.8678 39.1594C14.782 39.0667 14.6644 39.0098 14.5385 39ZM26 39H16C15.8674 39 15.7402 39.0527 15.6464 39.1464C15.5527 39.2402 15.5 39.3674 15.5 39.5C15.5 39.6326 15.5527 39.7598 15.6464 39.8536C15.7402 39.9473 15.8674 40 16 40H19.985V40.5H18C17.8674 40.5 17.7402 40.5527 17.6464 40.6464C17.5527 40.7402 17.5 40.8674 17.5 41C17.5 41.1326 17.5527 41.2598 17.6464 41.3536C17.7402 41.4473 17.8674 41.5 18 41.5H24.25C24.3826 41.5 24.5098 41.4473 24.6036 41.3536C24.6973 41.2598 24.75 41.1326 24.75 41C24.75 40.8674 24.6973 40.7402 24.6036 40.6464C24.5098 40.5527 24.3826 40.5 24.25 40.5H22.015V40H26C26.1326 40 26.2598 39.9473 26.3536 39.8536C26.4473 39.7598 26.5 39.6326 26.5 39.5C26.5 39.3674 26.4473 39.2402 26.3536 39.1464C26.2598 39.0527 26.1326 39 26 39Z" fill="#6FF9D8"/>
<path d="M37.6802 37H34.7295C34.9061 36.6963 34.9994 36.3515 35 36.0002C35.0007 35.6489 34.9086 35.3037 34.7332 34.9994C34.5577 34.695 34.3051 34.4424 34.0008 34.2669C33.6965 34.0915 33.3513 33.9994 33 34H32.858C31.63 30.2638 33.521 26.0905 34.7445 23.953C35.1867 23.8729 35.6024 23.6855 35.9554 23.4074C36.3083 23.1293 36.5877 22.7689 36.7691 22.3578C36.9504 21.9467 37.0282 21.4973 36.9956 21.0492C36.963 20.601 36.821 20.1676 36.5821 19.7871C36.3431 19.4065 36.0145 19.0903 35.625 18.8662C35.2355 18.6422 34.797 18.517 34.3479 18.5017C33.8988 18.4864 33.4528 18.5814 33.049 18.7785C32.6452 18.9755 32.2958 19.2686 32.0315 19.632C30.2505 17.3056 27.6685 15.7241 24.7869 15.1945C21.9053 14.665 18.9297 15.2253 16.438 16.7665L15.6162 18.6C16.7678 17.6133 18.1142 16.8801 19.5679 16.4481C21.0215 16.016 22.5498 15.8948 24.0533 16.0922C25.5569 16.2897 27.002 16.8014 28.2948 17.5942C29.5876 18.3869 30.699 19.4429 31.5567 20.6935C31.4327 21.2926 31.5135 21.9161 31.7862 22.4638C31.157 23.5538 30.39 24.662 29.3367 25.383C26.9172 27.0398 24.9977 24.122 24.313 22.1168C24.2865 22.039 24.266 21.956 24.241 21.8768C24.6824 21.5165 25.0011 21.028 25.153 20.4788C25.3049 19.9296 25.2826 19.3468 25.089 18.8108C24.8955 18.2749 24.5403 17.8123 24.0726 17.4869C23.6048 17.1614 23.0476 16.9893 22.4778 16.9942C21.908 16.9991 21.3538 17.1807 20.8917 17.5141C20.4296 17.8475 20.0824 18.3162 19.898 18.8553C19.7137 19.3945 19.7013 19.9776 19.8626 20.5241C20.0239 21.0706 20.3509 21.5536 20.7985 21.9063C20.4525 23.0464 19.865 24.0987 19.076 24.9915C18.1337 26.037 16.8735 26.1825 15.7067 25.383C14.8658 24.7515 14.156 23.9621 13.6172 23.059L13.1365 24.1315C13.6791 24.935 14.3576 25.6377 15.1415 26.2083C16.7365 27.3008 18.5282 27.091 19.819 25.6615C20.663 24.7082 21.3 23.5902 21.6897 22.378C22.2292 22.5447 22.807 22.5406 23.344 22.3663C23.352 22.3905 23.3585 22.416 23.3665 22.44C24.026 24.3718 25.5105 26.9065 27.8635 26.9065C28.5984 26.8876 29.3099 26.6439 29.902 26.2083C30.7795 25.6073 31.633 24.6323 32.442 23.317C32.7751 23.6091 33.174 23.8161 33.6045 23.9203C32.5627 25.831 31.2795 28.8728 31.4712 32.0003H13.5262C13.6607 29.8038 13.0702 27.6498 12.3437 25.8998L11.7567 27.2095C12.476 29.2588 12.893 31.7113 12.1407 34H12C11.6487 33.9994 11.3036 34.0915 10.9993 34.267C10.695 34.4425 10.4424 34.6952 10.267 34.9995C10.0916 35.3038 9.99957 35.649 10.0002 36.0002C10.0009 36.3515 10.0942 36.6964 10.2707 37H6.27225L17.0447 12.9688L18.236 14.3295C18.2984 14.3974 18.3776 14.4475 18.4657 14.4747C18.5538 14.5018 18.6475 14.5052 18.7372 14.4843C18.8269 14.461 18.9084 14.4133 18.9726 14.3465C19.0368 14.2796 19.0811 14.1963 19.1007 14.1058L19.6167 11.7183L21.718 10.7C21.8041 10.6583 21.8764 10.5928 21.9263 10.5112C21.9763 10.4296 22.0018 10.3354 21.9998 10.2398C21.9979 10.1441 21.9685 10.051 21.9152 9.97159C21.8619 9.89214 21.787 9.82964 21.6992 9.79151L19.29 8.74451L18.8742 6.41251C18.8581 6.32174 18.8171 6.2372 18.7559 6.16825C18.6947 6.09931 18.6156 6.04863 18.5273 6.02182C18.4391 5.99502 18.3452 5.99313 18.256 6.01638C18.1668 6.03962 18.0857 6.08708 18.0217 6.15351L16.4327 7.80776L14.0907 7.37526C13.9975 7.35809 13.9013 7.36779 13.8133 7.40323C13.7254 7.43867 13.6494 7.49838 13.5941 7.5754C13.5388 7.65242 13.5065 7.74358 13.501 7.83823C13.4956 7.93289 13.5172 8.02715 13.5632 8.11001L14.7352 10.215L13.705 12.2788C13.6642 12.3605 13.6466 12.4519 13.654 12.543C13.6615 12.6341 13.6938 12.7213 13.7474 12.7953C13.801 12.8694 13.8739 12.9273 13.9581 12.9628C14.0423 12.9983 14.1346 13.01 14.225 12.9968L16.057 12.7273L5.17625 37H4.31975C4.24862 36.9907 4.17632 36.9967 4.10769 37.0176C4.03906 37.0385 3.97567 37.0737 3.92176 37.1211C3.86785 37.1684 3.82465 37.2267 3.79506 37.292C3.76547 37.3574 3.75017 37.4283 3.75017 37.5C3.75017 37.5717 3.76547 37.6427 3.79506 37.708C3.82465 37.7734 3.86785 37.8316 3.92176 37.879C3.97567 37.9263 4.03906 37.9616 4.10769 37.9824C4.17632 38.0033 4.24862 38.0093 4.31975 38H37.68C37.7511 38.0093 37.8234 38.0033 37.8921 37.9824C37.9607 37.9616 38.0241 37.9263 38.078 37.879C38.1319 37.8316 38.1751 37.7734 38.2047 37.708C38.2343 37.6427 38.2496 37.5717 38.2496 37.5C38.2496 37.4283 38.2343 37.3574 38.2047 37.292C38.1751 37.2267 38.1319 37.1684 38.078 37.1211C38.0241 37.0737 37.9607 37.0385 37.8921 37.0176C37.8234 36.9967 37.7514 36.9907 37.6802 37ZM22.5002 21.5C22.1541 21.5 21.8158 21.3974 21.528 21.2051C21.2402 21.0128 21.0159 20.7395 20.8835 20.4197C20.751 20.0999 20.7164 19.7481 20.7839 19.4086C20.8514 19.0691 21.0181 18.7573 21.2628 18.5126C21.5076 18.2678 21.8194 18.1012 22.1588 18.0336C22.4983 17.9661 22.8502 18.0008 23.1699 18.1332C23.4897 18.2657 23.763 18.49 23.9553 18.7778C24.1476 19.0655 24.2502 19.4039 24.2502 19.75C24.2497 20.214 24.0652 20.6588 23.7371 20.9869C23.409 21.3149 22.9642 21.4995 22.5002 21.5ZM32.5002 21.25C32.5002 20.9039 32.6029 20.5655 32.7952 20.2778C32.9875 19.99 33.2608 19.7657 33.5806 19.6332C33.9003 19.5008 34.2522 19.4661 34.5917 19.5336C34.9311 19.6012 35.2429 19.7678 35.4877 20.0126C35.7324 20.2573 35.8991 20.5691 35.9666 20.9086C36.0341 21.2481 35.9995 21.5999 35.867 21.9197C35.7346 22.2395 35.5103 22.5128 35.2225 22.7051C34.9347 22.8974 34.5964 23 34.2503 23C33.7863 22.9995 33.3415 22.8149 33.0134 22.4869C32.6853 22.1588 32.5008 21.714 32.5002 21.25ZM15.0275 11.868L15.7475 10.4255C15.7838 10.3527 15.8018 10.2722 15.7999 10.1909C15.798 10.1096 15.7763 10.03 15.7367 9.95901L14.9532 8.55151L16.5157 8.84001C16.5971 8.85498 16.6809 8.84955 16.7597 8.8242C16.8384 8.79885 16.9096 8.75438 16.967 8.69476L18.062 7.55476L18.3525 9.18401C18.3669 9.26519 18.4013 9.34153 18.4524 9.40623C18.5035 9.47092 18.5699 9.52195 18.6455 9.55476L20.3022 10.2748L18.9612 10.9248C18.893 10.9578 18.8332 11.006 18.7862 11.0656C18.7393 11.1252 18.7066 11.1946 18.6905 11.2688L18.3332 12.9225L17.3177 11.7623C17.2618 11.7006 17.1917 11.6533 17.1135 11.6246C17.0353 11.5958 16.9514 11.5863 16.8687 11.597L15.0275 11.868ZM13.415 33H31.584C31.6406 33.3374 31.7166 33.6713 31.8115 34H13.1875C13.2826 33.6713 13.3582 33.3374 13.415 33ZM33.75 36.5H33.8607C33.7737 36.6514 33.6485 36.7773 33.4975 36.8651C33.3465 36.9528 33.1751 36.9994 33.0005 37H11.9995C11.8248 36.9994 11.6534 36.9529 11.5024 36.8651C11.3513 36.7774 11.226 36.6515 11.139 36.5H11.25C11.3826 36.5 11.5098 36.4473 11.6036 36.3536C11.6973 36.2598 11.75 36.1326 11.75 36C11.75 35.8674 11.6973 35.7402 11.6036 35.6465C11.5098 35.5527 11.3826 35.5 11.25 35.5H11.139C11.2261 35.3485 11.3515 35.2226 11.5026 35.1348C11.6537 35.0471 11.8252 35.0006 12 35H33C33.1747 35.0006 33.3463 35.0471 33.4974 35.1348C33.6485 35.2226 33.7739 35.3485 33.861 35.5H33.75C33.6174 35.5 33.4902 35.5527 33.3964 35.6465C33.3027 35.7402 33.25 35.8674 33.25 36C33.25 36.1326 33.3027 36.2598 33.3964 36.3536C33.4902 36.4473 33.6174 36.5 33.75 36.5ZM28.576 3.13001C28.7243 3.13001 28.8693 3.08602 28.9927 3.00361C29.116 2.9212 29.2121 2.80407 29.2689 2.66702C29.3257 2.52998 29.3405 2.37918 29.3116 2.23369C29.2826 2.08821 29.2112 1.95457 29.1063 1.84968C29.0014 1.74479 28.8678 1.67336 28.7223 1.64442C28.5768 1.61548 28.426 1.63034 28.289 1.6871C28.1519 1.74387 28.0348 1.84 27.9524 1.96333C27.87 2.08667 27.826 2.23168 27.826 2.38001C27.8262 2.57886 27.9053 2.76951 28.0459 2.91012C28.1865 3.05073 28.3771 3.12981 28.576 3.13001ZM28.576 2.00501C28.6502 2.00501 28.7227 2.027 28.7843 2.06821C28.846 2.10942 28.8941 2.16798 28.9225 2.2365C28.9508 2.30503 28.9583 2.38043 28.9438 2.45317C28.9293 2.52591 28.8936 2.59273 28.8412 2.64518C28.7887 2.69762 28.7219 2.73334 28.6492 2.74781C28.5764 2.76227 28.501 2.75485 28.4325 2.72647C28.364 2.69808 28.3054 2.65002 28.2642 2.58835C28.223 2.52668 28.201 2.45418 28.201 2.38001C28.2011 2.28058 28.2406 2.18523 28.3109 2.11492C28.3812 2.04461 28.4766 2.00508 28.576 2.00501ZM39.576 16.13C39.4771 16.13 39.3804 16.1593 39.2982 16.2143C39.216 16.2692 39.1519 16.3473 39.1141 16.4387C39.0762 16.53 39.0663 16.6306 39.0856 16.7276C39.1049 16.8245 39.1525 16.9136 39.2224 16.9836C39.2924 17.0535 39.3815 17.1011 39.4785 17.1204C39.5754 17.1397 39.676 17.1298 39.7673 17.092C39.8587 17.0541 39.9368 16.99 39.9917 16.9078C40.0467 16.8256 40.076 16.7289 40.076 16.63C40.0759 16.4974 40.0231 16.3703 39.9294 16.2766C39.8357 16.1829 39.7086 16.1301 39.576 16.13ZM39.576 16.88C39.5266 16.88 39.4782 16.8653 39.4371 16.8379C39.396 16.8104 39.364 16.7714 39.345 16.7257C39.3261 16.68 39.3212 16.6297 39.3308 16.5812C39.3405 16.5327 39.3643 16.4882 39.3992 16.4532C39.4342 16.4183 39.4787 16.3945 39.5272 16.3848C39.5757 16.3752 39.626 16.3801 39.6717 16.399C39.7174 16.418 39.7564 16.45 39.7839 16.4911C39.8113 16.5322 39.826 16.5806 39.826 16.63C39.8259 16.6963 39.7996 16.7598 39.7527 16.8067C39.7058 16.8536 39.6423 16.8799 39.576 16.88ZM28.5625 8.25001C28.4636 8.25001 28.3669 8.27934 28.2847 8.33428C28.2025 8.38922 28.1384 8.46731 28.1006 8.55867C28.0627 8.65003 28.0528 8.75057 28.0721 8.84756C28.0914 8.94455 28.139 9.03364 28.2089 9.10356C28.2789 9.17349 28.368 9.22111 28.465 9.2404C28.5619 9.2597 28.6625 9.24979 28.7538 9.21195C28.8452 9.17411 28.9233 9.11002 28.9782 9.0278C29.0332 8.94557 29.0625 8.8489 29.0625 8.75001C29.0624 8.61744 29.0096 8.49034 28.9159 8.3966C28.8222 8.30286 28.6951 8.25014 28.5625 8.25001ZM28.5625 9.00001C28.5131 9.00001 28.4647 8.98535 28.4236 8.95788C28.3825 8.93041 28.3505 8.89136 28.3315 8.84568C28.3126 8.8 28.3077 8.74973 28.3173 8.70124C28.3269 8.65274 28.3508 8.6082 28.3857 8.57323C28.4207 8.53827 28.4652 8.51446 28.5137 8.50481C28.5622 8.49517 28.6125 8.50012 28.6582 8.51904C28.7038 8.53796 28.7429 8.57001 28.7704 8.61112C28.7978 8.65223 28.8125 8.70057 28.8125 8.75001C28.8124 8.81629 28.7861 8.87984 28.7392 8.92671C28.6923 8.97358 28.6288 8.99994 28.5625 9.00001ZM39.5762 1.37976C39.4774 1.37976 39.3807 1.40909 39.2985 1.46403C39.2162 1.51897 39.1522 1.59706 39.1143 1.68842C39.0765 1.77978 39.0666 1.88032 39.0859 1.97731C39.1051 2.0743 39.1528 2.16339 39.2227 2.23331C39.2926 2.30324 39.3817 2.35086 39.4787 2.37015C39.5757 2.38945 39.6762 2.37954 39.7676 2.3417C39.859 2.30386 39.937 2.23977 39.992 2.15755C40.0469 2.07532 40.0762 1.97865 40.0762 1.87976C40.0761 1.74719 40.0234 1.62009 39.9297 1.52635C39.8359 1.43261 39.7088 1.37989 39.5762 1.37976ZM39.5762 2.12976C39.5268 2.12976 39.4785 2.1151 39.4374 2.08763C39.3962 2.06016 39.3642 2.02111 39.3453 1.97543C39.3264 1.92975 39.3214 1.87948 39.3311 1.83099C39.3407 1.78249 39.3645 1.73795 39.3995 1.70298C39.4344 1.66802 39.479 1.64421 39.5275 1.63456C39.576 1.62492 39.6262 1.62987 39.6719 1.64879C39.7176 1.66771 39.7566 1.69976 39.7841 1.74087C39.8116 1.78198 39.8262 1.83032 39.8262 1.87976C39.8262 1.94604 39.7998 2.00959 39.753 2.05646C39.7061 2.10333 39.6425 2.12969 39.5762 2.12976ZM2.45125 1.69226C2.45125 1.59337 2.42192 1.4967 2.36698 1.41448C2.31204 1.33225 2.23395 1.26817 2.14259 1.23032C2.05123 1.19248 1.95069 1.18258 1.8537 1.20187C1.75671 1.22116 1.66762 1.26878 1.5977 1.33871C1.52777 1.40863 1.48015 1.49773 1.46086 1.59472C1.44156 1.69171 1.45146 1.79224 1.48931 1.8836C1.52715 1.97497 1.59124 2.05306 1.67346 2.108C1.75569 2.16294 1.85236 2.19226 1.95125 2.19226C2.08382 2.19213 2.21092 2.13941 2.30466 2.04567C2.3984 1.95193 2.45112 1.82483 2.45125 1.69226ZM1.70125 1.69226C1.70125 1.64282 1.71591 1.59448 1.74338 1.55337C1.77085 1.51226 1.8099 1.48021 1.85558 1.46129C1.90126 1.44237 1.95153 1.43742 2.00002 1.44706C2.04852 1.45671 2.09306 1.48052 2.12803 1.51548C2.16299 1.55045 2.1868 1.59499 2.19644 1.64349C2.20609 1.69198 2.20114 1.74225 2.18222 1.78793C2.1633 1.83361 2.13125 1.87266 2.09014 1.90013C2.04903 1.9276 2.00069 1.94226 1.95125 1.94226C1.88496 1.94219 1.82141 1.91583 1.77454 1.86896C1.72767 1.82209 1.70131 1.75854 1.70125 1.69226Z" fill="#C3B7FF"/>
<path d="M2.0345 11.8825L2.40625 11.3938L2.1715 11.2607L1.93275 11.8083H1.925L1.6825 11.2645L1.44375 11.4015L1.8115 11.8787V11.8865L1.23625 11.8123V12.078L1.81525 12.004V12.0118L1.44375 12.4888L1.6665 12.6298L1.921 12.078H1.92875L2.1635 12.6257L2.41 12.485L2.0345 12.0155V12.0077L2.625 12.078V11.8123L2.0345 11.8903V11.8825ZM10.4363 4.18525L10.2223 4.46L10.3508 4.54125L10.4973 4.2235H10.5015L10.6368 4.539L10.7788 4.45775L10.5625 4.1875V4.183L10.9025 4.2235V4.0705L10.5625 4.1155V4.111L10.7765 3.8295L10.6413 3.75275L10.504 4.068H10.4995L10.3598 3.755L10.2223 3.834L10.434 4.10875V4.11325L10.1028 4.0705V4.2235L10.4363 4.18075V4.18525ZM38.8262 10.808V10.5472L38.247 10.624V10.6163L38.6115 10.1368L38.3812 10.0063L38.1473 10.5433H38.1395L37.9017 10.01L37.6675 10.1442L38.0283 10.6125V10.6202L37.464 10.5472V10.808L38.032 10.7353V10.743L37.6675 11.211L37.8862 11.3492L38.1357 10.808H38.1432L38.3735 11.3453L38.6152 11.2072L38.247 10.7467V10.739L38.8262 10.808ZM18.437 1.02625L18.7515 0.6125L18.5528 0.5L18.351 0.96325H18.3443L18.1393 0.50325L17.937 0.619L18.2483 1.023V1.0295L17.7618 0.9665V1.19175L18.2515 1.12875V1.1355L17.937 1.539L18.1258 1.65825L18.341 1.19175H18.3475L18.5463 1.655L18.7548 1.53575L18.437 1.13875V1.132L18.9365 1.19175V0.9665L18.437 1.03275V1.02625Z" fill="#6FF9D8"/>
</g>
<defs>
<clipPath id="clip0_247_22058">
<rect width="42" height="42" fill="white"/>
</clipPath>
</defs>
</svg>
