<svg width="24" height="24" viewBox="0 0 24 24" fill="none" xmlns="http://www.w3.org/2000/svg">
<path d="M4.5 19.5H19.5V10.125L13.875 4.5H4.5V19.5ZM4.5 21C4.08333 21 3.72917 20.8542 3.4375 20.5625C3.14583 20.2708 3 19.9167 3 19.5V4.5C3 4.08333 3.14583 3.72917 3.4375 3.4375C3.72917 3.14583 4.08333 3 4.5 3H13.875C14.075 3 14.2708 3.04167 14.4625 3.125C14.6542 3.20833 14.8167 3.31667 14.95 3.45L20.55 9.05C20.6833 9.18333 20.7917 9.34583 20.875 9.5375C20.9583 9.72917 21 9.925 21 10.125V19.5C21 19.9167 20.8542 20.2708 20.5625 20.5625C20.2708 20.8542 19.9167 21 19.5 21H4.5ZM7.725 16.725H16.275C16.4917 16.725 16.6708 16.6542 16.8125 16.5125C16.9542 16.3708 17.025 16.1917 17.025 15.975C17.025 15.7583 16.9542 15.5792 16.8125 15.4375C16.6708 15.2958 16.4917 15.225 16.275 15.225H7.725C7.50833 15.225 7.32917 15.2958 7.1875 15.4375C7.04583 15.5792 6.975 15.7583 6.975 15.975C6.975 16.1917 7.04583 16.3708 7.1875 16.5125C7.32917 16.6542 7.50833 16.725 7.725 16.725ZM7.725 12.75H16.275C16.4917 12.75 16.6708 12.6792 16.8125 12.5375C16.9542 12.3958 17.025 12.2167 17.025 12C17.025 11.7833 16.9542 11.6042 16.8125 11.4625C16.6708 11.3208 16.4917 11.25 16.275 11.25H7.725C7.50833 11.25 7.32917 11.3208 7.1875 11.4625C7.04583 11.6042 6.975 11.7833 6.975 12C6.975 12.2167 7.04583 12.3958 7.1875 12.5375C7.32917 12.6792 7.50833 12.75 7.725 12.75ZM7.725 8.775H13.125C13.3417 8.775 13.5208 8.70417 13.6625 8.5625C13.8042 8.42083 13.875 8.24167 13.875 8.025C13.875 7.80833 13.8042 7.62917 13.6625 7.4875C13.5208 7.34583 13.3417 7.275 13.125 7.275H7.725C7.50833 7.275 7.32917 7.34583 7.1875 7.4875C7.04583 7.62917 6.975 7.80833 6.975 8.025C6.975 8.24167 7.04583 8.42083 7.1875 8.5625C7.32917 8.70417 7.50833 8.775 7.725 8.775ZM4.5 19.5V4.5V10.125V19.5Z" fill="#000728"/>
</svg>
