<svg width="77" height="58" viewBox="0 0 77 58" fill="none" xmlns="http://www.w3.org/2000/svg">
<path d="M59.329 3.57298C59.329 3.57298 53.7051 2.16693 50.0496 5.04929C50.0496 5.04929 49.0654 7.89653 50.0496 8.31805C51.0338 8.7399 56.0359 7.2315 58.134 5.3303M58.8136 7.61518C58.8136 7.61518 54.9953 9.96491 52.3663 8.09107M53.0766 8.48827L50.6231 12.087C49.2343 14.1243 47.2038 15.6384 44.8554 16.3886L38.8164 18.3175C37.1628 18.8457 35.426 19.0531 33.6944 18.9339C29.4033 18.639 20.4374 18.5343 14.4558 22.0263C14.4558 22.0263 5.0241 18.6461 2.45821 15.2571C-0.107683 11.8681 1.21293 22.6329 10.9493 25.3393L10.5558 26.6275C10.2812 27.5266 10.1447 28.4649 10.1792 29.4042C10.2488 31.3023 10.7557 33.1667 11.6704 34.849L14.1339 39.3813C14.8 40.6067 14.3879 42.1394 13.1967 42.8652L11.3812 43.9717C9.43884 45.1555 8.73193 47.6332 9.75701 49.6638L13.4601 56.9994H20.4195C20.4195 54.1522 16.5529 54.2579 16.5529 54.2579L14.1697 50.0161C13.6219 49.041 14.2163 47.8187 15.3214 47.6474L15.4853 47.6221C19.6696 46.9736 22.9097 43.6174 23.4106 39.4127L24.0749 33.8365M50.537 37.194L51.018 37.0606C53.6085 36.3426 55.8434 34.6947 57.2954 32.4324L58.9865 29.7973C60.3298 27.7042 60.7759 25.1596 60.2247 22.7349C60.0248 21.8551 60.1497 20.9327 60.5763 20.1376L62.1036 17.2917C62.7882 16.0161 64.0497 15.1524 65.4865 14.9758L67.6005 14.7157L70.7203 15.2504C71.9936 15.4686 73.2366 14.7282 73.6506 13.5045L73.7047 13.3448L66.2076 12.8024C65.7702 12.7706 65.4234 12.4214 65.395 11.984C65.3639 11.5091 65.7172 11.0957 66.1911 11.0525L71.8788 10.5337C74.0678 10.3341 75.7433 8.4984 75.7433 6.30032V5.8099L69.5497 4.9483C68.7654 4.83921 68.1223 4.27213 67.9156 3.5078L67.8126 3.12715C67.634 2.46651 67.151 1.93287 66.5109 1.69104C64.6449 0.986152 60.4939 0.0647665 55.8826 3.23321M51.807 32.0089L50.3786 33.266C49.8217 33.7561 49.6031 34.5268 49.8203 35.2364L52.1201 42.7544C52.6314 44.4256 51.5824 46.1718 49.8666 46.5051L39.575 48.5056L39.5395 48.2057C39.3338 46.47 40.6899 44.9437 42.4378 44.9437H44.7301L46.0514 44.3456C46.6694 44.0656 46.9038 43.308 46.5519 42.7281L42.0206 35.2631C41.2033 33.9165 41.1658 32.2359 41.923 30.8541L44.5896 25.9865M51.2024 37.0073L53.3299 38.8274L61.651 40.5982C62.1026 40.6945 62.3911 41.1383 62.2955 41.5902L61.8831 43.5373C61.8831 43.5373 59.0244 45.8573 61.8831 48.505L65.6385 44.5455C65.9989 44.1655 66.2205 43.6751 66.2674 43.1536L66.594 39.5252C66.7186 38.1407 65.9216 36.8381 64.632 36.3189L59.8062 34.3762C59.1574 34.1151 58.5957 33.6757 58.1861 33.1089L57.4839 32.1379M43.8553 38.2853C43.8553 38.2853 34.2324 38.441 24.0743 36.7891M27.6372 37.3021L25.3368 42.7855C24.4424 44.9177 22.4889 46.419 20.1982 46.7348L17.38 47.1235M17.8069 54.3818H20.565C22.0109 54.3818 23.1833 55.5541 23.1833 57H20.4191" stroke="#C3B7FF" stroke-width="1.07567" stroke-miterlimit="10" stroke-linecap="round" stroke-linejoin="round"/>
</svg>
