<svg width="36" height="36" viewBox="0 0 36 36" fill="none" xmlns="http://www.w3.org/2000/svg">
<path fill-rule="evenodd" clip-rule="evenodd" d="M15.4951 6.71211C15.0599 6.53186 14.571 6.53186 14.1359 6.71211C13.7007 6.89236 13.355 7.2381 13.1747 7.67328L12.1738 10.0898L12.1732 10.0913C11.7813 11.0334 11.0316 11.7816 10.0887 12.1716C10.0885 12.1717 10.0889 12.1715 10.0887 12.1716L7.67407 13.1719C7.45849 13.2611 7.2623 13.392 7.09729 13.557C6.93229 13.7219 6.8014 13.9178 6.71211 14.1334C6.62282 14.3489 6.57689 14.58 6.57692 14.8133C6.57696 15.0467 6.62297 15.2777 6.71233 15.4932L6.71286 15.4945L7.71096 17.9112C7.71087 17.911 7.71105 17.9114 7.71096 17.9112C8.10219 18.8545 8.10316 19.9153 7.71318 20.8592L6.7129 23.2741C6.53302 23.7092 6.53327 24.198 6.71358 24.6329C6.8939 25.0678 7.23953 25.4134 7.67449 25.5935L10.0909 26.5945C11.0341 26.9862 11.784 27.7366 12.1744 28.6804L13.1754 31.097C13.3557 31.5317 13.7013 31.877 14.1361 32.0571C14.5709 32.2372 15.0594 32.2374 15.4943 32.0575L17.9095 31.0585C18.8527 30.6675 19.9137 30.6664 20.8574 31.0563L23.2729 32.0569C23.7081 32.2371 24.197 32.2371 24.6322 32.0569C25.0673 31.8766 25.413 31.5309 25.5933 31.0957L26.5942 28.6792C26.9859 27.7358 27.7366 26.9857 28.6806 26.5954L31.0947 25.5954C31.3103 25.5062 31.5065 25.3752 31.6715 25.2103C31.8365 25.0453 31.9673 24.8495 32.0566 24.6339C32.1459 24.4183 32.1919 24.1873 32.1918 23.9539C32.1918 23.7206 32.1458 23.4896 32.0564 23.274L31.0585 20.8614C31.0584 20.8611 31.0587 20.8617 31.0585 20.8614C30.6654 19.9162 30.6661 18.8534 31.0569 17.9097L32.0571 15.495C32.2374 15.0598 32.2374 14.5708 32.0571 14.1356C31.8769 13.7004 31.5311 13.3547 31.096 13.1745L28.6796 12.1735C27.7569 11.7904 27.0192 11.0638 26.6221 10.149C26.613 10.1303 26.6044 10.1112 26.5964 10.0918L25.5952 7.67475C25.4149 7.23968 25.0692 6.89404 24.6342 6.71382C24.1991 6.53361 23.7103 6.53357 23.2752 6.71372L20.8585 7.71047C20.8581 7.71064 20.859 7.7103 20.8585 7.71047C19.9154 8.10147 18.8543 8.10261 17.9106 7.71269L15.4951 6.71211ZM28.4935 9.24458C28.5011 9.2606 28.5083 9.2769 28.5151 9.29345C28.695 9.72854 29.0403 10.0744 29.4751 10.255C29.475 10.2549 29.4751 10.255 29.4751 10.255L31.8908 11.2556C32.8349 11.6467 33.5849 12.3968 33.976 13.3408C34.367 14.2849 34.367 15.3457 33.976 16.2897L32.9758 18.7045C32.7952 19.1404 32.7954 19.6294 32.976 20.0632L32.9769 20.0654L33.975 22.4786C34.1688 22.9462 34.2687 23.4474 34.2687 23.9536C34.2688 24.4598 34.1692 24.961 33.9755 25.4287C33.7818 25.8963 33.4978 26.3212 33.1399 26.6791C32.7819 27.037 32.3569 27.3208 31.8892 27.5144L29.4748 28.5145C29.04 28.6943 28.6937 29.0395 28.513 29.474M28.513 29.474L27.5121 31.8905C27.1211 32.8346 26.371 33.5846 25.427 33.9757C24.4829 34.3668 23.4222 34.3668 22.4781 33.9757L20.0643 32.9758C19.6291 32.796 19.1404 32.7964 18.7055 32.9768L16.288 33.9768C15.3445 34.367 14.2845 34.3667 13.3412 33.9759C12.398 33.5852 11.6483 32.836 11.257 31.8929L10.2556 29.4751C10.0757 29.04 9.73006 28.6935 9.29522 28.5129L6.87966 27.5123C5.93601 27.1215 5.18619 26.3719 4.79501 25.4283C4.40383 24.4848 4.4033 23.4245 4.79354 22.4806L5.79364 20.0661C5.79358 20.0662 5.7937 20.0659 5.79364 20.0661C5.97328 19.631 5.97303 19.1419 5.79262 18.7071L4.79375 16.2886C4.79365 16.2884 4.79384 16.2889 4.79375 16.2886C4.60009 15.8212 4.50008 15.3196 4.5 14.8137C4.49992 14.3075 4.59957 13.8062 4.79327 13.3386C4.98697 12.8709 5.27092 12.446 5.62889 12.0882C5.98679 11.7304 6.41166 11.4466 6.87925 11.253C6.87914 11.2531 6.87935 11.253 6.87925 11.253L9.29392 10.2528C9.72847 10.0731 10.0746 9.72818 10.2554 9.29406C10.2553 9.29425 10.2555 9.29388 10.2554 9.29406L11.2559 6.8785C11.6469 5.93443 12.397 5.18435 13.341 4.79329C14.2851 4.40224 15.3458 4.40224 16.2899 4.79329L18.7037 5.79317C18.7036 5.79311 18.7039 5.79323 18.7037 5.79317C19.1388 5.9728 19.6278 5.97255 20.0625 5.79215L20.0646 5.7913L22.4807 4.79478C22.4804 4.79491 22.481 4.79466 22.4807 4.79478C23.4244 4.40433 24.4854 4.40415 25.429 4.79501C26.3729 5.18599 27.1228 5.93585 27.5139 6.87968L28.4935 9.24458M24.9651 15.1888C25.3706 15.5943 25.3706 16.2518 24.9651 16.6574L18.7343 22.8881C18.3288 23.2937 17.6712 23.2937 17.2657 22.8881L14.4965 20.1189C14.0909 19.7134 14.0909 19.0559 14.4965 18.6503C14.902 18.2448 15.5595 18.2448 15.9651 18.6503L18 20.6852L23.4965 15.1888C23.902 14.7832 24.5595 14.7832 24.9651 15.1888Z" fill="#6FF9D8"/>
<path fill-rule="evenodd" clip-rule="evenodd" d="M12.7259 3.94282C12.2907 3.76257 11.8018 3.76257 11.3667 3.94282C10.9315 4.12307 10.5858 4.46881 10.4055 4.90399L9.40461 7.32049L9.404 7.32197C9.01206 8.2641 8.26241 9.01228 7.31952 9.40234C7.31932 9.40243 7.31972 9.40226 7.31952 9.40234L4.90485 10.4026C4.68927 10.4918 4.49307 10.6227 4.32807 10.7877C4.16306 10.9527 4.03217 11.1485 3.94289 11.3641C3.8536 11.5797 3.80766 11.8107 3.8077 12.044C3.80773 12.2774 3.85375 12.5084 3.9431 12.7239L3.94363 12.7252L4.94174 15.1419C4.94165 15.1417 4.94183 15.1421 4.94174 15.1419C5.33296 16.0852 5.33393 17.146 4.94395 18.0899L3.94368 20.5048C3.76379 20.9399 3.76404 21.4287 3.94436 21.8636C4.12468 22.2986 4.47031 22.6441 4.90526 22.8242L7.32167 23.8252C8.26487 24.2169 9.01481 24.9673 9.40519 25.9111L10.4061 28.3277C10.5865 28.7624 10.9321 29.1077 11.3669 29.2878C11.8016 29.4679 12.2901 29.4681 12.725 29.2883L15.1403 28.2892C16.0835 27.8982 17.1445 27.8971 18.0882 28.287L20.5037 29.2876C20.9389 29.4679 21.4278 29.4679 21.8629 29.2876C22.2981 29.1074 22.6438 28.7616 22.8241 28.3264L23.825 25.9099C24.2167 24.9665 24.9674 24.2164 25.9114 23.8261L28.3254 22.8261C28.541 22.7369 28.7372 22.6059 28.9022 22.441C29.0672 22.276 29.1981 22.0802 29.2874 21.8646C29.3767 21.649 29.4226 21.418 29.4226 21.1847C29.4226 20.9513 29.3765 20.7203 29.2872 20.5047L28.2893 18.0921C28.2892 18.0918 28.2894 18.0924 28.2893 18.0921C27.8961 17.1469 27.8968 16.0841 28.2877 15.1404L29.2879 12.7257C29.4681 12.2905 29.4681 11.8015 29.2879 11.3663C29.1076 10.9312 28.7619 10.5854 28.3268 10.4052L25.9104 9.40422C24.9877 9.02108 24.2499 8.29456 23.8528 7.37972C23.8438 7.36102 23.8352 7.34196 23.8271 7.32253L22.826 4.90546C22.6457 4.47039 22.3 4.12475 21.865 3.94454C21.4299 3.76432 20.9411 3.76429 20.506 3.94443L18.0893 4.94118C18.0889 4.94135 18.0897 4.94101 18.0893 4.94118C17.1461 5.33219 16.0851 5.33332 15.1414 4.9434L12.7259 3.94282ZM25.7242 6.47529C25.7318 6.49132 25.7391 6.50761 25.7459 6.52416C25.9258 6.95925 26.2711 7.30509 26.7059 7.48568C26.7058 7.48566 26.7059 7.48571 26.7059 7.48568L29.1216 8.48635C30.0657 8.87741 30.8157 9.62748 31.2067 10.5716C31.5978 11.5156 31.5978 12.5764 31.2067 13.5205L30.2065 15.9352C30.026 16.3711 30.0262 16.8601 30.2067 17.2939L30.2076 17.2961L31.2058 19.7093C31.3996 20.1769 31.4994 20.6781 31.4995 21.1843C31.4996 21.6905 31.3999 22.1917 31.2062 22.6594C31.0125 23.127 30.7286 23.5519 30.3706 23.9098C30.0126 24.2677 29.5877 24.5515 29.12 24.7451L26.7056 25.7452C26.2708 25.925 25.9245 26.2702 25.7438 26.7047M25.7438 26.7047L24.7429 29.1212C24.3519 30.0653 23.6018 30.8154 22.6578 31.2064C21.7137 31.5975 20.653 31.5975 19.7089 31.2064L17.2951 30.2065C16.8599 30.0267 16.3712 30.0271 15.9363 30.2076L13.5188 31.2075C12.5752 31.5977 11.5153 31.5974 10.572 31.2066C9.62873 30.8159 8.87911 30.0667 8.4878 29.1237L7.48635 26.7058C7.30643 26.2707 6.96084 25.9242 6.526 25.7437L4.11043 24.7431C3.16678 24.3522 2.41697 23.6026 2.02579 22.659C1.63461 21.7155 1.63408 20.6553 2.02431 19.7113L3.02442 17.2968C3.02436 17.2969 3.02448 17.2966 3.02442 17.2968C3.20405 16.8617 3.2038 16.3726 3.0234 15.9379L2.02452 13.5193C2.02442 13.5191 2.02462 13.5196 2.02452 13.5193C1.83086 13.052 1.73086 12.5503 1.73077 12.0444C1.73069 11.5382 1.83035 11.037 2.02405 10.5693C2.21775 10.1017 2.5017 9.67676 2.85967 9.31889C3.21756 8.96109 3.64244 8.67731 4.11002 8.48376C4.10992 8.4838 4.11012 8.48371 4.11002 8.48376L6.52469 7.48353C6.95924 7.30384 7.30539 6.95889 7.48616 6.52478C7.48609 6.52496 7.48624 6.52459 7.48616 6.52478L8.48668 4.10921C8.87772 3.16514 9.62776 2.41506 10.5718 2.02401C11.5159 1.63295 12.5766 1.63295 13.5207 2.02401L15.9345 3.02388C15.9344 3.02382 15.9347 3.02394 15.9345 3.02388C16.3696 3.20351 16.8586 3.20326 17.2933 3.02286L17.2954 3.02201L19.7115 2.0255C19.7112 2.02562 19.7118 2.02537 19.7115 2.0255C20.6552 1.63504 21.7162 1.63487 22.6598 2.02572C23.6037 2.4167 24.3536 3.16656 24.7447 4.11039L25.7242 6.47529M22.1958 12.4195C22.6014 12.825 22.6014 13.4825 22.1958 13.8881L15.9651 20.1189C15.5595 20.5244 14.902 20.5244 14.4965 20.1189L11.7272 17.3496C11.3217 16.9441 11.3217 16.2866 11.7272 15.881C12.1328 15.4755 12.7903 15.4755 13.1958 15.881L15.2308 17.916L20.7272 12.4195C21.1328 12.0139 21.7903 12.0139 22.1958 12.4195Z" fill="#000E50"/>
</svg>
