<svg width="88" height="100" viewBox="0 0 88 100" fill="none" xmlns="http://www.w3.org/2000/svg">
  <g clip-path="url(#clip0_268_11080)">
    <path d="M17.4087 87.5158C16.8578 83.8762 13.8187 81.0901 10.2317 81.0712C6.92944 81.0524 3.65814 83.3899 3.02369 87.4342L17.4087 87.5158ZM19.7577 89.9662L3.00821 89.8721C3.59624 93.9258 6.71898 96.668 10.4298 96.69C12.9583 96.7057 15.1247 95.4349 16.6381 94.0387C16.9662 93.7093 17.3747 93.7532 17.6563 94.1266L18.4641 95.1651C18.7488 95.4977 18.7457 95.8679 18.4579 96.1974C16.1212 98.6227 13.1409 99.6393 10.4112 99.6236C4.21831 99.5859 -0.030964 94.3148 -1.51594e-05 88.5323C0.0340286 82.5835 4.58042 78.2694 10.2441 78.3039C15.9077 78.3353 20.2034 82.7404 20.4943 89.2289C20.4943 89.7246 20.2034 89.9725 19.7577 89.9693" fill="#000E50"/>
    <path d="M41.8212 87.6539C41.2703 84.0144 38.228 81.2282 34.6442 81.2094C31.3419 81.1906 28.0706 83.5281 27.4362 87.5724L41.8212 87.6539ZM44.1702 90.1044L27.4207 90.0103C28.0087 94.064 31.1315 96.8062 34.8422 96.8281C37.3708 96.8438 39.5372 95.5731 41.0506 94.1769C41.3786 93.8475 41.7872 93.8914 42.0688 94.2648L42.8766 95.3033C43.1613 95.6359 43.1582 96.0061 42.8704 96.3356C40.5337 98.7609 37.5534 99.7774 34.8237 99.7618C28.6308 99.7272 24.3784 94.4562 24.4094 88.6705C24.4434 82.7217 28.9898 78.4076 34.6535 78.4421C40.3171 78.4735 44.6128 82.8786 44.9037 89.367C44.9037 89.8628 44.6159 90.1107 44.1671 90.1075" fill="#000E50"/>
    <path d="M56.3455 99.5511L55.4882 99.5448C55.1632 99.5448 54.8785 99.3754 54.7578 99.046L47.0392 79.543C46.8782 79.088 47.0825 78.8402 47.5313 78.8433L49.3232 78.8527C49.6482 78.8527 49.9329 79.0221 50.0536 79.3516L55.9586 94.9609L62.0772 79.4175C62.201 79.088 62.4888 78.9249 62.8138 78.9249L64.5655 78.9343C65.0143 78.9343 65.2154 79.1853 65.0514 79.6402L57.079 99.0554C56.9552 99.3848 56.6674 99.548 56.3424 99.548" fill="#000E50"/>
    <path d="M85.1341 89.345C85.1558 85.0905 81.7545 81.5984 77.5145 81.5764C73.2776 81.5513 69.833 85.0026 69.8114 89.2603C69.7866 93.5995 73.191 97.0884 77.431 97.1135C81.6679 97.1386 85.1125 93.6873 85.1372 89.3481M88.0031 79.8194L87.8979 98.9898C87.8979 99.4447 87.6101 99.7334 87.1613 99.7303L86.1431 99.724C85.6943 99.724 85.4096 99.4322 85.4127 98.9772L85.4282 96.2915C83.5 98.5945 80.5568 100.025 77.4186 100.006C71.5909 99.975 66.8898 95.1557 66.9238 89.2446C66.9548 83.4181 71.7085 78.6522 77.5362 78.6867C80.6744 78.7055 83.6022 80.1676 85.5024 82.4926L85.5179 79.8068C85.5179 79.3519 85.8057 79.0664 86.2545 79.0664L87.2727 79.0726C87.7215 79.0726 88.0062 79.3644 88.0031 79.8194Z" fill="#000E50"/>
    <path d="M31 6.49787L54.5242 20.2717C56.1274 21.2098 58.1019 21.2098 59.7051 20.2717L66.585 16.24C68.1789 15.3081 68.1789 12.9769 66.585 12.0419L47.6938 0.988328C45.4407 -0.329443 42.6677 -0.329443 40.4146 0.988328L31 6.49787Z" fill="#000E50"/>
    <path d="M17.8946 18.4051C17.8946 17.0873 18.2413 15.8197 18.8695 14.7153L40.3944 27.3314C41.9852 28.2633 41.9852 30.5945 40.3944 31.5263L18.8695 44.1424C18.2413 43.038 17.8946 41.7704 17.8946 40.4527V18.4051Z" fill="#000E50"/>
    <path d="M21.5342 12.0139C20.4077 12.6727 19.4978 13.6109 18.8695 14.7153L30.9458 21.7936L44.0155 14.1443L30.955 6.49805L21.5342 12.0107V12.0139Z" fill="#17FCDB"/>
    <path d="M30.955 52.3593L54.4793 38.5854C56.0824 37.6473 58.057 37.6473 59.6601 38.5854L66.5401 42.6172C68.1339 43.549 68.1339 45.8802 66.5401 46.8152L47.6489 57.872C45.3958 59.1897 42.6228 59.1897 40.3697 57.872L30.955 52.3624V52.3593Z" fill="#000E50"/>
    <path d="M21.5342 46.8466C20.4077 46.1878 19.4978 45.2496 18.8695 44.1452L30.9458 37.0669L44.0155 44.7162L30.955 52.3625L21.5342 46.8498V46.8466Z" fill="#CCBFFF"/>
  </g>
  <defs>
    <clipPath id="clip0_268_11080">
      <rect width="88" height="100" fill="white"/>
    </clipPath>
  </defs>
</svg>
