<svg width="28" height="28" viewBox="0 0 28 28" fill="none" xmlns="http://www.w3.org/2000/svg">
<path d="M25.25 18.7138C25.25 22.8088 22.8088 25.25 18.7138 25.25H17.375C16.7563 25.25 16.25 24.7437 16.25 24.125V17.6337C16.25 17.33 16.4975 17.0712 16.8012 17.0712L18.7812 17.0375C18.9387 17.0262 19.0738 16.9137 19.1075 16.7562L19.5012 14.6075C19.5089 14.5588 19.5059 14.509 19.4924 14.4616C19.479 14.4142 19.4554 14.3702 19.4233 14.3328C19.3912 14.2954 19.3514 14.2653 19.3066 14.2448C19.2618 14.2242 19.213 14.2136 19.1637 14.2137L16.7675 14.2475C16.4525 14.2475 16.205 14 16.1937 13.6962L16.1488 10.94C16.1488 10.76 16.295 10.6025 16.4862 10.6025L19.1863 10.5575C19.3775 10.5575 19.5238 10.4113 19.5238 10.22L19.4788 7.52C19.4788 7.32875 19.3325 7.1825 19.1413 7.1825L16.1038 7.2275C15.6603 7.23424 15.2226 7.32841 14.8157 7.50461C14.4087 7.68082 14.0406 7.9356 13.7323 8.25435C13.424 8.57311 13.1816 8.94957 13.019 9.36216C12.8565 9.77475 12.777 10.2154 12.785 10.6587L12.8413 13.7525C12.8525 14.0675 12.605 14.315 12.29 14.3263L10.94 14.3488C10.7487 14.3488 10.6025 14.495 10.6025 14.6862L10.6363 16.8238C10.6363 17.015 10.7825 17.1613 10.9738 17.1613L12.3238 17.1388C12.6388 17.1388 12.8863 17.3862 12.8975 17.69L12.9987 24.1025C13.01 24.7325 12.5037 25.25 11.8737 25.25H9.28625C5.19125 25.25 2.75 22.8088 2.75 18.7025V9.28625C2.75 5.19125 5.19125 2.75 9.28625 2.75H18.7138C22.8088 2.75 25.25 5.19125 25.25 9.28625V18.7138Z" fill="#000E50"/>
</svg>
