<svg width="48" height="48" viewBox="0 0 48 48" fill="none" xmlns="http://www.w3.org/2000/svg">
<path d="M21.95 40.2008L19.3 37.7508C15.1667 33.9174 11.5833 30.2591 8.55 26.7758C5.51667 23.2924 4 19.6508 4 15.8508C4 12.8508 5.00833 10.3424 7.025 8.32578C9.04167 6.30911 11.5333 5.30078 14.5 5.30078C16.2 5.30078 17.8833 5.70911 19.55 6.52578C21.2167 7.34245 22.7 8.68411 24 10.5508C25.4667 8.68411 26.9833 7.34245 28.55 6.52578C30.1167 5.70911 31.7667 5.30078 33.5 5.30078C36.4667 5.30078 38.9583 6.30911 40.975 8.32578C42.9917 10.3424 44 12.8508 44 15.8508C44 19.6508 42.4833 23.2924 39.45 26.7758C36.4167 30.2591 32.8333 33.9174 28.7 37.7508L26.05 40.2008C25.4833 40.7341 24.8 41.0008 24 41.0008C23.2 41.0008 22.5167 40.7341 21.95 40.2008ZM22.7 13.8508C21.8 12.2174 20.6167 10.8841 19.15 9.85078C17.6833 8.81745 16.1333 8.30078 14.5 8.30078C12.3 8.30078 10.5 9.00911 9.1 10.4258C7.7 11.8424 7 13.6508 7 15.8508C7 17.7841 7.65 19.8091 8.95 21.9258C10.25 24.0424 11.8 26.1008 13.6 28.1008C15.4 30.1008 17.2667 31.9591 19.2 33.6758C21.1333 35.3924 22.7333 36.8341 24 38.0008C25.2667 36.8674 26.8667 35.4341 28.8 33.7008C30.7333 31.9674 32.6 30.0924 34.4 28.0758C36.2 26.0591 37.75 23.9924 39.05 21.8758C40.35 19.7591 41 17.7508 41 15.8508C41 13.6508 40.2917 11.8424 38.875 10.4258C37.4583 9.00911 35.6667 8.30078 33.5 8.30078C31.8333 8.30078 30.275 8.80911 28.825 9.82578C27.375 10.8424 26.1667 12.1841 25.2 13.8508C25.0333 14.1174 24.85 14.3091 24.65 14.4258C24.45 14.5424 24.2167 14.6008 23.95 14.6008C23.6833 14.6008 23.4417 14.5424 23.225 14.4258C23.0083 14.3091 22.8333 14.1174 22.7 13.8508Z" fill="black"/>
</svg>
