<svg width="48" height="48" viewBox="0 0 48 48" fill="none" xmlns="http://www.w3.org/2000/svg">
<path d="M21.95 40.2008L19.3 37.7508C15.1667 33.9174 11.5833 30.2591 8.55 26.7758C5.51667 23.2924 4 19.6508 4 15.8508C4 12.8508 5.00833 10.3424 7.025 8.32578C9.04167 6.30911 11.5333 5.30078 14.5 5.30078C16.2 5.30078 17.8833 5.70911 19.55 6.52578C21.2167 7.34245 22.7 8.68411 24 10.5508C25.4667 8.68411 26.9833 7.34245 28.55 6.52578C30.1167 5.70911 31.7667 5.30078 33.5 5.30078C36.4667 5.30078 38.9583 6.30911 40.975 8.32578C42.9917 10.3424 44 12.8508 44 15.8508C44 19.6508 42.4833 23.2924 39.45 26.7758C36.4167 30.2591 32.8333 33.9174 28.7 37.7508L26.05 40.2008C25.4833 40.7341 24.8 41.0008 24 41.0008C23.2 41.0008 22.5167 40.7341 21.95 40.2008Z"/>
</svg>
