<svg width="345" height="273" viewBox="0 0 345 273" fill="none" xmlns="http://www.w3.org/2000/svg">
<path d="M-60.5098 -58.3579C-60.5098 -60.9356 -59.1253 -63.3146 -56.8841 -64.5881L-22.4892 -84.1306C-20.2941 -85.3778 -17.6045 -85.3779 -15.4094 -84.1306L18.9855 -64.5881C21.2267 -63.3146 22.6112 -60.9356 22.6112 -58.3579L22.6112 -19.4834C22.6112 -16.9057 21.2267 -14.5266 18.9855 -13.2532L-15.4094 6.28938C-17.6045 7.53661 -20.2941 7.53661 -22.4892 6.28938L-56.8841 -13.2532C-59.1253 -14.5266 -60.5098 -16.9057 -60.5098 -19.4834L-60.5098 -58.3579Z" stroke="#000E50" stroke-width="0.955415"/>
<path d="M46.498 -58.3579C46.498 -60.9356 47.8825 -63.3146 50.1237 -64.5881L84.5186 -84.1306C86.7138 -85.3778 89.4033 -85.3779 91.5984 -84.1306L125.993 -64.5881C128.235 -63.3146 129.619 -60.9356 129.619 -58.3579L129.619 -19.4834C129.619 -16.9057 128.235 -14.5266 125.993 -13.2532L91.5984 6.28938C89.4033 7.53661 86.7138 7.53661 84.5186 6.28938L50.1237 -13.2532C47.8825 -14.5266 46.498 -16.9057 46.498 -19.4834L46.498 -58.3579Z" stroke="#000E50" stroke-width="0.955415"/>
<path d="M153.503 -58.3624C153.503 -60.9401 154.887 -63.3192 157.129 -64.5926L191.524 -84.1351C193.719 -85.3824 196.408 -85.3824 198.603 -84.1351L232.998 -64.5926C235.239 -63.3192 236.624 -60.9401 236.624 -58.3624L236.624 -19.4879C236.624 -16.9102 235.239 -14.5311 232.998 -13.2577L198.603 6.28486C196.408 7.53209 193.719 7.53209 191.524 6.28486L157.129 -13.2577C154.887 -14.5311 153.503 -16.9102 153.503 -19.4879L153.503 -58.3624Z" stroke="#000E50" stroke-width="0.955415"/>
<path d="M260.478 -58.3624C260.478 -60.9401 261.862 -63.3192 264.103 -64.5926L298.498 -84.1351C300.693 -85.3824 303.383 -85.3824 305.578 -84.1351L339.973 -64.5926C342.214 -63.3192 343.599 -60.9401 343.599 -58.3624L343.599 -19.4879C343.599 -16.9102 342.214 -14.5311 339.973 -13.2577L305.578 6.28486C303.383 7.53209 300.693 7.53209 298.498 6.28486L264.103 -13.2577C261.862 -14.5311 260.478 -16.9102 260.478 -19.4879L260.478 -58.3624Z" stroke="#000E50" stroke-width="0.955415"/>
<path d="M-60.5098 109.792C-60.5098 107.214 -59.1253 104.835 -56.8841 103.562L-22.4892 84.0193C-20.2941 82.7721 -17.6045 82.772 -15.4094 84.0193L18.9855 103.562C21.2267 104.835 22.6112 107.214 22.6112 109.792L22.6112 148.667C22.6112 151.244 21.2267 153.623 18.9855 154.897L-15.4094 174.439C-17.6045 175.687 -20.2941 175.687 -22.4892 174.439L-56.8841 154.897C-59.1253 153.623 -60.5098 151.244 -60.5098 148.667L-60.5098 109.792Z" stroke="#000E50" stroke-width="0.955415"/>
<path d="M46.4982 109.792C46.4982 107.214 47.8828 104.835 50.124 103.562L84.5189 84.0193C86.714 82.7721 89.4035 82.772 91.5986 84.0193L125.994 103.562C128.235 104.835 129.619 107.214 129.619 109.792L129.619 148.667C129.619 151.244 128.235 153.623 125.994 154.897L91.5986 174.439C89.4035 175.687 86.714 175.687 84.5189 174.439L50.124 154.897C47.8827 153.623 46.4982 151.244 46.4982 148.667L46.4982 109.792Z" stroke="#000E50" stroke-width="0.955415"/>
<path d="M-7.00544 25.7162C-7.00544 23.1385 -5.62091 20.7595 -3.37971 19.486L31.0152 -0.0565288C33.2103 -1.30375 35.8999 -1.30376 38.095 -0.0565278L72.4899 19.486C74.7311 20.7595 76.1156 23.1385 76.1156 25.7162L76.1156 64.5907C76.1156 67.1684 74.7311 69.5475 72.4899 70.8209L38.095 90.3635C35.8998 91.6107 33.2103 91.6107 31.0152 90.3635L-3.37971 70.8209C-5.62091 69.5475 -7.00544 67.1684 -7.00544 64.5907L-7.00544 25.7162Z" stroke="#000E50" stroke-width="0.955415"/>
<path d="M-7.00544 205.333C-7.00544 202.756 -5.62091 200.377 -3.37971 199.103L31.0152 179.561C33.2103 178.313 35.8999 178.313 38.095 179.561L72.4899 199.103C74.7311 200.377 76.1156 202.756 76.1156 205.333L76.1156 244.208C76.1156 246.785 74.7311 249.165 72.4899 250.438L38.095 269.981C35.8998 271.228 33.2103 271.228 31.0152 269.981L-3.37971 250.438C-5.62091 249.165 -7.00544 246.785 -7.00544 244.208L-7.00544 205.333Z" stroke="#000E50" stroke-width="0.955415"/>
<path d="M99.9992 25.7162C99.9992 23.1385 101.384 20.7595 103.625 19.486L138.02 -0.0565288C140.215 -1.30375 142.904 -1.30376 145.1 -0.0565278L179.495 19.486C181.736 20.7595 183.12 23.1385 183.12 25.7162L183.12 64.5907C183.12 67.1684 181.736 69.5475 179.495 70.8209L145.1 90.3635C142.904 91.6107 140.215 91.6107 138.02 90.3635L103.625 70.8209C101.384 69.5475 99.9992 67.1684 99.9992 64.5907L99.9992 25.7162Z" stroke="#000E50" stroke-width="0.955415"/>
<path d="M207.007 25.7162C207.007 23.1385 208.392 20.7595 210.633 19.486L245.028 -0.0565288C247.223 -1.30375 249.912 -1.30376 252.107 -0.0565278L286.502 19.486C288.744 20.7595 290.128 23.1385 290.128 25.7162L290.128 64.5907C290.128 67.1684 288.744 69.5475 286.502 70.8209L252.107 90.3635C249.912 91.6107 247.223 91.6107 245.028 90.3635L210.633 70.8209C208.392 69.5475 207.007 67.1684 207.007 64.5907L207.007 25.7162Z" stroke="#000E50" stroke-width="0.955415"/>
</svg>
