<svg width="105" height="114" viewBox="0 0 105 114" fill="none" xmlns="http://www.w3.org/2000/svg">
<g filter="url(#filter0_d_6613_5304)">
<path d="M5.00782 32.2472C5.00782 29.1321 6.69373 26.261 9.41407 24.7434L48.3215 3.03714C50.9236 1.58544 54.0921 1.58544 56.6942 3.03714L95.6016 24.7434C98.3219 26.2611 100.008 29.1321 100.008 32.2472L100.008 75.156C100.008 78.2711 98.3219 81.1422 95.6016 82.6598L56.6941 104.366C54.092 105.818 50.9236 105.818 48.3215 104.366L9.41406 82.6598C6.69373 81.1422 5.00782 78.2711 5.00782 75.156L5.00782 32.2472Z" fill="url(#paint0_linear_6613_5304)"/>
<path d="M5.00782 32.2472C5.00782 29.1321 6.69373 26.261 9.41407 24.7434L48.3215 3.03714C50.9236 1.58544 54.0921 1.58544 56.6942 3.03714L95.6016 24.7434C98.3219 26.2611 100.008 29.1321 100.008 32.2472L100.008 75.156C100.008 78.2711 98.3219 81.1422 95.6016 82.6598L56.6941 104.366C54.092 105.818 50.9236 105.818 48.3215 104.366L9.41406 82.6598C6.69373 81.1422 5.00782 78.2711 5.00782 75.156L5.00782 32.2472Z" stroke="url(#paint1_linear_6613_5304)" stroke-width="1.82199" stroke-linecap="round" stroke-dasharray="9 9"/>
</g>
<path d="M52.5105 36.5021V57.901M63.2099 47.2016H41.811" stroke="url(#paint2_linear_6613_5304)" stroke-width="2.29274" stroke-linecap="round" stroke-linejoin="round"/>
<path d="M46.9696 71.8264H44.0507L43.5491 73.2507H42.3555L44.8531 66.2694H46.1772L48.6748 73.2507H47.4712L46.9696 71.8264ZM46.6486 70.8935L45.5152 67.6536L44.3717 70.8935H46.6486ZM49.5803 70.4622C49.5803 69.9072 49.6939 69.4157 49.9213 68.9877C50.1554 68.5597 50.4697 68.2287 50.8642 67.9946C51.2654 67.7539 51.7101 67.6335 52.1983 67.6335C52.5594 67.6335 52.9138 67.7138 53.2615 67.8743C53.616 68.0281 53.8968 68.2354 54.1041 68.4962V65.828H55.2577V73.2507H54.1041V72.4182C53.9169 72.6857 53.6561 72.9063 53.3217 73.0802C52.9941 73.2541 52.6162 73.341 52.1883 73.341C51.7068 73.341 51.2654 73.2206 50.8642 72.9799C50.4697 72.7325 50.1554 72.3914 49.9213 71.9568C49.6939 71.5154 49.5803 71.0172 49.5803 70.4622ZM54.1041 70.4823C54.1041 70.1011 54.0239 69.7701 53.8634 69.4892C53.7096 69.2084 53.5056 68.9944 53.2515 68.8472C52.9974 68.7001 52.7232 68.6266 52.429 68.6266C52.1348 68.6266 51.8606 68.7001 51.6065 68.8472C51.3524 68.9877 51.1451 69.1983 50.9846 69.4792C50.8308 69.7534 50.7539 70.081 50.7539 70.4622C50.7539 70.8434 50.8308 71.1777 50.9846 71.4653C51.1451 71.7528 51.3524 71.9735 51.6065 72.1273C51.8673 72.2744 52.1414 72.348 52.429 72.348C52.7232 72.348 52.9974 72.2744 53.2515 72.1273C53.5056 71.9802 53.7096 71.7662 53.8634 71.4853C54.0239 71.1978 54.1041 70.8634 54.1041 70.4823ZM56.579 70.4622C56.579 69.9072 56.6927 69.4157 56.9201 68.9877C57.1541 68.5597 57.4684 68.2287 57.863 67.9946C58.2642 67.7539 58.7089 67.6335 59.1971 67.6335C59.5582 67.6335 59.9126 67.7138 60.2603 67.8743C60.6147 68.0281 60.8956 68.2354 61.1029 68.4962V65.828H62.2564V73.2507H61.1029V72.4182C60.9157 72.6857 60.6549 72.9063 60.3205 73.0802C59.9928 73.2541 59.615 73.341 59.187 73.341C58.7056 73.341 58.2642 73.2206 57.863 72.9799C57.4684 72.7325 57.1541 72.3914 56.9201 71.9568C56.6927 71.5154 56.579 71.0172 56.579 70.4622ZM61.1029 70.4823C61.1029 70.1011 61.0227 69.7701 60.8622 69.4892C60.7084 69.2084 60.5044 68.9944 60.2503 68.8472C59.9962 68.7001 59.722 68.6266 59.4278 68.6266C59.1335 68.6266 58.8594 68.7001 58.6052 68.8472C58.3511 68.9877 58.1438 69.1983 57.9833 69.4792C57.8295 69.7534 57.7526 70.081 57.7526 70.4622C57.7526 70.8434 57.8295 71.1777 57.9833 71.4653C58.1438 71.7528 58.3511 71.9735 58.6052 72.1273C58.866 72.2744 59.1402 72.348 59.4278 72.348C59.722 72.348 59.9962 72.2744 60.2503 72.1273C60.5044 71.9802 60.7084 71.7662 60.8622 71.4853C61.0227 71.1978 61.1029 70.8634 61.1029 70.4823Z" fill="#666E96"/>
<defs>
<filter id="filter0_d_6613_5304" x="0.452945" y="1.03735" width="104.11" height="112.616" filterUnits="userSpaceOnUse" color-interpolation-filters="sRGB">
<feFlood flood-opacity="0" result="BackgroundImageFix"/>
<feColorMatrix in="SourceAlpha" type="matrix" values="0 0 0 0 0 0 0 0 0 0 0 0 0 0 0 0 0 0 127 0" result="hardAlpha"/>
<feOffset dy="3.64398"/>
<feGaussianBlur stdDeviation="1.82199"/>
<feComposite in2="hardAlpha" operator="out"/>
<feColorMatrix type="matrix" values="0 0 0 0 0 0 0 0 0 0.054902 0 0 0 0 0.313726 0 0 0 0.1 0"/>
<feBlend mode="normal" in2="BackgroundImageFix" result="effect1_dropShadow_6613_5304"/>
<feBlend mode="normal" in="SourceGraphic" in2="effect1_dropShadow_6613_5304" result="shape"/>
</filter>
<linearGradient id="paint0_linear_6613_5304" x1="5.00783" y1="0.701599" x2="55.6643" y2="124.802" gradientUnits="userSpaceOnUse">
<stop stop-color="#EDEEFF"/>
<stop offset="1" stop-color="#DEF7F6"/>
</linearGradient>
<linearGradient id="paint1_linear_6613_5304" x1="100.008" y1="87.2407" x2="14.3883" y2="-4.53982" gradientUnits="userSpaceOnUse">
<stop stop-color="#6FF9D8"/>
<stop offset="1" stop-color="#C3B7FF"/>
</linearGradient>
<linearGradient id="paint2_linear_6613_5304" x1="45.7397" y1="57.901" x2="66.1355" y2="40.8488" gradientUnits="userSpaceOnUse">
<stop stop-color="#6FF9D8"/>
<stop offset="1" stop-color="#C3B7FF"/>
</linearGradient>
</defs>
</svg>
