<svg width="20" height="20" viewBox="0 0 20 20" fill="none" xmlns="http://www.w3.org/2000/svg">
<path d="M17.0714 5.53095L10.4047 1.77315C10.1531 1.63128 9.84707 1.63128 9.59532 1.77315L2.92863 5.53094C2.66407 5.68007 2.49999 5.963 2.5 6.27006L2.50007 13.7301C2.50007 14.0372 2.66414 14.3201 2.9287 14.4692L9.59532 18.227C9.84707 18.3689 10.1531 18.3689 10.4047 18.227L17.0714 14.4692C17.3359 14.3201 17.5 14.0372 17.5 13.7301V6.27005C17.5 5.96299 17.3359 5.68007 17.0714 5.53095Z" stroke="#000E50" stroke-width="1.25" stroke-linejoin="round"/>
<path d="M15.5 6.42461L10.3148 3.41837C10.119 3.30488 9.88102 3.30488 9.68521 3.41837L4.50001 6.42461C4.29424 6.54391 4.16662 6.77025 4.16663 7.0159L4.16668 12.9839C4.16668 13.2296 4.29429 13.4559 4.50006 13.5753L9.68521 16.5815C9.88102 16.695 10.119 16.695 10.3148 16.5815L15.5 13.5753C15.7057 13.4559 15.8333 13.2296 15.8333 12.9839V7.01589C15.8333 6.77024 15.7057 6.54391 15.5 6.42461Z" fill="#000E50"/>
</svg>
