<svg width="167" height="239" viewBox="0 0 167 239" fill="none" xmlns="http://www.w3.org/2000/svg">
<path d="M72.7748 140.527C72.7748 143.201 71.3359 145.667 69.0088 146.982L40.6694 163C38.4056 164.279 35.637 164.279 33.3732 163L5.03375 146.982C2.70671 145.667 1.26784 143.2 1.26784 140.527L1.26785 108.787C1.26785 106.114 2.70672 103.648 5.03376 102.332L33.3732 86.3144C35.637 85.0349 38.4056 85.0349 40.6694 86.3144L69.0089 102.332C71.3359 103.648 72.7748 106.114 72.7748 108.787L72.7748 140.527Z" fill="#DEF7F6" stroke="#000E50" stroke-width="1.34378"/>
<path d="M44.6404 114.377V125.495C44.6404 126.611 43.7355 127.516 42.6192 127.516L40.092 127.517M28.4685 114.377V125.495C28.4685 126.611 29.3736 127.516 30.49 127.516H35.5437C36.1019 127.516 36.5544 127.063 36.5544 126.505V123.979" stroke="#000E50" stroke-width="1.51611" stroke-linecap="round" stroke-linejoin="round"/>
<path d="M46.6619 115.893L37.7673 109.222C37.0486 108.683 36.0603 108.683 35.3416 109.222L26.447 115.893" stroke="#000E50" stroke-width="1.51611" stroke-linecap="round" stroke-linejoin="round"/>
<path d="M34.533 117.915H33.0168V120.641C33.0168 120.84 33.0759 121.035 33.1866 121.201L34.7382 123.529C34.9257 123.81 35.2413 123.979 35.5793 123.979H37.5296C37.8676 123.979 38.1832 123.81 38.3706 123.529L39.9223 121.201C40.033 121.035 40.092 120.84 40.092 120.641V117.915H38.5759M34.533 117.915V115.893M34.533 117.915H38.5759M38.5759 117.915V115.893" stroke="#000E50" stroke-width="1.51611" stroke-linecap="round" stroke-linejoin="round"/>
<path d="M19.2474 133.019V137.496C19.2474 138.029 19.3855 138.43 19.6618 138.699C19.9448 138.969 20.3356 139.103 20.8342 139.103C21.3396 139.103 21.7304 138.969 22.0067 138.699C22.2897 138.43 22.4312 138.029 22.4312 137.496V133.019H23.5835V137.476C23.5835 138.049 23.4588 138.534 23.2095 138.932C22.9602 139.329 22.6266 139.626 22.2089 139.821C21.7911 140.017 21.3295 140.114 20.8241 140.114C20.3188 140.114 19.8572 140.017 19.4394 139.821C19.0284 139.626 18.7016 139.329 18.459 138.932C18.2164 138.534 18.0951 138.049 18.0951 137.476V133.019H19.2474ZM26.6301 135.414V138.497C26.6301 138.706 26.6773 138.858 26.7716 138.952C26.8727 139.039 27.0412 139.083 27.277 139.083H27.9845V140.043H27.0749C26.556 140.043 26.1585 139.922 25.8822 139.68C25.6059 139.437 25.4678 139.043 25.4678 138.497V135.414H24.8108V134.474H25.4678V133.09H26.6301V134.474H27.9845V135.414H26.6301ZM29.8349 133.736C29.626 133.736 29.4508 133.666 29.3093 133.524C29.1678 133.383 29.0971 133.207 29.0971 132.999C29.0971 132.79 29.1678 132.615 29.3093 132.473C29.4508 132.331 29.626 132.261 29.8349 132.261C30.0371 132.261 30.2089 132.331 30.3504 132.473C30.4919 132.615 30.5626 132.79 30.5626 132.999C30.5626 133.207 30.4919 133.383 30.3504 133.524C30.2089 133.666 30.0371 133.736 29.8349 133.736ZM30.4009 134.474V140.043H29.2487V134.474H30.4009ZM33.2681 132.564V140.043H32.1159V132.564H33.2681ZM35.5693 133.736C35.3604 133.736 35.1852 133.666 35.0437 133.524C34.9022 133.383 34.8314 133.207 34.8314 132.999C34.8314 132.79 34.9022 132.615 35.0437 132.473C35.1852 132.331 35.3604 132.261 35.5693 132.261C35.7714 132.261 35.9433 132.331 36.0848 132.473C36.2263 132.615 36.297 132.79 36.297 132.999C36.297 133.207 36.2263 133.383 36.0848 133.524C35.9433 133.666 35.7714 133.736 35.5693 133.736ZM36.1353 134.474V140.043H34.9831V134.474H36.1353ZM39.1945 135.414V138.497C39.1945 138.706 39.2417 138.858 39.336 138.952C39.4371 139.039 39.6056 139.083 39.8414 139.083H40.5489V140.043H39.6393C39.1204 140.043 38.7229 139.922 38.4466 139.68C38.1703 139.437 38.0322 139.043 38.0322 138.497V135.414H37.3752V134.474H38.0322V133.09H39.1945V134.474H40.5489V135.414H39.1945ZM42.3993 133.736C42.1904 133.736 42.0152 133.666 41.8737 133.524C41.7322 133.383 41.6615 133.207 41.6615 132.999C41.6615 132.79 41.7322 132.615 41.8737 132.473C42.0152 132.331 42.1904 132.261 42.3993 132.261C42.6014 132.261 42.7733 132.331 42.9148 132.473C43.0563 132.615 43.127 132.79 43.127 132.999C43.127 133.207 43.0563 133.383 42.9148 133.524C42.7733 133.666 42.6014 133.736 42.3993 133.736ZM42.9653 134.474V140.043H41.8131V134.474H42.9653ZM49.7845 137.122C49.7845 137.331 49.771 137.52 49.7441 137.688H45.4888C45.5225 138.133 45.6876 138.49 45.9841 138.76C46.2806 139.029 46.6445 139.164 47.0757 139.164C47.6956 139.164 48.1336 138.905 48.3897 138.386H49.6329C49.4644 138.898 49.1578 139.319 48.7131 139.649C48.2751 139.973 47.7293 140.134 47.0757 140.134C46.5434 140.134 46.065 140.017 45.6405 139.781C45.2227 139.538 44.8925 139.201 44.6499 138.77C44.4141 138.332 44.2962 137.827 44.2962 137.254C44.2962 136.681 44.4107 136.179 44.6398 135.748C44.8757 135.31 45.2025 134.973 45.6202 134.737C46.0448 134.501 46.5299 134.383 47.0757 134.383C47.6013 134.383 48.0696 134.498 48.4806 134.727C48.8917 134.956 49.2117 135.279 49.4409 135.697C49.67 136.108 49.7845 136.583 49.7845 137.122ZM48.5817 136.759C48.575 136.334 48.4234 135.994 48.1269 135.738C47.8304 135.482 47.4632 135.354 47.0252 135.354C46.6276 135.354 46.2873 135.482 46.0043 135.738C45.7213 135.987 45.5529 136.327 45.499 136.759H48.5817ZM53.1421 140.134C52.7041 140.134 52.3099 140.057 51.9595 139.902C51.6158 139.74 51.3429 139.525 51.1408 139.255C50.9386 138.979 50.8308 138.672 50.8174 138.335H52.01C52.0302 138.571 52.1414 138.77 52.3436 138.932C52.5525 139.087 52.8119 139.164 53.1218 139.164C53.4453 139.164 53.6946 139.103 53.8698 138.982C54.0517 138.854 54.1427 138.692 54.1427 138.497C54.1427 138.288 54.0416 138.133 53.8395 138.032C53.6441 137.931 53.3307 137.82 52.8995 137.699C52.4817 137.584 52.1414 137.473 51.8786 137.365C51.6158 137.257 51.3867 137.092 51.1913 136.87C51.0027 136.647 50.9083 136.354 50.9083 135.99C50.9083 135.694 50.9959 135.424 51.1711 135.182C51.3463 134.932 51.5956 134.737 51.9191 134.596C52.2492 134.454 52.6266 134.383 53.0511 134.383C53.6845 134.383 54.1932 134.545 54.5773 134.868C54.9681 135.185 55.177 135.62 55.204 136.172H54.0517C54.0315 135.923 53.9304 135.724 53.7485 135.576C53.5666 135.428 53.3206 135.354 53.0107 135.354C52.7074 135.354 52.475 135.411 52.3133 135.525C52.1515 135.64 52.0707 135.792 52.0707 135.98C52.0707 136.129 52.1246 136.253 52.2324 136.354C52.3402 136.455 52.4716 136.536 52.6266 136.597C52.7816 136.651 53.0107 136.721 53.3139 136.809C53.7182 136.917 54.0484 137.028 54.3044 137.143C54.5672 137.25 54.7929 137.412 54.9816 137.628C55.1703 137.843 55.268 138.13 55.2747 138.487C55.2747 138.804 55.1871 139.087 55.0119 139.336C54.8367 139.585 54.5874 139.781 54.264 139.922C53.9473 140.064 53.5733 140.134 53.1421 140.134Z" fill="#000E50"/>
<path d="M165.763 140.843C165.763 143.516 164.324 145.982 161.997 147.297L133.658 163.315C131.394 164.595 128.625 164.595 126.362 163.315L98.0221 147.297C95.6951 145.982 94.2562 143.516 94.2562 140.843L94.2562 109.102C94.2562 106.429 95.6951 103.963 98.0221 102.648L126.362 86.6299C128.625 85.3504 131.394 85.3504 133.658 86.6299L161.997 102.648C164.324 103.963 165.763 106.429 165.763 109.102L165.763 140.843Z" fill="#DEF7F6" stroke="#000E50" stroke-width="1.34378"/>
<path d="M119.941 116.398H131.059" stroke="#000E50" stroke-width="1.51611" stroke-linecap="round" stroke-linejoin="round"/>
<path d="M135.102 116.398H139.145" stroke="#000E50" stroke-width="1.51611" stroke-linecap="round" stroke-linejoin="round"/>
<path d="M127.016 128.527V116.398" stroke="#000E50" stroke-width="1.51611"/>
<path d="M127.016 113.366V109.323" stroke="#000E50" stroke-width="1.51611" stroke-linecap="round" stroke-linejoin="round"/>
<path d="M135.449 128.527H137.123C138.24 128.527 139.145 127.622 139.145 126.505V111.344C139.145 110.228 138.24 109.323 137.123 109.323H121.962C120.846 109.323 119.941 110.228 119.941 111.344V126.505C119.941 127.622 120.846 128.527 121.962 128.527H130.553C130.553 125.618 132.575 123.978 134.596 123.978" stroke="#000E50" stroke-width="1.51611" stroke-linecap="round" stroke-linejoin="round"/>
<path d="M113.361 141.124C112.889 141.124 112.465 141.043 112.087 140.882C111.71 140.713 111.414 140.477 111.198 140.174C110.982 139.871 110.875 139.517 110.875 139.113H112.108C112.135 139.416 112.252 139.666 112.461 139.861C112.677 140.056 112.977 140.154 113.361 140.154C113.759 140.154 114.068 140.06 114.291 139.871C114.513 139.676 114.624 139.426 114.624 139.123C114.624 138.887 114.554 138.695 114.412 138.547C114.277 138.399 114.106 138.284 113.897 138.203C113.694 138.122 113.411 138.035 113.048 137.941C112.589 137.819 112.215 137.698 111.926 137.577C111.643 137.449 111.4 137.253 111.198 136.99C110.996 136.728 110.895 136.377 110.895 135.939C110.895 135.535 110.996 135.181 111.198 134.878C111.4 134.575 111.683 134.342 112.047 134.181C112.411 134.019 112.832 133.938 113.31 133.938C113.991 133.938 114.547 134.11 114.978 134.453C115.416 134.79 115.659 135.255 115.706 135.848H114.432C114.412 135.592 114.291 135.373 114.068 135.191C113.846 135.009 113.553 134.918 113.189 134.918C112.859 134.918 112.589 135.003 112.381 135.171C112.172 135.34 112.067 135.582 112.067 135.899C112.067 136.114 112.131 136.293 112.259 136.434C112.394 136.569 112.562 136.677 112.765 136.758C112.967 136.839 113.243 136.926 113.593 137.021C114.058 137.149 114.436 137.277 114.725 137.405C115.022 137.533 115.271 137.732 115.473 138.001C115.682 138.264 115.787 138.618 115.787 139.062C115.787 139.42 115.689 139.756 115.494 140.073C115.305 140.39 115.025 140.646 114.655 140.841C114.291 141.03 113.86 141.124 113.361 141.124ZM118.501 136.303C118.696 136.047 118.962 135.831 119.299 135.656C119.636 135.481 120.017 135.393 120.441 135.393C120.927 135.393 121.368 135.515 121.765 135.757C122.17 135.993 122.486 136.327 122.716 136.758C122.945 137.189 123.059 137.684 123.059 138.244C123.059 138.803 122.945 139.305 122.716 139.75C122.486 140.188 122.17 140.531 121.765 140.781C121.368 141.023 120.927 141.145 120.441 141.145C120.017 141.145 119.639 141.06 119.309 140.892C118.979 140.717 118.71 140.501 118.501 140.245V143.702H117.348V135.484H118.501V136.303ZM121.887 138.244C121.887 137.86 121.806 137.529 121.644 137.253C121.489 136.97 121.28 136.758 121.017 136.616C120.761 136.468 120.485 136.394 120.189 136.394C119.899 136.394 119.623 136.468 119.36 136.616C119.104 136.765 118.895 136.98 118.733 137.263C118.578 137.546 118.501 137.88 118.501 138.264C118.501 138.648 118.578 138.985 118.733 139.275C118.895 139.558 119.104 139.773 119.36 139.922C119.623 140.07 119.899 140.144 120.189 140.144C120.485 140.144 120.761 140.07 121.017 139.922C121.28 139.767 121.489 139.544 121.644 139.254C121.806 138.965 121.887 138.628 121.887 138.244ZM124.017 138.244C124.017 137.684 124.131 137.189 124.36 136.758C124.596 136.327 124.913 135.993 125.31 135.757C125.715 135.515 126.159 135.393 126.645 135.393C127.083 135.393 127.463 135.481 127.787 135.656C128.117 135.825 128.38 136.037 128.575 136.293V135.484H129.737V141.054H128.575V140.225C128.38 140.488 128.114 140.707 127.777 140.882C127.44 141.057 127.056 141.145 126.624 141.145C126.146 141.145 125.708 141.023 125.31 140.781C124.913 140.531 124.596 140.188 124.36 139.75C124.131 139.305 124.017 138.803 124.017 138.244ZM128.575 138.264C128.575 137.88 128.494 137.546 128.333 137.263C128.178 136.98 127.972 136.765 127.716 136.616C127.46 136.468 127.184 136.394 126.887 136.394C126.591 136.394 126.314 136.468 126.058 136.616C125.802 136.758 125.593 136.97 125.432 137.253C125.277 137.529 125.199 137.86 125.199 138.244C125.199 138.628 125.277 138.965 125.432 139.254C125.593 139.544 125.802 139.767 126.058 139.922C126.321 140.07 126.597 140.144 126.887 140.144C127.184 140.144 127.46 140.07 127.716 139.922C127.972 139.773 128.178 139.558 128.333 139.275C128.494 138.985 128.575 138.648 128.575 138.264ZM131.069 138.264C131.069 137.691 131.184 137.189 131.413 136.758C131.648 136.32 131.972 135.983 132.383 135.747C132.794 135.511 133.266 135.393 133.798 135.393C134.472 135.393 135.028 135.555 135.466 135.879C135.91 136.195 136.21 136.65 136.365 137.243H135.122C135.021 136.967 134.859 136.751 134.637 136.596C134.415 136.441 134.135 136.364 133.798 136.364C133.326 136.364 132.949 136.532 132.666 136.869C132.39 137.199 132.252 137.664 132.252 138.264C132.252 138.864 132.39 139.332 132.666 139.669C132.949 140.006 133.326 140.174 133.798 140.174C134.465 140.174 134.906 139.881 135.122 139.295H136.365C136.204 139.861 135.9 140.312 135.456 140.649C135.011 140.979 134.458 141.145 133.798 141.145C133.266 141.145 132.794 141.027 132.383 140.791C131.972 140.548 131.648 140.211 131.413 139.78C131.184 139.342 131.069 138.837 131.069 138.264ZM142.82 138.133C142.82 138.341 142.806 138.53 142.78 138.699H138.524C138.558 139.143 138.723 139.5 139.02 139.77C139.316 140.039 139.68 140.174 140.111 140.174C140.731 140.174 141.169 139.915 141.425 139.396H142.668C142.5 139.908 142.193 140.329 141.749 140.659C141.311 140.983 140.765 141.145 140.111 141.145C139.579 141.145 139.1 141.027 138.676 140.791C138.258 140.548 137.928 140.211 137.685 139.78C137.45 139.342 137.332 138.837 137.332 138.264C137.332 137.691 137.446 137.189 137.675 136.758C137.911 136.32 138.238 135.983 138.656 135.747C139.08 135.511 139.565 135.393 140.111 135.393C140.637 135.393 141.105 135.508 141.516 135.737C141.927 135.966 142.247 136.29 142.476 136.707C142.705 137.118 142.82 137.593 142.82 138.133ZM141.617 137.769C141.61 137.344 141.459 137.004 141.162 136.748C140.866 136.492 140.499 136.364 140.061 136.364C139.663 136.364 139.323 136.492 139.04 136.748C138.757 136.997 138.588 137.337 138.534 137.769H141.617ZM146.178 141.145C145.74 141.145 145.345 141.067 144.995 140.912C144.651 140.75 144.378 140.535 144.176 140.265C143.974 139.989 143.866 139.682 143.853 139.345H145.045C145.066 139.581 145.177 139.78 145.379 139.942C145.588 140.097 145.847 140.174 146.157 140.174C146.481 140.174 146.73 140.114 146.905 139.992C147.087 139.864 147.178 139.703 147.178 139.507C147.178 139.298 147.077 139.143 146.875 139.042C146.68 138.941 146.366 138.83 145.935 138.709C145.517 138.594 145.177 138.483 144.914 138.375C144.651 138.267 144.422 138.102 144.227 137.88C144.038 137.657 143.944 137.364 143.944 137.001C143.944 136.704 144.031 136.434 144.207 136.192C144.382 135.943 144.631 135.747 144.955 135.606C145.285 135.464 145.662 135.393 146.087 135.393C146.72 135.393 147.229 135.555 147.613 135.879C148.004 136.195 148.212 136.63 148.239 137.182H147.087C147.067 136.933 146.966 136.734 146.784 136.586C146.602 136.438 146.356 136.364 146.046 136.364C145.743 136.364 145.51 136.421 145.349 136.536C145.187 136.65 145.106 136.802 145.106 136.99C145.106 137.139 145.16 137.263 145.268 137.364C145.376 137.465 145.507 137.546 145.662 137.607C145.817 137.661 146.046 137.732 146.349 137.819C146.754 137.927 147.084 138.038 147.34 138.153C147.603 138.261 147.828 138.422 148.017 138.638C148.206 138.854 148.303 139.14 148.31 139.497C148.31 139.814 148.223 140.097 148.047 140.346C147.872 140.595 147.623 140.791 147.299 140.932C146.983 141.074 146.609 141.145 146.178 141.145Z" fill="#000E50"/>
<path d="M119.269 213.434C119.269 216.107 117.83 218.573 115.503 219.888L87.1634 235.906C84.8996 237.186 82.1309 237.186 79.8671 235.906L51.5277 219.888C49.2007 218.573 47.7618 216.107 47.7618 213.434L47.7618 181.693C47.7618 179.02 49.2007 176.554 51.5277 175.239L79.8671 159.221C82.1309 157.941 84.8996 157.941 87.1634 159.221L115.503 175.239C117.83 176.554 119.269 179.02 119.269 181.693L119.269 213.434Z" fill="#DEF7F6" stroke="#000E50" stroke-width="1.34378"/>
<path d="M119.308 67.8873C119.308 70.5604 117.869 73.0264 115.542 74.3417L87.2022 90.3596C84.9384 91.6392 82.1697 91.6392 79.9059 90.3596L51.5665 74.3417C49.2395 73.0264 47.8006 70.5603 47.8006 67.8873L47.8006 36.1466C47.8006 33.4735 49.2395 31.0075 51.5665 29.6922L79.906 13.6743C82.1698 12.3947 84.9384 12.3947 87.2022 13.6743L115.542 29.6922C117.869 31.0075 119.308 33.4736 119.308 36.1466L119.308 67.8873Z" fill="#DEF7F6" stroke="#000E50" stroke-width="1.34378"/>
<path d="M89.6185 178.693H77.4896C76.3732 178.693 75.4681 179.598 75.4681 180.714V196.886C75.4681 198.003 76.3732 198.908 77.4896 198.908H89.6185C90.735 198.908 91.64 198.003 91.64 196.886V180.714C91.64 179.598 90.735 178.693 89.6185 178.693Z" stroke="#000E50" stroke-width="1.51611" stroke-linejoin="round"/>
<path d="M75.4681 186.779H91.64" stroke="#000E50" stroke-width="1.51611" stroke-linecap="round"/>
<path d="M79.5111 182.736H79.5201" stroke="#000E50" stroke-width="2.02148" stroke-linecap="round" stroke-linejoin="round"/>
<path d="M79.5111 193.854V190.822" stroke="#000E50" stroke-width="1.51611" stroke-linecap="round"/>
<path d="M59.0426 209.494H56.1013L55.5959 210.929H54.3931L56.9099 203.894H58.2441L60.7608 210.929H59.5479L59.0426 209.494ZM58.7191 208.554L57.577 205.289L56.4247 208.554H58.7191ZM63.2095 206.179C63.4049 205.923 63.6711 205.707 64.008 205.532C64.3449 205.356 64.7256 205.269 65.1501 205.269C65.6353 205.269 66.0766 205.39 66.4742 205.633C66.8785 205.869 67.1952 206.202 67.4243 206.633C67.6534 207.065 67.7679 207.56 67.7679 208.119C67.7679 208.678 67.6534 209.18 67.4243 209.625C67.1952 210.063 66.8785 210.407 66.4742 210.656C66.0766 210.899 65.6353 211.02 65.1501 211.02C64.7256 211.02 64.3483 210.936 64.0181 210.767C63.6879 210.592 63.4184 210.377 63.2095 210.12V213.577H62.0573V205.36H63.2095V206.179ZM66.5955 208.119C66.5955 207.735 66.5146 207.405 66.3529 207.129C66.1979 206.846 65.989 206.633 65.7262 206.492C65.4702 206.344 65.1939 206.27 64.8974 206.27C64.6077 206.27 64.3314 206.344 64.0686 206.492C63.8126 206.64 63.6037 206.856 63.442 207.139C63.287 207.422 63.2095 207.755 63.2095 208.139C63.2095 208.523 63.287 208.86 63.442 209.15C63.6037 209.433 63.8126 209.649 64.0686 209.797C64.3314 209.945 64.6077 210.019 64.8974 210.019C65.1939 210.019 65.4702 209.945 65.7262 209.797C65.989 209.642 66.1979 209.42 66.3529 209.13C66.5146 208.84 66.5955 208.503 66.5955 208.119ZM70.2618 206.179C70.4572 205.923 70.7234 205.707 71.0603 205.532C71.3972 205.356 71.7779 205.269 72.2024 205.269C72.6876 205.269 73.1289 205.39 73.5265 205.633C73.9308 205.869 74.2475 206.202 74.4766 206.633C74.7057 207.065 74.8202 207.56 74.8202 208.119C74.8202 208.678 74.7057 209.18 74.4766 209.625C74.2475 210.063 73.9308 210.407 73.5265 210.656C73.1289 210.899 72.6876 211.02 72.2024 211.02C71.7779 211.02 71.4006 210.936 71.0704 210.767C70.7402 210.592 70.4707 210.377 70.2618 210.12V213.577H69.1095V205.36H70.2618V206.179ZM73.6478 208.119C73.6478 207.735 73.5669 207.405 73.4052 207.129C73.2502 206.846 73.0413 206.633 72.7785 206.492C72.5225 206.344 72.2462 206.27 71.9497 206.27C71.66 206.27 71.3837 206.344 71.1209 206.492C70.8649 206.64 70.656 206.856 70.4943 207.139C70.3393 207.422 70.2618 207.755 70.2618 208.139C70.2618 208.523 70.3393 208.86 70.4943 209.15C70.656 209.433 70.8649 209.649 71.1209 209.797C71.3837 209.945 71.66 210.019 71.9497 210.019C72.2462 210.019 72.5225 209.945 72.7785 209.797C73.0413 209.642 73.2502 209.42 73.4052 209.13C73.5669 208.84 73.6478 208.503 73.6478 208.119ZM77.3141 203.45V210.929H76.1618V203.45H77.3141ZM79.6153 204.622C79.4064 204.622 79.2312 204.551 79.0897 204.41C78.9482 204.268 78.8774 204.093 78.8774 203.884C78.8774 203.675 78.9482 203.5 79.0897 203.359C79.2312 203.217 79.4064 203.146 79.6153 203.146C79.8174 203.146 79.9892 203.217 80.1307 203.359C80.2722 203.5 80.343 203.675 80.343 203.884C80.343 204.093 80.2722 204.268 80.1307 204.41C79.9892 204.551 79.8174 204.622 79.6153 204.622ZM80.1813 205.36V210.929H79.029V205.36H80.1813ZM81.5121 208.119C81.5121 207.56 81.6267 207.065 81.8558 206.633C82.0916 206.202 82.4083 205.869 82.8059 205.633C83.2102 205.39 83.6549 205.269 84.1401 205.269C84.5781 205.269 84.9588 205.356 85.2822 205.532C85.6124 205.7 85.8752 205.912 86.0706 206.168V205.36H87.2329V210.929H86.0706V210.1C85.8752 210.363 85.609 210.582 85.2721 210.757C84.9352 210.932 84.5511 211.02 84.1199 211.02C83.6414 211.02 83.2034 210.899 82.8059 210.656C82.4083 210.407 82.0916 210.063 81.8558 209.625C81.6267 209.18 81.5121 208.678 81.5121 208.119ZM86.0706 208.139C86.0706 207.755 85.9897 207.422 85.828 207.139C85.673 206.856 85.4675 206.64 85.2115 206.492C84.9554 206.344 84.6791 206.27 84.3826 206.27C84.0862 206.27 83.8099 206.344 83.5538 206.492C83.2978 206.633 83.0889 206.846 82.9272 207.129C82.7722 207.405 82.6947 207.735 82.6947 208.119C82.6947 208.503 82.7722 208.84 82.9272 209.13C83.0889 209.42 83.2978 209.642 83.5538 209.797C83.8166 209.945 84.0929 210.019 84.3826 210.019C84.6791 210.019 84.9554 209.945 85.2115 209.797C85.4675 209.649 85.673 209.433 85.828 209.15C85.9897 208.86 86.0706 208.523 86.0706 208.139ZM91.7584 205.269C92.1964 205.269 92.5872 205.36 92.9308 205.542C93.2812 205.724 93.5541 205.993 93.7495 206.35C93.945 206.708 94.0427 207.139 94.0427 207.644V210.929H92.9005V207.816C92.9005 207.317 92.7759 206.937 92.5265 206.674C92.2772 206.404 91.9369 206.27 91.5057 206.27C91.0744 206.27 90.7308 206.404 90.4747 206.674C90.2254 206.937 90.1008 207.317 90.1008 207.816V210.929H88.9485V205.36H90.1008V205.997C90.2894 205.768 90.5286 205.589 90.8184 205.461C91.1149 205.333 91.4282 205.269 91.7584 205.269ZM95.3305 208.139C95.3305 207.567 95.445 207.065 95.6741 206.633C95.91 206.195 96.2334 205.858 96.6444 205.623C97.0555 205.387 97.5272 205.269 98.0595 205.269C98.7333 205.269 99.2892 205.431 99.7272 205.754C100.172 206.071 100.472 206.526 100.627 207.119H99.3836C99.2825 206.842 99.1208 206.627 98.8984 206.472C98.676 206.317 98.3964 206.239 98.0595 206.239C97.5878 206.239 97.2105 206.408 96.9275 206.745C96.6512 207.075 96.513 207.54 96.513 208.139C96.513 208.739 96.6512 209.207 96.9275 209.544C97.2105 209.881 97.5878 210.05 98.0595 210.05C98.7266 210.05 99.1679 209.757 99.3836 209.17H100.627C100.465 209.736 100.162 210.188 99.7171 210.525C99.2724 210.855 98.7198 211.02 98.0595 211.02C97.5272 211.02 97.0555 210.902 96.6444 210.666C96.2334 210.424 95.91 210.087 95.6741 209.656C95.445 209.218 95.3305 208.712 95.3305 208.139ZM107.081 208.008C107.081 208.217 107.068 208.406 107.041 208.574H102.786C102.82 209.019 102.985 209.376 103.281 209.645C103.578 209.915 103.941 210.05 104.373 210.05C104.993 210.05 105.431 209.79 105.687 209.271H106.93C106.761 209.784 106.455 210.205 106.01 210.535C105.572 210.858 105.026 211.02 104.373 211.02C103.84 211.02 103.362 210.902 102.937 210.666C102.52 210.424 102.189 210.087 101.947 209.656C101.711 209.218 101.593 208.712 101.593 208.139C101.593 207.567 101.708 207.065 101.937 206.633C102.173 206.195 102.499 205.858 102.917 205.623C103.342 205.387 103.827 205.269 104.373 205.269C104.898 205.269 105.367 205.383 105.778 205.613C106.189 205.842 106.509 206.165 106.738 206.583C106.967 206.994 107.081 207.469 107.081 208.008ZM105.879 207.644C105.872 207.22 105.72 206.879 105.424 206.623C105.127 206.367 104.76 206.239 104.322 206.239C103.925 206.239 103.584 206.367 103.301 206.623C103.018 206.873 102.85 207.213 102.796 207.644H105.879ZM110.439 211.02C110.001 211.02 109.607 210.943 109.256 210.788C108.913 210.626 108.64 210.41 108.438 210.141C108.236 209.864 108.128 209.558 108.114 209.221H109.307C109.327 209.457 109.438 209.656 109.641 209.817C109.849 209.972 110.109 210.05 110.419 210.05C110.742 210.05 110.992 209.989 111.167 209.868C111.349 209.74 111.44 209.578 111.44 209.383C111.44 209.174 111.339 209.019 111.136 208.918C110.941 208.817 110.628 208.705 110.196 208.584C109.779 208.47 109.438 208.358 109.176 208.251C108.913 208.143 108.684 207.978 108.488 207.755C108.3 207.533 108.205 207.24 108.205 206.876C108.205 206.579 108.293 206.31 108.468 206.067C108.643 205.818 108.893 205.623 109.216 205.481C109.546 205.34 109.924 205.269 110.348 205.269C110.981 205.269 111.49 205.431 111.874 205.754C112.265 206.071 112.474 206.505 112.501 207.058H111.349C111.328 206.809 111.227 206.61 111.045 206.462C110.864 206.313 110.618 206.239 110.308 206.239C110.004 206.239 109.772 206.296 109.61 206.411C109.448 206.526 109.368 206.677 109.368 206.866C109.368 207.014 109.422 207.139 109.529 207.24C109.637 207.341 109.769 207.422 109.924 207.482C110.079 207.536 110.308 207.607 110.611 207.695C111.015 207.802 111.345 207.914 111.601 208.028C111.864 208.136 112.09 208.298 112.279 208.513C112.467 208.729 112.565 209.015 112.572 209.373C112.572 209.689 112.484 209.972 112.309 210.222C112.134 210.471 111.884 210.666 111.561 210.808C111.244 210.949 110.87 211.02 110.439 211.02Z" fill="#000E50"/>
<path d="M73.4465 36.8651L82.2911 29.7895C83.0294 29.1988 84.0785 29.1988 84.8168 29.7895L93.6614 36.8651" stroke="#000E50" stroke-width="1.51611" stroke-linecap="round" stroke-linejoin="round"/>
<path d="M75.468 35.349V45.9618C75.468 47.0783 76.3731 47.9833 77.4895 47.9833H89.6184C90.7349 47.9833 91.6399 47.0783 91.6399 45.9618V35.349" stroke="#000E50" stroke-width="1.51611" stroke-linecap="round" stroke-linejoin="round"/>
<path d="M83.554 43.9403V44.9511" stroke="#000E50" stroke-width="1.51611" stroke-linecap="round" stroke-linejoin="round"/>
<path d="M67.0434 56.0831C67.0434 56.4402 66.9591 56.7772 66.7907 57.0939C66.6222 57.4106 66.3527 57.67 65.9821 57.8721C65.6115 58.0675 65.1364 58.1652 64.5569 58.1652H63.2834V61.0155H62.1312V53.9909H64.5569C65.096 53.9909 65.5508 54.0852 65.9214 54.2739C66.2988 54.4558 66.5784 54.7051 66.7604 55.0218C66.949 55.3385 67.0434 55.6923 67.0434 56.0831ZM64.5569 57.2253C64.9949 57.2253 65.3217 57.1275 65.5374 56.9321C65.753 56.73 65.8608 56.447 65.8608 56.0831C65.8608 55.3149 65.4262 54.9309 64.5569 54.9309H63.2834V57.2253H64.5569ZM69.4967 56.2549C69.6652 55.9719 69.8875 55.7529 70.1638 55.598C70.4468 55.4362 70.7803 55.3554 71.1644 55.3554V56.5481H70.8713C70.4199 56.5481 70.0762 56.6626 69.8404 56.8917C69.6113 57.1208 69.4967 57.5184 69.4967 58.0844V61.0155H68.3445V55.4463H69.4967V56.2549ZM74.8414 61.1065C74.3158 61.1065 73.8408 60.9886 73.4163 60.7527C72.9917 60.5102 72.6582 60.1732 72.4156 59.742C72.173 59.304 72.0518 58.7986 72.0518 58.2259C72.0518 57.6599 72.1764 57.1579 72.4257 56.7199C72.675 56.2819 73.0153 55.945 73.4466 55.7091C73.8778 55.4733 74.3596 55.3554 74.8919 55.3554C75.4243 55.3554 75.906 55.4733 76.3373 55.7091C76.7685 55.945 77.1088 56.2819 77.3581 56.7199C77.6075 57.1579 77.7321 57.6599 77.7321 58.2259C77.7321 58.7919 77.6041 59.2939 77.348 59.7319C77.092 60.1699 76.7416 60.5102 76.2969 60.7527C75.8589 60.9886 75.3737 61.1065 74.8414 61.1065ZM74.8414 60.1059C75.1379 60.1059 75.4142 60.0351 75.6702 59.8936C75.933 59.7521 76.1453 59.5399 76.307 59.2568C76.4687 58.9738 76.5496 58.6302 76.5496 58.2259C76.5496 57.8216 76.4721 57.4813 76.3171 57.205C76.1621 56.922 75.9566 56.7098 75.7005 56.5683C75.4445 56.4268 75.1682 56.356 74.8717 56.356C74.5752 56.356 74.299 56.4268 74.0429 56.5683C73.7936 56.7098 73.5948 56.922 73.4466 57.205C73.2983 57.4813 73.2242 57.8216 73.2242 58.2259C73.2242 58.8256 73.3758 59.2905 73.679 59.6207C73.989 59.9441 74.3765 60.1059 74.8414 60.1059ZM80.2256 56.265C80.421 56.009 80.6871 55.7934 81.0241 55.6182C81.361 55.443 81.7417 55.3554 82.1662 55.3554C82.6514 55.3554 83.0927 55.4767 83.4903 55.7192C83.8946 55.9551 84.2113 56.2886 84.4404 56.7199C84.6695 57.1511 84.784 57.6464 84.784 58.2057C84.784 58.7649 84.6695 59.2669 84.4404 59.7117C84.2113 60.1497 83.8946 60.4933 83.4903 60.7426C83.0927 60.9852 82.6514 61.1065 82.1662 61.1065C81.7417 61.1065 81.3643 61.0223 81.0342 60.8538C80.704 60.6786 80.4345 60.463 80.2256 60.2069V63.6637H79.0733V55.4463H80.2256V56.265ZM83.6116 58.2057C83.6116 57.8216 83.5307 57.4914 83.369 57.2151C83.214 56.9321 83.0051 56.7199 82.7423 56.5784C82.4863 56.4301 82.21 56.356 81.9135 56.356C81.6238 56.356 81.3475 56.4301 81.0847 56.5784C80.8286 56.7266 80.6198 56.9422 80.458 57.2253C80.3031 57.5083 80.2256 57.8418 80.2256 58.2259C80.2256 58.61 80.3031 58.9469 80.458 59.2366C80.6198 59.5196 80.8286 59.7353 81.0847 59.8835C81.3475 60.0317 81.6238 60.1059 81.9135 60.1059C82.21 60.1059 82.4863 60.0317 82.7423 59.8835C83.0051 59.7285 83.214 59.5062 83.369 59.2164C83.5307 58.9267 83.6116 58.5898 83.6116 58.2057ZM91.2299 58.0945C91.2299 58.3034 91.2164 58.492 91.1894 58.6605H86.9342C86.9679 59.1052 87.133 59.4624 87.4295 59.7319C87.726 60.0014 88.0898 60.1362 88.5211 60.1362C89.141 60.1362 89.579 59.8768 89.835 59.3579H91.0783C90.9098 59.87 90.6032 60.2912 90.1585 60.6213C89.7205 60.9448 89.1747 61.1065 88.5211 61.1065C87.9888 61.1065 87.5103 60.9886 87.0858 60.7527C86.6681 60.5102 86.3379 60.1732 86.0953 59.742C85.8595 59.304 85.7415 58.7986 85.7415 58.2259C85.7415 57.6531 85.8561 57.1511 86.0852 56.7199C86.321 56.2819 86.6478 55.945 87.0656 55.7091C87.4901 55.4733 87.9753 55.3554 88.5211 55.3554C89.0467 55.3554 89.515 55.4699 89.926 55.699C90.337 55.9281 90.6571 56.2516 90.8862 56.6693C91.1153 57.0804 91.2299 57.5554 91.2299 58.0945ZM90.0271 57.7306C90.0203 57.3061 89.8687 56.9658 89.5723 56.7098C89.2758 56.4537 88.9085 56.3257 88.4705 56.3257C88.073 56.3257 87.7327 56.4537 87.4497 56.7098C87.1667 56.9591 86.9982 57.2994 86.9443 57.7306H90.0271ZM93.7182 56.2549C93.8866 55.9719 94.109 55.7529 94.3853 55.598C94.6683 55.4362 95.0018 55.3554 95.3859 55.3554V56.5481H95.0928C94.6413 56.5481 94.2977 56.6626 94.0618 56.8917C93.8327 57.1208 93.7182 57.5184 93.7182 58.0844V61.0155H92.5659V55.4463H93.7182V56.2549ZM97.9915 56.3863V59.4691C97.9915 59.678 98.0387 59.8296 98.133 59.9239C98.2341 60.0115 98.4025 60.0553 98.6384 60.0553H99.3459V61.0155H98.4362C97.9174 61.0155 97.5198 60.8942 97.2435 60.6517C96.9673 60.4091 96.8291 60.0149 96.8291 59.4691V56.3863H96.1722V55.4463H96.8291V54.0616H97.9915V55.4463H99.3459V56.3863H97.9915ZM105.623 55.4463L102.207 63.6334H101.014L102.146 60.9246L99.953 55.4463H101.237L102.803 59.6915L104.431 55.4463H105.623ZM75.6458 66.9909V74.0155H74.4936V66.9909H75.6458ZM80.1707 68.3554C80.6086 68.3554 80.9995 68.4463 81.3431 68.6283C81.6935 68.8102 81.9664 69.0797 82.1618 69.4369C82.3572 69.794 82.4549 70.2253 82.4549 70.7306V74.0155H81.3128V70.9024C81.3128 70.4038 81.1881 70.0231 80.9388 69.7603C80.6895 69.4908 80.3492 69.356 79.918 69.356C79.4867 69.356 79.1431 69.4908 78.887 69.7603C78.6377 70.0231 78.513 70.4038 78.513 70.9024V74.0155H77.3608V68.4463H78.513V69.0831C78.7017 68.854 78.9409 68.6754 79.2307 68.5474C79.5271 68.4194 79.8405 68.3554 80.1707 68.3554ZM86.4617 69.3863H85.4307V74.0155H84.2683V69.3863H83.6114V68.4463H84.2683V68.0522C84.2683 67.412 84.4368 66.9471 84.7737 66.6573C85.1174 66.3608 85.6531 66.2126 86.3808 66.2126V67.1728C86.0304 67.1728 85.7845 67.2402 85.643 67.375C85.5014 67.503 85.4307 67.7287 85.4307 68.0522V68.4463H86.4617V69.3863ZM90.1006 74.1065C89.5751 74.1065 89.1 73.9886 88.6755 73.7527C88.251 73.5102 87.9174 73.1732 87.6749 72.742C87.4323 72.304 87.311 71.7986 87.311 71.2259C87.311 70.6599 87.4357 70.1579 87.685 69.7199C87.9343 69.2819 88.2746 68.945 88.7058 68.7091C89.1371 68.4733 89.6189 68.3554 90.1512 68.3554C90.6835 68.3554 91.1653 68.4733 91.5965 68.7091C92.0278 68.945 92.3681 69.2819 92.6174 69.7199C92.8667 70.1579 92.9914 70.6599 92.9914 71.2259C92.9914 71.7919 92.8633 72.2939 92.6073 72.7319C92.3512 73.1699 92.0008 73.5102 91.5561 73.7527C91.1181 73.9886 90.633 74.1065 90.1006 74.1065ZM90.1006 73.1059C90.3971 73.1059 90.6734 73.0351 90.9294 72.8936C91.1922 72.7521 91.4045 72.5399 91.5662 72.2568C91.7279 71.9738 91.8088 71.6302 91.8088 71.2259C91.8088 70.8216 91.7313 70.4813 91.5763 70.205C91.4213 69.922 91.2158 69.7098 90.9598 69.5683C90.7037 69.4268 90.4274 69.356 90.131 69.356C89.8345 69.356 89.5582 69.4268 89.3022 69.5683C89.0528 69.7098 88.8541 69.922 88.7058 70.205C88.5576 70.4813 88.4835 70.8216 88.4835 71.2259C88.4835 71.8256 88.6351 72.2905 88.9383 72.6207C89.2482 72.9441 89.6357 73.1059 90.1006 73.1059Z" fill="#000E50"/>
<defs>
<clipPath id="clip0_842_8687">
<rect width="58.3549" height="58.4164" fill="white" transform="translate(91.5908 0.66861)"/>
</clipPath>
</defs>
</svg>
