<svg width="25" height="24" viewBox="0 0 25 24" fill="none" xmlns="http://www.w3.org/2000/svg">
<path d="M11.4998 11L6.49976 6" stroke="#000E50" stroke-width="1.5"/>
<path d="M5.49976 7.5L7.99976 5L4.99976 3.5L3.99976 4.5L5.49976 7.5Z" stroke="#000E50" stroke-width="1.5" stroke-linejoin="round"/>
<path d="M20.4747 8.97487C21.4856 7.96391 21.7489 6.48836 21.2643 5.23548L19.8423 6.65748H17.8423V4.65748L19.2643 3.23548C18.0114 2.75095 16.5359 3.01416 15.5249 4.02513C14.5136 5.03647 14.2505 6.51274 14.7358 7.76593L8.26568 14.236C7.0125 13.7507 5.53622 14.0138 4.52488 15.0251C3.51391 16.0361 3.2507 17.5116 3.73523 18.7645L5.15723 17.3425H7.15723V19.3425L5.73523 20.7645C6.98811 21.2491 8.46366 20.9858 9.47462 19.9749C10.4852 18.9643 10.7487 17.4895 10.2648 16.2369L16.7367 9.76507C17.9893 10.2489 19.4641 9.98546 20.4747 8.97487Z" stroke="#000E50" stroke-width="1.5" stroke-linejoin="round"/>
<path d="M12.2968 14.5001L17.9008 20.1041C18.4286 20.632 19.2844 20.632 19.8122 20.1041L20.6039 19.3124C21.1318 18.7846 21.1318 17.9289 20.6039 17.401L14.9999 11.797" stroke="#000E50" stroke-width="1.5" stroke-linejoin="round"/>
</svg>
