<svg width="23" height="23" viewBox="0 0 23 23" fill="none" xmlns="http://www.w3.org/2000/svg">
<path d="M4.31254 9.10449V11.6648C4.31254 12.1731 4.11061 12.6606 3.75116 13.0201L2.39587 14.3753V15.6997C2.39587 16.0627 2.59918 16.3965 2.93133 16.5429C4.45769 17.2158 7.44521 18.2087 11.5 18.2087C15.5548 18.2087 18.5424 17.2158 20.0688 16.5429C20.4008 16.3965 20.6042 16.0627 20.6042 15.6997V14.3753L19.2489 13.0201C18.8895 12.6606 18.6875 12.1731 18.6875 11.6648V9.10449C18.6875 5.13494 15.4696 1.91699 11.5 1.91699C7.53049 1.91699 4.31254 5.13494 4.31254 9.10449Z" stroke="#000E50" stroke-width="1.4375" stroke-linecap="round" stroke-linejoin="round"/>
<path d="M14.8542 18.208C14.8542 19.7959 13.3306 21.083 11.4731 21.083C9.61557 21.083 8.14587 19.7959 8.14587 18.208" stroke="#000E50" stroke-width="1.4375" stroke-linejoin="round"/>
</svg>
