<svg width="24" height="24" viewBox="0 0 24 24" fill="none" xmlns="http://www.w3.org/2000/svg">
<path fill-rule="evenodd" clip-rule="evenodd" d="M3 5.7C3 4.21475 4.21475 3 5.7 3H13.7C14.5966 3 15.3972 3.57723 15.6808 4.42777L16.2048 6H18.7C20.1852 6 21.4 7.21475 21.4 8.7V18.7C21.4 20.1852 20.1852 21.4 18.7 21.4H5.7C4.21475 21.4 3 20.1852 3 18.7V5.7ZM13.7 4.4H5.7C4.97611 4.4 4.4 4.97611 4.4 5.7V18.7C4.4 19.4239 4.97611 20 5.7 20H18.7C19.4239 20 20 19.4239 20 18.7V8.7C20 7.97611 19.4239 7.4 18.7 7.4H16.2C15.602 7.4 15.0666 7.01415 14.8775 6.44684L14.3521 4.87067C14.2578 4.5879 13.9976 4.4 13.7 4.4Z" fill="#000E50"/>
<path fill-rule="evenodd" clip-rule="evenodd" d="M10.205 8.20497C10.3363 8.07373 10.5143 8 10.6999 8C10.8856 8 11.0636 8.07373 11.1948 8.20497L14.6949 11.705C14.8261 11.8363 14.8998 12.0143 14.8998 12.1999C14.8998 12.3855 14.8261 12.5636 14.6949 12.6948L11.1949 16.1949C11.0636 16.3261 10.8856 16.3998 10.6999 16.3998C10.5143 16.3998 10.3363 16.3261 10.205 16.1949C10.0738 16.0636 10 15.8856 10 15.6999C10 15.5143 10.0737 15.3363 10.205 15.205L13.2101 12.1999L10.205 9.19486C10.0737 9.06359 10 8.88555 10 8.69992C10 8.5143 10.0738 8.33624 10.205 8.20497Z" fill="#000E50"/>
</svg>
