<svg width="42" height="42" viewBox="0 0 42 42" fill="none" xmlns="http://www.w3.org/2000/svg">
<g clip-path="url(#clip0_247_22101)">
<g clip-path="url(#clip1_247_22101)">
<path d="M10.0689 27.8536C10.3283 27.8466 10.5786 27.7563 10.7827 27.596C10.9868 27.4357 11.1339 27.214 11.2022 26.9636C11.4829 26.1044 11.9042 25.2978 12.4491 24.5766C12.5633 24.4108 12.6665 24.2597 12.7524 24.1248C12.8775 23.9289 12.9938 23.7275 13.101 23.5212C13.4268 22.9303 13.6046 22.2692 13.6191 21.5946C13.62 20.4999 13.1867 19.4495 12.4143 18.6739C11.6418 17.8983 10.5932 17.4607 9.4985 17.4573H9.35865C8.26397 17.4607 7.21537 17.8983 6.44289 18.6739C5.6704 19.4495 5.23712 20.4999 5.2381 21.5946C5.25274 22.2694 5.43058 22.9306 5.75641 23.5217C5.85593 23.7147 5.96986 23.9119 6.10474 24.1248C6.19039 24.2597 6.29384 24.4103 6.4075 24.5764C6.95267 25.2976 7.37423 26.1045 7.65496 26.9639C7.72332 27.2142 7.87046 27.4359 8.0746 27.5962C8.27875 27.7564 8.52905 27.8467 8.78848 27.8536H10.0689ZM8.66539 26.6894C8.35714 25.7177 7.88647 24.8052 7.27336 23.9908C7.16729 23.8362 7.07091 23.6961 6.99155 23.5712C6.88318 23.4014 6.78234 23.227 6.68931 23.0484C6.44011 22.6032 6.30168 22.1046 6.28572 21.5946C6.28342 20.7766 6.60565 19.9911 7.18173 19.4104C7.75781 18.8298 8.54069 18.5013 9.35865 18.497H9.4985C10.3165 18.5013 11.0993 18.8298 11.6754 19.4104C12.2515 19.9911 12.5737 20.7766 12.5714 21.5946C12.5556 22.1043 12.4172 22.6027 12.1681 23.0476C12.0752 23.2263 11.9743 23.4007 11.8659 23.5704C11.7862 23.6961 11.6896 23.8365 11.5835 23.991C10.9706 24.8053 10.5 25.7176 10.1918 26.6892C10.1829 26.7183 10.167 26.7449 10.1456 26.7667C10.1241 26.7884 10.0977 26.8046 10.0687 26.8138H8.78848C8.75942 26.8045 8.73304 26.7883 8.7116 26.7666C8.69016 26.7449 8.6743 26.7186 8.66539 26.6894ZM34.6411 17.4573H34.5015C33.4068 17.4607 32.3582 17.8983 31.5857 18.6739C30.8133 19.4495 30.38 20.4999 30.381 21.5946C30.3956 22.2694 30.5734 22.9306 30.8993 23.5217C30.9988 23.7147 31.1127 23.9119 31.2476 24.1248C31.3332 24.2597 31.4367 24.4103 31.5504 24.5764C32.0955 25.2976 32.5171 26.1045 32.7978 26.9639C32.8662 27.2142 33.0133 27.4359 33.2175 27.5962C33.4216 27.7564 33.6719 27.8467 33.9313 27.8536H35.2118C35.4712 27.8466 35.7215 27.7563 35.9256 27.596C36.1297 27.4357 36.2768 27.214 36.3451 26.9636C36.6257 26.1045 37.0471 25.298 37.592 24.5769C37.7062 24.4108 37.8094 24.26 37.8953 24.1248C38.0204 23.9289 38.1367 23.7275 38.2439 23.5212C38.5697 22.9303 38.7474 22.2692 38.7619 21.5946C38.7629 20.4999 38.3296 19.4495 37.5571 18.6739C36.7846 17.8983 35.7358 17.4607 34.6411 17.4573ZM37.311 23.0479C37.218 23.2266 37.1172 23.401 37.0087 23.5707C36.9291 23.6964 36.8325 23.8368 36.7264 23.9913C36.1134 24.8056 35.6428 25.7179 35.3346 26.6894C35.3257 26.7186 35.3099 26.7452 35.2884 26.7669C35.267 26.7886 35.2406 26.8048 35.2115 26.8141H33.9313C33.9023 26.8048 33.8759 26.7886 33.8545 26.7669C33.833 26.7452 33.8172 26.7186 33.8082 26.6894C33.5 25.7177 33.0293 24.8052 32.4162 23.9908C32.3101 23.8362 32.2138 23.6961 32.1344 23.5712C32.026 23.4014 31.9252 23.227 31.8322 23.0484C31.583 22.6032 31.4445 22.1046 31.4286 21.5946C31.4263 20.7766 31.7485 19.9911 32.3246 19.4104C32.9007 18.8298 33.6835 18.5013 34.5015 18.497H34.6414C35.4593 18.5013 36.2422 18.8298 36.8183 19.4104C37.3944 19.9911 37.7166 20.7766 37.7143 21.5946C37.6984 22.1043 37.5601 22.6029 37.311 23.0479Z" fill="#6FF9D8"/>
<path d="M28.2726 18.497H29.3333C29.4712 18.497 29.6034 18.4423 29.7009 18.3448C29.7984 18.2473 29.8532 18.115 29.8532 17.9772C29.8532 17.8393 29.7984 17.707 29.7009 17.6095C29.6034 17.512 29.4712 17.4573 29.3333 17.4573H28.2519C28.2743 17.6781 28.2856 17.9 28.2857 18.122C28.2857 18.2469 28.281 18.3718 28.2726 18.497Z" fill="#C3B7FF"/>
<path d="M26.8518 14.0436L27.8221 13.0806C27.8707 13.0325 27.9093 12.9753 27.9357 12.9122C27.962 12.8491 27.9756 12.7815 27.9756 12.7131C27.9756 12.6448 27.962 12.5771 27.9357 12.514C27.9093 12.4509 27.8707 12.3937 27.8221 12.3457C27.7236 12.248 27.5904 12.1932 27.4517 12.1932C27.3129 12.1932 27.1798 12.248 27.0812 12.3457L26.1305 13.2893C26.3912 13.5205 26.6324 13.7728 26.8518 14.0436Z" fill="#6FF9D8"/>
<path d="M22.0898 11.7394C22.236 11.7394 22.3803 11.7465 22.5238 11.7567V10.4723C22.5238 10.3334 22.4686 10.2001 22.3704 10.1019C22.2722 10.0037 22.1389 9.94849 22 9.94849C21.8611 9.94849 21.7278 10.0037 21.6296 10.1019C21.5314 10.2001 21.4762 10.3334 21.4762 10.4723V11.7567C21.6197 11.7462 21.7643 11.7394 21.9102 11.7394H22.0898Z" fill="#C3B7FF"/>
<path d="M17.1482 14.0436C17.3676 13.7728 17.609 13.5205 17.8698 13.2893L16.9188 12.3457C16.8202 12.248 16.6871 12.1932 16.5483 12.1932C16.4096 12.1932 16.2764 12.248 16.1779 12.3457C16.1292 12.3937 16.0907 12.4509 16.0643 12.514C16.038 12.5771 16.0244 12.6448 16.0244 12.7131C16.0244 12.7815 16.038 12.8491 16.0643 12.9122C16.0907 12.9753 16.1292 13.0325 16.1779 13.0806L17.1482 14.0436Z" fill="#6FF9D8"/>
<path d="M14.6667 18.4971H15.7274C15.719 18.3719 15.7143 18.247 15.7143 18.122C15.7144 17.9 15.7257 17.6782 15.7481 17.4573H14.6667C14.5288 17.4573 14.3966 17.5121 14.2991 17.6096C14.2016 17.7071 14.1468 17.8393 14.1468 17.9772C14.1468 18.1151 14.2016 18.2473 14.2991 18.3448C14.3966 18.4423 14.5288 18.4971 14.6667 18.4971ZM17.4086 20.6054C17.5348 20.8595 17.6786 21.118 17.8486 21.3964C17.9578 21.5745 18.0895 21.7735 18.2349 21.9927C18.7757 22.8099 19.5169 23.9287 19.8629 25.2306C19.9371 25.5263 20.1054 25.7899 20.3424 25.9817C20.5793 26.1735 20.8722 26.2832 21.1768 26.2942H22.8232C23.1279 26.2832 23.4207 26.1735 23.6577 25.9817C23.8947 25.7899 24.0631 25.5263 24.1374 25.2306C24.4831 23.9287 25.2243 22.8099 25.7654 21.9927C25.8975 21.796 26.0262 21.597 26.1515 21.3958C26.3097 21.1389 26.4566 20.8752 26.5917 20.6054C26.9985 19.8396 27.2199 18.989 27.2381 18.122C27.2381 15.1759 24.9286 12.7792 22.0898 12.7792H21.9102C19.0714 12.7789 16.7619 15.1756 16.7619 18.1218C16.7802 18.9888 17.0017 19.8395 17.4086 20.6054ZM21.9102 13.8187H22.0898C24.3509 13.8187 26.1905 15.7489 26.1905 18.122C26.171 18.8293 25.9867 19.5223 25.652 20.1458C25.5396 20.3718 25.41 20.6044 25.256 20.8566C25.1372 21.0471 25.0151 21.2355 24.8899 21.4218C24.3092 22.2986 23.5138 23.4995 23.1246 24.9653C23.107 25.0372 23.0694 25.1025 23.016 25.1538C22.9627 25.205 22.8959 25.24 22.8234 25.2547H22.5238V21.7617H22.7857C22.9236 21.7617 23.0558 21.7069 23.1533 21.6095C23.2508 21.512 23.3056 21.3797 23.3056 21.2418C23.3056 21.104 23.2508 20.9717 23.1533 20.8742C23.0558 20.7767 22.9236 20.722 22.7857 20.722H21.2143C21.0764 20.722 20.9442 20.7767 20.8467 20.8742C20.7492 20.9717 20.6944 21.104 20.6944 21.2418C20.6944 21.3797 20.7492 21.512 20.8467 21.6095C20.9442 21.7069 21.0764 21.7617 21.2143 21.7617H21.4762V25.2545H21.1768C21.1044 25.2398 21.0376 25.2048 20.9843 25.1536C20.9309 25.1025 20.8933 25.0371 20.8756 24.9653C20.4862 23.4992 19.6911 22.2984 19.1104 21.4215C18.9852 21.2353 18.8631 21.047 18.7443 20.8566C18.6019 20.6256 18.4698 20.3884 18.3483 20.1458C18.0136 19.5223 17.8291 18.8294 17.8095 18.122C17.8095 15.7492 19.6491 13.8187 21.9102 13.8187Z" fill="#C3B7FF"/>
<path d="M15.4524 34.6112C15.1445 34.6136 14.8442 34.7071 14.5894 34.8798C14.3345 35.0526 14.1365 35.297 14.0203 35.5821C13.9042 35.8672 13.875 36.1803 13.9365 36.482C13.998 36.7837 14.1474 37.0605 14.3659 37.2773C14.5845 37.4942 14.8623 37.6416 15.1644 37.7008C15.4666 37.76 15.7795 37.7285 16.0637 37.6102C16.348 37.4918 16.5908 37.292 16.7617 37.0359C16.9325 36.7797 17.0237 36.4787 17.0238 36.1709C17.0218 35.7558 16.8552 35.3585 16.5606 35.0661C16.266 34.7737 15.8674 34.6101 15.4524 34.6112ZM15.4524 36.6907C15.3497 36.69 15.2496 36.6588 15.1646 36.6012C15.0797 36.5436 15.0136 36.4622 14.9749 36.3671C14.9361 36.272 14.9264 36.1676 14.9469 36.067C14.9674 35.9665 15.0172 35.8742 15.0901 35.8019C15.1629 35.7296 15.2556 35.6804 15.3563 35.6607C15.4571 35.641 15.5614 35.6515 15.6562 35.6909C15.7509 35.7304 15.8319 35.797 15.8888 35.8824C15.9458 35.9678 15.9762 36.0682 15.9762 36.1709C15.9759 36.2394 15.9621 36.3072 15.9357 36.3703C15.9092 36.4335 15.8705 36.4909 15.8219 36.5392C15.7733 36.5874 15.7156 36.6256 15.6522 36.6516C15.5888 36.6775 15.5209 36.691 15.4524 36.6907ZM28.5476 34.6112C28.2397 34.6136 27.9394 34.7071 27.6846 34.8798C27.4298 35.0526 27.2318 35.297 27.1156 35.5821C26.9994 35.8672 26.9702 36.1803 27.0317 36.482C27.0932 36.7837 27.2426 37.0605 27.4612 37.2773C27.6797 37.4942 27.9575 37.6416 28.2597 37.7008C28.5618 37.76 28.8747 37.7285 29.159 37.6102C29.4432 37.4918 29.6861 37.292 29.8569 37.0359C30.0278 36.7797 30.119 36.4787 30.119 36.1709C30.117 35.7558 29.9505 35.3585 29.6559 35.0661C29.3612 34.7737 28.9627 34.6101 28.5476 34.6112ZM28.5476 36.6907C28.445 36.69 28.3448 36.6588 28.2599 36.6012C28.1749 36.5436 28.1089 36.4622 28.0701 36.3671C28.0314 36.272 28.0216 36.1676 28.0421 36.067C28.0626 35.9665 28.1125 35.8742 28.1853 35.8019C28.2582 35.7296 28.3508 35.6804 28.4516 35.6607C28.5523 35.641 28.6566 35.6515 28.7514 35.6909C28.8462 35.7304 28.9271 35.797 28.9841 35.8824C29.041 35.9678 29.0714 36.0682 29.0714 36.1709C29.0712 36.2394 29.0574 36.3072 29.0309 36.3703C29.0044 36.4335 28.9658 36.4909 28.9171 36.5392C28.8685 36.5874 28.8108 36.6256 28.7474 36.6516C28.684 36.6775 28.6161 36.691 28.5476 36.6907Z" fill="#6FF9D8"/>
<path d="M0.52381 39.8096C0.813102 39.8096 1.04762 39.5751 1.04762 39.2858C1.04762 38.9965 0.813102 38.762 0.52381 38.762C0.234518 38.762 0 38.9965 0 39.2858C0 39.5751 0.234518 39.8096 0.52381 39.8096Z" fill="#C3B7FF"/>
<path d="M2.88095 38.762H2.09524C1.95631 38.762 1.82308 38.8171 1.72485 38.9154C1.62661 39.0136 1.57143 39.1468 1.57143 39.2858C1.57143 39.4247 1.62661 39.5579 1.72485 39.6562C1.82308 39.7544 1.95631 39.8096 2.09524 39.8096H2.88095C3.01987 39.8096 3.15311 39.7544 3.25134 39.6562C3.34957 39.5579 3.40476 39.4247 3.40476 39.2858C3.40476 39.1468 3.34957 39.0136 3.25134 38.9154C3.15311 38.8171 3.01987 38.762 2.88095 38.762ZM41.9048 38.762H41.119C40.9801 38.762 40.8469 38.8171 40.7487 38.9154C40.6504 39.0136 40.5952 39.1468 40.5952 39.2858C40.5952 39.4247 40.6504 39.5579 40.7487 39.6562C40.8469 39.7544 40.9801 39.8096 41.119 39.8096H41.9048C42.0437 39.8096 42.1769 39.7544 42.2752 39.6562C42.3734 39.5579 42.4286 39.4247 42.4286 39.2858C42.4286 39.1468 42.3734 39.0136 42.2752 38.9154C42.1769 38.8171 42.0437 38.762 41.9048 38.762Z" fill="#C3B7FF"/>
<path d="M30.9451 40.8574H28.7692C28.6373 40.8676 28.5141 40.9273 28.4242 41.0244C28.3343 41.1215 28.2844 41.2489 28.2844 41.3812C28.2844 41.5135 28.3343 41.641 28.4242 41.7381C28.5141 41.8352 28.6373 41.8948 28.7692 41.905H30.9451C31.077 41.8948 31.2002 41.8352 31.2901 41.7381C31.38 41.641 31.4299 41.5135 31.4299 41.3812C31.4299 41.2489 31.38 41.1215 31.2901 41.0244C31.2002 40.9273 31.077 40.8676 30.9451 40.8574ZM15.2308 40.8574H13.0549C12.923 40.8676 12.7998 40.9273 12.7099 41.0244C12.6201 41.1215 12.5701 41.2489 12.5701 41.3812C12.5701 41.5135 12.6201 41.641 12.7099 41.7381C12.7998 41.8352 12.923 41.8948 13.0549 41.905H15.2308C15.3627 41.8948 15.4859 41.8352 15.5758 41.7381C15.6657 41.641 15.7156 41.5135 15.7156 41.3812C15.7156 41.2489 15.6657 41.1215 15.5758 41.0244C15.4859 40.9273 15.3627 40.8676 15.2308 40.8574ZM27.2381 40.8574H16.7619C16.623 40.8574 16.4897 40.9126 16.3915 41.0108C16.2933 41.1091 16.2381 41.2423 16.2381 41.3812C16.2381 41.5202 16.2933 41.6534 16.3915 41.7516C16.4897 41.8499 16.623 41.905 16.7619 41.905H20.9367V42.4289H18.8571C18.7182 42.4289 18.585 42.484 18.4868 42.5823C18.3885 42.6805 18.3333 42.8137 18.3333 42.9527C18.3333 43.0916 18.3885 43.2248 18.4868 43.323C18.585 43.4213 18.7182 43.4765 18.8571 43.4765H25.4048C25.5437 43.4765 25.6769 43.4213 25.7752 43.323C25.8734 43.2248 25.9286 43.0916 25.9286 42.9527C25.9286 42.8137 25.8734 42.6805 25.7752 42.5823C25.6769 42.484 25.5437 42.4289 25.4048 42.4289H23.0633V41.905H27.2381C27.377 41.905 27.5103 41.8499 27.6085 41.7516C27.7067 41.6534 27.7619 41.5202 27.7619 41.3812C27.7619 41.2423 27.7067 41.1091 27.6085 41.0108C27.5103 40.9126 27.377 40.8574 27.2381 40.8574Z" fill="#6FF9D8"/>
<path d="M39.4745 38.7615H31.1221L31.3319 38.5533C31.4746 38.412 31.5799 38.2375 31.6385 38.0454C31.697 37.8533 31.707 37.6497 31.6674 37.4528C31.9334 37.2762 32.1195 37.0024 32.186 36.6901H34.0476C34.3243 36.6908 34.59 36.5817 34.7864 36.3868C34.9828 36.1919 35.0938 35.9271 35.0952 35.6504V29.4128H35.3571C35.495 29.4128 35.6272 29.3581 35.7247 29.2606C35.8222 29.1631 35.877 29.0308 35.877 28.893C35.877 28.7551 35.8222 28.6228 35.7247 28.5253C35.6272 28.4279 35.495 28.3731 35.3571 28.3731H33.7857C33.6478 28.3731 33.5156 28.4279 33.4181 28.5253C33.3206 28.6228 33.2658 28.7551 33.2658 28.893C33.2658 29.0308 33.3206 29.1631 33.4181 29.2606C33.5156 29.3581 33.6478 29.4128 33.7857 29.4128H34.0476V35.6506H32.1857C32.1193 35.3384 31.9333 35.0646 31.6674 34.888C31.707 34.6911 31.697 34.4875 31.6385 34.2954C31.5799 34.1033 31.4746 33.9287 31.3319 33.7874L30.9487 33.4074C30.8346 33.2937 30.6991 33.2036 30.5501 33.1423C30.4011 33.081 30.2414 33.0497 30.0803 33.0502C29.9994 33.0502 29.9187 33.0581 29.8393 33.0737C29.7265 32.9067 29.5745 32.7699 29.3965 32.6754C29.2185 32.5808 29.02 32.5315 28.8184 32.5316H28.2765C28.075 32.5315 27.8765 32.5808 27.6985 32.6754C27.5205 32.7699 27.3684 32.9067 27.2556 33.0737C27.1763 33.0581 27.0957 33.0502 27.0149 33.0502C26.8538 33.0497 26.6941 33.081 26.5451 33.1423C26.3961 33.2036 26.2606 33.2937 26.1465 33.4074L25.7633 33.7874C25.6206 33.9287 25.5153 34.1033 25.4567 34.2954C25.3982 34.4875 25.3882 34.6911 25.4278 34.888C25.1618 35.0646 24.9757 35.3384 24.9092 35.6506H22.5238V27.8532H23.0476C23.1855 27.8532 23.3177 27.7984 23.4152 27.7009C23.5127 27.6034 23.5675 27.4712 23.5675 27.3333C23.5675 27.1954 23.5127 27.0632 23.4152 26.9657C23.3177 26.8682 23.1855 26.8134 23.0476 26.8134H20.9524C20.8145 26.8134 20.6822 26.8682 20.5847 26.9657C20.4873 27.0632 20.4325 27.1954 20.4325 27.3333C20.4325 27.4712 20.4873 27.6034 20.5847 27.7009C20.6822 27.7984 20.8145 27.8532 20.9524 27.8532H21.4762V35.6506H19.0905C19.0241 35.3384 18.838 35.0646 18.5722 34.888C18.6117 34.6911 18.6018 34.4875 18.5432 34.2954C18.4847 34.1033 18.3793 33.9287 18.2367 33.7874L17.8535 33.4074C17.7394 33.2937 17.6039 33.2036 17.4549 33.1423C17.3058 33.081 17.1462 33.0497 16.985 33.0502C16.9041 33.0502 16.8234 33.0581 16.7441 33.0737C16.6313 32.9067 16.4792 32.7699 16.3012 32.6754C16.1232 32.5808 15.9247 32.5315 15.7232 32.5316H15.1813C14.9797 32.5315 14.7812 32.5808 14.6032 32.6754C14.4252 32.7699 14.2731 32.9067 14.1604 33.0737C14.0811 33.0581 14.0005 33.0502 13.9197 33.0502C13.7586 33.0497 13.5989 33.081 13.4499 33.1423C13.3008 33.2036 13.1654 33.2937 13.0512 33.4074L12.6681 33.7874C12.5254 33.9287 12.42 34.1033 12.3615 34.2954C12.3029 34.4875 12.293 34.6911 12.3326 34.888C12.0666 35.0646 11.8804 35.3384 11.814 35.6506H9.95236V29.4128H10.2143C10.3521 29.4128 10.4844 29.3581 10.5819 29.2606C10.6794 29.1631 10.7341 29.0308 10.7341 28.893C10.7341 28.7551 10.6794 28.6228 10.5819 28.5253C10.4844 28.4279 10.3521 28.3731 10.2143 28.3731H8.64284C8.50496 28.3731 8.37272 28.4279 8.27523 28.5253C8.17773 28.6228 8.12296 28.7551 8.12296 28.893C8.12296 29.0308 8.17773 29.1631 8.27523 29.2606C8.37272 29.3581 8.50496 29.4128 8.64284 29.4128H8.90474V35.6506C8.90613 35.9273 9.0172 36.1922 9.21359 36.3871C9.40998 36.582 9.67566 36.6911 9.95236 36.6904H11.8142C11.8807 37.0025 12.0668 37.2762 12.3326 37.4528C12.2929 37.6496 12.3028 37.8533 12.3614 38.0453C12.4199 38.2374 12.5252 38.412 12.6678 38.5533L12.8778 38.7615H4.52569C4.45118 38.7518 4.37544 38.7581 4.30354 38.7799C4.23164 38.8018 4.16523 38.8388 4.10875 38.8883C4.05227 38.9379 4.00702 38.999 3.97602 39.0674C3.94503 39.1359 3.92899 39.2102 3.92899 39.2853C3.92899 39.3605 3.94503 39.4348 3.97602 39.5032C4.00702 39.5717 4.05227 39.6328 4.10875 39.6823C4.16523 39.7319 4.23164 39.7689 4.30354 39.7907C4.37544 39.8126 4.45118 39.8189 4.52569 39.8092H39.4743C39.5488 39.8189 39.6245 39.8126 39.6964 39.7907C39.7683 39.7689 39.8347 39.7319 39.8912 39.6823C39.9477 39.6328 39.9929 39.5717 40.0239 39.5032C40.0549 39.4348 40.071 39.3605 40.071 39.2853C40.071 39.2102 40.0549 39.1359 40.0239 39.0674C39.9929 38.999 39.9477 38.9379 39.8912 38.8883C39.8347 38.8388 39.7683 38.8018 39.6964 38.7799C39.6245 38.7581 39.549 38.7518 39.4745 38.7615ZM25.9286 35.9015C25.9287 35.8779 25.9334 35.8545 25.9425 35.8327C25.9517 35.8109 25.965 35.7912 25.9818 35.7745C25.9986 35.7579 26.0185 35.7447 26.0403 35.7358C26.0622 35.7268 26.0856 35.7223 26.1093 35.7224H26.335C26.3928 35.4411 26.5046 35.1737 26.6642 34.9351L26.504 34.7761C26.4872 34.7596 26.4738 34.7398 26.4647 34.7181C26.4556 34.6963 26.451 34.673 26.451 34.6494C26.451 34.6258 26.4556 34.6024 26.4647 34.5807C26.4738 34.5589 26.4872 34.5392 26.504 34.5226L26.8871 34.1426C26.9211 34.1089 26.9671 34.0899 27.0149 34.0899C27.0628 34.0899 27.1087 34.1089 27.1427 34.1426L27.3028 34.3013C27.5439 34.1426 27.8132 34.0318 28.0961 33.9747V33.7505C28.0962 33.7269 28.1009 33.7035 28.1101 33.6817C28.1192 33.6599 28.1326 33.6401 28.1493 33.6235C28.1661 33.6069 28.186 33.5937 28.2079 33.5848C28.2297 33.5758 28.2532 33.5713 28.2768 33.5714H28.8187C28.8423 33.5713 28.8657 33.5758 28.8876 33.5848C28.9095 33.5937 28.9293 33.6069 28.9461 33.6235C28.9629 33.6401 28.9763 33.6599 28.9854 33.6817C28.9945 33.7035 28.9993 33.7269 28.9994 33.7505V33.9747C29.2822 34.0318 29.5514 34.1427 29.7924 34.3013L29.9525 34.1423C29.9865 34.1086 30.0324 34.0897 30.0803 34.0897C30.1281 34.0897 30.1741 34.1086 30.2081 34.1423L30.5912 34.5226C30.608 34.5392 30.6214 34.5589 30.6305 34.5807C30.6396 34.6024 30.6442 34.6258 30.6442 34.6494C30.6442 34.673 30.6396 34.6963 30.6305 34.7181C30.6214 34.7398 30.608 34.7596 30.5912 34.7761L30.431 34.9351C30.5906 35.1737 30.7024 35.4411 30.7602 35.7224H30.9859C31.0096 35.7223 31.033 35.7268 31.0548 35.7358C31.0767 35.7447 31.0966 35.7579 31.1134 35.7745C31.1302 35.7912 31.1435 35.8109 31.1527 35.8327C31.1618 35.8545 31.1665 35.8779 31.1666 35.9015V36.4392C31.1666 36.4629 31.1618 36.4863 31.1527 36.5081C31.1436 36.5299 31.1303 36.5497 31.1135 36.5664C31.0967 36.583 31.0768 36.5962 31.0549 36.6052C31.033 36.6142 31.0096 36.6187 30.9859 36.6186H30.7602C30.7024 36.8998 30.5906 37.1671 30.431 37.4056L30.5912 37.5646C30.608 37.5812 30.6214 37.6009 30.6305 37.6227C30.6396 37.6445 30.6442 37.6678 30.6442 37.6914C30.6442 37.715 30.6396 37.7383 30.6305 37.7601C30.6214 37.7818 30.608 37.8016 30.5912 37.8181L30.2081 38.1984C30.1741 38.2322 30.1281 38.2511 30.0803 38.2511C30.0324 38.2511 29.9865 38.2322 29.9525 38.1984L29.7924 38.0395C29.5513 38.1981 29.282 38.309 28.9991 38.3661V38.5902C28.9987 38.6306 28.9844 38.6695 28.9588 38.7007C28.9332 38.7318 28.8977 38.7533 28.8582 38.7615H28.2367C28.1973 38.7532 28.1619 38.7318 28.1363 38.7006C28.1107 38.6695 28.0965 38.6305 28.0961 38.5902V38.3661C27.8132 38.309 27.5438 38.1981 27.3028 38.0395L27.1427 38.1984C27.1087 38.2322 27.0628 38.2511 27.0149 38.2511C26.9671 38.2511 26.9211 38.2322 26.8871 38.1984L26.504 37.8181C26.4872 37.8016 26.4738 37.7818 26.4647 37.7601C26.4556 37.7383 26.451 37.715 26.451 37.6914C26.451 37.6678 26.4556 37.6445 26.4647 37.6227C26.4738 37.6009 26.4872 37.5812 26.504 37.5646L26.6642 37.4056C26.5046 37.1671 26.3928 36.8998 26.335 36.6186H26.1093C26.0856 36.6187 26.0622 36.6142 26.0403 36.6052C26.0184 36.5962 25.9985 36.583 25.9817 36.5664C25.9649 36.5497 25.9516 36.5299 25.9425 36.5081C25.9334 36.4863 25.9286 36.4629 25.9286 36.4392V35.9015ZM18.5722 37.4528C18.8381 37.2762 19.0243 37.0024 19.0907 36.6901H24.9095C24.9759 37.0023 25.1619 37.2761 25.4278 37.4528C25.3882 37.6496 25.3981 37.8533 25.4566 38.0453C25.5151 38.2374 25.6204 38.412 25.763 38.5533L25.9731 38.7615H18.0269L18.2367 38.5533C18.3793 38.412 18.4847 38.2375 18.5432 38.0454C18.6018 37.8533 18.6117 37.6497 18.5722 37.4528ZM15.0008 38.5902V38.3661C14.7179 38.309 14.4486 38.1981 14.2075 38.0395L14.0475 38.1984C14.0135 38.2322 13.9676 38.2511 13.9197 38.2511C13.8718 38.2511 13.8259 38.2322 13.7919 38.1984L13.4087 37.8181C13.3919 37.8016 13.3786 37.7818 13.3695 37.7601C13.3604 37.7383 13.3557 37.715 13.3557 37.6914C13.3557 37.6678 13.3604 37.6445 13.3695 37.6227C13.3786 37.6009 13.3919 37.5812 13.4087 37.5646L13.569 37.4056C13.4094 37.1671 13.2976 36.8998 13.2398 36.6186H13.014C12.9904 36.6187 12.9669 36.6142 12.9451 36.6052C12.9232 36.5962 12.9033 36.583 12.8865 36.5664C12.8697 36.5497 12.8564 36.5299 12.8472 36.5081C12.8381 36.4863 12.8334 36.4629 12.8333 36.4392V35.9015C12.8334 35.8779 12.8382 35.8545 12.8473 35.8327C12.8564 35.8109 12.8698 35.7912 12.8866 35.7745C12.9033 35.7579 12.9232 35.7447 12.9451 35.7358C12.967 35.7268 12.9904 35.7223 13.014 35.7224H13.2398C13.2975 35.4411 13.4093 35.1737 13.569 34.9351L13.4087 34.7761C13.3919 34.7596 13.3786 34.7398 13.3695 34.7181C13.3604 34.6963 13.3557 34.673 13.3557 34.6494C13.3557 34.6258 13.3604 34.6024 13.3695 34.5807C13.3786 34.5589 13.3919 34.5392 13.4087 34.5226L13.7919 34.1426C13.8259 34.1089 13.8718 34.0899 13.9197 34.0899C13.9676 34.0899 14.0135 34.1089 14.0475 34.1426L14.2075 34.3013C14.4486 34.1426 14.7179 34.0318 15.0008 33.9747V33.7505C15.0009 33.7269 15.0057 33.7035 15.0148 33.6817C15.024 33.6599 15.0373 33.6401 15.0541 33.6235C15.0709 33.6069 15.0908 33.5937 15.1126 33.5848C15.1345 33.5758 15.1579 33.5713 15.1816 33.5714H15.7234C15.7471 33.5713 15.7705 33.5758 15.7923 33.5848C15.8142 33.5937 15.8341 33.6069 15.8509 33.6235C15.8677 33.6401 15.881 33.6599 15.8902 33.6817C15.8993 33.7035 15.904 33.7269 15.9041 33.7505V33.9747C16.187 34.0318 16.4562 34.1427 16.6972 34.3013L16.8572 34.1423C16.8912 34.1086 16.9371 34.0897 16.985 34.0897C17.0329 34.0897 17.0788 34.1086 17.1128 34.1423L17.496 34.5226C17.5128 34.5392 17.5261 34.5589 17.5352 34.5807C17.5443 34.6024 17.549 34.6258 17.549 34.6494C17.549 34.673 17.5443 34.6963 17.5352 34.7181C17.5261 34.7398 17.5128 34.7596 17.496 34.7761L17.3357 34.9351C17.4954 35.1737 17.6072 35.4411 17.6649 35.7224H17.8907C17.9143 35.7223 17.9377 35.7268 17.9596 35.7358C17.9815 35.7447 18.0014 35.7579 18.0182 35.7745C18.0349 35.7912 18.0483 35.8109 18.0574 35.8327C18.0665 35.8545 18.0713 35.8779 18.0714 35.9015V36.4392C18.0713 36.4629 18.0666 36.4863 18.0575 36.5081C18.0484 36.5299 18.035 36.5497 18.0182 36.5664C18.0015 36.583 17.9816 36.5962 17.9597 36.6052C17.9378 36.6142 17.9143 36.6187 17.8907 36.6186H17.6649C17.6072 36.8998 17.4954 37.1671 17.3357 37.4056L17.496 37.5646C17.5128 37.5812 17.5261 37.6009 17.5352 37.6227C17.5443 37.6445 17.549 37.6678 17.549 37.6914C17.549 37.715 17.5443 37.7383 17.5352 37.7601C17.5261 37.7818 17.5128 37.8016 17.496 37.8181L17.1128 38.1984C17.0788 38.2322 17.0329 38.2511 16.985 38.2511C16.9371 38.2511 16.8912 38.2322 16.8572 38.1984L16.6972 38.0395C16.4561 38.1981 16.1868 38.309 15.9039 38.3661V38.5902C15.9034 38.6306 15.8892 38.6695 15.8636 38.7007C15.838 38.7318 15.8025 38.7533 15.763 38.7615H15.1415C15.102 38.7532 15.0666 38.7318 15.041 38.7006C15.0155 38.6695 15.0013 38.6305 15.0008 38.5902ZM17.6275 2.09487C17.7829 2.09487 17.9348 2.04878 18.064 1.96245C18.1932 1.87611 18.2939 1.7534 18.3534 1.60983C18.4129 1.46626 18.4284 1.30828 18.3981 1.15587C18.3678 1.00345 18.2929 0.863452 18.1831 0.753568C18.0732 0.643684 17.9332 0.568852 17.7808 0.538535C17.6284 0.508218 17.4704 0.523778 17.3268 0.583247C17.1832 0.642716 17.0605 0.743423 16.9742 0.872633C16.8878 1.00184 16.8418 1.15375 16.8418 1.30915C16.842 1.51747 16.9248 1.7172 17.0721 1.86451C17.2194 2.01181 17.4192 2.09466 17.6275 2.09487ZM17.6275 0.916295C17.7052 0.916295 17.7811 0.939336 17.8457 0.982503C17.9103 1.02567 17.9607 1.08703 17.9904 1.15881C18.0202 1.2306 18.0279 1.30959 18.0128 1.38579C17.9976 1.462 17.9602 1.532 17.9053 1.58694C17.8503 1.64189 17.7803 1.6793 17.7041 1.69446C17.6279 1.70962 17.5489 1.70184 17.4771 1.6721C17.4054 1.64237 17.344 1.59202 17.3008 1.52741C17.2577 1.46281 17.2346 1.38685 17.2346 1.30915C17.2347 1.20498 17.2761 1.1051 17.3498 1.03144C17.4234 0.957777 17.5233 0.916364 17.6275 0.916295ZM41.1989 18.0711C41.0953 18.0711 40.994 18.1018 40.9079 18.1593C40.8218 18.2169 40.7546 18.2987 40.715 18.3944C40.6753 18.4901 40.665 18.5954 40.6852 18.6971C40.7054 18.7987 40.7553 18.892 40.8285 18.9653C40.9018 19.0385 40.9951 19.0884 41.0967 19.1086C41.1983 19.1288 41.3037 19.1184 41.3994 19.0788C41.4951 19.0392 41.5769 18.972 41.6344 18.8859C41.692 18.7997 41.7227 18.6985 41.7227 18.5949C41.7226 18.456 41.6674 18.3228 41.5691 18.2246C41.4709 18.1264 41.3378 18.0712 41.1989 18.0711ZM41.1989 18.8568C41.1471 18.8568 41.0965 18.8414 41.0534 18.8126C41.0103 18.7839 40.9768 18.7429 40.9569 18.6951C40.9371 18.6472 40.9319 18.5946 40.942 18.5438C40.9521 18.493 40.9771 18.4463 41.0137 18.4097C41.0503 18.373 41.097 18.3481 41.1478 18.338C41.1986 18.3279 41.2513 18.3331 41.2991 18.3529C41.347 18.3727 41.3879 18.4063 41.4167 18.4494C41.4455 18.4924 41.4608 18.5431 41.4608 18.5949C41.4607 18.6643 41.4331 18.7309 41.384 18.78C41.3349 18.8291 41.2683 18.8567 41.1989 18.8568ZM31.4286 10.4758C31.325 10.4758 31.2237 10.5065 31.1375 10.5641C31.0514 10.6217 30.9843 10.7035 30.9446 10.7992C30.905 10.8949 30.8946 11.0002 30.9148 11.1018C30.935 11.2034 30.9849 11.2968 31.0582 11.37C31.1314 11.4433 31.2248 11.4932 31.3264 11.5134C31.428 11.5336 31.5333 11.5232 31.629 11.4836C31.7247 11.4439 31.8065 11.3768 31.8641 11.2906C31.9216 11.2045 31.9524 11.1032 31.9524 10.9996C31.9522 10.8607 31.897 10.7276 31.7988 10.6294C31.7006 10.5312 31.5674 10.476 31.4286 10.4758ZM31.4286 11.2615C31.3768 11.2615 31.3261 11.2462 31.283 11.2174C31.24 11.1886 31.2064 11.1477 31.1866 11.0999C31.1668 11.052 31.1616 10.9993 31.1717 10.9485C31.1818 10.8977 31.2067 10.8511 31.2434 10.8144C31.28 10.7778 31.3267 10.7529 31.3775 10.7428C31.4283 10.7326 31.4809 10.7378 31.5288 10.7577C31.5766 10.7775 31.6175 10.8111 31.6463 10.8541C31.6751 10.8972 31.6905 10.9478 31.6905 10.9996C31.6904 11.0691 31.6628 11.1356 31.6137 11.1847C31.5646 11.2338 31.498 11.2615 31.4286 11.2615ZM41.1989 2.61868C41.0953 2.61868 40.994 2.6494 40.9079 2.70695C40.8218 2.76451 40.7546 2.84632 40.715 2.94203C40.6753 3.03775 40.665 3.14307 40.6852 3.24468C40.7054 3.34628 40.7553 3.43962 40.8285 3.51287C40.9018 3.58613 40.9951 3.63602 41.0967 3.65623C41.1983 3.67644 41.3037 3.66607 41.3994 3.62642C41.4951 3.58678 41.5769 3.51964 41.6344 3.4335C41.692 3.34736 41.7227 3.24608 41.7227 3.14249C41.7226 3.0036 41.6674 2.87045 41.5691 2.77225C41.4709 2.67405 41.3378 2.61881 41.1989 2.61868ZM41.1989 3.40439C41.1471 3.40439 41.0965 3.38903 41.0534 3.36025C41.0103 3.33147 40.9768 3.29057 40.9569 3.24271C40.9371 3.19485 40.9319 3.14219 40.942 3.09139C40.9521 3.04059 40.9771 2.99392 41.0137 2.95729C41.0503 2.92066 41.097 2.89572 41.1478 2.88561C41.1986 2.87551 41.2513 2.88069 41.2991 2.90052C41.347 2.92034 41.3879 2.95391 41.4167 2.99698C41.4455 3.04005 41.4608 3.09069 41.4608 3.14249C41.4607 3.21193 41.4331 3.2785 41.384 3.3276C41.3349 3.3767 41.2683 3.40432 41.1989 3.40439ZM4.27034 4.71391C4.27034 4.61031 4.23962 4.50904 4.18206 4.4229C4.1245 4.33676 4.04269 4.26962 3.94698 4.22998C3.85127 4.19033 3.74595 4.17996 3.64434 4.20017C3.54273 4.22038 3.44939 4.27027 3.37614 4.34352C3.30288 4.41678 3.25299 4.51011 3.23278 4.61172C3.21257 4.71333 3.22294 4.81865 3.26259 4.91437C3.30224 5.01008 3.36937 5.09189 3.45551 5.14945C3.54165 5.207 3.64293 5.23772 3.74653 5.23772C3.88541 5.23758 4.01856 5.18235 4.11676 5.08415C4.21497 4.98595 4.2702 4.85279 4.27034 4.71391ZM3.48462 4.71391C3.48462 4.66211 3.49998 4.61148 3.52876 4.56841C3.55754 4.52534 3.59844 4.49177 3.6463 4.47195C3.69416 4.45212 3.74682 4.44694 3.79762 4.45704C3.84843 4.46715 3.89509 4.49209 3.93172 4.52872C3.96835 4.56535 3.99329 4.61201 4.0034 4.66282C4.01351 4.71362 4.00832 4.76628 3.9885 4.81414C3.96867 4.862 3.9351 4.9029 3.89203 4.93168C3.84896 4.96046 3.79833 4.97582 3.74653 4.97582C3.67709 4.97575 3.61051 4.94813 3.56141 4.89903C3.51231 4.84993 3.48469 4.78335 3.48462 4.71391Z" fill="#C3B7FF"/>
<path d="M2.58974 15.4556L2.97919 14.9436L2.73326 14.8042L2.48315 15.3778H2.47503L2.22098 14.8082L1.97086 14.9517L2.35612 15.4517V15.4598L1.75348 15.382V15.6607L2.36005 15.5829V15.591L1.97086 16.0907L2.20422 16.2384L2.47084 15.6607H2.47896L2.72488 16.2342L2.98312 16.0868L2.58974 15.5949V15.5868L3.20836 15.6607V15.382L2.58974 15.4637V15.4556ZM11.5144 9.57977L11.29 9.8676L11.4246 9.95272L11.5781 9.61984H11.5828L11.7242 9.95037L11.873 9.86551L11.6464 9.58213V9.57741L12.0029 9.61984V9.45956L11.6464 9.5067V9.50198L11.8706 9.20708L11.7292 9.12668L11.5851 9.4572H11.5804L11.4343 9.12903L11.29 9.21179L11.5121 9.49963V9.50434L11.165 9.45956V9.61984L11.5144 9.57506V9.57977ZM40.4132 12.4966V12.2234L39.8064 12.3038V12.2957L40.1883 11.7934L39.947 11.6567L39.7019 12.2192H39.6938L39.4447 11.6606L39.1993 11.8015L39.5772 12.2918V12.2999L38.9861 12.2234V12.4966L39.5812 12.4204V12.4285L39.1993 12.9188L39.4285 13.0636L39.6899 12.4966H39.6977L39.9389 13.0594L40.1922 12.9149L39.8064 12.4324V12.4243L40.4132 12.4966ZM30.4729 4.13529L30.8024 3.70184L30.5944 3.58398L30.3831 4.06929H30.376L30.161 3.58739L29.9494 3.70891L30.2754 4.13189V4.1387L29.7655 4.07296V4.30868L30.2788 4.24294V4.24975L29.9494 4.67272L30.1468 4.79765L30.3726 4.30868H30.3794L30.5874 4.79398L30.8058 4.66932L30.4729 4.25315V4.24634L30.9965 4.30868V4.07296L30.4729 4.1421V4.13529Z" fill="#6FF9D8"/>
</g>
</g>
<defs>
<clipPath id="clip0_247_22101">
<rect width="42" height="42" fill="white"/>
</clipPath>
<clipPath id="clip1_247_22101">
<rect width="44" height="44" fill="white"/>
</clipPath>
</defs>
</svg>
