<svg width="42" height="42" viewBox="0 0 42 42" fill="none" xmlns="http://www.w3.org/2000/svg">
<g clip-path="url(#clip0_247_22136)">
<path d="M0.52381 36.8093C0.813102 36.8093 1.04762 36.5748 1.04762 36.2855C1.04762 35.9962 0.813102 35.7617 0.52381 35.7617C0.234518 35.7617 0 35.9962 0 36.2855C0 36.5748 0.234518 36.8093 0.52381 36.8093Z" fill="#C3B7FF"/>
<path d="M2.58968 25.4556L2.97913 24.9436L2.7332 24.8042L2.48308 25.3778H2.47497L2.22092 24.8082L1.9708 24.9517L2.35606 25.4517V25.4598L1.75342 25.382V25.6607L2.35999 25.5829V25.591L1.9708 26.0907L2.20416 26.2384L2.47078 25.6607H2.47889L2.72482 26.2342L2.98306 26.0868L2.58968 25.5949V25.5868L3.2083 25.6607V25.382L2.58968 25.4637V25.4556ZM11.5143 19.5798L11.2899 19.8676L11.4245 19.9527L11.578 19.6198H11.5827L11.7241 19.9504L11.8729 19.8655L11.6463 19.5821V19.5774L12.0028 19.6198V19.4596L11.6463 19.5067V19.502L11.8705 19.2071L11.7291 19.1267L11.5851 19.4572H11.5803L11.4342 19.129L11.2899 19.2118L11.512 19.4996V19.5043L11.165 19.4596V19.6198L11.5143 19.5751V19.5798ZM40.4132 22.4966V22.2234L39.8063 22.3038V22.2957L40.1882 21.7934L39.947 21.6567L39.7018 22.2192H39.6937L39.4447 21.6606L39.1992 21.8015L39.5772 22.2918V22.2999L38.9861 22.2234V22.4966L39.5811 22.4204V22.4285L39.1992 22.9188L39.4284 23.0636L39.6898 22.4966H39.6977L39.9389 23.0594L40.1921 22.9149L39.8063 22.4324V22.4243L40.4132 22.4966ZM30.4728 14.1353L30.8023 13.7018L30.5944 13.584L30.383 14.0693H30.3759L30.1609 13.5874L29.9493 13.7089L30.2754 14.1319V14.1387L29.7654 14.073V14.3087L30.2788 14.2429V14.2497L29.9493 14.6727L30.1468 14.7977L30.3725 14.3087H30.3793L30.5873 14.794L30.8057 14.6693L30.4728 14.2532V14.2463L30.9964 14.3087V14.073L30.4728 14.1421V14.1353Z" fill="#6FF9D8"/>
<path d="M2.29525 7.46586L2.88854 7.21716L2.74522 6.97353L2.24183 7.34519L2.2348 7.34113L2.29961 6.72079L2.01124 6.72002L2.09489 7.34564L2.09084 7.35268L1.60782 6.98399L1.46849 7.22532L2.03269 7.46124L2.02863 7.46827L1.44172 7.70644L1.56996 7.95105L2.08974 7.584L2.09677 7.58806L2.02297 8.20775L2.32033 8.20917L2.22558 7.58652L2.22964 7.57949L2.72845 7.95276L2.86779 7.71143L2.29119 7.47289L2.29525 7.46586ZM12.9622 6.83957L12.6239 6.97661L12.6979 7.11764L12.9972 6.90609L13.0013 6.90845L12.9585 7.26541L13.1298 7.2663L13.0753 6.90761L13.0776 6.90353L13.3651 7.1185L13.4453 6.97969L13.113 6.84229L13.1154 6.8382L13.457 6.6949L13.3747 6.55456L13.0847 6.76878L13.0806 6.76642L13.1181 6.40915L12.9518 6.40867L13.0002 6.76898L12.9978 6.77307L12.7197 6.56077L12.6395 6.69958L12.9645 6.83549L12.9622 6.83957ZM36.5309 23.815L36.6674 23.5785L36.1017 23.3447L36.1058 23.3377L36.6876 23.0935L36.5471 22.8545L36.0535 23.2192L36.0465 23.2151L36.1101 22.6068L35.8271 22.6061L35.9093 23.2197L35.9052 23.2267L35.4315 22.8649L35.2949 23.1015L35.8484 23.333L35.8443 23.34L35.2685 23.5737L35.3945 23.8137L35.9044 23.4533L35.9112 23.4573L35.8387 24.0653L36.1303 24.0667L36.0374 23.456L36.0415 23.449L36.5309 23.815ZM32.1029 11.6038L32.605 11.3931L32.4838 11.1871L32.0581 11.5017L32.052 11.4982L32.1068 10.9733L31.8627 10.9727L31.9336 11.5021L31.9302 11.508L31.5215 11.1961L31.4036 11.4002L31.881 11.6L31.8776 11.6058L31.3808 11.8074L31.4894 12.0143L31.9294 11.7038L31.9353 11.7072L31.8727 12.2314L32.1242 12.2327L32.044 11.7058L32.0474 11.6999L32.4697 12.0157L32.5875 11.8116L32.0995 11.6097L32.1029 11.6038Z" fill="#6FF9D8"/>
<path d="M1.37083 22.5387L6.5 19.5774L11.6292 22.5387V28.4613L6.5 31.4226L1.37083 28.4613V22.5387Z" stroke="#6FF9D8"/>
<path d="M6.47093 13.5387L11.6001 10.5774L16.7293 13.5387V19.4613L11.6001 22.4226L6.47093 19.4613V13.5387Z" stroke="#C3B7FF"/>
<path d="M11.3708 22.5387L16.5 19.5774L21.6292 22.5387V28.4613L16.5 31.4226L11.3708 28.4613V22.5387Z" stroke="#C3B7FF"/>
<path d="M16.3708 31.5387L21.5 28.5774L26.6292 31.5387V37.4613L21.5 40.4226L16.3708 37.4613V31.5387Z" stroke="#6FF9D8"/>
<path d="M16.5708 13.5387L21.7 10.5774L26.8292 13.5387V19.4613L21.7 22.4226L16.5708 19.4613V13.5387Z" stroke="#6FF9D8"/>
<path d="M32.7607 35.1021C32.4232 33.4843 32.2657 33.3263 30.6482 32.9896C30.5357 32.9662 30.4347 32.9047 30.3622 32.8156C30.2896 32.7265 30.25 32.6151 30.25 32.5002C30.25 32.3853 30.2895 32.2738 30.362 32.1847C30.4345 32.0955 30.5355 32.034 30.6479 32.0106C32.2654 31.6736 32.4237 31.5156 32.7604 29.8981C32.7839 29.7856 32.8453 29.6846 32.9345 29.6121C33.0236 29.5396 33.135 29.5 33.2499 29.5C33.3649 29.5 33.4763 29.5396 33.5654 29.6121C33.6546 29.6846 33.716 29.7856 33.7394 29.8981C34.0764 31.5156 34.2344 31.6736 35.8519 32.0106C35.9644 32.034 36.0654 32.0955 36.1379 32.1846C36.2104 32.2738 36.25 32.3852 36.25 32.5001C36.25 32.615 36.2104 32.7264 36.1379 32.8155C36.0654 32.9047 35.9644 32.9661 35.8519 32.9896C34.2344 33.3263 34.0767 33.4843 33.7394 35.1021C33.7159 35.2144 33.6544 35.3153 33.5653 35.3877C33.4762 35.46 33.3649 35.4995 33.2501 35.4995C33.1353 35.4995 33.024 35.46 32.9348 35.3877C32.8457 35.3153 32.7842 35.2144 32.7607 35.1021Z" fill="#6FF9D8"/>
<path d="M1.67379 13.735C1.44879 12.6564 1.34379 12.5511 0.265463 12.3266C0.190462 12.311 0.123121 12.27 0.074773 12.2106C0.0264248 12.1511 1.95732e-05 12.0769 0 12.0003C-1.95515e-05 11.9237 0.0263471 11.8494 0.0746649 11.7899C0.122983 11.7305 0.190303 11.6895 0.265296 11.6738C1.34363 11.4492 1.44913 11.3438 1.67363 10.2654C1.68924 10.1904 1.73022 10.1231 1.78965 10.0747C1.84908 10.0264 1.92335 10 1.99996 10C2.07656 10 2.15083 10.0264 2.21027 10.0747C2.2697 10.1231 2.31067 10.1904 2.32629 10.2654C2.55096 11.3438 2.65629 11.4492 3.73462 11.6738C3.80962 11.6895 3.87695 11.7304 3.92528 11.7899C3.97361 11.8493 4 11.9236 4 12.0002C4 12.0768 3.97361 12.1511 3.92528 12.2105C3.87695 12.27 3.80962 12.3109 3.73462 12.3266C2.65629 12.5511 2.55112 12.6564 2.32629 13.735C2.3106 13.8099 2.2696 13.8771 2.21019 13.9254C2.15078 13.9737 2.07658 14 2.00004 14C1.92351 14 1.8493 13.9737 1.78989 13.9254C1.73048 13.8771 1.68949 13.8099 1.67379 13.735Z" fill="#C3B7FF"/>
<path d="M21.3708 4.53868L26.5 1.57735L31.6292 4.53868V10.4613L26.5 13.4226L21.3708 10.4613V4.53868Z" stroke="#C3B7FF"/>
</g>
<defs>
<clipPath id="clip0_247_22136">
<rect width="44" height="44" fill="white"/>
</clipPath>
</defs>
</svg>
