<svg width="350" height="248" viewBox="0 0 350 248" fill="none" xmlns="http://www.w3.org/2000/svg">
<g filter="url(#filter0_d_842_8803)">
<path d="M27.0904 196.602L26.4179 197.73L61.2146 218.472C63.4426 219.8 66.2295 219.821 68.4748 218.495L103.114 198.033C105.355 196.709 106.711 194.248 106.701 191.642L106.543 150.439C106.533 147.831 105.157 145.383 102.93 144.043L102.925 144.04L68.1335 123.301C68.1327 123.301 68.1319 123.3 68.1311 123.3C65.886 121.949 63.1072 121.952 60.8684 123.275L26.2294 143.736C23.9881 145.06 22.6317 147.522 22.6418 150.128C22.6418 150.128 22.6418 150.128 22.6418 150.128L22.7996 191.331C22.8097 193.937 24.1942 196.405 26.4178 197.73L27.0904 196.602Z" fill="#FFE2E0" stroke="#FF6961" stroke-width="2.62687"/>
<path d="M77.1491 160.225C77.1491 152.971 71.2686 147.091 64.0148 147.091C56.7609 147.091 50.8804 152.971 50.8804 160.225C50.8804 167.479 56.7609 173.359 64.0148 173.359C71.2686 173.359 77.1491 167.479 77.1491 160.225Z" stroke="#FF6961" stroke-width="1.97015"/>
<path d="M58.761 161.632C58.761 161.632 60.7311 162.476 61.9132 164.165C61.9132 164.165 64.6714 158.536 69.2684 156.285" stroke="#FF6961" stroke-width="1.97015" stroke-linecap="round" stroke-linejoin="round"/>
<path d="M53.9112 181.345V182.811H50.9954V192.299H49.1986V182.811H46.267V181.345H53.9112ZM55.132 187.918C55.132 187.046 55.3106 186.273 55.6678 185.601C56.0356 184.928 56.5294 184.408 57.1494 184.041C57.7798 183.662 58.4733 183.473 59.2299 183.473C59.9128 183.473 60.5065 183.61 61.0109 183.883C61.5257 184.146 61.9355 184.477 62.2403 184.876V183.615H64.0528V192.299H62.2403V191.007C61.9355 191.417 61.5205 191.758 60.9951 192.032C60.4697 192.305 59.8708 192.441 59.1983 192.441C58.4523 192.441 57.7693 192.252 57.1494 191.874C56.5294 191.485 56.0356 190.949 55.6678 190.266C55.3106 189.573 55.132 188.79 55.132 187.918ZM62.2403 187.949C62.2403 187.35 62.1142 186.83 61.862 186.389C61.6203 185.948 61.2998 185.611 60.9005 185.38C60.5013 185.149 60.0705 185.034 59.6081 185.034C59.1458 185.034 58.715 185.149 58.3157 185.38C57.9164 185.601 57.5907 185.932 57.3385 186.373C57.0968 186.804 56.976 187.319 56.976 187.918C56.976 188.517 57.0968 189.042 57.3385 189.494C57.5907 189.946 57.9164 190.293 58.3157 190.534C58.7255 190.765 59.1563 190.881 59.6081 190.881C60.0705 190.881 60.5013 190.765 60.9005 190.534C61.2998 190.303 61.6203 189.967 61.862 189.525C62.1142 189.074 62.2403 188.548 62.2403 187.949ZM69.565 192.441C68.882 192.441 68.2673 192.32 67.721 192.079C67.1851 191.827 66.7595 191.49 66.4443 191.07C66.1291 190.639 65.961 190.161 65.9399 189.636H67.7998C67.8313 190.004 68.0047 190.314 68.3199 190.566C68.6456 190.807 69.0502 190.928 69.5335 190.928C70.0379 190.928 70.4266 190.834 70.6998 190.645C70.9835 190.445 71.1254 190.193 71.1254 189.888C71.1254 189.562 70.9678 189.321 70.6525 189.163C70.3478 189.005 69.8592 188.832 69.1868 188.643C68.5353 188.464 68.0047 188.291 67.5949 188.123C67.1851 187.955 66.8278 187.697 66.5231 187.35C66.2289 187.004 66.0818 186.547 66.0818 185.979C66.0818 185.517 66.2184 185.097 66.4916 184.718C66.7648 184.33 67.1536 184.025 67.6579 183.804C68.1728 183.584 68.7612 183.473 69.4232 183.473C70.4109 183.473 71.2042 183.725 71.8031 184.23C72.4125 184.724 72.7383 185.401 72.7803 186.263H70.9835C70.952 185.874 70.7944 185.564 70.5107 185.333C70.227 185.102 69.8435 184.986 69.3601 184.986C68.8873 184.986 68.5248 185.076 68.2726 185.254C68.0204 185.433 67.8943 185.669 67.8943 185.963C67.8943 186.195 67.9784 186.389 68.1465 186.547C68.3146 186.704 68.5195 186.83 68.7612 186.925C69.0029 187.009 69.3601 187.119 69.833 187.256C70.4634 187.424 70.9783 187.597 71.3776 187.776C71.7873 187.944 72.1393 188.196 72.4336 188.533C72.7278 188.869 72.8801 189.315 72.8906 189.872C72.8906 190.366 72.754 190.807 72.4808 191.196C72.2076 191.585 71.8189 191.89 71.3145 192.11C70.8207 192.331 70.2375 192.441 69.565 192.441ZM78.268 187.965L82.2714 192.299H79.8442L76.6289 188.564V192.299H74.8321V180.636H76.6289V187.413L79.7811 183.615H82.2714L78.268 187.965Z" fill="#FF6961"/>
</g>
<g filter="url(#filter1_d_842_8803)">
<path d="M247.747 196.602L247.075 197.73L281.872 218.472C284.1 219.8 286.886 219.821 289.132 218.495L323.771 198.033C326.012 196.709 327.368 194.248 327.358 191.642L327.2 150.439C327.19 147.831 325.814 145.383 323.587 144.043L323.582 144.04L288.79 123.301C288.79 123.301 288.789 123.3 288.788 123.3C286.543 121.949 283.764 121.952 281.525 123.275L246.886 143.736C244.645 145.06 243.289 147.522 243.299 150.128C243.299 150.128 243.299 150.128 243.299 150.128L243.457 191.331C243.467 193.937 244.851 196.405 247.075 197.73L247.747 196.602Z" fill="#DBD4FF" stroke="#8980B3" stroke-width="2.62687"/>
<path d="M292.552 147.091V151.031M276.791 147.091V151.031" stroke="#8980B3" stroke-width="1.97015" stroke-linecap="round" stroke-linejoin="round"/>
<path d="M294.523 149.061H274.821C273.37 149.061 272.194 150.237 272.194 151.688V170.732C272.194 172.183 273.37 173.359 274.821 173.359H294.523C295.973 173.359 297.149 172.183 297.149 170.732V151.688C297.149 150.237 295.973 149.061 294.523 149.061Z" stroke="#8980B3" stroke-width="1.97015" stroke-linecap="round" stroke-linejoin="round"/>
<path d="M272.194 155.628H297.149" stroke="#8980B3" stroke-width="1.97015" stroke-linecap="round" stroke-linejoin="round"/>
<path d="M284.666 161.538H284.678M284.666 166.792H284.678M289.914 161.538H289.926M279.418 161.538H279.43M279.418 166.792H279.43" stroke="#8980B3" stroke-width="2.62687" stroke-linecap="round" stroke-linejoin="round"/>
<path d="M266.064 182.795V186.011H269.846V187.477H266.064V190.834H270.319V192.299H264.267V181.33H270.319V182.795H266.064ZM275.889 190.692L278.348 183.615H280.255L276.945 192.299H274.802L271.508 183.615H273.431L275.889 190.692ZM289.573 187.744C289.573 188.07 289.552 188.364 289.51 188.627H282.874C282.927 189.321 283.184 189.877 283.647 190.298C284.109 190.718 284.676 190.928 285.349 190.928C286.316 190.928 286.999 190.524 287.398 189.715H289.337C289.074 190.513 288.596 191.17 287.902 191.685C287.219 192.189 286.368 192.441 285.349 192.441C284.519 192.441 283.773 192.257 283.111 191.89C282.459 191.511 281.945 190.986 281.566 190.314C281.198 189.631 281.015 188.843 281.015 187.949C281.015 187.056 281.193 186.273 281.55 185.601C281.918 184.918 282.428 184.393 283.079 184.025C283.741 183.657 284.498 183.473 285.349 183.473C286.169 183.473 286.899 183.652 287.54 184.009C288.181 184.366 288.68 184.871 289.037 185.522C289.394 186.163 289.573 186.904 289.573 187.744ZM287.697 187.177C287.687 186.515 287.45 185.984 286.988 185.585C286.526 185.186 285.953 184.986 285.27 184.986C284.65 184.986 284.12 185.186 283.678 185.585C283.237 185.974 282.974 186.505 282.89 187.177H287.697ZM295.723 183.473C296.406 183.473 297.015 183.615 297.551 183.899C298.097 184.182 298.523 184.603 298.828 185.16C299.132 185.717 299.285 186.389 299.285 187.177V192.299H297.504V187.445C297.504 186.667 297.309 186.074 296.921 185.664C296.532 185.244 296.001 185.034 295.329 185.034C294.656 185.034 294.12 185.244 293.721 185.664C293.332 186.074 293.138 186.667 293.138 187.445V192.299H291.341V183.615H293.138V184.608C293.432 184.251 293.805 183.972 294.257 183.773C294.719 183.573 295.208 183.473 295.723 183.473ZM303.673 185.081V189.888C303.673 190.214 303.746 190.45 303.894 190.597C304.051 190.734 304.314 190.802 304.682 190.802H305.785V192.299H304.366C303.557 192.299 302.937 192.11 302.507 191.732C302.076 191.354 301.86 190.739 301.86 189.888V185.081H300.836V183.615H301.86V181.456H303.673V183.615H305.785V185.081H303.673Z" fill="#8980B3"/>
</g>
<g filter="url(#filter2_d_842_8803)">
<path d="M79.628 91.5262L78.9555 92.6544L113.752 113.396C115.98 114.724 118.767 114.746 121.012 113.419L155.651 92.9576C157.893 91.6336 159.249 89.1724 159.239 86.5662L159.081 45.3631C159.071 42.7549 157.694 40.3074 155.468 38.9668L155.463 38.9637L120.671 18.2254C120.67 18.2249 120.67 18.2244 120.669 18.2239C118.424 16.8732 115.645 16.8765 113.406 18.199L78.767 38.6606C76.5257 39.9846 75.1693 42.4458 75.1794 45.052C75.1794 45.052 75.1794 45.052 75.1794 45.052L75.3372 86.2551C75.3473 88.8608 76.7318 91.3289 78.9554 92.6544L79.628 91.5262Z" fill="#FFF7AE" stroke="#FFA020" stroke-width="2.62687"/>
<path d="M123.12 42.0148V45.2984M116.553 42.0148V45.2984M109.985 42.0148V45.2984" stroke="#FFA020" stroke-width="1.97015" stroke-linecap="round" stroke-linejoin="round"/>
<path d="M125.09 43.985H108.015C106.564 43.985 105.388 45.1611 105.388 46.6118V65.6566C105.388 67.1074 106.564 68.2835 108.015 68.2835H125.09C126.541 68.2835 127.717 67.1074 127.717 65.6566V46.6118C127.717 45.1611 126.541 43.985 125.09 43.985Z" stroke="#FFA020" stroke-width="1.97015" stroke-linejoin="round"/>
<path d="M111.956 60.4029H115.896M111.956 53.8357H121.15" stroke="#FFA020" stroke-width="1.97015" stroke-linecap="round" stroke-linejoin="round"/>
<path d="M108.233 87.2238H106.437L101.031 79.0437V87.2238H99.2337V76.254H101.031L106.437 84.4183V76.254H108.233V87.2238ZM114.36 87.3656C113.54 87.3656 112.799 87.1818 112.137 86.814C111.476 86.4357 110.955 85.9104 110.577 85.2379C110.199 84.5549 110.01 83.7668 110.01 82.8737C110.01 81.9911 110.204 81.2083 110.593 80.5253C110.982 79.8423 111.512 79.3169 112.185 78.9492C112.857 78.5814 113.609 78.3975 114.439 78.3975C115.269 78.3975 116.02 78.5814 116.692 78.9492C117.365 79.3169 117.896 79.8423 118.284 80.5253C118.673 81.2083 118.868 81.9911 118.868 82.8737C118.868 83.7563 118.668 84.5391 118.269 85.2221C117.869 85.9051 117.323 86.4357 116.629 86.814C115.946 87.1818 115.19 87.3656 114.36 87.3656ZM114.36 85.8053C114.822 85.8053 115.253 85.6949 115.652 85.4743C116.062 85.2536 116.393 84.9227 116.645 84.4813C116.897 84.04 117.023 83.5041 117.023 82.8737C117.023 82.2432 116.903 81.7126 116.661 81.2818C116.419 80.8405 116.099 80.5095 115.7 80.2889C115.3 80.0682 114.869 79.9579 114.407 79.9579C113.945 79.9579 113.514 80.0682 113.115 80.2889C112.726 80.5095 112.416 80.8405 112.185 81.2818C111.954 81.7126 111.838 82.2432 111.838 82.8737C111.838 83.8089 112.074 84.5339 112.547 85.0487C113.031 85.5531 113.635 85.8053 114.36 85.8053ZM122.74 80.0052V84.8123C122.74 85.1381 122.814 85.3745 122.961 85.5216C123.118 85.6582 123.381 85.7265 123.749 85.7265H124.852V87.2238H123.433C122.624 87.2238 122.004 87.0347 121.574 86.6564C121.143 86.2781 120.927 85.6634 120.927 84.8123V80.0052H119.903V78.5394H120.927V76.3801H122.74V78.5394H124.852V80.0052H122.74ZM134.467 82.6688C134.467 82.9945 134.446 83.2887 134.404 83.5514H127.769C127.821 84.2449 128.079 84.8018 128.541 85.2221C129.004 85.6424 129.571 85.8526 130.243 85.8526C131.21 85.8526 131.893 85.448 132.292 84.6389H134.231C133.968 85.4375 133.49 86.0942 132.797 86.6091C132.114 87.1135 131.263 87.3656 130.243 87.3656C129.413 87.3656 128.667 87.1818 128.005 86.814C127.354 86.4357 126.839 85.9104 126.461 85.2379C126.093 84.5549 125.909 83.7668 125.909 82.8737C125.909 81.9806 126.088 81.1978 126.445 80.5253C126.813 79.8423 127.322 79.3169 127.974 78.9492C128.636 78.5814 129.392 78.3975 130.243 78.3975C131.063 78.3975 131.793 78.5761 132.434 78.9334C133.075 79.2907 133.574 79.795 133.932 80.4465C134.289 81.0874 134.467 81.8282 134.467 82.6688ZM132.592 82.1014C132.581 81.4394 132.345 80.9088 131.883 80.5095C131.42 80.1102 130.848 79.9106 130.165 79.9106C129.545 79.9106 129.014 80.1102 128.573 80.5095C128.131 80.8983 127.869 81.4289 127.785 82.1014H132.592Z" fill="#FFA020"/>
</g>
<g filter="url(#filter3_d_842_8803)">
<path d="M195.21 91.5262L194.537 92.6544L229.334 113.396C231.562 114.724 234.349 114.746 236.594 113.419L271.233 92.9576C273.475 91.6336 274.831 89.1724 274.821 86.5662L274.663 45.3631C274.653 42.7549 273.276 40.3074 271.05 38.9668L271.045 38.9637L236.253 18.2254C236.252 18.2249 236.252 18.2244 236.251 18.2239C234.006 16.8732 231.227 16.8765 228.988 18.199L194.349 38.6606C192.108 39.9846 190.751 42.4458 190.761 45.052C190.761 45.052 190.761 45.052 190.761 45.052L190.919 86.2551C190.929 88.8608 192.314 91.3289 194.537 92.6544L195.21 91.5262Z" fill="#C2F1CB" stroke="#6CC47C" stroke-width="2.62687"/>
<path d="M243.299 65.6566V44.6417C243.299 43.1909 242.123 42.0148 240.672 42.0148H223.597C222.147 42.0148 220.971 43.1909 220.971 44.6417L220.97 65.6566C220.97 67.1074 222.146 68.2835 223.597 68.2835H240.672C242.123 68.2835 243.299 67.1074 243.299 65.6566Z" stroke="#6CC47C" stroke-width="1.97015" stroke-linecap="round" stroke-linejoin="round"/>
<path d="M226.881 48.582H237.388M226.881 55.1492H237.388M226.881 61.7163H232.134" stroke="#6CC47C" stroke-width="1.97015" stroke-linecap="round" stroke-linejoin="round"/>
<path d="M221.556 76.2698C222.723 76.2698 223.742 76.4957 224.614 76.9475C225.497 77.3888 226.174 78.0298 226.647 78.8704C227.131 79.7004 227.372 80.6724 227.372 81.7862C227.372 82.9 227.131 83.8667 226.647 84.6862C226.174 85.5058 225.497 86.1363 224.614 86.5776C223.742 87.0084 222.723 87.2238 221.556 87.2238H217.979V76.2698H221.556ZM221.556 85.758C222.838 85.758 223.821 85.4112 224.504 84.7178C225.187 84.0243 225.528 83.0471 225.528 81.7862C225.528 80.5148 225.187 79.5218 224.504 78.8073C223.821 78.0928 222.838 77.7355 221.556 77.7355H219.775V85.758H221.556ZM232.92 87.3656C232.1 87.3656 231.36 87.1818 230.698 86.814C230.036 86.4357 229.516 85.9104 229.137 85.2379C228.759 84.5549 228.57 83.7668 228.57 82.8737C228.57 81.9911 228.764 81.2083 229.153 80.5253C229.542 79.8423 230.073 79.3169 230.745 78.9492C231.417 78.5814 232.169 78.3975 232.999 78.3975C233.829 78.3975 234.58 78.5814 235.253 78.9492C235.925 79.3169 236.456 79.8423 236.845 80.5253C237.233 81.2083 237.428 81.9911 237.428 82.8737C237.428 83.7563 237.228 84.5391 236.829 85.2221C236.43 85.9051 235.883 86.4357 235.19 86.814C234.507 87.1818 233.75 87.3656 232.92 87.3656ZM232.92 85.8053C233.382 85.8053 233.813 85.6949 234.212 85.4743C234.622 85.2536 234.953 84.9227 235.205 84.4813C235.458 84.04 235.584 83.5041 235.584 82.8737C235.584 82.2432 235.463 81.7126 235.221 81.2818C234.979 80.8405 234.659 80.5095 234.26 80.2889C233.86 80.0682 233.43 79.9579 232.967 79.9579C232.505 79.9579 232.074 80.0682 231.675 80.2889C231.286 80.5095 230.976 80.8405 230.745 81.2818C230.514 81.7126 230.398 82.2432 230.398 82.8737C230.398 83.8089 230.635 84.5339 231.107 85.0487C231.591 85.5531 232.195 85.8053 232.92 85.8053ZM238.605 82.8737C238.605 81.9806 238.784 81.1978 239.141 80.5253C239.509 79.8423 240.013 79.3169 240.654 78.9492C241.295 78.5814 242.03 78.3975 242.861 78.3975C243.911 78.3975 244.778 78.6497 245.461 79.1541C246.155 79.6479 246.622 80.3572 246.864 81.2818H244.925C244.768 80.851 244.515 80.5148 244.169 80.2731C243.822 80.0314 243.386 79.9106 242.861 79.9106C242.125 79.9106 241.537 80.1733 241.095 80.6987C240.664 81.2135 240.449 81.9385 240.449 82.8737C240.449 83.8089 240.664 84.5391 241.095 85.0645C241.537 85.5899 242.125 85.8526 242.861 85.8526C243.901 85.8526 244.589 85.3955 244.925 84.4813H246.864C246.612 85.364 246.139 86.068 245.445 86.5933C244.752 87.1082 243.89 87.3656 242.861 87.3656C242.03 87.3656 241.295 87.1818 240.654 86.814C240.013 86.4357 239.509 85.9104 239.141 85.2379C238.784 84.5549 238.605 83.7668 238.605 82.8737Z" fill="#6CC47C"/>
</g>
<path d="M174.079 216.172L174.079 216.172L143.291 197.735C143.291 197.735 143.291 197.735 143.291 197.735C142.605 197.325 142.12 196.5 142.116 195.61C142.116 195.61 142.116 195.61 142.116 195.609L141.976 158.985L141.976 158.985C141.973 158.095 142.44 157.304 143.11 156.906L173.758 138.718C174.43 138.319 175.246 138.322 175.91 138.723L175.91 138.724L175.921 138.73L206.698 157.16C206.699 157.161 206.701 157.162 206.702 157.163C207.409 157.593 207.88 158.41 207.884 159.293L208.023 195.918C208.027 196.807 207.56 197.599 206.89 197.996L176.242 216.184C175.583 216.575 174.752 216.576 174.079 216.172Z" fill="url(#paint0_linear_842_8803)" stroke="white" stroke-width="6.00426"/>
<path d="M175 165.189V189.707M187.259 177.448H162.741" stroke="#000E50" stroke-width="2.62687" stroke-linecap="round" stroke-linejoin="round"/>
<path fill-rule="evenodd" clip-rule="evenodd" d="M46.3349 44.0047C45.975 44.0763 45.7412 44.4261 45.8128 44.7861L46.1229 46.3451C46.1945 46.7051 46.5443 46.9389 46.9043 46.8673C47.2643 46.7957 47.498 46.4458 47.4264 46.0859L47.1163 44.5268C47.0447 44.1669 46.6949 43.9331 46.3349 44.0047Z" fill="#E0F2F2"/>
<path d="M29.4981 49.4008C29.4967 48.8963 29.4654 48.3918 29.4118 47.8901C29.3976 47.7564 29.3815 47.6227 29.3644 47.489C29.362 47.4691 29.3521 47.396 29.3653 47.4932C29.3606 47.4591 29.3559 47.425 29.3511 47.3908C29.3402 47.315 29.3293 47.2396 29.3179 47.1642C29.2748 46.8816 29.2259 46.5999 29.1724 46.3192C28.9377 45.0921 28.6129 43.8825 28.2378 42.6909C27.3696 39.9346 26.2634 37.3343 24.9831 34.753C23.656 32.0764 22.1605 29.4775 20.4838 27.0043C19.0168 24.8397 17.4591 22.8009 15.5672 20.9616C15.1718 20.577 14.7631 20.2058 14.3377 19.8549C14.2424 19.7767 14.1467 19.6994 14.0499 19.623C14.0248 19.6031 13.9997 19.5837 13.9745 19.5642C14.0509 19.6235 13.9963 19.5808 13.9802 19.569C13.9205 19.5235 13.8607 19.4784 13.8 19.4334C13.6061 19.2897 13.4084 19.1512 13.2059 19.0194C12.8413 18.7809 12.462 18.5633 12.0665 18.3803C12.0243 18.3608 11.9821 18.3423 11.9399 18.3234C11.8157 18.2669 12.0101 18.349 11.8854 18.3001C11.7934 18.2641 11.7019 18.228 11.6089 18.1953C11.4316 18.1332 11.2509 18.0796 11.0679 18.0374C10.9802 18.017 10.8925 17.9995 10.8038 17.9848C10.764 17.9782 10.608 17.963 10.7735 17.9786C10.7303 17.9744 10.6876 17.9687 10.6445 17.9644C10.4766 17.9492 10.3078 17.9454 10.14 17.9549C10.0987 17.9573 10.058 17.9606 10.0167 17.9644C9.97546 17.9682 9.83083 17.9976 9.99679 17.9654C9.91713 17.981 9.837 17.9924 9.75781 18.0109C9.6829 18.0284 9.60893 18.0488 9.53543 18.0725C9.50082 18.0839 9.46621 18.0953 9.43207 18.1081C9.39319 18.1223 9.24098 18.1968 9.38655 18.1237C8.71751 18.4585 8.14946 18.8648 7.69901 19.4428C7.24381 20.027 6.92328 20.7013 6.69046 21.3812C6.24807 22.6733 6.08449 23.917 6.02285 25.2518C5.97543 26.2836 6.08022 27.4282 6.21298 28.3751C6.74167 32.1494 8.01148 35.8313 9.85597 39.1618C10.3448 40.0442 10.8583 40.9356 11.4586 41.7474C11.4956 41.7976 11.3904 41.6639 11.4762 41.7687C11.5037 41.8024 11.5307 41.8365 11.5587 41.8697C11.6298 41.9555 11.7028 42.0394 11.7768 42.1229C11.9409 42.3073 12.1106 42.487 12.2827 42.6639C13.1936 43.5985 14.1727 44.4676 15.168 45.3107C16.3003 46.2699 17.4264 47.1637 18.6237 48.0233C19.5749 48.7066 20.5568 49.3904 21.619 49.892C21.6688 49.9152 21.7185 49.9375 21.7688 49.9608C21.8954 50.0186 21.7015 49.9371 21.8267 49.9854C21.9058 50.0158 21.9845 50.0471 22.0652 50.0741C22.1458 50.1011 22.2226 50.1239 22.3032 50.1419C22.3383 50.15 22.3772 50.1523 22.4108 50.1632C22.4687 50.1817 22.2724 50.1504 22.4037 50.1604C22.2515 50.3605 22.0988 50.5606 21.9466 50.7607C21.4672 48.5293 19.7328 46.8507 17.976 45.5236C16.8617 44.6819 15.6749 43.9323 14.4738 43.2215C12.965 42.3292 11.4117 41.5036 9.80807 40.7933C8.39555 40.1675 6.86733 39.5947 5.30828 39.3495C5.27936 39.3448 5.24996 39.341 5.22104 39.3367C5.32914 39.3519 5.1869 39.3325 5.17457 39.3315C5.09017 39.322 5.00624 39.313 4.92184 39.3059C4.76727 39.2931 4.61221 39.285 4.45764 39.2836C4.31823 39.2822 4.1793 39.286 4.04037 39.2969C3.97399 39.3021 3.90808 39.3088 3.84217 39.3168C3.97494 39.3007 3.76773 39.3306 3.72695 39.3386C3.60746 39.3623 3.4894 39.3922 3.3737 39.4311C3.33862 39.4429 3.148 39.5221 3.27982 39.4629C3.22339 39.4885 3.16792 39.5145 3.11339 39.5439C3.05886 39.5733 3.00955 39.6056 2.95787 39.6378C2.9408 39.6482 2.92514 39.6611 2.90855 39.672C2.82035 39.7303 2.98916 39.6013 2.9095 39.6705C2.81372 39.7535 2.72647 39.8393 2.64492 39.9361C2.62026 39.965 2.59655 39.9949 2.57285 40.0243C2.63638 39.9446 2.58233 40.0119 2.56715 40.0328C2.52827 40.0887 2.48844 40.1433 2.45146 40.2006C2.37227 40.3225 2.30068 40.4496 2.23761 40.5804C2.22434 40.608 2.15132 40.7791 2.19778 40.6639C2.17123 40.7303 2.14563 40.7971 2.12287 40.8645C2.07687 40.9996 2.03942 41.1381 2.01002 41.2775C1.99769 41.3363 1.98773 41.3951 1.9773 41.4539C1.97303 41.4771 1.95881 41.5994 1.97398 41.4709C1.96971 41.507 1.96544 41.543 1.96212 41.579C1.94885 41.7194 1.94268 41.8602 1.94316 42.001C1.94316 42.1329 1.94979 42.2647 1.9607 42.3955C1.96734 42.4719 1.9754 42.5487 1.98536 42.6246C1.97018 42.5089 2.0029 42.7265 2.01049 42.7687C2.25326 44.1224 2.87109 45.2576 3.66579 46.4117C4.5207 47.6535 5.60085 48.8242 6.76207 49.8664C7.89247 50.8806 9.08024 51.7631 10.4344 52.5075C10.7398 52.6753 11.0504 52.8328 11.3671 52.9774C11.4463 53.0134 11.526 53.0485 11.6061 53.0831C11.6213 53.0898 11.6905 53.1182 11.6113 53.0855C11.6507 53.1016 11.69 53.1177 11.7294 53.1338C11.883 53.1955 12.0381 53.2543 12.1941 53.3083C12.4743 53.4055 12.7593 53.489 13.049 53.5535C13.1779 53.5819 13.3074 53.6052 13.4378 53.627C13.5781 53.6502 13.3771 53.6237 13.5174 53.6374C13.5957 53.645 13.6734 53.6531 13.7517 53.6578C13.9821 53.672 14.2126 53.6673 14.4416 53.6388C14.6962 53.6071 14.9157 53.8797 14.9157 54.113C14.9157 54.3956 14.6967 54.5554 14.4416 54.5872C13.2277 54.7389 11.9745 54.2918 10.8882 53.7963C9.45815 53.1443 8.14567 52.2443 6.92992 51.2547C5.65869 50.2201 4.48941 49.0509 3.48324 47.7554C2.55104 46.5553 1.72031 45.2334 1.27649 43.7687C0.905224 42.5439 0.856853 41.2006 1.44955 40.0371C1.71177 39.5221 2.09726 39.0266 2.60699 38.7398C3.12524 38.4477 3.73169 38.3457 4.32013 38.3358C5.85215 38.3106 7.39554 38.817 8.80807 39.3609C10.5316 40.0243 12.1936 40.8465 13.8053 41.745C15.1922 42.5179 16.553 43.3481 17.8499 44.2647C19.5791 45.4871 21.3169 46.9432 22.2776 48.8721C22.5365 49.3922 22.7375 49.9404 22.8598 50.5089C22.9196 50.7872 22.7276 51.1343 22.4028 51.1092C21.977 51.076 21.5839 50.9167 21.1998 50.7398C20.7095 50.5136 20.242 50.2386 19.7849 49.9522C18.5682 49.1907 17.4146 48.3278 16.2865 47.442C15.1248 46.5297 13.9916 45.5781 12.9034 44.5795C12.0992 43.8417 11.2794 43.0831 10.6241 42.2059C9.99964 41.3699 9.47379 40.4382 8.97308 39.5245C8.41736 38.5112 7.91996 37.4685 7.47235 36.4036C6.70895 34.588 6.10535 32.7042 5.68524 30.78C5.37846 29.3756 5.15845 27.9426 5.08495 26.5059C5.02853 25.4011 5.11008 24.2973 5.27936 23.2048C5.51644 21.6709 5.98965 20.1133 6.95173 18.872C7.69901 17.908 8.78009 17.138 10.0167 17.0175C11.7834 16.8454 13.4828 17.9677 14.7967 19.0142C16.755 20.5742 18.3895 22.533 19.8826 24.5296C21.6835 26.9379 23.2743 29.5045 24.702 32.1499C26.1486 34.8298 27.4336 37.606 28.4801 40.4671C29.3587 42.8687 30.0941 45.3609 30.3635 47.9119C30.4156 48.4074 30.4464 48.9048 30.4479 49.4027C30.4493 50.0129 29.501 50.0139 29.4995 49.4027L29.4981 49.4008Z" fill="#E0F2F2"/>
<path d="M37.6466 44.6565C37.5925 45.921 37.6167 47.2008 38.0785 48.3905C38.0866 48.4118 38.1411 48.5431 38.1079 48.4659C38.1283 48.5133 38.1497 48.5602 38.171 48.6072C38.2194 48.711 38.271 48.8134 38.3251 48.9144C38.4237 49.097 38.5318 49.2743 38.6461 49.4478C38.8803 49.8035 39.1383 50.142 39.3867 50.4877C41.0425 52.7945 41.7969 55.6186 41.5205 58.4488C41.2867 60.8424 40.4593 63.1629 39.0619 65.1217C37.9681 66.6547 36.6205 67.988 35.1544 69.1639C33.5403 70.4588 31.7954 71.5817 29.9775 72.5679C28.0884 73.5926 26.1207 74.4736 24.1097 75.2313C22.2083 75.9473 20.2619 76.5499 18.2837 77.0136C16.5274 77.4252 14.737 77.7339 12.9361 77.8548C11.5397 77.9487 10.0968 77.9397 8.72888 77.6116C7.74547 77.3754 6.72555 76.925 6.15988 76.044C5.73313 75.3797 5.57097 74.5087 5.48467 73.7377C5.3723 72.7358 5.47519 71.7135 5.69141 70.732C6.19639 68.4403 7.33865 66.2986 8.63832 64.3645C10.149 62.1165 11.9451 60.0591 13.8892 58.1771C15.8214 56.3071 17.9186 54.5901 20.1638 53.1084C21.2117 52.4166 22.2946 51.7584 23.4412 51.243C24.7944 50.6347 26.2141 50.188 27.6641 49.877C30.3815 49.2942 33.2459 49.1041 36.0003 49.537C37.1534 49.7181 38.254 50.0647 39.309 50.564C39.7367 50.7665 40.1539 50.9903 40.5816 51.1923C40.8268 51.308 40.9249 51.3511 41.1492 51.4351C41.3877 51.5242 41.631 51.6001 41.878 51.6603C42.4569 51.8021 43.0117 51.848 43.6196 51.8485C44.3029 51.849 44.9525 51.8234 45.5821 51.6627C46.6002 51.4033 47.485 50.8333 48.1981 50.0496C49.668 48.4336 50.154 46.0348 49.2868 43.9808C48.7837 42.7892 47.8491 41.6631 46.7035 41.0481C45.4072 40.352 43.7495 40.1989 42.3123 40.4326C40.8941 40.6631 39.5669 41.2866 38.493 42.2425C38.2592 42.4507 37.7523 42.4146 37.7006 42.0334C37.5802 41.1519 37.6603 40.2325 37.8528 39.3681C38.2502 37.5858 39.3052 36.0234 40.8619 35.0533C42.143 34.2548 43.6404 33.9006 45.1288 33.7621C45.3839 33.7384 45.603 33.9973 45.603 34.2363C45.603 34.5127 45.3849 34.6868 45.1288 34.7105C43.9046 34.8247 42.6751 35.1211 41.6333 35.7C41.4114 35.8233 41.1961 35.9589 40.9899 36.1069C40.8272 36.224 40.6926 36.3321 40.5001 36.5099C40.3355 36.6616 40.1795 36.8228 40.0335 36.9921C40.0027 37.0282 39.9719 37.0642 39.942 37.1012C39.9282 37.1182 39.8396 37.2297 39.8666 37.1946C39.8936 37.1595 39.8234 37.2529 39.8083 37.2738C39.7737 37.3212 39.7395 37.3696 39.7063 37.4179C39.4802 37.7479 39.2914 38.0998 39.1293 38.4649C39.1018 38.527 39.161 38.3876 39.1354 38.4502C39.1264 38.472 39.1174 38.4938 39.1084 38.5156C39.0932 38.554 39.0781 38.5919 39.0634 38.6303C39.0283 38.7219 38.9956 38.8143 38.9647 38.9073C38.9088 39.0756 38.859 39.2458 38.8159 39.4179C38.776 39.5749 38.7419 39.7332 38.7125 39.8926C38.6983 39.9708 38.685 40.049 38.6727 40.1273C38.667 40.1652 38.6618 40.2036 38.6561 40.2415C38.6712 40.141 38.6618 40.1946 38.6546 40.2553C38.6238 40.5189 38.6039 40.783 38.5982 41.0486C38.5939 41.2553 38.5968 41.463 38.6105 41.6692C38.6153 41.737 38.6546 42.068 38.6153 41.7811C38.3512 41.7114 38.0871 41.6417 37.823 41.572C38.9657 40.555 40.363 39.8342 41.8709 39.5516C43.4057 39.2638 45.1113 39.3454 46.5656 39.9442C49.0715 40.9746 50.7903 43.7152 50.6633 46.4194C50.5561 48.701 49.2503 50.8997 47.2412 52.0126C46.0995 52.6451 44.8377 52.8054 43.5475 52.7954C42.383 52.7864 41.2848 52.5517 40.2274 52.0681C39.29 51.6389 38.4503 51.1562 37.4868 50.8514C36.3516 50.492 35.1975 50.3402 34.0173 50.2814C31.1899 50.1411 28.3046 50.5251 25.6157 51.4099C23.1391 52.225 20.9215 53.6418 18.8423 55.1909C16.6796 56.8016 14.6673 58.6276 12.838 60.6082C11.0869 62.5043 9.4847 64.5646 8.2405 66.832C7.69047 67.8344 7.23433 68.8301 6.89246 69.914C6.73314 70.4204 6.60227 70.9358 6.51123 71.4588C6.46381 71.7296 6.44864 71.8415 6.42257 72.1217C6.40075 72.3621 6.38795 72.6035 6.38653 72.8453C6.38511 73.0871 6.39364 73.3166 6.41356 73.5513C6.43679 73.8202 6.44485 73.8832 6.49843 74.1568C6.54205 74.3811 6.59753 74.6025 6.66486 74.8206C6.69852 74.9292 6.73504 75.0373 6.77439 75.144C6.79289 75.1938 6.8128 75.2431 6.83177 75.2929C6.88535 75.4314 6.79763 75.2332 6.83698 75.3062C6.88393 75.3925 6.92423 75.4807 6.97733 75.5641C7.00389 75.6054 7.03566 75.6438 7.06173 75.6855C7.09777 75.7438 6.97686 75.5907 7.04229 75.6599C7.06031 75.6794 7.07644 75.7012 7.09398 75.7211C7.16321 75.8007 7.23812 75.8752 7.31731 75.9449C7.35429 75.9771 7.39365 76.0065 7.43016 76.0392C7.31684 75.9382 7.43917 76.0449 7.49038 76.08C7.68146 76.2118 7.88583 76.3162 8.09541 76.4143C8.18502 76.4565 8.06553 76.4029 8.08403 76.41C8.11105 76.4205 8.13808 76.4323 8.16511 76.4428C8.22817 76.4679 8.29218 76.4911 8.35619 76.5139C8.48185 76.558 8.60892 76.5973 8.73742 76.6329C9.01575 76.7102 9.29836 76.7695 9.58332 76.8159C9.65397 76.8273 9.7251 76.8372 9.79622 76.8482C9.86735 76.8591 9.69428 76.8358 9.82562 76.852C9.86782 76.8572 9.90955 76.8624 9.95175 76.8671C10.1144 76.8856 10.2775 76.9008 10.4406 76.9131C11.1656 76.9667 11.8944 76.9624 12.6203 76.9235C13.0305 76.9017 13.4402 76.8685 13.8484 76.8263C14.0585 76.8045 14.2685 76.7804 14.4781 76.7538C14.5279 76.7476 14.5777 76.741 14.627 76.7344C14.645 76.732 14.7204 76.722 14.6293 76.7344C14.6507 76.7315 14.6725 76.7287 14.6938 76.7254C14.8091 76.7092 14.9248 76.6926 15.04 76.6756C16.9324 76.393 18.8006 75.9501 20.6327 75.4029C22.6114 74.8121 24.5839 74.0829 26.4236 73.2616C28.3421 72.4048 30.2079 71.4223 31.9747 70.2844C33.6356 69.2146 35.1226 68.0795 36.52 66.6632C36.84 66.3384 37.1497 66.0032 37.446 65.6565C37.5906 65.4873 37.7319 65.3152 37.8699 65.1407C37.886 65.1203 37.9605 65.0245 37.941 65.0496C37.924 65.0719 37.9922 64.9818 38.0103 64.9581C38.08 64.8652 38.1492 64.7718 38.217 64.6769C38.7082 63.9927 39.1426 63.2663 39.4915 62.4991C39.5115 62.4555 39.5309 62.4119 39.5499 62.3682C39.5617 62.3407 39.6096 62.2293 39.5745 62.3128C39.6167 62.2132 39.6565 62.1127 39.6954 62.0112C39.8547 61.5963 39.996 61.1743 40.1189 60.7476C40.354 59.9287 40.5214 59.089 40.5902 58.2393C40.7187 56.6447 40.5205 55.0491 39.9695 53.5455C39.5954 52.5237 39.0406 51.6133 38.4024 50.7376C37.8761 50.0154 37.3853 49.2956 37.0904 48.444C36.6736 47.2387 36.6428 45.9163 36.6968 44.6555C36.7229 44.0476 37.6712 44.0443 37.6452 44.6555L37.6466 44.6565Z" fill="#E0F2F2"/>
<path d="M4.48799 80.9151L5.58852 80.9999C5.73883 79.7368 6.23101 78.521 7.06458 77.3513C7.89863 76.182 8.95269 75.1298 10.2258 74.1962C12.297 72.677 14.3121 71.7197 16.2719 71.3237C17.4269 72.4854 18.4554 73.3019 19.3563 73.7761C20.2562 74.2502 20.9442 74.3138 21.4184 73.9658C21.8679 73.6362 22.077 73.2218 22.0462 72.7239C22.0144 72.2261 21.811 71.7803 21.434 71.3873C20.3871 70.2953 18.819 69.9022 16.7308 70.2061C14.3809 67.5783 14.0921 65.6139 15.865 64.3137C16.5635 63.8017 17.3852 63.4498 18.3297 63.2592C19.2733 63.0695 20.2591 63.0435 21.2856 63.1833C22.2055 64.8519 23.3767 66.4285 24.8006 67.914C25.554 68.7002 26.3677 69.3498 27.2416 69.8619C28.1145 70.374 28.8514 70.4105 29.4507 69.9714C30.0993 69.4958 30.2847 68.8021 30.0064 67.8903C29.7276 66.979 29.1586 66.0757 28.3009 65.18C27.6513 64.5025 26.7693 63.9041 25.6541 63.383C24.5379 62.8619 23.3539 62.5029 22.1021 62.3052C21.1263 60.2682 21.1135 58.9021 22.0623 58.2066C23.0362 57.4925 24.2174 57.2397 25.6071 57.4474C27.1799 59.7528 29.0021 61.9866 31.0752 64.1492C32.4773 65.612 33.6684 66.6547 34.6466 67.2758C35.6248 67.8974 36.3763 68.016 36.9002 67.6314C37.4489 67.2289 37.3749 66.3631 36.6755 65.0345C35.9756 63.7068 34.904 62.2891 33.4597 60.7822C32.538 59.8206 31.4351 58.9467 30.1496 58.1601C28.8637 57.3739 27.5887 56.8305 26.3241 56.5309C25.4763 55.2919 23.3686 52.8424 24.693 51.7689C25.673 50.9742 27.8931 51.4412 28.9922 51.9002C30.0903 52.3587 31.3227 53.1008 32.6887 54.1264C34.0548 55.1515 35.344 56.2976 36.5589 57.565C38.3588 59.4427 39.6471 60.9529 40.4233 62.0947C41.1985 63.2365 42.07 64.7557 43.0364 66.6499L44.1236 66.1876C43.1781 64.3142 42.2967 62.785 41.4792 61.5992C40.6618 60.4138 39.3208 58.8486 37.4583 56.905C36.1392 55.529 34.7139 54.2871 33.1833 53.1776C31.6522 52.069 30.2335 51.2867 28.9267 50.8319C27.619 50.3772 24.9756 50.1306 23.8727 51.2397C22.9755 52.142 23.0723 53.4479 24.8855 56.3583C23.5251 56.3137 22.3331 56.6674 21.3098 57.418C20.0372 58.3516 19.8674 59.9273 20.8015 62.1426C18.4563 62.0027 16.5601 62.464 15.113 63.5257C13.8897 64.4228 13.3676 65.4745 13.5483 66.6822C13.727 67.8899 14.3762 69.1431 15.4947 70.4427C14.4734 70.7078 13.433 71.1085 12.3738 71.6438C11.3135 72.1786 10.3477 72.7671 9.47427 73.4077C8.10063 74.4148 6.96216 75.5656 6.05746 76.8619C5.15324 78.1569 4.63024 79.5077 4.48941 80.9132L4.48799 80.9151ZM27.2292 57.8751C29.1501 58.5484 30.9272 59.7376 32.5602 61.4413C33.7115 62.6418 34.6461 63.8064 35.3668 64.9339C36.0856 66.061 36.346 66.6988 36.1463 66.8448C35.9718 66.9728 35.5095 66.7348 34.7608 66.1312C34.0117 65.5271 33.0828 64.6466 31.9732 63.4892C30.4028 61.851 28.821 59.9799 27.2292 57.8751ZM22.7508 63.447C23.6977 63.6817 24.5849 64.0079 25.4108 64.4256C26.2354 64.8434 26.8997 65.3142 27.4023 65.8386C28.1136 66.5807 28.5882 67.2649 28.8272 67.8903C29.0647 68.5153 29.0211 68.9472 28.6973 69.1848C28.472 69.3498 28.0472 69.2057 27.4222 68.7528C26.7963 68.3 26.2221 67.8002 25.6991 67.2545C24.5474 66.0534 23.564 64.7841 22.7508 63.447ZM17.6104 71.1227C18.9115 71.061 19.8869 71.3683 20.536 72.0454C20.9964 72.5257 21.0395 72.9036 20.665 73.1782C20.5151 73.2882 20.1633 73.1649 19.6095 72.8088C19.0547 72.4527 18.3885 71.8908 17.6104 71.1227Z" fill="url(#paint1_linear_842_8803)"/>
<defs>
<filter id="filter0_d_842_8803" x="0.313322" y="105.21" width="128.716" height="141.851" filterUnits="userSpaceOnUse" color-interpolation-filters="sRGB">
<feFlood flood-opacity="0" result="BackgroundImageFix"/>
<feColorMatrix in="SourceAlpha" type="matrix" values="0 0 0 0 0 0 0 0 0 0 0 0 0 0 0 0 0 0 127 0" result="hardAlpha"/>
<feOffset dy="5.25373"/>
<feGaussianBlur stdDeviation="10.5075"/>
<feComposite in2="hardAlpha" operator="out"/>
<feColorMatrix type="matrix" values="0 0 0 0 0.204292 0 0 0 0 0.243045 0 0 0 0 0.278816 0 0 0 0.25 0"/>
<feBlend mode="normal" in2="BackgroundImageFix" result="effect1_dropShadow_842_8803"/>
<feBlend mode="normal" in="SourceGraphic" in2="effect1_dropShadow_842_8803" result="shape"/>
</filter>
<filter id="filter1_d_842_8803" x="220.97" y="105.21" width="128.716" height="141.851" filterUnits="userSpaceOnUse" color-interpolation-filters="sRGB">
<feFlood flood-opacity="0" result="BackgroundImageFix"/>
<feColorMatrix in="SourceAlpha" type="matrix" values="0 0 0 0 0 0 0 0 0 0 0 0 0 0 0 0 0 0 127 0" result="hardAlpha"/>
<feOffset dy="5.25373"/>
<feGaussianBlur stdDeviation="10.5075"/>
<feComposite in2="hardAlpha" operator="out"/>
<feColorMatrix type="matrix" values="0 0 0 0 0.204292 0 0 0 0 0.243045 0 0 0 0 0.278816 0 0 0 0.25 0"/>
<feBlend mode="normal" in2="BackgroundImageFix" result="effect1_dropShadow_842_8803"/>
<feBlend mode="normal" in="SourceGraphic" in2="effect1_dropShadow_842_8803" result="shape"/>
</filter>
<filter id="filter2_d_842_8803" x="52.8509" y="0.134333" width="128.716" height="141.851" filterUnits="userSpaceOnUse" color-interpolation-filters="sRGB">
<feFlood flood-opacity="0" result="BackgroundImageFix"/>
<feColorMatrix in="SourceAlpha" type="matrix" values="0 0 0 0 0 0 0 0 0 0 0 0 0 0 0 0 0 0 127 0" result="hardAlpha"/>
<feOffset dy="5.25373"/>
<feGaussianBlur stdDeviation="10.5075"/>
<feComposite in2="hardAlpha" operator="out"/>
<feColorMatrix type="matrix" values="0 0 0 0 0.204292 0 0 0 0 0.243045 0 0 0 0 0.278816 0 0 0 0.25 0"/>
<feBlend mode="normal" in2="BackgroundImageFix" result="effect1_dropShadow_842_8803"/>
<feBlend mode="normal" in="SourceGraphic" in2="effect1_dropShadow_842_8803" result="shape"/>
</filter>
<filter id="filter3_d_842_8803" x="168.433" y="0.134333" width="128.716" height="141.851" filterUnits="userSpaceOnUse" color-interpolation-filters="sRGB">
<feFlood flood-opacity="0" result="BackgroundImageFix"/>
<feColorMatrix in="SourceAlpha" type="matrix" values="0 0 0 0 0 0 0 0 0 0 0 0 0 0 0 0 0 0 127 0" result="hardAlpha"/>
<feOffset dy="5.25373"/>
<feGaussianBlur stdDeviation="10.5075"/>
<feComposite in2="hardAlpha" operator="out"/>
<feColorMatrix type="matrix" values="0 0 0 0 0.204292 0 0 0 0 0.243045 0 0 0 0 0.278816 0 0 0 0.25 0"/>
<feBlend mode="normal" in2="BackgroundImageFix" result="effect1_dropShadow_842_8803"/>
<feBlend mode="normal" in="SourceGraphic" in2="effect1_dropShadow_842_8803" result="shape"/>
</filter>
<linearGradient id="paint0_linear_842_8803" x1="211.026" y1="135.419" x2="121.426" y2="163.514" gradientUnits="userSpaceOnUse">
<stop stop-color="#C3B7FF"/>
<stop offset="1" stop-color="#6FF9D8"/>
</linearGradient>
<linearGradient id="paint1_linear_842_8803" x1="43.9048" y1="63.4758" x2="3.34989" y2="66.7317" gradientUnits="userSpaceOnUse">
<stop stop-color="#6FF6D8"/>
<stop offset="1" stop-color="#C3B7FD"/>
</linearGradient>
</defs>
</svg>
