<svg width="20" height="21" viewBox="0 0 20 21" fill="none" xmlns="http://www.w3.org/2000/svg">
<path d="M7.24999 15.0306C7.40277 15.0306 7.53471 14.9716 7.64582 14.8535C7.75693 14.7355 7.81249 14.6 7.81249 14.4473V10.8639H9.99999L10.6667 12.1764C10.7222 12.2875 10.8021 12.3743 10.9062 12.4368C11.0104 12.4993 11.118 12.5306 11.2292 12.5306H14.375C14.5555 12.5306 14.7049 12.4716 14.8229 12.3535C14.941 12.2355 15 12.0862 15 11.9056V8.1556C15 7.97504 14.941 7.82574 14.8229 7.70768C14.7049 7.58963 14.5555 7.5306 14.375 7.5306H12.5L11.8333 6.2181C11.7778 6.10699 11.6979 6.02018 11.5937 5.95768C11.4896 5.89518 11.3819 5.86393 11.2708 5.86393H7.29166C7.1111 5.86393 6.9618 5.92296 6.84374 6.04102C6.72568 6.15907 6.66666 6.30838 6.66666 6.48893V14.4681C6.66666 14.6209 6.72568 14.7528 6.84374 14.8639C6.9618 14.975 7.09721 15.0306 7.24999 15.0306ZM11.6042 11.3848L10.7708 9.7181H7.81249V7.00977H10.8958L11.7292 8.67643H13.8542V11.3848H11.6042ZM9.99999 18.3639C8.81943 18.3639 7.72221 18.1521 6.70832 17.7285C5.69443 17.3049 4.81249 16.7181 4.06249 15.9681C3.31249 15.2181 2.72568 14.3362 2.30207 13.3223C1.87846 12.3084 1.66666 11.2112 1.66666 10.0306C1.66666 8.86393 1.87846 7.77365 2.30207 6.75977C2.72568 5.74588 3.31249 4.86393 4.06249 4.11393C4.81249 3.36393 5.69443 2.77365 6.70832 2.3431C7.72221 1.91254 8.81943 1.69727 9.99999 1.69727C11.1667 1.69727 12.2569 1.91254 13.2708 2.3431C14.2847 2.77365 15.1667 3.36393 15.9167 4.11393C16.6667 4.86393 17.2569 5.74588 17.6875 6.75977C18.118 7.77365 18.3333 8.86393 18.3333 10.0306C18.3333 11.2112 18.118 12.3084 17.6875 13.3223C17.2569 14.3362 16.6667 15.2181 15.9167 15.9681C15.1667 16.7181 14.2847 17.3049 13.2708 17.7285C12.2569 18.1521 11.1667 18.3639 9.99999 18.3639ZM9.99999 17.1139C12.0139 17.1139 13.6979 16.4368 15.0521 15.0827C16.4062 13.7285 17.0833 12.0445 17.0833 10.0306C17.0833 8.01671 16.4062 6.33268 15.0521 4.97852C13.6979 3.62435 12.0139 2.94727 9.99999 2.94727C7.9861 2.94727 6.30207 3.62435 4.94791 4.97852C3.59374 6.33268 2.91666 8.01671 2.91666 10.0306C2.91666 12.0445 3.59374 13.7285 4.94791 15.0827C6.30207 16.4368 7.9861 17.1139 9.99999 17.1139Z"/>
</svg>
