<svg width="84" height="63" viewBox="0 0 84 63" fill="none" xmlns="http://www.w3.org/2000/svg">
<g clip-path="url(#clip0_1164_1431)">
<path d="M80.5912 56.8314C79.1501 58.4573 77.3764 59.7506 75.3072 60.7483C73.2379 61.746 71.1316 62.2264 68.9885 62.2264C65.8106 62.2264 63.3718 61.1917 61.6721 59.0855C59.9353 56.9792 59.0116 54.4296 58.8637 51.3626C55.2055 54.5774 51.7321 56.2033 48.4065 56.2033C46.1524 56.2033 44.2309 55.5381 42.679 54.2079C41.127 52.8776 40.1293 51.104 39.6859 48.9608L39.5381 47.6675C35.7321 51.4735 31.8891 53.395 28.0092 53.395C24.2402 53.395 21.5797 51.843 19.9908 48.7391C18.4018 45.6351 17.6259 41.8291 17.6259 37.3211L17.6998 35.2148L15.8522 37.1363C13.2656 39.8338 10.7529 42.0508 8.27714 43.8245C5.80139 45.5982 3.14088 46.7437 0.295612 47.298L0 45.3395C2.58661 44.7853 5.0254 43.7137 7.3164 42.0878C9.60739 40.4619 12.0092 38.3557 14.485 35.843L17.8845 32.2957C18.3279 26.3834 19.2517 20.5451 20.7298 14.7067C22.2079 8.8684 24.1663 4.76678 26.642 2.36493C28.157 0.812969 29.6351 0.0369873 31.0762 0.0369873C32.1109 0.0369873 32.9238 0.443454 33.515 1.29334C34.1432 2.14322 34.4388 3.28872 34.4388 4.80373C34.4388 9.53352 33.1085 14.1894 30.448 18.7714C27.8245 23.3164 24.2402 28.0832 19.7321 32.9977C19.6212 35.1409 19.5843 36.582 19.5843 37.2472C19.5843 46.7067 22.3926 51.3996 28.0462 51.3996C31.8152 51.3996 35.6582 49.2564 39.5751 44.97C39.6859 41.3857 40.351 37.0993 41.5704 32.1109C42.7898 27.1594 44.157 22.7991 45.5982 19.0301C46.7067 15.8522 48.2587 12.7114 50.1432 9.53352C52.0647 6.35569 53.9861 4.76678 55.9815 4.76678C57.6443 4.76678 58.4942 6.09703 58.4942 8.79449C58.4942 9.60743 58.4573 10.1987 58.4203 10.6421C57.9769 15.0393 56.7945 19.4365 54.836 23.7599C52.8776 28.1201 50.2171 32.9608 46.8176 38.3187C45.1917 40.9053 43.418 43.3442 41.4226 45.6351C41.4226 46.6698 41.4965 47.6305 41.6813 48.5174C42.0139 50.2541 42.7529 51.6213 43.9353 52.619C45.1178 53.6536 46.6328 54.134 48.4434 54.134C51.8799 54.134 55.3903 52.2864 58.9746 48.5913C59.3072 44.231 60.5635 38.4296 62.7437 31.1132C64.9607 23.7968 67.1409 18.1802 69.358 14.1894C70.4296 12.4157 71.3164 11.0855 72.0185 10.2356C72.7206 9.38572 73.6074 8.9423 74.679 8.9423C76.4896 8.9423 77.4134 10.6051 77.4134 13.9308C77.4134 14.7806 77.3764 15.4458 77.3395 15.8522C77.0069 19.2887 76.1201 22.8361 74.642 26.4943C73.164 30.1525 71.2055 34.1802 68.7298 38.5774C66.2171 42.8638 63.5935 46.485 60.8222 49.3672V50.1802C60.8222 53.0624 61.4873 55.4642 62.8176 57.3488C64.1478 59.2333 66.2171 60.1571 69.0254 60.1571C71.8707 60.1571 74.5312 59.2702 77.0069 57.4596C79.4827 55.649 81.0716 53.5428 81.7737 51.1409L83.6213 51.6952C83.03 53.5797 82.0323 55.2425 80.5912 56.8314ZM29.1917 17.1086C31.4088 13.007 32.5173 8.8684 32.5173 4.76678C32.5173 2.95616 31.963 2.03237 30.8915 2.03237C30.0785 2.03237 29.1178 2.58664 28.0092 3.73214C25.903 5.83837 24.2032 9.31182 22.873 14.2264C21.5427 19.1409 20.582 24.3511 19.9908 29.8938C23.8707 25.4596 26.9746 21.2102 29.1917 17.1086ZM45.1547 37.358C48.4434 32.1478 51.03 27.455 52.9146 23.2425C54.836 19.0301 55.9815 14.8176 56.4249 10.5682C56.4619 10.0878 56.4988 9.45962 56.4988 8.72059C56.4988 7.50119 56.2032 6.87302 55.612 6.87302C54.3926 6.87302 52.9515 8.35108 51.2887 11.3072C49.6628 14.2633 48.3326 17.1086 47.2979 19.843C46.0785 23.0208 44.8961 26.716 43.7506 31.0023C42.6051 35.2518 41.8661 39.1317 41.4965 42.5682C42.7898 41.0162 43.9723 39.2795 45.1547 37.358ZM66.9931 37.7645C69.7275 32.9238 71.8337 28.6005 73.2748 24.7945C74.7159 20.9885 75.455 17.2194 75.455 13.5243C75.455 11.8615 75.1963 11.0116 74.642 11.0116C74.1617 11.0116 73.6813 11.3072 73.2379 11.8615C72.7945 12.4157 72.351 13.0809 71.9076 13.7829C71.4642 14.522 71.1686 15.0023 71.0208 15.261C69.0993 18.7344 67.1039 23.649 65.1086 29.9677C63.1132 36.2864 61.7829 41.7183 61.1178 46.2633C62.9284 44.1571 64.8868 41.3118 66.9931 37.7645Z" fill="white"/>
</g>
<defs>
<clipPath id="clip0_1164_1431">
<rect width="83.5843" height="62.2263" fill="white"/>
</clipPath>
</defs>
</svg>
