<svg width="22" height="22" viewBox="0 0 22 22" fill="none" xmlns="http://www.w3.org/2000/svg">
<g clip-path="url(#clip0_116_1477)">
<path d="M4.67616 11.823L4.93143 12.3793C3.24895 13.0748 1.7173 13.8862 0.359705 14.8251L0 14.3151C1.52004 13.3066 3.07489 12.4721 4.67616 11.823ZM1.26477 8.53109C2.04219 8.93678 2.64557 9.23815 3.07489 9.43519C3.50422 9.63224 3.96835 9.80611 4.4557 9.94521L4.29325 10.5595C3.4346 10.3045 2.32068 9.8177 0.951477 9.09905L1.26477 8.53109ZM5.96414 13.666L6.41667 14.0253C4.95464 15.9146 3.4462 18.0011 1.91456 20.2845L1.40401 19.9252C3.01688 17.5374 4.53692 15.451 5.96414 13.666ZM2.32068 4.36986L2.83122 4.01054C3.86392 5.56375 4.88502 7.03583 5.91772 8.43836L5.40717 8.79768C4.38608 7.39515 3.35338 5.92308 2.32068 4.36986ZM6.173 1.73867C6.50949 2.64278 6.89241 3.74394 7.33333 5.01897L8.19198 7.4647L7.63502 7.66175L6.77637 5.21602C6.33544 3.94099 5.95253 2.83983 5.61603 1.93572L6.173 1.73867ZM8.08755 14.8019L8.69093 14.9062C8.40084 17.0506 8.04114 19.334 7.60021 21.7798L6.99684 21.6754C7.43776 19.2297 7.80907 16.9347 8.08755 14.8019ZM10.6751 0H11.2785C11.1741 3.12961 11.0928 5.48261 11.0232 7.04742L10.4198 7.00105C10.4895 5.45943 10.5707 3.12961 10.6751 0ZM11.1276 15.4858C11.3829 18.2329 11.5686 20.3888 11.7078 21.9536L11.1044 22C10.9652 20.4352 10.7795 18.2792 10.5243 15.5321L11.1276 15.4858ZM13.1466 14.6512C13.6804 16.2044 14.2722 18.0474 14.9219 20.2034L14.3186 20.3541C13.866 18.6733 13.2859 16.8303 12.6013 14.8483L13.1466 14.6512ZM16.2331 3.58166L16.6857 3.98736L13.4019 7.47629L12.9494 7.0706L16.2331 3.58166ZM14.9684 13.0864C15.5717 13.5964 16.4884 14.3383 17.6951 15.3119L19.4705 16.726L19.0876 17.2013C18.4842 16.6913 17.5675 15.961 16.3608 14.9758L14.5854 13.5616L14.9684 13.0864ZM20.3755 5.70285L20.7816 6.1549C19.0992 7.75448 17.1498 8.89041 14.9451 9.5627L14.7479 9.00632C16.8829 8.35722 18.7627 7.25606 20.3755 5.70285ZM21.8492 10.2002L22 10.8029C20.5032 11.1739 18.3101 11.4636 15.4209 11.6839L15.3745 11.0811C18.2173 10.8725 20.3755 10.5711 21.8492 10.2002Z" fill="#DEF7F6"/>
</g>
<defs>
<clipPath id="clip0_116_1477">
<rect width="22" height="22" fill="white"/>
</clipPath>
</defs>
</svg>
