<svg xmlns="http://www.w3.org/2000/svg" width="108" height="36" viewBox="0 0 108 36" fill="none">
  <g clip-path="url(#clip0_567_11351)">
    <path d="M102.256 32.56L101.709 34.1814L101.333 36L100.444 35.7152L101.333 32.4723C97.1282 32.1436 62.7009 31.7712 59.8291 31.5959C56.9573 31.4425 18.4615 31.5082 15.8291 31.5082C10.7692 31.5082 5.48718 31.8369 0 32.5161C2.68376 20.9251 5.55555 11.5033 8.64957 4.25076L9.47009 4.82045C6.64957 11.3061 3.93162 20.0925 1.26496 31.1796C6.15385 30.6099 10.9915 30.325 15.7607 30.325C20.4273 30.325 93.4701 30.6537 101.556 31.3329C104.017 19.8296 105.812 9.79428 106.957 1.24893L18.8547 2.25685L7.45299 2.82654V1.66525C15.265 1.31467 93.2308 0.76689 108 0C106.838 9.07121 104.991 19.5447 102.496 31.4206L104.923 31.6178L104.855 32.7572L102.256 32.56Z" fill="#6FF9D8"/>
  </g>
  <defs>
    <clipPath id="clip0_567_11351">
      <rect width="108" height="36" fill="white"/>
    </clipPath>
  </defs>
</svg>