<svg xmlns="http://www.w3.org/2000/svg" width="130" height="63" viewBox="0 0 130 63" fill="none">
  <g clip-path="url(#clip0_560_8869)">
    <path d="M17.1824 18.244C26.4877 15.1745 37.032 13.3742 48.8432 12.8215C60.6544 12.2689 70.3076 12.5267 77.827 13.5984C79.7313 13.8698 81.1682 14.0999 82.1168 14.2605C88.4943 12.8573 94.9564 12.6095 101.499 13.5419C105.357 14.0917 109.391 15.1494 113.553 16.7081C117.739 18.2702 121.206 20.3396 123.956 22.8913C126.726 25.4713 127.853 28.4014 127.378 31.7384C126.48 38.0388 120.495 42.8012 109.4 46.0221C98.3252 49.2714 85.8931 51.2092 72.1035 51.8356C58.3139 52.462 47.6558 52.2643 40.1363 51.1926C33.2516 50.2114 26.8459 48.8411 20.9155 47.1066C14.9886 45.3472 10.214 43.1931 6.61972 40.6227C3.05336 38.0309 1.47291 35.1378 1.9272 31.9502C2.79318 25.874 7.87706 21.3135 17.1824 18.244ZM78.8632 15.0673L77.6425 14.8933C70.2207 13.8356 60.7176 13.5737 49.1332 14.1079C37.5243 14.6385 27.1931 16.3422 18.0871 19.2369C8.98106 22.1315 4.00947 26.4284 3.19672 32.1312C2.79567 34.9452 4.3175 37.5505 7.76932 39.8972C11.2211 42.244 15.8146 44.2707 21.5812 45.9311C27.3478 47.5914 33.6106 48.9159 40.3489 49.8762C47.7218 50.927 58.2263 51.1537 71.8135 50.5493C85.4251 49.9483 97.6442 48.1072 108.523 45.0078C119.398 41.9334 125.271 37.4345 126.112 31.5326C126.534 28.5691 125.445 25.8985 122.817 23.542C120.213 21.189 116.899 19.2685 112.922 17.8124C108.92 16.3528 105.05 15.3692 101.29 14.8334C96.1146 14.0958 90.9056 14.1157 85.7158 14.8751C90.5316 15.8663 94.8236 17.037 98.5603 18.4335L98.0583 19.6832C93.6385 18.0115 88.3038 16.6414 82.0787 15.5764C77.6279 16.5682 73.4201 18.1282 69.4794 20.2599L68.8788 19.0563C71.9179 17.4822 75.2216 16.149 78.8632 15.0673Z" fill="#6FF9D8"/>
  </g>
  <defs>
    <clipPath id="clip0_560_8869">
      <rect width="124.19" height="45.9319" fill="white" transform="translate(6.48071) rotate(8.11111)"/>
    </clipPath>
  </defs>
</svg>