<svg width="17" height="19" viewBox="0 0 17 19" fill="none" xmlns="http://www.w3.org/2000/svg">
<g clip-path="url(#clip0_116_1478)">
<path d="M0.941642 13.6635C1.5638 13.0522 2.32047 12.7383 3.19486 12.7383C4.06924 12.7383 4.82592 13.0522 5.44807 13.6635C6.07023 14.2748 6.38971 15.0183 6.38971 15.8774C6.38971 16.7365 6.07023 17.48 5.44807 18.0913C4.82592 18.7026 4.06924 19.0165 3.19486 19.0165C2.48863 19.0165 1.66469 18.9009 0.739862 18.653L0.958457 17.7939C1.54698 17.9591 1.98417 18.0583 2.27003 18.1078C2.55589 18.1409 2.87537 18.1574 3.17804 18.1574C3.83383 18.1574 4.38872 17.9426 4.82592 17.513C5.26311 17.0835 5.4817 16.5383 5.4817 15.8939C5.4817 15.2496 5.26311 14.7043 4.82592 14.2748C4.38872 13.8452 3.83383 13.6304 3.17804 13.6304C2.52226 13.6304 1.96736 13.8452 1.53017 14.2748C1.09298 14.7043 0.874382 15.2496 0.874382 15.8939C0.874382 16.3235 0.992087 16.72 1.21068 17.0835L0.470821 17.513C0.151335 17.0174 0 16.4722 0 15.8774C0 15.0183 0.319486 14.2748 0.941642 13.6635ZM8.0544 2.41217C8.0544 3.48609 7.7181 4.4113 7.02868 5.1713C6.33927 5.9313 5.38081 6.3113 4.1365 6.3113C3.22849 6.3113 2.47181 5.99739 1.84965 5.38609C1.2275 4.77478 0.908012 4.01478 0.908012 3.13913C0.908012 2.28 1.2275 1.53652 1.84965 0.925217C2.47181 0.313913 3.22849 0 4.1365 0C4.60732 0 5.07814 0.115652 5.56578 0.330435L5.19585 1.12348C4.87636 0.958261 4.52324 0.875652 4.1365 0.875652C3.44708 0.875652 2.89219 1.09043 2.455 1.52C2.0178 1.94957 1.79921 2.47826 1.79921 3.13913C1.79921 3.81652 2.0178 4.36174 2.455 4.7913C2.89219 5.22087 3.4639 5.43565 4.1365 5.43565C5.1454 5.43565 5.90208 5.15478 6.40653 4.59304C6.92779 4.0313 7.18002 3.30435 7.18002 2.41217C7.18002 1.91652 7.02869 1.47043 6.7092 1.07391L7.36498 0.495652C7.83581 1.02435 8.0544 1.6687 8.0544 2.41217ZM11.6696 7.0713C12.2413 6.50956 12.9476 6.2287 13.7715 6.2287C14.5114 6.2287 15.1335 6.46 15.638 6.90609L15.0495 7.55043C14.73 7.23652 14.3096 7.08783 13.7715 7.08783C13.1662 7.08783 12.6617 7.28609 12.275 7.66609C11.8882 8.04609 11.6864 8.52522 11.6864 9.10348C11.6864 9.69826 11.8882 10.1939 12.275 10.5739C12.6617 10.9539 13.1662 11.1522 13.7715 11.1522C14.3769 11.1522 14.9318 10.9539 15.4026 10.5574C15.8734 10.1609 16.1088 9.68174 16.1088 9.10348C16.1088 8.93826 16.0752 8.74 16.0247 8.52522C15.9575 8.31043 15.8902 8.14522 15.7893 8.01304L16.5292 7.50087C16.6469 7.69913 16.7646 7.94696 16.8655 8.26087C16.9664 8.57478 17.0168 8.85565 17.0168 9.08696C17.0168 9.88 16.6805 10.5574 16.0079 11.1357C15.3353 11.7139 14.5955 11.9948 13.7883 11.9948C12.9644 11.9948 12.2582 11.7139 11.6864 11.1522C11.1147 10.5904 10.8289 9.89652 10.8289 9.08696C10.8121 8.31043 11.0979 7.63304 11.6696 7.0713Z" fill="white"/>
</g>
<defs>
<clipPath id="clip0_116_1478">
<rect width="17" height="19" fill="white"/>
</clipPath>
</defs>
</svg>
