<svg width="61" height="64" viewBox="0 0 61 64" fill="none" xmlns="http://www.w3.org/2000/svg">
<g clip-path="url(#clip0_842_8941)">
<path d="M54.7751 53.5302C52.3811 55.8604 50.402 57.0414 48.8379 57.0414C47.1142 57.0414 45.9012 56.4349 45.1352 55.19C44.401 53.9771 43.9222 52.3172 43.7307 50.2743C38.4319 59.4035 34.1865 63.9681 30.9945 63.9681C29.4623 63.9681 28.3771 62.6594 27.6748 60.01C27.0045 57.3606 26.6534 54.7751 26.5895 52.2215C24.8658 54.4878 23.0464 56.3072 21.1312 57.6798C19.216 59.0524 17.3646 59.7227 15.609 59.7227C13.6299 59.7227 12.0339 58.7013 10.9167 56.6903C9.76758 54.6793 8.96958 52.1895 8.52269 49.2848C6.25636 52.796 3.76658 55.9242 1.08529 58.6055L0 57.5202C3.06434 54.3601 5.80948 50.7531 8.26733 46.6673C8.17157 45.9651 8.13965 45.0713 8.13965 43.9541C8.13965 38.4958 8.71421 32.1117 9.86334 24.8339C11.0125 17.5561 12.8319 11.3636 15.2898 6.25636C15.7047 5.45835 16.2155 4.78803 16.79 4.21347C17.3646 3.6389 18.003 3.35162 18.7052 3.35162C19.7586 3.35162 20.5247 3.95811 21.0035 5.17107C21.4823 6.35212 21.7057 7.72469 21.7057 9.25686C21.7057 12.5446 21.2908 15.9601 20.4608 19.5032C19.599 23.0464 18.5137 26.8768 17.1092 30.9626C15.0663 37.0274 12.6723 42.39 9.9591 47.0185C10.2464 49.987 10.8529 52.5726 11.7786 54.7751C12.7042 56.9776 14.013 58.0948 15.6728 58.0948C17.4284 58.0948 19.2798 57.2968 21.195 55.7327C23.1102 54.1686 24.9616 52.0618 26.7172 49.4125C27.0364 38.2723 29.59 26.1746 34.3781 13.0234C35.9421 8.65037 37.2828 5.39451 38.3681 3.25586C39.4534 1.11721 40.6025 0 41.8155 0C43.4753 0 44.3052 1.46833 44.3052 4.37307C44.3052 5.87332 44.1456 7.40549 43.8264 9.03342C43.2838 12.3212 42.4858 15.6409 41.4324 18.9925C40.3791 22.3441 39.0703 26.0469 37.5062 30.1327C34.7611 37.3786 32.2075 43.1242 29.7815 47.4653C29.3985 48.1995 28.9197 48.9975 28.3132 49.8274V51.8384C28.3132 53.7855 28.5686 56.02 29.0474 58.5416C29.5262 61.0633 30.1965 62.3402 31.0264 62.3402C33.8993 62.3402 38.1127 57.2648 43.603 47.1142C43.603 41.0494 44.4968 34.793 46.2524 28.409L46.8908 25.983C48.1357 21.4504 49.3167 17.8115 50.4339 15.0983C51.5511 12.385 52.8599 11.0444 54.392 11.0444C56.4668 11.0444 57.5202 12.6404 57.5202 15.8324C57.5202 17.2369 57.1052 19.2479 56.2434 21.8973C55.3815 24.5466 54.2005 27.7706 52.6683 31.6329C50.4339 37.0913 47.9761 42.39 45.2948 47.4973C45.2948 49.987 45.5182 51.9342 45.997 53.3387C46.4758 54.7431 47.4015 55.4135 48.8379 55.4135C50.0509 55.4135 51.7107 54.3601 53.8494 52.2215C55.988 50.0828 57.7117 47.9441 58.9885 45.8374L60.393 46.6673C59.0205 48.8698 57.1691 51.1681 54.7751 53.5302ZM15.5771 30.388C16.9177 26.4618 18.003 22.7272 18.801 19.216C19.599 15.7047 20.014 12.385 20.014 9.22494C20.014 8.20349 19.8863 7.24589 19.6628 6.35212C19.4394 5.45835 19.1202 5.01147 18.6733 5.01147C18.0349 5.01147 17.3965 5.64988 16.79 6.9586C14.4279 11.9701 12.6723 18.0349 11.4913 25.1531C10.3421 32.2713 9.76758 38.5277 9.76758 43.8903C11.9382 39.8683 13.8534 35.3676 15.5771 30.388ZM35.9741 29.5581C37.5062 25.6638 38.783 22.0569 39.8045 18.7052C40.8259 15.3536 41.6239 12.0658 42.1666 8.74613C42.5496 6.38404 42.7092 4.75611 42.7092 3.86234C42.7092 2.39402 42.4219 1.62793 41.8155 1.62793C41.1771 1.62793 40.3791 2.64938 39.4214 4.66035C38.4638 6.67132 37.3147 9.6399 35.9102 13.5342C34.1227 18.386 32.5586 23.6209 31.1541 29.2708C29.7496 34.9207 28.8878 40.6344 28.5047 46.3801C30.803 42.2304 33.2608 36.6125 35.9741 29.5581ZM51.1362 31.0264C54.2643 23.0783 55.8604 18.003 55.8604 15.8005C55.8604 13.7257 55.3815 12.6723 54.392 12.6723C53.4025 12.6723 52.4768 13.8853 51.615 16.3112C50.7212 18.7372 49.7636 21.993 48.6783 26.0788L47.9122 28.792C46.5077 33.6758 45.6778 38.6234 45.3267 43.6668C47.3377 39.7726 49.2529 35.5591 51.1362 31.0264Z" fill="#C3B7FF"/>
</g>
<defs>
<clipPath id="clip0_842_8941">
<rect width="60.3611" height="64" fill="white"/>
</clipPath>
</defs>
</svg>
