<svg width="71" height="86" viewBox="0 0 71 86" fill="none" xmlns="http://www.w3.org/2000/svg">
<g clip-path="url(#clip0_1114_7452)">
<path d="M36.5455 44.6666L42.0455 61.1351C44.8271 69.7408 46.7868 77.9132 47.988 85.5283L51.2754 85.0949C50.011 76.7368 47.9248 68.3788 45.0799 60.0207L40.0225 44.6666C49.9478 49.5576 59.6834 54.6344 69.3558 60.0826L70.9995 57.3585C59.6202 50.9816 49.3156 45.5953 40.1489 41.1996C49.6949 31.9747 58.3558 23.8024 66.1949 16.6206L63.9823 14.2061C56.08 21.3878 47.419 29.5602 37.9363 38.785L25.1029 0.0283203L22.0684 1.08082L34.5225 38.4754C23.396 33.151 12.4592 28.3838 1.58566 24.05L0.194854 27.0218C12.396 31.9747 23.8386 36.9896 34.5225 42.1282C23.3328 53.0866 14.988 61.3827 9.42475 66.9548L11.8903 69.1217C20.9937 59.8969 29.2121 51.7864 36.5455 44.6666Z" fill="#C3B7FF"/>
</g>
<defs>
<clipPath id="clip0_1114_7452">
<rect width="70.8047" height="85.5" fill="white" transform="matrix(-1 0 0 1 70.9995 0.0283203)"/>
</clipPath>
</defs>
</svg>
