<svg width="699" height="537" viewBox="0 0 699 537" fill="none" xmlns="http://www.w3.org/2000/svg">
<path d="M10.1215 316.475L378.397 529.518C386.044 533.927 394.715 536.248 403.542 536.248C412.368 536.248 421.04 533.927 428.686 529.518L687.487 380.856C690.976 378.849 693.874 375.958 695.889 372.474C697.904 368.991 698.965 365.037 698.965 361.013C698.965 356.988 697.904 353.035 695.889 349.551C693.874 346.067 690.976 343.176 687.487 341.17L302.417 118.971L10.4299 281.249C7.29581 282.985 4.67887 285.522 2.84653 288.601C1.01418 291.68 0.0321385 295.19 0.000775503 298.772C-0.0305875 302.355 0.88986 305.882 2.66803 308.992C4.44619 312.102 7.01831 314.685 10.1215 316.475Z" fill="#FCC054"/>
<path d="M496.625 439.187L434.641 409.559L360.701 455.388C364.971 458.567 386.32 467.249 419.696 488.883C448.755 469.621 457.318 464.972 496.625 439.187Z" fill="url(#paint0_linear_1804_22362)"/>
<path d="M605.886 363.183L544.732 323.615L452.93 377.178C457.2 380.357 484.289 397.911 517.666 419.592C546.748 400.33 577.301 383.204 605.886 363.183Z" fill="url(#paint1_linear_1804_22362)"/>
<path d="M273.833 469.288L373.724 407.446L138.241 273.918L45.2058 335.807C58.1814 344.347 265.08 459.942 273.833 469.288Z" fill="url(#paint2_linear_1804_22362)"/>
<path d="M116.37 291.378V298.399L119.905 302.74" fill="#ADCEE1"/>
<path d="M257.346 205.957L120.379 290.833C119.125 291.609 118.094 292.698 117.389 293.993C116.683 295.289 116.327 296.745 116.356 298.22C116.385 299.695 116.797 301.137 117.552 302.403C118.308 303.67 119.38 304.719 120.663 305.445L328.487 423.009C331.387 424.649 334.667 425.497 337.998 425.468C341.329 425.439 344.594 424.534 347.464 422.843L483.791 342.688C493.707 334.551 492.948 319.227 483.791 318.587L277.178 205.625C274.151 203.882 270.708 202.992 267.216 203.051C263.724 203.109 260.313 204.114 257.346 205.957Z" fill="#88D3D8"/>
<path d="M257.346 200.122L120.379 284.998C119.125 285.774 118.094 286.863 117.389 288.158C116.683 289.453 116.327 290.91 116.356 292.385C116.385 293.86 116.797 295.301 117.552 296.568C118.308 297.835 119.38 298.883 120.663 299.61L328.487 417.173C331.387 418.814 334.667 419.662 337.998 419.633C341.329 419.604 344.594 418.698 347.464 417.007L483.791 336.853C485.392 335.925 486.721 334.593 487.644 332.99C488.568 331.387 489.054 329.57 489.054 327.72C489.054 325.87 488.568 324.053 487.644 322.45C486.721 320.847 485.392 319.515 483.791 318.587L277.154 199.79C274.13 198.051 270.692 197.164 267.204 197.222C263.717 197.281 260.31 198.283 257.346 200.122Z" fill="white"/>
<path d="M262.921 188.522C262.921 188.522 319.852 4.96523 319.449 4.96523C319.046 4.96523 321.228 -3.19495 331.31 1.40701L549.547 129.882C549.547 129.882 560.127 134.176 558.063 144.115C555.999 154.055 502.46 323.734 502.46 323.734C501.342 325.348 499.739 326.563 497.883 327.202C496.027 327.842 494.016 327.874 492.141 327.292C485.499 325.228 267.926 198.841 267.926 198.841C265.932 198.085 264.302 196.595 263.372 194.676C262.441 192.758 262.28 190.556 262.921 188.522Z" fill="#053855"/>
<path d="M323.079 18.2959L546.582 148.598L500.231 304.258L273.833 177.799L323.079 18.2959Z" fill="#68E1FD"/>
<path d="M248.926 219.573L198.85 250.767C197.966 251.323 197.242 252.098 196.747 253.017C196.252 253.935 196.003 254.967 196.025 256.01C196.046 257.054 196.337 258.074 196.87 258.971C197.402 259.869 198.158 260.614 199.063 261.133L378.801 363.586C381.487 365.137 384.535 365.954 387.637 365.954C390.739 365.954 393.786 365.137 396.473 363.586C408.025 356.849 427.928 344.609 440.097 337.255C441.18 336.59 442.073 335.655 442.688 334.542C443.302 333.429 443.618 332.176 443.603 330.905C443.589 329.634 443.245 328.388 442.606 327.289C441.966 326.19 441.053 325.276 439.954 324.635C403.613 303.499 285.006 234.494 259.031 219.454C257.496 218.551 255.743 218.085 253.962 218.106C252.181 218.127 250.439 218.634 248.926 219.573Z" fill="#68E1FD"/>
<path d="M251.582 304.162L314.373 339.484C315.335 340.03 316.134 340.822 316.691 341.779C317.247 342.735 317.54 343.821 317.54 344.928C317.54 346.034 317.247 347.121 316.691 348.077C316.134 349.033 315.335 349.825 314.373 350.372L277.676 372.053C276.407 372.788 274.967 373.176 273.501 373.176C272.035 373.176 270.594 372.788 269.326 372.053L204.993 335.475C204.19 335.017 203.521 334.354 203.057 333.554C202.592 332.754 202.347 331.845 202.347 330.92C202.347 329.995 202.592 329.086 203.057 328.286C203.521 327.486 204.19 326.824 204.993 326.366L243.398 304.305C244.635 303.578 246.038 303.183 247.472 303.158C248.905 303.134 250.321 303.479 251.582 304.162Z" fill="#68E1FD"/>
<path opacity="0.1" d="M248.926 219.573L198.85 250.767C197.966 251.323 197.242 252.098 196.747 253.017C196.252 253.935 196.003 254.967 196.025 256.01C196.046 257.054 196.337 258.074 196.87 258.971C197.402 259.869 198.158 260.614 199.063 261.133L378.801 363.586C381.487 365.137 384.535 365.954 387.637 365.954C390.739 365.954 393.786 365.137 396.473 363.586C408.025 356.849 427.928 344.609 440.097 337.255C441.18 336.59 442.073 335.655 442.688 334.542C443.302 333.429 443.618 332.176 443.603 330.905C443.589 329.634 443.245 328.388 442.606 327.289C441.966 326.19 441.053 325.276 439.954 324.635C403.613 303.499 285.006 234.494 259.031 219.454C257.496 218.551 255.743 218.085 253.962 218.106C252.181 218.127 250.439 218.634 248.926 219.573Z" fill="#053855"/>
<path opacity="0.1" d="M251.582 304.164L314.373 339.486C315.335 340.032 316.134 340.824 316.691 341.78C317.247 342.737 317.54 343.823 317.54 344.93C317.54 346.036 317.247 347.123 316.691 348.079C316.134 349.035 315.335 349.827 314.373 350.374L277.676 372.055C276.407 372.79 274.967 373.177 273.501 373.177C272.035 373.177 270.594 372.79 269.326 372.055L204.993 335.477C204.19 335.019 203.521 334.356 203.057 333.556C202.592 332.756 202.347 331.847 202.347 330.922C202.347 329.997 202.592 329.088 203.057 328.288C203.521 327.488 204.19 326.826 204.993 326.368L243.398 304.307C244.635 303.58 246.038 303.185 247.472 303.16C248.905 303.136 250.321 303.481 251.582 304.164Z" fill="#053855"/>
<path d="M575.38 381.045L628.279 349.661C629.466 348.961 630.455 347.968 631.151 346.778C631.848 345.588 632.228 344.24 632.256 342.861C632.285 341.483 631.961 340.12 631.314 338.902C630.668 337.684 629.721 336.652 628.564 335.903L584.845 307.437C582.626 305.966 580.023 305.182 577.361 305.182C574.699 305.182 572.096 305.966 569.877 307.437L517.927 342.402C516.799 343.163 515.881 344.195 515.258 345.405C514.636 346.614 514.328 347.96 514.363 349.32C514.399 350.68 514.776 352.008 515.461 353.183C516.146 354.358 517.117 355.342 518.283 356.042L559.629 380.855C561.992 382.307 564.705 383.091 567.478 383.125C570.252 383.158 572.983 382.439 575.38 381.045Z" fill="#B24800"/>
<path d="M575.38 376.277L628.279 344.894C629.466 344.193 630.455 343.201 631.151 342.011C631.848 340.821 632.228 339.472 632.256 338.094C632.285 336.715 631.961 335.352 631.314 334.135C630.668 332.917 629.721 331.884 628.564 331.135L584.845 302.669C582.626 301.199 580.023 300.414 577.361 300.414C574.699 300.414 572.096 301.199 569.877 302.669L517.927 337.635C516.799 338.395 515.881 339.428 515.258 340.637C514.636 341.846 514.328 343.193 514.363 344.552C514.399 345.912 514.776 347.241 515.461 348.416C516.146 349.591 517.117 350.574 518.283 351.275L559.629 376.087C561.992 377.539 564.705 378.324 567.478 378.357C570.252 378.391 572.983 377.672 575.38 376.277Z" fill="#DF5D00"/>
<path d="M566.579 250.553L538.493 339.39C538.493 339.39 531.637 361.925 573.767 359.648C615.896 357.37 610.345 336.448 610.345 336.448L582.235 250.553" fill="#FF8522"/>
<path d="M556.166 283.454C556.166 283.454 561.74 289.219 574.574 289.219C590.609 289.219 592.317 281.319 592.317 281.319L598.2 299.276C598.2 299.276 593.978 309.406 574.479 309.073C556.925 308.789 550.046 302.479 550.046 302.479" fill="white"/>
<path d="M545.728 317.305C553.352 324.683 563.586 328.742 574.194 328.596C595.045 328.359 602.873 313.533 602.873 313.533L609.065 332.51C609.065 332.51 600.122 346.387 574.407 348.238C550.164 349.969 539.75 336.377 539.75 336.377" fill="white"/>
<path opacity="0.15" d="M572.628 251.195H566.603L538.612 340.032C538.612 340.032 532.231 361.049 569.711 360.433C570.446 324.02 572.273 287.56 572.628 251.195Z" fill="#FF8522"/>
<path d="M574.574 255.772C578.989 255.772 582.568 253.722 582.568 251.193C582.568 248.665 578.989 246.615 574.574 246.615C570.159 246.615 566.58 248.665 566.58 251.193C566.58 253.722 570.159 255.772 574.574 255.772Z" fill="#FF9F57"/>
<path d="M363.666 273.919L370.189 269.934V246.782L205.183 147.437L197.426 150.615" fill="#FFBA93"/>
<path d="M259.505 271.808V281.747L202.265 314.957L184.972 304.614L183.667 292.516" fill="#CA5A00"/>
<path d="M240.86 259.497L183.667 292.517L201.103 304.805L259.505 271.809L240.86 259.497Z" fill="#FF8522"/>
<path d="M379.085 343.233V353.149L321.845 386.359L304.576 376.016L303.271 363.942" fill="#CA5A00"/>
<path d="M360.464 330.921L303.271 363.941L320.707 376.229L379.085 343.232L360.464 330.921Z" fill="#FF8522"/>
<path d="M225.489 188.355V283.668C225.489 283.668 222.737 288.697 212.916 283.668V183.184" fill="#FFBA93"/>
<path d="M349.125 259.093V354.406C349.125 354.406 346.373 359.435 336.553 354.406V253.922" fill="#FFBA93"/>
<path d="M363.666 248.822V273.919L197.426 177.231V150.615L363.666 248.822Z" fill="#FF8522"/>
<path d="M484.812 445.211V429.531L496.625 423.743V439.186L484.812 445.211Z" fill="#494443"/>
<path d="M496.625 423.743L441.14 393.593L429.825 400.353L484.811 429.531L496.625 423.743Z" fill="#666666"/>
<path d="M429.825 400.355V417.482L484.811 445.213V429.533" fill="#494443"/>
<path d="M468.539 431.762C468.262 430.966 467.87 430.214 467.376 429.532C465.965 427.863 464.319 426.409 462.49 425.214C460.734 424.194 458.884 423.293 457.152 422.226C456.132 421.585 455.136 420.897 454.116 420.28C453.096 419.664 451.744 419.142 450.558 418.62C447.759 417.908 444.271 420.565 441.804 421.988L431.533 427.8L416.067 436.553L397.73 446.92L378.895 457.594L361.911 467.225L349.125 474.46L342.862 477.995C342.781 478.052 342.693 478.099 342.601 478.137C341.427 478.437 340.386 479.121 339.643 480.078C338.9 481.036 338.497 482.215 338.498 483.427V484.067C338.515 485.047 338.796 486.003 339.309 486.838C339.822 487.672 340.549 488.354 341.415 488.812L355.648 496.426C356.628 496.945 357.741 497.155 358.842 497.028C359.944 496.901 360.98 496.443 361.816 495.715L460.734 438.925L462.039 438.166C463.818 436.364 466.783 435.984 468.539 432.497C468.752 432.26 468.586 432.046 468.539 431.762Z" fill="#68E1FD"/>
<path opacity="0.5" d="M362.527 495.62L467.946 435.107C468.335 434.858 468.644 434.501 468.833 434.08C469.023 433.658 469.086 433.191 469.013 432.734C468.752 431.632 468.276 430.593 467.614 429.674C466.619 428.456 465.471 427.371 464.198 426.448L360.701 487.578C362.013 488.772 362.855 490.396 363.073 492.157C363.253 493.207 363.042 494.287 362.48 495.193C362.527 495.335 362.551 495.478 362.527 495.62Z" fill="black"/>
<path d="M406.056 119.256L344.997 172.273C343.616 173.476 342.553 175.001 341.903 176.713C341.253 178.426 341.036 180.272 341.27 182.088C341.505 183.905 342.185 185.635 343.248 187.126C344.312 188.616 345.728 189.821 347.369 190.634L417.632 225.575C419.417 226.461 421.406 226.852 423.393 226.706C425.38 226.56 427.292 225.884 428.928 224.747C430.564 223.61 431.865 222.055 432.694 220.244C433.524 218.432 433.852 216.431 433.644 214.45L424.417 126.491C424.204 124.467 423.44 122.541 422.208 120.921C420.976 119.301 419.324 118.05 417.431 117.304C415.538 116.558 413.476 116.345 411.471 116.69C409.465 117.034 407.592 117.921 406.056 119.256Z" fill="white"/>
<path d="M403.043 139.561L394.931 171.822C393.436 177.752 402.593 180.267 404.087 174.336L412.2 142.075C413.694 136.168 404.538 133.63 403.043 139.561Z" fill="#FF8522"/>
<path d="M388.882 194.049V195.045C388.882 201.142 398.37 201.166 398.37 195.045V194.049C398.37 187.929 388.882 187.929 388.882 194.049Z" fill="#FF8522"/>
<defs>
<linearGradient id="paint0_linear_1804_22362" x1="471.267" y1="408.444" x2="413.576" y2="461.034" gradientUnits="userSpaceOnUse">
<stop stop-color="#F7931E"/>
<stop offset="1" stop-color="white"/>
</linearGradient>
<linearGradient id="paint1_linear_1804_22362" x1="547.768" y1="351.18" x2="504.144" y2="396.298" gradientUnits="userSpaceOnUse">
<stop stop-color="#F7931E"/>
<stop offset="1" stop-color="white"/>
</linearGradient>
<linearGradient id="paint2_linear_1804_22362" x1="246.648" y1="318.206" x2="189.29" y2="400.543" gradientUnits="userSpaceOnUse">
<stop stop-color="#F7931E"/>
<stop offset="1" stop-color="white"/>
</linearGradient>
</defs>
</svg>
