<svg width="20" height="21" viewBox="0 0 20 21" fill="none" xmlns="http://www.w3.org/2000/svg">
<path d="M12.5 10.5C12.5 9.11925 11.3807 8 10 8C8.61925 8 7.5 9.11925 7.5 10.5C7.5 11.8807 8.61925 13 10 13C11.3807 13 12.5 11.8807 12.5 10.5Z" stroke="#000E50" stroke-width="1.25"/>
<path d="M9.99974 4.66675C13.4846 4.66675 16.4697 8.01109 17.7141 9.63525C18.1092 10.1512 18.1092 10.849 17.7141 11.3649C16.4697 12.9891 13.4846 16.3334 9.99974 16.3334C6.51493 16.3334 3.52972 12.9891 2.28543 11.3649C1.8902 10.849 1.89021 10.1512 2.28543 9.63525C3.52972 8.01109 6.51493 4.66675 9.99974 4.66675Z" stroke="#000E50" stroke-width="1.25" stroke-linejoin="round"/>
</svg>
