<svg width="16" height="17" viewBox="0 0 16 17" fill="none" xmlns="http://www.w3.org/2000/svg">
<g id="Frame">
<path id="Vector" d="M8.00005 14.8833C7.17783 14.8833 6.40283 14.7278 5.67505 14.4167C4.94727 14.1056 4.31394 13.6806 3.77505 13.1417C3.23616 12.6028 2.80838 11.9694 2.49172 11.2417C2.17505 10.5139 2.01672 9.73333 2.01672 8.9C2.01672 8.07778 2.17505 7.30278 2.49172 6.575C2.80838 5.84722 3.23616 5.21111 3.77505 4.66667C4.31394 4.12222 4.94727 3.69444 5.67505 3.38333C6.40283 3.07222 7.17783 2.91667 8.00005 2.91667C8.82227 2.91667 9.59727 3.07222 10.325 3.38333C11.0528 3.69444 11.6889 4.12222 12.2334 4.66667C12.7778 5.21111 13.2056 5.84722 13.5167 6.575C13.8278 7.30278 13.9834 8.07778 13.9834 8.9C13.9834 9.73333 13.8278 10.5139 13.5167 11.2417C13.2056 11.9694 12.7778 12.6028 12.2334 13.1417C11.6889 13.6806 11.0528 14.1056 10.325 14.4167C9.59727 14.7278 8.82227 14.8833 8.00005 14.8833ZM7.55005 6.08333V8.95C7.55005 9.01667 7.56116 9.07778 7.58338 9.13333C7.6056 9.18889 7.64449 9.24444 7.70005 9.3L9.68338 11.2833C9.77227 11.3722 9.88338 11.4167 10.0167 11.4167C10.15 11.4167 10.2667 11.3667 10.3667 11.2667C10.4667 11.1667 10.5167 11.05 10.5167 10.9167C10.5167 10.7833 10.4667 10.6667 10.3667 10.5667L8.55005 8.75V6.06667C8.55005 5.93333 8.50283 5.81944 8.40838 5.725C8.31394 5.63056 8.19449 5.58333 8.05005 5.58333C7.9056 5.58333 7.78616 5.63056 7.69172 5.725C7.59727 5.81944 7.55005 5.93889 7.55005 6.08333ZM1.90005 4.8C1.80005 4.88889 1.68338 4.93333 1.55005 4.93333C1.41672 4.93333 1.30005 4.88333 1.20005 4.78333C1.10005 4.68333 1.05005 4.56389 1.05005 4.425C1.05005 4.28611 1.10005 4.17222 1.20005 4.08333L3.23338 2.13333C3.33338 2.04444 3.45005 2 3.58338 2C3.71672 2 3.83338 2.05 3.93338 2.15C4.03338 2.25 4.08338 2.36944 4.08338 2.50833C4.08338 2.64722 4.03338 2.76111 3.93338 2.85L1.90005 4.8ZM14.1 4.78333L12.0667 2.83333C11.9778 2.74444 11.9306 2.63333 11.925 2.5C11.9195 2.36667 11.9667 2.25 12.0667 2.15C12.1556 2.06111 12.2695 2.01667 12.4084 2.01667C12.5473 2.01667 12.6667 2.06111 12.7667 2.15L14.8 4.1C14.8889 4.18889 14.9362 4.3 14.9417 4.43333C14.9473 4.56667 14.9 4.68333 14.8 4.78333C14.7112 4.87222 14.5973 4.91667 14.4584 4.91667C14.3195 4.91667 14.2 4.87222 14.1 4.78333ZM8.00005 13.8833C9.38894 13.8833 10.5667 13.4 11.5334 12.4333C12.5 11.4667 12.9834 10.2889 12.9834 8.9C12.9834 7.51111 12.5 6.33333 11.5334 5.36667C10.5667 4.4 9.38894 3.91667 8.00005 3.91667C6.61116 3.91667 5.43338 4.4 4.46672 5.36667C3.50005 6.33333 3.01672 7.51111 3.01672 8.9C3.01672 10.2889 3.50005 11.4667 4.46672 12.4333C5.43338 13.4 6.61116 13.8833 8.00005 13.8833Z" fill="#FF6961"/>
</g>
</svg>
