<svg width="152" height="423" viewBox="0 0 152 423" fill="none" xmlns="http://www.w3.org/2000/svg">
<path d="M110.343 59.8141C107.819 51.0558 112.938 41.8849 121.778 39.3303C130.618 36.7756 139.831 41.8045 142.355 50.5628C144.88 59.321 139.761 68.4919 130.921 71.0466C122.081 73.6012 112.868 68.5723 110.343 59.8141Z" fill="white"/>
<path d="M133.667 53.6353C133.798 53.6353 133.886 53.548 134.016 53.5043C134.932 53.024 135.325 51.8887 134.845 50.9717L132.752 46.9545C132.272 46.0375 131.138 45.6882 130.179 46.1685C129.263 46.6488 128.87 47.7841 129.35 48.7011L131.443 52.7183C131.879 53.548 132.795 53.8973 133.667 53.679V53.6353Z" fill="#2A46BB"/>
<path d="M121.151 80.3156C125.643 85.7737 126.079 93.6772 123.985 100.445C121.892 107.213 117.662 113.065 113.431 118.785C100.479 136.251 86.3926 153.935 66.8112 163.498C61.1853 166.249 54.3384 168.214 48.887 165.201C44.6131 162.843 42.3453 157.996 41.4295 153.237C39.4233 142.975 42.4325 132.146 47.8403 123.151C53.2481 114.156 60.9673 106.689 68.9917 99.834C78.0192 92.1489 87.7009 84.0708 97.9059 77.914C105.32 73.4601 115.307 73.2418 121.151 80.3592V80.3156Z" fill="white"/>
<path d="M88.1809 74.2452C87.7884 72.8916 87.3087 71.538 86.7417 70.1844C86.1748 68.8307 86.4365 69.4857 86.3056 69.1364C86.1748 68.7871 86.2184 68.8744 86.3056 69.1364C86.3056 69.0491 86.2184 68.9617 86.1748 68.8744C86.0876 68.6561 86.0003 68.4814 85.9131 68.2631C85.5642 67.5208 85.2154 66.7785 84.8665 66.0798C83.2529 62.9359 81.4212 59.8793 79.4587 56.9538C74.9231 50.142 69.8206 43.9415 64.282 37.9157C58.5253 31.6715 52.3762 25.7767 45.8345 20.4059C40.1214 15.69 34.2339 11.3671 27.5614 7.87391C26.1658 7.1316 24.7703 6.47662 23.3311 5.82164C21.8919 5.16666 22.677 5.55964 22.3717 5.42865C22.0664 5.29765 22.1972 5.34132 22.11 5.34132C22.1972 5.34132 22.3717 5.42865 22.11 5.34132C21.8919 5.25399 21.7175 5.21032 21.4995 5.12299C20.8453 4.90466 20.1911 4.68634 19.5369 4.46801C18.3594 4.11869 17.1383 3.81303 15.9172 3.63837C14.6961 3.46371 15.6556 3.63837 15.5247 3.5947C15.1322 3.55104 15.7428 3.5947 15.3503 3.5947C14.9578 3.5947 14.7833 3.55104 14.5217 3.50737C13.9983 3.50737 13.4314 3.50737 12.908 3.50737C12.3847 3.50737 12.3847 3.50737 12.1231 3.5947C11.8614 3.68203 11.5561 3.68203 12.0358 3.5947C11.905 3.5947 11.7742 3.5947 11.6869 3.63837C11.2072 3.7257 10.7275 3.8567 10.2914 4.03136C9.85527 4.20602 10.0733 4.11869 9.94249 4.16235C9.81166 4.20602 9.46275 4.38068 9.89887 4.16235C9.68081 4.24968 9.46277 4.38068 9.28833 4.46801C9.11388 4.55534 8.8958 4.68634 8.72136 4.81733C8.54691 4.94833 8.54693 4.94833 8.4597 4.99199C8.37248 5.03566 8.0236 5.38498 8.32887 5.07933C6.75887 6.52028 5.49415 8.09223 4.70915 10.0135C3.92415 11.9784 3.57525 14.0744 3.44442 16.083C3.22636 19.9692 3.74969 23.4624 4.66553 27.174C5.3633 30.0122 6.5408 33.0688 7.63108 35.5141C12.0358 45.3824 18.4467 54.3775 26.1222 61.9753C28.1719 63.9839 30.2653 65.9925 32.5767 67.7391C32.7075 67.8264 32.315 67.5644 32.6203 67.7828C32.9256 68.0011 32.8383 67.9138 32.9256 68.0011C33.1872 68.1758 33.4489 68.3504 33.7106 68.5251C34.3211 68.9181 34.9317 69.2674 35.5422 69.6167C38.7695 71.4507 42.1711 73.0226 45.5728 74.5509C49.4542 76.2538 53.2484 77.7821 57.217 79.1794C61.1856 80.5767 63.5842 81.3627 66.8987 81.8867C70.2131 82.4106 67.2039 81.9303 67.3784 81.974C67.7709 82.0177 67.1603 81.974 67.5528 81.974C67.9453 81.974 68.0326 81.974 68.2942 82.0177C68.5559 82.0613 68.7739 82.0177 68.992 82.0177C69.21 82.0177 69.2101 82.0177 69.2973 82.0177C68.9048 82.105 69.4717 82.0177 69.2973 82.0177L68.5123 84.0263C65.4595 78.3498 59.3539 75.1185 53.4664 72.9353C49.7595 71.538 45.8781 70.4463 42.0403 69.442C37.1995 68.2194 32.2714 67.2151 27.2997 66.5601C22.3281 65.9052 18.2722 65.6432 13.7803 66.2108C13.693 66.2108 13.6058 66.2108 13.5186 66.2108C13.8239 66.1671 13.4314 66.2108 13.3878 66.2108C13.1697 66.2108 12.908 66.2981 12.69 66.3418C12.2539 66.4291 11.8178 66.5165 11.3817 66.6475C10.9455 66.7785 10.5966 66.8658 10.2477 66.9968C9.89886 67.1278 9.89888 67.1278 9.72444 67.2151C10.0733 67.0841 9.54999 67.3024 9.41915 67.3461C9.11388 67.5208 8.80858 67.6954 8.5033 67.8701C8.19803 68.0448 7.93636 68.3067 8.28525 68.0448C8.15441 68.1757 8.0236 68.2631 7.89276 68.3941C7.76193 68.5251 7.67471 68.6561 7.54388 68.7871C7.41305 68.9181 7.45665 68.8744 7.45665 68.9181C7.2386 69.1364 7.6311 68.6561 7.45665 68.9181C7.28221 69.1801 7.06415 69.5294 6.93331 69.835C6.80248 70.1407 6.8461 70.0534 6.80248 70.1407C6.75887 70.3154 6.67164 70.49 6.62803 70.7083C6.4972 71.1013 6.40997 71.4943 6.32275 71.931C6.23552 72.3676 6.23553 72.5423 6.27914 72.193C6.27914 72.4113 6.27916 72.586 6.23554 72.8043C6.23554 73.1973 6.23554 73.6339 6.23554 74.0269C6.23554 74.4199 6.23553 74.3762 6.27914 74.5509C6.32276 74.7256 6.32276 74.9439 6.27914 74.5946C6.27914 74.6819 6.27913 74.8129 6.32275 74.9002C6.40997 75.2932 6.49721 75.6862 6.58443 76.0792C6.67165 76.4722 6.80248 76.7778 6.93331 77.1271C7.06415 77.4765 7.10775 77.5201 7.19497 77.7385C7.06413 77.4328 7.32581 78.0005 7.36942 78.1314C9.11387 81.6247 11.6869 84.2446 14.7833 86.7335C18.0978 89.4408 21.9792 91.755 25.9914 93.6763C30.0036 95.5976 33.8414 96.9949 38.1589 97.9555C39.1183 98.1738 40.1214 98.3485 41.0809 98.4795C42.0403 98.6105 41.5606 98.5668 41.8222 98.5668C42.0839 98.5668 42.0839 98.5668 41.8222 98.5668C41.9531 98.5668 42.0839 98.5668 42.1711 98.5668C42.6509 98.6105 43.1306 98.6542 43.5667 98.6542C44.3953 98.6542 45.2675 98.6542 46.0961 98.6542C46.9247 98.6542 46.8375 98.6105 47.23 98.5668C47.6225 98.5232 47.0556 98.5668 47.4481 98.5668C47.8406 98.5668 47.8842 98.4795 48.1023 98.4358C48.7564 98.3048 49.367 98.0865 49.9775 97.8245C50.5881 97.5625 51.4603 98.0865 51.6348 98.7415C51.8092 99.3965 51.3731 100.139 50.7189 100.401C47.4917 101.798 43.6975 101.536 40.3395 101.056C36.9814 100.575 31.5736 99.0035 27.4742 97.3005C23.1567 95.5103 19.0136 93.2397 15.263 90.5324C11.7741 87.9998 8.41609 85.0742 6.06109 81.45C4.09859 78.3934 2.87748 74.8129 3.61887 71.145C4.36026 67.4771 4.62193 67.8701 5.79943 66.6911C6.97693 65.4685 8.59054 64.7262 10.2041 64.2459C14.3908 62.9796 19.0136 63.1106 23.3311 63.4599C28.608 63.8965 33.7978 64.8135 38.9439 65.9925C43.3486 66.9968 47.7534 68.1757 52.0273 69.6604C56.3012 71.145 63.6714 74.2016 67.8145 78.6991C68.9484 79.9217 69.9078 81.2317 70.6928 82.6726C71.0853 83.3713 70.8237 84.4629 69.9078 84.6812C68.992 84.8996 67.5092 84.8122 66.3317 84.6376C64.8053 84.4193 63.3226 84.0263 61.8398 83.6333C57.9148 82.5416 54.0334 81.1007 50.2392 79.5724C46.3142 78.0005 42.4764 76.3412 38.6822 74.4636C35.8911 73.1099 33.0564 71.669 30.5706 69.7914C28.0847 67.9138 26.035 65.9052 23.9417 63.8092C21.6303 61.495 19.4497 59.0497 17.3564 56.5171C13.8239 52.1942 10.6839 47.522 8.02359 42.6315C6.06109 39.051 4.36025 35.3394 3.00831 31.4532C2.00525 28.4839 1.35108 25.4274 0.958577 22.3271C0.391632 17.9606 0.47886 13.3321 2.13608 9.18387C3.44442 5.95263 5.79942 3.02705 9.11387 1.71709C13.8239 -0.160516 19.4061 1.54243 23.8108 3.37638C30.4397 6.08363 36.4581 10.1008 42.1275 14.3364C48.9745 19.4452 55.3417 25.1654 61.36 31.2349C67.422 37.3917 73.135 43.9415 78.2812 50.8843C82.5987 56.7354 86.5673 62.9359 89.3148 69.6604C89.8381 70.9703 90.3178 72.2803 90.7103 73.6339C91.1901 75.2932 88.5734 76.0355 88.0937 74.3762L88.1809 74.2452Z" fill="#2A46BB"/>
<path d="M106.846 54.8148C107.675 58.308 108.765 61.7576 110.946 64.6395C113.126 67.5214 111.251 64.9888 111.077 64.8141C111.164 64.9451 111.251 65.0325 111.382 65.1635C111.6 65.4255 111.818 65.6438 112.036 65.8621C112.472 66.2988 112.908 66.6917 113.345 67.0411C114.26 67.827 115.263 68.5257 116.179 69.268C122.546 74.2459 126.82 81.3196 128.303 89.2667C129.524 95.9912 129.088 102.934 126.777 109.396C124.989 114.418 122.328 119.134 119.232 123.5C116.136 127.867 111.905 132.757 107.675 136.862C103.445 140.966 98.5603 145.115 93.6323 148.783C88.9659 152.232 84.0814 155.42 79.0225 158.258C73.9637 161.096 69.8206 163.017 64.9797 164.808C61.2292 166.161 57.2606 167.297 53.2047 167.471C50.3264 167.602 47.1428 167.209 44.9186 165.244C43.2178 163.76 42.0839 161.533 41.2553 159.481C40.165 156.861 39.6417 153.979 39.4672 151.141C39.0747 144.503 40.5139 137.779 42.5636 131.447C44.6133 125.116 48.2767 117.082 52.1581 110.444C55.9959 103.807 60.4006 97.4758 65.4159 91.6683C67.7709 88.9611 70.2131 86.2975 72.9606 83.9832C76.1878 81.2323 79.7639 78.918 83.5145 76.9094C90.5359 73.1542 98.2551 70.3596 106.149 69.3553C109.463 68.9187 112.778 69.006 116.048 69.53C117.4 69.7483 118.709 70.0103 120.061 70.2286C121.413 70.447 121.107 70.4033 121.805 70.447C122.503 70.4906 123.244 70.5343 123.986 70.447C125.686 70.3596 127.256 70.054 128.914 69.5737C130.571 69.0933 132.577 68.4384 134.147 67.5214C136.72 65.9931 138.726 63.7662 140.078 61.0589C142.869 55.4698 142.302 48.5706 138.29 43.6801C135.979 40.8419 132.533 38.5276 128.87 37.7416C124.771 36.8683 120.104 37.7416 116.31 39.5756C112.603 41.3222 109.42 44.0731 107.239 47.5227C106.759 48.265 105.32 48.5706 104.884 47.5663C103.881 45.2521 103.358 42.6758 103.227 40.1869C102.921 35.0344 104.579 29.9255 108.111 26.0393C110.99 22.8517 114.827 20.7121 118.84 19.1402C119.537 18.8782 120.322 19.4022 120.497 20.0572C120.671 20.7121 120.235 21.4545 119.581 21.7164C116.31 22.9827 113.17 24.773 110.771 27.1746C108.373 29.5762 109.768 28.2226 109.332 28.7902C108.896 29.3579 108.678 29.6199 108.286 30.2748C107.893 30.9298 107.631 31.3665 107.37 31.9778C107.108 32.5891 107.239 32.2398 107.195 32.3271C107.152 32.4145 107.021 32.7638 107.065 32.6328C107.108 32.5018 106.977 32.8074 106.977 32.8948C106.934 33.0694 106.846 33.2004 106.803 33.3751C106.454 34.4667 106.192 35.5584 106.018 36.6937C105.843 37.829 106.018 36.4753 106.018 36.65C106.018 36.8247 106.018 36.781 106.018 36.8683C106.018 36.9993 106.018 37.0866 106.018 37.2176C106.018 37.4796 106.018 37.7853 105.974 38.0473C105.974 38.5713 105.974 39.0516 105.974 39.5756C105.974 40.0996 106.018 40.4925 106.061 40.9292C106.105 41.3658 106.105 41.3658 106.149 41.5842C106.192 41.8025 106.149 41.8025 106.192 41.8898C106.192 41.7588 106.192 41.5842 106.192 41.8898C106.323 42.6321 106.454 43.3745 106.672 44.0731C106.89 44.7717 106.977 45.2084 107.195 45.7324C107.413 46.2564 107.631 46.7804 107.283 46.038H104.928C107.283 42.4138 110.553 39.3572 114.478 37.3923C118.403 35.4274 123.244 34.2484 127.693 34.7287C135.412 35.5584 142.259 41.6278 144.047 49.0946C145.835 56.5614 143.698 62.4125 139.032 67.0411C136.371 69.661 133.057 71.1019 129.481 72.1062C126.253 73.0232 123.07 73.2415 119.799 72.7612C116.528 72.2809 114.217 71.6696 111.295 71.6259C108.373 71.5823 104.622 72.0626 101.308 72.8486C93.4142 74.7262 85.7823 78.0447 79.1098 82.5859C72.9606 86.7778 67.9453 92.4106 63.4534 98.2618C58.787 104.375 54.6875 110.925 51.1986 117.78C47.8842 124.33 45.0931 131.229 43.4358 138.39C41.7786 145.551 42.2583 144.634 42.1711 147.866C42.0839 151.097 42.1711 150.879 42.3456 152.363C42.52 153.848 42.4764 153.455 42.6072 154.241C42.7381 155.027 42.9125 155.594 43.087 156.249C43.2614 156.904 43.4794 157.516 43.6975 158.171C43.9156 158.826 44.0464 159.044 44.3953 159.743C44.7442 160.441 45.0058 160.878 45.3547 161.402C45.7036 161.926 45.7036 161.926 45.9217 162.188C46.1397 162.45 46.0961 162.406 46.1833 162.537C46.0525 162.406 46.445 162.887 46.1833 162.537C46.3142 162.668 46.5759 162.93 46.7939 163.148C47.012 163.367 47.0119 163.323 47.0992 163.41C47.1864 163.498 46.7939 163.236 47.012 163.367C47.23 163.498 47.1428 163.454 47.1864 163.498C47.4481 163.672 47.7097 163.803 47.9714 163.934C48.2331 164.065 48.2331 164.022 48.3639 164.109C47.9714 163.934 48.3639 164.109 48.582 164.153C49.1925 164.371 49.8467 164.502 50.5009 164.589C50.4136 164.589 51.155 164.677 50.5009 164.589C50.5881 164.589 50.6753 164.589 50.7625 164.589C50.937 164.589 51.155 164.589 51.3295 164.589C51.722 164.589 52.0709 164.589 52.4634 164.589C53.292 164.589 54.1206 164.502 54.9492 164.415C55.7778 164.327 55.3417 164.371 55.5597 164.327C55.7778 164.284 55.2545 164.371 55.647 164.327C56.0395 164.284 55.865 164.327 55.9959 164.284C56.4756 164.196 56.9117 164.109 57.3914 164.022C59.4411 163.585 61.4473 163.018 63.4098 162.319C65.3723 161.62 65.6339 161.533 66.7242 161.096C67.8145 160.66 67.8581 160.616 68.3814 160.398C68.9048 160.179 68.6431 160.267 68.7739 160.223C68.9048 160.179 69.0356 160.136 68.7739 160.223C68.8175 160.223 68.9048 160.179 68.9484 160.136C69.2537 160.005 69.5589 159.874 69.8642 159.743C74.8359 157.472 79.6331 154.765 84.2559 151.839C89.2276 148.652 94.0684 145.115 98.4731 141.403C102.878 137.692 107.413 133.369 111.382 128.871C115.089 124.636 118.316 120.356 121.02 115.379C121.631 114.243 122.241 113.064 122.765 111.885C123.288 110.706 123.288 110.75 123.506 110.139C123.724 109.527 123.68 109.746 123.637 109.833C123.593 109.92 123.724 109.615 123.768 109.527C123.898 109.222 123.986 108.916 124.116 108.61C124.945 106.34 125.556 104.026 125.905 101.668C126.253 99.3098 125.905 101.406 125.948 101.275C125.992 101.144 125.992 100.838 125.948 101.1C125.948 100.794 126.035 100.489 126.035 100.183C126.166 98.9168 126.21 97.6505 126.21 96.3842C126.21 93.9826 126.035 91.5373 125.556 89.1794C124.64 84.7255 122.852 80.5337 120.148 76.9094C117.444 73.2852 116.092 72.3682 113.65 70.4906C111.208 68.613 109.725 67.3904 108.242 65.2945C106.149 62.3252 105.015 58.7883 104.186 55.2951C103.794 53.6358 106.367 52.8498 106.803 54.5528L106.846 54.8148Z" fill="#2A46BB"/>
<path d="M43.3485 180.57L46.4449 179.915C45.8779 176.335 46.2705 172.667 47.6224 168.824C49.018 164.982 51.0677 161.27 53.8152 157.733C58.3071 151.969 63.1044 147.734 68.1633 145.114C72.2627 147.341 75.708 148.782 78.5863 149.349C81.4211 149.917 83.3835 149.568 84.3866 148.214C85.3461 146.948 85.6077 145.682 85.128 144.328C84.6483 143.018 83.7324 141.926 82.3805 141.184C78.6299 139.044 74.0072 139.219 68.5122 141.708C60.008 136.425 57.653 131.316 61.4907 126.338C65.3285 121.36 64.9797 122.757 67.4219 121.491C69.8641 120.225 72.568 119.351 75.4899 118.915C79.3277 122.714 83.7761 126.076 88.8786 129.001C91.5825 130.53 94.33 131.665 97.1211 132.364C99.9122 133.062 101.962 132.582 103.27 130.923C104.666 129.132 104.666 127.08 103.183 124.81C101.7 122.539 99.4325 120.53 96.3797 118.784C94.0683 117.474 91.1464 116.513 87.7011 115.989C84.2122 115.465 80.6797 115.421 77.1036 115.858C72.8297 111.099 71.6958 107.387 73.7891 104.723C75.926 102.016 78.9352 100.357 82.9474 99.833C89.0966 104.854 95.8563 109.483 103.227 113.719C108.242 116.6 112.341 118.478 115.481 119.395C118.621 120.312 120.802 120.05 121.936 118.565C123.113 117.037 122.241 114.723 119.276 111.666C116.31 108.61 112.254 105.597 107.108 102.628C103.837 100.75 100.087 99.2216 95.9436 98.13C91.8005 96.9947 87.8755 96.5581 84.1686 96.7327C80.8541 94.0255 73.1349 89.0476 75.9261 85.0741C77.9758 82.1485 84.4738 81.6245 87.8319 82.0175C91.19 82.4105 95.2022 83.4148 99.7377 85.1614C104.317 86.8643 108.722 88.9603 113.083 91.4492C119.494 95.1171 124.247 98.2173 127.256 100.706C130.266 103.195 133.885 106.645 138.028 111.055L140.645 108.915C136.589 104.549 132.969 101.099 129.786 98.523C126.602 95.9467 121.674 92.7592 115.045 88.9166C110.335 86.2094 105.451 83.9824 100.348 82.1485C95.2894 80.3582 90.7538 79.3539 86.7852 79.1356C82.8166 78.9173 75.3591 80.3582 73.2222 84.2444C71.4777 87.432 72.7424 90.8816 80.0255 97.3877C76.2313 98.3483 73.2658 100.27 71.0416 103.108C68.2941 106.645 69.0355 111.099 73.353 116.382C66.8113 117.867 61.9269 120.618 58.7869 124.679C56.1266 128.084 55.516 131.359 56.9552 134.503C58.3944 137.647 61.1419 140.529 65.2413 143.193C62.6247 144.721 60.0952 146.642 57.6094 148.956C55.1235 151.271 52.943 153.629 51.0241 156.074C48.0585 159.916 45.8343 163.934 44.3516 168.213C42.8688 172.448 42.5199 176.553 43.2177 180.483L43.3485 180.57ZM87.7883 99.7456C93.5886 100.051 99.4325 101.885 105.233 105.204C109.332 107.562 112.821 110.007 115.699 112.496C118.578 114.985 119.755 116.513 119.363 117.081C118.97 117.648 117.531 117.299 115.002 116.251C112.472 115.203 109.201 113.544 105.276 111.273C99.6941 108.042 93.8502 104.199 87.8319 99.7456H87.7883ZM79.8511 118.478C82.6422 118.347 85.3461 118.565 87.9191 119.046C90.4922 119.526 92.7163 120.268 94.5044 121.316C97.0338 122.757 98.8655 124.242 100.043 125.77C101.177 127.298 101.395 128.477 100.697 129.394C100.217 130.006 98.9091 129.962 96.8594 129.22C94.7661 128.477 92.8036 127.56 90.9283 126.512C86.8288 124.155 83.1219 121.491 79.8511 118.478ZM71.7394 143.455C75.2719 142.232 78.1938 142.319 80.5052 143.629C82.1625 144.59 82.5549 145.551 81.7699 146.599C80.9849 147.647 80.3744 146.948 78.5863 146.424C76.7983 145.9 74.5305 144.896 71.783 143.411L71.7394 143.455Z" fill="url(#paint0_linear_1123_7398)"/>
<path d="M110.815 422.389L112.69 420.555C109.681 417.498 107.021 414.136 104.797 410.512L102.572 411.909C104.927 415.664 107.719 419.201 110.815 422.389ZM99.3017 406.058L101.657 404.922C99.7814 400.993 98.3858 396.932 97.6008 392.827L95.0278 393.351C95.9 397.63 97.3392 401.909 99.3017 406.014V406.058ZM94.1555 386.714L96.7722 386.539C96.7722 386.321 96.7722 386.059 96.7722 385.841C96.7722 385.186 96.7286 384.487 96.7286 383.832C96.7286 380.513 97.1211 377.195 97.9061 373.92L95.3766 373.309C94.548 376.758 94.1555 380.295 94.1555 383.832C94.1555 387.369 94.1555 385.273 94.1991 385.972C94.1991 386.234 94.1991 386.452 94.1991 386.714H94.1555ZM99.7378 367.851C101.395 363.79 103.576 360.165 106.279 357.109L104.317 355.362C101.439 358.637 99.0836 362.523 97.2955 366.89L99.7378 367.851ZM110.902 352.83C111.469 352.393 112.036 352 112.647 351.607C115.656 349.642 119.014 348.288 122.198 347.066L121.282 344.621C117.967 345.887 114.478 347.328 111.251 349.424C110.597 349.86 109.986 350.297 109.376 350.734L110.946 352.83H110.902ZM128.303 344.752C130.702 343.791 133.798 342.481 136.72 340.603L136.938 340.472C137.854 339.861 138.944 339.206 140.034 338.42L138.552 336.28C137.505 337.023 136.458 337.678 135.543 338.289L135.324 338.42C132.577 340.167 129.611 341.433 127.344 342.35L128.303 344.795V344.752ZM145.268 334.097C148.931 330.429 150.981 326.412 151.417 321.871L148.8 321.609C148.408 325.539 146.62 329.032 143.393 332.263L145.224 334.097H145.268ZM148.321 315.758L150.763 314.797C149.542 311.741 146.576 308.378 141.735 304.579L140.122 306.632C144.614 310.125 147.318 313.138 148.321 315.758ZM134.888 302.833L136.371 300.65C133.1 298.423 129.611 296.239 126.253 294.143L125.294 293.532L123.898 295.759L124.858 296.37C128.172 298.466 131.661 300.606 134.888 302.789V302.833ZM118.316 292.266L119.755 290.083C117.488 288.598 115.83 287.419 114.435 286.371C112.778 285.105 111.251 283.62 109.899 282.048L107.937 283.751C109.419 285.454 111.033 287.026 112.821 288.423C114.26 289.515 116.005 290.738 118.316 292.266ZM104.055 278.206L106.323 276.939C104.273 273.271 102.965 269.254 102.485 265.062L99.8686 265.368C100.392 269.953 101.787 274.276 104.012 278.249L104.055 278.206ZM107.631 264.931C107.806 264.931 107.98 264.931 108.155 264.931V262.311C107.937 262.311 107.806 262.311 107.631 262.311C104.753 262.311 101.657 261.744 98.3858 260.565C97.5136 260.259 96.685 259.953 95.8564 259.648L94.9405 262.093C95.7691 262.399 96.6414 262.748 97.5136 263.054C101.046 264.32 104.448 264.975 107.631 264.975V264.931ZM115.002 263.534C116.005 263.097 117.008 262.573 117.88 261.918C120.715 259.91 122.764 256.417 123.375 252.618L120.802 252.225C120.322 255.369 118.665 258.207 116.397 259.822C115.656 260.346 114.827 260.783 113.999 261.176L115.045 263.578L115.002 263.534ZM88.835 259.604L89.8817 257.203C85.7386 255.369 81.9008 253.36 78.4555 251.22L77.06 253.447C80.5925 255.674 84.5611 257.727 88.7914 259.604H88.835ZM102.354 258.731C102.485 256.81 102.791 254.888 103.27 253.011C103.75 251.002 104.797 248.993 106.236 247.247L104.23 245.588C102.572 247.64 101.351 249.998 100.784 252.356C100.305 254.364 99.9558 256.46 99.825 258.469L102.442 258.643L102.354 258.731ZM71.6086 249.692L73.1786 247.596C69.6897 244.976 66.5061 242.051 63.7586 238.95L61.7961 240.697C64.6744 243.928 67.9452 246.985 71.6086 249.736V249.692ZM120.148 246.505L122.546 245.413C121.892 244.016 120.976 242.793 119.755 241.876C118.185 240.653 116.354 240.042 114.391 240.042C112.429 240.042 111.295 240.435 109.725 241.177L110.859 243.535C113.563 242.269 116.136 242.4 118.185 243.972C119.058 244.627 119.712 245.457 120.191 246.505H120.148ZM57.653 235.414L59.7899 233.929C57.3913 230.523 55.3416 226.768 53.5972 222.751L51.1985 223.799C52.9866 227.99 55.1672 231.92 57.653 235.457V235.414ZM48.8435 217.511L51.3294 216.681C50.5444 214.323 49.8466 211.834 49.2796 209.214C48.8871 207.599 48.5383 205.896 48.233 204.149L45.6599 204.629C45.9652 206.42 46.3577 208.166 46.7502 209.826C47.3608 212.489 48.1022 215.065 48.8872 217.511H48.8435ZM44.6133 198.08L47.1863 197.73C46.663 193.757 46.2705 189.521 45.9652 184.762L43.3485 184.936C43.6538 189.74 44.0899 194.062 44.6133 198.08Z" fill="url(#paint1_linear_1123_7398)"/>
<defs>
<linearGradient id="paint0_linear_1123_7398" x1="140.349" y1="107.655" x2="31.3865" y2="139.066" gradientUnits="userSpaceOnUse">
<stop stop-color="#6FF9D8"/>
<stop offset="1" stop-color="#C3B7FF"/>
</linearGradient>
<linearGradient id="paint1_linear_1123_7398" x1="151.461" y1="303.619" x2="43.3485" y2="303.619" gradientUnits="userSpaceOnUse">
<stop stop-color="#6FF9D8"/>
<stop offset="1" stop-color="#C3B7FF"/>
</linearGradient>
</defs>
</svg>
