<svg width="71" height="64" viewBox="0 0 71 64" fill="none" xmlns="http://www.w3.org/2000/svg">
<path d="M69.8309 37.7836C69.8173 33.9969 69.8121 30.2101 69.8125 26.4234C69.8129 23.0858 69.8178 19.7482 69.8265 16.4106C69.8329 14.0007 69.8412 11.5907 69.8518 9.1808C69.8565 8.129 69.9061 7.06668 69.8675 6.01532C69.867 6.00088 69.8677 5.98632 69.8677 5.97184C69.8688 5.79455 69.7533 5.56875 69.5489 5.56875C68.9364 5.56875 68.3238 5.56875 67.7113 5.56875C66.1602 5.56875 64.6092 5.56875 63.0581 5.56875C63.8096 4.82063 64.388 3.91844 64.4962 2.89508C64.5876 2.03067 64.2928 1.1333 63.6473 0.538829C63.0298 -0.0297336 62.1596 -0.132544 61.4391 0.30979C59.8002 1.31602 59.7203 3.64067 60.3819 5.24145C60.4277 5.35233 60.4778 5.46135 60.5313 5.56875C58.8032 5.56875 57.0751 5.56875 55.3471 5.56875C55.2357 5.56875 55.1244 5.56875 55.0131 5.56875C55.5155 4.98132 55.9304 4.32672 56.2285 3.63849C56.6073 2.76415 56.6978 1.70653 56.1799 0.866763C55.7293 0.13633 54.904 -0.188122 54.089 0.110578C52.3987 0.730012 51.9669 2.86652 52.4543 4.41185C52.5825 4.81814 52.7634 5.20668 52.9879 5.56875C51.3113 5.56875 49.6346 5.56875 47.9579 5.56875C48.8315 4.702 49.4989 3.61792 49.4234 2.40437C49.3729 1.59387 48.9569 0.719371 48.2402 0.293651C47.5062 -0.142394 46.6421 -0.00354613 46.0132 0.555404C44.6376 1.77813 44.6269 3.99416 45.3914 5.54446C45.3954 5.55261 45.3997 5.5606 45.4038 5.56871C43.5765 5.56871 41.7491 5.56871 39.9218 5.56871C39.9336 5.55475 39.9457 5.54098 39.9574 5.52694C40.5362 4.83674 41.0713 3.99871 41.3177 3.12717C41.5641 2.25591 41.4934 1.20743 40.8325 0.524628C40.2253 -0.102837 39.3449 -0.144768 38.6191 0.302116C37.0809 1.24921 36.8928 3.26372 37.5108 4.81628C37.6144 5.07634 37.7425 5.328 37.891 5.56875C37.439 5.56875 36.9871 5.56875 36.5352 5.56875C35.3131 5.56875 34.0911 5.56875 32.869 5.56875C33.7539 4.69096 34.4327 3.58766 34.331 2.36268C34.2635 1.54984 33.8453 0.689781 33.1167 0.274188C32.3601 -0.157347 31.4751 0.02276 30.859 0.615967C29.575 1.85211 29.5115 4.01512 30.2563 5.5464C30.26 5.55392 30.264 5.56127 30.2677 5.56875C29.0487 5.56875 27.8297 5.56875 26.6107 5.56875C26.0299 5.56875 25.4491 5.56875 24.8684 5.56875C24.8697 5.56701 24.8711 5.56531 24.8725 5.56357C25.4463 4.82677 26.0002 3.97082 26.2459 3.06261C26.4867 2.17256 26.3705 1.1159 25.6707 0.454017C25.0464 -0.136461 24.1814 -0.112568 23.4838 0.33127C21.955 1.30395 21.8063 3.35332 22.4541 4.89492C22.5516 5.12713 22.6684 5.35249 22.8018 5.56879C21.1259 5.56879 19.4499 5.56879 17.774 5.56879C18.7015 4.64551 19.4086 3.46938 19.2178 2.16722C19.1001 1.36456 18.6397 0.571861 17.8951 0.205556C17.119 -0.176294 16.2477 0.105079 15.6757 0.711776C14.4589 2.00231 14.4804 4.04744 15.2475 5.56879C13.4262 5.56879 11.6048 5.56879 9.78353 5.56879C9.82649 5.51309 9.86898 5.45708 9.91063 5.40051C10.4716 4.63855 11.0117 3.77607 11.2124 2.8414C11.3999 1.96765 11.1871 0.944336 10.4746 0.356389C9.80486 -0.196232 8.91504 -0.0516088 8.25312 0.425299C6.80812 1.46646 6.73272 3.51116 7.41652 5.01178C7.5037 5.20308 7.60366 5.38912 7.71482 5.56883C6.43857 5.56883 5.16232 5.56883 3.88611 5.56883C2.99701 5.56883 2.10649 5.55431 1.21747 5.56883C1.18017 5.56942 1.14282 5.56883 1.10548 5.56883C0.787357 5.56883 0.579244 5.90661 0.577385 6.19507C0.570383 7.27495 0.562629 8.35488 0.554837 9.43476C0.533792 12.3451 0.511205 15.2554 0.48743 18.1657C0.453094 22.3674 0.416187 26.5691 0.37659 30.7708C0.329397 35.7769 0.278368 40.7829 0.222394 45.7889C0.163611 51.0443 0.0994488 56.2997 0.0269395 61.5549C0.0181181 62.1949 0.00913818 62.835 3.99102e-05 63.4751C-0.00249178 63.6527 0.115548 63.8779 0.318875 63.8782C0.809747 63.879 1.30066 63.8798 1.79153 63.8806C3.13491 63.8829 4.47833 63.8851 5.82171 63.8873C7.80066 63.8906 9.77966 63.8939 11.7586 63.8972C14.1725 63.9011 16.5864 63.9051 19.0002 63.9091C21.6558 63.9135 24.3112 63.9179 26.9667 63.9223C29.6358 63.9267 32.3048 63.9311 34.9738 63.9356C37.4626 63.9397 39.9514 63.9438 42.4402 63.9479C44.544 63.9514 46.6478 63.9549 48.7515 63.9583C50.2655 63.9608 51.7795 63.9634 53.2935 63.9659C54.0135 63.967 54.7353 63.9834 55.4552 63.9694C55.4621 63.9693 55.469 63.9695 55.4758 63.9695C55.5136 63.9774 55.5535 63.9779 55.5947 63.9697C56.0434 63.9704 56.4921 63.9711 56.9408 63.9719C58.0635 63.9737 59.1861 63.9756 60.3088 63.9775C61.6612 63.9797 63.0137 63.9819 64.3661 63.9842C65.5411 63.9861 66.7161 63.9881 67.8911 63.99C68.4588 63.9909 69.0299 64.0101 69.5975 63.9928C69.6056 63.9926 69.6139 63.9928 69.6221 63.9928C69.9321 63.9934 70.159 63.6545 70.1501 63.3666C70.0399 59.8067 69.8442 41.5213 69.8309 37.7836ZM67.3943 55.8021C67.382 55.8271 67.3558 55.8808 67.3495 55.8933C67.3072 55.9784 67.2641 56.063 67.2201 56.1472C67.1308 56.3183 67.0379 56.4876 66.9417 56.655C66.7488 56.9904 66.542 57.3177 66.3212 57.6355C66.2044 57.8037 66.0836 57.9692 65.959 58.1317C65.9028 58.205 65.8459 58.2776 65.7882 58.3497C65.7554 58.3904 65.7225 58.431 65.6893 58.4715C65.676 58.4876 65.6626 58.5037 65.6494 58.5198C65.6481 58.5212 65.6473 58.5222 65.6459 58.5238C65.3683 58.8455 65.0811 59.1572 64.7747 59.4519C64.4628 59.7517 64.1347 60.0335 63.7939 60.2998C63.7727 60.316 63.7348 60.3451 63.721 60.3554C63.6745 60.3902 63.6277 60.4247 63.5807 60.4588C63.4857 60.5279 63.3898 60.5955 63.2929 60.6618C63.1006 60.7934 62.9048 60.9196 62.7055 61.0404C62.4946 61.1682 62.28 61.2899 62.0621 61.4055C61.9569 61.4614 61.8508 61.5158 61.7441 61.5688C61.7187 61.5814 61.6933 61.5938 61.6679 61.6063C61.6666 61.607 61.6659 61.6073 61.6647 61.6079C61.6636 61.6084 61.6629 61.6087 61.6617 61.6092C61.6033 61.6366 61.545 61.6642 61.4864 61.691C61.0052 61.9112 60.5113 62.1033 60.0087 62.269C59.7469 62.3553 59.4827 62.4344 59.2167 62.5067C59.1577 62.5228 59.0986 62.5382 59.0395 62.5536C59.0298 62.5558 58.9245 62.5824 58.9067 62.5867C58.7616 62.6217 58.616 62.6548 58.4701 62.6861C58.1715 62.7499 57.8712 62.8057 57.5697 62.8542C59.5134 61.4252 60.9166 59.2862 61.2518 56.8561C61.3495 56.1478 61.3618 55.4383 61.2925 54.7328C62.6488 54.9837 64.0806 54.8679 65.3655 54.3677C66.6751 53.8579 67.8369 52.9735 68.6844 51.852C68.6728 51.9117 68.6619 51.9715 68.6497 52.0311C68.5273 52.6263 68.3739 53.2154 68.1889 53.7943C67.9776 54.4552 67.7249 55.103 67.4284 55.7304C67.425 55.7379 67.4061 55.7775 67.3943 55.8021ZM61.4517 1.54783C61.9002 1.08999 62.5589 0.922223 63.1027 1.32144C63.6079 1.69225 63.8047 2.34171 63.6655 2.93876C63.499 3.65305 62.9951 4.26497 62.4802 4.7643C62.1838 5.05173 61.8673 5.32013 61.5332 5.564C61.4975 5.51333 61.4625 5.46218 61.4288 5.4102C60.7013 4.28756 60.4279 2.5931 61.4517 1.54783ZM59.6142 6.59808C58.557 6.98875 57.4068 7.1382 56.3023 6.87028C56.0344 6.80528 55.7731 6.71335 55.5223 6.59808C56.8863 6.59808 58.2502 6.59808 59.6142 6.59808ZM54.1621 1.20917C54.719 0.930649 55.3826 1.05664 55.6415 1.66959C55.929 2.35026 55.5682 3.11388 55.2165 3.69858C54.8553 4.29899 54.4144 4.85647 53.9054 5.34078C53.692 5.07645 53.5093 4.78776 53.3653 4.47981C52.8486 3.37448 52.943 1.81884 54.1621 1.20917ZM52.0575 6.59808C50.6319 7.2365 48.9258 7.33306 47.5995 6.59808C49.0855 6.59808 50.5715 6.59808 52.0575 6.59808ZM46.2595 1.66247C46.6533 1.18675 47.3023 0.906083 47.8807 1.23291C48.3835 1.51713 48.6792 2.12921 48.6172 2.6973C48.5358 3.44339 48.0432 4.10369 47.5329 4.62348C47.1967 4.96593 46.8305 5.28465 46.4403 5.56871C46.4335 5.56871 46.4266 5.56871 46.4198 5.56871C46.3868 5.52488 46.3542 5.48038 46.3225 5.43449C45.579 4.35765 45.3791 2.72617 46.2595 1.66247ZM44.5258 6.59808C43.5266 6.96818 42.4467 7.12206 41.3951 6.91027C41.0655 6.84389 40.7443 6.73808 40.4386 6.59808C41.5706 6.59808 42.7025 6.59808 43.8345 6.59808C44.0649 6.59808 44.2953 6.59808 44.5258 6.59808ZM38.9482 1.27753C39.4547 0.96182 40.1279 0.964589 40.4724 1.51227C40.867 2.13993 40.5526 2.92202 40.2334 3.50791C39.8619 4.19001 39.3887 4.82008 38.8263 5.35514C38.6443 5.13168 38.4846 4.89006 38.3518 4.63309C37.7814 3.52959 37.7821 2.00444 38.9482 1.27753ZM36.9627 6.59808C36.0623 6.99184 35.0696 7.17891 34.0887 7.05011C33.5917 6.98488 33.078 6.83207 32.6045 6.59808C33.0397 6.59808 33.4748 6.59808 33.91 6.59808C34.9275 6.59808 35.9451 6.59808 36.9627 6.59808ZM31.0473 5.21427C30.4177 4.13209 30.3453 2.49591 31.2739 1.54783C31.721 1.09137 32.3827 0.923409 32.925 1.32144C33.3986 1.66911 33.6086 2.27482 33.5067 2.84291C33.3717 3.5966 32.8365 4.24638 32.3024 4.7643C32.0041 5.05355 31.6854 5.32361 31.3488 5.56879C31.3293 5.56879 31.3099 5.56879 31.2904 5.56879C31.201 5.45637 31.1194 5.33829 31.0473 5.21427ZM29.4364 6.59808C28.3791 6.98875 27.2289 7.13816 26.1246 6.87028C25.8567 6.80528 25.5954 6.71335 25.3446 6.59808C26.7085 6.59808 28.0724 6.59808 29.4364 6.59808ZM23.9843 1.20917C24.5421 0.930293 25.2038 1.05423 25.4637 1.66959C25.7527 2.35382 25.3792 3.10743 25.037 3.69755C24.685 4.30472 24.2681 4.8901 23.784 5.40961C23.5461 5.12693 23.344 4.81466 23.1875 4.47985C22.6708 3.37468 22.7648 1.81884 23.9843 1.20917ZM22.3462 6.59808C22.314 6.61766 22.2818 6.63709 22.2492 6.65603C21.2843 7.2189 20.137 7.53896 19.02 7.33148C18.4071 7.21763 17.8161 6.96118 17.3003 6.59804C18.9822 6.59808 20.6642 6.59808 22.3462 6.59808ZM16.0604 5.27203C15.3925 4.14891 15.1965 2.45908 16.2494 1.4858C16.7201 1.05063 17.3855 0.942199 17.8997 1.37057C18.3599 1.75396 18.5299 2.36576 18.3988 2.93868C18.2354 3.65242 17.7266 4.26659 17.2135 4.76423C16.9149 5.05375 16.596 5.32361 16.2593 5.56871C16.2578 5.56871 16.2564 5.56871 16.2549 5.56871C16.1858 5.47259 16.1208 5.37365 16.0604 5.27203ZM14.3466 6.59808C13.2626 6.99825 12.0782 7.14604 10.9514 6.849C10.7123 6.78598 10.479 6.70152 10.2542 6.59808C11.6183 6.59808 12.9825 6.59808 14.3466 6.59808ZM8.93269 1.19149C9.50058 0.923014 10.1554 1.08777 10.3934 1.70997C10.6646 2.41861 10.2494 3.19493 9.89307 3.79126C9.54488 4.37399 9.1495 4.91866 8.68913 5.40126C8.43592 5.09881 8.2233 4.763 8.06325 4.40231C7.57293 3.29723 7.7189 1.76532 8.93269 1.19149ZM54.2837 62.9378C52.9404 62.9355 51.597 62.9333 50.2536 62.9311C48.2746 62.9278 46.2956 62.9245 44.3166 62.9213C41.9028 62.9173 39.4889 62.9133 37.075 62.9093C34.4196 62.9049 31.7641 62.9005 29.1085 62.8961C26.4395 62.8917 23.7705 62.8873 21.1014 62.8828C18.6127 62.8787 16.1238 62.8746 13.6351 62.8705C11.5313 62.867 9.42751 62.8635 7.32375 62.8601C5.80976 62.8576 4.29573 62.855 2.78174 62.8525C2.15146 62.8515 1.48848 62.7947 0.852746 62.8313C0.924899 57.719 0.988943 52.6065 1.04749 47.4941C1.10552 42.4271 1.15821 37.36 1.20691 32.2929C1.24848 27.9669 1.28713 23.6408 1.32305 19.3148C1.3488 16.2159 1.37317 13.1171 1.39591 10.0182C1.40264 9.10122 1.4092 8.18427 1.41557 7.26732C1.41708 7.04789 1.42918 6.82273 1.43484 6.59812C1.86788 6.59812 2.30087 6.59812 2.73391 6.59812C4.21218 6.59812 5.69046 6.59812 7.16873 6.59812C6.36488 7.06775 5.48721 7.41629 4.62267 7.765C4.45879 7.54747 4.19838 7.40676 3.90506 7.40676C3.40912 7.40676 3.0071 7.80878 3.0071 8.30472C3.0071 8.80065 3.40912 9.20268 3.90506 9.20268C4.16764 9.20268 4.40384 9.08994 4.56805 8.91027C5.88777 8.37043 7.2537 7.85507 8.39312 6.97977C8.49553 6.90109 8.59542 6.81921 8.69304 6.73475C9.38693 7.35704 10.2412 7.80127 11.151 7.96646C12.9063 8.28518 14.6628 7.77275 16.151 6.84397C16.9179 7.65261 17.931 8.23621 19.0343 8.3982C20.4858 8.61125 21.9021 8.13969 23.0847 7.30573C23.3304 7.13247 23.5643 6.94326 23.7871 6.74164C24.4445 7.32958 25.2449 7.75831 26.0942 7.9377C27.8909 8.31718 29.7137 7.79632 31.2432 6.84156C31.9886 7.51258 32.9562 7.94922 33.941 8.09012C35.4263 8.30262 36.9126 7.90143 38.1711 7.1062C38.3869 6.96984 38.5938 6.82265 38.7924 6.66565C39.4426 7.27203 40.2419 7.72053 41.0923 7.91777C42.9104 8.33941 44.7829 7.81147 46.3338 6.84037C47.0071 7.49814 47.87 7.95543 48.8113 8.11726C50.6279 8.42956 52.4446 7.7953 53.8811 6.6588C54.4309 7.17503 55.0877 7.57674 55.8046 7.81258C57.5406 8.38368 59.4861 7.95404 61.0382 7.07222C61.1615 7.00216 61.2864 6.92807 61.4117 6.85022C62.1668 7.68703 63.1566 8.32925 64.1988 8.69389C64.6771 8.86126 65.2082 8.99366 65.7365 9.0422C65.8888 9.32155 66.185 9.51115 66.5256 9.51115C67.0215 9.51115 67.4235 9.10913 67.4235 8.61319C67.4235 8.11726 67.0215 7.71523 66.5256 7.71523C66.2742 7.71523 66.0472 7.81856 65.8842 7.98494C65.4851 7.95764 65.0853 7.87402 64.7109 7.76701C63.9136 7.53912 63.1427 7.13769 62.4938 6.59816C63.8489 6.59816 65.204 6.59816 66.5591 6.59816C67.3693 6.59816 68.2058 6.65576 69.0187 6.61161C69.0147 7.3263 69.011 8.04103 69.0078 8.75572C68.9973 11.0199 68.9891 13.2841 68.9825 15.5483C68.9732 18.7957 68.9675 22.0431 68.966 25.2905C68.9642 29.0434 68.9678 32.7964 68.9791 36.5493C68.9907 40.3768 69.0099 44.2043 69.0427 48.0317C69.0459 48.3987 69.0493 48.7658 69.0527 49.1328C68.9929 49.2046 68.956 49.5532 68.9535 49.6365C68.623 50.702 67.9615 51.629 67.0982 52.3675C66.0892 53.2306 64.763 53.7666 63.3996 53.8608C62.5652 53.9186 61.7374 53.8244 60.9362 53.5852C60.5362 53.4658 60.2212 53.9805 60.2892 54.3206C60.5922 55.8352 60.4488 57.4398 59.8325 58.8598C59.3143 60.0534 58.5259 61.0562 57.4921 61.8908C57.001 62.2872 56.3968 62.6629 55.7922 62.94C55.7884 62.9401 55.7847 62.9401 55.781 62.9402C55.7728 62.9404 55.7645 62.9402 55.7564 62.9402C55.2655 62.9394 54.7746 62.9385 54.2837 62.9378ZM68.4376 62.9611C67.3149 62.9593 66.1923 62.9574 65.0696 62.9556C63.7172 62.9533 62.3648 62.9511 61.0123 62.9488C60.8355 62.9486 60.6588 62.9482 60.482 62.948C61.1925 62.7021 61.8859 62.4056 62.5551 62.0532C64.2127 61.1806 65.6598 59.9516 66.8083 58.4741C67.76 57.2499 68.4886 55.8536 69.0107 54.3958C69.0442 54.3023 69.0765 54.2084 69.1083 54.1143C69.1388 56.3944 69.1776 58.6743 69.2317 60.954C69.2475 61.6235 69.2656 62.2931 69.2849 62.9626C69.0025 62.9621 68.7201 62.9616 68.4376 62.9611Z" fill="#DEF7F6"/>
<path d="M17.4989 17.2905C17.437 17.2399 17.3545 17.21 17.2586 17.2104C14.5361 17.2236 11.8136 17.2364 9.09106 17.2492C8.31505 17.2528 7.53905 17.2565 6.76309 17.2601C6.47732 17.2615 6.14298 17.5337 6.1501 17.8367C6.21414 20.5721 6.27783 23.3075 6.34148 26.0429C6.34623 26.247 6.5075 26.3757 6.70407 26.3752C9.37663 26.3689 12.0492 26.3627 14.7218 26.3565C15.4816 26.3547 16.2414 26.3529 17.0012 26.3511C17.2927 26.3504 17.6141 26.0772 17.6142 25.7745C17.6146 23.6699 17.6158 21.5654 17.6184 19.4608C17.6191 18.8215 17.6201 18.1822 17.6212 17.5428C17.6214 17.4302 17.5725 17.3458 17.4989 17.2905ZM9.23402 25.4609C8.59243 25.4624 7.95085 25.4639 7.30926 25.4654C7.25261 23.0323 7.19593 20.5993 7.139 18.1662C9.65274 18.1544 12.1664 18.1426 14.6802 18.1306C15.3352 18.1275 15.9901 18.1244 16.6451 18.1212C16.6416 20.2489 16.6399 22.3766 16.639 24.5043C16.6389 24.8174 16.6388 25.1305 16.6388 25.4435C14.1705 25.4494 11.7023 25.4551 9.23402 25.4609Z" fill="#DEF7F6"/>
<path d="M32.8759 17.2905C32.814 17.2399 32.7315 17.21 32.6356 17.2104C29.9131 17.2236 27.1906 17.2364 24.4681 17.2492C23.6921 17.2528 22.9161 17.2565 22.1401 17.2601C21.8543 17.2615 21.52 17.5337 21.5271 17.8367C21.5912 20.5721 21.6549 23.3075 21.7185 26.0429C21.7232 26.247 21.8845 26.3757 22.0811 26.3752C24.7536 26.3689 27.4262 26.3627 30.0988 26.3565C30.8586 26.3547 31.6184 26.3529 32.3782 26.3511C32.6697 26.3504 32.9911 26.0772 32.9912 25.7745C32.9916 23.6699 32.9928 21.5654 32.9954 19.4608C32.9962 18.8215 32.997 18.1822 32.9982 17.5428C32.9984 17.4302 32.9495 17.3458 32.8759 17.2905ZM24.6111 25.4609C23.9695 25.4624 23.3279 25.4639 22.6863 25.4654C22.6297 23.0323 22.573 20.5993 22.5161 18.1662C25.0298 18.1544 27.5435 18.1426 30.0572 18.1306C30.7122 18.1275 31.3672 18.1244 32.0222 18.1212C32.0186 20.2489 32.017 22.3766 32.0161 24.5043C32.016 24.8174 32.0159 25.1305 32.0158 25.4435C29.5475 25.4494 27.0793 25.4551 24.6111 25.4609Z" fill="#DEF7F6"/>
<path d="M48.2529 17.2905C48.191 17.2399 48.1085 17.21 48.0126 17.2104C45.2901 17.2236 42.5676 17.2364 39.8451 17.2492C39.0691 17.2528 38.2931 17.2565 37.5171 17.2601C37.2314 17.2615 36.897 17.5337 36.9041 17.8367C36.9682 20.5721 37.0319 23.3075 37.0955 26.0429C37.1003 26.247 37.2615 26.3757 37.4581 26.3752C40.1307 26.3689 42.8033 26.3627 45.4758 26.3565C46.2356 26.3547 46.9954 26.3529 47.7552 26.3511C48.0467 26.3504 48.3682 26.0772 48.3682 25.7745C48.3686 23.6699 48.3699 21.5654 48.3724 19.4608C48.3732 18.8215 48.3741 18.1822 48.3752 17.5428C48.3754 17.4302 48.3265 17.3458 48.2529 17.2905ZM39.9881 25.4609C39.3465 25.4624 38.7049 25.4639 38.0633 25.4654C38.0066 23.0323 37.95 20.5993 37.893 18.1662C40.4068 18.1544 42.9205 18.1426 45.4342 18.1306C46.0892 18.1275 46.7441 18.1244 47.3991 18.1212C47.3956 20.2489 47.3939 22.3766 47.393 24.5043C47.3929 24.8174 47.3928 25.1305 47.3927 25.4435C44.9245 25.4494 42.4563 25.4551 39.9881 25.4609Z" fill="#DEF7F6"/>
<path d="M52.8351 26.3753C55.5077 26.3689 58.1803 26.3628 60.8528 26.3565C61.6126 26.3547 62.3724 26.353 63.1322 26.3511C63.4238 26.3504 63.7452 26.0773 63.7452 25.7745C63.7456 23.67 63.7469 21.5654 63.7494 19.4609C63.7502 18.8215 63.7511 18.1822 63.7522 17.5429C63.7524 17.4303 63.7036 17.3458 63.6299 17.2905C63.568 17.24 63.4855 17.21 63.3896 17.2105C60.6671 17.2236 57.9446 17.2365 55.2221 17.2493C54.4461 17.2529 53.6701 17.2566 52.8941 17.2602C52.6084 17.2615 52.274 17.5337 52.2812 17.8368C52.3452 20.5722 52.4089 23.3076 52.4725 26.043C52.4773 26.247 52.6386 26.3758 52.8351 26.3753ZM60.8113 18.1306C61.4663 18.1275 62.1212 18.1244 62.7762 18.1212C62.7726 20.2489 62.771 22.3766 62.7701 24.5043C62.77 24.8174 62.7699 25.1305 62.7698 25.4435C60.3016 25.4494 57.8334 25.4551 55.3651 25.4609C54.7235 25.4624 54.0819 25.4639 53.4404 25.4654C53.3837 23.0323 53.327 20.5993 53.2701 18.1662C55.7838 18.1544 58.2975 18.1426 60.8113 18.1306Z" fill="#DEF7F6"/>
<path d="M17.4989 31.4055C17.437 31.355 17.3545 31.325 17.2586 31.3255C14.5361 31.3386 11.8136 31.3515 9.09106 31.3643C8.31505 31.3679 7.53905 31.3715 6.76309 31.3752C6.47732 31.3765 6.14298 31.6487 6.1501 31.9518C6.21414 34.6872 6.27783 37.4226 6.34148 40.1579C6.34623 40.362 6.5075 40.4908 6.70407 40.4903C9.37663 40.4839 12.0492 40.4778 14.7218 40.4715C15.4816 40.4698 16.2414 40.468 17.0012 40.4662C17.2927 40.4655 17.6141 40.1923 17.6142 39.8895C17.6146 37.785 17.6158 35.6804 17.6184 33.5759C17.6191 32.9366 17.6201 32.2972 17.6212 31.6579C17.6214 31.5453 17.5725 31.4608 17.4989 31.4055ZM9.23402 39.5759C8.59243 39.5774 7.95085 39.579 7.30926 39.5805C7.25261 37.1474 7.19593 34.7143 7.139 32.2812C9.65274 32.2694 12.1664 32.2577 14.6802 32.2457C15.3352 32.2425 15.9901 32.2394 16.6451 32.2363C16.6416 34.3639 16.6399 36.4916 16.639 38.6193C16.6389 38.9324 16.6388 39.2455 16.6388 39.5586C14.1705 39.5644 11.7023 39.5701 9.23402 39.5759Z" fill="#DEF7F6"/>
<path d="M32.8759 31.4055C32.814 31.355 32.7315 31.325 32.6356 31.3255C29.9131 31.3386 27.1906 31.3515 24.4681 31.3643C23.6921 31.3679 22.9161 31.3715 22.1401 31.3752C21.8543 31.3765 21.52 31.6487 21.5271 31.9518C21.5912 34.6872 21.6549 37.4226 21.7185 40.1579C21.7232 40.362 21.8845 40.4908 22.0811 40.4903C24.7536 40.4839 27.4262 40.4778 30.0988 40.4715C30.8586 40.4698 31.6184 40.468 32.3782 40.4662C32.6697 40.4655 32.9911 40.1923 32.9912 39.8895C32.9916 37.785 32.9928 35.6804 32.9954 33.5759C32.9962 32.9366 32.997 32.2972 32.9982 31.6579C32.9984 31.5453 32.9495 31.4608 32.8759 31.4055ZM24.6111 39.5759C23.9695 39.5774 23.3279 39.579 22.6863 39.5805C22.6297 37.1474 22.573 34.7143 22.5161 32.2812C25.0298 32.2694 27.5435 32.2577 30.0572 32.2457C30.7122 32.2425 31.3672 32.2394 32.0222 32.2363C32.0186 34.3639 32.017 36.4916 32.0161 38.6193C32.016 38.9324 32.0159 39.2455 32.0158 39.5586C29.5475 39.5644 27.0793 39.5701 24.6111 39.5759Z" fill="#DEF7F6"/>
<path d="M48.2529 31.4055C48.191 31.355 48.1085 31.325 48.0126 31.3255C45.2901 31.3386 42.5676 31.3515 39.8451 31.3643C39.0691 31.3679 38.2931 31.3715 37.5171 31.3752C37.2314 31.3765 36.897 31.6487 36.9041 31.9518C36.9682 34.6872 37.0319 37.4226 37.0955 40.1579C37.1003 40.362 37.2615 40.4908 37.4581 40.4903C40.1307 40.4839 42.8033 40.4778 45.4758 40.4715C46.2356 40.4698 46.9954 40.468 47.7552 40.4662C48.0467 40.4655 48.3682 40.1923 48.3682 39.8895C48.3686 37.785 48.3699 35.6804 48.3724 33.5759C48.3732 32.9366 48.3741 32.2972 48.3752 31.6579C48.3754 31.5453 48.3265 31.4608 48.2529 31.4055ZM39.9881 39.5759C39.3465 39.5774 38.7049 39.579 38.0633 39.5805C38.0066 37.1474 37.95 34.7143 37.893 32.2812C40.4068 32.2694 42.9205 32.2577 45.4342 32.2457C46.0892 32.2425 46.7441 32.2394 47.3991 32.2363C47.3956 34.3639 47.3939 36.4916 47.393 38.6193C47.3929 38.9324 47.3928 39.2455 47.3927 39.5586C44.9245 39.5644 42.4563 39.5701 39.9881 39.5759Z" fill="#DEF7F6"/>
<path d="M63.1322 40.4662C63.4238 40.4655 63.7452 40.1923 63.7452 39.8895C63.7456 37.785 63.7469 35.6804 63.7494 33.5759C63.7502 32.9366 63.7511 32.2972 63.7522 31.6579C63.7524 31.5453 63.7036 31.4609 63.6299 31.4056C63.568 31.355 63.4855 31.3251 63.3896 31.3255C60.6671 31.3387 57.9446 31.3515 55.2221 31.3643C54.4461 31.3679 53.6701 31.3716 52.8941 31.3752C52.6084 31.3766 52.274 31.6488 52.2812 31.9519C52.3452 34.6872 52.4089 37.4226 52.4725 40.158C52.4773 40.3621 52.6386 40.4908 52.8352 40.4903C55.5077 40.484 58.1803 40.4778 60.8529 40.4716C61.6126 40.4698 62.3724 40.468 63.1322 40.4662ZM53.4404 39.5805C53.3837 37.1474 53.327 34.7143 53.2701 32.2812C55.7838 32.2695 58.2975 32.2577 60.8112 32.2457C61.4662 32.2426 62.1212 32.2394 62.7762 32.2363C62.7726 34.364 62.7709 36.4917 62.7701 38.6193C62.77 38.9324 62.7699 39.2455 62.7698 39.5586C60.3016 39.5645 57.8333 39.5702 55.3651 39.576C54.7235 39.5774 54.0819 39.5789 53.4404 39.5805Z" fill="#DEF7F6"/>
<path d="M17.4989 45.5206C17.437 45.4701 17.3545 45.4401 17.2586 45.4406C14.5361 45.4537 11.8136 45.4665 9.09106 45.4793C8.31505 45.483 7.53905 45.4866 6.76309 45.4902C6.47732 45.4916 6.14298 45.7638 6.1501 46.0669C6.21414 48.8022 6.27783 51.5376 6.34148 54.273C6.34623 54.4771 6.5075 54.6058 6.70407 54.6054C9.37663 54.599 12.0492 54.5929 14.7218 54.5866C15.4816 54.5848 16.2414 54.5831 17.0012 54.5812C17.2927 54.5805 17.6141 54.3074 17.6142 54.0046C17.6146 51.9001 17.6158 49.7955 17.6184 47.691C17.6191 47.0516 17.6201 46.4123 17.6212 45.773C17.6214 45.6603 17.5725 45.5759 17.4989 45.5206ZM9.23402 53.691C8.59243 53.6925 7.95085 53.694 7.30926 53.6955C7.25261 51.2625 7.19593 48.8294 7.139 46.3963C9.65274 46.3845 12.1664 46.3727 14.6802 46.3607C15.3352 46.3576 15.9901 46.3545 16.6451 46.3513C16.6416 48.479 16.6399 50.6067 16.639 52.7344C16.6389 53.0475 16.6388 53.3606 16.6388 53.6737C14.1705 53.6795 11.7023 53.6852 9.23402 53.691Z" fill="#DEF7F6"/>
<path d="M32.8759 45.5206C32.814 45.4701 32.7315 45.4401 32.6356 45.4406C29.9131 45.4537 27.1906 45.4665 24.4681 45.4793C23.6921 45.483 22.9161 45.4866 22.1401 45.4902C21.8543 45.4916 21.52 45.7638 21.5271 46.0669C21.5912 48.8022 21.6549 51.5376 21.7185 54.273C21.7232 54.4771 21.8845 54.6058 22.0811 54.6054C24.7536 54.599 27.4262 54.5929 30.0988 54.5866C30.8586 54.5848 31.6184 54.5831 32.3782 54.5812C32.6697 54.5805 32.9911 54.3074 32.9912 54.0046C32.9916 51.9001 32.9928 49.7955 32.9954 47.691C32.9962 47.0516 32.997 46.4123 32.9982 45.773C32.9984 45.6603 32.9496 45.5759 32.8759 45.5206ZM24.6111 53.691C23.9695 53.6925 23.3279 53.694 22.6863 53.6955C22.6297 51.2625 22.573 48.8294 22.5161 46.3963C25.0298 46.3845 27.5435 46.3727 30.0572 46.3607C30.7122 46.3576 31.3672 46.3545 32.0222 46.3513C32.0186 48.479 32.017 50.6067 32.0161 52.7344C32.016 53.0475 32.0159 53.3606 32.0158 53.6737C29.5475 53.6795 27.0793 53.6852 24.6111 53.691Z" fill="#DEF7F6"/>
<path d="M48.253 45.5206C48.1911 45.4701 48.1085 45.4401 48.0126 45.4406C45.2901 45.4537 42.5676 45.4665 39.8451 45.4793C39.0691 45.483 38.2931 45.4866 37.5171 45.4902C37.2314 45.4916 36.897 45.7638 36.9041 46.0669C36.9682 48.8022 37.0319 51.5376 37.0955 54.273C37.1003 54.4771 37.2615 54.6058 37.4581 54.6054C40.1307 54.599 42.8033 54.5929 45.4758 54.5866C46.2356 54.5848 46.9954 54.5831 47.7552 54.5812C48.0467 54.5805 48.3682 54.3074 48.3682 54.0046C48.3686 51.9001 48.3699 49.7955 48.3724 47.691C48.3732 47.0516 48.3741 46.4123 48.3752 45.773C48.3754 45.6603 48.3265 45.5759 48.253 45.5206ZM39.9881 53.691C39.3465 53.6925 38.7049 53.694 38.0633 53.6955C38.0066 51.2625 37.95 48.8294 37.893 46.3963C40.4068 46.3845 42.9205 46.3727 45.4342 46.3607C46.0892 46.3576 46.7441 46.3545 47.3991 46.3513C47.3956 48.479 47.3939 50.6067 47.393 52.7344C47.3929 53.0475 47.3928 53.3606 47.3927 53.6737C44.9245 53.6795 42.4563 53.6852 39.9881 53.691Z" fill="#DEF7F6"/>
</svg>
