<svg width="48" height="48" viewBox="0 0 48 48" fill="none" xmlns="http://www.w3.org/2000/svg">
<path d="M9 44C8.2 44 7.5 43.7 6.9 43.1C6.3 42.5 6 41.8 6 41V10C6 9.2 6.3 8.5 6.9 7.9C7.5 7.3 8.2 7 9 7H12.25V5.55C12.25 5.11667 12.4 4.75 12.7 4.45C13 4.15 13.3833 4 13.85 4C14.3167 4 14.7083 4.15 15.025 4.45C15.3417 4.75 15.5 5.13333 15.5 5.6V7H32.5V5.55C32.5 5.11667 32.65 4.75 32.95 4.45C33.25 4.15 33.6333 4 34.1 4C34.5667 4 34.9583 4.15 35.275 4.45C35.5917 4.75 35.75 5.13333 35.75 5.6V7H39C39.8 7 40.5 7.3 41.1 7.9C41.7 8.5 42 9.2 42 10V41C42 41.8 41.7 42.5 41.1 43.1C40.5 43.7 39.8 44 39 44H9ZM9 41H39V19.5H9V41ZM9 16.5H39V10H9V16.5ZM9 16.5V10V16.5Z" fill="black"/>
</svg>
