<svg width="24" height="24" viewBox="0 0 24 24" fill="none" xmlns="http://www.w3.org/2000/svg">
<path d="M11.9 22C10.5 21.9833 9.19583 21.7167 7.9875 21.2C6.77917 20.6833 5.73333 19.975 4.85 19.075C3.96667 18.175 3.27083 17.1208 2.7625 15.9125C2.25417 14.7042 2 13.4 2 12C2 10.5833 2.25833 9.26667 2.775 8.05C3.29167 6.83333 4 5.775 4.9 4.875C5.8 3.975 6.85833 3.27083 8.075 2.7625C9.29167 2.25417 10.6 2 12 2C13 2 13.9833 2.14583 14.95 2.4375C15.9167 2.72917 16.85 3.16667 17.75 3.75C17.9333 3.86667 18.0375 4.025 18.0625 4.225C18.0875 4.425 18.0333 4.60833 17.9 4.775C17.7667 4.94167 17.6 5.04167 17.4 5.075C17.2 5.10833 17.0083 5.06667 16.825 4.95C16.075 4.46667 15.2958 4.10417 14.4875 3.8625C13.6792 3.62083 12.85 3.5 12 3.5C9.58333 3.5 7.5625 4.3125 5.9375 5.9375C4.3125 7.5625 3.5 9.58333 3.5 12C3.5 14.4167 4.3125 16.4375 5.9375 18.0625C7.5625 19.6875 9.58333 20.5 12 20.5C12.65 20.5 13.2917 20.4333 13.925 20.3C14.5583 20.1667 15.1667 19.9583 15.75 19.675C15.95 19.5917 16.15 19.5667 16.35 19.6C16.55 19.6333 16.7083 19.7333 16.825 19.9C16.9583 20.0833 17 20.2792 16.95 20.4875C16.9 20.6958 16.7833 20.8417 16.6 20.925C15.8667 21.2917 15.1083 21.5625 14.325 21.7375C13.5417 21.9125 12.7333 22 11.9 22ZM10 16.025L6.95 12.95C6.8 12.8 6.725 12.6167 6.725 12.4C6.725 12.1833 6.80833 11.9917 6.975 11.825C7.125 11.675 7.3125 11.5958 7.5375 11.5875C7.7625 11.5792 7.95 11.6583 8.1 11.825L10.525 14.275L20.325 4.475C20.475 4.325 20.6583 4.24583 20.875 4.2375C21.0917 4.22917 21.2833 4.30833 21.45 4.475C21.6167 4.64167 21.7 4.83333 21.7 5.05C21.7 5.26667 21.6167 5.45833 21.45 5.625L11.05 16.025C10.9 16.175 10.7208 16.25 10.5125 16.25C10.3042 16.25 10.1333 16.175 10 16.025ZM20 19.75C19.7833 19.75 19.6042 19.6792 19.4625 19.5375C19.3208 19.3958 19.25 19.2167 19.25 19V16.75H17C16.7833 16.75 16.6042 16.6792 16.4625 16.5375C16.3208 16.3958 16.25 16.2167 16.25 16C16.25 15.7833 16.3208 15.6042 16.4625 15.4625C16.6042 15.3208 16.7833 15.25 17 15.25H19.25V13C19.25 12.7833 19.3208 12.6042 19.4625 12.4625C19.6042 12.3208 19.7833 12.25 20 12.25C20.2167 12.25 20.3958 12.3208 20.5375 12.4625C20.6792 12.6042 20.75 12.7833 20.75 13V15.25H23C23.2167 15.25 23.3958 15.3208 23.5375 15.4625C23.6792 15.6042 23.75 15.7833 23.75 16C23.75 16.2167 23.6792 16.3958 23.5375 16.5375C23.3958 16.6792 23.2167 16.75 23 16.75H20.75V19C20.75 19.2167 20.6792 19.3958 20.5375 19.5375C20.3958 19.6792 20.2167 19.75 20 19.75Z" fill="#000E50"/>
</svg>
