<svg width="24" height="24" viewBox="0 0 24 24" fill="none" xmlns="http://www.w3.org/2000/svg">
<path fill-rule="evenodd" clip-rule="evenodd" d="M18.5786 4.67664C18.5841 4.68821 18.5893 4.69998 18.5943 4.71193C18.7242 5.02617 18.9736 5.27594 19.2876 5.40637L21.0323 6.12907C21.7141 6.4115 22.2558 6.95322 22.5382 7.63506C22.8206 8.31689 22.8206 9.08298 22.5382 9.76481L21.8158 11.5088C21.6854 11.8236 21.6856 12.1768 21.816 12.4901L21.8166 12.4917L22.5375 14.2346C22.6775 14.5723 22.7496 14.9343 22.7496 15.2998C22.7497 15.6654 22.6777 16.0274 22.5378 16.3652C22.3979 16.7029 22.1929 17.0098 21.9343 17.2682C21.6758 17.5267 21.3689 17.7317 21.0311 17.8715L19.2874 18.5938C18.9733 18.7236 18.7232 18.973 18.5927 19.2868M18.5927 19.2868L17.8699 21.032C17.5874 21.7139 17.0458 22.2556 16.3639 22.538C15.6821 22.8204 14.916 22.8204 14.2342 22.538L12.4909 21.8159C12.1766 21.686 11.8236 21.6863 11.5095 21.8166L9.76356 22.5388C9.08212 22.8206 8.31662 22.8204 7.63535 22.5382C6.95408 22.256 6.41269 21.7149 6.13008 21.0338L5.40681 19.2876C5.27686 18.9733 5.02727 18.7231 4.71322 18.5927L2.96864 17.87C2.28712 17.5877 1.74558 17.0463 1.46306 16.3649C1.18055 15.6835 1.18016 14.9177 1.462 14.236L2.1843 12.4922C2.31403 12.1779 2.31385 11.8247 2.18356 11.5107L1.46215 9.76401C1.32229 9.42645 1.25006 9.06414 1.25 8.69875C1.24994 8.33318 1.32191 7.97118 1.46181 7.63343C1.6017 7.29568 1.80678 6.98881 2.06531 6.73035C2.32379 6.47194 2.63064 6.26699 2.96834 6.1272L4.71228 5.40481C5.02612 5.27504 5.27611 5.02591 5.40667 4.71238L6.12927 2.96781C6.41168 2.28597 6.95338 1.74425 7.6352 1.46182C8.31702 1.17939 9.08311 1.17939 9.76494 1.46182L11.5083 2.18396C11.8225 2.31369 12.1756 2.31351 12.4896 2.18322L12.4911 2.1826L14.2361 1.4629C14.9176 1.1809 15.6839 1.18078 16.3654 1.46306C17.0471 1.74544 17.5887 2.287 17.8712 2.96866L18.5786 4.67664M16.0303 8.96967C16.3232 9.26256 16.3232 9.73744 16.0303 10.0303L11.5303 14.5303C11.2374 14.8232 10.7626 14.8232 10.4697 14.5303L8.46967 12.5303C8.17678 12.2374 8.17678 11.7626 8.46967 11.4697C8.76256 11.1768 9.23744 11.1768 9.53033 11.4697L11 12.9393L14.9697 8.96967C15.2626 8.67678 15.7374 8.67678 16.0303 8.96967Z" fill="#000E50"/>
</svg>
