<svg width="20%" height="20%" viewBox="0 0 68 67" fill="none" xmlns="http://www.w3.org/2000/svg">
<path transform="rotate(90,29.9,37)" d="M 43 63.6 H 16.9 C 15.5 63.6 14.3 62.8 13.6 61.7 L 0.5 38.9 C -0.2 37.7 -0.2 36.3 0.5 35.1 L 13.6 12.3 C 14.2 11.1 15.5 10.4 16.9 10.4 H 43 C 44.4 10.4 45.6 11.1 46.3 12.3 L 59.4 35.1 C 60.1 36.3 60.1 37.7 59.4 38.9 L 46.3 61.7 C 45.6 62.9 44.4 63.6 43 63.6 H 43 Z M 16.9 12.3 C 16.2 12.3 15.5 12.6 15.2 13.3 L 2.1 36 C 1.8 36.6 1.8 37.4 2.1 38 L 15.2 60.7 C 15.6 61.3 16.2 61.7 16.9 61.7 H 43 C 43.7 61.7 44.4 61.3 44.7 60.7 L 57.8 38 C 58.1 37.4 58.1 36.6 57.8 36 L 44.7 13.3 C 44.4 12.6 43.7 12.3 43 12.3 H 16.9 Z" fill="#c3b7ff"/>
<path d="M 12.7 66.6 L 14.9 67 C 21.2 54.5 28.9 42.5 37.8 31.5 C 46.8 20.6 56.9 10.5 67.9 1.6 L 66.6 0 C 56 8.5 46.2 18.2 37.4 28.9 C 28.7 39.6 21 51.1 14.5 63.3 L 14.4 63.6 L 14.3 63.2 C 13.8 59.1 13.3 50.9 12.8 43.6 C 12.5 39 12.2 35 12 32.7 L 9.9 32.8 C 10.3 36.4 10.7 42.2 11.2 48.3 C 11.7 55.4 12.3 62.8 12.7 66.6 Z" fill="#6ff9d8"/>
</svg>
