<svg width="24" height="24" viewBox="0 0 24 24" fill="none" xmlns="http://www.w3.org/2000/svg">
<path d="M12 15.1C11.9167 15.1 11.8292 15.0833 11.7375 15.05C11.6458 15.0167 11.5583 14.9583 11.475 14.875L6.55001 9.95C6.40001 9.8 6.32501 9.61667 6.32501 9.4C6.32501 9.18333 6.40001 9 6.55001 8.85C6.70001 8.7 6.87501 8.625 7.07501 8.625C7.27501 8.625 7.45001 8.7 7.60001 8.85L12 13.25L16.4 8.85C16.55 8.7 16.7292 8.625 16.9375 8.625C17.1458 8.625 17.325 8.7 17.475 8.85C17.625 9 17.7 9.17917 17.7 9.3875C17.7 9.59583 17.625 9.775 17.475 9.925L12.525 14.875C12.4417 14.9583 12.3583 15.0167 12.275 15.05C12.1917 15.0833 12.1 15.1 12 15.1Z" fill="#000E50"/>
</svg>
