<svg width="24" height="24" viewBox="0 0 24 24" fill="none" xmlns="http://www.w3.org/2000/svg">
<path d="M12.0002 21.95C10.7669 21.95 9.60436 21.7167 8.5127 21.25C7.42103 20.7833 6.47103 20.1458 5.66269 19.3375C4.85436 18.5292 4.2127 17.5792 3.7377 16.4875C3.2627 15.3958 3.0252 14.225 3.0252 12.975C3.0252 11.7417 3.2627 10.5792 3.7377 9.4875C4.2127 8.39583 4.85436 7.44167 5.66269 6.625C6.47103 5.80833 7.42103 5.16667 8.5127 4.7C9.60436 4.23333 10.7669 4 12.0002 4C13.2335 4 14.396 4.23333 15.4877 4.7C16.5794 5.16667 17.5335 5.80833 18.3502 6.625C19.1669 7.44167 19.8085 8.39583 20.2752 9.4875C20.7419 10.5792 20.9752 11.7417 20.9752 12.975C20.9752 14.225 20.7419 15.3958 20.2752 16.4875C19.8085 17.5792 19.1669 18.5292 18.3502 19.3375C17.5335 20.1458 16.5794 20.7833 15.4877 21.25C14.396 21.7167 13.2335 21.95 12.0002 21.95ZM11.3252 8.75V13.05C11.3252 13.15 11.3419 13.2417 11.3752 13.325C11.4085 13.4083 11.4669 13.4917 11.5502 13.575L14.5252 16.55C14.6585 16.6833 14.8252 16.75 15.0252 16.75C15.2252 16.75 15.4002 16.675 15.5502 16.525C15.7002 16.375 15.7752 16.2 15.7752 16C15.7752 15.8 15.7002 15.625 15.5502 15.475L12.8252 12.75V8.725C12.8252 8.525 12.7544 8.35417 12.6127 8.2125C12.471 8.07083 12.2919 8 12.0752 8C11.8585 8 11.6794 8.07083 11.5377 8.2125C11.396 8.35417 11.3252 8.53333 11.3252 8.75ZM2.8502 6.825C2.7002 6.95833 2.5252 7.025 2.3252 7.025C2.1252 7.025 1.9502 6.95 1.8002 6.8C1.6502 6.65 1.5752 6.47083 1.5752 6.2625C1.5752 6.05417 1.6502 5.88333 1.8002 5.75L4.8502 2.825C5.0002 2.69167 5.1752 2.625 5.3752 2.625C5.5752 2.625 5.7502 2.7 5.9002 2.85C6.0502 3 6.1252 3.17917 6.1252 3.3875C6.1252 3.59583 6.0502 3.76667 5.9002 3.9L2.8502 6.825ZM21.1502 6.8L18.1002 3.875C17.9669 3.74167 17.896 3.575 17.8877 3.375C17.8794 3.175 17.9502 3 18.1002 2.85C18.2335 2.71667 18.4044 2.65 18.6127 2.65C18.821 2.65 19.0002 2.71667 19.1502 2.85L22.2002 5.775C22.3335 5.90833 22.4044 6.075 22.4127 6.275C22.421 6.475 22.3502 6.65 22.2002 6.8C22.0669 6.93333 21.896 7 21.6877 7C21.4794 7 21.3002 6.93333 21.1502 6.8ZM12.0002 20.45C14.0835 20.45 15.8502 19.725 17.3002 18.275C18.7502 16.825 19.4752 15.0583 19.4752 12.975C19.4752 10.8917 18.7502 9.125 17.3002 7.675C15.8502 6.225 14.0835 5.5 12.0002 5.5C9.91686 5.5 8.1502 6.225 6.7002 7.675C5.2502 9.125 4.5252 10.8917 4.5252 12.975C4.5252 15.0583 5.2502 16.825 6.7002 18.275C8.1502 19.725 9.91686 20.45 12.0002 20.45Z" fill="#000E50"/>
</svg>
