<svg width="48" height="48" viewBox="0 0 48 48" fill="none" xmlns="http://www.w3.org/2000/svg">
<path d="M24 28C25.1 28 26.0417 27.6083 26.825 26.825C27.6083 26.0417 28 25.1 28 24C28 22.9 27.6083 21.9583 26.825 21.175C26.0417 20.3917 25.1 20 24 20C22.9 20 21.9583 20.3917 21.175 21.175C20.3917 21.9583 20 22.9 20 24C20 25.1 20.3917 26.0417 21.175 26.825C21.9583 27.6083 22.9 28 24 28ZM16 36H32V34.85C32 34.05 31.7833 33.3167 31.35 32.65C30.9167 31.9833 30.3167 31.4833 29.55 31.15C28.6833 30.7833 27.7917 30.5 26.875 30.3C25.9583 30.1 25 30 24 30C23 30 22.0417 30.1 21.125 30.3C20.2083 30.5 19.3167 30.7833 18.45 31.15C17.6833 31.4833 17.0833 31.9833 16.65 32.65C16.2167 33.3167 16 34.05 16 34.85V36ZM37 44H11C10.2 44 9.5 43.7 8.9 43.1C8.3 42.5 8 41.8 8 41V7C8 6.2 8.3 5.5 8.9 4.9C9.5 4.3 10.2 4 11 4H26.8C27.2 4 27.5917 4.08333 27.975 4.25C28.3583 4.41667 28.6833 4.63333 28.95 4.9L39.1 15.05C39.3667 15.3167 39.5833 15.6417 39.75 16.025C39.9167 16.4083 40 16.8 40 17.2V41C40 41.8 39.7 42.5 39.1 43.1C38.5 43.7 37.8 44 37 44Z"/>
</svg>
