<svg width="30" height="29" viewBox="0 0 30 29" fill="none" xmlns="http://www.w3.org/2000/svg">
<path d="M5.66784 3.80053V7.34367H3.16824C2.7664 7.34367 2.44279 7.6718 2.44279 8.07517C2.44279 8.47853 2.7664 8.80666 3.16824 8.80666H5.66784V13.8641H3.16824C2.7664 13.8641 2.44279 14.1923 2.44279 14.5956C2.44279 14.999 2.7664 15.3271 3.16824 15.3271H5.66784V20.3846H3.16824C2.7664 20.3846 2.44279 20.7127 2.44279 21.1161C2.44279 21.5195 2.7664 21.8476 3.16824 21.8476H5.66784V25.3908C5.66784 26.7195 6.73857 27.802 8.05698 27.802H25.3912C26.7096 27.802 27.7803 26.7195 27.7803 25.3908V3.80168C27.7803 2.50665 26.7633 1.44557 25.4912 1.39249V1.38926H25.3912H8.05698C6.73857 1.38926 5.66784 2.47174 5.66784 3.80053ZM26.3294 25.3896C26.3294 25.9129 25.9081 26.3379 25.3912 26.3379H8.05698C7.54104 26.3379 7.11874 25.9139 7.11874 25.3896V21.8465H8.66883C9.07067 21.8465 9.39429 21.5183 9.39429 21.115C9.39429 20.7116 9.07067 20.3835 8.66883 20.3835H7.11874V15.326H8.66883C9.07067 15.326 9.39429 14.9979 9.39429 14.5945C9.39429 14.1911 9.07067 13.863 8.66883 13.863H7.11874V8.80551H8.66883C9.07067 8.80551 9.39429 8.47738 9.39429 8.07402C9.39429 7.67065 9.07067 7.34252 8.66883 7.34252H7.11874V3.79938C7.11874 3.27609 7.54005 2.8511 8.05698 2.8511H25.3912C25.9071 2.8511 26.3294 3.27509 26.3294 3.79938V25.3885V25.3896Z" fill="#000E50" stroke="#000E50" stroke-width="0.2"/>
<path d="M18.6403 14.6347C19.5651 14.0913 20.2021 12.9611 20.2021 11.6535C20.2021 9.81709 18.9455 8.32764 17.3964 8.32764C15.8474 8.32764 14.5908 9.81709 14.5908 11.6535C14.5908 12.96 15.2267 14.0902 16.1526 14.6347C14.2335 14.9426 12.826 15.9423 12.826 17.1305C12.826 18.563 14.8728 19.7245 17.3964 19.7245C19.9201 19.7245 21.9669 18.563 21.9669 17.1305C21.9669 15.9434 20.5595 14.9426 18.6403 14.6347Z" fill="#000E50"/>
</svg>
