<svg width="86" height="96" viewBox="0 0 86 96" fill="none" xmlns="http://www.w3.org/2000/svg">
<path d="M84.498 67.8287C84.498 69.9186 83.3733 71.8469 81.5541 72.8757L45.2058 93.4312C43.4349 94.4327 41.2685 94.4327 39.4976 93.4312L3.14931 72.8756C1.33012 71.8469 0.205361 69.9186 0.205361 67.8287L0.20537 26.9239C0.20537 24.834 1.33012 22.9058 3.14932 21.877L39.4976 1.32144C41.2685 0.319925 43.4349 0.319925 45.2058 1.32144L81.5541 21.877C83.3733 22.9058 84.498 24.834 84.498 26.924L84.498 67.8287Z" fill="white"/>
<path d="M28.1348 20.9419L55.9652 37.3503C57.8618 38.4678 60.1978 38.4678 62.0944 37.3503L70.2338 32.5474C72.1194 31.4373 72.1194 28.6602 70.2338 27.5464L47.8845 14.3785C45.219 12.8087 41.9383 12.8087 39.2728 14.3785L28.1348 20.9419Z" fill="#000E50"/>
<path d="M12.6289 35.126C12.6289 33.5561 13.039 32.0461 13.7823 30.7305L39.2474 45.7596C41.1294 46.8697 41.1294 49.6468 39.2474 50.7569L13.7823 65.7861C13.039 64.4704 12.6289 62.9604 12.6289 61.3906V35.126Z" fill="#000E50"/>
<path d="M16.9357 27.5132C15.6029 28.2981 14.5265 29.4157 13.7832 30.7313L28.0701 39.1635L43.5323 30.0511L28.0811 20.9424L16.9357 27.5095V27.5132Z" fill="#17FCDB"/>
<path d="M28.0801 75.5757L55.9105 59.1673C57.8072 58.0497 60.1431 58.0497 62.0398 59.1673L70.1791 63.9702C72.0647 65.0803 72.0647 67.8574 70.1791 68.9712L47.8298 82.1427C45.1643 83.7126 41.8836 83.7126 39.2181 82.1427L28.0801 75.5794V75.5757Z" fill="#000E50"/>
<path d="M16.9357 69.0087C15.6029 68.2238 14.5265 67.1062 13.7832 65.7906L28.0701 57.3584L43.5323 66.4708L28.0811 75.5796L16.9357 69.0125V69.0087Z" fill="#CCBFFF"/>
</svg>
