<svg width="60" height="70" viewBox="0 0 60 70" fill="none" xmlns="http://www.w3.org/2000/svg">
<path d="M15.7228 7.71701L44.0424 24.0747C45.9736 25.1902 48.3501 25.1902 50.2769 24.0747L58.5615 19.2909C60.4795 18.1842 60.4795 15.4153 58.5615 14.3086L35.8194 1.17392C33.1078 -0.391307 29.7658 -0.391307 27.0542 1.17392L15.7184 7.71701H15.7228Z" fill="#000E50"/>
<path d="M0 21.8568C0 20.2915 0.418864 18.7836 1.17282 17.4741L27.085 32.4562C29.003 33.5629 29.003 36.3318 27.085 37.4385L1.17282 52.4206C0.418864 51.1111 0 49.6032 0 48.0379V21.8568Z" fill="#000E50"/>
<path d="M4.3826 14.2643C3.0246 15.0491 1.93115 16.1646 1.17279 17.4741L15.7096 25.8822L31.4412 16.7995L15.7184 7.72119L4.3782 14.2687L4.3826 14.2643Z" fill="#17FCDB"/>
<path d="M15.7228 62.1738L44.0424 45.8161C45.9736 44.7006 48.3501 44.7006 50.2769 45.8161L58.5615 50.6044C60.4795 51.7111 60.4795 54.48 58.5615 55.5867L35.8194 68.7169C33.1078 70.2822 29.7658 70.2822 27.0542 68.7169L15.7184 62.1738H15.7228Z" fill="#000E50"/>
<path d="M4.3826 55.6263C3.0246 54.8414 1.93115 53.7303 1.17279 52.4164L15.7096 44.0083L31.4412 53.091L15.7184 62.1693L4.3782 55.6218L4.3826 55.6263Z" fill="#CCBFFF"/>
</svg>
