<?xml version="1.0" encoding="UTF-8"?>
<svg xmlns="http://www.w3.org/2000/svg" xmlns:xlink="http://www.w3.org/1999/xlink" version="1.1" viewBox="0 0 276 203.6">
  <defs>
    <style>
      .cls-1 {
        fill: #000c5d;
      }

      .cls-2 {
        fill: none;
      }

      .cls-3 {
        fill: #17fddb;
      }

      .cls-4 {
        clip-path: url(#clippath-1);
      }

      .cls-5 {
        fill: #ccbeff;
      }

      .cls-6 {
        fill: #fff;
      }

      .cls-7 {
        clip-path: url(#clippath);
      }
    </style>
    <clipPath id="clippath">
      <rect class="cls-2" x="93.7" y="85.4" width="84.8" height="99.9"/>
    </clipPath>
    <clipPath id="clippath-1">
      <rect class="cls-2" x="93.7" y="85.4" width="84.8" height="99.9"/>
    </clipPath>
  </defs>
  <!-- Generator: Adobe Illustrator 28.6.0, SVG Export Plug-In . SVG Version: 1.2.0 Build 709)  -->
  <g>
    <g id="Layer_1">
      <g id="Layer_1-2" data-name="Layer_1">
        <g>
          <path class="cls-3" d="M16.5,95.1c2-1.4,3.8-2.2,5.2-2.8l1.4.4c.5,1.4,1.5,2.7,2.9,3.9,1.5,1.4,3.2,2.1,5.2,2.5l-.2,1.5c-1.8-.2-3.4-1-5-2.1-1.6-1.1-2.7-2.3-3.6-3.6.2,2.8,1,5.8,2.5,9,1.5,3.1,3.4,6,5.9,8.7,2.6,2.7,5.4,4.9,8.6,6.5,3.3,1.6,6.6,2.9,10.2,3.7,3.6.9,7.1,1.2,10.7,1.2,5.6,0,10.9-1.4,15.7-3.7l.6,1.4c-5,2.5-10.4,3.7-16.3,3.8-3.7,0-7.4-.4-11-1.2s-7.2-2.1-10.6-3.8c-3.4-1.7-6.5-4.2-9.2-7.1-2.7-2.9-4.8-6.1-6.3-9.5s-2.3-6.5-2.5-9.6c-3.7,1.7-6.4,3.9-8.1,6.6l-1.2-.9c1.4-2.1,3.1-3.8,5-5.2l.2.2Z"/>
          <path class="cls-6" d="M83.7,49.6l2.1-.9,9.9,6.9-1.5,2.1-6.8-4.7c5.4,12.4,10.1,21,13.9,26,4.8,6,9,9.7,12.5,11l-.9,2.2c-4.2-1.6-8.7-5.5-13.6-11.8-2.2-2.8-4.5-6.4-6.8-10.8-2.3-4.3-4.8-9.5-7.4-15.3-.4,2.9-.5,5.6-.5,8.1v2.9h-2.5c-.2-5.3.2-10.4,1.2-15.7h.1ZM105.3,97.4l-1.5,2c-9-6.3-16.6-13.9-23-23-6.4-9.1-11-18.8-14-29.3-.4-1.2-.9-3.1-1.5-5.5l-1.8,10.6-2.5-.4,2.7-15.3,2.2-.4c4.3,3.4,8.1,6.8,11.3,9.9l-1.6,1.7c-3.6-3.3-6.3-5.6-8.1-7.2.4,1.8.9,3.8,1.5,6,2.9,10.2,7.5,19.6,13.7,28.5,6.3,8.7,13.6,16.2,22.3,22.5h.1ZM86.6,99.4l-1.5,2c-4.8-3.9-9.1-8.2-12.8-13.3s-7-10.2-9.6-15.7l-1.4,7.6-2.3-.4,2.1-11.8,2.3-1c3.3,2.6,6.4,5.3,9.2,8.1l-1.7,1.7c-1.7-1.7-3.7-3.6-5.9-5.4,4.9,10.9,12.2,20.4,21.6,28.1h-.1Z"/>
          <g>
            <path class="cls-6" d="M184.5,166.9l-43.8,24.8c-2.2,1.2-4.8,1.2-7,0l-43.3-25.5c-2.2-1.2-3.4-3.6-3.4-6.1l.5-50.3c0-2.5,1.4-4.8,3.6-6l43.8-24.8c2.2-1.2,4.8-1.2,7,0l43.3,25.5c2.2,1.2,3.4,3.6,3.4,6.1l-.5,50.3c0,2.5-1.4,4.8-3.6,6Z"/>
            <g>
              <g class="cls-7">
                <path class="cls-1" d="M116,97l39.8,23c2.7,1.6,6,1.6,8.7,0l11.7-6.8c2.7-1.6,2.7-5.4,0-7l-31.9-18.4c-3.8-2.2-8.5-2.2-12.3,0l-16,9.2h0Z"/>
              </g>
              <path class="cls-1" d="M93.9,116.9h0c0-2.2.6-4.3,1.6-6.1l36.5,21.1c2.7,1.6,2.7,5.4,0,7l-36.5,21.1c-1.1-1.8-1.6-3.9-1.6-6.1h0v-36.8h0Z"/>
              <g class="cls-4">
                <g>
                  <path class="cls-3" d="M100.1,106.2c-2,1.1-3.4,2.7-4.5,4.5l20.4,11.8,22.1-12.8-22.1-12.8-16,9.2h.1Z"/>
                  <path class="cls-1" d="M116,173.5l39.8-23c2.7-1.6,6-1.6,8.7,0l11.7,6.8c2.7,1.6,2.7,5.4,0,7l-31.9,18.4c-3.8,2.2-8.5,2.2-12.3,0l-16-9.2h0Z"/>
                </g>
              </g>
              <path class="cls-5" d="M100.1,164.3c-2-1.1-3.4-2.7-4.5-4.5l20.4-11.8,22.1,12.8-22.1,12.8-16-9.2h.1Z"/>
            </g>
          </g>
          <path class="cls-6" d="M262.8,100.7l-1.7-.4.9-3.9c-2.2,2.2-4.3,3.8-5.9,4.9-3.7,2.5-7.4,3.2-11.2,2.5s-2.3-.7-3.3-1.4c-1-.6-1.6-1.4-2.1-2.2-.6-.9-1.1-1.5-1.6-2-.5-.5-1.2-.7-2-1-3.4-.7-6.1,1.1-8,5.4-.6,1.2-1.4,3.7-2.5,7.4-1.1,3.9-2.2,7.2-3.2,9.8-1,2.6-2.5,4.7-4.2,6.4s-3.9,2.2-6.5,1.7-4.4-2-5.5-4.2c-1.1-2.2-1.7-5-1.7-8.5v-2.3c-.1-3.8-.4-6.9-.6-9.1-.2-2.2-1-3.4-2.1-3.7s-2.1.4-3.3,1.7c-1.2,1.4-2.5,3.3-3.7,5.8-2.6,4.9-4.5,10.6-5.9,17.1-1.4,6.5-1.6,11-1.4,16.3h-1.8c-.2-5.4.2-10.9,1.5-16.7s3.3-12.4,5.9-17.4c1.5-2.7,2.9-4.9,4.5-6.5s3.1-2.3,4.7-2,2.9,2,3.4,4.7c.5,2.7.7,6.1.6,10.3v1.7c0,3.2.5,5.6,1.4,7.6.9,2,2.3,3.1,4.5,3.6,2.2.5,3.8,0,5.3-1.6,1.5-1.5,2.6-3.4,3.6-5.8.9-2.3,1.8-5.3,2.8-9.1,1.1-3.8,2-6.4,2.6-7.9,1-2.2,2.3-3.9,4.1-5.2s3.7-1.6,6-1.1,2.1.6,2.8,1.4c.7.6,1.4,1.5,2,2.3,1,1.5,2.5,2.3,4.4,2.7,3.3.7,6.6,0,9.9-2.2,1.8-1.1,3.8-2.8,6-5.2-.7,0-1.2,0-1.7-.2s-1.1-.2-1.7-.5l.6-1.7c.6.2,1.1.4,1.6.5,1.2.2,2.3.2,3.2,0l1.2,1.1c-.7,2.8-1.2,5-1.6,6.9h-.4Z"/>
          <path class="cls-3" d="M195.1,73.5c0-1.7,0-3.7-.4-6-2.1,4.5-4.3,9.2-6.8,14s-4.7,8.6-6.6,11.5l-1.6-1.1c2-2.9,4.2-6.8,6.6-11.4,2.5-4.8,4.7-9.5,6.9-14.1-1.1.4-2.5.7-3.8,1.1l-.6-1.7c1.5-.5,3.3-1,5.5-1.5l2.1,1c.2,1.1.4,2.5.5,4.2,0,1.7.1,3.1,0,4.1h-1.8,0ZM184.4,65.4h-1.8c.4-2.7.7-5,1.4-7.1-2.9,3.3-6,7.5-9.1,12.5-3.2,5-6.1,10.1-8.8,15.1l-1.6-.9c2.7-5.2,5.8-10.3,9-15.5,3.3-5.2,6.4-9.5,9.5-12.9-1.7.4-3.2.5-4.5.4v-1.8c2.1,0,4.5-.4,7.4-1l1.1,1.1c-1.2,3.2-2.1,6.6-2.3,10.1h0ZM172.4,57.8l-1.8-.2c.1-1.1.2-2.2.2-3.4-1.7,2.8-3.9,6.1-6.5,9.8-2.6,3.7-4.9,6.9-6.9,9.5l-1.5-1.2c2-2.5,4.2-5.5,6.9-9.3,2.6-3.8,4.8-7.2,6.6-10.1-2,.4-3.7.5-5.3.6v-1.8c2.3,0,4.5-.4,6.6-.9l1.6.9c.2,2.1.2,4.2,0,6.4h0Z"/>
          <path class="cls-5" d="M150.3,21l-1.2,1.5c-3.3-3.1-6.1-6.1-8.6-9.5.6,20.6-1.5,41.2-6.3,62l-1.8-.4c4.9-20.5,7-41,6.3-61.6-2.7,6-5.8,11.5-9.2,16.6l-1.5-1.1c4.2-5.8,7.5-12.2,10.3-19.1h1.8c2.7,3.8,6.1,7.7,10.4,11.8h-.2Z"/>
        </g>
      </g>
    </g>
  </g>
</svg>