<svg width="55" height="48" viewBox="0 0 55 48" fill="none" xmlns="http://www.w3.org/2000/svg">
<path d="M22.5057 4.76603C22.6657 4.60742 22.8406 4.73192 22.7839 4.81126C22.6589 4.98621 22.3099 4.73636 22.4343 4.56181C22.491 4.48246 22.6656 4.60742 22.5057 4.76603ZM22.4343 4.56181C22.5593 4.38686 22.9088 4.63663 22.7839 4.81126C22.7271 4.89052 22.4011 4.61321 22.4813 4.53387C22.6338 4.38281 22.9363 4.68811 22.7839 4.83918C22.7037 4.91844 22.3776 4.64107 22.4343 4.56181ZM22.7839 4.83918C22.6315 4.99025 22.3284 4.68542 22.4813 4.53387C22.5611 4.45461 22.9815 4.27816 23.2264 4.47889C23.5556 4.74738 23.0178 5.40528 22.6891 5.13631C22.4436 4.93621 22.8636 4.75992 22.7839 4.83918ZM22.6891 5.13631C22.3603 4.8679 22.8977 4.21001 23.2264 4.47898C23.4719 4.67923 23.6296 4.71954 24.0031 5.2716C24.292 5.69822 23.4392 6.27549 23.1503 5.8488C22.7768 5.29674 22.9345 5.33697 22.6891 5.13631ZM23.1503 5.8488C22.8619 5.42265 23.7146 4.8449 24.003 5.2716C24.3769 5.82318 24.6007 5.86126 24.882 6.59048C25.1327 7.24084 23.8321 7.74236 23.5813 7.092C23.3005 6.3627 23.5238 6.40077 23.1503 5.8488ZM23.5813 7.09192C23.3305 6.44156 24.6313 5.94004 24.8821 6.5904C25.1629 7.31963 25.3145 7.55179 25.333 8.3709C25.3517 9.17281 23.7483 9.20962 23.7302 8.40812C23.7111 7.5886 23.8622 7.82075 23.5813 7.09192ZM23.7302 8.40812C23.7116 7.60621 25.3149 7.56948 25.333 8.3709C25.3521 9.1905 25.3366 9.45336 25.0682 10.3168C24.8245 11.1027 23.2526 10.6145 23.4963 9.82856C23.7648 8.96509 23.7488 9.22724 23.7302 8.40812ZM23.4963 9.82856C23.7404 9.043 25.3123 9.5308 25.0682 10.3168C24.8002 11.1803 24.6264 11.4576 24.0979 12.0783C23.577 12.6906 22.3524 11.6481 22.8734 11.0358C23.4019 10.4156 23.2283 10.6925 23.4963 9.82856ZM22.8734 11.0358C23.3949 10.4235 24.619 11.466 24.0979 12.0783C23.5698 12.699 23.2937 12.8775 22.6997 13.1633C21.9997 13.4995 21.3272 12.1004 22.0267 11.7642C22.6208 11.478 22.3454 11.6569 22.8734 11.0358ZM22.0267 11.7642C22.7263 11.4274 23.3989 12.827 22.6997 13.1633C22.1052 13.449 21.7201 13.5036 20.9887 13.4565C20.2342 13.4082 20.3312 11.8993 21.0853 11.948C21.8172 11.995 21.4321 12.0495 22.0267 11.7642ZM21.0853 11.948C21.8397 11.9963 21.7427 13.5052 20.9887 13.4565C20.2568 13.4096 20.0446 13.3636 19.2108 13.0562C18.5029 12.7957 19.0242 11.3793 19.7322 11.6402C20.566 11.9471 20.3538 11.9006 21.0853 11.948ZM19.7322 11.6402C20.4407 11.9007 19.9193 13.3171 19.2108 13.0562C18.3774 12.7495 18.1227 12.6476 17.5614 12.1704C16.9549 11.6552 17.9859 10.4421 18.5919 10.9578C19.1536 11.4345 18.8989 11.3328 19.7322 11.6402ZM18.5919 10.9578C19.1984 11.4731 18.1676 12.6856 17.5614 12.1704C17.0001 11.6932 16.7565 11.4842 16.3253 10.6605C15.9285 9.90163 17.4463 9.10719 17.8432 9.86609C18.2742 10.6898 18.0305 10.4803 18.5919 10.9578ZM17.8431 9.86617C18.2405 10.6251 16.7222 11.4195 16.3252 10.6606C15.8947 9.83706 15.7914 9.59459 15.631 8.70152C15.4765 7.83932 17.2003 7.52972 17.3549 8.39177C17.5158 9.28499 17.4125 9.04261 17.8431 9.86617ZM17.3549 8.39177C17.51 9.25397 15.7856 9.56317 15.631 8.70152C15.4707 7.8079 15.5314 7.35248 15.7684 6.72068C16.0692 5.91925 17.6721 6.52042 17.3713 7.32233C17.1343 7.95412 17.1945 7.4987 17.3549 8.39177ZM17.3713 7.32233C17.0704 8.12328 15.4677 7.52211 15.7685 6.72068C16.0055 6.08889 16.1482 5.87673 16.5522 5.35792C17.0648 4.69915 18.3824 5.72471 17.8698 6.38395C17.4657 6.90237 17.6083 6.69061 17.3713 7.32233ZM17.8697 6.38395C17.3567 7.04233 16.0392 6.01669 16.5522 5.35792C16.9559 4.83958 17.1286 4.71462 17.6619 4.30839C18.2995 3.82235 19.271 5.09696 18.6335 5.58301C18.1005 5.98971 18.2733 5.86514 17.8697 6.38395ZM18.6335 5.58301C17.9963 6.06897 17.0245 4.79436 17.662 4.30839C18.1954 3.90161 18.3327 3.92557 18.9215 3.59107C19.5347 3.24284 20.2311 4.46914 19.618 4.81784C19.0296 5.15235 19.1669 5.17622 18.6335 5.58301Z" fill="#6FF9D8"/>
<path d="M21.9447 4.05362C22.9975 4.06957 22.9934 4.31061 22.4905 4.3026C22.2496 4.29903 22.2571 3.81702 22.4981 3.82059C23.0009 3.8286 22.9975 4.06957 21.9447 4.05362ZM22.4981 3.82059C22.7391 3.82416 22.7316 4.30609 22.4905 4.3026C21.9877 4.29458 21.9952 3.81266 22.5212 3.82059C22.7621 3.82416 22.7551 4.30609 22.514 4.3026C21.9877 4.29466 21.9952 3.81266 22.4981 3.82059ZM22.514 4.3026C22.2731 4.29903 22.2801 3.81702 22.5212 3.82059C23.0474 3.82853 22.6762 3.66374 22.9371 3.42714C23.3429 3.05939 24.0784 3.87058 23.6726 4.23832C23.4116 4.47492 23.0404 4.31061 22.514 4.3026ZM23.6726 4.23832C23.2667 4.60607 22.5317 3.79489 22.9371 3.42714C23.1985 3.19007 22.9628 3.33502 23.1002 3.01726C23.3615 2.41387 24.568 2.93625 24.307 3.53917C24.1696 3.85685 23.9339 4.00133 23.6726 4.23832ZM24.307 3.53926C24.0455 4.14265 22.8392 3.62034 23.1002 3.01735C23.2375 2.69974 23.1258 3.12723 23.0399 2.75861C22.8734 2.04358 24.3034 1.71035 24.47 2.42553C24.556 2.79407 24.4444 3.22157 24.307 3.53926ZM24.47 2.42553C24.637 3.14056 23.2065 3.47411 23.0399 2.75861C22.9539 2.38999 23.0514 2.7068 22.7599 2.33374C22.2761 1.71622 23.5117 0.749531 23.9951 1.36704C24.2871 1.74011 24.3846 2.05691 24.47 2.42553ZM23.9951 1.36704C24.478 1.98464 23.2428 2.95133 22.7599 2.33374C22.4674 1.96075 22.6407 2.13975 22.2397 1.87031C21.5779 1.42592 22.467 0.101309 23.1294 0.545699C23.5299 0.814984 23.7031 0.994061 23.9951 1.36704ZM23.1295 0.545699C23.7913 0.990487 22.9026 2.31517 22.2398 1.87031C21.8393 1.60142 22.0834 1.67537 21.6006 1.54429C20.8642 1.34356 21.2657 -0.129096 22.002 0.071637C22.4843 0.202709 22.7285 0.276732 23.1295 0.545699ZM22.002 0.071637C22.7382 0.271894 22.3369 1.74455 21.6006 1.54429C21.1181 1.41275 21.4704 1.34491 20.9227 1.46948C20.2542 1.62141 19.9503 0.2834 20.6192 0.131937C21.1667 0.00737133 21.5189 -0.0599902 22.002 0.071637ZM20.6192 0.131937C21.2882 -0.0200014 21.5917 1.31754 20.9227 1.46948C20.3755 1.59396 20.6485 1.44274 20.24 1.77772C19.7226 2.20251 18.8723 1.16671 19.3904 0.741912C19.7987 0.407013 20.0716 0.256027 20.6192 0.131937ZM19.3902 0.74199C19.9081 0.317117 20.7579 1.35292 20.2399 1.77779C19.8318 2.11269 20.1327 1.72329 20.049 2.19466C19.9205 2.92039 18.4691 2.6634 18.5976 1.93775C18.6814 1.4663 18.9821 1.07689 19.3902 0.74199ZM18.5976 1.93775C18.7265 1.21201 20.1779 1.469 20.049 2.19466C19.9657 2.6665 19.9423 2.25892 20.1602 2.80789C20.4389 3.51006 19.034 4.0679 18.7549 3.36517C18.5373 2.81669 18.5143 2.40911 18.5976 1.93775ZM18.7549 3.36517C18.4762 2.663 19.8811 2.10515 20.1602 2.8078C20.3778 3.35629 20.1372 3.30528 20.5018 3.81616C20.8314 4.27776 19.9081 4.93701 19.5786 4.4754C19.2139 3.9646 18.9729 3.91366 18.7549 3.36517Z" fill="#6FF9D8"/>
<path d="M24.3323 11.143C24.8351 10.9804 24.9175 11.2121 24.6898 11.2932C24.4581 11.3756 24.2932 10.9127 24.525 10.8302C24.7527 10.7492 24.8351 10.9804 24.3323 11.143ZM24.5249 10.8302C24.7563 10.7479 24.9211 11.2108 24.6898 11.2932C24.4612 11.3743 24.3034 10.9092 24.5551 10.828C24.7886 10.7523 24.9396 11.2201 24.7057 11.2954C24.4541 11.377 24.2964 10.9118 24.5249 10.8302ZM24.7057 11.2954C24.4722 11.3712 24.3212 10.9033 24.5551 10.828C24.8068 10.7469 25.0624 10.4453 25.5014 10.5928C26.0366 10.7731 25.6764 11.8439 25.1408 11.6636C24.7017 11.5161 24.9572 11.2143 24.7057 11.2954ZM25.1408 11.6636C24.6056 11.4832 24.9662 10.4129 25.5014 10.5928C25.9409 10.7407 26.1482 10.701 27.1987 11.4085C27.7742 11.7961 26.9989 12.9472 26.4239 12.5595C25.3729 11.8519 25.5803 11.8115 25.1408 11.6636ZM26.4238 12.5594C25.8482 12.1717 26.6232 11.0207 27.1986 11.4084C28.2495 12.1159 28.4072 12.0862 29.6898 13.2421C30.2954 13.7875 29.2042 14.9983 28.599 14.4524C27.3165 13.297 27.4743 13.267 26.4238 12.5594ZM28.5991 14.4525C27.9939 13.9072 29.0847 12.6964 29.6899 13.2421C30.9729 14.3976 31.1332 14.4326 32.3414 15.9269C32.9121 16.6331 31.5 17.7744 30.9295 17.0682C29.7213 15.5733 29.8817 15.6083 28.5991 14.4525ZM30.9295 17.0681C30.3588 16.3624 31.7708 15.2211 32.3414 15.9268C33.5495 17.4217 33.5642 17.4141 34.6386 18.7521C35.2171 19.4725 33.7764 20.6292 33.1978 19.9088C32.1234 18.5709 32.138 18.5629 30.9295 17.0681ZM33.1978 19.9088C32.6196 19.1885 34.0604 18.0318 34.6386 18.7522C35.7133 20.0906 35.6071 20.0472 36.3637 20.7946C36.9853 21.4086 35.7567 22.6522 35.1352 22.0381C34.3785 21.2903 34.2726 21.2468 33.1978 19.9088ZM35.1352 22.0381C34.5136 21.4237 35.7417 20.1801 36.3637 20.7946C37.1204 21.542 37.0513 21.5872 37.5874 22.094C38.1638 22.6394 37.0735 23.7926 36.4966 23.2472C35.9605 22.7403 35.8918 22.7851 35.1352 22.0381ZM36.4966 23.2472C35.9197 22.7018 37.0106 21.5485 37.5873 22.0939C38.1234 22.6008 38.0817 22.7168 38.4622 23.1333C38.9226 23.6375 37.9146 24.5581 37.4543 24.0544C37.0739 23.6379 37.0327 23.7539 36.4966 23.2472Z" fill="#6FF9D8"/>
<path d="M25.6228 18.8739C27.1832 19.8442 26.9802 20.1605 26.2235 19.675C25.9077 19.4725 26.3129 18.8403 26.6294 19.0428C27.386 19.5284 27.1832 19.8442 25.6228 18.8739ZM26.6294 19.0428C26.9457 19.2457 26.5399 19.8779 26.2235 19.675C25.4668 19.1898 25.8682 18.555 26.6479 19.0402C26.967 19.2386 26.5704 19.8762 26.2515 19.6781C25.4713 19.1925 25.8726 18.5576 26.6294 19.0428ZM26.2515 19.6781C25.9324 19.4796 26.3294 18.8416 26.6479 19.0402C27.4286 19.5253 27.6359 19.2236 29.3722 20.3591C29.9934 20.7653 29.1808 22.0071 28.5601 21.6013C26.8238 20.4653 27.0317 20.1632 26.2515 19.6781ZM28.5601 21.6013C27.939 21.1946 28.7515 19.9527 29.3722 20.3591C31.1085 21.495 31.0902 21.4888 32.5912 22.4174C33.2186 22.8059 32.4419 24.0602 31.815 23.6721C30.3141 22.743 30.296 22.7368 28.5601 21.6013ZM31.815 23.6721C31.1877 23.284 31.9644 22.0293 32.5912 22.4174C34.0922 23.3469 34.0164 23.2976 34.9326 23.7212C35.6087 24.0336 34.9831 25.3862 34.3071 25.0734C33.3914 24.6497 33.3156 24.601 31.815 23.6721ZM34.3071 25.0733C33.6311 24.7604 34.2566 23.4085 34.9327 23.7211C35.848 24.1447 35.8033 24.1501 36.2299 24.3202C36.9006 24.5882 36.3655 25.9297 35.6947 25.6621C35.2676 25.4916 35.2229 25.4968 34.3071 25.0733ZM35.6947 25.6621C35.0239 25.3941 35.5591 24.0526 36.2299 24.3202C36.657 24.4908 36.6751 24.6609 36.8528 24.7623C37.3535 25.0484 36.781 26.0497 36.2804 25.7636C36.1028 25.6622 36.1214 25.8322 35.6947 25.6621Z" fill="#6FF9D8"/>
<path d="M47.008 24.4965C47.2775 24.5666 47.203 24.8045 47.0914 24.7689C46.8539 24.6946 47.0032 24.2187 47.2411 24.2937C47.3523 24.3285 47.2774 24.5665 47.008 24.4965ZM47.2411 24.2936C47.4789 24.3685 47.3292 24.8443 47.0913 24.7689C46.98 24.7344 47.1178 24.255 47.2526 24.2904C47.4935 24.3529 47.3682 24.8354 47.1267 24.7725C46.9921 24.7379 47.1298 24.2586 47.2411 24.2936ZM47.1267 24.7725C46.8857 24.7101 47.0111 24.2275 47.2526 24.2904C47.3872 24.325 47.5702 24.932 47.4985 24.9803C47.133 25.2262 46.6413 24.4948 47.0067 24.2488C47.0785 24.2009 47.2615 24.808 47.1267 24.7725ZM47.0067 24.2488C47.3722 24.0034 47.864 24.7344 47.4985 24.9803C47.4271 25.0286 47.1569 25.0676 46.6938 25.0402C46.2894 25.0158 46.3373 24.2064 46.7422 24.2303C47.2052 24.2581 46.9354 24.2971 47.0067 24.2488ZM46.7422 24.2303C47.1471 24.2546 47.0988 25.0641 46.6938 25.0402C46.2309 25.0127 46.1379 25.0313 45.6793 24.9042C45.2558 24.7867 45.4906 23.9396 45.9142 24.057C46.3728 24.1843 46.2797 24.2027 46.7422 24.2303ZM45.9142 24.0569C46.3378 24.1744 46.1034 25.0215 45.6794 24.9041C45.2209 24.7769 44.8588 24.3786 44.8447 24.107C44.8199 23.6276 45.779 23.578 45.8039 24.0573C45.8181 24.3285 45.4557 23.9298 45.9142 24.0569ZM45.8039 24.0573C45.8287 24.5367 44.8696 24.5868 44.8447 24.107C44.8306 23.8359 44.8372 23.4957 45.1606 23.0101C45.4756 22.537 46.4223 23.1679 46.1069 23.6409C45.7835 24.1266 45.7897 23.7862 45.8039 24.0573ZM46.1069 23.6409C45.7914 24.1141 44.8451 23.4837 45.1606 23.0101C45.484 22.5246 45.4096 22.4723 45.7547 21.9593C46.1224 21.4121 47.2172 22.148 46.8495 22.6952C46.5048 23.2078 46.4303 23.1554 46.1069 23.6409ZM46.8495 22.6952C46.4814 23.2422 45.3866 22.5069 45.7547 21.9593C46.0994 21.4463 45.9411 21.6425 46.0457 21.2141C46.2176 20.5088 47.6283 20.8526 47.4563 21.5584C47.3518 21.9863 47.1942 22.1821 46.8495 22.6952ZM47.4564 21.5583C47.2845 22.2636 45.8739 21.9194 46.0458 21.214C46.1503 20.7861 46.0945 21.1134 45.9887 20.5964C45.8332 19.8353 47.3554 19.5244 47.5109 20.2854C47.6168 20.8025 47.561 21.1299 47.4564 21.5583ZM47.5109 20.2854C47.6664 21.0466 46.1442 21.358 45.9887 20.5964C45.8827 20.0799 45.9165 20.2624 45.6807 19.7556C45.3423 19.0281 46.7972 18.3512 47.1356 19.0786C47.3714 19.5859 47.4055 19.7688 47.5109 20.2854ZM47.1356 19.0786C47.4741 19.8061 46.0191 20.483 45.6807 19.7556C45.4451 19.2483 45.5877 19.4398 45.3219 19.1465C44.792 18.5617 45.9616 17.5024 46.4914 18.0872C46.7573 18.3804 46.9 18.5718 47.1356 19.0786ZM46.4914 18.0872C47.0214 18.672 45.8517 19.7313 45.3219 19.1465C45.056 18.8532 45.3759 19.0095 44.7875 18.7827C44.1013 18.5174 44.6315 17.1453 45.3174 17.4102C45.9058 17.637 46.2257 17.7939 46.4914 18.0872ZM45.3174 17.4102C46.0041 17.6751 45.4738 19.0477 44.7875 18.7827C44.1991 18.555 44.3073 18.5142 43.6512 18.3547C43.0061 18.1979 43.3197 16.9073 43.9648 17.0642C44.621 17.2236 44.7295 17.1825 45.3174 17.4102ZM43.9648 17.0642C44.6103 17.221 44.2966 18.5116 43.6512 18.3547C42.995 18.1953 43.2954 18.1279 42.9304 18.2187C42.3521 18.3627 42.0647 17.2064 42.6429 17.0629C43.0083 16.9716 43.3087 16.9047 43.9648 17.0642ZM42.6429 17.0629C43.221 16.9189 43.5085 18.0748 42.9304 18.2187C42.5653 18.3096 42.8852 18.1305 42.5414 18.5301C42.1427 18.9944 41.2145 18.1965 41.6136 17.7326C41.9574 17.3327 42.2773 17.1534 42.6429 17.0629ZM41.6136 17.7327C42.0123 17.2684 42.9401 18.0666 42.5414 18.5301C42.1976 18.9301 42.362 18.8616 42.1124 19.3365C41.7824 19.9651 40.5255 19.3054 40.8556 18.6769C41.105 18.2014 41.2698 18.1323 41.6136 17.7327ZM40.8556 18.6769C41.1856 18.0482 42.4421 18.7083 42.1124 19.3365C41.8631 19.8118 42.0142 19.5443 41.9832 19.9385C41.9212 20.7183 40.3612 20.5942 40.4233 19.8145C40.4547 19.4198 40.6061 19.1522 40.8556 18.6769ZM40.4233 19.8145C40.4852 19.0343 42.0452 19.1588 41.9832 19.9385C41.9518 20.3328 41.9366 20.006 42.1103 20.507C42.3753 21.2717 40.8454 21.802 40.5805 21.0369C40.4068 20.5362 40.3918 20.2087 40.4233 19.8145ZM40.5805 21.0369C40.3151 20.2723 41.8449 19.7419 42.1103 20.507C42.284 21.0077 42.2012 20.8499 42.5808 21.4622C43.0039 22.1445 41.6403 22.9902 41.2167 22.3084C40.837 21.6957 40.7542 21.5379 40.5805 21.0369ZM41.2167 22.3084C40.794 21.6261 42.1577 20.7804 42.5808 21.4622C42.9609 22.075 42.9251 22.0956 43.1891 22.5193C43.5915 23.1661 42.2982 23.9701 41.8963 23.3238C41.6323 22.9003 41.5968 22.9207 41.2167 22.3084ZM41.8963 23.3238C41.4941 22.6774 42.7869 21.8734 43.1891 22.5193C43.4527 22.9433 43.5142 23.4771 43.473 23.6999C43.3414 24.4079 41.925 24.1451 42.0566 23.4372C42.0979 23.2139 42.16 23.7473 41.8963 23.3238ZM42.0566 23.4372C42.1878 22.7287 43.6045 22.9915 43.473 23.6999C43.4317 23.9227 43.2201 24.2825 42.9876 24.5182C42.4962 25.0149 41.5029 24.0326 41.9938 23.5356C42.2268 23.3003 42.015 23.6596 42.0566 23.4372ZM41.9937 23.5356C42.4846 23.039 43.4784 24.0212 42.9875 24.5183C42.7544 24.7535 42.439 24.9254 42.0075 25.0432C41.3447 25.2243 40.9822 23.8989 41.645 23.7177C42.0761 23.5994 41.7607 23.7712 41.9937 23.5356ZM41.6451 23.7177C42.308 23.5365 42.6707 24.862 42.0075 25.0432C41.5763 25.1614 41.2331 25.1521 40.5858 24.9919C39.932 24.8302 40.2563 23.5222 40.9102 23.6844C41.5569 23.8448 41.2136 23.8355 41.6451 23.7177ZM40.9102 23.6844C41.5641 23.8461 41.2399 25.1539 40.5858 24.9919C39.939 24.8315 39.8552 24.8247 39.2585 24.598C38.6112 24.3526 39.103 23.0579 39.7502 23.304C40.347 23.5302 40.2634 23.5241 40.9102 23.6844ZM39.7502 23.3039C40.3975 23.5498 39.9057 24.8444 39.2585 24.598C38.6617 24.3716 38.7596 24.4007 38.4939 24.3428C37.8169 24.1947 38.1128 22.8416 38.7893 22.9897C39.0556 23.0479 39.1536 23.077 39.7502 23.3039ZM38.7893 22.9897C39.4658 23.1376 39.1698 24.4907 38.4939 24.3428C38.2271 24.2842 38.4862 24.131 38.387 24.152C37.8643 24.2631 37.642 23.2175 38.1651 23.1063C38.2643 23.085 38.523 22.9311 38.7893 22.9897Z" fill="#6FF9D8"/>
<path d="M46.7272 24.5683C47.1835 24.6989 47.1232 24.8868 46.9185 24.8213C46.7307 24.7614 46.8508 24.3857 47.0386 24.4456C47.2433 24.5111 47.1835 24.6989 46.7272 24.5683ZM47.0386 24.4456C47.2265 24.5058 47.1063 24.8815 46.9185 24.8213C46.7138 24.7561 46.8282 24.3786 47.0559 24.4438C47.2455 24.4982 47.1375 24.8775 46.9478 24.8231C46.7192 24.7575 46.8335 24.3805 47.0386 24.4456ZM46.9478 24.8231C46.7582 24.7689 46.8667 24.3898 47.0559 24.4438C47.2845 24.5094 47.4856 24.3118 47.9136 24.5935C48.3008 24.8487 47.7899 25.624 47.4028 25.3683C46.9743 25.0862 47.1755 24.8885 46.9478 24.8231ZM47.4028 25.3683C47.0151 25.1132 47.5259 24.3383 47.9136 24.5935C48.3415 24.8758 48.5755 24.8913 49.4638 26.0591C49.8355 26.5487 48.8573 27.293 48.4851 26.8034C47.5964 25.6351 47.8302 25.6506 47.4028 25.3683ZM48.4851 26.8034C48.113 26.3143 49.0916 25.57 49.4638 26.0591C50.352 27.2274 50.5443 27.2021 51.4234 28.7085C51.8212 29.3902 50.4571 30.186 50.0593 29.5041C49.1806 27.9974 49.3729 27.9717 48.4851 26.8034ZM50.0593 29.5041C49.6614 28.8219 51.0255 28.0261 51.4234 28.7085C52.3019 30.2147 52.4334 30.2546 52.9149 31.3493C53.2729 32.1632 51.6452 32.8791 51.2873 32.0653C50.8057 30.9706 50.9378 31.0105 50.0593 29.5041ZM51.2873 32.0653C50.9293 31.2515 52.557 30.5355 52.9149 31.3493C53.3965 32.4442 53.4409 32.5255 53.7581 33.5108C54.0344 34.3691 52.3182 34.922 52.0418 34.0638C51.7246 33.078 51.7688 33.1601 51.2873 32.0653ZM52.0418 34.0638C51.7653 33.2051 53.4821 32.6527 53.7581 33.5109C54.0757 34.4963 54.0743 34.583 54.2905 35.5605C54.4802 36.4173 52.7661 36.7964 52.5764 35.9396C52.3603 34.9623 52.3591 35.0491 52.0418 34.0638ZM52.5765 35.9396C52.387 35.0824 54.1011 34.7031 54.2906 35.5604C54.5068 36.5368 54.451 36.6728 54.4927 37.2944C54.5467 38.0959 52.9443 38.2035 52.8902 37.4024C52.8485 36.7805 52.7927 36.916 52.5765 35.9396ZM52.8902 37.4024C52.8366 36.6016 54.4386 36.4934 54.4927 37.2944C54.5348 37.9163 54.0815 38.6115 53.9248 38.6971C53.2837 39.0452 52.5872 37.7631 53.2283 37.4144C53.3851 37.3295 52.9323 38.0246 52.8902 37.4024ZM53.2282 37.4145C53.8693 37.0662 54.5662 38.3488 53.9247 38.6971C53.7678 38.7821 52.8942 38.5819 52.5088 38.1219C52.0679 37.5965 53.1192 36.7149 53.56 37.2403C53.9455 37.7002 53.0714 37.5 53.2282 37.4145ZM53.56 37.2403C54.0009 37.7662 52.9491 38.6479 52.5088 38.1219C52.1233 37.6625 51.9872 37.6064 51.4743 36.7234C51.0897 36.062 52.4136 35.2928 52.7977 35.9549C53.3106 36.8372 53.175 36.7808 53.56 37.2403ZM52.7976 35.9548C53.1821 36.6162 51.8588 37.3853 51.4742 36.7233C50.9616 35.8409 50.8481 35.9019 50.2602 34.8799C49.8146 34.105 51.3643 33.2135 51.81 33.9884C52.398 35.0106 52.285 35.0717 52.7976 35.9548ZM51.8101 33.9885C52.2558 34.7633 50.7061 35.6548 50.2603 34.88C49.6724 33.8579 49.6883 33.9087 49.0575 32.9457C48.5609 32.1868 50.0783 31.193 50.5754 31.9519C51.2062 32.9155 51.2222 32.9664 51.8101 33.9885ZM50.5754 31.9519C51.0724 32.7108 49.5546 33.7042 49.0575 32.9457C48.4271 31.9825 48.5303 32.0121 48.074 31.4446C47.5472 30.7889 48.8582 29.7353 49.3853 30.391C49.8416 30.9586 49.9444 30.9884 50.5754 31.9519ZM49.3853 30.391C49.9122 31.0467 48.6008 32.1004 48.074 31.4447C47.6177 30.8772 47.9898 31.026 47.7674 30.9326C47.0913 30.649 47.6593 29.2968 48.3349 29.5808C48.5573 29.6743 48.929 29.823 49.3853 30.391ZM48.3349 29.5808C49.011 29.8647 48.443 31.2164 47.7674 30.9326C47.545 30.8394 48.4975 30.224 48.4709 30.5178C48.4102 31.1868 47.0723 31.0655 47.133 30.3965C47.1596 30.1026 48.1125 29.4872 48.3349 29.5808ZM47.133 30.3965C47.1941 29.7274 48.5316 29.8488 48.4709 30.5178C48.4443 30.812 48.4816 30.5709 48.731 31.5495C48.9114 32.2553 47.4989 32.6159 47.3191 31.9097C47.0692 30.9311 47.1063 30.6902 47.133 30.3965ZM47.3191 31.9097C47.1387 31.2036 48.5507 30.8435 48.731 31.5495C48.9809 32.5283 49.0868 32.4963 49.458 33.9175C49.6698 34.7297 48.0452 35.1537 47.8333 34.3411C47.4626 32.9199 47.5685 32.8885 47.3191 31.9097ZM47.8333 34.3411C47.6212 33.5291 49.2458 33.1051 49.458 33.9175C49.8284 35.3389 49.8519 35.3438 50.2324 36.8816C50.4393 37.7166 48.7687 38.1304 48.5617 37.2953C48.1812 35.7575 48.2043 35.7624 47.8333 34.3411ZM48.5617 37.2953C48.3549 36.4597 50.0259 36.0459 50.2324 36.8816C50.6134 38.4188 50.5355 38.6832 50.4818 39.3909C50.4238 40.1488 48.9087 40.0332 48.9662 39.2756C49.0203 38.5682 48.9423 38.8327 48.5617 37.2953ZM48.9662 39.2756C49.0243 38.5181 50.5394 38.6333 50.4818 39.3909C50.4278 40.0988 49.4013 40.6752 48.84 40.4369C48.206 40.168 48.7448 38.8999 49.3783 39.1692C49.9396 39.4077 48.9126 39.9837 48.9662 39.2756ZM49.3783 39.1692C50.0122 39.4383 49.474 40.7057 48.84 40.4369C48.2792 40.1985 48.3872 40.0585 47.833 39.8777C47.3395 39.7169 47.6611 38.7289 48.1551 38.8901C48.7093 39.071 48.8173 38.931 49.3783 39.1692Z" fill="#6FF9D8"/>
<path d="M47.9118 39.4041C47.9543 39.4481 47.595 39.4139 47.5973 39.3922C47.6309 39.0329 48.3499 39.1007 48.3159 39.4599C48.3141 39.4821 47.9543 39.448 47.9118 39.4041ZM48.3159 39.4599C48.2818 39.8197 47.5632 39.7515 47.5973 39.3922C47.599 39.37 48.2206 39.1503 48.2419 39.172C48.4958 39.4342 47.9716 39.9421 47.7177 39.6798C47.6966 39.658 48.318 39.4383 48.3159 39.4599ZM47.7177 39.6798C47.4644 39.4178 47.9881 38.9107 48.2419 39.172C48.2631 39.1941 48.4719 39.9211 48.4372 39.9552C47.9641 40.4257 47.0231 39.4795 47.4962 39.009C47.5308 38.9748 47.739 39.7019 47.7177 39.6798ZM47.4962 39.009C47.9693 38.5388 48.9104 39.4852 48.4372 39.9552C48.4027 39.9898 48.4425 39.5739 48.3983 39.9694C48.3415 40.4799 47.3199 40.3655 47.3775 39.8552C47.4218 39.4595 47.4616 39.0435 47.4962 39.009ZM47.3774 39.8552C47.4342 39.3444 48.4558 39.4586 48.3982 39.9694C48.3539 40.3646 48.3441 40.3355 48.2573 41.889C48.229 42.3898 47.2281 42.3335 47.2561 41.8332C47.3429 40.2796 47.3332 40.2503 47.3774 39.8552ZM47.2561 41.8333C47.2845 41.3332 48.2853 41.389 48.2573 41.8891C48.1705 43.4429 48.2875 43.4752 48.1413 44.9749C48.0811 45.5925 46.8459 45.4719 46.9061 44.8548C47.0523 43.3546 47.1693 43.387 47.2561 41.8333ZM46.9061 44.8547C46.9664 44.2373 48.2015 44.3579 48.1413 44.9749C47.9951 46.4751 47.9269 46.747 47.7089 47.1068C47.3767 47.656 46.2779 46.9915 46.6106 46.4422C46.8282 46.0825 46.7599 46.3544 46.9061 44.8547ZM46.6106 46.4422C46.9429 45.8929 48.0411 46.5575 47.7089 47.1068C47.4914 47.4665 46.5371 47.5524 46.3169 47.3398C45.8986 46.9347 46.7085 46.0979 47.1267 46.5028C47.347 46.716 46.3927 46.8019 46.6106 46.4422ZM47.1267 46.5028C47.5453 46.9079 46.7356 47.7447 46.3169 47.3398C46.0971 47.1266 45.8986 46.8307 45.6036 45.3744C45.4818 44.7711 46.6882 44.5264 46.8104 45.1299C47.1055 46.5862 46.907 46.2898 47.1267 46.5028ZM46.8104 45.1299C46.9327 45.7334 45.7259 45.9774 45.6036 45.3744C45.309 43.9179 45.1495 43.9488 44.7645 42.0273C44.6116 41.2648 46.137 40.9592 46.2899 41.7215C46.6749 43.6431 46.5153 43.6732 46.8104 45.1299ZM46.2899 41.7215C46.4427 42.4841 44.9174 42.7898 44.7645 42.0273C44.3799 40.1063 44.4123 40.1392 44.232 39.4308C44.0469 38.7006 45.5062 38.3295 45.6922 39.0595C45.8721 39.7679 45.9049 39.8006 46.2899 41.7215ZM45.6922 39.0595C45.8774 39.7892 44.4181 40.1608 44.232 39.4308C44.0521 38.7223 45.3023 38.5766 45.297 38.6421C45.2572 39.1626 44.2165 39.0825 44.2563 38.5623C44.2612 38.4969 45.5119 38.3511 45.6922 39.0595Z" fill="#6FF9D8"/>
<path d="M44.5235 38.8393C42.1847 45.8352 41.8494 45.7209 43.042 42.2228C43.1563 41.8879 43.8271 42.1163 43.7128 42.4513C42.5201 45.9496 42.1847 45.8352 44.5235 38.8393ZM43.7128 42.4513C43.5985 42.7867 42.9278 42.5581 43.042 42.2228C44.2347 38.725 44.9063 38.9513 43.7366 42.4495C43.6241 42.7853 42.9524 42.5607 43.065 42.2249C44.2342 38.7272 44.9054 38.9535 43.7128 42.4513ZM43.065 42.2249C43.1771 41.8891 43.8492 42.1137 43.7366 42.4495C42.5675 45.9477 42.8502 46.1795 42.5103 46.7903C42.1661 47.4094 40.9287 46.7208 41.2725 46.1019C41.6128 45.491 41.8955 45.7227 43.065 42.2249ZM41.2725 46.1019C41.6167 45.4835 42.8546 46.172 42.5103 46.7903C42.17 47.4018 41.6283 47.7091 41.4372 47.7318C40.786 47.8084 40.6319 46.505 41.284 46.428C41.4745 46.4058 40.9327 46.7134 41.2725 46.1019ZM41.284 46.428C41.9353 46.3513 42.0894 47.6546 41.4372 47.7318C41.2467 47.7544 40.5282 47.1425 40.4768 46.3141C40.437 45.6731 41.7195 45.5928 41.7598 46.2339C41.8113 47.0623 41.0931 46.4505 41.284 46.428ZM41.7598 46.2339C41.7998 46.8755 40.5167 46.9557 40.4768 46.3141C40.4249 45.4861 40.253 45.4063 40.3408 43.6023C40.3803 42.789 42.0066 42.8678 41.9672 43.6812C41.88 45.4853 41.708 45.406 41.7598 46.2339ZM41.9672 43.6811C41.9278 44.4944 40.3014 44.4157 40.3409 43.6023C40.4282 41.7983 40.3466 41.76 40.4711 40.3159C40.5487 39.4205 42.3385 39.5752 42.2614 40.4701C42.1364 41.9152 42.0549 41.8772 41.9672 43.6811ZM42.2614 40.4701C42.1838 41.3655 40.394 41.2108 40.4711 40.3159C40.5961 38.8708 40.7564 38.9567 40.7529 38.6602C40.7445 37.9257 42.2135 37.9084 42.2224 38.6429C42.2255 38.9398 42.3863 39.0258 42.2614 40.4701ZM42.2224 38.6429C42.2308 39.3775 40.7613 39.3948 40.7529 38.6602C40.7498 38.3638 41.4844 38.8849 41.4436 38.8849C40.9137 38.8849 40.9137 37.8252 41.4436 37.8252C41.4844 37.8253 42.2188 38.3466 42.2224 38.6429Z" fill="#6FF9D8"/>
<path d="M41.3266 39.0715C40.8928 38.9009 40.9544 38.7272 41.1945 38.8127C41.3678 38.8742 41.2445 39.2207 41.0714 39.1591C40.8312 39.0735 40.8928 38.9009 41.3266 39.0715ZM41.0714 39.1591C40.8981 39.0975 41.0212 38.7511 41.1945 38.8127C41.4346 38.8981 41.3057 39.2424 41.0891 39.1569C40.9181 39.0895 41.0527 38.7475 41.2238 38.8149C41.4405 38.9004 41.3116 39.2447 41.0714 39.1591ZM41.2238 38.815C41.3948 38.8822 41.2602 39.2243 41.0891 39.1569C40.872 39.0719 41.0235 39.3108 40.4769 39.4229C40.067 39.507 39.8987 38.687 40.3085 38.6027C40.8552 38.4905 41.0067 38.7298 41.2238 38.815ZM40.3085 38.6027C40.7187 38.5186 40.8871 39.3386 40.4769 39.4229C39.9301 39.5354 39.8832 39.6877 39.0264 39.7436C38.4638 39.7803 38.3906 38.655 38.9533 38.6182C39.8096 38.5623 39.7617 38.7148 40.3085 38.6027ZM38.9532 38.6181C39.5154 38.5818 39.589 39.7067 39.0263 39.7435C38.1704 39.7993 37.7122 39.7487 37.3029 39.4125C36.7908 38.9912 37.6334 37.9669 38.1456 38.3877C38.5549 38.7245 38.0969 38.674 38.9532 38.6181ZM38.1456 38.3877C38.6577 38.8092 37.8151 39.8338 37.3029 39.4125C36.8936 39.0758 36.6251 38.2656 36.9605 37.4899C37.2586 36.8 38.6391 37.3967 38.3405 38.0866C38.0052 38.8618 37.7362 38.0515 38.1456 38.3877ZM38.3405 38.0866C38.042 38.7769 36.6619 38.18 36.9605 37.4899C37.2958 36.7144 37.2033 36.6073 37.8036 35.4497C38.2094 34.6669 39.7746 35.4784 39.3689 36.2613C38.7685 37.4189 38.6759 37.3113 38.3405 38.0866ZM39.3688 36.2612C38.963 37.0436 37.3977 36.232 37.8035 35.4496C38.4038 34.2915 38.3379 34.3474 38.8079 33.2087C39.1583 32.3603 40.8551 33.0606 40.5047 33.909C40.0346 35.0473 39.9691 35.1032 39.3688 36.2612ZM40.5047 33.909C40.1543 34.7574 38.4579 34.0572 38.8079 33.2088C39.2779 32.0702 39.2907 32.2456 39.4462 31.5035C39.6217 30.668 41.292 31.0184 41.1169 31.8535C40.9615 32.5957 40.9748 32.771 40.5047 33.909ZM41.1169 31.8535C40.942 32.6886 39.2713 32.3387 39.4462 31.5035C39.6022 30.7614 39.6763 31.1164 39.5322 30.5076C39.3524 29.7464 40.8746 29.3867 41.0545 30.1479C41.1985 30.7562 41.2725 31.1114 41.1169 31.8535ZM41.0545 30.1479C41.2344 30.9091 39.7121 31.2688 39.5322 30.5076C39.3882 29.8993 39.4871 30.1039 39.0183 29.2976C38.6334 28.6349 39.9585 27.8653 40.3435 28.5276C40.8118 29.3341 40.9105 29.5392 41.0545 30.1479ZM40.3435 28.5276C40.7286 29.1904 39.4034 29.9605 39.0183 29.2976C38.5497 28.4914 38.6161 28.5879 38.0575 27.8972C37.5754 27.3009 38.7676 26.3373 39.2496 26.9332C39.8088 27.6243 39.8747 27.7213 40.3435 28.5276ZM39.2496 26.9332C39.7316 27.5294 38.5395 28.4931 38.0575 27.8972C37.4987 27.2061 37.6312 27.311 37.1279 26.9137C36.5409 26.4499 37.4686 25.2754 38.0556 25.7392C38.5589 26.137 38.6914 26.2421 39.2496 26.9332ZM38.0556 25.7392C38.6426 26.203 37.7149 27.3775 37.1279 26.9137C36.6246 26.5159 36.6871 26.5118 36.2897 26.2382C35.7071 25.8368 36.5104 24.6712 37.0929 25.0724C37.4899 25.3457 37.5524 25.3419 38.0556 25.7392ZM37.0929 25.0724C37.6759 25.4743 36.8727 26.6394 36.2897 26.2382C35.8927 25.9644 35.887 25.9427 35.712 25.8155C35.1507 25.4083 35.965 24.2861 36.5258 24.6937C36.7013 24.8203 36.696 24.7992 37.0929 25.0724ZM36.5258 24.6937C37.0871 25.1004 36.2729 26.2226 35.712 25.8155C35.5365 25.6882 35.9969 25.7973 35.9609 25.8004C35.2907 25.8532 35.1843 24.5134 35.8546 24.4602C35.8906 24.457 36.3509 24.5661 36.5258 24.6937ZM35.8546 24.4602C36.5244 24.4071 36.6308 25.7472 35.9609 25.8004C35.9251 25.8031 36.4337 25.0084 36.4439 25.0535C36.5684 25.6158 35.4448 25.8651 35.3199 25.3034C35.3097 25.2576 35.8188 24.4633 35.8546 24.4602Z" fill="#6FF9D8"/>
<path d="M26.4629 19.2364C28.103 22.1577 27.7942 22.3261 26.9976 20.8653C26.8288 20.5565 27.4469 20.2199 27.6152 20.5286C28.4117 21.9894 28.103 22.1577 26.4629 19.2364ZM27.6152 20.5287C27.7835 20.8375 27.166 21.1742 26.9976 20.8654C26.201 19.4048 26.8164 19.0641 27.6365 20.5247C27.8088 20.8318 27.1952 21.176 27.0229 20.8694C26.2032 19.4083 26.8186 19.068 27.6152 20.5287ZM27.0229 20.8694C26.851 20.5623 27.464 20.2182 27.6364 20.5247C28.4565 21.9859 28.8623 21.8389 29.2172 22.631C29.5361 23.3439 28.1105 23.9823 27.7911 23.2694C27.4366 22.4772 27.843 22.3301 27.0229 20.8694ZM27.791 23.2693C27.472 22.5564 28.8977 21.918 29.2171 22.6309C29.5715 23.4231 29.6814 23.4488 29.9623 24.2369C30.2556 25.0596 28.6101 25.6462 28.3169 24.8235C28.036 24.0353 28.1459 24.0614 27.791 23.2693ZM28.3169 24.8235C28.0236 24.0007 29.669 23.4142 29.9623 24.2369C30.2432 25.0245 30.2888 25.1012 30.4859 25.8925C30.7026 26.7608 28.9659 27.1936 28.7493 26.3254C28.5521 25.5346 28.5978 25.6111 28.3169 24.8235ZM28.7493 26.3254C28.5326 25.4574 30.2694 25.0242 30.4859 25.8925C30.6831 26.6833 30.6938 26.7927 30.7921 27.6017C30.8988 28.4806 29.1414 28.6943 29.0346 27.8156C28.9362 27.0068 28.9465 27.1162 28.7493 26.3254ZM29.0346 27.8156C28.9278 26.9371 30.6849 26.7232 30.7921 27.6017C30.8904 28.4111 30.8475 28.5435 30.8058 29.9054C30.7806 30.7414 29.1086 30.6905 29.1344 29.8544C29.1759 28.4923 29.1334 28.6252 29.0346 27.8156ZM29.1344 29.8544C29.16 29.0185 30.8315 29.07 30.8058 29.9054C30.7643 31.2678 30.6947 31.2412 30.6969 32.6505C30.6982 33.416 29.1662 33.4188 29.1654 32.6531C29.1626 31.2435 29.0926 31.2168 29.1344 29.8544ZM29.1653 32.6532C29.1635 31.8872 30.6955 31.8847 30.6968 32.6506C30.699 34.0598 30.6388 33.8764 30.8772 34.787C31.0624 35.4922 29.6513 35.8621 29.4665 35.1568C29.2282 34.2459 29.1675 34.0625 29.1653 32.6532ZM29.4665 35.1568C29.2818 34.4516 30.6924 34.0816 30.8772 34.787C31.116 35.6978 31.0771 35.7084 31.2037 36.1936C31.3783 36.8598 30.0457 37.2086 29.8715 36.5422C29.7443 36.0566 29.7053 36.0671 29.4665 35.1568ZM29.8715 36.5422C29.697 35.8759 31.0297 35.5276 31.2037 36.1935C31.3308 36.6791 30.6256 37.473 28.942 37.3662C28.3227 37.3272 28.4011 36.0876 29.0209 36.127C30.704 36.2338 29.9981 37.0278 29.8715 36.5422ZM29.0209 36.127C29.6402 36.1665 29.5614 37.4052 28.942 37.3662C27.2585 37.2594 27.2616 37.255 24.7048 37.104C24.0899 37.0675 24.1626 35.8368 24.7775 35.8732C27.3347 36.0247 27.3374 36.0202 29.0209 36.127ZM24.7775 35.8732C25.3929 35.91 25.3198 37.1402 24.7048 37.104C22.1481 36.9525 22.1795 36.9755 20.57 36.963C19.932 36.9581 19.9418 35.6819 20.5802 35.6867C22.1894 35.699 22.2213 35.7222 24.7775 35.8732ZM20.5802 35.6867C21.2181 35.6915 21.2084 36.968 20.57 36.963C18.9604 36.9507 18.9552 36.9591 17.7474 36.9391C17.1006 36.929 17.1218 35.6357 17.7683 35.6464C18.976 35.6659 18.9702 35.6748 20.5802 35.6867ZM17.7683 35.6464C18.4147 35.6571 18.3938 36.9498 17.7474 36.9391C16.5397 36.9197 16.4821 36.9303 15.1894 36.7972C14.5324 36.7291 14.6679 35.4146 15.325 35.4824C16.6177 35.6158 16.5606 35.627 17.7683 35.6464ZM15.325 35.4825C15.9824 35.5502 15.8468 36.8646 15.1894 36.7972C13.8971 36.6635 13.898 36.6778 12.6933 36.5581C12.0217 36.4911 12.1555 35.1479 12.8271 35.2149C14.0313 35.3344 14.0326 35.349 15.325 35.4825ZM12.8271 35.2149C13.4987 35.2818 13.3649 36.6251 12.6933 36.5581C11.4892 36.4385 11.5644 36.446 10.9566 36.4535C10.277 36.4624 10.2598 35.1041 10.9389 35.0952C11.5472 35.0872 11.623 35.0952 12.8271 35.2149ZM10.9389 35.0952C11.6181 35.0863 11.6358 36.4451 10.9566 36.4535C10.3483 36.4615 9.76134 36.1297 9.6382 35.9246C9.29085 35.347 10.4468 34.6522 10.794 35.2299C10.9172 35.4351 10.3306 35.1032 10.9389 35.0952ZM10.794 35.2298C11.1414 35.8076 9.98548 36.5022 9.6382 35.9245C9.51507 35.719 9.34853 35.3246 9.40383 34.4607C9.4512 33.7164 10.9394 33.8118 10.892 34.5555C10.837 35.4195 10.6704 35.0243 10.794 35.2298ZM10.892 34.5555C10.8446 35.2998 9.35646 35.205 9.40383 34.4607C9.45874 33.5968 9.28728 33.6088 9.34313 32.1743C9.379 31.2586 11.2101 31.3304 11.1746 32.2456C11.1188 33.6802 10.9469 33.6921 10.892 34.5555ZM11.1746 32.2456C11.1388 33.1609 9.30775 33.0901 9.34313 32.1743C9.39939 30.7398 9.30418 30.6746 9.46183 29.0965C9.56243 28.086 11.5835 28.2876 11.4826 29.2981C11.3252 30.8762 11.2304 30.8111 11.1746 32.2456ZM11.4826 29.2981C11.382 30.3088 9.36082 30.1072 9.46183 29.0965C9.61916 27.5185 9.65233 27.3909 9.96509 26.0525C10.1937 25.0747 12.1488 25.5324 11.9202 26.5102C11.6071 27.848 11.6402 27.7204 11.4826 29.2981ZM11.9202 26.5102C11.6916 27.4874 9.73651 27.0299 9.96509 26.0525C10.2783 24.714 10.3346 24.5395 10.7865 23.5072C11.1896 22.5862 13.0322 23.3925 12.6287 24.3134C12.1767 25.3457 12.2335 25.1713 11.9202 26.5102ZM12.6287 24.3135C12.2255 25.2351 10.3834 24.4283 10.7865 23.5073C11.2384 22.475 11.2197 22.4577 11.5924 21.6235C12.0128 20.6834 13.8931 21.5242 13.4731 22.4644C13.1 23.2985 13.081 23.2812 12.6287 24.3135ZM13.4731 22.4644C13.0522 23.4045 11.172 22.5636 11.5924 21.6235C11.9654 20.7896 11.9375 20.8507 12.1577 20.2585C12.5165 19.2909 14.4522 20.009 14.0933 20.9766C13.8736 21.5694 13.8457 21.6306 13.4731 22.4644ZM14.0933 20.9766C13.734 21.9446 11.7984 21.2265 12.1577 20.2585C12.3775 19.6661 12.4798 19.7095 12.5591 19.4925C12.8749 18.6268 14.6058 19.2585 14.2901 20.1238C14.2107 20.3413 14.313 20.3843 14.0933 20.9766ZM14.2901 20.1238C13.9742 20.9895 12.2432 20.3577 12.5591 19.4925C12.6384 19.2749 13.8213 20.0844 13.792 20.1029C13.2985 20.4205 12.6636 19.4331 13.1576 19.1159C13.1864 19.0972 14.3693 19.9067 14.2901 20.1238Z" fill="#6FF9D8"/>
<path d="M13.2569 19.7003C13.0296 19.6072 13.1107 19.3693 13.2471 19.4154C13.4855 19.4965 13.3238 19.9727 13.0859 19.8921C12.9485 19.8451 13.0296 19.6072 13.2569 19.7003ZM13.0859 19.8921C12.8475 19.811 13.0093 19.3347 13.2471 19.4153C13.3845 19.4623 13.2082 19.9327 13.0947 19.8863C12.8618 19.791 13.0522 19.3258 13.2853 19.421C13.3986 19.4677 13.2224 19.9382 13.0859 19.8921ZM13.2852 19.4211C13.5178 19.5164 13.3273 19.9815 13.0946 19.8863C12.9812 19.8398 13.3485 19.9501 13.1576 20.1017C12.8147 20.3741 12.2703 19.6879 12.6131 19.4159C12.8041 19.2643 13.1713 19.3746 13.2852 19.4211ZM12.6131 19.4159C12.956 19.1439 13.5005 19.8297 13.1576 20.1017C12.9662 20.2536 13.0388 20.1641 12.4509 20.962C12.1971 21.3062 11.5086 20.7989 11.7621 20.4547C12.35 19.6569 12.4222 19.5674 12.6131 19.4159ZM11.7621 20.4547C12.0159 20.1105 12.7048 20.6178 12.4509 20.962C11.8631 21.7598 12.0288 21.8379 11.0222 23.3866C10.6908 23.8967 9.67097 23.2337 10.0024 22.7239C11.0089 21.1751 11.1746 21.2526 11.7621 20.4547ZM10.0024 22.7239C10.3338 22.214 11.3536 22.8768 11.0222 23.3866C10.0157 24.936 10.1264 24.9523 9.50704 26.0581C9.15881 26.6794 7.91657 25.9833 8.2648 25.3622C8.88461 24.2565 8.99577 24.2731 10.0024 22.7239ZM8.2648 25.3622C8.61295 24.7415 9.8548 25.4375 9.50704 26.0581C8.88675 27.164 8.98832 26.8601 8.95634 27.3854C8.91247 28.1076 7.46774 28.0199 7.51162 27.2977C7.54351 26.7724 7.64498 26.468 8.2648 25.3622ZM7.51162 27.2977C7.55549 26.5752 9.00022 26.6634 8.95634 27.3854C8.92445 27.9108 9.00196 27.8698 8.99838 28.952C8.99529 29.7517 7.39593 29.7465 7.39855 28.9468C7.40212 27.8644 7.47972 27.8231 7.51162 27.2977ZM7.39855 28.9468C7.40125 28.1471 9.00109 28.1524 8.99847 28.952C8.9945 30.0344 9.07773 30.0415 9.05162 32.3895C9.04187 33.2726 7.27597 33.253 7.28565 32.3701C7.31183 30.022 7.39498 30.0292 7.39855 28.9468ZM7.28565 32.3701C7.29541 31.487 9.0613 31.5066 9.05162 32.3895C9.02592 34.7377 9.02496 34.7054 9.08844 37.1669C9.11097 38.0495 7.34595 38.0946 7.32381 37.212C7.25994 34.7505 7.25955 34.7181 7.28565 32.3701ZM7.32373 37.2119C7.30072 36.3295 9.06575 36.2842 9.08836 37.1668C9.15167 39.6283 9.07503 39.6522 9.0732 41.1577C9.07193 41.9631 7.46012 41.9612 7.46107 41.1554C7.46329 39.6499 7.38665 39.6734 7.32373 37.2119ZM7.46107 41.1554C7.46234 40.3496 9.07416 40.3514 9.07329 41.1577C9.07115 42.6627 9.02767 42.7172 8.9373 43.9586C8.8824 44.7205 7.35752 44.6102 7.41283 43.8477C7.5032 42.6064 7.45924 42.6605 7.46107 41.1554ZM7.41283 43.8477C7.46821 43.0858 8.9926 43.1965 8.9373 43.9586C8.84741 45.1999 8.7606 45.2061 8.68435 46.0444C8.62318 46.7199 7.27239 46.5976 7.33348 45.922C7.40965 45.0834 7.32285 45.0891 7.41283 43.8477ZM7.33348 45.922C7.39466 45.2468 8.74544 45.3691 8.68435 46.0444C8.60858 46.8835 8.46585 47.0111 8.37294 47.2733C8.18419 47.8062 7.11823 47.4284 7.30699 46.8954C7.39997 46.6331 7.25771 46.7612 7.33348 45.922ZM7.30699 46.8954C7.49621 46.3625 8.56209 46.7404 8.37294 47.2733C8.27987 47.5355 7.64356 47.8235 7.446 47.7806C6.96932 47.6772 7.17576 46.7239 7.65253 46.8272C7.85009 46.8701 7.21392 47.1576 7.30699 46.8954ZM7.65253 46.8272C8.12913 46.9304 7.92276 47.8838 7.446 47.7806C7.24844 47.7376 7.02247 47.5874 6.76461 47.3273C6.43852 46.9981 7.09642 46.3456 7.42291 46.6748C7.68085 46.9348 7.45489 46.7842 7.65253 46.8272ZM7.42291 46.6748C7.749 47.004 7.09063 47.6561 6.76461 47.3273C6.50675 47.0668 6.33403 46.9641 6.14218 46.5322C5.91939 46.0306 6.92234 45.5844 7.14529 46.0859C7.33706 46.5174 7.16465 46.4147 7.42291 46.6748ZM7.14529 46.0859C7.36808 46.5875 6.36504 47.0336 6.1421 46.5322C5.95025 46.1002 5.76158 46.0045 5.62511 45.2628C5.49832 44.5731 6.87799 44.3191 7.0047 45.009C7.14125 45.7501 6.95352 45.6544 7.14529 46.0859ZM7.00478 45.0089C7.13188 45.6988 5.7523 45.9526 5.6252 45.2627C5.48873 44.5211 5.30751 44.4489 5.23086 43.2244C5.17596 42.3529 6.91838 42.244 6.97296 43.1149C7.04992 44.3396 6.86831 44.2674 7.00478 45.0089ZM6.97288 43.115C7.02779 43.986 5.28537 44.0954 5.23078 43.2244C5.15374 41.9996 5.05719 41.941 5.06425 40.3182C5.06869 39.3502 7.00382 39.3591 6.99986 40.3267C6.9928 41.9494 6.89624 41.8905 6.97288 43.115ZM6.99986 40.3267C6.99589 41.2942 5.0598 41.2863 5.06425 40.3182C5.07131 38.6954 5.06607 38.6975 5.06956 36.9638C5.07179 35.9906 7.01843 35.9949 7.01628 36.9684C7.01232 38.7015 7.007 38.7039 6.99986 40.3267ZM7.01628 36.9684C7.01406 37.9412 5.06734 37.9373 5.06956 36.9638C5.07353 35.2303 5.11162 35.236 5.10503 33.6207C5.10146 32.6859 6.97153 32.6784 6.9755 33.6137C6.98169 35.2285 7.01985 35.2344 7.01628 36.9684ZM6.9755 33.6137C6.97907 34.5485 5.109 34.556 5.10503 33.6207C5.09876 32.0054 5.17144 32.0206 5.14311 30.702C5.12494 29.8399 6.85014 29.8027 6.86831 30.6657C6.89672 31.9833 6.96891 31.9983 6.9755 33.6137ZM6.86831 30.6657C6.88688 31.5279 5.16176 31.565 5.14311 30.702C5.11519 29.3844 5.20611 29.5116 5.07226 28.8018C4.92651 28.0297 6.47002 27.7386 6.61577 28.5107C6.74962 29.2206 6.84038 29.3477 6.86831 30.6657ZM6.61577 28.5107C6.76112 29.2826 5.21761 29.5737 5.07226 28.8018C4.93849 28.0921 5.43953 28.6016 5.01109 28.4248C4.35628 28.1546 4.89724 26.8441 5.55252 27.1143C5.98048 27.2912 6.48192 27.8006 6.61577 28.5107ZM5.55252 27.1144C6.20772 27.3847 5.66676 28.6955 5.01109 28.4248C4.58312 28.248 4.91279 28.23 3.98553 28.316C3.34842 28.3745 3.23107 27.0998 3.8681 27.0409C4.79489 26.9558 5.12455 26.9376 5.55252 27.1144ZM3.8681 27.0408C4.50569 26.9824 4.62303 28.257 3.98553 28.316C3.05874 28.4009 3.02501 28.3911 2.28825 28.4205C1.6609 28.4453 1.61091 27.1907 2.23826 27.1658C2.97495 27.1365 2.94124 27.1264 3.8681 27.0408ZM2.23826 27.1658C2.86562 27.141 2.91568 28.3956 2.28825 28.4205C1.55156 28.4496 0.997611 28.2503 0.772996 27.9721C0.345029 27.4431 1.40257 26.5881 1.83014 27.1166C2.05523 27.3948 1.50142 27.195 2.23826 27.1658ZM1.83014 27.1166C2.2581 27.6452 1.20057 28.5011 0.772996 27.9721C0.547984 27.6939 0.330421 27.4568 0.230769 27.0665C0.04027 26.3204 1.53236 25.9395 1.72294 26.6855C1.82259 27.0759 1.60552 26.8385 1.83014 27.1166ZM1.72294 26.6855C1.91344 27.4315 0.421267 27.8125 0.230769 27.0665C0.131116 26.6762 0.0579694 26.4499 0.0726476 26.1177C0.108986 25.2984 1.74731 25.3706 1.71145 26.1898C1.69629 26.522 1.62329 26.2952 1.72294 26.6855ZM1.71145 26.1898C1.67511 27.0089 0.0367853 26.9367 0.0726476 26.1177C0.0872464 25.7853 0.173171 25.4704 0.314478 25.1753C0.665801 24.4416 2.13314 25.1446 1.78134 25.8783C1.64012 26.1734 1.72557 25.8579 1.71145 26.1898ZM1.78134 25.8783C1.42954 26.6115 -0.0368455 25.9084 0.314478 25.1753C0.455864 24.8802 0.697303 24.6242 0.980473 24.3951C1.58831 23.9029 2.57222 25.1177 1.96486 25.6099C1.68129 25.8394 1.92265 25.5834 1.78134 25.8783ZM1.96478 25.6098C1.35695 26.1016 0.372948 24.8868 0.980385 24.395C1.26348 24.1655 1.64669 24.0632 2.14734 23.9865C2.85705 23.878 3.07413 25.2974 2.36435 25.406C1.86418 25.4827 2.24747 25.3803 1.96478 25.6098ZM2.36442 25.4061C1.65471 25.5151 1.43764 24.0956 2.14743 23.9865C2.64759 23.91 2.79779 23.9626 3.32231 23.9959C3.97894 24.0372 3.89642 25.3512 3.23947 25.31C2.71487 25.2767 2.86507 25.3294 2.36442 25.4061ZM3.23947 25.31C2.58245 25.2684 2.66529 23.9547 3.32231 23.9959C3.84684 24.0291 3.78661 24.0487 4.09358 24.0398C4.7307 24.0211 4.7683 25.2958 4.1308 25.3143C3.82374 25.3232 3.76392 25.3433 3.23947 25.31ZM4.1308 25.3143C3.49321 25.333 3.456 24.0583 4.09358 24.0398C4.40016 24.0305 3.90491 24.2688 4.08034 24.0433C4.4795 23.5293 5.50736 24.3278 5.1082 24.8416C4.9327 25.0671 4.43729 25.305 4.1308 25.3143ZM5.1082 24.8416C4.70903 25.3556 3.68117 24.5572 4.08034 24.0433C4.25528 23.8173 4.10287 24.046 4.304 23.2618C4.47498 22.5954 5.80855 22.9374 5.63709 23.6042C5.43596 24.3879 5.28323 24.6162 5.1082 24.8416ZM5.63718 23.6042C5.4662 24.2711 4.13263 23.9286 4.30408 23.2618C4.50521 22.4785 4.44761 22.4297 4.7994 21.2699C5.01918 20.546 6.46787 20.9855 6.24818 21.7094C5.89582 22.8693 5.8387 22.8205 5.63718 23.6042ZM6.24818 21.7094C6.0284 22.4338 4.57971 21.9943 4.7994 21.2699C5.1512 20.111 5.1777 19.947 5.90161 18.6312C6.28531 17.9338 7.67997 18.7007 7.29627 19.3981C6.57284 20.7139 6.5999 20.5504 6.24818 21.7094ZM7.29627 19.3981C6.91305 20.0954 5.51792 19.3286 5.90161 18.6312C6.62505 17.3154 6.67908 17.2152 7.9218 15.5614C8.40563 14.9177 9.69263 15.8852 9.20881 16.5289C7.96616 18.1824 8.02018 18.0823 7.29627 19.3981ZM9.20881 16.5289C8.72498 17.1722 7.43798 16.2051 7.9218 15.5614C9.16461 13.9079 9.21412 13.835 10.3457 12.6281C10.9021 12.0344 12.0894 13.1473 11.533 13.741C10.4019 14.9482 10.4516 14.8751 9.20881 16.5289ZM11.533 13.741C10.9765 14.3347 9.78927 13.2217 10.3457 12.6281C11.4767 11.4213 11.6566 11.2985 12.4833 10.7944C13.1621 10.3801 13.9905 11.7381 13.3113 12.1518C12.4846 12.6564 12.6645 12.5342 11.533 13.741ZM13.3113 12.1518C12.6326 12.5661 11.8045 11.2086 12.4833 10.7944C13.31 10.2902 13.5036 10.2392 14.5355 9.92781C15.2652 9.70764 15.7059 11.1665 14.9763 11.3867C13.9444 11.6986 14.1381 11.6477 13.3113 12.1518ZM14.9763 11.3867C14.2466 11.6074 13.8062 10.1481 14.5355 9.92781C15.5678 9.61639 15.6533 9.63131 16.2026 9.52809C16.9167 9.39385 17.1857 10.8222 16.4716 10.9565C15.9221 11.0598 16.0081 11.0753 14.9763 11.3867ZM16.4716 10.9565C15.7573 11.0906 15.4884 9.66234 16.2026 9.52809C16.7515 9.42487 17.0465 10.6344 16.9535 10.6646C16.4582 10.8253 16.1367 9.83427 16.632 9.67392C16.7254 9.64338 17.0204 10.8532 16.4716 10.9565Z" fill="#6FF9D8"/>
<path d="M25.4204 36.8026C25.5532 36.8408 25.4598 37.053 25.4167 37.034C25.2042 36.9408 25.3911 36.5155 25.6037 36.6091C25.6467 36.6281 25.5532 36.8408 25.4204 36.8026ZM25.6037 36.6091C25.816 36.7025 25.629 37.1278 25.4167 37.034C25.3738 37.0153 25.5307 36.5788 25.5971 36.5979C25.8213 36.6617 25.6937 37.1092 25.4696 37.0454C25.4031 37.0263 25.5606 36.59 25.6037 36.6091ZM25.4696 37.0454C25.2458 36.9816 25.3739 36.5341 25.5971 36.5979C25.6636 36.6166 25.9936 36.7362 26.0379 36.9023C26.1425 37.2962 25.3552 37.5053 25.2507 37.1119C25.2063 36.9454 25.5361 37.0645 25.4696 37.0454ZM25.2507 37.1119C25.1461 36.718 25.9334 36.5084 26.0379 36.9023C26.0822 37.0688 26.0995 37.2085 26.0459 37.8393C26.0109 38.2504 25.1886 38.1804 25.2232 37.7689C25.2772 37.1384 25.2949 37.278 25.2507 37.1119ZM25.2232 37.7689C25.2587 37.3577 26.0809 37.4281 26.0459 37.8393C25.9919 38.4701 26.1978 38.4796 26.0579 40.412C26.0136 41.0296 24.7784 40.9401 24.8236 40.3225C24.9636 38.39 25.1696 38.3998 25.2232 37.7689ZM24.8236 40.3225C24.8679 39.7053 26.103 39.7949 26.0578 40.412C25.9178 42.3449 26.1017 42.3659 25.9511 44.2004C25.885 45.0014 24.283 44.87 24.349 44.0689C24.4997 42.2343 24.6837 42.2556 24.8236 40.3225ZM24.349 44.0689C24.4151 43.2679 26.0166 43.3994 25.9511 44.2004C25.8004 46.0351 25.7654 46.2042 25.5386 46.9431C25.3033 47.7091 23.7717 47.2386 24.0066 46.4731C24.2334 45.7342 24.1984 45.9035 24.349 44.0689ZM24.0066 46.4731C24.2418 45.7072 25.7734 46.1772 25.5386 46.9431C25.3118 47.6817 24.2007 48.0247 23.8422 47.8112C23.264 47.4661 23.9543 46.3102 24.5321 46.6548C24.8909 46.8693 23.7802 47.2121 24.0066 46.4731ZM24.5321 46.6548C25.1102 47 24.4204 48.1559 23.8422 47.8112C23.4838 47.5969 23.1347 47.2352 22.7475 45.9947C22.5313 45.3001 23.9193 44.8672 24.136 45.5614C24.5228 46.8028 24.1736 46.4413 24.5321 46.6548ZM24.136 45.5614C24.3522 46.2557 22.9637 46.6885 22.7475 45.9947C22.3603 44.7533 22.1694 44.6975 21.7339 42.2946C21.5734 41.4093 23.3447 41.0885 23.5051 41.9738C23.9402 44.3767 23.7488 44.3205 24.136 45.5614ZM23.5051 41.9738C23.6654 42.8594 21.8941 43.1802 21.7339 42.2946C21.2987 39.8919 21.4092 39.852 21.1536 38.2035C21.033 37.4282 22.5836 37.1871 22.7041 37.9624C22.9598 39.611 23.07 39.5712 23.5051 41.9738ZM22.7041 37.9624C22.8242 38.7378 21.2736 38.9788 21.1536 38.2035C20.8974 36.5549 22.1535 36.4487 22.1512 36.5341C22.1371 37.0153 21.1752 36.9869 21.1889 36.5063C21.1916 36.4203 22.448 36.314 22.7041 37.9624Z" fill="#6FF9D8"/>
<path d="M20.2621 36.4544C20.139 37.2156 19.8279 37.1463 19.913 36.7658C19.9822 36.4548 20.6042 36.5936 20.535 36.9046C20.4499 37.2851 20.1389 37.2156 20.2621 36.4544ZM20.535 36.9046C20.4655 37.2156 19.8435 37.0768 19.913 36.7658C19.9977 36.3853 20.6231 36.5054 20.5616 36.8859C20.511 37.2005 19.8819 37.0989 19.9325 36.7845C19.9941 36.4039 20.6197 36.5239 20.535 36.9046ZM19.9325 36.7845C19.9834 36.4699 20.6125 36.5713 20.5616 36.8859C20.5004 37.2664 20.8207 37.3405 20.4654 39.1542C20.3409 39.7896 19.0708 39.5406 19.1952 38.9057C19.5506 37.0914 19.8713 37.165 19.9325 36.7845ZM19.1952 38.9057C19.3197 38.2705 20.5899 38.5194 20.4654 39.1542C20.1101 40.9689 20.2551 41.0433 19.7243 43.1225C19.5249 43.9027 17.9655 43.5039 18.1644 42.7242C18.6951 40.6452 18.8399 40.72 19.1952 38.9057ZM18.1643 42.7243C18.3633 41.9444 19.9236 42.3424 19.7242 43.1226C19.1935 45.2017 19.2352 45.4051 18.7469 46.401C18.3442 47.2228 16.7009 46.4174 17.1037 45.5961C17.592 44.5996 17.6336 44.803 18.1643 42.7243ZM17.1037 45.596C17.5064 44.7742 19.1491 45.5796 18.747 46.401C18.2587 47.397 17.926 47.5909 17.5676 47.8848C16.9708 48.3733 15.9935 47.1803 16.5903 46.6917C16.9482 46.3978 16.6159 46.5919 17.1037 45.596ZM16.5903 46.6917C17.1866 46.203 18.164 47.3957 17.5676 47.8848C17.2092 48.1781 16.1099 47.8431 15.9629 47.4989C15.7015 46.8888 16.9216 46.366 17.183 46.976C17.3306 47.3203 16.2319 46.9853 16.5903 46.6917ZM17.183 46.976C17.4444 47.5862 16.2243 48.1088 15.9629 47.4989C15.8154 47.1546 15.6573 46.9419 15.5774 45.6843C15.5288 44.9165 17.0643 44.819 17.113 45.5863C17.1931 46.8441 17.0355 46.6318 17.183 46.976ZM17.113 45.5863C17.1622 46.3546 15.6262 46.452 15.5774 45.6843C15.4973 44.4269 15.1907 44.3941 15.1633 42.5507C15.1473 41.4767 17.2961 41.4443 17.312 42.5188C17.3399 44.3617 17.0332 44.3289 17.113 45.5863ZM17.312 42.5188C17.3284 43.5931 15.1792 43.6254 15.1633 42.5507C15.1358 40.7076 14.9989 40.7306 14.9493 39.1907C14.9103 37.9794 17.3328 37.9014 17.3718 39.1127C17.4213 40.6526 17.2845 40.6757 17.312 42.5188ZM17.3717 39.1127C17.4107 40.3239 14.9882 40.4019 14.9493 39.1907C14.8996 37.6506 15.1791 37.6818 15.1327 37.0579C15.0626 36.1257 16.926 35.9866 16.9961 36.9178C17.0426 37.5421 17.3221 37.5727 17.3717 39.1127ZM16.9961 36.9178C17.0656 37.8499 15.2022 37.9896 15.1327 37.0579C15.0856 36.4336 16.6026 36.2803 16.6181 36.3863C16.7018 36.9714 15.5309 37.1388 15.4472 36.5537C15.4322 36.4478 16.9491 36.2941 16.9961 36.9178Z" fill="#6FF9D8"/>
</svg>
