<svg width="390" height="844" viewBox="0 0 390 844" fill="none" xmlns="http://www.w3.org/2000/svg">
<g opacity="0.12">
<path d="M373.476 84.7558C373.476 81.322 375.32 78.1527 378.306 76.4563L424.125 50.4228C427.049 48.7613 430.632 48.7613 433.556 50.4228L479.375 76.4563C482.361 78.1527 484.205 81.322 484.205 84.7559L484.205 136.542C484.205 139.976 482.361 143.145 479.375 144.842L433.556 170.875C430.632 172.537 427.049 172.537 424.125 170.875L378.306 144.842C375.32 143.145 373.476 139.976 373.476 136.542L373.476 84.7558Z" stroke="#F9F8FF" stroke-width="1.27275"/>
<path d="M230.93 84.7504C230.93 81.3166 232.774 78.1473 235.76 76.4509L281.579 50.4174C284.503 48.7559 288.086 48.7559 291.01 50.4174L336.829 76.4509C339.815 78.1473 341.659 81.3166 341.659 84.7505L341.659 136.537C341.659 139.971 339.815 143.14 336.829 144.836L291.01 170.87C288.086 172.531 284.503 172.531 281.579 170.87L235.76 144.836C232.774 143.14 230.93 139.971 230.93 136.537L230.93 84.7504Z" stroke="#F9F8FF" stroke-width="1.27275"/>
<path d="M88.38 84.7504C88.38 81.3166 90.2244 78.1473 93.21 76.4509L139.029 50.4174C141.953 48.7559 145.536 48.7559 148.46 50.4174L194.279 76.4509C197.265 78.1473 199.109 81.3166 199.109 84.7505L199.109 136.537C199.109 139.971 197.265 143.14 194.279 144.836L148.46 170.87C145.536 172.531 141.953 172.531 139.029 170.87L93.21 144.836C90.2244 143.14 88.38 139.971 88.38 136.537L88.38 84.7504Z" stroke="#F9F8FF" stroke-width="1.27275"/>
<path d="M302.201 -27.25C302.201 -30.6839 304.045 -33.8532 307.031 -35.5496L352.85 -61.5831C355.774 -63.2446 359.357 -63.2446 362.281 -61.5831L408.1 -35.5495C411.086 -33.8532 412.93 -30.6839 412.93 -27.25L412.93 24.5364C412.93 27.9703 411.086 31.1396 408.1 32.8359L362.281 58.8694C359.357 60.5309 355.774 60.5309 352.85 58.8694L307.031 32.8359C304.045 31.1395 302.201 27.9703 302.201 24.5364L302.201 -27.25Z" stroke="#F9F8FF" stroke-width="1.27275"/>
<path d="M159.655 -27.25C159.655 -30.6839 161.499 -33.8532 164.485 -35.5496L210.304 -61.5831C213.228 -63.2446 216.811 -63.2446 219.735 -61.5831L265.554 -35.5495C268.54 -33.8532 270.384 -30.6839 270.384 -27.25L270.384 24.5364C270.384 27.9703 268.54 31.1396 265.554 32.8359L219.735 58.8694C216.811 60.5309 213.228 60.5309 210.304 58.8694L164.485 32.8359C161.499 31.1395 159.655 27.9703 159.655 24.5364L159.655 -27.25Z" stroke="#F9F8FF" stroke-width="1.27275"/>
<path d="M159.655 196.755C159.655 193.321 161.499 190.152 164.485 188.456L210.304 162.422C213.228 160.761 216.811 160.761 219.735 162.422L265.554 188.456C268.54 190.152 270.384 193.321 270.384 196.755L270.384 248.542C270.384 251.976 268.54 255.145 265.554 256.841L219.735 282.875C216.811 284.536 213.228 284.536 210.304 282.875L164.485 256.841C161.499 255.145 159.655 251.976 159.655 248.542L159.655 196.755Z" stroke="#F9F8FF" stroke-width="1.27275"/>
<path d="M373.476 308.756C373.476 305.322 375.32 302.153 378.306 300.456L424.125 274.423C427.049 272.761 430.632 272.761 433.556 274.423L479.375 300.456C482.361 302.153 484.205 305.322 484.205 308.756L484.205 360.542C484.205 363.976 482.361 367.145 479.375 368.842L433.556 394.875C430.632 396.537 427.049 396.537 424.125 394.875L378.306 368.842C375.32 367.145 373.476 363.976 373.476 360.542L373.476 308.756Z" stroke="#F9F8FF" stroke-width="1.27275"/>
<path d="M230.93 308.756C230.93 305.322 232.774 302.153 235.76 300.456L281.579 274.423C284.503 272.761 288.086 272.761 291.01 274.423L336.829 300.456C339.815 302.153 341.659 305.322 341.659 308.756L341.659 360.542C341.659 363.976 339.815 367.145 336.829 368.842L291.01 394.875C288.086 396.537 284.503 396.537 281.579 394.875L235.76 368.842C232.774 367.145 230.93 363.976 230.93 360.542L230.93 308.756Z" stroke="#F9F8FF" stroke-width="1.27275"/>
<path d="M302.201 196.755C302.201 193.321 304.045 190.152 307.031 188.456L352.85 162.422C355.774 160.761 359.357 160.761 362.281 162.422L408.1 188.456C411.086 190.152 412.93 193.321 412.93 196.755L412.93 248.542C412.93 251.976 411.086 255.145 408.1 256.841L362.281 282.875C359.357 284.536 355.774 284.536 352.85 282.875L307.031 256.841C304.045 255.145 302.201 251.976 302.201 248.542L302.201 196.755Z" stroke="#F9F8FF" stroke-width="1.27275"/>
</g>
<g opacity="0.12">
<path d="M47.8279 706.462C47.8279 703.029 49.6723 699.859 52.6579 698.163L98.4769 672.129C101.401 670.468 104.984 670.468 107.908 672.129L153.727 698.163C156.713 699.859 158.557 703.029 158.557 706.462L158.557 758.249C158.557 761.683 156.713 764.852 153.727 766.548L107.908 792.582C104.984 794.243 101.401 794.243 98.4769 792.582L52.6579 766.548C49.6723 764.852 47.8279 761.683 47.8279 758.249L47.8279 706.462Z" stroke="#F9F8FF" stroke-width="1.27275"/>
<path d="M47.8279 482.458C47.8279 479.024 49.6723 475.854 52.6579 474.158L98.4769 448.125C101.401 446.463 104.984 446.463 107.908 448.125L153.727 474.158C156.713 475.854 158.557 479.024 158.557 482.458L158.557 534.244C158.557 537.678 156.713 540.847 153.727 542.544L107.908 568.577C104.984 570.239 101.401 570.239 98.4769 568.577L52.6579 542.544C49.6723 540.847 47.8279 537.678 47.8279 534.244L47.8279 482.458Z" stroke="#F9F8FF" stroke-width="1.27275"/>
<path d="M190.378 706.462C190.378 703.029 192.223 699.859 195.208 698.163L241.027 672.129C243.951 670.468 247.534 670.468 250.458 672.129L296.278 698.163C299.263 699.859 301.108 703.029 301.108 706.463L301.107 758.249C301.107 761.683 299.263 764.852 296.277 766.548L250.458 792.582C247.534 794.243 243.951 794.243 241.027 792.582L195.208 766.548C192.223 764.852 190.378 761.683 190.378 758.249L190.378 706.462Z" stroke="#F9F8FF" stroke-width="1.27275"/>
<path d="M-94.718 706.462C-94.718 703.029 -92.8736 699.859 -89.888 698.163L-44.069 672.129C-41.1447 670.468 -37.5619 670.468 -34.6377 672.129L11.1813 698.163C14.1669 699.859 16.0113 703.029 16.0113 706.462L16.0113 758.249C16.0113 761.683 14.1669 764.852 11.1813 766.548L-34.6377 792.582C-37.5619 794.243 -41.1448 794.243 -44.069 792.582L-89.888 766.548C-92.8736 764.852 -94.718 761.683 -94.718 758.249L-94.718 706.462Z" stroke="#F9F8FF" stroke-width="1.27275"/>
<path d="M-94.718 482.458C-94.718 479.024 -92.8736 475.854 -89.888 474.158L-44.069 448.125C-41.1447 446.463 -37.5619 446.463 -34.6377 448.125L11.1813 474.158C14.1669 475.854 16.0113 479.024 16.0113 482.458L16.0113 534.244C16.0113 537.678 14.1669 540.847 11.1813 542.544L-34.6377 568.577C-37.5619 570.239 -41.1448 570.239 -44.069 568.577L-89.888 542.544C-92.8736 540.847 -94.718 537.678 -94.718 534.244L-94.718 482.458Z" stroke="#F9F8FF" stroke-width="1.27275"/>
<path d="M-23.447 594.458C-23.447 591.024 -21.6026 587.855 -18.617 586.159L27.202 560.125C30.1263 558.464 33.7091 558.464 36.6333 560.125L82.4523 586.159C85.4379 587.855 87.2823 591.024 87.2823 594.458L87.2823 646.245C87.2823 649.678 85.4379 652.848 82.4523 654.544L36.6333 680.578C33.7091 682.239 30.1262 682.239 27.202 680.578L-18.617 654.544C-21.6026 652.848 -23.447 649.678 -23.447 646.245L-23.447 594.458Z" stroke="#F9F8FF" stroke-width="1.27275"/>
<path d="M-23.4471 818.463C-23.4471 815.03 -21.6027 811.86 -18.6171 810.164L27.2019 784.13C30.1261 782.469 33.7089 782.469 36.6332 784.13L82.4522 810.164C85.4378 811.86 87.2822 815.03 87.2822 818.463L87.2822 870.25C87.2822 873.684 85.4378 876.853 82.4522 878.549L36.6332 904.583C33.7089 906.244 30.1261 906.244 27.2019 904.583L-18.6171 878.549C-21.6027 876.853 -23.4471 873.684 -23.4471 870.25L-23.4471 818.463Z" stroke="#F9F8FF" stroke-width="1.27275"/>
<path d="M119.103 818.463C119.103 815.03 120.948 811.86 123.933 810.164L169.752 784.13C172.676 782.469 176.259 782.469 179.183 784.13L225.002 810.164C227.988 811.86 229.832 815.03 229.832 818.463L229.832 870.25C229.832 873.684 227.988 876.853 225.002 878.549L179.183 904.583C176.259 906.244 172.676 906.244 169.752 904.583L123.933 878.549C120.948 876.853 119.103 873.684 119.103 870.25L119.103 818.463Z" stroke="#F9F8FF" stroke-width="1.27275"/>
<path d="M119.103 594.458C119.103 591.024 120.948 587.855 123.933 586.159L169.752 560.125C172.677 558.464 176.259 558.464 179.184 560.125L225.003 586.159C227.988 587.855 229.833 591.024 229.833 594.458L229.833 646.245C229.833 649.678 227.988 652.848 225.003 654.544L179.184 680.578C176.259 682.239 172.677 682.239 169.752 680.578L123.933 654.544C120.948 652.848 119.103 649.678 119.103 646.245L119.103 594.458Z" stroke="#F9F8FF" stroke-width="1.27275"/>
</g>
</svg>
