<svg width="390" height="637" viewBox="0 0 390 637" fill="none" xmlns="http://www.w3.org/2000/svg">
<g style="mix-blend-mode:luminosity" opacity="0.4">
<path d="M213.967 4.42181H177.056C175.119 4.42181 173.315 3.37366 172.333 1.70193L153.878 -30.2599C152.909 -31.9449 152.909 -34.0279 153.878 -35.6996L172.333 -67.6615C173.301 -69.3465 175.106 -70.3813 177.056 -70.3813H213.967C215.904 -70.3813 217.708 -69.3332 218.677 -67.6615L237.132 -35.6996C238.101 -34.0146 238.101 -31.9316 237.132 -30.2599L218.677 1.70193C217.708 3.38693 215.904 4.42181 213.954 4.42181H213.967ZM177.056 -67.7543C176.061 -67.7543 175.132 -67.2236 174.641 -66.3612L156.186 -34.3994C155.682 -33.537 155.682 -32.4623 156.186 -31.6132L174.641 0.348625C175.146 1.21103 176.061 1.74174 177.056 1.74174H213.967C214.962 1.74174 215.891 1.21103 216.382 0.348625L234.837 -31.6132C235.341 -32.4756 235.341 -33.5503 234.837 -34.3994L216.382 -66.3612C215.891 -67.2236 214.962 -67.7543 213.967 -67.7543H177.056Z" fill="url(#paint0_linear_247_21929)"/>
<path d="M137.698 47.0419H100.788C98.8506 47.0419 97.0462 45.9938 96.0643 44.3221L77.609 12.3602C76.6405 10.6752 76.6405 8.5922 77.609 6.92047L96.0643 -25.0414C97.0329 -26.7264 98.8373 -27.7612 100.788 -27.7612H137.698C139.635 -27.7612 141.44 -26.7131 142.408 -25.0414L160.864 6.92047C161.832 8.60547 161.832 10.6885 160.864 12.3602L142.408 44.3221C141.44 46.007 139.635 47.0419 137.685 47.0419H137.698ZM100.788 -25.1342C99.7926 -25.1342 98.8638 -24.6035 98.3729 -23.7411L79.9176 8.22071C79.4134 9.08311 79.4134 10.1578 79.9176 11.0069L98.3729 42.9687C98.8771 43.8311 99.7926 44.3619 100.788 44.3619H137.698C138.693 44.3619 139.622 43.8311 140.113 42.9687L158.568 11.0069C159.073 10.1445 159.073 9.06984 158.568 8.22071L140.113 -23.7411C139.622 -24.6035 138.693 -25.1342 137.698 -25.1342H100.788Z" fill="url(#paint1_linear_247_21929)"/>
<path d="M63.6731 4.42181H26.7624C24.8254 4.42181 23.021 3.37366 22.0391 1.70193L3.5838 -30.2599C2.61526 -31.9449 2.61526 -34.0279 3.5838 -35.6996L22.0391 -67.6615C23.0077 -69.3465 24.8121 -70.3813 26.7624 -70.3813H63.6731C65.6102 -70.3813 67.4146 -69.3332 68.3831 -67.6615L86.8385 -35.6996C87.807 -34.0146 87.807 -31.9316 86.8385 -30.2599L68.3831 1.70193C67.4146 3.38693 65.6102 4.42181 63.6598 4.42181H63.6731ZM26.7624 -67.7543C25.7674 -67.7543 24.8386 -67.2236 24.3477 -66.3612L5.89237 -34.3994C5.3882 -33.537 5.3882 -32.4623 5.89237 -31.6132L24.3477 0.348625C24.8519 1.21103 25.7674 1.74174 26.7624 1.74174H63.6731C64.6682 1.74174 65.5969 1.21103 66.0878 0.348625L84.5432 -31.6132C85.0473 -32.4756 85.0473 -33.5503 84.5432 -34.3994L66.0878 -66.3612C65.5969 -67.2236 64.6682 -67.7543 63.6731 -67.7543H26.7624Z" fill="url(#paint2_linear_247_21929)"/>
<path d="M213.967 172.661H177.056C175.119 172.661 173.315 171.612 172.333 169.941L153.878 137.979C152.909 136.294 152.909 134.211 153.878 132.539L172.333 100.577C173.301 98.8923 175.106 97.8574 177.056 97.8574H213.967C215.904 97.8574 217.708 98.9056 218.677 100.577L237.132 132.539C238.101 134.224 238.101 136.307 237.132 137.979L218.677 169.941C217.708 171.626 215.904 172.661 213.954 172.661H213.967ZM177.056 100.484C176.061 100.484 175.132 101.015 174.641 101.878L156.186 133.839C155.682 134.702 155.682 135.776 156.186 136.626L174.641 168.587C175.146 169.45 176.061 169.981 177.056 169.981H213.967C214.962 169.981 215.891 169.45 216.382 168.587L234.837 136.626C235.341 135.763 235.341 134.688 234.837 133.839L216.382 101.878C215.891 101.015 214.962 100.484 213.967 100.484H177.056Z" fill="url(#paint3_linear_247_21929)"/>
<path d="M290.236 130.039H253.325C251.388 130.039 249.583 128.991 248.602 127.32L230.146 95.3578C229.178 93.6728 229.178 91.5898 230.146 89.918L248.602 57.9562C249.57 56.2712 251.374 55.2363 253.325 55.2363H290.236C292.173 55.2363 293.977 56.2845 294.946 57.9562L313.401 89.918C314.369 91.603 314.369 93.6861 313.401 95.3578L294.946 127.32C293.977 129.005 292.173 130.039 290.222 130.039H290.236ZM253.325 57.8633C252.33 57.8633 251.401 58.394 250.91 59.2564L232.455 91.2183C231.951 92.0807 231.951 93.1553 232.455 94.0045L250.91 125.966C251.414 126.829 252.33 127.359 253.325 127.359H290.236C291.231 127.359 292.159 126.829 292.65 125.966L311.106 94.0045C311.61 93.1421 311.61 92.0674 311.106 91.2183L292.65 59.2564C292.159 58.394 291.231 57.8633 290.236 57.8633H253.325Z" fill="url(#paint4_linear_247_21929)"/>
<path d="M139.942 130.039H103.031C101.094 130.039 99.2895 128.991 98.3077 127.32L79.8524 95.3578C78.8838 93.6728 78.8838 91.5898 79.8524 89.918L98.3077 57.9562C99.2763 56.2712 101.081 55.2363 103.031 55.2363H139.942C141.879 55.2363 143.683 56.2845 144.652 57.9562L163.107 89.918C164.076 91.603 164.076 93.6861 163.107 95.3578L144.652 127.32C143.683 129.005 141.879 130.039 139.928 130.039H139.942ZM103.031 57.8633C102.036 57.8633 101.107 58.394 100.616 59.2564L82.161 91.2183C81.6568 92.0807 81.6568 93.1553 82.161 94.0045L100.616 125.966C101.12 126.829 102.036 127.359 103.031 127.359H139.942C140.937 127.359 141.866 126.829 142.356 125.966L160.812 94.0045C161.316 93.1421 161.316 92.0674 160.812 91.2183L142.356 59.2564C141.866 58.394 140.937 57.8633 139.942 57.8633H103.031Z" fill="url(#paint5_linear_247_21929)"/>
<path d="M213.967 89.663H177.056C175.119 89.663 173.315 88.6149 172.333 86.9431L153.878 54.9813C152.909 53.2963 152.909 51.2133 153.878 49.5416L172.333 17.5797C173.301 15.8947 175.106 14.8599 177.056 14.8599H213.967C215.904 14.8599 217.708 15.908 218.677 17.5797L237.132 49.5416C238.101 51.2266 238.101 53.3096 237.132 54.9813L218.677 86.9431C217.708 88.6281 215.904 89.663 213.954 89.663H213.967ZM177.056 17.4869C176.061 17.4869 175.132 18.0176 174.641 18.88L156.186 50.8418C155.682 51.7042 155.682 52.7789 156.186 53.628L174.641 85.5898C175.146 86.4522 176.061 86.9829 177.056 86.9829H213.967C214.962 86.9829 215.891 86.4522 216.382 85.5898L234.837 53.628C235.341 52.7656 235.341 51.6909 234.837 50.8418L216.382 18.88C215.891 18.0176 214.962 17.4869 213.967 17.4869H177.056Z" fill="url(#paint6_linear_247_21929)"/>
<path d="M290.236 215.28H253.325C251.388 215.28 249.583 214.232 248.602 212.561L230.146 180.599C229.178 178.914 229.178 176.831 230.146 175.159L248.602 143.197C249.57 141.512 251.374 140.477 253.325 140.477H290.236C292.173 140.477 293.977 141.525 294.946 143.197L313.401 175.159C314.369 176.844 314.369 178.927 313.401 180.599L294.946 212.561C293.977 214.246 292.173 215.28 290.222 215.28H290.236ZM253.325 143.104C252.33 143.104 251.401 143.635 250.91 144.497L232.455 176.459C231.951 177.322 231.951 178.396 232.455 179.245L250.91 211.207C251.414 212.07 252.33 212.6 253.325 212.6H290.236C291.231 212.6 292.159 212.07 292.65 211.207L311.106 179.245C311.61 178.383 311.61 177.308 311.106 176.459L292.65 144.497C292.159 143.635 291.231 143.104 290.236 143.104H253.325Z" fill="url(#paint7_linear_247_21929)"/>
<path d="M364.073 174.955H327.162C325.225 174.955 323.421 173.906 322.439 172.235L303.984 140.273C303.015 138.588 303.015 136.505 303.984 134.833L322.439 102.871C323.407 101.186 325.212 100.151 327.162 100.151H364.073C366.01 100.151 367.814 101.2 368.783 102.871L387.238 134.833C388.207 136.518 388.207 138.601 387.238 140.273L368.783 172.235C367.814 173.92 366.01 174.955 364.06 174.955H364.073ZM327.162 102.778C326.167 102.778 325.238 103.309 324.748 104.171L306.292 136.133C305.788 136.996 305.788 138.07 306.292 138.92L324.748 170.881C325.252 171.744 326.167 172.274 327.162 172.274H364.073C365.068 172.274 365.997 171.744 366.488 170.881L384.943 138.92C385.447 138.057 385.447 136.982 384.943 136.133L366.488 104.171C365.997 103.309 365.068 102.778 364.073 102.778H327.162Z" fill="url(#paint8_linear_247_21929)"/>
<path d="M213.967 257.902H177.056C175.119 257.902 173.315 256.853 172.333 255.182L153.878 223.22C152.909 221.535 152.909 219.452 153.878 217.78L172.333 185.818C173.301 184.133 175.106 183.098 177.056 183.098H213.967C215.904 183.098 217.708 184.147 218.677 185.818L237.132 217.78C238.101 219.465 238.101 221.548 237.132 223.22L218.677 255.182C217.708 256.867 215.904 257.902 213.954 257.902H213.967ZM177.056 185.725C176.061 185.725 175.132 186.256 174.641 187.118L156.186 219.08C155.682 219.943 155.682 221.017 156.186 221.867L174.641 253.828C175.146 254.691 176.061 255.221 177.056 255.221H213.967C214.962 255.221 215.891 254.691 216.382 253.828L234.837 221.867C235.341 221.004 235.341 219.929 234.837 219.08L216.382 187.118C215.891 186.256 214.962 185.725 213.967 185.725H177.056Z" fill="url(#paint9_linear_247_21929)"/>
<path d="M139.942 215.28H103.031C101.094 215.28 99.2895 214.232 98.3077 212.561L79.8524 180.599C78.8838 178.914 78.8838 176.831 79.8524 175.159L98.3077 143.197C99.2763 141.512 101.081 140.477 103.031 140.477H139.942C141.879 140.477 143.683 141.525 144.652 143.197L163.107 175.159C164.076 176.844 164.076 178.927 163.107 180.599L144.652 212.561C143.683 214.246 141.879 215.28 139.928 215.28H139.942ZM103.031 143.104C102.036 143.104 101.107 143.635 100.616 144.497L82.161 176.459C81.6568 177.322 81.6568 178.396 82.161 179.245L100.616 211.207C101.12 212.07 102.036 212.6 103.031 212.6H139.942C140.937 212.6 141.866 212.07 142.356 211.207L160.812 179.245C161.316 178.383 161.316 177.308 160.812 176.459L142.356 144.497C141.866 143.635 140.937 143.104 139.942 143.104H103.031Z" fill="url(#paint10_linear_247_21929)"/>
<path d="M364.26 4.42181H327.349C325.412 4.42181 323.607 3.37366 322.626 1.70193L304.17 -30.2599C303.202 -31.9449 303.202 -34.0279 304.17 -35.6996L322.626 -67.6615C323.594 -69.3465 325.399 -70.3813 327.349 -70.3813H364.26C366.197 -70.3813 368.001 -69.3332 368.97 -67.6615L387.425 -35.6996C388.393 -34.0146 388.393 -31.9316 387.425 -30.2599L368.97 1.70193C368.001 3.38693 366.197 4.42181 364.246 4.42181H364.26ZM327.349 -67.7543C326.354 -67.7543 325.425 -67.2236 324.934 -66.3612L306.479 -34.3994C305.975 -33.537 305.975 -32.4623 306.479 -31.6132L324.934 0.348625C325.438 1.21103 326.354 1.74174 327.349 1.74174H364.26C365.255 1.74174 366.183 1.21103 366.674 0.348625L385.13 -31.6132C385.634 -32.4756 385.634 -33.5503 385.13 -34.3994L366.674 -66.3612C366.183 -67.2236 365.255 -67.7543 364.26 -67.7543H327.349Z" fill="url(#paint11_linear_247_21929)"/>
<path d="M440.528 47.0419H403.618C401.68 47.0419 399.876 45.9938 398.894 44.3221L380.439 12.3602C379.47 10.6752 379.47 8.5922 380.439 6.92047L398.894 -25.0414C399.863 -26.7264 401.667 -27.7612 403.618 -27.7612H440.528C442.465 -27.7612 444.27 -26.7131 445.238 -25.0414L463.694 6.92047C464.662 8.60547 464.662 10.6885 463.694 12.3602L445.238 44.3221C444.27 46.007 442.465 47.0419 440.515 47.0419H440.528ZM403.618 -25.1342C402.622 -25.1342 401.694 -24.6035 401.203 -23.7411L382.747 8.22071C382.243 9.08311 382.243 10.1578 382.747 11.0069L401.203 42.9687C401.707 43.8311 402.622 44.3619 403.618 44.3619H440.528C441.523 44.3619 442.452 43.8311 442.943 42.9687L461.398 11.0069C461.902 10.1445 461.902 9.06984 461.398 8.22071L442.943 -23.7411C442.452 -24.6035 441.523 -25.1342 440.528 -25.1342H403.618Z" fill="url(#paint12_linear_247_21929)"/>
<path d="M364.26 89.663H327.349C325.412 89.663 323.607 88.6149 322.626 86.9431L304.17 54.9813C303.202 53.2963 303.202 51.2133 304.17 49.5416L322.626 17.5797C323.594 15.8947 325.399 14.8599 327.349 14.8599H364.26C366.197 14.8599 368.001 15.908 368.97 17.5797L387.425 49.5416C388.393 51.2266 388.393 53.3096 387.425 54.9813L368.97 86.9431C368.001 88.6281 366.197 89.663 364.246 89.663H364.26ZM327.349 17.4869C326.354 17.4869 325.425 18.0176 324.934 18.88L306.479 50.8418C305.975 51.7042 305.975 52.7789 306.479 53.628L324.934 85.5898C325.438 86.4522 326.354 86.9829 327.349 86.9829H364.26C365.255 86.9829 366.183 86.4522 366.674 85.5898L385.13 53.628C385.634 52.7656 385.634 51.6909 385.13 50.8418L366.674 18.88C366.183 18.0176 365.255 17.4869 364.26 17.4869H327.349Z" fill="url(#paint13_linear_247_21929)"/>
<path d="M290.236 47.0419H253.325C251.388 47.0419 249.583 45.9938 248.602 44.3221L230.146 12.3602C229.178 10.6752 229.178 8.5922 230.146 6.92047L248.602 -25.0414C249.57 -26.7264 251.374 -27.7612 253.325 -27.7612H290.236C292.173 -27.7612 293.977 -26.7131 294.946 -25.0414L313.401 6.92047C314.369 8.60547 314.369 10.6885 313.401 12.3602L294.946 44.3221C293.977 46.007 292.173 47.0419 290.222 47.0419H290.236ZM253.325 -25.1342C252.33 -25.1342 251.401 -24.6035 250.91 -23.7411L232.455 8.22071C231.951 9.08311 231.951 10.1578 232.455 11.0069L250.91 42.9687C251.414 43.8311 252.33 44.3619 253.325 44.3619H290.236C291.231 44.3619 292.159 43.8311 292.65 42.9687L311.106 11.0069C311.61 10.1445 311.61 9.06984 311.106 8.22071L292.65 -23.7411C292.159 -24.6035 291.231 -25.1342 290.236 -25.1342H253.325Z" fill="url(#paint14_linear_247_21929)"/>
<path d="M440.528 219.767H403.618C401.68 219.767 399.876 218.719 398.894 217.047L380.439 185.086C379.47 183.401 379.47 181.318 380.439 179.646L398.894 147.684C399.863 145.999 401.667 144.964 403.618 144.964H440.528C442.465 144.964 444.27 146.012 445.238 147.684L463.694 179.646C464.662 181.331 464.662 183.414 463.694 185.086L445.238 217.047C444.27 218.732 442.465 219.767 440.515 219.767H440.528ZM403.618 147.591C402.622 147.591 401.694 148.122 401.203 148.984L382.747 180.946C382.243 181.808 382.243 182.883 382.747 183.732L401.203 215.694C401.707 216.556 402.622 217.087 403.618 217.087H440.528C441.523 217.087 442.452 216.556 442.943 215.694L461.398 183.732C461.902 182.87 461.902 181.795 461.398 180.946L442.943 148.984C442.452 148.122 441.523 147.591 440.528 147.591H403.618Z" fill="url(#paint15_linear_247_21929)"/>
<path d="M440.528 136.77H403.618C401.68 136.77 399.876 135.722 398.894 134.05L380.439 102.088C379.47 100.403 379.47 98.32 380.439 96.6483L398.894 64.6864C399.863 63.0014 401.667 61.9666 403.618 61.9666H440.528C442.465 61.9666 444.27 63.0147 445.238 64.6864L463.694 96.6483C464.662 98.3333 464.662 100.416 463.694 102.088L445.238 134.05C444.27 135.735 442.465 136.77 440.515 136.77H440.528ZM403.618 64.5936C402.622 64.5936 401.694 65.1243 401.203 65.9867L382.747 97.9485C382.243 98.8109 382.243 99.8856 382.747 100.735L401.203 132.697C401.707 133.559 402.622 134.09 403.618 134.09H440.528C441.523 134.09 442.452 133.559 442.943 132.697L461.398 100.735C461.902 99.8723 461.902 98.7976 461.398 97.9485L442.943 65.9867C442.452 65.1243 441.523 64.5936 440.528 64.5936H403.618Z" fill="url(#paint16_linear_247_21929)"/>
<path d="M440.528 305.008H403.618C401.68 305.008 399.876 303.96 398.894 302.288L380.439 270.327C379.47 268.642 379.47 266.559 380.439 264.887L398.894 232.925C399.863 231.24 401.667 230.205 403.618 230.205H440.528C442.465 230.205 444.27 231.253 445.238 232.925L463.694 264.887C464.662 266.572 464.662 268.655 463.694 270.327L445.238 302.288C444.27 303.973 442.465 305.008 440.515 305.008H440.528ZM403.618 232.832C402.622 232.832 401.694 233.363 401.203 234.225L382.747 266.187C382.243 267.049 382.243 268.124 382.747 268.973L401.203 300.935C401.707 301.797 402.622 302.328 403.618 302.328H440.528C441.523 302.328 442.452 301.797 442.943 300.935L461.398 268.973C461.902 268.111 461.902 267.036 461.398 266.187L442.943 234.225C442.452 233.363 441.523 232.832 440.528 232.832H403.618Z" fill="url(#paint17_linear_247_21929)"/>
<path d="M366.503 262.387H329.592C327.655 262.387 325.851 261.339 324.869 259.667L306.414 227.705C305.445 226.02 305.445 223.937 306.414 222.266L324.869 190.304C325.838 188.619 327.642 187.584 329.592 187.584H366.503C368.44 187.584 370.244 188.632 371.213 190.304L389.668 222.266C390.637 223.951 390.637 226.034 389.668 227.705L371.213 259.667C370.244 261.352 368.44 262.387 366.49 262.387H366.503ZM329.592 190.211C328.597 190.211 327.668 190.742 327.178 191.604L308.722 223.566C308.218 224.428 308.218 225.503 308.722 226.352L327.178 258.314C327.682 259.176 328.597 259.707 329.592 259.707H366.503C367.498 259.707 368.427 259.176 368.918 258.314L387.373 226.352C387.877 225.49 387.877 224.415 387.373 223.566L368.918 191.604C368.427 190.742 367.498 190.211 366.503 190.211H329.592Z" fill="url(#paint18_linear_247_21929)"/>
<path d="M442.772 388.006H405.861C403.924 388.006 402.119 386.958 401.138 385.286L382.682 353.324C381.714 351.639 381.714 349.556 382.682 347.884L401.138 315.923C402.106 314.238 403.911 313.203 405.861 313.203H442.772C444.709 313.203 446.513 314.251 447.482 315.923L465.937 347.884C466.905 349.569 466.905 351.652 465.937 353.324L447.482 385.286C446.513 386.971 444.709 388.006 442.758 388.006H442.772ZM405.861 315.83C404.866 315.83 403.937 316.36 403.446 317.223L384.991 349.185C384.487 350.047 384.487 351.122 384.991 351.971L403.446 383.933C403.95 384.795 404.866 385.326 405.861 385.326H442.772C443.767 385.326 444.695 384.795 445.186 383.933L463.642 351.971C464.146 351.109 464.146 350.034 463.642 349.185L445.186 317.223C444.695 316.36 443.767 315.83 442.772 315.83H405.861Z" fill="url(#paint19_linear_247_21929)"/>
<path d="M442.772 473.247H405.861C403.924 473.247 402.119 472.199 401.138 470.527L382.682 438.565C381.714 436.88 381.714 434.797 382.682 433.126L401.138 401.164C402.106 399.479 403.911 398.444 405.861 398.444H442.772C444.709 398.444 446.513 399.492 447.482 401.164L465.937 433.126C466.905 434.811 466.905 436.894 465.937 438.565L447.482 470.527C446.513 472.212 444.709 473.247 442.758 473.247H442.772ZM405.861 401.071C404.866 401.071 403.937 401.602 403.446 402.464L384.991 434.426C384.487 435.288 384.487 436.363 384.991 437.212L403.446 469.174C403.95 470.036 404.866 470.567 405.861 470.567H442.772C443.767 470.567 444.695 470.036 445.186 469.174L463.642 437.212C464.146 436.35 464.146 435.275 463.642 434.426L445.186 402.464C444.695 401.602 443.767 401.071 442.772 401.071H405.861Z" fill="url(#paint20_linear_247_21929)"/>
<path d="M61.4297 340.899H24.519C22.5819 340.899 20.7775 339.851 19.7957 338.179L1.34039 306.218C0.371848 304.533 0.371848 302.45 1.34039 300.778L19.7957 268.816C20.7643 267.131 22.5687 266.096 24.519 266.096H61.4297C63.3668 266.096 65.1712 267.144 66.1397 268.816L84.5951 300.778C85.5636 302.463 85.5636 304.546 84.5951 306.218L66.1397 338.179C65.1712 339.864 63.3668 340.899 61.4164 340.899H61.4297ZM24.519 268.723C23.5239 268.723 22.5952 269.254 22.1043 270.116L3.64896 302.078C3.14479 302.94 3.14479 304.015 3.64896 304.864L22.1043 336.826C22.6085 337.688 23.5239 338.219 24.519 338.219H61.4297C62.4248 338.219 63.3535 337.688 63.8444 336.826L82.2998 304.864C82.8039 304.002 82.8039 302.927 82.2998 302.078L63.8444 270.116C63.3535 269.254 62.4248 268.723 61.4297 268.723H24.519Z" fill="url(#paint21_linear_247_21929)"/>
<path d="M137.698 298.279H100.788C98.8506 298.279 97.0462 297.231 96.0643 295.559L77.609 263.598C76.6405 261.913 76.6405 259.83 77.609 258.158L96.0643 226.196C97.0329 224.511 98.8373 223.476 100.788 223.476H137.698C139.635 223.476 141.44 224.524 142.408 226.196L160.864 258.158C161.832 259.843 161.832 261.926 160.864 263.598L142.408 295.559C141.44 297.244 139.635 298.279 137.685 298.279H137.698ZM100.788 226.103C99.7926 226.103 98.8638 226.634 98.3729 227.496L79.9176 259.458C79.4134 260.32 79.4134 261.395 79.9176 262.244L98.3729 294.206C98.8771 295.068 99.7926 295.599 100.788 295.599H137.698C138.693 295.599 139.622 295.068 140.113 294.206L158.568 262.244C159.073 261.382 159.073 260.307 158.568 259.458L140.113 227.496C139.622 226.634 138.693 226.103 137.698 226.103H100.788Z" fill="url(#paint22_linear_247_21929)"/>
<path d="M-12.5955 298.279H-49.5062C-51.4432 298.279 -53.2476 297.231 -54.2294 295.559L-72.6848 263.598C-73.6533 261.913 -73.6533 259.83 -72.6848 258.158L-54.2294 226.196C-53.2609 224.511 -51.4565 223.476 -49.5062 223.476H-12.5955C-10.6584 223.476 -8.854 224.524 -7.88545 226.196L10.5699 258.158C11.5384 259.843 11.5384 261.926 10.5699 263.598L-7.88545 295.559C-8.854 297.244 -10.6584 298.279 -12.6087 298.279H-12.5955ZM-49.5062 226.103C-50.5012 226.103 -51.43 226.634 -51.9209 227.496L-70.3762 259.458C-70.8804 260.32 -70.8804 261.395 -70.3762 262.244L-51.9209 294.206C-51.4167 295.068 -50.5012 295.599 -49.5062 295.599H-12.5955C-11.6004 295.599 -10.6717 295.068 -10.1808 294.206L8.27459 262.244C8.77876 261.382 8.77876 260.307 8.27459 259.458L-10.1808 227.496C-10.6717 226.634 -11.6004 226.103 -12.5955 226.103H-49.5062Z" fill="url(#paint23_linear_247_21929)"/>
<path d="M61.4297 257.902H24.519C22.5819 257.902 20.7775 256.853 19.7957 255.182L1.34039 223.22C0.371848 221.535 0.371848 219.452 1.34039 217.78L19.7957 185.818C20.7643 184.133 22.5687 183.098 24.519 183.098H61.4297C63.3668 183.098 65.1712 184.147 66.1397 185.818L84.5951 217.78C85.5636 219.465 85.5636 221.548 84.5951 223.22L66.1397 255.182C65.1712 256.867 63.3668 257.902 61.4164 257.902H61.4297ZM24.519 185.725C23.5239 185.725 22.5952 186.256 22.1043 187.118L3.64896 219.08C3.14479 219.943 3.14479 221.017 3.64896 221.867L22.1043 253.828C22.6085 254.691 23.5239 255.221 24.519 255.221H61.4297C62.4248 255.221 63.3535 254.691 63.8444 253.828L82.2998 221.867C82.8039 221.004 82.8039 219.929 82.2998 219.08L63.8444 187.118C63.3535 186.256 62.4248 185.725 61.4297 185.725H24.519Z" fill="url(#paint24_linear_247_21929)"/>
<path d="M137.698 383.52H100.788C98.8506 383.52 97.0462 382.472 96.0643 380.8L77.609 348.839C76.6405 347.154 76.6405 345.071 77.609 343.399L96.0643 311.437C97.0329 309.752 98.8373 308.717 100.788 308.717H137.698C139.635 308.717 141.44 309.765 142.408 311.437L160.864 343.399C161.832 345.084 161.832 347.167 160.864 348.839L142.408 380.8C141.44 382.485 139.635 383.52 137.685 383.52H137.698ZM100.788 311.344C99.7926 311.344 98.8638 311.875 98.3729 312.737L79.9176 344.699C79.4134 345.562 79.4134 346.636 79.9176 347.485L98.3729 379.447C98.8771 380.31 99.7926 380.84 100.788 380.84H137.698C138.693 380.84 139.622 380.31 140.113 379.447L158.568 347.485C159.073 346.623 159.073 345.548 158.568 344.699L140.113 312.737C139.622 311.875 138.693 311.344 137.698 311.344H100.788Z" fill="url(#paint25_linear_247_21929)"/>
<path d="M61.4297 426.14H24.519C22.5819 426.14 20.7775 425.092 19.7957 423.42L1.34039 391.459C0.371848 389.774 0.371848 387.691 1.34039 386.019L19.7957 354.057C20.7643 352.372 22.5687 351.337 24.519 351.337H61.4297C63.3668 351.337 65.1712 352.385 66.1397 354.057L84.5951 386.019C85.5636 387.704 85.5636 389.787 84.5951 391.459L66.1397 423.42C65.1712 425.105 63.3668 426.14 61.4164 426.14H61.4297ZM24.519 353.964C23.5239 353.964 22.5952 354.495 22.1043 355.357L3.64896 387.319C3.14479 388.181 3.14479 389.256 3.64896 390.105L22.1043 422.067C22.6085 422.93 23.5239 423.46 24.519 423.46H61.4297C62.4248 423.46 63.3535 422.93 63.8444 422.067L82.2998 390.105C82.8039 389.243 82.8039 388.168 82.2998 387.319L63.8444 355.357C63.3535 354.495 62.4248 353.964 61.4297 353.964H24.519Z" fill="url(#paint26_linear_247_21929)"/>
<path d="M-12.5955 383.52H-49.5062C-51.4432 383.52 -53.2476 382.472 -54.2294 380.8L-72.6848 348.839C-73.6533 347.154 -73.6533 345.071 -72.6848 343.399L-54.2294 311.437C-53.2609 309.752 -51.4565 308.717 -49.5062 308.717H-12.5955C-10.6584 308.717 -8.854 309.765 -7.88545 311.437L10.5699 343.399C11.5384 345.084 11.5384 347.167 10.5699 348.839L-7.88545 380.8C-8.854 382.485 -10.6584 383.52 -12.6087 383.52H-12.5955ZM-49.5062 311.344C-50.5012 311.344 -51.43 311.875 -51.9209 312.737L-70.3762 344.699C-70.8804 345.562 -70.8804 346.636 -70.3762 347.485L-51.9209 379.447C-51.4167 380.31 -50.5012 380.84 -49.5062 380.84H-12.5955C-11.6004 380.84 -10.6717 380.31 -10.1808 379.447L8.27459 347.485C8.77876 346.623 8.77876 345.548 8.27459 344.699L-10.1808 312.737C-10.6717 311.875 -11.6004 311.344 -12.5955 311.344H-49.5062Z" fill="url(#paint27_linear_247_21929)"/>
<path d="M137.698 551.759H100.788C98.8506 551.759 97.0462 550.711 96.0643 549.039L77.609 517.077C76.6405 515.392 76.6405 513.309 77.609 511.638L96.0643 479.676C97.0329 477.991 98.8373 476.956 100.788 476.956H137.698C139.635 476.956 141.44 478.004 142.408 479.676L160.864 511.638C161.832 513.323 161.832 515.406 160.864 517.077L142.408 549.039C141.44 550.724 139.635 551.759 137.685 551.759H137.698ZM100.788 479.583C99.7926 479.583 98.8638 480.114 98.3729 480.976L79.9176 512.938C79.4134 513.8 79.4134 514.875 79.9176 515.724L98.3729 547.686C98.8771 548.548 99.7926 549.079 100.788 549.079H137.698C138.693 549.079 139.622 548.548 140.113 547.686L158.568 515.724C159.073 514.862 159.073 513.787 158.568 512.938L140.113 480.976C139.622 480.114 138.693 479.583 137.698 479.583H100.788Z" fill="url(#paint28_linear_247_21929)"/>
<path d="M213.967 509.138H177.056C175.119 509.138 173.315 508.09 172.333 506.418L153.878 474.456C152.909 472.771 152.909 470.688 153.878 469.016L172.333 437.055C173.301 435.37 175.106 434.335 177.056 434.335H213.967C215.904 434.335 217.708 435.383 218.677 437.055L237.132 469.016C238.101 470.701 238.101 472.784 237.132 474.456L218.677 506.418C217.708 508.103 215.904 509.138 213.954 509.138H213.967ZM177.056 436.962C176.061 436.962 175.132 437.492 174.641 438.355L156.186 470.317C155.682 471.179 155.682 472.254 156.186 473.103L174.641 505.065C175.146 505.927 176.061 506.458 177.056 506.458H213.967C214.962 506.458 215.891 505.927 216.382 505.065L234.837 473.103C235.341 472.24 235.341 471.166 234.837 470.317L216.382 438.355C215.891 437.492 214.962 436.962 213.967 436.962H177.056Z" fill="url(#paint29_linear_247_21929)"/>
<path d="M63.6731 509.138H26.7624C24.8254 509.138 23.021 508.09 22.0391 506.418L3.5838 474.456C2.61526 472.771 2.61526 470.688 3.5838 469.016L22.0391 437.055C23.0077 435.37 24.8121 434.335 26.7624 434.335H63.6731C65.6102 434.335 67.4146 435.383 68.3831 437.055L86.8385 469.016C87.807 470.701 87.807 472.784 86.8385 474.456L68.3831 506.418C67.4146 508.103 65.6102 509.138 63.6598 509.138H63.6731ZM26.7624 436.962C25.7674 436.962 24.8386 437.492 24.3477 438.355L5.89237 470.317C5.3882 471.179 5.3882 472.254 5.89237 473.103L24.3477 505.065C24.8519 505.927 25.7674 506.458 26.7624 506.458H63.6731C64.6682 506.458 65.5969 505.927 66.0878 505.065L84.5432 473.103C85.0473 472.24 85.0473 471.166 84.5432 470.317L66.0878 438.355C65.5969 437.492 64.6682 436.962 63.6731 436.962H26.7624Z" fill="url(#paint30_linear_247_21929)"/>
<path d="M137.698 468.76H100.788C98.8506 468.76 97.0462 467.712 96.0643 466.04L77.609 434.078C76.6405 432.393 76.6405 430.31 77.609 428.639L96.0643 396.677C97.0329 394.992 98.8373 393.957 100.788 393.957H137.698C139.635 393.957 141.44 395.005 142.408 396.677L160.864 428.639C161.832 430.324 161.832 432.407 160.864 434.078L142.408 466.04C141.44 467.725 139.635 468.76 137.685 468.76H137.698ZM100.788 396.584C99.7926 396.584 98.8638 397.115 98.3729 397.977L79.9176 429.939C79.4134 430.801 79.4134 431.876 79.9176 432.725L98.3729 464.687C98.8771 465.549 99.7926 466.08 100.788 466.08H137.698C138.693 466.08 139.622 465.549 140.113 464.687L158.568 432.725C159.073 431.863 159.073 430.788 158.568 429.939L140.113 397.977C139.622 397.115 138.693 396.584 137.698 396.584H100.788Z" fill="url(#paint31_linear_247_21929)"/>
<path d="M213.967 594.379H177.056C175.119 594.379 173.315 593.331 172.333 591.659L153.878 559.697C152.909 558.012 152.909 555.929 153.878 554.257L172.333 522.296C173.301 520.611 175.106 519.576 177.056 519.576H213.967C215.904 519.576 217.708 520.624 218.677 522.296L237.132 554.257C238.101 555.942 238.101 558.025 237.132 559.697L218.677 591.659C217.708 593.344 215.904 594.379 213.954 594.379H213.967ZM177.056 522.203C176.061 522.203 175.132 522.733 174.641 523.596L156.186 555.558C155.682 556.42 155.682 557.495 156.186 558.344L174.641 590.306C175.146 591.168 176.061 591.699 177.056 591.699H213.967C214.962 591.699 215.891 591.168 216.382 590.306L234.837 558.344C235.341 557.481 235.341 556.407 234.837 555.558L216.382 523.596C215.891 522.733 214.962 522.203 213.967 522.203H177.056Z" fill="url(#paint32_linear_247_21929)"/>
<path d="M137.698 637H100.788C98.8506 637 97.0462 635.952 96.0643 634.28L77.609 602.318C76.6405 600.633 76.6405 598.55 77.609 596.878L96.0643 564.917C97.0329 563.232 98.8373 562.197 100.788 562.197H137.698C139.635 562.197 141.44 563.245 142.408 564.917L160.864 596.878C161.832 598.563 161.832 600.646 160.864 602.318L142.408 634.28C141.44 635.965 139.635 637 137.685 637H137.698ZM100.788 564.824C99.7926 564.824 98.8638 565.354 98.3729 566.217L79.9176 598.179C79.4134 599.041 79.4134 600.116 79.9176 600.965L98.3729 632.927C98.8771 633.789 99.7926 634.32 100.788 634.32H137.698C138.693 634.32 139.622 633.789 140.113 632.927L158.568 600.965C159.073 600.103 159.073 599.028 158.568 598.179L140.113 566.217C139.622 565.354 138.693 564.824 137.698 564.824H100.788Z" fill="url(#paint33_linear_247_21929)"/>
<path d="M63.6731 594.379H26.7624C24.8254 594.379 23.021 593.331 22.0391 591.659L3.5838 559.697C2.61526 558.012 2.61526 555.929 3.5838 554.257L22.0391 522.296C23.0077 520.611 24.8121 519.576 26.7624 519.576H63.6731C65.6102 519.576 67.4146 520.624 68.3831 522.296L86.8385 554.257C87.807 555.942 87.807 558.025 86.8385 559.697L68.3831 591.659C67.4146 593.344 65.6102 594.379 63.6598 594.379H63.6731ZM26.7624 522.203C25.7674 522.203 24.8386 522.733 24.3477 523.596L5.89237 555.558C5.3882 556.42 5.3882 557.495 5.89237 558.344L24.3477 590.306C24.8519 591.168 25.7674 591.699 26.7624 591.699H63.6731C64.6682 591.699 65.5969 591.168 66.0878 590.306L84.5432 558.344C85.0473 557.481 85.0473 556.407 84.5432 555.558L66.0878 523.596C65.5969 522.733 64.6682 522.203 63.6731 522.203H26.7624Z" fill="url(#paint34_linear_247_21929)"/>
<path d="M287.992 383.52H251.081C249.144 383.52 247.34 382.472 246.358 380.8L227.903 348.839C226.934 347.154 226.934 345.071 227.903 343.399L246.358 311.437C247.327 309.752 249.131 308.717 251.081 308.717H287.992C289.929 308.717 291.734 309.765 292.702 311.437L311.157 343.399C312.126 345.084 312.126 347.167 311.157 348.839L292.702 380.8C291.734 382.485 289.929 383.52 287.979 383.52H287.992ZM251.081 311.344C250.086 311.344 249.158 311.875 248.667 312.737L230.211 344.699C229.707 345.562 229.707 346.636 230.211 347.485L248.667 379.447C249.171 380.31 250.086 380.84 251.081 380.84H287.992C288.987 380.84 289.916 380.31 290.407 379.447L308.862 347.485C309.366 346.623 309.366 345.548 308.862 344.699L290.407 312.737C289.916 311.875 288.987 311.344 287.992 311.344H251.081Z" fill="url(#paint35_linear_247_21929)"/>
<path d="M364.26 340.899H327.349C325.412 340.899 323.607 339.851 322.626 338.179L304.17 306.218C303.202 304.533 303.202 302.45 304.17 300.778L322.626 268.816C323.594 267.131 325.399 266.096 327.349 266.096H364.26C366.197 266.096 368.001 267.144 368.97 268.816L387.425 300.778C388.393 302.463 388.393 304.546 387.425 306.218L368.97 338.179C368.001 339.864 366.197 340.899 364.246 340.899H364.26ZM327.349 268.723C326.354 268.723 325.425 269.254 324.934 270.116L306.479 302.078C305.975 302.94 305.975 304.015 306.479 304.864L324.934 336.826C325.438 337.688 326.354 338.219 327.349 338.219H364.26C365.255 338.219 366.183 337.688 366.674 336.826L385.13 304.864C385.634 304.002 385.634 302.927 385.13 302.078L366.674 270.116C366.183 269.254 365.255 268.723 364.26 268.723H327.349Z" fill="url(#paint36_linear_247_21929)"/>
<path d="M213.967 340.899H177.056C175.119 340.899 173.315 339.851 172.333 338.179L153.878 306.218C152.909 304.533 152.909 302.45 153.878 300.778L172.333 268.816C173.301 267.131 175.106 266.096 177.056 266.096H213.967C215.904 266.096 217.708 267.144 218.677 268.816L237.132 300.778C238.101 302.463 238.101 304.546 237.132 306.218L218.677 338.179C217.708 339.864 215.904 340.899 213.954 340.899H213.967ZM177.056 268.723C176.061 268.723 175.132 269.254 174.641 270.116L156.186 302.078C155.682 302.94 155.682 304.015 156.186 304.864L174.641 336.826C175.146 337.688 176.061 338.219 177.056 338.219H213.967C214.962 338.219 215.891 337.688 216.382 336.826L234.837 304.864C235.341 304.002 235.341 302.927 234.837 302.078L216.382 270.116C215.891 269.254 214.962 268.723 213.967 268.723H177.056Z" fill="url(#paint37_linear_247_21929)"/>
<path d="M287.992 300.523H251.081C249.144 300.523 247.34 299.474 246.358 297.803L227.903 265.841C226.934 264.156 226.934 262.073 227.903 260.401L246.358 228.439C247.327 226.754 249.131 225.719 251.081 225.719H287.992C289.929 225.719 291.734 226.768 292.702 228.439L311.157 260.401C312.126 262.086 312.126 264.169 311.157 265.841L292.702 297.803C291.734 299.488 289.929 300.523 287.979 300.523H287.992ZM251.081 228.346C250.086 228.346 249.158 228.877 248.667 229.74L230.211 261.701C229.707 262.564 229.707 263.639 230.211 264.488L248.667 296.449C249.171 297.312 250.086 297.843 251.081 297.843H287.992C288.987 297.843 289.916 297.312 290.407 296.449L308.862 264.488C309.366 263.625 309.366 262.551 308.862 261.701L290.407 229.74C289.916 228.877 288.987 228.346 287.992 228.346H251.081Z" fill="url(#paint38_linear_247_21929)"/>
<path d="M364.26 426.14H327.349C325.412 426.14 323.607 425.092 322.626 423.42L304.17 391.459C303.202 389.774 303.202 387.691 304.17 386.019L322.626 354.057C323.594 352.372 325.399 351.337 327.349 351.337H364.26C366.197 351.337 368.001 352.385 368.97 354.057L387.425 386.019C388.393 387.704 388.393 389.787 387.425 391.459L368.97 423.42C368.001 425.105 366.197 426.14 364.246 426.14H364.26ZM327.349 353.964C326.354 353.964 325.425 354.495 324.934 355.357L306.479 387.319C305.975 388.181 305.975 389.256 306.479 390.105L324.934 422.067C325.438 422.93 326.354 423.46 327.349 423.46H364.26C365.255 423.46 366.183 422.93 366.674 422.067L385.13 390.105C385.634 389.243 385.634 388.168 385.13 387.319L366.674 355.357C366.183 354.495 365.255 353.964 364.26 353.964H327.349Z" fill="url(#paint39_linear_247_21929)"/>
<path d="M287.992 468.76H251.081C249.144 468.76 247.34 467.712 246.358 466.04L227.903 434.078C226.934 432.393 226.934 430.31 227.903 428.639L246.358 396.677C247.327 394.992 249.131 393.957 251.081 393.957H287.992C289.929 393.957 291.734 395.005 292.702 396.677L311.157 428.639C312.126 430.324 312.126 432.407 311.157 434.078L292.702 466.04C291.734 467.725 289.929 468.76 287.979 468.76H287.992ZM251.081 396.584C250.086 396.584 249.158 397.115 248.667 397.977L230.211 429.939C229.707 430.801 229.707 431.876 230.211 432.725L248.667 464.687C249.171 465.549 250.086 466.08 251.081 466.08H287.992C288.987 466.08 289.916 465.549 290.407 464.687L308.862 432.725C309.366 431.863 309.366 430.788 308.862 429.939L290.407 397.977C289.916 397.115 288.987 396.584 287.992 396.584H251.081Z" fill="url(#paint40_linear_247_21929)"/>
<path d="M213.967 426.14H177.056C175.119 426.14 173.315 425.092 172.333 423.42L153.878 391.459C152.909 389.774 152.909 387.691 153.878 386.019L172.333 354.057C173.301 352.372 175.106 351.337 177.056 351.337H213.967C215.904 351.337 217.708 352.385 218.677 354.057L237.132 386.019C238.101 387.704 238.101 389.787 237.132 391.459L218.677 423.42C217.708 425.105 215.904 426.14 213.954 426.14H213.967ZM177.056 353.964C176.061 353.964 175.132 354.495 174.641 355.357L156.186 387.319C155.682 388.181 155.682 389.256 156.186 390.105L174.641 422.067C175.146 422.93 176.061 423.46 177.056 423.46H213.967C214.962 423.46 215.891 422.93 216.382 422.067L234.837 390.105C235.341 389.243 235.341 388.168 234.837 387.319L216.382 355.357C215.891 354.495 214.962 353.964 213.967 353.964H177.056Z" fill="url(#paint41_linear_247_21929)"/>
<path d="M-12.5955 130.039H-49.5062C-51.4432 130.039 -53.2476 128.991 -54.2294 127.32L-72.6848 95.3578C-73.6533 93.6728 -73.6533 91.5898 -72.6848 89.918L-54.2294 57.9562C-53.2609 56.2712 -51.4565 55.2363 -49.5062 55.2363H-12.5955C-10.6584 55.2363 -8.854 56.2845 -7.88545 57.9562L10.5699 89.918C11.5384 91.603 11.5384 93.6861 10.5699 95.3578L-7.88545 127.32C-8.854 129.005 -10.6584 130.039 -12.6087 130.039H-12.5955ZM-49.5062 57.8633C-50.5012 57.8633 -51.43 58.394 -51.9209 59.2564L-70.3762 91.2183C-70.8804 92.0807 -70.8804 93.1553 -70.3762 94.0045L-51.9209 125.966C-51.4167 126.829 -50.5012 127.359 -49.5062 127.359H-12.5955C-11.6004 127.359 -10.6717 126.829 -10.1808 125.966L8.27459 94.0045C8.77876 93.1421 8.77876 92.0674 8.27459 91.2183L-10.1808 59.2564C-10.6717 58.394 -11.6004 57.8633 -12.5955 57.8633H-49.5062Z" fill="url(#paint42_linear_247_21929)"/>
<path d="M63.6731 87.4196H26.7624C24.8254 87.4196 23.021 86.3715 22.0391 84.6997L3.5838 52.7379C2.61526 51.0529 2.61526 48.9699 3.5838 47.2982L22.0391 15.3363C23.0077 13.6513 24.8121 12.6165 26.7624 12.6165H63.6731C65.6102 12.6165 67.4146 13.6646 68.3831 15.3363L86.8385 47.2982C87.807 48.9832 87.807 51.0662 86.8385 52.7379L68.3831 84.6997C67.4146 86.3847 65.6102 87.4196 63.6598 87.4196H63.6731ZM26.7624 15.2435C25.7674 15.2435 24.8386 15.7742 24.3477 16.6366L5.89237 48.5984C5.3882 49.4608 5.3882 50.5355 5.89237 51.3846L24.3477 83.3464C24.8519 84.2088 25.7674 84.7395 26.7624 84.7395H63.6731C64.6682 84.7395 65.5969 84.2088 66.0878 83.3464L84.5432 51.3846C85.0473 50.5222 85.0473 49.4475 84.5432 48.5984L66.0878 16.6366C65.5969 15.7742 64.6682 15.2435 63.6731 15.2435H26.7624Z" fill="url(#paint43_linear_247_21929)"/>
<path d="M-12.5955 47.0419H-49.5062C-51.4432 47.0419 -53.2476 45.9938 -54.2294 44.3221L-72.6848 12.3602C-73.6533 10.6752 -73.6533 8.5922 -72.6848 6.92047L-54.2294 -25.0414C-53.2609 -26.7264 -51.4565 -27.7612 -49.5062 -27.7612H-12.5955C-10.6584 -27.7612 -8.854 -26.7131 -7.88545 -25.0414L10.5699 6.92047C11.5384 8.60547 11.5384 10.6885 10.5699 12.3602L-7.88545 44.3221C-8.854 46.007 -10.6584 47.0419 -12.6087 47.0419H-12.5955ZM-49.5062 -25.1342C-50.5012 -25.1342 -51.43 -24.6035 -51.9209 -23.7411L-70.3762 8.22071C-70.8804 9.08311 -70.8804 10.1578 -70.3762 11.0069L-51.9209 42.9687C-51.4167 43.8311 -50.5012 44.3619 -49.5062 44.3619H-12.5955C-11.6004 44.3619 -10.6717 43.8311 -10.1808 42.9687L8.27459 11.0069C8.77876 10.1445 8.77876 9.06984 8.27459 8.22071L-10.1808 -23.7411C-10.6717 -24.6035 -11.6004 -25.1342 -12.5955 -25.1342H-49.5062Z" fill="url(#paint44_linear_247_21929)"/>
<path d="M63.6731 172.661H26.7624C24.8254 172.661 23.021 171.612 22.0391 169.941L3.5838 137.979C2.61526 136.294 2.61526 134.211 3.5838 132.539L22.0391 100.577C23.0077 98.8923 24.8121 97.8574 26.7624 97.8574H63.6731C65.6102 97.8574 67.4146 98.9056 68.3831 100.577L86.8385 132.539C87.807 134.224 87.807 136.307 86.8385 137.979L68.3831 169.941C67.4146 171.626 65.6102 172.661 63.6598 172.661H63.6731ZM26.7624 100.484C25.7674 100.484 24.8386 101.015 24.3477 101.878L5.89237 133.839C5.3882 134.702 5.3882 135.776 5.89237 136.626L24.3477 168.587C24.8519 169.45 25.7674 169.981 26.7624 169.981H63.6731C64.6682 169.981 65.5969 169.45 66.0878 168.587L84.5432 136.626C85.0473 135.763 85.0473 134.688 84.5432 133.839L66.0878 101.878C65.5969 101.015 64.6682 100.484 63.6731 100.484H26.7624Z" fill="url(#paint45_linear_247_21929)"/>
<path d="M-12.5955 215.28H-49.5062C-51.4432 215.28 -53.2476 214.232 -54.2294 212.561L-72.6848 180.599C-73.6533 178.914 -73.6533 176.831 -72.6848 175.159L-54.2294 143.197C-53.2609 141.512 -51.4565 140.477 -49.5062 140.477H-12.5955C-10.6584 140.477 -8.854 141.525 -7.88545 143.197L10.5699 175.159C11.5384 176.844 11.5384 178.927 10.5699 180.599L-7.88545 212.561C-8.854 214.246 -10.6584 215.28 -12.6087 215.28H-12.5955ZM-49.5062 143.104C-50.5012 143.104 -51.43 143.635 -51.9209 144.497L-70.3762 176.459C-70.8804 177.322 -70.8804 178.396 -70.3762 179.245L-51.9209 211.207C-51.4167 212.07 -50.5012 212.6 -49.5062 212.6H-12.5955C-11.6004 212.6 -10.6717 212.07 -10.1808 211.207L8.27459 179.245C8.77876 178.383 8.77876 177.308 8.27459 176.459L-10.1808 144.497C-10.6717 143.635 -11.6004 143.104 -12.5955 143.104H-49.5062Z" fill="url(#paint46_linear_247_21929)"/>
</g>
<defs>
<linearGradient id="paint0_linear_247_21929" x1="237.859" y1="-70.3813" x2="139.11" y2="-29.4728" gradientUnits="userSpaceOnUse">
<stop stop-color="#C3B7FF"/>
<stop offset="1" stop-color="#6FF9D8"/>
</linearGradient>
<linearGradient id="paint1_linear_247_21929" x1="161.59" y1="-27.7612" x2="62.8411" y2="13.1473" gradientUnits="userSpaceOnUse">
<stop stop-color="#C3B7FF"/>
<stop offset="1" stop-color="#6FF9D8"/>
</linearGradient>
<linearGradient id="paint2_linear_247_21929" x1="87.5649" y1="-70.3813" x2="-11.1841" y2="-29.4728" gradientUnits="userSpaceOnUse">
<stop stop-color="#C3B7FF"/>
<stop offset="1" stop-color="#6FF9D8"/>
</linearGradient>
<linearGradient id="paint3_linear_247_21929" x1="237.859" y1="97.8574" x2="139.11" y2="138.766" gradientUnits="userSpaceOnUse">
<stop stop-color="#C3B7FF"/>
<stop offset="1" stop-color="#6FF9D8"/>
</linearGradient>
<linearGradient id="paint4_linear_247_21929" x1="314.127" y1="55.2363" x2="215.378" y2="96.1448" gradientUnits="userSpaceOnUse">
<stop stop-color="#C3B7FF"/>
<stop offset="1" stop-color="#6FF9D8"/>
</linearGradient>
<linearGradient id="paint5_linear_247_21929" x1="163.833" y1="55.2363" x2="65.0845" y2="96.1448" gradientUnits="userSpaceOnUse">
<stop stop-color="#C3B7FF"/>
<stop offset="1" stop-color="#6FF9D8"/>
</linearGradient>
<linearGradient id="paint6_linear_247_21929" x1="237.859" y1="14.8599" x2="139.11" y2="55.7684" gradientUnits="userSpaceOnUse">
<stop stop-color="#C3B7FF"/>
<stop offset="1" stop-color="#6FF9D8"/>
</linearGradient>
<linearGradient id="paint7_linear_247_21929" x1="314.127" y1="140.477" x2="215.378" y2="181.386" gradientUnits="userSpaceOnUse">
<stop stop-color="#C3B7FF"/>
<stop offset="1" stop-color="#6FF9D8"/>
</linearGradient>
<linearGradient id="paint8_linear_247_21929" x1="387.965" y1="100.151" x2="289.216" y2="141.06" gradientUnits="userSpaceOnUse">
<stop stop-color="#C3B7FF"/>
<stop offset="1" stop-color="#6FF9D8"/>
</linearGradient>
<linearGradient id="paint9_linear_247_21929" x1="237.859" y1="183.098" x2="139.11" y2="224.007" gradientUnits="userSpaceOnUse">
<stop stop-color="#C3B7FF"/>
<stop offset="1" stop-color="#6FF9D8"/>
</linearGradient>
<linearGradient id="paint10_linear_247_21929" x1="163.833" y1="140.477" x2="65.0845" y2="181.386" gradientUnits="userSpaceOnUse">
<stop stop-color="#C3B7FF"/>
<stop offset="1" stop-color="#6FF9D8"/>
</linearGradient>
<linearGradient id="paint11_linear_247_21929" x1="388.151" y1="-70.3813" x2="289.402" y2="-29.4728" gradientUnits="userSpaceOnUse">
<stop stop-color="#C3B7FF"/>
<stop offset="1" stop-color="#6FF9D8"/>
</linearGradient>
<linearGradient id="paint12_linear_247_21929" x1="464.42" y1="-27.7612" x2="365.671" y2="13.1473" gradientUnits="userSpaceOnUse">
<stop stop-color="#C3B7FF"/>
<stop offset="1" stop-color="#6FF9D8"/>
</linearGradient>
<linearGradient id="paint13_linear_247_21929" x1="388.151" y1="14.8599" x2="289.402" y2="55.7684" gradientUnits="userSpaceOnUse">
<stop stop-color="#C3B7FF"/>
<stop offset="1" stop-color="#6FF9D8"/>
</linearGradient>
<linearGradient id="paint14_linear_247_21929" x1="314.127" y1="-27.7612" x2="215.378" y2="13.1473" gradientUnits="userSpaceOnUse">
<stop stop-color="#C3B7FF"/>
<stop offset="1" stop-color="#6FF9D8"/>
</linearGradient>
<linearGradient id="paint15_linear_247_21929" x1="464.42" y1="144.964" x2="365.671" y2="185.873" gradientUnits="userSpaceOnUse">
<stop stop-color="#C3B7FF"/>
<stop offset="1" stop-color="#6FF9D8"/>
</linearGradient>
<linearGradient id="paint16_linear_247_21929" x1="464.42" y1="61.9666" x2="365.671" y2="102.875" gradientUnits="userSpaceOnUse">
<stop stop-color="#C3B7FF"/>
<stop offset="1" stop-color="#6FF9D8"/>
</linearGradient>
<linearGradient id="paint17_linear_247_21929" x1="464.42" y1="230.205" x2="365.671" y2="271.114" gradientUnits="userSpaceOnUse">
<stop stop-color="#C3B7FF"/>
<stop offset="1" stop-color="#6FF9D8"/>
</linearGradient>
<linearGradient id="paint18_linear_247_21929" x1="390.395" y1="187.584" x2="291.646" y2="228.492" gradientUnits="userSpaceOnUse">
<stop stop-color="#C3B7FF"/>
<stop offset="1" stop-color="#6FF9D8"/>
</linearGradient>
<linearGradient id="paint19_linear_247_21929" x1="466.663" y1="313.203" x2="367.914" y2="354.111" gradientUnits="userSpaceOnUse">
<stop stop-color="#C3B7FF"/>
<stop offset="1" stop-color="#6FF9D8"/>
</linearGradient>
<linearGradient id="paint20_linear_247_21929" x1="466.663" y1="398.444" x2="367.914" y2="439.352" gradientUnits="userSpaceOnUse">
<stop stop-color="#C3B7FF"/>
<stop offset="1" stop-color="#6FF9D8"/>
</linearGradient>
<linearGradient id="paint21_linear_247_21929" x1="85.3215" y1="266.096" x2="-13.4275" y2="307.005" gradientUnits="userSpaceOnUse">
<stop stop-color="#C3B7FF"/>
<stop offset="1" stop-color="#6FF9D8"/>
</linearGradient>
<linearGradient id="paint22_linear_247_21929" x1="161.59" y1="223.476" x2="62.8411" y2="264.385" gradientUnits="userSpaceOnUse">
<stop stop-color="#C3B7FF"/>
<stop offset="1" stop-color="#6FF9D8"/>
</linearGradient>
<linearGradient id="paint23_linear_247_21929" x1="11.2963" y1="223.476" x2="-87.4527" y2="264.385" gradientUnits="userSpaceOnUse">
<stop stop-color="#C3B7FF"/>
<stop offset="1" stop-color="#6FF9D8"/>
</linearGradient>
<linearGradient id="paint24_linear_247_21929" x1="85.3215" y1="183.098" x2="-13.4275" y2="224.007" gradientUnits="userSpaceOnUse">
<stop stop-color="#C3B7FF"/>
<stop offset="1" stop-color="#6FF9D8"/>
</linearGradient>
<linearGradient id="paint25_linear_247_21929" x1="161.59" y1="308.717" x2="62.8411" y2="349.626" gradientUnits="userSpaceOnUse">
<stop stop-color="#C3B7FF"/>
<stop offset="1" stop-color="#6FF9D8"/>
</linearGradient>
<linearGradient id="paint26_linear_247_21929" x1="85.3215" y1="351.337" x2="-13.4275" y2="392.246" gradientUnits="userSpaceOnUse">
<stop stop-color="#C3B7FF"/>
<stop offset="1" stop-color="#6FF9D8"/>
</linearGradient>
<linearGradient id="paint27_linear_247_21929" x1="11.2963" y1="308.717" x2="-87.4527" y2="349.626" gradientUnits="userSpaceOnUse">
<stop stop-color="#C3B7FF"/>
<stop offset="1" stop-color="#6FF9D8"/>
</linearGradient>
<linearGradient id="paint28_linear_247_21929" x1="161.59" y1="476.956" x2="62.8411" y2="517.864" gradientUnits="userSpaceOnUse">
<stop stop-color="#C3B7FF"/>
<stop offset="1" stop-color="#6FF9D8"/>
</linearGradient>
<linearGradient id="paint29_linear_247_21929" x1="237.859" y1="434.335" x2="139.11" y2="475.243" gradientUnits="userSpaceOnUse">
<stop stop-color="#C3B7FF"/>
<stop offset="1" stop-color="#6FF9D8"/>
</linearGradient>
<linearGradient id="paint30_linear_247_21929" x1="87.5649" y1="434.335" x2="-11.1841" y2="475.243" gradientUnits="userSpaceOnUse">
<stop stop-color="#C3B7FF"/>
<stop offset="1" stop-color="#6FF9D8"/>
</linearGradient>
<linearGradient id="paint31_linear_247_21929" x1="161.59" y1="393.957" x2="62.8411" y2="434.866" gradientUnits="userSpaceOnUse">
<stop stop-color="#C3B7FF"/>
<stop offset="1" stop-color="#6FF9D8"/>
</linearGradient>
<linearGradient id="paint32_linear_247_21929" x1="237.859" y1="519.576" x2="139.11" y2="560.484" gradientUnits="userSpaceOnUse">
<stop stop-color="#C3B7FF"/>
<stop offset="1" stop-color="#6FF9D8"/>
</linearGradient>
<linearGradient id="paint33_linear_247_21929" x1="161.59" y1="562.197" x2="62.8411" y2="603.105" gradientUnits="userSpaceOnUse">
<stop stop-color="#C3B7FF"/>
<stop offset="1" stop-color="#6FF9D8"/>
</linearGradient>
<linearGradient id="paint34_linear_247_21929" x1="87.5649" y1="519.576" x2="-11.1841" y2="560.484" gradientUnits="userSpaceOnUse">
<stop stop-color="#C3B7FF"/>
<stop offset="1" stop-color="#6FF9D8"/>
</linearGradient>
<linearGradient id="paint35_linear_247_21929" x1="311.884" y1="308.717" x2="213.135" y2="349.626" gradientUnits="userSpaceOnUse">
<stop stop-color="#C3B7FF"/>
<stop offset="1" stop-color="#6FF9D8"/>
</linearGradient>
<linearGradient id="paint36_linear_247_21929" x1="388.151" y1="266.096" x2="289.402" y2="307.005" gradientUnits="userSpaceOnUse">
<stop stop-color="#C3B7FF"/>
<stop offset="1" stop-color="#6FF9D8"/>
</linearGradient>
<linearGradient id="paint37_linear_247_21929" x1="237.859" y1="266.096" x2="139.11" y2="307.005" gradientUnits="userSpaceOnUse">
<stop stop-color="#C3B7FF"/>
<stop offset="1" stop-color="#6FF9D8"/>
</linearGradient>
<linearGradient id="paint38_linear_247_21929" x1="311.884" y1="225.719" x2="213.135" y2="266.628" gradientUnits="userSpaceOnUse">
<stop stop-color="#C3B7FF"/>
<stop offset="1" stop-color="#6FF9D8"/>
</linearGradient>
<linearGradient id="paint39_linear_247_21929" x1="388.151" y1="351.337" x2="289.402" y2="392.246" gradientUnits="userSpaceOnUse">
<stop stop-color="#C3B7FF"/>
<stop offset="1" stop-color="#6FF9D8"/>
</linearGradient>
<linearGradient id="paint40_linear_247_21929" x1="311.884" y1="393.957" x2="213.135" y2="434.866" gradientUnits="userSpaceOnUse">
<stop stop-color="#C3B7FF"/>
<stop offset="1" stop-color="#6FF9D8"/>
</linearGradient>
<linearGradient id="paint41_linear_247_21929" x1="237.859" y1="351.337" x2="139.11" y2="392.246" gradientUnits="userSpaceOnUse">
<stop stop-color="#C3B7FF"/>
<stop offset="1" stop-color="#6FF9D8"/>
</linearGradient>
<linearGradient id="paint42_linear_247_21929" x1="11.2963" y1="55.2363" x2="-87.4527" y2="96.1448" gradientUnits="userSpaceOnUse">
<stop stop-color="#C3B7FF"/>
<stop offset="1" stop-color="#6FF9D8"/>
</linearGradient>
<linearGradient id="paint43_linear_247_21929" x1="87.5649" y1="12.6165" x2="-11.1841" y2="53.525" gradientUnits="userSpaceOnUse">
<stop stop-color="#C3B7FF"/>
<stop offset="1" stop-color="#6FF9D8"/>
</linearGradient>
<linearGradient id="paint44_linear_247_21929" x1="11.2963" y1="-27.7612" x2="-87.4527" y2="13.1473" gradientUnits="userSpaceOnUse">
<stop stop-color="#C3B7FF"/>
<stop offset="1" stop-color="#6FF9D8"/>
</linearGradient>
<linearGradient id="paint45_linear_247_21929" x1="87.5649" y1="97.8574" x2="-11.1841" y2="138.766" gradientUnits="userSpaceOnUse">
<stop stop-color="#C3B7FF"/>
<stop offset="1" stop-color="#6FF9D8"/>
</linearGradient>
<linearGradient id="paint46_linear_247_21929" x1="11.2963" y1="140.477" x2="-87.4527" y2="181.386" gradientUnits="userSpaceOnUse">
<stop stop-color="#C3B7FF"/>
<stop offset="1" stop-color="#6FF9D8"/>
</linearGradient>
</defs>
</svg>
