<svg width="390" height="277" viewBox="0 0 390 277" fill="none" xmlns="http://www.w3.org/2000/svg">
<path d="M442.771 28.006H405.861C403.924 28.006 402.119 26.9579 401.137 25.2862L382.682 -6.67567C381.714 -8.36067 381.714 -10.4437 382.682 -12.1154L401.137 -44.0772C402.106 -45.7622 403.91 -46.7971 405.861 -46.7971H442.771C444.709 -46.7971 446.513 -45.749 447.481 -44.0772L465.937 -12.1154C466.905 -10.4304 466.905 -8.3474 465.937 -6.67567L447.481 25.2862C446.513 26.9712 444.709 28.006 442.758 28.006H442.771ZM405.861 -44.1701C404.866 -44.1701 403.937 -43.6394 403.446 -42.777L384.991 -10.8152C384.487 -9.95278 384.487 -8.8781 384.991 -8.02897L403.446 23.9329C403.95 24.7953 404.866 25.326 405.861 25.326H442.771C443.767 25.326 444.695 24.7953 445.186 23.9329L463.642 -8.02897C464.146 -8.89137 464.146 -9.96605 463.642 -10.8152L445.186 -42.777C444.695 -43.6394 443.767 -44.1701 442.771 -44.1701H405.861Z" fill="url(#paint0_linear_402_12051)"/>
<path d="M442.771 113.247H405.861C403.924 113.247 402.119 112.199 401.137 110.527L382.682 78.5653C381.714 76.8803 381.714 74.7973 382.682 73.1256L401.137 41.1637C402.106 39.4787 403.91 38.4438 405.861 38.4438H442.771C444.709 38.4438 446.513 39.492 447.481 41.1637L465.937 73.1256C466.905 74.8105 466.905 76.8936 465.937 78.5653L447.481 110.527C446.513 112.212 444.709 113.247 442.758 113.247H442.771ZM405.861 41.0708C404.866 41.0708 403.937 41.6016 403.446 42.464L384.991 74.4258C384.487 75.2882 384.487 76.3629 384.991 77.212L403.446 109.174C403.95 110.036 404.866 110.567 405.861 110.567H442.771C443.767 110.567 444.695 110.036 445.186 109.174L463.642 77.212C464.146 76.3496 464.146 75.2749 463.642 74.4258L445.186 42.464C444.695 41.6016 443.767 41.0708 442.771 41.0708H405.861Z" fill="url(#paint1_linear_402_12051)"/>
<path d="M137.698 23.5202H100.788C98.8505 23.5202 97.0461 22.4721 96.0643 20.8003L77.609 -11.1615C76.6404 -12.8465 76.6404 -14.9295 77.609 -16.6013L96.0643 -48.5631C97.0329 -50.2481 98.8373 -51.283 100.788 -51.283H137.698C139.635 -51.283 141.44 -50.2348 142.408 -48.5631L160.864 -16.6013C161.832 -14.9163 161.832 -12.8332 160.864 -11.1615L142.408 20.8003C141.44 22.4853 139.635 23.5202 137.685 23.5202H137.698ZM100.788 -48.656C99.7925 -48.656 98.8638 -48.1253 98.3729 -47.2629L79.9175 -15.301C79.4134 -14.4386 79.4134 -13.3639 79.9175 -12.5148L98.3729 19.447C98.8771 20.3094 99.7925 20.8401 100.788 20.8401H137.698C138.693 20.8401 139.622 20.3094 140.113 19.447L158.568 -12.5148C159.073 -13.3772 159.073 -14.4519 158.568 -15.301L140.113 -47.2629C139.622 -48.1253 138.693 -48.656 137.698 -48.656H100.788Z" fill="url(#paint2_linear_402_12051)"/>
<path d="M61.4296 66.1403H24.5189C22.5819 66.1403 20.7774 65.0922 19.7956 63.4204L1.3403 31.4586C0.371756 29.7736 0.371756 27.6906 1.3403 26.0189L19.7956 -5.94297C20.7642 -7.62796 22.5686 -8.66284 24.5189 -8.66284H61.4296C63.3667 -8.66284 65.1711 -7.6147 66.1396 -5.94297L84.595 26.0189C85.5635 27.7039 85.5635 29.7869 84.595 31.4586L66.1396 63.4204C65.1711 65.1054 63.3667 66.1403 61.4163 66.1403H61.4296ZM24.5189 -6.03584C23.5239 -6.03584 22.5951 -5.50514 22.1042 -4.64274L3.64887 27.3191C3.1447 28.1815 3.1447 29.2562 3.64887 30.1053L22.1042 62.0671C22.6084 62.9295 23.5239 63.4602 24.5189 63.4602H61.4296C62.4247 63.4602 63.3534 62.9295 63.8443 62.0671L82.2997 30.1053C82.8038 29.2429 82.8038 28.1682 82.2997 27.3191L63.8443 -4.64274C63.3534 -5.50514 62.4247 -6.03584 61.4296 -6.03584H24.5189Z" fill="url(#paint3_linear_402_12051)"/>
<path d="M-12.5955 23.5202H-49.5062C-51.4433 23.5202 -53.2477 22.4721 -54.2295 20.8003L-72.6848 -11.1615C-73.6534 -12.8465 -73.6534 -14.9295 -72.6848 -16.6013L-54.2295 -48.5631C-53.261 -50.2481 -51.4566 -51.283 -49.5062 -51.283H-12.5955C-10.6585 -51.283 -8.85405 -50.2348 -7.88551 -48.5631L10.5698 -16.6013C11.5384 -14.9163 11.5384 -12.8332 10.5698 -11.1615L-7.88551 20.8003C-8.85405 22.4853 -10.6585 23.5202 -12.6088 23.5202H-12.5955ZM-49.5062 -48.656C-50.5013 -48.656 -51.43 -48.1253 -51.9209 -47.2629L-70.3763 -15.301C-70.8804 -14.4386 -70.8804 -13.3639 -70.3763 -12.5148L-51.9209 19.447C-51.4168 20.3094 -50.5013 20.8401 -49.5062 20.8401H-12.5955C-11.6005 20.8401 -10.6717 20.3094 -10.1808 19.447L8.27453 -12.5148C8.7787 -13.3772 8.7787 -14.4519 8.27453 -15.301L-10.1808 -47.2629C-10.6717 -48.1253 -11.6005 -48.656 -12.5955 -48.656H-49.5062Z" fill="url(#paint4_linear_402_12051)"/>
<path d="M137.698 191.759H100.788C98.8505 191.759 97.0461 190.711 96.0643 189.039L77.609 157.077C76.6404 155.392 76.6404 153.309 77.609 151.638L96.0643 119.676C97.0329 117.991 98.8373 116.956 100.788 116.956H137.698C139.635 116.956 141.44 118.004 142.408 119.676L160.864 151.638C161.832 153.323 161.832 155.406 160.864 157.077L142.408 189.039C141.44 190.724 139.635 191.759 137.685 191.759H137.698ZM100.788 119.583C99.7925 119.583 98.8638 120.114 98.3729 120.976L79.9175 152.938C79.4134 153.8 79.4134 154.875 79.9175 155.724L98.3729 187.686C98.8771 188.548 99.7925 189.079 100.788 189.079H137.698C138.693 189.079 139.622 188.548 140.113 187.686L158.568 155.724C159.073 154.862 159.073 153.787 158.568 152.938L140.113 120.976C139.622 120.114 138.693 119.583 137.698 119.583H100.788Z" fill="url(#paint5_linear_402_12051)"/>
<path d="M213.967 149.138H177.056C175.119 149.138 173.315 148.09 172.333 146.418L153.878 114.456C152.909 112.771 152.909 110.688 153.878 109.016L172.333 77.0546C173.301 75.3696 175.106 74.3347 177.056 74.3347H213.967C215.904 74.3347 217.708 75.3829 218.677 77.0546L237.132 109.016C238.101 110.701 238.101 112.784 237.132 114.456L218.677 146.418C217.708 148.103 215.904 149.138 213.954 149.138H213.967ZM177.056 76.9617C176.061 76.9617 175.132 77.4924 174.641 78.3548L156.186 110.317C155.682 111.179 155.682 112.254 156.186 113.103L174.641 145.065C175.146 145.927 176.061 146.458 177.056 146.458H213.967C214.962 146.458 215.891 145.927 216.382 145.065L234.837 113.103C235.341 112.24 235.341 111.166 234.837 110.317L216.382 78.3548C215.891 77.4924 214.962 76.9617 213.967 76.9617H177.056Z" fill="url(#paint6_linear_402_12051)"/>
<path d="M63.673 149.138H26.7623C24.8253 149.138 23.0209 148.09 22.039 146.418L3.58371 114.456C2.61516 112.771 2.61516 110.688 3.58371 109.016L22.039 77.0546C23.0076 75.3696 24.812 74.3347 26.7623 74.3347H63.673C65.6101 74.3347 67.4145 75.3829 68.383 77.0546L86.8384 109.016C87.8069 110.701 87.8069 112.784 86.8384 114.456L68.383 146.418C67.4145 148.103 65.6101 149.138 63.6598 149.138H63.673ZM26.7623 76.9617C25.7673 76.9617 24.8385 77.4924 24.3476 78.3548L5.89228 110.317C5.38811 111.179 5.38811 112.254 5.89228 113.103L24.3476 145.065C24.8518 145.927 25.7673 146.458 26.7623 146.458H63.673C64.6681 146.458 65.5968 145.927 66.0877 145.065L84.5431 113.103C85.0473 112.24 85.0473 111.166 84.5431 110.317L66.0877 78.3548C65.5968 77.4924 64.6681 76.9617 63.673 76.9617H26.7623Z" fill="url(#paint7_linear_402_12051)"/>
<path d="M137.698 108.76H100.788C98.8505 108.76 97.0461 107.712 96.0643 106.04L77.609 74.0785C76.6404 72.3935 76.6404 70.3105 77.609 68.6387L96.0643 36.6769C97.0329 34.9919 98.8373 33.957 100.788 33.957H137.698C139.635 33.957 141.44 35.0052 142.408 36.6769L160.864 68.6387C161.832 70.3237 161.832 72.4068 160.864 74.0785L142.408 106.04C141.44 107.725 139.635 108.76 137.685 108.76H137.698ZM100.788 36.584C99.7925 36.584 98.8638 37.1147 98.3729 37.9771L79.9175 69.939C79.4134 70.8014 79.4134 71.876 79.9175 72.7252L98.3729 104.687C98.8771 105.549 99.7925 106.08 100.788 106.08H137.698C138.693 106.08 139.622 105.549 140.113 104.687L158.568 72.7252C159.073 71.8628 159.073 70.7881 158.568 69.939L140.113 37.9771C139.622 37.1147 138.693 36.584 137.698 36.584H100.788Z" fill="url(#paint8_linear_402_12051)"/>
<path d="M213.967 234.379H177.056C175.119 234.379 173.315 233.331 172.333 231.659L153.878 199.697C152.909 198.012 152.909 195.929 153.878 194.257L172.333 162.296C173.301 160.611 175.106 159.576 177.056 159.576H213.967C215.904 159.576 217.708 160.624 218.677 162.296L237.132 194.257C238.101 195.942 238.101 198.025 237.132 199.697L218.677 231.659C217.708 233.344 215.904 234.379 213.954 234.379H213.967ZM177.056 162.203C176.061 162.203 175.132 162.733 174.641 163.596L156.186 195.558C155.682 196.42 155.682 197.495 156.186 198.344L174.641 230.306C175.146 231.168 176.061 231.699 177.056 231.699H213.967C214.962 231.699 215.891 231.168 216.382 230.306L234.837 198.344C235.341 197.481 235.341 196.407 234.837 195.558L216.382 163.596C215.891 162.733 214.962 162.203 213.967 162.203H177.056Z" fill="url(#paint9_linear_402_12051)"/>
<path d="M137.698 277H100.788C98.8505 277 97.0461 275.952 96.0643 274.28L77.609 242.318C76.6404 240.633 76.6404 238.55 77.609 236.878L96.0643 204.917C97.0329 203.232 98.8373 202.197 100.788 202.197H137.698C139.635 202.197 141.44 203.245 142.408 204.917L160.864 236.878C161.832 238.563 161.832 240.646 160.864 242.318L142.408 274.28C141.44 275.965 139.635 277 137.685 277H137.698ZM100.788 204.824C99.7925 204.824 98.8638 205.354 98.3729 206.217L79.9175 238.179C79.4134 239.041 79.4134 240.116 79.9175 240.965L98.3729 272.927C98.8771 273.789 99.7925 274.32 100.788 274.32H137.698C138.693 274.32 139.622 273.789 140.113 272.927L158.568 240.965C159.073 240.103 159.073 239.028 158.568 238.179L140.113 206.217C139.622 205.354 138.693 204.824 137.698 204.824H100.788Z" fill="url(#paint10_linear_402_12051)"/>
<path d="M63.673 234.379H26.7623C24.8253 234.379 23.0209 233.331 22.039 231.659L3.58371 199.697C2.61516 198.012 2.61516 195.929 3.58371 194.257L22.039 162.296C23.0076 160.611 24.812 159.576 26.7623 159.576H63.673C65.6101 159.576 67.4145 160.624 68.383 162.296L86.8384 194.257C87.8069 195.942 87.8069 198.025 86.8384 199.697L68.383 231.659C67.4145 233.344 65.6101 234.379 63.6598 234.379H63.673ZM26.7623 162.203C25.7673 162.203 24.8385 162.733 24.3476 163.596L5.89228 195.558C5.38811 196.42 5.38811 197.495 5.89228 198.344L24.3476 230.306C24.8518 231.168 25.7673 231.699 26.7623 231.699H63.673C64.6681 231.699 65.5968 231.168 66.0877 230.306L84.5431 198.344C85.0473 197.481 85.0473 196.407 84.5431 195.558L66.0877 163.596C65.5968 162.733 64.6681 162.203 63.673 162.203H26.7623Z" fill="url(#paint11_linear_402_12051)"/>
<path d="M287.992 23.5202H251.081C249.144 23.5202 247.34 22.4721 246.358 20.8003L227.903 -11.1615C226.934 -12.8465 226.934 -14.9295 227.903 -16.6013L246.358 -48.5631C247.327 -50.2481 249.131 -51.283 251.081 -51.283H287.992C289.929 -51.283 291.734 -50.2348 292.702 -48.5631L311.157 -16.6013C312.126 -14.9163 312.126 -12.8332 311.157 -11.1615L292.702 20.8003C291.734 22.4853 289.929 23.5202 287.979 23.5202H287.992ZM251.081 -48.656C250.086 -48.656 249.158 -48.1253 248.667 -47.2629L230.211 -15.301C229.707 -14.4386 229.707 -13.3639 230.211 -12.5148L248.667 19.447C249.171 20.3094 250.086 20.8401 251.081 20.8401H287.992C288.987 20.8401 289.916 20.3094 290.407 19.447L308.862 -12.5148C309.366 -13.3772 309.366 -14.4519 308.862 -15.301L290.407 -47.2629C289.916 -48.1253 288.987 -48.656 287.992 -48.656H251.081Z" fill="url(#paint12_linear_402_12051)"/>
<path d="M364.259 66.1403H327.349C325.412 66.1403 323.607 65.0922 322.626 63.4204L304.17 31.4586C303.202 29.7736 303.202 27.6906 304.17 26.0189L322.626 -5.94297C323.594 -7.62796 325.398 -8.66284 327.349 -8.66284H364.259C366.197 -8.66284 368.001 -7.6147 368.97 -5.94297L387.425 26.0189C388.393 27.7039 388.393 29.7869 387.425 31.4586L368.97 63.4204C368.001 65.1054 366.197 66.1403 364.246 66.1403H364.259ZM327.349 -6.03584C326.354 -6.03584 325.425 -5.50514 324.934 -4.64274L306.479 27.3191C305.975 28.1815 305.975 29.2562 306.479 30.1053L324.934 62.0671C325.438 62.9295 326.354 63.4602 327.349 63.4602H364.259C365.255 63.4602 366.183 62.9295 366.674 62.0671L385.13 30.1053C385.634 29.2429 385.634 28.1682 385.13 27.3191L366.674 -4.64274C366.183 -5.50514 365.255 -6.03584 364.259 -6.03584H327.349Z" fill="url(#paint13_linear_402_12051)"/>
<path d="M287.992 108.76H251.081C249.144 108.76 247.34 107.712 246.358 106.04L227.903 74.0785C226.934 72.3935 226.934 70.3105 227.903 68.6387L246.358 36.6769C247.327 34.9919 249.131 33.957 251.081 33.957H287.992C289.929 33.957 291.734 35.0052 292.702 36.6769L311.157 68.6387C312.126 70.3237 312.126 72.4068 311.157 74.0785L292.702 106.04C291.734 107.725 289.929 108.76 287.979 108.76H287.992ZM251.081 36.584C250.086 36.584 249.158 37.1147 248.667 37.9771L230.211 69.939C229.707 70.8014 229.707 71.876 230.211 72.7252L248.667 104.687C249.171 105.549 250.086 106.08 251.081 106.08H287.992C288.987 106.08 289.916 105.549 290.407 104.687L308.862 72.7252C309.366 71.8628 309.366 70.7881 308.862 69.939L290.407 37.9771C289.916 37.1147 288.987 36.584 287.992 36.584H251.081Z" fill="url(#paint14_linear_402_12051)"/>
<path d="M213.967 66.1403H177.056C175.119 66.1403 173.315 65.0922 172.333 63.4204L153.878 31.4586C152.909 29.7736 152.909 27.6906 153.878 26.0189L172.333 -5.94297C173.301 -7.62796 175.106 -8.66284 177.056 -8.66284H213.967C215.904 -8.66284 217.708 -7.6147 218.677 -5.94297L237.132 26.0189C238.101 27.7039 238.101 29.7869 237.132 31.4586L218.677 63.4204C217.708 65.1054 215.904 66.1403 213.954 66.1403H213.967ZM177.056 -6.03584C176.061 -6.03584 175.132 -5.50514 174.641 -4.64274L156.186 27.3191C155.682 28.1815 155.682 29.2562 156.186 30.1053L174.641 62.0671C175.146 62.9295 176.061 63.4602 177.056 63.4602H213.967C214.962 63.4602 215.891 62.9295 216.382 62.0671L234.837 30.1053C235.341 29.2429 235.341 28.1682 234.837 27.3191L216.382 -4.64274C215.891 -5.50514 214.962 -6.03584 213.967 -6.03584H177.056Z" fill="url(#paint15_linear_402_12051)"/>
<defs>
<linearGradient id="paint0_linear_402_12051" x1="466.663" y1="-46.7971" x2="367.914" y2="-5.88862" gradientUnits="userSpaceOnUse">
<stop stop-color="#C3B7FF"/>
<stop offset="1" stop-color="#6FF9D8"/>
</linearGradient>
<linearGradient id="paint1_linear_402_12051" x1="466.663" y1="38.4438" x2="367.914" y2="79.3523" gradientUnits="userSpaceOnUse">
<stop stop-color="#C3B7FF"/>
<stop offset="1" stop-color="#6FF9D8"/>
</linearGradient>
<linearGradient id="paint2_linear_402_12051" x1="161.59" y1="-51.283" x2="62.8411" y2="-10.3745" gradientUnits="userSpaceOnUse">
<stop stop-color="#C3B7FF"/>
<stop offset="1" stop-color="#6FF9D8"/>
</linearGradient>
<linearGradient id="paint3_linear_402_12051" x1="85.3214" y1="-8.66284" x2="-13.4276" y2="32.2457" gradientUnits="userSpaceOnUse">
<stop stop-color="#C3B7FF"/>
<stop offset="1" stop-color="#6FF9D8"/>
</linearGradient>
<linearGradient id="paint4_linear_402_12051" x1="11.2962" y1="-51.283" x2="-87.4527" y2="-10.3745" gradientUnits="userSpaceOnUse">
<stop stop-color="#C3B7FF"/>
<stop offset="1" stop-color="#6FF9D8"/>
</linearGradient>
<linearGradient id="paint5_linear_402_12051" x1="161.59" y1="116.956" x2="62.8411" y2="157.864" gradientUnits="userSpaceOnUse">
<stop stop-color="#C3B7FF"/>
<stop offset="1" stop-color="#6FF9D8"/>
</linearGradient>
<linearGradient id="paint6_linear_402_12051" x1="237.859" y1="74.3347" x2="139.11" y2="115.243" gradientUnits="userSpaceOnUse">
<stop stop-color="#C3B7FF"/>
<stop offset="1" stop-color="#6FF9D8"/>
</linearGradient>
<linearGradient id="paint7_linear_402_12051" x1="87.5648" y1="74.3347" x2="-11.1842" y2="115.243" gradientUnits="userSpaceOnUse">
<stop stop-color="#C3B7FF"/>
<stop offset="1" stop-color="#6FF9D8"/>
</linearGradient>
<linearGradient id="paint8_linear_402_12051" x1="161.59" y1="33.957" x2="62.8411" y2="74.8655" gradientUnits="userSpaceOnUse">
<stop stop-color="#C3B7FF"/>
<stop offset="1" stop-color="#6FF9D8"/>
</linearGradient>
<linearGradient id="paint9_linear_402_12051" x1="237.859" y1="159.576" x2="139.11" y2="200.484" gradientUnits="userSpaceOnUse">
<stop stop-color="#C3B7FF"/>
<stop offset="1" stop-color="#6FF9D8"/>
</linearGradient>
<linearGradient id="paint10_linear_402_12051" x1="161.59" y1="202.197" x2="62.8411" y2="243.105" gradientUnits="userSpaceOnUse">
<stop stop-color="#C3B7FF"/>
<stop offset="1" stop-color="#6FF9D8"/>
</linearGradient>
<linearGradient id="paint11_linear_402_12051" x1="87.5648" y1="159.576" x2="-11.1842" y2="200.484" gradientUnits="userSpaceOnUse">
<stop stop-color="#C3B7FF"/>
<stop offset="1" stop-color="#6FF9D8"/>
</linearGradient>
<linearGradient id="paint12_linear_402_12051" x1="311.884" y1="-51.283" x2="213.135" y2="-10.3745" gradientUnits="userSpaceOnUse">
<stop stop-color="#C3B7FF"/>
<stop offset="1" stop-color="#6FF9D8"/>
</linearGradient>
<linearGradient id="paint13_linear_402_12051" x1="388.151" y1="-8.66284" x2="289.402" y2="32.2457" gradientUnits="userSpaceOnUse">
<stop stop-color="#C3B7FF"/>
<stop offset="1" stop-color="#6FF9D8"/>
</linearGradient>
<linearGradient id="paint14_linear_402_12051" x1="311.884" y1="33.957" x2="213.135" y2="74.8655" gradientUnits="userSpaceOnUse">
<stop stop-color="#C3B7FF"/>
<stop offset="1" stop-color="#6FF9D8"/>
</linearGradient>
<linearGradient id="paint15_linear_402_12051" x1="237.859" y1="-8.66284" x2="139.11" y2="32.2457" gradientUnits="userSpaceOnUse">
<stop stop-color="#C3B7FF"/>
<stop offset="1" stop-color="#6FF9D8"/>
</linearGradient>
</defs>
</svg>
