<svg width="80" height="94" viewBox="0 0 80 94" fill="none" xmlns="http://www.w3.org/2000/svg">
<path d="M 78 22.1 L 42 1.2 C 40.8 0.4 39.2 0.4 38 1.2 L 2 22.1 C 0.8 22.8 0 24.1 0 25.6 V 68.4 C 0 69.9 0.8 71.2 2 71.9 L 38 92.8 C 39.2 93.6 40.8 93.6 42 92.8 L 78 71.9 C 79.2 71.2 80 69.9 80 68.4 V 25.6 C 80 24.1 79.2 22.8 78 22.1 Z" fill="white"/>
<path d="M 78 22.1 L 42 1.2 C 40.8 0.4 39.2 0.4 38 1.2 L 2 22.1 C 0.8 22.8 0 24.1 0 25.6 V 68.4 C 0 69.9 0.8 71.2 2 71.9 L 38 92.8 C 39.2 93.6 40.8 93.6 42 92.8 L 78 71.9 C 79.2 71.2 80 69.9 80 68.4 V 25.6 C 80 24.1 79.2 22.8 78 22.1 Z" stroke="#def7f6" stroke-width="2"/>
</svg>