<svg width="58" height="64" viewBox="0 0 58 64" fill="none" xmlns="http://www.w3.org/2000/svg">
<path d="M5.5836 48.734L5.58365 48.734L26.413 60.8378C28.1171 61.8282 30.2436 61.8453 31.9642 60.8544L52.6991 48.9139C54.4198 47.923 55.4681 46.0775 55.4603 44.1103L55.3658 20.0659L55.3658 20.0659C55.358 18.096 54.294 16.2679 52.5952 15.2706L52.5875 15.2661L31.7658 3.16676C31.7644 3.16591 31.7629 3.16507 31.7615 3.16422C30.0402 2.15584 27.9177 2.16055 26.2069 3.14571L5.47207 15.0863C3.75144 16.0772 2.70307 17.9226 2.71084 19.8898C2.71084 19.8898 2.71084 19.8898 2.71084 19.8898L2.80535 43.9342L2.80535 43.9343C2.81314 45.9005 3.88026 47.7441 5.5836 48.734Z" fill="url(#paint0_linear_268_23309)" stroke="white" stroke-width="4"/>
<defs>
<linearGradient id="paint0_linear_268_23309" x1="40.6352" y1="-2.85518" x2="-1.67243" y2="52.0557" gradientUnits="userSpaceOnUse">
<stop stop-color="#C3B7FF"/>
<stop offset="1" stop-color="#6FF9D8"/>
</linearGradient>
</defs>
</svg>
