<svg width="73" height="62" viewBox="0 0 73 62" fill="none" xmlns="http://www.w3.org/2000/svg">
<path d="M61.9791 16.1493C61.0921 12.251 60.2183 9.052 59.3347 6.56873C57.4247 11.7119 54.7546 16.9288 51.3245 22.2192C47.8943 27.5096 44.1938 32.1279 40.2378 36.0463C37.521 38.79 33.893 41.7837 29.3571 45.008C25.8088 47.5303 22.3284 49.7104 18.9275 51.5402C15.5265 53.3701 12.4856 54.5636 9.83608 55.1161L9.41191 52.963C11.8469 52.4248 14.6862 51.2882 17.9493 49.5563C21.2125 47.8244 24.5091 45.7749 27.8622 43.3914C32.3407 40.2079 35.9539 37.2419 38.6625 34.4868C42.6186 30.5684 46.2928 25.9861 49.6589 20.7758C53.0365 15.5573 55.6228 10.4173 57.4294 5.3475C54.8897 6.56513 50.5426 8.91197 44.3995 12.3799L43.2917 10.5053C45.6467 9.12515 48.4426 7.58712 51.6828 5.87157C54.9116 4.16418 57.2579 3.0149 58.6988 2.44005L60.5357 3.46786C61.4431 5.57122 62.4817 9.05063 63.6793 13.9209C64.8687 18.7797 65.5317 22.5088 65.6634 25.0772L63.5535 25.2459C63.3521 23.0901 62.8234 20.0607 61.9365 16.1623L61.9791 16.1493Z" fill="#2A46BE"/>
</svg>
