<svg width="24" height="24" viewBox="0 0 24 24" fill="none" xmlns="http://www.w3.org/2000/svg">
<path d="M20.25 5.95H18.05V2.65C18.05 1.7403 17.3097 1 16.4 1H7.6C6.6903 1 5.95 1.7403 5.95 2.65V5.95H3.75C2.23365 5.95 1 7.18365 1 8.7V16.4C1 17.9163 2.23365 19.15 3.75 19.15H5.95V21.35C5.95 22.2597 6.6903 23 7.6 23H16.4C17.3097 23 18.05 22.2597 18.05 21.35V19.15H20.25C21.7663 19.15 23 17.9163 23 16.4V8.7C23 7.18365 21.7663 5.95 20.25 5.95ZM7.05 2.65C7.05 2.34695 7.29695 2.1 7.6 2.1H16.4C16.7031 2.1 16.95 2.34695 16.95 2.65V8.15H7.05V2.65ZM16.4 21.9H7.6C7.29695 21.9 7.05 21.6531 7.05 21.35V15.85H16.95V21.35C16.95 21.6531 16.7031 21.9 16.4 21.9ZM21.9 16.4C21.9 17.3097 21.1597 18.05 20.25 18.05H18.05V15.85H18.6082C18.9118 15.85 19.1583 15.6036 19.1583 15.3C19.1583 14.9964 18.9118 14.75 18.6082 14.75H5.39175C5.08815 14.75 4.84175 14.9964 4.84175 15.3C4.84175 15.6036 5.08815 15.85 5.39175 15.85H5.95V18.05H3.75C2.8403 18.05 2.1 17.3097 2.1 16.4V8.7C2.1 7.7903 2.8403 7.05 3.75 7.05H5.95V8.7C5.95 9.0036 6.1964 9.25 6.5 9.25H17.5C17.8036 9.25 18.05 9.0036 18.05 8.7V7.05H20.25C21.1597 7.05 21.9 7.7903 21.9 8.7V16.4Z" fill="#000E50"/>
<path d="M19.15 9.7998C18.2403 9.7998 17.5 10.5401 17.5 11.4498C17.5 12.3595 18.2403 13.0998 19.15 13.0998C20.0597 13.0998 20.8 12.3595 20.8 11.4498C20.8 10.5401 20.0597 9.7998 19.15 9.7998ZM19.15 11.9998C18.847 11.9998 18.6 11.7529 18.6 11.4498C18.6 11.1468 18.847 10.8998 19.15 10.8998C19.4531 10.8998 19.7 11.1468 19.7 11.4498C19.7 11.7529 19.4531 11.9998 19.15 11.9998Z" fill="#000E50"/>
<path d="M15.3 16.9502H8.70002C8.39642 16.9502 8.15002 17.1966 8.15002 17.5002C8.15002 17.8038 8.39642 18.0502 8.70002 18.0502H15.3C15.6036 18.0502 15.85 17.8038 15.85 17.5002C15.85 17.1966 15.6036 16.9502 15.3 16.9502Z" fill="#000E50"/>
<path d="M15.3 19.1504H8.70002C8.39642 19.1504 8.15002 19.3968 8.15002 19.7004C8.15002 20.004 8.39642 20.2504 8.70002 20.2504H15.3C15.6036 20.2504 15.85 20.004 15.85 19.7004C15.85 19.3968 15.6036 19.1504 15.3 19.1504Z" fill="#000E50"/>
</svg>
