<svg width="56" height="57" viewBox="0 0 56 57" fill="none" xmlns="http://www.w3.org/2000/svg">
<path d="M40.4321 30.9073C40.6729 30.1046 42.0531 29.5057 42.1367 28.6403C42.2203 27.7749 40.9802 26.9224 40.8974 26.089C40.8123 25.23 41.8545 24.1494 41.6078 23.3429C41.3567 22.522 39.8849 22.2099 39.4831 21.4629C39.078 20.7102 39.6275 19.3112 39.0864 18.654C38.5449 17.9967 37.0666 18.2683 36.4053 17.7271C35.7495 17.1899 35.7243 15.6855 34.9667 15.282C34.2223 14.8855 32.9622 15.702 32.1353 15.4536C31.3327 15.2129 30.7337 13.8326 29.8684 13.7491C29.003 13.6655 28.1505 14.9056 27.3171 14.9883C26.458 15.0734 25.3774 14.0313 24.5709 14.278C23.7501 14.5291 23.438 16.0009 22.6909 16.4027C21.9383 16.8078 20.5393 16.2583 19.882 16.7994C19.2247 17.3409 19.4964 18.8191 18.9552 19.4804C18.4179 20.1363 16.9135 20.1615 16.51 20.9191C16.1135 21.6635 16.9301 22.9236 16.6817 23.7504C16.4409 24.5531 15.0607 25.1521 14.9771 26.0174C14.8936 26.8828 16.1336 27.7353 16.2164 28.5687C16.3015 29.4277 15.2594 30.5083 15.5061 31.3148C15.7572 32.1357 17.229 32.4478 17.6308 33.1948C18.0358 33.9475 17.4864 35.3465 18.0274 36.0037C18.073 36.059 18.1258 36.1083 18.1836 36.1513C18.4125 36.3218 18.4944 36.6279 18.3997 36.8968L15.7093 44.5391C15.5253 45.062 16.0195 45.5688 16.5468 45.3988L19.6415 44.3993C19.924 44.308 20.2326 44.4137 20.4001 44.6589L22.3205 47.4704C22.6302 47.9233 23.3232 47.8327 23.5052 47.3149L25.7158 41.0365C25.8608 40.6241 26.359 40.4519 26.7193 40.6984C26.8856 40.8119 27.0595 40.8902 27.2455 40.9082C27.4525 40.9281 27.6581 40.8726 27.8634 40.7753C28.2699 40.5826 28.7473 40.8357 28.8128 41.2814L29.7723 47.8078C29.852 48.3504 30.5148 48.5724 30.9054 48.1871L33.3284 45.795C33.5396 45.5864 33.8628 45.5417 34.1226 45.6854L36.9684 47.2586C37.4534 47.5268 38.0354 47.1235 37.9549 46.5751L36.7849 38.6171C36.7453 38.3463 36.8731 38.0772 37.1105 37.9412C37.1531 37.917 37.1933 37.8892 37.2308 37.8583C37.8881 37.3167 37.6165 35.8385 38.1577 35.1772C38.6949 34.5213 40.1993 34.4961 40.6029 33.7385C40.9993 32.9941 40.1828 31.734 40.4312 30.9072L40.4321 30.9073Z" fill="#DEF7F6"/>
<path d="M34.7419 32.8413L36.7263 46.3418L33.4626 43.9902L30.9056 47.1976L28.9212 33.6971L34.7419 32.8413ZM21.5503 31.5673L17.0191 44.4386L20.6725 42.755L22.5684 46.3924L27.0996 33.5212L21.5503 31.5673Z" fill="#C3B7FF"/>
<path d="M40.869 28.5794C40.7942 29.3539 39.4316 29.8647 39.2163 30.5829C38.9941 31.3225 39.8451 32.5 39.4902 33.1663C39.1295 33.844 37.675 33.7943 37.1939 34.3812C36.7094 34.9725 37.0443 36.3878 36.4563 36.8721C35.8684 37.3565 34.5439 36.7571 33.8703 37.1194C33.2022 37.4788 32.9727 38.9159 32.2384 39.1408C31.5165 39.3616 30.5241 38.3011 29.7552 38.3776C29.0091 38.4515 28.2469 39.6912 27.4724 39.6164C26.6979 39.5416 26.187 38.179 25.4689 37.9636C24.7292 37.7414 23.5518 38.5924 22.8855 38.2375C22.2078 37.8768 22.2575 36.4224 21.6706 35.9412C21.0837 35.4601 19.664 35.7916 19.1796 35.2037C18.6953 34.6157 19.2947 33.2912 18.9324 32.6176C18.5729 31.9496 17.1359 31.72 16.911 30.9857C16.6902 30.2638 17.7507 29.2715 17.6742 28.5025C17.6003 27.7564 16.3606 26.9942 16.4354 26.2197C16.5102 25.4452 17.8728 24.9344 18.0881 24.2162C18.3103 23.4766 17.4594 22.2991 17.8142 21.6328C18.175 20.9551 19.6294 21.0048 20.1106 20.4179C20.5917 19.8311 20.2602 18.4113 20.8481 17.927C21.436 17.4426 22.7606 18.042 23.4342 17.6797C24.1022 17.3203 24.3318 15.8832 25.0661 15.6583C25.7879 15.4375 26.7803 16.498 27.5493 16.4215C28.2954 16.3476 29.0576 15.108 29.832 15.1827C30.6065 15.2575 31.1174 16.6201 31.8356 16.8355C32.5752 17.0577 33.7527 16.2067 34.419 16.5616C35.0967 16.9223 35.047 18.3768 35.6339 18.8579C36.2252 19.3424 37.6404 19.0075 38.1248 19.5954C38.6092 20.1834 38.0097 21.5079 38.372 22.1815C38.7315 22.8496 40.1686 23.0791 40.3935 23.8134C40.6142 24.5353 39.5537 25.5276 39.6303 26.2966C39.7042 27.0427 40.9438 27.8049 40.869 28.5794Z" fill="#74F5DB"/>
<path d="M27.6955 37.3124C33.1702 37.8411 38.0369 33.8316 38.5656 28.3569C39.0943 22.8822 35.0848 18.0154 29.6101 17.4867C24.1354 16.958 19.2687 20.9675 18.74 26.4423C18.2112 31.917 22.2208 36.7837 27.6955 37.3124Z" fill="#2A46BE"/>
<path d="M29.3993 22.3829L30.7566 25.576L34.0905 26.5356C34.3171 26.6007 34.3812 26.8912 34.2035 27.0459L31.5861 29.3232L31.7035 32.7908C31.7115 33.0263 31.4554 33.1773 31.2534 33.056L28.2788 31.2706L25.0175 32.4538C24.7961 32.5342 24.5736 32.337 24.6265 32.1073L25.4054 28.7263L23.2721 25.9902C23.1273 25.8043 23.2458 25.5315 23.4807 25.511L26.9365 25.2071L28.8798 22.3327C29.012 22.1376 29.3079 22.1661 29.3998 22.3829L29.3993 22.3829Z" fill="#F2C90F"/>
<path d="M31.3677 33.2164C31.3073 33.2106 31.2472 33.1909 31.1923 33.1582L28.2662 31.402L25.0582 32.5658C24.9124 32.6189 24.7558 32.5889 24.6395 32.486C24.5232 32.383 24.4749 32.2314 24.5097 32.0802L25.2754 28.755L23.1772 26.0637C23.082 25.9412 23.0617 25.7831 23.124 25.6408C23.1862 25.4984 23.3152 25.4052 23.4697 25.3918L26.8689 25.0925L28.7803 22.2655C28.8671 22.137 29.0115 22.0689 29.1656 22.0837C29.3198 22.0986 29.4485 22.1927 29.5091 22.3359L30.8442 25.4764L34.1233 26.4207C34.2723 26.4634 34.3816 26.5796 34.415 26.7312C34.4484 26.8828 34.3987 27.034 34.2818 27.1361L31.7073 29.3762L31.8226 32.7864C31.8278 32.9415 31.751 33.081 31.6175 33.1599C31.5391 33.2061 31.4524 33.2246 31.3672 33.2164L31.3677 33.2164ZM28.2917 31.1384L31.3153 32.953C31.372 32.9873 31.4402 32.9872 31.4972 32.9538C31.5542 32.9204 31.5869 32.8607 31.5847 32.7942L31.4655 29.2702L34.1254 26.9553C34.1753 26.9116 34.1968 26.8474 34.1824 26.7827C34.168 26.7179 34.1214 26.6683 34.0579 26.6501L30.6694 25.6747L29.2902 22.4295C29.2644 22.3684 29.2097 22.3286 29.1436 22.3222C29.0775 22.3158 29.0161 22.3449 28.9791 22.3994L27.0044 25.3207L23.4919 25.6297C23.426 25.6354 23.3708 25.6752 23.3443 25.736C23.3178 25.7968 23.3266 25.8644 23.3672 25.9164L25.535 28.6975L24.7437 32.1335C24.7288 32.1979 24.7494 32.2628 24.7989 32.3069C24.8484 32.3511 24.9154 32.3638 24.9776 32.341L28.2926 31.1385L28.2917 31.1384Z" fill="#E7AF17"/>
</svg>
