<svg width="117" height="144" viewBox="0 0 117 144" fill="none" xmlns="http://www.w3.org/2000/svg">
<g clip-path="url(#clip0_266_5744)">
<path d="M42.889 95.5707L45.7231 98.0942C41.4276 103.103 36.7643 107.238 31.6233 110.373C35.7255 111.562 40.288 112.215 45.3389 112.263C50.3897 112.31 54.6687 111.881 58.0379 110.921C65.1085 108.975 71.497 105.544 77.1216 100.433C82.7463 95.3219 86.9371 89.3851 89.7786 82.4153C93.8298 72.4781 95.3198 62.704 94.2076 52.9956C93.1645 43.3155 90.0097 34.8668 84.9376 27.5679C79.8654 20.2691 73.5199 15.1068 65.998 12.0403C58.9592 9.17065 52.0525 9.33261 45.1401 12.4699L43.7095 9.06991C47.084 7.307 50.9235 6.37748 55.049 6.12796C59.2155 5.97559 63.3486 6.69483 67.489 8.38283C75.632 11.7026 82.4734 17.2279 88.054 25.056C93.6347 32.8841 96.9631 42.2888 98.0981 52.7307C99.2612 63.1037 97.656 73.5552 93.3798 84.0444C90.3976 91.3592 85.8437 97.7919 79.6489 103.314C73.4542 108.836 66.5646 112.707 58.9393 114.83C55.5292 115.693 51.3473 116.08 46.2402 116.171C41.1613 116.193 36.3764 115.691 32.0798 114.583C34.9798 119.709 36.6657 124.259 37.1249 128.068L32.9839 128.552C32.7392 125.797 31.8453 122.857 30.3711 119.761C28.897 116.665 27.2387 114.219 25.4524 112.283L26.6648 108.915C32.1636 106.086 37.6041 101.625 42.889 95.5707Z" fill="#DEF7F6"/>
</g>
<defs>
<clipPath id="clip0_266_5744">
<rect width="74.2244" height="124.08" fill="white" transform="translate(69.2131 143.322) rotate(-157.82)"/>
</clipPath>
</defs>
</svg>
