<svg width="28" height="28" viewBox="0 0 28 28" fill="none" xmlns="http://www.w3.org/2000/svg">
<path d="M21.627 22.8286C19.5818 24.597 16.9158 25.6667 14 25.6667C7.55667 25.6667 2.33333 20.4433 2.33333 14C2.33333 7.55669 7.55667 2.33334 14 2.33334C20.4433 2.33334 25.6667 7.55669 25.6667 14C25.6667 16.4921 24.8852 18.8018 23.5541 20.6974L19.8333 14H23.3333C23.3333 8.84535 19.1547 4.66668 14 4.66668C8.84534 4.66668 4.66666 8.84535 4.66666 14C4.66666 19.1547 8.84534 23.3333 14 23.3333C16.5086 23.3333 18.7859 22.3437 20.4631 20.7335L21.627 22.8286Z" fill="#C3B7FF"/>
</svg>
