<svg width="51" height="51" viewBox="0 0 51 51" fill="none" xmlns="http://www.w3.org/2000/svg">
<path d="M27.384 28.8419C27.4133 28.8254 27.4464 28.8141 27.4846 28.8093C27.5366 29.572 28.0843 30.4909 28.3969 31.2318C28.8928 32.4072 29.3886 33.583 29.8849 34.7584C30.2901 35.7194 32.0751 42.2998 34.0216 39.8608C35.5251 37.9771 33.6131 34.918 32.8424 33.0593C32.1738 31.4467 31.4886 29.8407 30.7878 28.2417C30.9696 28.6573 32.8254 28.7905 33.1617 28.7791C33.3548 28.7725 33.5645 28.7442 33.6981 28.6053C33.8336 28.4641 33.8516 28.2479 33.8336 28.0533C33.7652 27.3058 33.2953 26.6664 32.9747 25.9873C32.8132 25.6455 33.7194 24.6854 34.0405 24.4347C34.3663 24.1797 34.8541 24.1698 35.1289 23.8605C35.3887 23.5681 35.3575 23.1261 35.3046 22.7385C35.2054 22.0098 35.0912 21.2349 35.3967 20.5662C35.7957 19.694 36.8497 19.1496 36.9579 18.1966C36.9753 18.0431 36.964 17.8812 36.8913 17.7447C36.564 17.1303 35.1096 17.8977 35.2036 16.9556C35.2357 16.6355 35.4803 16.3852 35.6696 16.125C35.9171 15.785 36.0861 15.3878 36.1593 14.9732C36.2061 14.7083 36.1999 14.3995 36.003 14.2158C35.7967 14.0236 35.4751 14.051 35.1969 14.0987C34.1911 14.272 32.8661 14.985 31.8494 14.6639C31.9915 14.1643 32.1336 13.6652 32.2758 13.1656C32.3646 12.8544 32.434 12.469 32.196 12.2499C32.0977 12.1597 31.9632 12.1186 31.8305 12.1016C30.9233 11.985 30.1659 12.8383 29.2578 12.9474C29.1232 12.9635 28.982 12.962 28.8578 12.9073C28.5679 12.7793 28.4734 12.4246 28.3842 12.1205C28.2671 11.7215 28.1009 11.3366 27.8903 10.9773C27.7141 10.677 27.486 10.378 27.1559 10.2671C26.4292 10.0229 26.3777 10.8465 25.9055 11.0868C25.4333 11.3272 25.0036 11.0439 24.5214 10.7974C23.797 10.4267 22.7544 9.48884 21.8982 9.51953C20.9311 9.55448 20.712 10.6708 20.9486 11.4854C21.0123 11.704 21.095 11.96 20.9576 12.1418C20.9004 12.2173 20.814 12.2646 20.7276 12.3033C20.3371 12.478 19.8889 12.5219 19.4715 12.4261C19.2321 12.3708 18.9799 12.2721 18.7499 12.3576C18.2857 12.5304 18.3414 13.2355 17.9958 13.5901C17.7842 13.8073 17.4504 13.8564 17.1491 13.8215C16.8478 13.7865 16.5593 13.6808 16.2599 13.635C15.3579 13.4971 14.0253 14.0548 13.682 14.9444C13.4865 15.4506 13.5687 16.0546 13.8922 16.49C14.1939 16.8966 14.6633 17.136 15.1034 17.3868C15.213 17.4491 15.3254 17.5166 15.3938 17.6224C15.5629 17.8835 15.3783 18.2448 15.119 18.4167C14.8598 18.589 14.5415 18.6481 14.2685 18.7973C13.5253 19.2039 13.2943 20.1464 13.173 20.9846C13.1342 21.251 13.1102 21.5555 13.2891 21.7567C13.3973 21.8781 13.5593 21.9347 13.7137 21.9867C14.0905 22.1132 14.9556 22.1359 15.213 22.4679C15.6918 23.0846 14.7365 23.3637 14.3606 23.7655C13.9691 24.1844 13.9621 24.8219 13.9781 25.3947C13.9871 25.7243 14.0187 26.0993 14.2794 26.3009C14.4428 26.427 14.6595 26.4525 14.8649 26.4695C15.8793 26.5526 16.9026 26.5266 17.9117 26.393C18.2933 26.3424 18.8137 26.3637 18.8991 26.7391C18.9251 26.8539 18.8968 26.9738 18.8576 27.0848C18.7258 27.4545 18.4741 27.7662 18.2508 28.0892C18.0274 28.4117 17.8234 28.7706 17.8107 29.1626C17.7606 30.6808 20.2171 30.4338 21.0274 29.9063C21.4421 29.6362 21.7759 29.2561 22.1929 28.9897C22.3313 28.9014 22.5055 28.8249 22.6542 28.8943C22.7496 28.9387 22.8115 29.0351 22.8441 29.1352C22.9371 29.4223 22.8247 29.7297 22.7638 30.0253C22.7029 30.3209 22.7241 30.6869 22.981 30.846C23.0925 30.915 23.2285 30.9301 23.3593 30.9376C24.8864 31.0241 26.433 30.2406 27.2669 28.9581C27.2674 28.9571 27.2679 28.9562 27.2688 28.9553C27.3014 28.9057 27.3373 28.867 27.3826 28.841L27.384 28.8419Z" fill="#DEF7F6" stroke="#DEF7FB" stroke-width="10" stroke-miterlimit="10"/>
<path d="M33.0801 38.8653C32.886 38.8653 32.7023 38.751 32.6225 38.5607L25.3111 21.0965C25.2053 20.8439 25.3243 20.5535 25.5769 20.4477C25.8296 20.3419 26.12 20.4609 26.2258 20.7135L33.5372 38.1777C33.643 38.4304 33.524 38.7208 33.2713 38.8266C33.209 38.8525 33.1438 38.8653 33.0801 38.8653Z" fill="#2A46BE"/>
<path d="M25.9447 14.2517L26.8722 18.242L30.3492 16.0759C30.5116 15.9749 30.6996 16.1623 30.598 16.3248L28.4319 19.8017L32.4222 20.7292C32.6087 20.7726 32.6087 21.038 32.4222 21.0815L28.4319 22.0089L30.598 25.4859C30.6991 25.6483 30.5116 25.8363 30.3492 25.7347L26.8722 23.5687L25.9447 27.5589C25.9013 27.7455 25.6359 27.7455 25.5925 27.5589L24.665 23.5687L21.1881 25.7347C21.0256 25.8358 20.8377 25.6483 20.9392 25.4859L23.1053 22.0089L19.115 21.0815C18.9285 21.038 18.9285 20.7726 19.115 20.7292L23.1053 19.8017L20.9392 16.3248C20.8381 16.1623 21.0256 15.9744 21.1881 16.0759L24.665 18.242L25.5925 14.2517C25.6359 14.0652 25.9013 14.0652 25.9447 14.2517ZM18.4553 17.9653C17.6355 17.5785 16.9026 17.0147 16.3176 16.3224C16.1513 16.126 15.9988 15.9187 15.8586 15.7033C15.7915 15.6004 15.4123 15.7586 15.4482 15.8134C15.9473 16.5817 16.6103 17.2404 17.3848 17.731C17.6048 17.8704 17.8339 17.996 18.0695 18.1074C18.1479 18.1442 18.2579 18.1159 18.3344 18.0862C18.3514 18.0795 18.5228 17.9979 18.4558 17.9662L18.4553 17.9653ZM19.4881 19.1586C19.2845 19.0566 19.0805 18.955 18.877 18.853C18.7877 18.8087 18.664 18.8247 18.5842 18.8842C18.5526 18.9074 18.5129 18.9409 18.5096 18.9834C18.5068 19.0197 18.5209 19.0556 18.5559 19.0726C18.7594 19.1746 18.9634 19.2762 19.1669 19.3782C19.2562 19.4225 19.3799 19.4065 19.4597 19.347C19.4914 19.3239 19.531 19.2903 19.5343 19.2478C19.5372 19.2115 19.523 19.1756 19.4881 19.1586ZM21.0237 15.6769C20.8712 15.4219 20.7182 15.1674 20.5657 14.9124C20.5449 14.8779 20.4854 14.8614 20.45 14.8576C20.3985 14.8519 20.3343 14.8628 20.288 14.8864C20.211 14.926 20.1359 15.0016 20.1888 15.0899C20.3414 15.3449 20.4944 15.5994 20.6469 15.8544C20.6677 15.8889 20.7272 15.9054 20.7626 15.9092C20.8141 15.9149 20.8783 15.904 20.9246 15.8804C21.0015 15.8407 21.0766 15.7652 21.0237 15.6769Z" fill="#F2C90F"/>
<path d="M23.5381 15.266C23.6854 14.374 23.6174 13.4522 23.3351 12.5928C23.2548 12.3486 23.157 12.1106 23.0437 11.8802C22.9927 11.7763 22.5979 11.918 22.6333 11.9902C23.0272 12.7916 23.2236 13.6864 23.2033 14.5794C23.1976 14.833 23.174 15.0861 23.1329 15.3368C23.1207 15.41 23.2581 15.3883 23.2982 15.3808C23.3521 15.3708 23.4054 15.3557 23.4545 15.3317C23.4786 15.3199 23.5334 15.2958 23.5381 15.2665V15.266ZM26.2534 13.5788C26.5079 13.1712 26.7629 12.7637 27.0174 12.3562C27.0576 12.2915 26.8706 12.3108 26.8526 12.3142C26.7757 12.3288 26.6581 12.3548 26.6123 12.4275C26.3577 12.835 26.1027 13.2425 25.8482 13.6501C25.8081 13.7148 25.9951 13.6954 26.013 13.6921C26.09 13.6775 26.2076 13.6515 26.2534 13.5788ZM29.0914 15.241C29.601 14.8845 30.11 14.5279 30.6196 14.1714C30.6937 14.1195 30.7192 14.0099 30.6394 13.9513C30.5525 13.8876 30.4255 13.9174 30.3447 13.974C29.8352 14.3305 29.3261 14.6871 28.8166 15.0436C28.7425 15.0955 28.717 15.2051 28.7968 15.2637C28.8837 15.3274 29.0107 15.2977 29.0914 15.241ZM32.3824 16.9145C33.0987 16.8711 33.8141 16.6081 34.3733 16.1547C34.5263 16.0305 34.6684 15.895 34.7964 15.7449C34.8559 15.6754 34.7444 15.6598 34.6953 15.6627C34.6094 15.6683 34.4814 15.6943 34.4214 15.7647C34.2996 15.9078 34.1655 16.0405 34.0177 16.1566C33.9388 16.2185 33.8571 16.2766 33.7731 16.3304C33.6956 16.38 33.6342 16.4145 33.5426 16.4612C33.4387 16.5141 33.4052 16.5287 33.307 16.5665C33.2602 16.5845 33.213 16.601 33.1658 16.617C33.1417 16.6251 33.1422 16.6251 33.1658 16.617C33.154 16.6208 33.1417 16.6246 33.1299 16.6279C33.1091 16.634 33.0879 16.6402 33.0666 16.6458C33.0213 16.6581 32.9759 16.6695 32.9301 16.6798C32.9797 16.6685 32.9023 16.6855 32.8938 16.6869C32.8692 16.6917 32.8447 16.6959 32.8201 16.7002C32.771 16.7087 32.7214 16.7157 32.6714 16.7214C32.7096 16.7172 32.6359 16.7247 32.6289 16.7252C32.6038 16.7271 32.5788 16.729 32.5538 16.7304C32.4645 16.7356 32.3418 16.762 32.2799 16.8324C32.218 16.9027 32.3342 16.9174 32.3809 16.9145H32.3824ZM29.9462 18.9342H30.7102C30.7655 18.9342 30.8202 18.9257 30.8713 18.9031C30.9076 18.887 30.9605 18.8563 30.9803 18.819C31.0243 18.7359 30.943 18.6859 30.8656 18.6859H30.1015C30.0463 18.6859 29.9915 18.6943 29.9405 18.717C29.9041 18.7331 29.8512 18.7638 29.8314 18.8011C29.7875 18.8842 29.8687 18.9342 29.9462 18.9342ZM28.2504 16.2293C28.4011 16.0239 28.5517 15.8185 28.7019 15.6131C28.7198 15.589 28.7255 15.5588 28.7033 15.5352C28.6792 15.5097 28.6254 15.504 28.5937 15.5045C28.5394 15.5054 28.4832 15.5153 28.4332 15.5375C28.3926 15.5555 28.3486 15.5767 28.3222 15.6136C28.1716 15.819 28.0209 16.0244 27.8708 16.2298C27.8528 16.2539 27.8471 16.2841 27.8693 16.3077C27.8934 16.3332 27.9472 16.3389 27.9789 16.3384C28.0332 16.3375 28.0894 16.3276 28.1394 16.3054C28.1801 16.2874 28.224 16.2662 28.2504 16.2293ZM32.9098 19.6785C33.4746 19.9023 34.1263 19.8735 34.6816 19.636C34.7232 19.618 34.8582 19.551 34.7959 19.4891C34.7373 19.4305 34.5891 19.4688 34.5267 19.4952C34.4984 19.507 34.4705 19.5188 34.4417 19.5297C34.4257 19.5358 34.4096 19.541 34.394 19.5472C34.4153 19.5392 34.4054 19.5439 34.3898 19.5486C34.3317 19.5665 34.2722 19.5831 34.2127 19.5953C34.2349 19.5906 34.224 19.593 34.208 19.5953C34.1914 19.5982 34.1744 19.601 34.1579 19.6038C34.1277 19.6086 34.0975 19.6128 34.0668 19.6161C34.0531 19.6175 34.0399 19.619 34.0262 19.6204C34.0526 19.618 34.0158 19.6204 34.0063 19.6213C33.9756 19.6227 33.9454 19.6242 33.9147 19.6242C33.6928 19.626 33.4581 19.5812 33.2404 19.4948C33.1521 19.4598 33.0303 19.4938 32.9509 19.5382C32.9028 19.5656 32.8196 19.6426 32.9094 19.6785H32.9098ZM32.1831 23.2367L33.7131 23.6886C33.8061 23.716 33.935 23.6772 34.0035 23.6107C34.072 23.5441 34.0455 23.4775 33.961 23.4529L32.431 23.001C32.338 22.9736 32.2091 23.0124 32.1406 23.0789C32.0721 23.1455 32.0986 23.2121 32.1831 23.2367ZM30.3225 22.4386C30.5771 22.6421 30.8321 22.8461 31.0866 23.0497C31.1206 23.0766 31.1857 23.0808 31.2254 23.0775C31.2764 23.0733 31.3392 23.0539 31.3798 23.0218C31.4507 22.9665 31.4842 22.8853 31.4053 22.822C31.1508 22.6185 30.8958 22.4145 30.6413 22.211C30.6073 22.1841 30.5421 22.1798 30.5024 22.1831C30.4514 22.1874 30.3886 22.2067 30.348 22.2388C30.2772 22.2941 30.2437 22.3753 30.3225 22.4386ZM29.7044 26.538C30.3664 26.8435 31.0285 27.149 31.691 27.455C31.7727 27.4928 31.9059 27.4475 31.9796 27.4083C32.031 27.3809 32.1075 27.3185 32.0239 27.2803C31.3619 26.9748 30.6998 26.6692 30.0373 26.3632C29.9556 26.3255 29.8224 26.3708 29.7488 26.41C29.6973 26.4374 29.6208 26.4997 29.7044 26.538ZM23.3993 25.2497C23.1958 25.9118 22.9917 26.5738 22.7882 27.2364C22.7594 27.3294 22.9134 27.3502 22.9705 27.3426C23.0612 27.3308 23.1717 27.2883 23.2009 27.1929C23.4045 26.5309 23.6085 25.8688 23.812 25.2063C23.8408 25.1133 23.6869 25.0925 23.6297 25.1C23.5391 25.1119 23.4286 25.1543 23.3993 25.2497ZM24.9373 28.4113C24.7338 28.9208 24.5298 29.4298 24.3263 29.9394C24.2894 30.0315 24.3612 30.1084 24.4528 30.1174C24.5468 30.1269 24.6809 30.0877 24.7196 29.9904C24.9231 29.4809 25.1271 28.9718 25.3307 28.4623C25.3675 28.3702 25.2957 28.2932 25.2041 28.2842C25.1125 28.2753 24.976 28.314 24.9373 28.4113ZM16.7339 24.2019C16.2739 24.5055 15.8144 24.8092 15.3545 25.1128C15.2837 25.1595 15.2501 25.2625 15.3304 25.3173C15.4173 25.3763 15.5443 25.3432 15.6241 25.2903C16.0841 24.9867 16.5436 24.6831 17.0035 24.3794C17.0743 24.3327 17.1079 24.2297 17.0276 24.175C16.9407 24.1159 16.8137 24.149 16.7339 24.2019ZM19.1035 22.8272H17.8809C17.7912 22.8272 17.6641 22.8584 17.6089 22.9359C17.5536 23.0133 17.6571 23.0435 17.7166 23.0435H18.9391C19.0289 23.0435 19.1559 23.0123 19.2111 22.9349C19.2669 22.857 19.163 22.8272 19.1035 22.8272ZM16.2021 20.5426H14.827C14.7387 20.5426 14.6112 20.5752 14.5546 20.6484C14.4979 20.7216 14.606 20.7452 14.6594 20.7452H16.0345C16.1228 20.7452 16.2503 20.7126 16.307 20.6394C16.3636 20.5662 16.2555 20.5426 16.2021 20.5426ZM20.5211 23.086C20.3681 23.2895 20.2156 23.4935 20.0626 23.6971C20.0423 23.7245 20.0451 23.767 20.0659 23.7925C20.0904 23.8227 20.1428 23.8354 20.1787 23.8368C20.2812 23.8406 20.386 23.8028 20.4484 23.7197C20.6014 23.5162 20.7539 23.3122 20.9069 23.1087C20.9272 23.0813 20.9244 23.0388 20.9036 23.0133C20.879 22.9831 20.8266 22.9703 20.7907 22.9689C20.6882 22.9651 20.5834 23.0029 20.5211 23.086ZM20.4361 27.6609C20.174 28.0118 19.9119 28.3631 19.6498 28.714C19.6262 28.7456 19.6036 28.781 19.6149 28.823C19.6253 28.8613 19.664 28.8896 19.6999 28.9C19.7896 28.926 19.9303 28.9024 19.9903 28.8221C20.2524 28.4712 20.5145 28.1199 20.7766 27.769C20.8002 27.7374 20.8228 27.702 20.8115 27.66C20.8011 27.6217 20.7624 27.5934 20.7265 27.583C20.6368 27.557 20.4961 27.5806 20.4361 27.6609Z" fill="#F2C90F"/>
</svg>
