<svg width="90" height="101" viewBox="0 0 90 101" fill="none" xmlns="http://www.w3.org/2000/svg">
<g clip-path="url(#clip0_842_9055)">
<path d="M73.8673 80.4637C71.099 85.406 68.6605 89.3413 66.4958 92.3887C65.9559 84.6645 64.4189 76.5279 61.885 67.979C59.3511 59.43 56.2133 51.7295 52.3989 44.7852C49.7966 39.9531 46.0982 34.4876 41.231 28.2961C37.4172 23.4446 33.5804 19.1344 29.7305 15.2831C25.8344 11.4681 22.2323 8.69281 18.8055 6.9012L17.4329 9.62485C20.4934 11.3307 23.9402 14.0037 27.6448 17.6702C31.3957 21.3004 35.0046 25.4159 38.6005 29.9902C43.395 36.0892 47.0935 41.5548 49.6958 46.3868C53.4738 53.285 56.6578 60.9491 59.129 69.3231C61.6365 77.7434 63.0645 85.7413 63.4954 93.3269C60.5074 90.667 55.5745 85.7233 48.6407 78.6147L46.3833 80.6882C49.0215 83.4736 52.2341 86.7045 55.9024 90.3248C59.6169 93.9088 62.3309 96.4103 64.0082 97.7831L66.9327 97.1288C68.9919 94.6129 71.8099 90.3045 75.3405 84.2397C78.9173 78.1386 81.2896 73.3582 82.4573 69.8985L79.6578 68.8098C78.6054 71.6555 76.6357 75.5215 73.8673 80.4637Z" fill="#6FF9D8"/>
</g>
<defs>
<clipPath id="clip0_842_9055">
<rect width="100.677" height="35.0872" fill="white" transform="matrix(0.618012 0.786169 0.786169 -0.618012 0 21.6843)"/>
</clipPath>
</defs>
</svg>
