<svg width="97" height="132" viewBox="0 0 97 132" fill="none" xmlns="http://www.w3.org/2000/svg">
<path d="M39.3266 95.4913L35.1263 95.8221C35.5653 103.135 36.9162 109.922 39.3605 116.145C34.9335 114.444 30.4594 111.961 25.9596 108.613C21.4599 105.266 17.9621 102.016 15.626 98.9061C10.677 92.4404 7.32795 85.1185 5.78157 76.8234C4.23518 68.5283 4.51133 60.4645 6.67425 52.3924C9.75802 40.8836 14.9981 31.2375 22.496 23.3956C29.9139 15.5323 38.3734 10.1753 47.7576 7.12184C57.1418 4.06841 66.2189 3.75949 74.9304 6.09373C83.0825 8.27807 89.0835 13.0555 93.0933 20.4688L96.6401 18.421C94.8379 14.5974 92.0651 11.1989 88.583 8.21003C84.9995 5.27966 80.8608 3.14276 76.0654 1.85786C66.6346 -0.669121 56.8753 -0.371669 46.6862 2.80872C36.497 5.9891 27.2424 12.0754 19.2322 20.5509C11.2433 28.9465 5.65064 39.2691 2.39554 51.4172C0.125548 59.889 -0.162074 68.6349 1.6126 77.6765C3.38728 86.718 6.88469 94.765 12.2062 101.759C14.6436 104.81 18.0829 107.959 22.5398 111.466C27.0181 114.893 31.5878 117.66 36.1319 119.562C30.1274 122.151 25.5829 125.045 22.6211 128.106L25.9591 131.313C28.0245 129.04 30.7877 127.039 34.169 125.29C37.5502 123.54 40.6587 122.489 43.5375 121.975L44.7253 118.182C41.7586 111.99 39.9396 104.393 39.3266 95.4913Z" fill="#6FF9D8"/>
</svg>
