<svg width="28" height="38" viewBox="0 0 28 38" fill="none" xmlns="http://www.w3.org/2000/svg">
<g clip-path="url(#clip0_116_1563)">
<path d="M11.3768 18.5174L11.0931 13.7924C10.9893 12.3474 10.9076 11.126 10.8881 10.1366L10.8082 8.78083C10.3541 8.21394 9.65996 7.38616 8.70831 6.30223L9.44917 5.68291L10.6503 7.06342C10.5397 5.94541 10.3875 4.7429 10.1714 3.44276L11.1071 3.26855C11.4646 5.44893 11.6802 7.17002 11.7538 8.43184C13.0027 9.9908 14.3778 11.8794 15.9014 14.1107C17.77 12.2711 19.4671 10.4966 20.9655 8.75619L21.6954 9.15356L18.755 18.4149C19.8644 20.0878 20.8571 21.6772 21.7633 23.1558C23.7567 26.2942 25.1874 28.5313 26.0778 29.8803L25.4009 30.5972C24.2676 29.9636 23.1149 29.4691 21.9653 29.1269C20.798 28.7893 19.1375 28.3735 16.9884 27.8973L15.9475 27.6789L13.5277 35.7105L12.4178 35.5871L11.9169 26.8079L5.36881 25.4256L5.12016 24.4976L11.3768 18.5174ZM11.8573 25.8101L11.4728 19.7923L8.95154 22.2277L6.39498 24.6724L11.8573 25.8101ZM14.9691 27.482C14.5015 27.3587 13.7985 27.2027 12.8601 27.0143L13.2329 33.3412L14.9691 27.482ZM15.2603 26.5241L17.704 18.5818L15.7985 15.6303L12.3998 18.951L12.8182 26.0117L15.2603 26.5241ZM15.2421 14.823C14.115 13.1548 12.999 11.5985 11.8893 10.1361L12.0751 13.7206L12.3086 17.6939L15.2421 14.823ZM17.129 26.9415C18.913 27.3243 20.3061 27.6587 21.3485 27.9532C22.3909 28.2477 23.3996 28.6278 24.4145 29.1018C22.5778 26.2658 21.2063 24.1084 20.3095 22.6655L18.3849 19.6426L16.1682 26.7399L17.129 26.9415ZM18.074 17.3541L20.0363 11.2813C18.4915 12.9194 17.3062 14.136 16.485 14.949L18.074 17.3541Z" fill="white"/>
</g>
<defs>
<clipPath id="clip0_116_1563">
<rect width="20" height="32" fill="white" transform="translate(0.199707 6.13379) rotate(-15)"/>
</clipPath>
</defs>
</svg>
