<svg width="142" height="161" viewBox="0 0 142 161" fill="none" xmlns="http://www.w3.org/2000/svg">
<g clip-path="url(#clip0_842_9044)">
<path d="M59.9778 109.684L55.851 108.835C54.2404 115.982 53.6522 122.876 54.2709 129.533C50.4907 126.67 46.883 123.041 43.4907 118.575C40.0984 114.109 37.6416 110.015 36.2618 106.378C33.3045 98.7918 32.1222 90.8276 32.9419 82.4295C33.7616 74.0314 36.2678 66.3621 40.5888 59.209C46.7493 49.0105 54.4637 41.2006 63.8455 35.7512C73.1564 30.2591 82.7714 27.4639 92.6345 27.1386C102.498 26.8133 111.303 29.0391 119.023 33.7023C126.247 38.0661 130.684 44.323 132.475 52.5586L136.452 51.5772C135.783 47.4033 134.064 43.3681 131.549 39.5293C128.921 35.7185 125.54 32.5156 121.29 29.9487C112.933 24.9005 103.476 22.4741 92.8039 22.6977C82.1323 22.9212 71.5508 26.1959 61.5008 32.1115C51.4935 37.9564 43.2524 46.3181 36.7496 57.0832C32.2147 64.5904 29.5079 72.9119 28.7001 82.0905C27.8922 91.2691 29.0156 99.971 32.1839 108.168C33.6773 111.777 36.1061 115.757 39.4128 120.365C42.7623 124.901 46.3833 128.829 50.2196 131.919C43.7322 132.737 38.5625 134.254 34.8668 136.372L37.182 140.38C39.7977 138.771 43.0082 137.617 46.7424 136.876C50.4766 136.135 53.7549 135.988 56.663 136.295L58.8582 132.981C57.729 126.209 58.0929 118.406 59.9778 109.684Z" fill="#C3B7FF"/>
</g>
<defs>
<clipPath id="clip0_842_9044">
<rect width="82.4105" height="137.765" fill="white" transform="matrix(0.855953 0.517054 0.517054 -0.855953 0 117.92)"/>
</clipPath>
</defs>
</svg>
