<svg width="55" height="64" viewBox="0 0 55 64" fill="none" xmlns="http://www.w3.org/2000/svg">
<g clip-path="url(#clip0_1114_7450)">
<path d="M51.7395 45.3928C49.7349 43.3726 47.2969 42.3352 44.4797 42.3352C41.6625 42.3352 39.2245 43.3726 37.2199 45.3928C35.2154 47.4129 34.186 49.8699 34.186 52.709C34.186 55.5482 35.2154 58.0052 37.2199 60.0253C39.2245 62.0455 41.6625 63.0829 44.4797 63.0829C46.7552 63.0829 49.4099 62.7007 52.3896 61.8817L51.6853 59.0426C49.7891 59.5885 48.3805 59.9161 47.4595 60.0799C46.5385 60.1891 45.5091 60.2437 44.5339 60.2437C42.421 60.2437 40.6331 59.5339 39.2245 58.1144C37.8159 56.6948 37.1116 54.893 37.1116 52.7636C37.1116 50.6343 37.8159 48.8325 39.2245 47.4129C40.6331 45.9934 42.421 45.2836 44.5339 45.2836C46.6468 45.2836 48.4347 45.9934 49.8433 47.4129C51.2519 48.8325 51.9562 50.6343 51.9562 52.7636C51.9562 54.1832 51.577 55.4936 50.8727 56.6948L53.2565 58.1144C54.2858 56.4764 54.7734 54.6746 54.7734 52.709C54.7734 49.8699 53.7441 47.4129 51.7395 45.3928ZM28.8224 8.21074C28.8224 11.7597 29.906 14.8172 32.1273 17.3288C34.3485 19.8404 37.4366 21.0961 41.4458 21.0961C44.3714 21.0961 46.8094 20.0588 48.8139 18.0386C50.8185 16.0184 51.8479 13.5069 51.8479 10.6131C51.8479 7.77394 50.8185 5.31698 48.8139 3.29681C46.8094 1.27664 44.3714 0.239258 41.4458 0.239258C39.9288 0.239258 38.4118 0.621452 36.8407 1.33124L38.0326 3.952C39.062 3.40601 40.1997 3.13301 41.4458 3.13301C43.6671 3.13301 45.4549 3.8428 46.8635 5.26238C48.2721 6.68196 48.9764 8.42913 48.9764 10.6131C48.9764 12.8517 48.2721 14.6534 46.8635 16.073C45.4549 17.4926 43.6129 18.2024 41.4458 18.2024C38.1951 18.2024 35.7571 17.2742 34.1318 15.4178C32.4523 13.5615 31.6397 11.1591 31.6397 8.21074C31.6397 6.57276 32.1273 5.09858 33.1566 3.7882L31.0437 1.87723C29.5267 3.62441 28.8224 5.75377 28.8224 8.21074ZM17.1743 23.6077C15.3322 21.7513 13.0568 20.8231 10.4021 20.8231C8.01829 20.8231 6.01372 21.5875 4.3884 23.0617L6.28461 25.1911C7.31398 24.1537 8.66842 23.6623 10.4021 23.6623C12.3525 23.6623 13.9778 24.3175 15.2239 25.5733C16.47 26.829 17.1201 28.4124 17.1201 30.3234C17.1201 32.289 16.47 33.9269 15.2239 35.1827C13.9778 36.4385 12.3525 37.0937 10.4021 37.0937C8.45171 37.0937 6.66385 36.4385 5.14688 35.1281C3.62991 33.8177 2.87143 32.2344 2.87143 30.3234C2.87143 29.7774 2.97978 29.1222 3.14231 28.4124C3.35902 27.7026 3.57573 27.1566 3.9008 26.7199L1.51699 25.0273C1.13775 25.6825 0.758505 26.5015 0.43344 27.5388C0.108376 28.5762 -0.0541535 29.5044 -0.0541535 30.2688C-0.0541535 32.8896 1.0294 35.1281 3.19649 37.0391C5.36359 38.9501 7.7474 39.8782 10.3479 39.8782C13.0026 39.8782 15.2781 38.9501 17.1201 37.0937C18.9621 35.2373 19.8832 32.9442 19.8832 30.2688C19.9373 27.7026 19.0163 25.4641 17.1743 23.6077Z" fill="#C3B7FF"/>
</g>
<defs>
<clipPath id="clip0_1114_7450">
<rect width="54.7734" height="62.789" fill="white" transform="matrix(-1 0 0 1 54.7734 0.239258)"/>
</clipPath>
</defs>
</svg>
