<svg width="56" height="64" viewBox="0 0 56 64" fill="none" xmlns="http://www.w3.org/2000/svg">
<g clip-path="url(#clip0_1164_1430)">
<path d="M3.10188 46.0243C5.15133 43.9652 7.64392 42.9078 10.5242 42.9078C13.4045 42.9078 15.8971 43.9652 17.9466 46.0243C19.996 48.0835 21.0485 50.5878 21.0485 53.4817C21.0485 56.3756 19.996 58.88 17.9466 60.9391C15.8971 62.9983 13.4045 64.0556 10.5242 64.0556C8.19782 64.0556 5.48368 63.6661 2.43719 62.8313L3.15727 59.9374C5.09594 60.4939 6.5361 60.8278 7.47774 60.9948C8.41939 61.1061 9.47181 61.1617 10.4688 61.1617C12.6291 61.1617 14.457 60.4383 15.8971 58.9913C17.3373 57.5443 18.0574 55.7078 18.0574 53.5374C18.0574 51.367 17.3373 49.5304 15.8971 48.0835C14.457 46.6365 12.6291 45.913 10.4688 45.913C8.3086 45.913 6.48071 46.6365 5.04055 48.0835C3.6004 49.5304 2.88032 51.367 2.88032 53.5374C2.88032 54.9843 3.26805 56.32 3.98813 57.5443L1.55094 58.9913C0.498516 57.3217 0 55.4852 0 53.4817C0 50.5878 1.05242 48.0835 3.10188 46.0243ZM26.5321 8.12522C26.5321 11.7426 25.4243 14.8591 23.1533 17.4191C20.8823 19.9791 17.725 21.2591 13.6261 21.2591C10.635 21.2591 8.14243 20.2017 6.09298 18.1426C4.04352 16.0835 2.9911 13.5235 2.9911 10.5739C2.9911 7.68 4.04352 5.17565 6.09298 3.11652C8.14243 1.05739 10.635 0 13.6261 0C15.1771 0 16.728 0.389565 18.3343 1.11304L17.1157 3.78435C16.0633 3.22783 14.9001 2.94957 13.6261 2.94957C11.3551 2.94957 9.5272 3.67304 8.08704 5.12C6.64688 6.56696 5.9268 8.34783 5.9268 10.5739C5.9268 12.8557 6.64688 14.6922 8.08704 16.1391C9.5272 17.5861 11.4105 18.3096 13.6261 18.3096C16.9496 18.3096 19.4421 17.3635 21.1039 15.4713C22.821 13.5791 23.6518 11.1304 23.6518 8.12522C23.6518 6.45565 23.1533 4.95304 22.1009 3.61739L24.2611 1.66957C25.8121 3.45043 26.5321 5.62087 26.5321 8.12522ZM38.4411 23.8191C40.3244 21.927 42.6508 20.9809 45.365 20.9809C47.8022 20.9809 49.8516 21.76 51.5133 23.2626L49.5747 25.433C48.5223 24.3757 47.1375 23.8748 45.365 23.8748C43.3709 23.8748 41.7092 24.5426 40.4352 25.8226C39.1612 27.1026 38.4965 28.7165 38.4965 30.6643C38.4965 32.6678 39.1612 34.3374 40.4352 35.6174C41.7092 36.8974 43.3709 37.5652 45.365 37.5652C47.359 37.5652 49.1869 36.8974 50.7379 35.5617C52.2888 34.2261 53.0643 32.6122 53.0643 30.6643C53.0643 30.1078 52.9535 29.44 52.7873 28.7165C52.5658 27.993 52.3442 27.4365 52.0119 26.9913L54.4491 25.2661C54.8368 25.9339 55.2245 26.7687 55.5569 27.8261C55.8892 28.8835 56.0554 29.8296 56.0554 30.6087C56.0554 33.28 54.9476 35.5617 52.7319 37.5096C50.5163 39.4574 48.0791 40.4035 45.4204 40.4035C42.7062 40.4035 40.3798 39.4574 38.4965 37.5652C36.6133 35.673 35.6716 33.3357 35.6716 30.6087C35.6162 27.993 36.5579 25.7113 38.4411 23.8191Z" fill="white"/>
</g>
<defs>
<clipPath id="clip0_1164_1430">
<rect width="56" height="64" fill="white"/>
</clipPath>
</defs>
</svg>
