<svg width="268" height="268" viewBox="0 0 268 268" fill="none" xmlns="http://www.w3.org/2000/svg">
<g clip-path="url(#clip0_842_9364)">
<path d="M110.434 245.144C112.776 247.4 114.905 249.716 116.837 252.237C117.853 248.597 117.29 244.493 115.283 239.787C113.209 235.151 109.821 229.776 105.282 223.819C102.851 220.685 98.3853 215.459 91.9518 208.073C83.1316 197.992 75.8459 189.39 70.3075 182.207C64.7691 175.023 60.6465 168.149 57.8738 161.651C55.1671 155.085 55.396 150.16 58.6924 146.738C61.8569 143.453 66.8428 142.32 73.665 143.482C80.4872 144.645 87.2962 147.115 93.8136 151.019C97.542 153.292 102.078 156.343 107.356 160.24C112.634 164.137 116.084 166.538 117.574 167.577C131.352 177.685 142.303 185.069 150.413 189.584C158.523 194.098 164.061 194.816 167.159 191.6C173.291 185.236 163.148 167.151 136.717 137.201C125.349 124.268 116.512 112.588 110.045 102.004C103.579 91.4194 102.99 83.4632 108.066 78.1941C110.835 75.3201 114.597 74.3257 119.416 75.1426C124.17 76.0279 129.386 77.8873 134.773 80.7019C140.16 83.5166 147.359 87.6822 156.306 93.2673C165.334 98.9302 172.695 103.251 178.39 106.231C184.085 109.211 189.529 111.157 194.496 111.984C199.609 112.819 203.582 111.766 206.549 108.686C210.769 104.307 211.553 97.6737 208.821 88.7086C206.09 79.7435 201.018 69.9749 193.458 59.3932C185.899 48.8116 177.306 38.8177 167.695 29.5578C159.133 21.3094 149.356 14.0003 138.523 7.78607L140.901 3.21617C152.072 9.88792 162.173 17.5083 171.138 26.1457C181.072 35.7169 190.084 46.2461 198.091 57.6556C206.099 69.065 211.488 79.7983 214.257 89.8555C217.027 99.9127 215.906 107.542 210.83 112.811C207.006 116.78 201.918 118.343 195.631 117.432C189.345 116.521 182.94 114.441 176.401 111.044C169.862 107.647 161.576 102.831 151.462 96.5171C140.328 89.4844 131.749 84.6493 125.643 81.934C119.472 79.2871 115.035 79.3665 112.266 82.2405C108.508 86.141 109.682 92.6817 115.656 101.999C121.63 111.317 129.922 121.946 140.534 133.885C169.337 166.385 179.666 187.024 171.425 195.577C168.393 198.725 163.802 199.449 157.771 197.464C151.674 195.549 145.312 192.454 138.537 188.17C131.763 183.886 123.292 177.969 113.206 170.494C103.267 163.03 96.0588 158.064 91.648 155.53C85.9086 152.112 80.288 149.863 74.786 148.785C69.2841 147.706 65.4124 148.33 63.1049 150.725C60.7975 153.12 60.9707 156.982 63.5587 162.378C66.1467 167.774 69.8571 173.46 74.7708 179.514C79.6038 185.489 86.2433 193.469 94.6745 203.308C100.256 209.477 105.221 215.315 109.65 220.902C119.757 234.335 124.2 245.08 122.75 253.051C128.391 248.327 134.622 245.093 141.426 243.204L143.72 248.581C139.68 249.703 135.847 251.419 131.991 253.642C128.217 255.944 125.14 258.653 122.76 261.769L117.162 260.467C113.46 255.581 110.236 251.815 107.409 249.091C104.502 246.29 100.618 243.208 95.8397 239.924L98.541 235.665C103.319 238.949 107.284 242.109 110.434 245.144Z" fill="#DEF7F6"/>
</g>
<defs>
<clipPath id="clip0_842_9364">
<rect width="206.195" height="172.044" fill="white" transform="translate(267.898 119.368) rotate(133.933)"/>
</clipPath>
</defs>
</svg>
