<svg width="24" height="33" viewBox="0 0 24 33" fill="none" xmlns="http://www.w3.org/2000/svg">
<g clip-path="url(#clip0_116_1480)">
<path d="M12.805 27.9724C12.1978 26.8723 11.7877 25.6712 11.5617 24.3882C11.4176 23.5702 11.3508 22.7221 11.3426 21.8306C11.3344 20.9391 11.4393 20.1269 11.6037 19.3704C10.2612 19.5408 9.13295 19.4254 8.18685 19.0298C7.25963 18.6475 6.69288 17.8709 6.49226 16.7322C6.25491 15.385 6.60623 14.0003 7.56226 12.5751C5.63411 12.2368 4.55887 11.4837 4.34978 10.2969C4.18024 9.3346 4.35407 8.44411 4.88448 7.60654C2.14777 7.55955 0.697928 7.12047 0.553822 6.30253C0.443622 5.67704 0.793793 5.03659 1.59112 4.40004C2.38845 3.76349 3.46217 3.19399 4.82831 2.68873C6.16521 2.20515 7.58603 1.82254 9.0455 1.56541C11.1144 1.2009 12.7324 0.998531 13.8861 0.977157C15.0399 0.955783 16.4596 1.03637 18.1454 1.21891L18.0838 2.08963C16.3688 1.92877 14.9651 1.84536 13.8595 1.85826C12.7538 1.87116 11.2 2.06223 9.19526 2.41543C7.84806 2.65278 6.55271 2.99675 5.32243 3.42847C4.09215 3.86019 3.11657 4.32971 2.37683 4.82383C1.65595 5.33117 1.31999 5.77068 1.39063 6.17164C1.43301 6.41221 1.84145 6.57175 2.60555 6.68517C3.36965 6.79859 4.35263 6.84037 5.5545 6.81052C6.23108 6.14564 7.08783 5.56476 8.11152 5.08676C9.15125 4.60593 10.1683 4.27792 11.1947 4.09708C12.7986 3.81452 14.2061 3.73189 15.4145 3.83317C16.6258 3.95049 17.2738 4.24972 17.3642 4.76294C17.449 5.24409 17.0941 5.67039 16.2969 6.02582C15.4997 6.38125 14.3166 6.70544 12.7609 6.97952C10.4514 7.38641 8.191 7.60275 5.96369 7.63137C5.30971 8.42457 5.06043 9.26221 5.22149 10.1764C5.3769 11.0585 6.37011 11.6276 8.17943 11.8545C8.78339 11.1528 9.47127 10.5521 10.2459 10.0684C11.0206 9.58463 11.7753 9.26975 12.4971 9.1426C13.4594 8.97306 14.3056 8.98934 15.0677 9.18577C15.8299 9.38221 16.2487 9.78798 16.356 10.3974C16.4549 10.9588 16.1539 11.4087 15.4689 11.7443C14.7839 12.08 14.0178 12.3307 13.1838 12.4776C11.5961 12.7574 10.0385 12.8333 8.51409 12.7216C8.03752 13.3016 7.70339 13.9392 7.49 14.6052C7.27944 15.2872 7.24529 15.9381 7.36114 16.5957C7.65218 18.2476 9.17083 18.8895 11.9114 18.4894C12.4524 17.0547 13.2988 16.2276 14.4696 16.0213C14.8866 15.9478 15.2781 16.0111 15.6573 16.1924C16.0204 16.3764 16.2562 16.6821 16.3296 17.0991C16.4088 17.5482 16.1153 17.9472 15.452 18.3121C14.7887 18.677 13.8197 18.9965 12.5716 19.2329C12.1401 20.6318 12.1019 22.2922 12.4438 24.2328C12.6529 25.4196 13.0299 26.5272 13.5692 27.5236C14.1114 28.536 14.7989 29.3409 15.6534 29.9675L15.191 30.6277C14.1836 29.9784 13.415 29.0886 12.805 27.9724ZM12.5951 6.13233C13.83 5.91475 14.7999 5.69428 15.5046 5.47089C16.2094 5.24751 16.5557 5.05422 16.5274 4.89384C16.4935 4.70138 15.9464 4.59934 14.87 4.59055C13.7936 4.58176 12.6191 4.67294 11.336 4.89898C9.52371 5.21828 8.01414 5.84803 6.83655 6.76654C8.93464 6.66148 10.8469 6.44032 12.5951 6.13233ZM13.0209 11.6465C13.5983 11.5447 14.1671 11.3949 14.7247 11.1809C15.2823 10.9669 15.5296 10.7745 15.4928 10.566C15.4391 10.2613 15.1401 10.066 14.6062 9.94506C14.0751 9.84019 13.3978 9.84378 12.6119 9.98223C12.0506 10.0811 11.477 10.2979 10.8778 10.6515C10.2787 11.0051 9.72291 11.4172 9.21618 11.9199C10.4803 11.9618 11.7378 11.8725 13.0209 11.6465ZM14.8125 17.7798C15.2739 17.5828 15.4918 17.4121 15.4664 17.2678C15.4042 16.9149 15.1166 16.7837 14.6033 16.8741C13.8816 17.0013 13.3051 17.4832 12.8766 18.3359C13.7049 18.1569 14.3511 17.9769 14.8125 17.7798Z" fill="#DEF7F6"/>
</g>
<defs>
<clipPath id="clip0_116_1480">
<rect width="18.2068" height="29.7041" fill="white" transform="translate(0 3.15906) rotate(-9.99192)"/>
</clipPath>
</defs>
</svg>
