<svg width="53" height="54" viewBox="0 0 53 54" fill="none" xmlns="http://www.w3.org/2000/svg">
<g clip-path="url(#clip0_130_14058)">
<path d="M2.36364 26.8182C2.5 29 2.86364 31.5909 3.45455 34.5455C5.63636 28.4091 8.04545 22.1364 10.7273 15.6818C13.4091 9.22727 15.8636 4.04545 18.0455 0L20.2273 1.18182C18 5.13636 15.5455 10.3182 12.9091 16.7273C10.2727 23.1364 7.81818 29.4545 5.59091 35.7273C7.04545 35.1818 8.68182 34.5909 10.4545 33.8636L11.4545 36.0455C9.54545 36.8182 7.22727 37.6818 4.5 38.5L1.72727 37.4091C1.27273 36.0455 0.909091 34.2727 0.590909 32.1364C0.272727 30 0.0454545 28.2273 0 26.8182H2.36364ZM17.0455 36.1364H19.4091C19.2727 39.4545 18.9545 42.5 18.4091 45.3636C21.8636 40.7273 25.3182 35 28.8636 28.1364C32.4091 21.2727 35.6364 14.4091 38.6364 7.54545L40.8182 8.54545C37.8182 15.4545 34.5 22.4545 30.8636 29.5C27.1818 36.5455 23.5909 42.4545 20 47.2273C22.1818 46.6364 24.1364 46.3182 25.8636 46.2273L26.0455 48.5909C23.2727 48.8636 20.1364 49.5455 16.6364 50.6818L15.0455 49.4091C16.3182 45.0455 16.9545 40.6364 17.0455 36.1364ZM33.4545 44.7727L35.8182 44.9545C35.7727 46.4091 35.7727 47.9091 35.8182 49.5C37.7273 45.5909 40.1818 41.1364 43.0909 36.0455C46.0455 30.9545 48.6364 26.5909 50.9545 22.9545L52.9545 24.3182C50.7273 27.7273 48.1364 32.0455 45.1818 37.2727C42.2273 42.5 39.7273 47.1364 37.7727 51.0909C40.2727 50.4545 42.5455 49.9545 44.5909 49.6818L44.7727 52.0455C41.7273 52.3636 38.9091 53 36.2727 53.9091L34.0909 52.9091C33.4545 50.2727 33.2727 47.5455 33.4545 44.7727Z" fill="white"/>
</g>
<defs>
<clipPath id="clip0_130_14058">
<rect width="53" height="54" fill="white"/>
</clipPath>
</defs>
</svg>
