<svg width="20" height="20" viewBox="0 0 20 20" fill="none" xmlns="http://www.w3.org/2000/svg">
<path d="M12.9166 9.99998C12.9166 11.6108 11.6108 12.9166 9.99992 12.9166C8.38909 12.9166 7.08325 11.6108 7.08325 9.99998C7.08325 8.38915 8.38909 7.08331 9.99992 7.08331C11.6108 7.08331 12.9166 8.38915 12.9166 9.99998Z" stroke="#000E50" stroke-width="1.25"/>
<path d="M8.14304 2.2365L7.49964 4.16669L6.19978 4.98882L4.07294 4.46257C3.71638 4.37435 3.34412 4.52998 3.15644 4.84572L2.01961 6.7583C1.81475 7.10296 1.88437 7.54465 2.18532 7.80958L3.67709 9.12285V10.8772L2.18578 12.1904C1.8849 12.4554 1.81533 12.897 2.02017 13.2416L3.15704 15.1543C3.34472 15.47 3.71699 15.6257 4.07354 15.5374L6.20038 15.0112L7.43179 15.7018L8.01959 17.7318C8.12277 18.0881 8.44906 18.3334 8.82006 18.3334H11.1799C11.5508 18.3334 11.8771 18.0881 11.9803 17.7318L12.5681 15.7018L13.7989 15.0112L15.9257 15.5374C16.2823 15.6257 16.6546 15.47 16.8422 15.1543L18.0006 13.2055C18.1956 12.8774 18.1427 12.4585 17.8722 12.1892L16.3671 10.6906L16.3676 9.30944L17.8728 7.81084C18.1434 7.54147 18.1963 7.1227 18.0012 6.79451L16.8428 4.84572C16.6551 4.52998 16.2829 4.37435 15.9263 4.46257L13.7995 4.98882L12.4996 4.16669L11.8562 2.2365C11.7428 1.89621 11.4244 1.66669 11.0656 1.66669H8.93364C8.57489 1.66669 8.25647 1.89621 8.14304 2.2365Z" stroke="#000E50" stroke-width="1.25" stroke-linecap="round" stroke-linejoin="round"/>
</svg>
