<svg width="20" height="20" viewBox="0 0 20 20" fill="none" xmlns="http://www.w3.org/2000/svg">
<path d="M4.62499 14.6875C5.49999 14.0764 6.36805 13.6076 7.22916 13.2812C8.09027 12.9549 9.01388 12.7917 9.99999 12.7917C10.9861 12.7917 11.9132 12.9549 12.7812 13.2812C13.6493 13.6076 14.5208 14.0764 15.3958 14.6875C16.0069 13.9375 16.441 13.1805 16.6979 12.4167C16.9549 11.6528 17.0833 10.8472 17.0833 9.99999C17.0833 7.9861 16.4062 6.30207 15.0521 4.94791C13.6979 3.59374 12.0139 2.91666 9.99999 2.91666C7.9861 2.91666 6.30207 3.59374 4.94791 4.94791C3.59374 6.30207 2.91666 7.9861 2.91666 9.99999C2.91666 10.8472 3.0486 11.6528 3.31249 12.4167C3.57638 13.1805 4.01388 13.9375 4.62499 14.6875ZM9.99999 10.625C9.19443 10.625 8.51735 10.3507 7.96874 9.80207C7.42013 9.25346 7.14582 8.57638 7.14582 7.77082C7.14582 6.96527 7.42013 6.28818 7.96874 5.73957C8.51735 5.19096 9.19443 4.91666 9.99999 4.91666C10.8055 4.91666 11.4826 5.19096 12.0312 5.73957C12.5799 6.28818 12.8542 6.96527 12.8542 7.77082C12.8542 8.57638 12.5799 9.25346 12.0312 9.80207C11.4826 10.3507 10.8055 10.625 9.99999 10.625ZM9.99999 18.3333C8.8611 18.3333 7.78471 18.1146 6.77082 17.6771C5.75693 17.2396 4.87152 16.6424 4.11457 15.8854C3.35763 15.1285 2.76041 14.243 2.32291 13.2292C1.88541 12.2153 1.66666 11.1389 1.66666 9.99999C1.66666 8.84721 1.88541 7.76735 2.32291 6.76041C2.76041 5.75346 3.35763 4.87152 4.11457 4.11457C4.87152 3.35763 5.75693 2.76041 6.77082 2.32291C7.78471 1.88541 8.8611 1.66666 9.99999 1.66666C11.1528 1.66666 12.2326 1.88541 13.2396 2.32291C14.2465 2.76041 15.1285 3.35763 15.8854 4.11457C16.6424 4.87152 17.2396 5.75346 17.6771 6.76041C18.1146 7.76735 18.3333 8.84721 18.3333 9.99999C18.3333 11.1389 18.1146 12.2153 17.6771 13.2292C17.2396 14.243 16.6424 15.1285 15.8854 15.8854C15.1285 16.6424 14.2465 17.2396 13.2396 17.6771C12.2326 18.1146 11.1528 18.3333 9.99999 18.3333ZM9.99999 17.0833C10.7639 17.0833 11.5104 16.9722 12.2396 16.75C12.9687 16.5278 13.6875 16.1389 14.3958 15.5833C13.6875 15.0833 12.9653 14.7014 12.2292 14.4375C11.493 14.1736 10.75 14.0417 9.99999 14.0417C9.24999 14.0417 8.50693 14.1736 7.77082 14.4375C7.03471 14.7014 6.31249 15.0833 5.60416 15.5833C6.31249 16.1389 7.03124 16.5278 7.76041 16.75C8.48957 16.9722 9.2361 17.0833 9.99999 17.0833ZM9.99999 9.37499C10.4722 9.37499 10.8576 9.22568 11.1562 8.92707C11.4549 8.62846 11.6042 8.24305 11.6042 7.77082C11.6042 7.2986 11.4549 6.91318 11.1562 6.61457C10.8576 6.31596 10.4722 6.16666 9.99999 6.16666C9.52777 6.16666 9.14235 6.31596 8.84374 6.61457C8.54513 6.91318 8.39582 7.2986 8.39582 7.77082C8.39582 8.24305 8.54513 8.62846 8.84374 8.92707C9.14235 9.22568 9.52777 9.37499 9.99999 9.37499Z" fill="#000E50"/>
</svg>
