<svg width="66" height="76" viewBox="0 0 66 76" fill="none" xmlns="http://www.w3.org/2000/svg">
<path d="M3.87502 58.4414L3.87504 58.4414L30.368 74.2332C32.0643 75.2444 34.1861 75.2608 35.8956 74.251L62.2684 58.6722C63.9749 57.6642 65.0076 55.7903 65 53.806L64.8797 22.4356C64.8721 20.4498 63.8239 18.5863 62.1288 17.5656L62.125 17.5633L35.6358 1.77385C35.6351 1.77342 35.6344 1.77299 35.6336 1.77256C33.9243 0.744332 31.8088 0.746925 30.1044 1.75377L3.73158 17.3325C2.0251 18.3405 0.992392 20.2144 1.00004 22.1987C1.00004 22.1987 1.00004 22.1987 1.00004 22.1987L1.12025 53.5692L2.12024 53.5654L1.12025 53.5692C1.12791 55.5531 2.18201 57.4322 3.87502 58.4414Z" fill="#E0F8E5" stroke="#6CC47C" stroke-width="2"/>
<path d="M29.5062 25.6188C29.2715 25.6188 29.0774 25.542 28.924 25.3885C28.7705 25.2351 28.6937 25.041 28.6937 24.8063C28.6937 24.5715 28.7705 24.3774 28.924 24.224C29.0774 24.0705 29.2715 23.9938 29.5062 23.9938H36.5208C36.7556 23.9938 36.9497 24.0705 37.1031 24.224C37.2566 24.3774 37.3333 24.5715 37.3333 24.8063C37.3333 25.041 37.2566 25.2351 37.1031 25.3885C36.9497 25.542 36.7556 25.6188 36.5208 25.6188H29.5062ZM29.5062 29.0583C29.2715 29.0583 29.0774 28.9816 28.924 28.8281C28.7705 28.6747 28.6937 28.4806 28.6937 28.2458C28.6937 28.0111 28.7705 27.817 28.924 27.6635C29.0774 27.5101 29.2715 27.4333 29.5062 27.4333H36.5208C36.7556 27.4333 36.9497 27.5101 37.1031 27.6635C37.2566 27.817 37.3333 28.0111 37.3333 28.2458C37.3333 28.4806 37.2566 28.6747 37.1031 28.8281C36.9497 28.9816 36.7556 29.0583 36.5208 29.0583H29.5062ZM29.5062 32.4979C29.2715 32.4979 29.0774 32.4212 28.924 32.2677C28.7705 32.1142 28.6937 31.9201 28.6937 31.6854C28.6937 31.4507 28.7705 31.2566 28.924 31.1031C29.0774 30.9497 29.2715 30.8729 29.5062 30.8729H36.5208C36.7556 30.8729 36.9497 30.9497 37.1031 31.1031C37.2566 31.2566 37.3333 31.4507 37.3333 31.6854C37.3333 31.9201 37.2566 32.1142 37.1031 32.2677C36.9497 32.4212 36.7556 32.4979 36.5208 32.4979H29.5062ZM39.5813 23.6146C39.3465 23.6146 39.1524 23.5378 38.999 23.3844C38.8455 23.2309 38.7688 23.0368 38.7688 22.8021V21.2583H37.1979C36.9632 21.2583 36.7691 21.1816 36.6156 21.0281C36.4622 20.8747 36.3854 20.6806 36.3854 20.4458C36.3854 20.2111 36.4622 20.017 36.6156 19.8635C36.7691 19.7101 36.9632 19.6333 37.1979 19.6333H38.7688V18.0625C38.7688 17.8278 38.8455 17.6337 38.999 17.4802C39.1524 17.3267 39.3465 17.25 39.5813 17.25C39.816 17.25 40.0101 17.3267 40.1635 17.4802C40.317 17.6337 40.3938 17.8278 40.3938 18.0625V19.6333H41.9375C42.1722 19.6333 42.3663 19.7101 42.5198 19.8635C42.6733 20.017 42.75 20.2111 42.75 20.4458C42.75 20.6806 42.6733 20.8747 42.5198 21.0281C42.3663 21.1816 42.1722 21.2583 41.9375 21.2583H40.3938V22.8021C40.3938 23.0368 40.317 23.2309 40.1635 23.3844C40.0101 23.5378 39.816 23.6146 39.5813 23.6146ZM24.875 36.75C24.4417 36.75 24.0625 36.5875 23.7375 36.2625C23.4125 35.9375 23.25 35.5583 23.25 35.125V18.875C23.25 18.4417 23.4125 18.0625 23.7375 17.7375C24.0625 17.4125 24.4417 17.25 24.875 17.25H34.7604C34.9951 17.25 35.1892 17.3267 35.3427 17.4802C35.4962 17.6337 35.5729 17.8278 35.5729 18.0625C35.5729 18.2972 35.4962 18.4913 35.3427 18.6448C35.1892 18.7983 34.9951 18.875 34.7604 18.875H24.875V35.125H41.125V25.2396C41.125 25.0049 41.2017 24.8108 41.3552 24.6573C41.5087 24.5038 41.7028 24.4271 41.9375 24.4271C42.1722 24.4271 42.3663 24.5038 42.5198 24.6573C42.6733 24.8108 42.75 25.0049 42.75 25.2396V35.125C42.75 35.5583 42.5875 35.9375 42.2625 36.2625C41.9375 36.5875 41.5583 36.75 41.125 36.75H24.875Z" fill="#6CC47C"/>
<path d="M24.0197 48.624C24.8997 48.624 25.6717 48.796 26.3357 49.14C27.0077 49.484 27.5237 49.976 27.8837 50.616C28.2517 51.248 28.4357 51.984 28.4357 52.824C28.4357 53.664 28.2517 54.4 27.8837 55.032C27.5237 55.656 27.0077 56.14 26.3357 56.484C25.6717 56.828 24.8997 57 24.0197 57H21.0917V48.624H24.0197ZM23.9597 55.572C24.8397 55.572 25.5197 55.332 25.9997 54.852C26.4797 54.372 26.7197 53.696 26.7197 52.824C26.7197 51.952 26.4797 51.272 25.9997 50.784C25.5197 50.288 24.8397 50.04 23.9597 50.04H22.7717V55.572H23.9597ZM32.6452 57.108C32.0052 57.108 31.4292 56.968 30.9172 56.688C30.4052 56.4 30.0012 55.996 29.7052 55.476C29.4172 54.956 29.2732 54.356 29.2732 53.676C29.2732 52.996 29.4212 52.396 29.7172 51.876C30.0212 51.356 30.4332 50.956 30.9532 50.676C31.4732 50.388 32.0532 50.244 32.6932 50.244C33.3332 50.244 33.9132 50.388 34.4332 50.676C34.9532 50.956 35.3612 51.356 35.6572 51.876C35.9612 52.396 36.1132 52.996 36.1132 53.676C36.1132 54.356 35.9572 54.956 35.6452 55.476C35.3412 55.996 34.9252 56.4 34.3972 56.688C33.8772 56.968 33.2932 57.108 32.6452 57.108ZM32.6452 55.644C32.9492 55.644 33.2332 55.572 33.4972 55.428C33.7692 55.276 33.9852 55.052 34.1452 54.756C34.3052 54.46 34.3852 54.1 34.3852 53.676C34.3852 53.044 34.2172 52.56 33.8812 52.224C33.5532 51.88 33.1492 51.708 32.6692 51.708C32.1892 51.708 31.7852 51.88 31.4572 52.224C31.1372 52.56 30.9772 53.044 30.9772 53.676C30.9772 54.308 31.1332 54.796 31.4452 55.14C31.7652 55.476 32.1652 55.644 32.6452 55.644ZM36.9136 53.676C36.9136 52.988 37.0536 52.388 37.3336 51.876C37.6136 51.356 38.0016 50.956 38.4976 50.676C38.9936 50.388 39.5616 50.244 40.2016 50.244C41.0256 50.244 41.7056 50.452 42.2416 50.868C42.7856 51.276 43.1496 51.852 43.3336 52.596H41.5216C41.4256 52.308 41.2616 52.084 41.0296 51.924C40.8056 51.756 40.5256 51.672 40.1896 51.672C39.7096 51.672 39.3296 51.848 39.0496 52.2C38.7696 52.544 38.6296 53.036 38.6296 53.676C38.6296 54.308 38.7696 54.8 39.0496 55.152C39.3296 55.496 39.7096 55.668 40.1896 55.668C40.8696 55.668 41.3136 55.364 41.5216 54.756H43.3336C43.1496 55.476 42.7856 56.048 42.2416 56.472C41.6976 56.896 41.0176 57.108 40.2016 57.108C39.5616 57.108 38.9936 56.968 38.4976 56.688C38.0016 56.4 37.6136 56 37.3336 55.488C37.0536 54.968 36.9136 54.364 36.9136 53.676Z" fill="#6CC47C"/>
</svg>
