<svg width="66" height="76" viewBox="0 0 66 76" fill="none" xmlns="http://www.w3.org/2000/svg">
<path d="M3.87502 58.4414L3.87504 58.4414L30.368 74.2332C32.0643 75.2444 34.1861 75.2608 35.8956 74.251L62.2684 58.6722C63.9749 57.6642 65.0076 55.7903 65 53.806L64.8797 22.4356C64.8721 20.4498 63.8239 18.5863 62.1288 17.5656L62.125 17.5633L35.6358 1.77385C35.6351 1.77342 35.6344 1.77299 35.6336 1.77256C33.9243 0.744332 31.8088 0.746925 30.1044 1.75377L3.73158 17.3325C2.0251 18.3405 0.992392 20.2144 1.00004 22.1987C1.00004 22.1987 1.00004 22.1987 1.00004 22.1987L1.12025 53.5692L2.12024 53.5654L1.12025 53.5692C1.12791 55.5531 2.18201 57.4322 3.87502 58.4414Z" fill="#E7E2FF" stroke="#8980B3" stroke-width="2"/>
<path d="M33.325 34.5834H24.875C24.4236 34.5834 24.0399 34.4254 23.724 34.1094C23.408 33.7934 23.25 33.4097 23.25 32.9584V19.9584C23.25 19.507 23.408 19.1233 23.724 18.8073C24.0399 18.4913 24.4236 18.3334 24.875 18.3334H26.5V16.1667H28.125V18.3334H35.7083V16.1667H37.3333V18.3334H38.9583C39.4097 18.3334 39.7934 18.4913 40.1094 18.8073C40.4253 19.1233 40.5833 19.507 40.5833 19.9584V27.325C40.4389 27.307 40.3035 27.2934 40.1771 27.2844C40.0507 27.2754 39.9153 27.2709 39.7708 27.2709C39.6264 27.2709 39.491 27.2754 39.3646 27.2844C39.2382 27.2934 39.1028 27.307 38.9583 27.325V23.2084H24.875V32.9584H33.325C33.3069 33.1028 33.2934 33.2382 33.2844 33.3646C33.2753 33.491 33.2708 33.6264 33.2708 33.7709C33.2708 33.9153 33.2753 34.0507 33.2844 34.1771C33.2934 34.3035 33.3069 34.4389 33.325 34.5834ZM38.9583 37.8334V34.5834H35.7083V32.9584H38.9583V29.7084H40.5833V32.9584H43.8333V34.5834H40.5833V37.8334H38.9583Z" fill="#8980B3"/>
<path d="M18.7268 49.98V52.08H21.5468V53.412H18.7268V55.632H21.9068V57H17.0468V48.612H21.9068V49.98H18.7268ZM26.2055 55.452L27.8855 50.352H29.6735L27.2135 57H25.1735L22.7255 50.352H24.5255L26.2055 55.452ZM36.7971 53.532C36.7971 53.772 36.7811 53.988 36.7491 54.18H31.8891C31.9291 54.66 32.0971 55.036 32.3931 55.308C32.6891 55.58 33.0531 55.716 33.4851 55.716C34.1091 55.716 34.5531 55.448 34.8171 54.912H36.6291C36.4371 55.552 36.0691 56.08 35.5251 56.496C34.9811 56.904 34.3131 57.108 33.5211 57.108C32.8811 57.108 32.3051 56.968 31.7931 56.688C31.2891 56.4 30.8931 55.996 30.6051 55.476C30.3251 54.956 30.1851 54.356 30.1851 53.676C30.1851 52.988 30.3251 52.384 30.6051 51.864C30.8851 51.344 31.2771 50.944 31.7811 50.664C32.2851 50.384 32.8651 50.244 33.5211 50.244C34.1531 50.244 34.7171 50.38 35.2131 50.652C35.7171 50.924 36.1051 51.312 36.3771 51.816C36.6571 52.312 36.7971 52.884 36.7971 53.532ZM35.0571 53.052C35.0491 52.62 34.8931 52.276 34.5891 52.02C34.2851 51.756 33.9131 51.624 33.4731 51.624C33.0571 51.624 32.7051 51.752 32.4171 52.008C32.1371 52.256 31.9651 52.604 31.9011 53.052H35.0571ZM41.7073 50.256C42.4993 50.256 43.1393 50.508 43.6273 51.012C44.1153 51.508 44.3593 52.204 44.3593 53.1V57H42.6793V53.328C42.6793 52.8 42.5473 52.396 42.2833 52.116C42.0193 51.828 41.6593 51.684 41.2033 51.684C40.7393 51.684 40.3713 51.828 40.0993 52.116C39.8353 52.396 39.7033 52.8 39.7033 53.328V57H38.0233V50.352H39.7033V51.18C39.9273 50.892 40.2113 50.668 40.5553 50.508C40.9073 50.34 41.2913 50.256 41.7073 50.256ZM47.9129 51.732V54.948C47.9129 55.172 47.9649 55.336 48.0689 55.44C48.1809 55.536 48.3649 55.584 48.6209 55.584H49.4009V57H48.3449C46.9289 57 46.2209 56.312 46.2209 54.936V51.732H45.4289V50.352H46.2209V48.708H47.9129V50.352H49.4009V51.732H47.9129Z" fill="#8980B3"/>
</svg>
