<svg width="24" height="24" viewBox="0 0 24 24" fill="none" xmlns="http://www.w3.org/2000/svg">
<path d="M4.75 19C4.53333 19 4.35417 18.9292 4.2125 18.7875C4.07083 18.6458 4 18.4667 4 18.25C4 18.0333 4.07083 17.8542 4.2125 17.7125C4.35417 17.5708 4.53333 17.5 4.75 17.5H6.1V9.85C6.1 8.48333 6.5125 7.24583 7.3375 6.1375C8.1625 5.02917 9.25 4.33333 10.6 4.05V3.325C10.6 2.94167 10.7375 2.625 11.0125 2.375C11.2875 2.125 11.6167 2 12 2C12.3833 2 12.7125 2.125 12.9875 2.375C13.2625 2.625 13.4 2.94167 13.4 3.325V4.05C13.8167 4.13333 14.2375 4.27917 14.6625 4.4875C15.0875 4.69583 15.4583 4.94167 15.775 5.225C15.5583 5.44167 15.3792 5.62083 15.2375 5.7625C15.0958 5.90417 14.9167 6.08333 14.7 6.3C14.3333 6 13.9125 5.775 13.4375 5.625C12.9625 5.475 12.4833 5.4 12 5.4C10.75 5.4 9.70417 5.82917 8.8625 6.6875C8.02083 7.54583 7.6 8.6 7.6 9.85V17.5H16.425V13.8C16.7083 13.8 16.9583 13.8 17.175 13.8C17.3917 13.8 17.6417 13.8 17.925 13.8V17.5H19.25C19.4667 17.5 19.6458 17.5708 19.7875 17.7125C19.9292 17.8542 20 18.0333 20 18.25C20 18.4667 19.9292 18.6458 19.7875 18.7875C19.6458 18.9292 19.4667 19 19.25 19H4.75ZM12 22C11.45 22 10.9792 21.8042 10.5875 21.4125C10.1958 21.0208 10 20.55 10 20H14C14 20.55 13.8042 21.0208 13.4125 21.4125C13.0208 21.8042 12.55 22 12 22ZM20 13C19.7833 13 19.6042 12.9292 19.4625 12.7875C19.3208 12.6458 19.25 12.4667 19.25 12.25V9.75H16.75C16.5333 9.75 16.3542 9.67917 16.2125 9.5375C16.0708 9.39583 16 9.21667 16 9C16 8.78333 16.0708 8.60417 16.2125 8.4625C16.3542 8.32083 16.5333 8.25 16.75 8.25H19.25V5.75C19.25 5.53333 19.3208 5.35417 19.4625 5.2125C19.6042 5.07083 19.7833 5 20 5C20.2167 5 20.3958 5.07083 20.5375 5.2125C20.6792 5.35417 20.75 5.53333 20.75 5.75V8.25H23.25C23.4667 8.25 23.6458 8.32083 23.7875 8.4625C23.9292 8.60417 24 8.78333 24 9C24 9.21667 23.9292 9.39583 23.7875 9.5375C23.6458 9.67917 23.4667 9.75 23.25 9.75H20.75V12.25C20.75 12.4667 20.6792 12.6458 20.5375 12.7875C20.3958 12.9292 20.2167 13 20 13Z" fill="#000E50"/>
</svg>
