<svg width="66" height="76" viewBox="0 0 66 76" fill="none" xmlns="http://www.w3.org/2000/svg">
<path d="M3.87502 58.4414L3.87504 58.4414L30.368 74.2332C32.0643 75.2444 34.1861 75.2608 35.8956 74.251L62.2684 58.6722C63.9749 57.6642 65.0076 55.7903 65 53.806L64.8797 22.4356C64.8721 20.4498 63.8239 18.5863 62.1288 17.5656L62.125 17.5633L35.6358 1.77385C35.6351 1.77342 35.6344 1.77299 35.6336 1.77256C33.9243 0.744332 31.8088 0.746925 30.1044 1.75377L3.73158 17.3325C2.0251 18.3405 0.992392 20.2144 1.00004 22.1987C1.00004 22.1987 1.00004 22.1987 1.00004 22.1987L1.12025 53.5692L2.12024 53.5654L1.12025 53.5692C1.12791 55.5531 2.18201 57.4322 3.87502 58.4414Z" fill="#FFE2E0" stroke="#FF6961" stroke-width="2"/>
<path d="M32.8916 37.8334C31.375 37.8153 29.9621 37.5264 28.6531 36.9667C27.3441 36.407 26.2111 35.6396 25.2541 34.6646C24.2972 33.6896 23.5434 32.5476 22.9927 31.2386C22.442 29.9295 22.1666 28.5167 22.1666 27C22.1666 25.4653 22.4465 24.0389 23.0062 22.7209C23.5659 21.4028 24.3333 20.2563 25.3083 19.2813C26.2833 18.3063 27.4298 17.5434 28.7479 16.9927C30.0659 16.442 31.4833 16.1667 33 16.1667C34.0833 16.1667 35.1486 16.3247 36.1958 16.6406C37.243 16.9566 38.2541 17.4306 39.2291 18.0625C39.4277 18.1889 39.5406 18.3604 39.5677 18.5771C39.5948 18.7938 39.5361 18.9924 39.3916 19.1729C39.2472 19.3535 39.0666 19.4618 38.85 19.4979C38.6333 19.534 38.4257 19.4889 38.227 19.3625C37.4145 18.8389 36.5704 18.4462 35.6948 18.1844C34.8191 17.9226 33.9208 17.7917 33 17.7917C30.3819 17.7917 28.1927 18.6719 26.4323 20.4323C24.6718 22.1927 23.7916 24.382 23.7916 27C23.7916 29.6181 24.6718 31.8073 26.4323 33.5677C28.1927 35.3281 30.3819 36.2084 33 36.2084C33.7041 36.2084 34.3993 36.1361 35.0854 35.9917C35.7715 35.8472 36.4305 35.6215 37.0625 35.3146C37.2791 35.2243 37.4958 35.1972 37.7125 35.2334C37.9291 35.2695 38.1007 35.3778 38.227 35.5584C38.3715 35.757 38.4166 35.9691 38.3625 36.1948C38.3083 36.4205 38.1819 36.5785 37.9833 36.6688C37.1888 37.066 36.3673 37.3594 35.5187 37.549C34.6701 37.7386 33.7944 37.8334 32.8916 37.8334ZM30.8333 31.3604L27.5291 28.0292C27.3666 27.8667 27.2854 27.6681 27.2854 27.4334C27.2854 27.1986 27.3757 26.991 27.5562 26.8104C27.7187 26.6479 27.9218 26.5622 28.1656 26.5531C28.4093 26.5441 28.6125 26.6299 28.775 26.8104L31.402 29.4646L42.0187 18.8479C42.1812 18.6854 42.3798 18.5997 42.6145 18.5906C42.8493 18.5816 43.0569 18.6674 43.2375 18.8479C43.418 19.0285 43.5083 19.2361 43.5083 19.4709C43.5083 19.7056 43.418 19.9132 43.2375 20.0938L31.9708 31.3604C31.8083 31.5229 31.6142 31.6042 31.3885 31.6042C31.1628 31.6042 30.9777 31.5229 30.8333 31.3604ZM41.6666 35.3959C41.4319 35.3959 41.2378 35.3191 41.0843 35.1656C40.9309 35.0122 40.8541 34.8181 40.8541 34.5834V32.1459H38.4166C38.1819 32.1459 37.9878 32.0691 37.8343 31.9156C37.6809 31.7622 37.6041 31.5681 37.6041 31.3334C37.6041 31.0986 37.6809 30.9045 37.8343 30.7511C37.9878 30.5976 38.1819 30.5209 38.4166 30.5209H40.8541V28.0834C40.8541 27.8486 40.9309 27.6545 41.0843 27.5011C41.2378 27.3476 41.4319 27.2709 41.6666 27.2709C41.9013 27.2709 42.0954 27.3476 42.2489 27.5011C42.4024 27.6545 42.4791 27.8486 42.4791 28.0834V30.5209H44.9166C45.1513 30.5209 45.3454 30.5976 45.4989 30.7511C45.6524 30.9045 45.7291 31.0986 45.7291 31.3334C45.7291 31.5681 45.6524 31.7622 45.4989 31.9156C45.3454 32.0691 45.1513 32.1459 44.9166 32.1459H42.4791V34.5834C42.4791 34.8181 42.4024 35.0122 42.2489 35.1656C42.0954 35.3191 41.9013 35.3959 41.6666 35.3959Z" fill="#FF6961"/>
<path d="M24.7253 48.624V49.98H22.4933V57H20.8133V49.98H18.5813V48.624H24.7253ZM25.519 53.652C25.519 52.98 25.651 52.384 25.915 51.864C26.187 51.344 26.551 50.944 27.007 50.664C27.471 50.384 27.987 50.244 28.555 50.244C29.051 50.244 29.483 50.344 29.851 50.544C30.227 50.744 30.527 50.996 30.751 51.3V50.352H32.443V57H30.751V56.028C30.535 56.34 30.235 56.6 29.851 56.808C29.475 57.008 29.039 57.108 28.543 57.108C27.983 57.108 27.471 56.964 27.007 56.676C26.551 56.388 26.187 55.984 25.915 55.464C25.651 54.936 25.519 54.332 25.519 53.652ZM30.751 53.676C30.751 53.268 30.671 52.92 30.511 52.632C30.351 52.336 30.135 52.112 29.863 51.96C29.591 51.8 29.299 51.72 28.987 51.72C28.675 51.72 28.387 51.796 28.123 51.948C27.859 52.1 27.643 52.324 27.475 52.62C27.315 52.908 27.235 53.252 27.235 53.652C27.235 54.052 27.315 54.404 27.475 54.708C27.643 55.004 27.859 55.232 28.123 55.392C28.395 55.552 28.683 55.632 28.987 55.632C29.299 55.632 29.591 55.556 29.863 55.404C30.135 55.244 30.351 55.02 30.511 54.732C30.671 54.436 30.751 54.084 30.751 53.676ZM36.6279 57.108C36.0839 57.108 35.5959 57.012 35.1639 56.82C34.7319 56.62 34.3879 56.352 34.1319 56.016C33.8839 55.68 33.7479 55.308 33.7239 54.9H35.4159C35.4479 55.156 35.5719 55.368 35.7879 55.536C36.0119 55.704 36.2879 55.788 36.6159 55.788C36.9359 55.788 37.1839 55.724 37.3599 55.596C37.5439 55.468 37.6359 55.304 37.6359 55.104C37.6359 54.888 37.5239 54.728 37.2999 54.624C37.0839 54.512 36.7359 54.392 36.2559 54.264C35.7599 54.144 35.3519 54.02 35.0319 53.892C34.7199 53.764 34.4479 53.568 34.2159 53.304C33.9919 53.04 33.8799 52.684 33.8799 52.236C33.8799 51.868 33.9839 51.532 34.1919 51.228C34.4079 50.924 34.7119 50.684 35.1039 50.508C35.5039 50.332 35.9719 50.244 36.5079 50.244C37.2999 50.244 37.9319 50.444 38.4039 50.844C38.8759 51.236 39.1359 51.768 39.1839 52.44H37.5759C37.5519 52.176 37.4399 51.968 37.2399 51.816C37.0479 51.656 36.7879 51.576 36.4599 51.576C36.1559 51.576 35.9199 51.632 35.7519 51.744C35.5919 51.856 35.5119 52.012 35.5119 52.212C35.5119 52.436 35.6239 52.608 35.8479 52.728C36.0719 52.84 36.4199 52.956 36.8919 53.076C37.3719 53.196 37.7679 53.32 38.0799 53.448C38.3919 53.576 38.6599 53.776 38.8839 54.048C39.1159 54.312 39.2359 54.664 39.2439 55.104C39.2439 55.488 39.1359 55.832 38.9199 56.136C38.7119 56.44 38.4079 56.68 38.0079 56.856C37.6159 57.024 37.1559 57.108 36.6279 57.108ZM44.5589 57L42.3029 54.168V57H40.6229V48.12H42.3029V53.172L44.5349 50.352H46.7189L43.7909 53.688L46.7429 57H44.5589Z" fill="#FF6961"/>
</svg>
