<svg width="25" height="24" viewBox="0 0 25 24" fill="none" xmlns="http://www.w3.org/2000/svg">
<path d="M13.9432 1.67344C13.8508 1.59657 13.7412 1.54306 13.6237 1.51741C13.5062 1.49177 13.3843 1.49474 13.2682 1.52608C13.1522 1.55742 13.0453 1.61621 12.9567 1.69749C12.8681 1.77878 12.8004 1.88017 12.7592 1.99313L10.6967 7.65656L8.43165 5.46188C8.35559 5.3881 8.26475 5.33128 8.16513 5.29516C8.06551 5.25904 7.95936 5.24444 7.85369 5.25232C7.74802 5.26021 7.64521 5.29039 7.55205 5.34089C7.45889 5.3914 7.3775 5.46107 7.31322 5.54531C5.28259 8.20594 4.25134 10.8825 4.25134 13.5C4.25134 15.688 5.12054 17.7865 6.66771 19.3336C8.21489 20.8808 10.3133 21.75 12.5013 21.75C14.6894 21.75 16.7878 20.8808 18.335 19.3336C19.8821 17.7865 20.7513 15.688 20.7513 13.5C20.7513 7.92656 15.9898 3.375 13.9432 1.67344ZM12.5013 20.25C10.7117 20.248 8.99601 19.5362 7.73056 18.2708C6.46512 17.0053 5.75333 15.2896 5.75134 13.5C5.75134 11.4375 6.50978 9.30094 8.00697 7.14L10.4792 9.53813C10.5689 9.62532 10.6791 9.68866 10.7996 9.72237C10.9202 9.75608 11.0472 9.7591 11.1692 9.73114C11.2912 9.70318 11.4043 9.64514 11.4981 9.5623C11.5919 9.47947 11.6635 9.37447 11.7063 9.25688L13.7942 3.53156C15.896 5.445 19.2513 9.17906 19.2513 13.5C19.2494 15.2896 18.5376 17.0053 17.2721 18.2708C16.0067 19.5362 14.2909 20.248 12.5013 20.25Z" fill="#000E50"/>
</svg>
