<svg width="40" height="25" viewBox="0 0 40 25" fill="none" xmlns="http://www.w3.org/2000/svg">
<path d="M37.8667 0H2.13333C0.955126 0 0 0.950563 0 2.12314V22.8769C0 24.0494 0.955126 25 2.13333 25H37.8667C39.0449 25 40 24.0494 40 22.8769V2.12314C40 0.950563 39.0449 0 37.8667 0Z" fill="#2557D6"/>
<path d="M0.00014352 11.7401H1.92143L2.35464 10.7045H3.32451L3.75659 11.7401H7.53687V10.9483L7.8743 11.7434H9.83674L10.1742 10.9365V11.7401H19.5689L19.5645 10.0402H19.7463C19.8736 10.0445 19.9107 10.0562 19.9107 10.2645V11.7401H24.7697V11.3443C25.1616 11.5525 25.7712 11.7401 26.5734 11.7401H28.6175L29.055 10.7045H30.0249L30.4527 11.7401H34.3919V10.7564L34.9885 11.7401H38.1451V5.23755H35.0211V6.0055L34.5836 5.23755H31.378V6.0055L30.9763 5.23755H26.6463C25.9215 5.23755 25.2844 5.33781 24.7697 5.61724V5.23755H21.7816V5.61724C21.4542 5.32924 21.0079 5.23755 20.5117 5.23755H9.59509L8.86262 6.91703L8.11042 5.23755H4.67197V6.0055L4.29424 5.23755H1.36179L0 8.32919V11.7401H0.00014352ZM12.128 10.8021H10.9752L10.9709 7.15065L9.34039 10.8021H8.35307L6.71827 7.14741V10.8021H4.43117L3.99909 9.76219H1.65779L1.22131 10.8021H2.66667e-06L2.01367 6.13983H3.68436L5.59685 10.5541V6.13983H7.43215L8.90377 9.30263L10.2556 6.13983H12.1278V10.8021H12.128ZM3.61478 8.79461L2.84513 6.93597L2.07988 8.79461H3.61478ZM16.7157 10.8021H12.9593V6.13983H16.7157V7.11071H14.0838V7.95108H16.6526V8.90677H14.0838V9.83785H16.7157V10.8021ZM22.0093 7.39547C22.0093 8.13882 21.5087 8.52287 21.217 8.63818C21.463 8.73099 21.6732 8.89496 21.7732 9.0308C21.932 9.26269 21.9594 9.46983 21.9594 9.88623V10.8021H20.8252L20.821 10.2142C20.821 9.93362 20.8481 9.53016 20.6434 9.30587C20.4791 9.1419 20.2287 9.10632 19.8238 9.10632H18.6167V10.8021H17.4923V6.13983H20.0787C20.6534 6.13983 21.0768 6.15488 21.4403 6.36315C21.7961 6.57141 22.0093 6.87544 22.0093 7.39547ZM20.5879 8.08778C20.4334 8.18074 20.2506 8.18383 20.0316 8.18383H18.6656V7.14827H20.0502C20.2462 7.14827 20.4507 7.15699 20.5835 7.23236C20.7294 7.30028 20.8196 7.44485 20.8196 7.64453C20.8196 7.8483 20.7337 8.01227 20.5879 8.08778ZM23.8127 10.8021H22.6654V6.13983H23.8127V10.8021ZM37.1322 10.8021H35.5387L33.4072 7.3028V10.8021H31.1172L30.6796 9.76219H28.3436L27.9191 10.8021H26.6033C26.0567 10.8021 25.3647 10.6823 24.9727 10.2864C24.5775 9.89058 24.3719 9.35438 24.3719 8.50655C24.3719 7.8151 24.4948 7.18299 24.9781 6.68349C25.3417 6.3114 25.911 6.13983 26.6859 6.13983H27.7745V7.13883H26.7087C26.2983 7.13883 26.0666 7.1993 25.8434 7.41502C25.6517 7.61133 25.5202 7.98244 25.5202 8.47112C25.5202 8.97062 25.6203 9.33076 25.8294 9.56602C26.0025 9.75052 26.3171 9.80649 26.6131 9.80649H27.1181L28.7029 6.13997H30.3878L32.2916 10.5498V6.13997H34.0038L35.9804 9.38701V6.13997H37.1322V10.8021ZM30.2971 8.79461L29.5189 6.93597L28.745 8.79461H30.2971Z" fill="white"/>
<path d="M39.9973 18.2465C39.7241 18.6424 39.1919 18.8431 38.4713 18.8431H36.2997V17.8431H38.4625C38.6771 17.8431 38.8272 17.8151 38.9176 17.7276C38.9959 17.6555 39.0505 17.5507 39.0505 17.4235C39.0505 17.2876 38.9959 17.1798 38.9132 17.1151C38.8316 17.0439 38.7128 17.0116 38.517 17.0116C37.4611 16.976 36.1439 17.0439 36.1439 15.5682C36.1439 14.8918 36.5773 14.1798 37.7573 14.1798H39.9971L39.9973 13.252H37.9161C37.288 13.252 36.8318 13.401 36.5087 13.6328V13.252H33.4305C32.9383 13.252 32.3605 13.3729 32.0872 13.6328V13.252H26.5904V13.6328C26.1529 13.32 25.4148 13.252 25.0741 13.252H21.4483V13.6328C21.1022 13.3006 20.3326 13.252 19.8635 13.252H15.8056L14.8771 14.2479L14.0074 13.252H7.9458V19.759H13.8933L14.8501 18.7473L15.7514 19.759L19.4175 19.7622V18.2315H19.7779C20.2643 18.2389 20.838 18.2195 21.3442 18.0027V19.7588H24.368V18.0629H24.5139C24.7 18.0629 24.7183 18.0705 24.7183 18.2548V19.7587H33.9042C34.4874 19.7587 35.097 19.6107 35.4346 19.3423V19.7587H38.3483C38.9546 19.7587 39.5467 19.6744 39.9973 19.4587V18.2465ZM21.7837 15.7436C21.7837 17.0391 20.8085 17.3065 19.8256 17.3065H18.4225V18.8707H16.2368L14.8522 17.3269L13.4132 18.8707H8.95908V14.2073H13.4818L14.8653 15.7359L16.2956 14.2073H19.8887C20.7811 14.2073 21.7837 14.4521 21.7837 15.7436ZM12.8437 17.8898H10.079V16.962H12.5477V16.0105H10.079V15.1627H12.8982L14.1282 16.5217L12.8437 17.8898ZM17.2985 18.4238L15.572 16.5242L17.2985 14.685V18.4238ZM19.8517 16.3503H18.3985V15.1627H19.8648C20.2707 15.1627 20.5525 15.3266 20.5525 15.7345C20.5525 16.1378 20.2838 16.3503 19.8517 16.3503ZM27.4647 14.2073H31.2177V15.1717H28.5845V16.0195H31.1534V16.971H28.5845V17.8989L31.2177 17.9031V18.8707H27.4647V14.2073ZM26.0218 16.7035C26.2721 16.7951 26.4768 16.9592 26.5727 17.095C26.7315 17.3227 26.7545 17.5352 26.759 17.9463V18.8707H25.6301V18.2873C25.6301 18.0067 25.6573 17.5913 25.4483 17.3745C25.284 17.2074 25.0335 17.1675 24.6233 17.1675H23.4216V18.8707H22.2916V14.2073H24.8878C25.4571 14.2073 25.8717 14.2322 26.2408 14.4274C26.5957 14.6399 26.8189 14.931 26.8189 15.463C26.8187 16.2073 26.3178 16.5871 26.0218 16.7035ZM25.3862 16.114C25.2358 16.2025 25.0498 16.21 24.831 16.21H23.4649V15.1627H24.8495C25.0498 15.1627 25.2501 15.1669 25.3862 15.2469C25.5319 15.3224 25.6191 15.4668 25.6191 15.6664C25.6191 15.8659 25.5319 16.0267 25.3862 16.114ZM35.5375 16.411C35.7564 16.6356 35.8738 16.9191 35.8738 17.3991C35.8738 18.4023 35.2413 18.8706 34.1073 18.8706H31.9171V17.8706H34.0985C34.3118 17.8706 34.463 17.8426 34.5578 17.7551C34.6352 17.683 34.6906 17.5782 34.6906 17.451C34.6906 17.3151 34.6306 17.2073 34.5534 17.1426C34.4674 17.0714 34.3488 17.0391 34.153 17.0391C33.1014 17.0035 31.7844 17.0714 31.7844 15.5957C31.7844 14.9193 32.2132 14.2073 33.3921 14.2073H35.6465V15.1998H33.5837C33.3792 15.1998 33.2463 15.2074 33.1332 15.2841C33.01 15.3596 32.9643 15.4717 32.9643 15.6196C32.9643 15.7955 33.0689 15.9152 33.2104 15.967C33.329 16.0079 33.4564 16.0198 33.648 16.0198L34.2533 16.036C34.8637 16.0508 35.2828 16.1554 35.5375 16.411ZM39.9996 15.1627H37.9502C37.7456 15.1627 37.6096 15.1703 37.4951 15.2469C37.3765 15.3224 37.3308 15.4345 37.3308 15.5824C37.3308 15.7584 37.431 15.878 37.5767 15.9298C37.6953 15.9707 37.8227 15.9827 38.01 15.9827L38.6195 15.9988C39.2345 16.0139 39.645 16.1186 39.8953 16.3742C39.9408 16.4097 39.9682 16.4497 39.9996 16.4896V15.1627Z" fill="white"/>
</svg>
