<svg width="54" height="54" viewBox="0 0 54 54" fill="none" xmlns="http://www.w3.org/2000/svg">
<rect x="0.5" y="0.5" width="53" height="53" rx="26.5" stroke="#000E50"/>
<path fill-rule="evenodd" clip-rule="evenodd" d="M34.1001 34.16C34.6901 33.26 34.9101 32.8 35.3601 31.79C32.0401 30.53 31.5101 25.8 34.7901 23.99C33.7901 22.73 32.3801 22 31.0501 22C30.0901 22 29.4301 22.25 28.8401 22.48C28.3401 22.67 27.8901 22.84 27.3301 22.84C26.7301 22.84 26.2001 22.65 25.6401 22.45C25.0301 22.23 24.3901 22 23.5901 22C22.1001 22 20.5101 22.91 19.5001 24.47C18.0801 26.67 18.3301 30.79 20.6201 34.31C21.4401 35.57 22.5401 36.98 23.9701 37C24.5701 37.01 24.9601 36.83 25.3901 36.64C25.8801 36.42 26.4101 36.18 27.3401 36.18C28.2701 36.17 28.7901 36.42 29.2801 36.64C29.7001 36.83 30.0801 37.01 30.6701 37C32.1201 36.98 33.2801 35.42 34.1001 34.16ZM30.8401 17C31.0001 18.1 30.5501 19.19 29.9601 19.95C29.3301 20.77 28.2301 21.41 27.1701 21.37C26.9801 20.31 27.4701 19.22 28.0701 18.49C28.7401 17.69 29.8701 17.07 30.8401 17Z" fill="#000E50"/>
</svg>
