<svg width="25" height="24" viewBox="0 0 25 24" fill="none" xmlns="http://www.w3.org/2000/svg">
<path d="M14.175 17.2249C14.0583 17.1082 13.9958 16.9707 13.9875 16.8124C13.9792 16.6541 14.0333 16.5249 14.15 16.4249L18.05 12.5249H5.375C5.20834 12.5249 5.07084 12.4707 4.9625 12.3624C4.85417 12.2541 4.8 12.1166 4.8 11.9499C4.8 11.7832 4.85417 11.6499 4.9625 11.5499C5.07084 11.4499 5.20834 11.3999 5.375 11.3999H18.05L14.125 7.4749C14.0083 7.35824 13.9542 7.2249 13.9625 7.0749C13.9708 6.9249 14.0333 6.7999 14.15 6.6999C14.2667 6.58324 14.4 6.5249 14.55 6.5249C14.7 6.5249 14.8333 6.58324 14.95 6.6999L19.7 11.4499C19.7833 11.5332 19.8417 11.6166 19.875 11.6999C19.9083 11.7832 19.925 11.8666 19.925 11.9499C19.925 12.0499 19.9083 12.1416 19.875 12.2249C19.8417 12.3082 19.7833 12.3916 19.7 12.4749L14.95 17.2249C14.85 17.3416 14.725 17.3999 14.575 17.3999C14.425 17.3999 14.2917 17.3416 14.175 17.2249V17.2249Z" fill="white"/>
</svg>
