<svg width="24" height="24" viewBox="0 0 24 24" fill="none" xmlns="http://www.w3.org/2000/svg">
<path fill-rule="evenodd" clip-rule="evenodd" d="M10.9587 19.2446L4.75857 12.1688C4.635 12.0277 4.49754 11.9632 4.33373 11.9632C4.16992 11.9632 4.03245 12.0277 3.90889 12.1688C3.80566 12.2866 3.75 12.4362 3.75 12.6415C3.75 12.8468 3.80566 12.9964 3.90889 13.1142L11.3594 21.6171C11.413 21.6783 11.4557 21.7085 11.4861 21.7223C11.5235 21.7394 11.5688 21.75 11.625 21.75C11.6812 21.75 11.7265 21.7394 11.7639 21.7223C11.7943 21.7085 11.837 21.6783 11.8906 21.6171L19.3411 13.1142C19.4459 12.9947 19.5 12.8482 19.5 12.6536C19.5 12.4667 19.4435 12.3098 19.3199 12.1688C19.2096 12.0428 19.0775 11.9745 18.911 11.9626C18.7686 11.9525 18.6321 12.0082 18.4914 12.1688L12.2913 19.2446L12.2913 2.17296C12.2913 1.80129 11.993 1.5 11.625 1.5C11.257 1.5 10.9587 1.80129 10.9587 2.17296V19.2446Z" fill="#000E50"/>
</svg>
