<svg width="84" height="108" viewBox="0 0 84 108" fill="none" xmlns="http://www.w3.org/2000/svg">
<path fill-rule="evenodd" clip-rule="evenodd" d="M7.31522 45.5705C7.92266 45.6914 8.31713 46.2817 8.19631 46.8892L7.67301 49.5201C7.55219 50.1275 6.96182 50.522 6.35439 50.4011C5.74695 50.2803 5.35247 49.69 5.4733 49.0825L5.99659 46.4516C6.11741 45.8442 6.70778 45.4497 7.31522 45.5705Z" fill="#E0F2F2"/>
<path d="M35.7273 54.6764C35.7297 53.8251 35.7825 52.9737 35.873 52.1272C35.897 51.9015 35.9242 51.6759 35.953 51.4503C35.957 51.4167 35.9738 51.2934 35.9514 51.4575C35.9594 51.3999 35.9674 51.3422 35.9754 51.2846C35.9938 51.1566 36.0122 51.0294 36.0314 50.9022C36.1042 50.4253 36.1866 49.95 36.277 49.4763C36.6731 47.4055 37.2212 45.3643 37.8541 43.3536C39.3192 38.7023 41.1859 34.3143 43.3463 29.9583C45.5859 25.4415 48.1096 21.0559 50.9389 16.8824C53.4146 13.2297 56.0431 9.78906 59.2357 6.6853C59.903 6.03638 60.5927 5.40986 61.3105 4.81776C61.4713 4.68573 61.6329 4.55531 61.7961 4.42649C61.8386 4.39288 61.881 4.36007 61.9234 4.32727C61.7945 4.42729 61.8866 4.35527 61.9138 4.33527C62.0146 4.25845 62.1154 4.18244 62.2178 4.10643C62.5451 3.86398 62.8787 3.63034 63.2204 3.4079C63.8357 3.00543 64.4758 2.63816 65.1432 2.3293C65.2144 2.2965 65.2856 2.26529 65.3568 2.23329C65.5664 2.13807 65.2384 2.27649 65.4488 2.19408C65.604 2.13327 65.7585 2.07246 65.9153 2.01725C66.2146 1.91243 66.5194 1.82201 66.8283 1.7508C66.9763 1.71639 67.1243 1.68679 67.274 1.66198C67.3412 1.65078 67.6044 1.62517 67.3252 1.65158C67.398 1.64438 67.47 1.63478 67.5428 1.62757C67.8261 1.60197 68.1109 1.59557 68.3942 1.61157C68.4638 1.61557 68.5326 1.62117 68.6022 1.62757C68.6718 1.63398 68.9159 1.68359 68.6358 1.62918C68.7702 1.65558 68.9055 1.67478 69.0391 1.70599C69.1655 1.73559 69.2903 1.77 69.4144 1.81001C69.4728 1.82921 69.5312 1.84842 69.5888 1.87002C69.6544 1.89402 69.9112 2.01965 69.6656 1.89642C70.7946 2.46133 71.7532 3.14705 72.5133 4.12243C73.2815 5.10821 73.8224 6.24602 74.2152 7.39343C74.9618 9.57382 75.2378 11.6726 75.3418 13.925C75.4219 15.6661 75.245 17.5977 75.021 19.1956C74.1288 25.5647 71.986 31.7779 68.8735 37.3981C68.0485 38.8872 67.1819 40.3914 66.169 41.7613C66.1065 41.8461 66.2842 41.6205 66.1394 41.7973C66.0929 41.8541 66.0473 41.9117 66.0001 41.9677C65.8801 42.1126 65.7569 42.2542 65.632 42.395C65.3552 42.7063 65.0687 43.0095 64.7783 43.308C63.2412 44.8851 61.5889 46.3517 59.9094 47.7744C57.9986 49.3931 56.0983 50.9014 54.0779 52.352C52.4728 53.505 50.8157 54.6588 49.0234 55.5054C48.9394 55.5446 48.8554 55.5822 48.7705 55.6214C48.5569 55.719 48.8842 55.5814 48.6729 55.663C48.5393 55.7142 48.4065 55.767 48.2705 55.8127C48.1344 55.8583 48.0048 55.8967 47.8688 55.9271C47.8096 55.9407 47.7439 55.9447 47.6871 55.9631C47.5895 55.9943 47.9208 55.9415 47.6991 55.9583C47.956 56.2959 48.2136 56.6336 48.4705 56.9713C49.2794 53.2058 52.2064 50.3733 55.1709 48.1337C57.0513 46.7134 59.054 45.4484 61.0808 44.2489C63.6269 42.7431 66.2482 41.35 68.9543 40.1514C71.3379 39.0952 73.9168 38.1286 76.5477 37.715C76.5965 37.707 76.6461 37.7006 76.6949 37.6933C76.5125 37.719 76.7525 37.6861 76.7733 37.6845C76.9157 37.6685 77.0574 37.6533 77.1998 37.6413C77.4606 37.6197 77.7223 37.6061 77.9831 37.6037C78.2184 37.6013 78.4528 37.6077 78.6873 37.6261C78.7993 37.6349 78.9105 37.6461 79.0217 37.6597C78.7977 37.6325 79.1474 37.6829 79.2162 37.6965C79.4178 37.7366 79.617 37.787 79.8123 37.8526C79.8715 37.8726 80.1931 38.0062 79.9707 37.9062C80.0659 37.9494 80.1595 37.9934 80.2516 38.043C80.3436 38.0926 80.4268 38.147 80.514 38.2014C80.5428 38.219 80.5692 38.2407 80.5972 38.2591C80.746 38.3575 80.4612 38.1398 80.5956 38.2567C80.7572 38.3967 80.9045 38.5415 81.0421 38.7047C81.0837 38.7535 81.1237 38.804 81.1637 38.8536C81.0565 38.7191 81.1477 38.8328 81.1733 38.868C81.2389 38.9624 81.3062 39.0544 81.3686 39.1512C81.5022 39.3569 81.623 39.5713 81.7294 39.7921C81.7518 39.8385 81.8751 40.1274 81.7966 39.933C81.8414 40.045 81.8847 40.1578 81.9231 40.2714C82.0007 40.4995 82.0639 40.7331 82.1135 40.9683C82.1343 41.0676 82.1511 41.1668 82.1687 41.266C82.1759 41.3052 82.1999 41.5116 82.1743 41.2948C82.1815 41.3556 82.1887 41.4164 82.1943 41.4772C82.2167 41.7141 82.2271 41.9517 82.2263 42.1894C82.2263 42.4118 82.2151 42.6343 82.1967 42.8551C82.1855 42.9839 82.1719 43.1135 82.1551 43.2416C82.1807 43.0463 82.1255 43.4136 82.1127 43.4848C81.703 45.7692 80.6604 47.6848 79.3194 49.6323C77.8767 51.7279 76.054 53.7035 74.0944 55.4622C72.1869 57.1737 70.1825 58.6628 67.8973 59.919C67.382 60.2023 66.8579 60.4679 66.3234 60.7119C66.1898 60.7728 66.0553 60.832 65.9201 60.8904C65.8945 60.9016 65.7777 60.9496 65.9113 60.8944C65.8449 60.9216 65.7785 60.9488 65.7121 60.976C65.4528 61.08 65.1912 61.1792 64.9279 61.2705C64.455 61.4345 63.9741 61.5753 63.4853 61.6841C63.2676 61.7321 63.0492 61.7713 62.8291 61.8081C62.5923 61.8474 62.9316 61.8025 62.6947 61.8257C62.5627 61.8386 62.4315 61.8522 62.2994 61.8602C61.9106 61.8842 61.5217 61.8762 61.1352 61.8282C60.7055 61.7745 60.3351 62.2346 60.3351 62.6283C60.3351 63.1052 60.7047 63.3748 61.1352 63.4284C63.1836 63.6845 65.2984 62.93 67.1315 62.0938C69.5448 60.9936 71.7596 59.4749 73.8112 57.805C75.9564 56.0591 77.9295 54.0859 79.6274 51.8999C81.2005 49.8748 82.6024 47.644 83.3513 45.1723C83.9778 43.1055 84.0595 40.8387 83.0593 38.8752C82.6168 38.0062 81.9663 37.1701 81.1061 36.686C80.2315 36.1931 79.2082 36.021 78.2152 36.0042C75.6299 35.9618 73.0254 36.8164 70.6418 37.7342C67.7332 38.8536 64.9287 40.241 62.209 41.7573C59.8686 43.0615 57.5722 44.4626 55.3838 46.0093C52.4656 48.072 49.5331 50.5293 47.912 53.7843C47.4751 54.662 47.1358 55.587 46.9294 56.5464C46.8286 57.0161 47.1526 57.6018 47.7007 57.5594C48.4193 57.5034 49.0826 57.2345 49.7307 56.9361C50.5581 56.5544 51.347 56.0903 52.1184 55.607C54.1715 54.322 56.1183 52.8657 58.0219 51.371C59.9822 49.8316 61.8946 48.2257 63.7309 46.5406C65.088 45.2955 66.4714 44.0153 67.5772 42.535C68.631 41.1244 69.5184 39.5521 70.3633 38.0102C71.3011 36.3003 72.1405 34.5408 72.8958 32.7436C74.184 29.6799 75.2026 26.5009 75.9116 23.2539C76.4292 20.8839 76.8005 18.4658 76.9245 16.0414C77.0198 14.1771 76.8821 12.3143 76.5965 10.4708C76.1964 7.88232 75.3979 5.25384 73.7744 3.15905C72.5133 1.53236 70.689 0.232921 68.6022 0.0296837C65.6208 -0.260769 62.7531 1.63318 60.5359 3.3991C57.2313 6.03158 54.4732 9.33698 51.9535 12.7064C48.9146 16.7703 46.2301 21.1015 43.8208 25.5655C41.3796 30.088 39.2112 34.7728 37.4453 39.6009C35.9626 43.6536 34.7215 47.8592 34.2671 52.164C34.179 53.0001 34.127 53.8395 34.1246 54.6796C34.1222 55.7094 35.7225 55.711 35.7249 54.6796L35.7273 54.6764Z" fill="#E0F2F2"/>
<path d="M21.9768 46.6704C22.068 48.8044 22.0272 50.964 21.2479 52.9715C21.2343 53.0075 21.1422 53.2292 21.1983 53.0988C21.1638 53.1788 21.1278 53.258 21.0918 53.3372C21.0102 53.5124 20.923 53.6853 20.8318 53.8557C20.6654 54.1638 20.4829 54.463 20.2901 54.7559C19.8948 55.356 19.4595 55.9273 19.0403 56.5106C16.2461 60.4033 14.9731 65.169 15.4396 69.945C15.8341 73.9842 17.2303 77.9001 19.5884 81.2055C21.4343 83.7924 23.7083 86.0424 26.1824 88.0267C28.9061 90.2119 31.8506 92.1067 34.9184 93.771C38.1062 95.5001 41.4268 96.9868 44.8202 98.2654C48.0288 99.4736 51.3134 100.491 54.6516 101.273C57.6154 101.968 60.6367 102.489 63.6757 102.693C66.0321 102.851 68.467 102.836 70.7754 102.282C72.4349 101.884 74.156 101.124 75.1106 99.6369C75.8307 98.5159 76.1044 97.046 76.25 95.7449C76.4397 94.0542 76.266 92.3291 75.9011 90.6728C75.049 86.8057 73.1214 83.1915 70.9282 79.9277C68.379 76.1342 65.348 72.6623 62.0674 69.4866C58.8068 66.3308 55.2677 63.4335 51.479 60.933C49.7107 59.7656 47.8832 58.655 45.9484 57.7852C43.6648 56.7586 41.2692 56.0049 38.8223 55.48C34.2367 54.4966 29.403 54.1758 24.7549 54.9063C22.809 55.212 20.9518 55.7969 19.1715 56.6394C18.4497 56.9811 17.7456 57.3587 17.0239 57.6996C16.6102 57.8948 16.4446 57.9677 16.0661 58.1093C15.6636 58.2597 15.2532 58.3877 14.8363 58.4893C13.8593 58.7286 12.9231 58.8062 11.8973 58.807C10.7443 58.8078 9.64812 58.7646 8.58553 58.4934C6.86761 58.0557 5.37454 57.0939 4.17111 55.7713C1.69066 53.0444 0.870504 48.9964 2.33397 45.5302C3.18293 43.5194 4.76002 41.6191 6.69318 40.5813C8.88078 39.4067 11.6781 39.1482 14.1033 39.5427C16.4966 39.9316 18.7362 40.9838 20.5485 42.5969C20.943 42.9481 21.7984 42.8873 21.8856 42.244C22.0888 40.7565 21.9536 39.205 21.6287 37.7464C20.9582 34.7386 19.1779 32.1021 16.551 30.465C14.389 29.1176 11.8621 28.5199 9.35047 28.2862C8.91999 28.2462 8.55032 28.6831 8.55032 29.0864C8.55032 29.5529 8.91839 29.8465 9.35047 29.8865C11.4165 30.0794 13.4912 30.5795 15.2492 31.5564C15.6236 31.7645 15.9869 31.9933 16.335 32.243C16.6094 32.4406 16.8367 32.623 17.1615 32.9231C17.4392 33.1791 17.7024 33.4512 17.9489 33.7368C18.0009 33.7976 18.0529 33.8585 18.1033 33.9209C18.1265 33.9497 18.2761 34.1377 18.2305 34.0785C18.1849 34.0193 18.3033 34.1769 18.3289 34.2121C18.3873 34.2921 18.4449 34.3737 18.501 34.4554C18.8826 35.0123 19.2011 35.606 19.4747 36.2221C19.5211 36.3269 19.4211 36.0917 19.4643 36.1973C19.4795 36.2341 19.4947 36.2709 19.5099 36.3077C19.5355 36.3725 19.5612 36.4365 19.586 36.5013C19.6452 36.6558 19.7004 36.8118 19.7524 36.9686C19.8468 37.2527 19.9308 37.5399 20.0036 37.8304C20.0708 38.0952 20.1285 38.3625 20.1781 38.6313C20.2021 38.7633 20.2245 38.8954 20.2453 39.0274C20.2549 39.0914 20.2637 39.1562 20.2733 39.2202C20.2477 39.0506 20.2637 39.141 20.2757 39.2434C20.3277 39.6883 20.3613 40.134 20.3709 40.5821C20.3781 40.9309 20.3733 41.2814 20.3501 41.6295C20.3421 41.7439 20.2757 42.3024 20.3421 41.8183C20.7878 41.7007 21.2335 41.5831 21.6791 41.4654C19.7508 39.7491 17.3928 38.5329 14.8483 38.056C12.2582 37.5703 9.38007 37.708 6.92602 38.7185C2.69724 40.4573 -0.203294 45.0821 0.0111457 49.6453C0.191979 53.4956 2.39559 57.2059 5.78581 59.0839C7.71257 60.1513 9.84176 60.4217 12.019 60.4049C13.9841 60.3897 15.8373 59.9936 17.6216 59.1775C19.2035 58.4533 20.6205 57.6388 22.2464 57.1243C24.162 56.5178 26.1096 56.2617 28.1011 56.1625C32.8724 55.9257 37.7413 56.5738 42.2789 58.0669C46.4581 59.4423 50.2004 61.8332 53.7091 64.4472C57.3585 67.1653 60.7543 70.2467 63.8413 73.5889C66.7963 76.7887 69.5 80.2653 71.5996 84.0916C72.5277 85.7831 73.2975 87.4634 73.8744 89.2926C74.1432 90.1471 74.3641 91.0169 74.5177 91.8994C74.5977 92.3563 74.6233 92.5452 74.6673 93.0181C74.7041 93.4237 74.7257 93.831 74.7281 94.2391C74.7305 94.6471 74.7161 95.0344 74.6825 95.4305C74.6433 95.8842 74.6297 95.9906 74.5393 96.4523C74.4657 96.8307 74.3721 97.2044 74.2584 97.5725C74.2016 97.7557 74.14 97.9381 74.0736 98.1182C74.0424 98.2022 74.0088 98.2854 73.9768 98.3694C73.8864 98.6031 74.0344 98.2686 73.968 98.3918C73.8888 98.5375 73.8208 98.6863 73.7311 98.8271C73.6863 98.8967 73.6327 98.9615 73.5887 99.0319C73.5279 99.1304 73.7319 98.8719 73.6215 98.9887C73.5911 99.0215 73.5639 99.0583 73.5343 99.0919C73.4175 99.2264 73.2911 99.352 73.1574 99.4696C73.095 99.524 73.0286 99.5736 72.967 99.6289C73.1582 99.4584 72.9518 99.6385 72.8654 99.6977C72.5429 99.9201 72.1981 100.096 71.8444 100.262C71.6932 100.333 71.8948 100.243 71.8636 100.255C71.818 100.272 71.7724 100.292 71.7268 100.31C71.6204 100.352 71.5123 100.391 71.4043 100.43C71.1923 100.504 70.9778 100.571 70.761 100.631C70.2913 100.761 69.8144 100.861 69.3335 100.939C69.2143 100.959 69.0943 100.975 68.9743 100.994C68.8542 101.012 69.1463 100.973 68.9247 101C68.8534 101.009 68.783 101.018 68.7118 101.026C68.4374 101.057 68.1621 101.083 67.8869 101.104C66.6634 101.194 65.4336 101.187 64.2086 101.121C63.5165 101.084 62.8251 101.028 62.1362 100.957C61.7817 100.92 61.4273 100.879 61.0736 100.835C60.9896 100.824 60.9056 100.813 60.8224 100.802C60.792 100.798 60.6647 100.781 60.8184 100.802C60.7824 100.797 60.7455 100.792 60.7095 100.787C60.5151 100.759 60.3199 100.731 60.1254 100.703C56.932 100.226 53.7795 99.4784 50.6877 98.5551C47.3487 97.5581 44.0201 96.3274 40.9155 94.9416C37.6781 93.4957 34.5295 91.8378 31.5482 89.9175C28.7452 88.1124 26.236 86.1968 23.878 83.8068C23.3379 83.2587 22.8154 82.693 22.3153 82.108C22.0712 81.8224 21.8328 81.532 21.5999 81.2375C21.5727 81.2031 21.4471 81.0415 21.4799 81.0839C21.5087 81.1215 21.3935 80.9694 21.3631 80.9294C21.2455 80.7726 21.1286 80.615 21.0142 80.4549C20.1853 79.3003 19.4523 78.0745 18.8634 76.7799C18.8298 76.7063 18.797 76.6327 18.765 76.559C18.745 76.5126 18.6642 76.3246 18.7234 76.4654C18.6522 76.2974 18.585 76.1278 18.5194 75.9565C18.2505 75.2564 18.0121 74.5443 17.8048 73.8241C17.408 72.4423 17.1255 71.0252 17.0095 69.5914C16.7926 66.9005 17.1271 64.208 18.0569 61.6707C18.6882 59.9464 19.6244 58.4101 20.7014 56.9323C21.5895 55.7136 22.4177 54.499 22.9154 53.062C23.6187 51.028 23.6707 48.7964 23.5795 46.6688C23.5355 45.643 21.9352 45.6374 21.9792 46.6688L21.9768 46.6704Z" fill="#E0F2F2"/>
<path d="M77.9319 107.857L76.0748 108C75.8211 105.868 74.9906 103.817 73.5839 101.843C72.1765 99.8697 70.3977 98.0942 68.2493 96.5187C64.7543 93.955 61.3537 92.3395 58.0466 91.6714C56.0975 93.6318 54.362 95.0096 52.8417 95.8098C51.323 96.6099 50.162 96.7171 49.3618 96.1298C48.6033 95.5737 48.2504 94.8744 48.3024 94.0343C48.3561 93.1941 48.6993 92.442 49.3354 91.7786C51.1022 89.9359 53.7483 89.2726 57.2721 89.7855C61.2376 85.3511 61.7249 82.0361 58.7332 79.8421C57.5546 78.9779 56.1679 78.3842 54.574 78.0625C52.9817 77.7425 51.3182 77.6985 49.5859 77.9345C48.0336 80.7502 46.0572 83.4107 43.6544 85.9176C42.383 87.2442 41.0099 88.3404 39.5352 89.2046C38.0622 90.0687 36.8187 90.1303 35.8073 89.3894C34.7127 88.5869 34.3999 87.4163 34.8696 85.8776C35.3401 84.3397 36.3002 82.8154 37.7477 81.3039C38.8439 80.1605 40.3322 79.1507 42.2141 78.2714C44.0977 77.392 46.0956 76.7863 48.208 76.4527C49.8547 73.0152 49.8763 70.71 48.2752 69.5362C46.6317 68.3312 44.6386 67.9047 42.2933 68.2551C39.6393 72.1455 36.5643 75.9149 33.066 79.5644C30.7 82.0329 28.69 83.7924 27.0393 84.8406C25.3886 85.8896 24.1204 86.0896 23.2362 85.4407C22.3105 84.7614 22.4353 83.3003 23.6155 81.0583C24.7965 78.8179 26.6048 76.4254 29.0421 73.8826C30.5976 72.2599 32.4587 70.7852 34.6279 69.4578C36.7979 68.1311 38.9495 67.2142 41.0835 66.7085C42.5142 64.6177 46.0708 60.4841 43.836 58.6726C42.1821 57.3316 38.4358 58.1197 36.5811 58.8942C34.7279 59.668 32.6484 60.9202 30.3431 62.6509C28.0379 64.3809 25.8623 66.3148 23.8123 68.4536C20.775 71.6222 18.601 74.1706 17.2911 76.0974C15.9829 78.0241 14.5122 80.5878 12.8815 83.7844L11.0468 83.0042C12.6423 79.8429 14.1297 77.2624 15.5092 75.2612C16.8887 73.2609 19.1515 70.6196 22.2945 67.3398C24.5205 65.0178 26.9257 62.9222 29.5086 61.0498C32.0923 59.1791 34.4863 57.8589 36.6915 57.0915C38.8983 56.3242 43.3591 55.9081 45.2203 57.7796C46.7342 59.3023 46.5709 61.5059 43.5112 66.4172C45.8068 66.342 47.8184 66.9389 49.5451 68.2055C51.6927 69.781 51.9791 72.4399 50.4028 76.1782C54.3604 75.9422 57.5602 76.7207 60.0022 78.5122C62.0666 80.0261 62.9476 81.8008 62.6427 83.8388C62.341 85.8768 61.2456 87.9916 59.3581 90.1848C61.0816 90.632 62.8371 91.3082 64.6247 92.2115C66.4138 93.1141 68.0437 94.1071 69.5176 95.1881C71.8356 96.8876 73.7568 98.8295 75.2834 101.017C76.8093 103.202 77.6919 105.482 77.9295 107.854L77.9319 107.857ZM39.556 68.9769C36.3146 70.1131 33.3157 72.1199 30.56 74.9948C28.6172 77.0208 27.0401 78.9859 25.8239 80.8887C24.6109 82.7906 24.1716 83.8668 24.5085 84.1133C24.8029 84.3293 25.5831 83.9276 26.8465 82.909C28.1107 81.8896 29.6782 80.4038 31.5506 78.4506C34.2006 75.6861 36.8699 72.5287 39.556 68.9769ZM47.1134 78.3794C45.5155 78.7755 44.0185 79.326 42.6246 80.0309C41.2331 80.7358 40.1121 81.5304 39.264 82.4153C38.0638 83.6676 37.2628 84.8222 36.8595 85.8776C36.4587 86.9322 36.5323 87.6611 37.0788 88.062C37.4588 88.3404 38.1758 88.0972 39.2304 87.333C40.2866 86.5689 41.2555 85.7255 42.1381 84.8046C44.0817 82.7778 45.7412 80.6358 47.1134 78.3794ZM55.7878 91.3322C53.5922 91.2281 51.9463 91.7466 50.8509 92.8892C50.074 93.6998 50.0012 94.3375 50.6333 94.8008C50.8861 94.9864 51.4798 94.7784 52.4144 94.1775C53.3506 93.5766 54.4748 92.6284 55.7878 91.3322Z" fill="url(#paint0_linear_842_8575)"/>
<defs>
<linearGradient id="paint0_linear_842_8575" x1="11.416" y1="78.428" x2="79.8525" y2="83.9223" gradientUnits="userSpaceOnUse">
<stop stop-color="#6FF6D8"/>
<stop offset="1" stop-color="#C3B7FD"/>
</linearGradient>
</defs>
</svg>
