<svg width="24" height="25" viewBox="0 0 24 25" fill="none" xmlns="http://www.w3.org/2000/svg">
<path d="M19.6172 5H15.9844V4.25C15.9844 3.65326 15.7547 3.08097 15.346 2.65901C14.9372 2.23705 14.3828 2 13.8047 2H9.44531C8.86722 2 8.31281 2.23705 7.90404 2.65901C7.49527 3.08097 7.26562 3.65326 7.26562 4.25V5H3.63281C3.44012 5 3.25531 5.07902 3.11906 5.21967C2.9828 5.36032 2.90625 5.55109 2.90625 5.75C2.90625 5.94891 2.9828 6.13968 3.11906 6.28033C3.25531 6.42098 3.44012 6.5 3.63281 6.5H4.35938V20C4.35938 20.3978 4.51247 20.7794 4.78499 21.0607C5.0575 21.342 5.42711 21.5 5.8125 21.5H17.4375C17.8229 21.5 18.1925 21.342 18.465 21.0607C18.7375 20.7794 18.8906 20.3978 18.8906 20V6.5H19.6172C19.8099 6.5 19.9947 6.42098 20.1309 6.28033C20.2672 6.13968 20.3438 5.94891 20.3438 5.75C20.3438 5.55109 20.2672 5.36032 20.1309 5.21967C19.9947 5.07902 19.8099 5 19.6172 5ZM8.71875 4.25C8.71875 4.05109 8.7953 3.86032 8.93156 3.71967C9.06781 3.57902 9.25262 3.5 9.44531 3.5H13.8047C13.9974 3.5 14.1822 3.57902 14.3184 3.71967C14.4547 3.86032 14.5312 4.05109 14.5312 4.25V5H8.71875V4.25ZM17.4375 20H5.8125V6.5H17.4375V20ZM10.1719 10.25V16.25C10.1719 16.4489 10.0953 16.6397 9.95907 16.7803C9.82281 16.921 9.63801 17 9.44531 17C9.25262 17 9.06781 16.921 8.93156 16.7803C8.7953 16.6397 8.71875 16.4489 8.71875 16.25V10.25C8.71875 10.0511 8.7953 9.86032 8.93156 9.71967C9.06781 9.57902 9.25262 9.5 9.44531 9.5C9.63801 9.5 9.82281 9.57902 9.95907 9.71967C10.0953 9.86032 10.1719 10.0511 10.1719 10.25ZM14.5312 10.25V16.25C14.5312 16.4489 14.4547 16.6397 14.3184 16.7803C14.1822 16.921 13.9974 17 13.8047 17C13.612 17 13.4272 16.921 13.2909 16.7803C13.1547 16.6397 13.0781 16.4489 13.0781 16.25V10.25C13.0781 10.0511 13.1547 9.86032 13.2909 9.71967C13.4272 9.57902 13.612 9.5 13.8047 9.5C13.9974 9.5 14.1822 9.57902 14.3184 9.71967C14.4547 9.86032 14.5312 10.0511 14.5312 10.25Z" fill="#000E50"/>
</svg>
