<svg width="20" height="20" viewBox="0 0 20 20" fill="none" xmlns="http://www.w3.org/2000/svg">
<g id="Search Bar/view-month-plan">
<g id="Vector">
<path d="M2.5 9.45C2.08333 9.45 1.72917 9.30417 1.4375 9.0125C1.14583 8.72083 1 8.36667 1 7.95V3.5C1 3.08333 1.14583 2.72917 1.4375 2.4375C1.72917 2.14583 2.08333 2 2.5 2H17.5C17.9167 2 18.2708 2.14583 18.5625 2.4375C18.8542 2.72917 19 3.08333 19 3.5V7.95C19 8.36667 18.8542 8.72083 18.5625 9.0125C18.2708 9.30417 17.9167 9.45 17.5 9.45H2.5ZM2.5 7.95H17.5V3.5H2.5V7.95Z" fill="#000E50"/>
<path d="M5.1444 13.4325C5.28814 13.5763 5.46625 13.6482 5.67875 13.6482H17.8134C18.0259 13.6482 18.204 13.5764 18.3478 13.4328C18.4915 13.2892 18.5634 13.1111 18.5634 12.8985C18.5634 12.6859 18.4915 12.5077 18.3478 12.3639C18.204 12.2201 18.0259 12.1482 17.8134 12.1482H5.67875C5.46625 12.1482 5.28814 12.22 5.1444 12.3636C5.00065 12.5072 4.92878 12.6853 4.92878 12.8979C4.92878 13.1105 5.00065 13.2887 5.1444 13.4325Z" fill="#000E50"/>
<path d="M5.1444 17.4325C5.28814 17.5763 5.46625 17.6482 5.67875 17.6482H17.8134C18.0259 17.6482 18.204 17.5764 18.3478 17.4328C18.4915 17.2892 18.5634 17.1111 18.5634 16.8985C18.5634 16.6859 18.4915 16.5077 18.3478 16.3639C18.204 16.2201 18.0259 16.1482 17.8134 16.1482H5.67875C5.46625 16.1482 5.28814 16.22 5.1444 16.3636C5.00065 16.5072 4.92878 16.6853 4.92878 16.8979C4.92878 17.1105 5.00065 17.2887 5.1444 17.4325Z" fill="#000E50"/>
<path d="M1.30283 13.488C1.46243 13.6461 1.65904 13.7251 1.89268 13.7251C2.12629 13.7251 2.32212 13.6453 2.48015 13.4857C2.6382 13.3261 2.71723 13.1295 2.71723 12.8958C2.71723 12.6622 2.63742 12.4664 2.4778 12.3083C2.31819 12.1503 2.12157 12.0713 1.88795 12.0713C1.65432 12.0713 1.45849 12.1511 1.30045 12.3107C1.14242 12.4703 1.0634 12.6669 1.0634 12.9005C1.0634 13.1342 1.14321 13.33 1.30283 13.488Z" fill="#000E50"/>
<path d="M1.30283 17.488C1.46243 17.6461 1.65904 17.7251 1.89268 17.7251C2.12629 17.7251 2.32212 17.6453 2.48015 17.4857C2.6382 17.3261 2.71723 17.1295 2.71723 16.8958C2.71723 16.6622 2.63742 16.4664 2.4778 16.3083C2.31819 16.1503 2.12157 16.0713 1.88795 16.0713C1.65432 16.0713 1.45849 16.1511 1.30045 16.3107C1.14242 16.4703 1.0634 16.6669 1.0634 16.9005C1.0634 17.1342 1.14321 17.33 1.30283 17.488Z" fill="#000E50"/>
</g>
</g>
</svg>
