<svg width="25" height="24" viewBox="0 0 25 24" fill="none" xmlns="http://www.w3.org/2000/svg">
<path d="M22.3504 12.6562C22.1233 11.8079 21.7007 11.0245 21.1164 10.3688C20.5321 9.71308 19.8024 9.2033 18.9858 8.88026C18.1691 8.55722 17.2881 8.42989 16.4134 8.50847C15.5387 8.58706 14.6945 8.86937 13.9485 9.33281L15.4851 3.19781C15.5232 3.04538 15.5125 2.88484 15.4545 2.73883C15.3964 2.59282 15.294 2.46872 15.1616 2.38406C14.5238 1.98126 13.8114 1.7109 13.0668 1.58906C12.3223 1.46722 11.5609 1.49638 10.8279 1.67482C10.0949 1.85326 9.40528 2.17733 8.80008 2.62774C8.19487 3.07815 7.68645 3.6457 7.30507 4.29661C6.92369 4.94753 6.67715 5.66851 6.58011 6.41666C6.48307 7.16481 6.53751 7.92483 6.7402 8.65151C6.94289 9.37819 7.28969 10.0567 7.75996 10.6466C8.23023 11.2365 8.81435 11.7258 9.47758 12.0853L3.39602 13.8225C3.24493 13.8655 3.11117 13.9549 3.01361 14.078C2.91605 14.2012 2.85961 14.3518 2.85227 14.5087C2.79455 15.7893 3.17592 17.0511 3.93325 18.0853C4.69058 19.1195 5.77842 19.8641 7.01664 20.1956C7.49422 20.3238 7.98652 20.3891 8.48102 20.3897C9.23454 20.3877 9.98 20.2345 10.6732 19.9392C11.3665 19.6438 11.9934 19.2124 12.5169 18.6704C13.0404 18.1284 13.4497 17.4868 13.7208 16.7837C13.9918 16.0807 14.119 15.3303 14.0948 14.5772L18.6398 18.9759C18.7528 19.0853 18.8973 19.1563 19.053 19.1791C19.2086 19.2018 19.3674 19.175 19.507 19.1025C20.6442 18.5125 21.5459 17.5519 22.0629 16.3797C22.58 15.2075 22.6814 13.8939 22.3504 12.6562ZM11.0066 12C11.0066 11.7033 11.0946 11.4133 11.2594 11.1666C11.4243 10.92 11.6585 10.7277 11.9326 10.6142C12.2067 10.5006 12.5083 10.4709 12.7993 10.5288C13.0902 10.5867 13.3575 10.7296 13.5673 10.9393C13.7771 11.1491 13.9199 11.4164 13.9778 11.7074C14.0357 11.9983 14.006 12.2999 13.8925 12.574C13.7789 12.8481 13.5867 13.0824 13.34 13.2472C13.0933 13.412 12.8033 13.5 12.5066 13.5C12.1088 13.5 11.7273 13.342 11.446 13.0607C11.1647 12.7794 11.0066 12.3978 11.0066 12ZM8.00664 7.12499C8.0064 6.42993 8.18181 5.74607 8.51656 5.13692C8.85132 4.52778 9.33457 4.0131 9.92145 3.64068C10.5083 3.26825 11.1798 3.05017 11.8735 3.00667C12.5672 2.96317 13.2607 3.09568 13.8895 3.39187L12.4851 8.99999C11.9477 9.00403 11.4213 9.15232 10.9608 9.42938C10.5004 9.70644 10.1228 10.1021 9.86758 10.575C9.29468 10.2003 8.8244 9.68855 8.49943 9.08608C8.17445 8.48361 8.00507 7.80952 8.00664 7.12499ZM10.5379 18.3347C9.93608 18.6824 9.25617 18.8724 8.56128 18.8871C7.86639 18.9018 7.17905 18.7407 6.5631 18.4186C5.94714 18.0966 5.42254 17.6242 5.038 17.0452C4.65346 16.4663 4.42145 15.7995 4.36352 15.1069L9.92383 13.5187C10.1882 13.9691 10.5655 14.3426 11.0185 14.6024C11.4715 14.8622 11.9844 14.9992 12.5066 15H12.592C12.5542 15.6829 12.3466 16.3456 11.9879 16.9279C11.6292 17.5102 11.1308 17.9938 10.5379 18.3347ZM20.4913 16.1784C20.1879 16.7048 19.7717 17.1575 19.2726 17.5041L15.1176 13.4831C15.3835 13.0161 15.5186 12.4861 15.5089 11.9488C15.4992 11.4115 15.3449 10.8868 15.0623 10.4297C15.8556 10.0292 16.7569 9.89563 17.6323 10.0488C18.5076 10.202 19.3101 10.6338 19.9202 11.2798C20.5304 11.9259 20.9156 12.7517 21.0185 13.6344C21.1214 14.517 20.9365 15.4093 20.4913 16.1784Z" fill="#000E50"/>
</svg>
