<svg width="34" height="36" viewBox="0 0 34 36" fill="none" xmlns="http://www.w3.org/2000/svg">
<path d="M6.94167 29.9219C6.70556 29.9219 6.51076 29.8429 6.35729 29.6849C6.20382 29.5269 6.12708 29.3264 6.12708 29.0833V27.5885H5.41875C4.49792 27.5885 3.71875 27.2604 3.08125 26.6042C2.44375 25.9479 2.125 25.1458 2.125 24.1979V15.7396C2.125 14.6458 2.44965 13.8377 3.09896 13.3151C3.74826 12.7925 4.4625 12.5312 5.24167 12.5312V9.72396C5.24167 8.77604 5.53681 8.00434 6.12708 7.40885C6.71736 6.81337 7.46111 6.51562 8.35833 6.51562H25.6417C26.5625 6.51562 27.3122 6.81337 27.8906 7.40885C28.4691 8.00434 28.7583 8.77604 28.7583 9.72396V12.5312C29.5847 12.5312 30.3108 12.7986 30.9365 13.3333C31.5622 13.8681 31.875 14.6701 31.875 15.7396V24.1979C31.875 25.1458 31.5563 25.9479 30.9188 26.6042C30.2813 27.2604 29.5021 27.5885 28.5812 27.5885H27.8729V29.0833C27.8729 29.3264 27.7962 29.5269 27.6427 29.6849C27.4892 29.8429 27.3062 29.9219 27.0937 29.9219C26.8812 29.9219 26.6924 29.8429 26.5271 29.6849C26.3618 29.5269 26.2792 29.3264 26.2792 29.0833V27.5885H7.72083V29.0833C7.72083 29.3264 7.6441 29.5269 7.49062 29.6849C7.33715 29.8429 7.15417 29.9219 6.94167 29.9219ZM5.41875 25.9115H28.5812C29.0535 25.9115 29.4549 25.7413 29.7854 25.401C30.116 25.0608 30.2812 24.6597 30.2812 24.1979V15.7396C30.2812 15.2778 30.1396 14.901 29.8563 14.6094C29.5729 14.3177 29.2069 14.1719 28.7583 14.1719C28.3097 14.1719 27.9437 14.3177 27.6604 14.6094C27.3771 14.901 27.2354 15.2778 27.2354 15.7396V21.6458H6.76458V15.7396C6.76458 15.2778 6.62292 14.901 6.33958 14.6094C6.05625 14.3177 5.69028 14.1719 5.24167 14.1719C4.79306 14.1719 4.42708 14.3177 4.14375 14.6094C3.86042 14.901 3.71875 15.2778 3.71875 15.7396V24.1979C3.71875 24.6597 3.88403 25.0608 4.21458 25.401C4.54514 25.7413 4.94653 25.9115 5.41875 25.9115ZM8.35833 19.9687H25.6417V15.7396C25.6417 15.0833 25.7951 14.5243 26.1021 14.0625C26.409 13.6007 26.7514 13.2483 27.1292 13.0052V9.72396C27.1292 9.26215 26.9875 8.88542 26.7042 8.59375C26.4208 8.30208 26.0667 8.15625 25.6417 8.15625H8.35833C7.93333 8.15625 7.57917 8.30208 7.29583 8.59375C7.0125 8.88542 6.87083 9.26215 6.87083 9.72396V13.0052C7.24861 13.2483 7.59097 13.6007 7.89792 14.0625C8.20486 14.5243 8.35833 15.0833 8.35833 15.7396V19.9687Z" fill="#000E50"/>
</svg>
