<svg width="24" height="24" viewBox="0 0 24 24" fill="none" xmlns="http://www.w3.org/2000/svg">
<path d="M2.74994 20C2.39994 20 2.16661 19.8333 2.04994 19.5C1.93328 19.1667 2.01661 18.8833 2.29994 18.65L11.2499 11.625V10.25C11.2499 10.0333 11.3208 9.85417 11.4624 9.7125C11.6041 9.57083 11.7749 9.5 11.9749 9.5C12.5416 9.51667 13.0208 9.32917 13.4124 8.9375C13.8041 8.54583 13.9999 8.06667 13.9999 7.5C13.9999 6.95 13.8083 6.47917 13.4249 6.0875C13.0416 5.69583 12.5749 5.5 12.0249 5.5C11.6749 5.5 11.3499 5.6 11.0499 5.8C10.7499 6 10.5333 6.26667 10.3999 6.6C10.3333 6.73333 10.2416 6.83333 10.1249 6.9C10.0083 6.96667 9.87494 7 9.72494 7C9.44161 7 9.22911 6.88333 9.08744 6.65C8.94578 6.41667 8.93328 6.175 9.04994 5.925C9.31661 5.34167 9.71661 4.875 10.2499 4.525C10.7833 4.175 11.3666 4 11.9999 4C12.9666 4 13.7916 4.33333 14.4749 5C15.1583 5.66667 15.4999 6.48333 15.4999 7.45C15.4999 8.26667 15.2416 8.99167 14.7249 9.625C14.2083 10.2583 13.5499 10.6917 12.7499 10.925V11.625L21.6999 18.65C21.9833 18.8833 22.0666 19.1667 21.9499 19.5C21.8333 19.8333 21.5999 20 21.2499 20H2.74994ZM4.99994 18.5H18.9999L11.9999 12.925L4.99994 18.5Z" fill="#000E50"/>
</svg>
