<svg width="24" height="24" viewBox="0 0 24 24" fill="none" xmlns="http://www.w3.org/2000/svg">
<path d="M9.47495 17.25C9.37495 17.25 9.28745 17.2334 9.21245 17.2C9.13745 17.1667 9.05829 17.1084 8.97495 17.025L4.62495 12.7C4.50828 12.5834 4.44995 12.4459 4.44995 12.2875C4.44995 12.1292 4.50828 11.9917 4.62495 11.875C4.74162 11.7584 4.87495 11.7 5.02495 11.7C5.17495 11.7 5.30828 11.7584 5.42495 11.875L9.47495 15.925L18.55 6.82505C18.6666 6.72505 18.8041 6.67505 18.9625 6.67505C19.1208 6.67505 19.2583 6.72505 19.375 6.82505C19.4916 6.95838 19.55 7.10005 19.55 7.25005C19.55 7.40005 19.4916 7.53338 19.375 7.65005L9.97495 17.025C9.90829 17.1084 9.83328 17.1667 9.74995 17.2C9.66662 17.2334 9.57495 17.25 9.47495 17.25Z"/>
</svg>
