<svg width="32" height="32" viewBox="0 0 32 32" fill="none" xmlns="http://www.w3.org/2000/svg">
<path d="M16 17.4L8.99999 24.4C8.79999 24.6 8.56665 24.7 8.29999 24.7C8.03332 24.7 7.79999 24.6 7.59999 24.4C7.39999 24.2 7.29999 23.9667 7.29999 23.7C7.29999 23.4334 7.39999 23.2 7.59999 23L14.6 16L7.59999 9.00005C7.39999 8.80005 7.29999 8.56672 7.29999 8.30005C7.29999 8.03338 7.39999 7.80005 7.59999 7.60005C7.79999 7.40005 8.03332 7.30005 8.29999 7.30005C8.56665 7.30005 8.79999 7.40005 8.99999 7.60005L16 14.6L23 7.60005C23.2 7.40005 23.4333 7.30005 23.7 7.30005C23.9667 7.30005 24.2 7.40005 24.4 7.60005C24.6 7.80005 24.7 8.03338 24.7 8.30005C24.7 8.56672 24.6 8.80005 24.4 9.00005L17.4 16L24.4 23C24.6 23.2 24.7 23.4334 24.7 23.7C24.7 23.9667 24.6 24.2 24.4 24.4C24.2 24.6 23.9667 24.7 23.7 24.7C23.4333 24.7 23.2 24.6 23 24.4L16 17.4Z"/>
</svg>
