<svg width="35" height="35" viewBox="0 0 35 35" fill="none" xmlns="http://www.w3.org/2000/svg">
<path d="M14.8018 5.80961C16.0685 4.73013 17.9316 4.73012 19.1983 5.80962L20.7211 7.10737C20.902 7.26156 21.1269 7.35473 21.3639 7.37364L23.3584 7.5328C25.0174 7.66518 26.3349 8.98261 26.4673 10.6416L26.6264 12.6361C26.6453 12.873 26.7384 13.098 26.8926 13.2789L28.1904 14.8018C29.2699 16.0684 29.2699 17.9315 28.1904 19.1983L26.8926 20.721C26.7385 20.902 26.6452 21.127 26.6263 21.364L26.4673 23.3584C26.3349 25.0175 25.0174 26.3348 23.3584 26.4671L21.3639 26.6263C21.1269 26.6453 20.902 26.7385 20.7211 26.8927L19.1983 28.1904C17.9316 29.2699 16.0685 29.2698 14.8017 28.1904L13.2789 26.8927C13.098 26.7385 12.873 26.6453 12.6361 26.6264L10.6416 26.4671C8.98262 26.3347 7.66523 25.0174 7.53284 23.3584L7.37365 21.364C7.35474 21.127 7.26155 20.9021 7.10738 20.7211L5.80962 19.1982C4.73014 17.9316 4.73012 16.0686 5.8096 14.8018L7.10736 13.279C7.26155 13.098 7.35476 12.873 7.37366 12.636L7.53283 10.6416C7.66521 8.98258 8.98259 7.6652 10.6416 7.53281L12.6361 7.37365C12.873 7.35474 13.098 7.26156 13.2789 7.10737L14.8018 5.80961ZM17.7327 7.52927C17.3106 7.16946 16.6895 7.16944 16.2673 7.52927L14.7444 8.82704C14.2016 9.28962 13.5267 9.56916 12.8158 9.62589L10.8213 9.78506C10.2683 9.8292 9.8292 10.2683 9.78507 10.8213L9.6259 12.8158C9.56916 13.5267 9.28962 14.2016 8.82705 14.7444L7.52929 16.2673C7.16947 16.6894 7.16946 17.3106 7.52929 17.7327L8.82705 19.2556C9.28963 19.7984 9.56916 20.4734 9.62593 21.1842L9.78508 23.1787C9.8292 23.7317 10.2683 24.1709 10.8213 24.215L12.8158 24.3741C13.5267 24.4308 14.2016 24.7104 14.7444 25.1731L16.2673 26.4707C16.6896 26.8306 17.3106 26.8306 17.7327 26.4707L19.2557 25.1729C19.7984 24.7104 20.4733 24.4308 21.1842 24.3741L23.1787 24.215C23.7317 24.1708 24.1709 23.7317 24.215 23.1787L24.3741 21.1842C24.4309 20.4733 24.7103 19.7984 25.1731 19.2557L26.4708 17.7327C26.8307 17.3106 26.8306 16.6896 26.4708 16.2673L25.173 14.7444C24.7103 14.2016 24.4309 13.5267 24.3741 12.8158L24.215 10.8213C24.1709 10.2683 23.7317 9.8292 23.1787 9.78506L21.1842 9.62591C20.4734 9.56918 19.7984 9.2896 19.2556 8.82702L17.7327 7.52927ZM20.195 12.2072L21.7927 13.8049L13.8045 21.7931L12.2068 20.1954L20.195 12.2072ZM15.0027 15.003C14.3409 15.6648 13.268 15.6648 12.6062 15.003C11.9445 14.3414 11.9445 13.2684 12.6062 12.6066C13.268 11.9448 14.3409 11.9448 15.0027 12.6066C15.6645 13.2684 15.6645 14.3414 15.0027 15.003ZM18.9968 21.3936C19.6585 22.0554 20.7314 22.0554 21.3932 21.3936C22.055 20.7319 22.055 19.659 21.3932 18.9972C20.7314 18.3354 19.6585 18.3354 18.9968 18.9972C18.335 19.659 18.335 20.7319 18.9968 21.3936Z" fill="#000E50" stroke="white" stroke-width="0.7"/>
</svg>
