<svg width="25" height="24" viewBox="0 0 25 24" fill="none" xmlns="http://www.w3.org/2000/svg">
<path d="M6.50537 5H10.5054" stroke="#000E50" stroke-width="1.5" stroke-linecap="round"/>
<path d="M3.50537 8H21.5054" stroke="#000E50" stroke-width="1.5"/>
<path d="M2.50537 22H22.5054" stroke="#000E50" stroke-width="1.5" stroke-linecap="round"/>
<path d="M21.5054 22V4C21.5054 2.89543 20.61 2 19.5054 2H5.50537C4.4008 2 3.50537 2.89543 3.50537 4V22" stroke="#000E50" stroke-width="1.5" stroke-linejoin="round"/>
<path d="M9.0768 19C9.0768 19 8.50537 18.1429 8.50537 16.7143C8.50537 14.4286 9.36251 13.8571 9.36251 13.8571C9.93394 15 10.5054 15 10.5054 15C10.5054 12.1429 12.5054 11 12.5054 11C12.5054 11 14.5054 12.1429 14.5054 15C14.5054 15 15.0768 15 15.6482 13.8571C15.6482 13.8571 16.5054 14.4286 16.5054 16.7143C16.5054 18.1429 15.9339 19 15.9339 19M13.9338 19C13.9338 17.2857 12.5052 16.1429 12.5052 16.1429C12.5052 16.1429 11.0767 17.2857 11.0767 19" stroke="#000E50" stroke-width="1.25" stroke-linecap="round" stroke-linejoin="round"/>
</svg>
