<svg width="25" height="24" viewBox="0 0 25 24" fill="none" xmlns="http://www.w3.org/2000/svg">
<path d="M6.50403 17V20M18.504 17V20" stroke="#000728" stroke-width="1.5" stroke-linecap="round" stroke-linejoin="round"/>
<path d="M4.50403 9V6C4.50403 4.89543 5.39946 4 6.50403 4H18.504C19.6086 4 20.504 4.89543 20.504 6V9" stroke="#000728" stroke-width="1.5" stroke-linecap="round" stroke-linejoin="round"/>
<path d="M4.50403 9C3.39946 9 2.50403 9.89543 2.50403 11C2.50403 11.7403 2.90623 12.3866 3.50403 12.7324V15C3.50403 16.1046 4.39946 17 5.50403 17H19.504C20.6086 17 21.504 16.1046 21.504 15V12.7324C22.1018 12.3866 22.504 11.7403 22.504 11C22.504 9.89543 21.6086 9 20.504 9C19.3994 9 18.504 9.89543 18.504 11V13.5C18.504 13.7761 18.2801 14 18.004 14H7.00403C6.72789 14 6.50403 13.7761 6.50403 13.5V11C6.50403 9.89543 5.6086 9 4.50403 9Z" stroke="#000728" stroke-width="1.5" stroke-linecap="round" stroke-linejoin="round"/>
<path d="M12.504 14V4" stroke="#000728" stroke-width="1.5" stroke-linecap="round" stroke-linejoin="round"/>
</svg>
