<svg width="24" height="24" viewBox="0 0 24 24" fill="none" xmlns="http://www.w3.org/2000/svg">
<path d="M21.3333 7.49998C21.7111 7.49998 22.0278 7.3722 22.2833 7.11665C22.5389 6.86109 22.6667 6.54442 22.6667 6.16665C22.6667 5.78887 22.5389 5.4722 22.2833 5.21665C22.0278 4.96109 21.7111 4.83331 21.3333 4.83331C20.9556 4.83331 20.6389 4.96109 20.3833 5.21665C20.1278 5.4722 20 5.78887 20 6.16665C20 6.54442 20.1278 6.86109 20.3833 7.11665C20.6389 7.3722 20.9556 7.49998 21.3333 7.49998ZM21.3315 8.83331C20.5755 8.83331 19.9423 8.57833 19.432 8.06838C18.9218 7.55842 18.6667 6.92652 18.6667 6.17268C18.6667 5.43361 18.9216 4.80339 19.4316 4.28201C19.9416 3.76066 20.5735 3.49998 21.3273 3.49998C22.0664 3.49998 22.6966 3.75941 23.218 4.27828C23.7393 4.79715 24 5.4272 24 6.16845C24 6.92451 23.7406 7.55767 23.2217 8.06791C22.7028 8.57818 22.0728 8.83331 21.3315 8.83331ZM12 6.16665C12.5556 6.16665 13.0278 5.97776 13.4167 5.59998C13.8056 5.2222 14 4.74442 14 4.16665C14 3.61109 13.8056 3.13887 13.4167 2.74998C13.0278 2.36109 12.5556 2.16665 12 2.16665C11.4222 2.16665 10.9444 2.36109 10.5667 2.74998C10.1889 3.13887 10 3.61109 10 4.16665C10 4.74442 10.1889 5.2222 10.5667 5.59998C10.9444 5.97776 11.4222 6.16665 12 6.16665ZM12.0015 7.49998C11.0655 7.49998 10.2756 7.17935 9.63203 6.53808C8.98846 5.89684 8.66667 5.10911 8.66667 4.17491C8.66667 3.25658 8.98729 2.47006 9.62853 1.81535C10.2698 1.16066 11.0575 0.833313 11.9917 0.833313C12.9101 0.833313 13.6966 1.15856 14.3513 1.80905C15.006 2.45953 15.3333 3.24488 15.3333 4.16508C15.3333 5.10117 15.0081 5.891 14.3576 6.53458C13.7071 7.17818 12.9218 7.49998 12.0015 7.49998ZM5.94873 13.3333C5.94873 14.1367 6.32138 15.0171 7.06667 15.9743C7.81198 16.9316 9.29403 18.4196 11.5128 20.4384L12 20.8743L12.5385 20.3615C14.6274 18.4726 16.0684 17.0288 16.8615 16.03C17.6547 15.0312 18.0513 14.1323 18.0513 13.3333C18.0513 12.622 17.8156 12.019 17.3442 11.5242C16.8728 11.0294 16.2914 10.782 15.6 10.782C15.1846 10.782 14.7914 10.8743 14.4205 11.0589C14.0496 11.2436 13.7325 11.4923 13.4692 11.8051L12.1 13.4487H11.8923L10.4974 11.8051C10.2342 11.4923 9.92094 11.2436 9.5577 11.0589C9.19446 10.8743 8.80856 10.782 8.4 10.782C7.67718 10.782 7.08793 11.0294 6.63227 11.5242C6.17658 12.019 5.94873 12.622 5.94873 13.3333ZM4.61537 13.3333C4.61537 12.3265 4.98546 11.4273 5.72563 10.6359C6.46581 9.84441 7.35727 9.44868 8.4 9.44868C9.05471 9.44868 9.66455 9.60423 10.2295 9.91535C10.7945 10.2265 11.2735 10.6316 11.6667 11.1307L12 11.5153L12.3333 11.1051C12.7436 10.623 13.2256 10.2265 13.7795 9.91535C14.3333 9.60423 14.9402 9.44868 15.6 9.44868C16.6256 9.44868 17.5128 9.84674 18.2615 10.6428C19.0103 11.439 19.3846 12.3358 19.3846 13.3333C19.3846 14.3743 18.9782 15.4372 18.1654 16.5218C17.3526 17.6064 15.7692 19.2231 13.4154 21.3718L12 22.6795L10.6359 21.4487C8.20341 19.2094 6.59187 17.5615 5.80127 16.5051C5.01067 15.4487 4.61537 14.3914 4.61537 13.3333ZM2.66667 7.49998C3.04444 7.49998 3.36111 7.3722 3.61667 7.11665C3.87222 6.86109 4 6.54442 4 6.16665C4 5.78887 3.87222 5.4722 3.61667 5.21665C3.36111 4.96109 3.04444 4.83331 2.66667 4.83331C2.28889 4.83331 1.97222 4.96109 1.71667 5.21665C1.46111 5.4722 1.33333 5.78887 1.33333 6.16665C1.33333 6.54442 1.46111 6.86109 1.71667 7.11665C1.97222 7.3722 2.28889 7.49998 2.66667 7.49998ZM12.1 23.5V22.1666H22.6667V13.6538C22.6667 13.4316 22.5855 13.2393 22.4231 13.0769C22.2607 12.9145 22.0684 12.8333 21.8462 12.8333H18.8359V11.5H21.8462C22.4385 11.5 22.9455 11.7109 23.3673 12.1327C23.7891 12.5545 24 13.0615 24 13.6538V22.4214C24 22.7319 23.8968 22.9893 23.6904 23.1936C23.484 23.3978 23.2282 23.5 22.9231 23.5H12.1ZM1.33333 22.1666H12.1V23.5H1.0769C0.771789 23.5 0.516022 23.3968 0.3096 23.1904C0.1032 22.984 0 22.7282 0 22.4231V13.6624C0 13.0601 0.206411 12.5491 0.619233 12.1294C1.03206 11.7098 1.54359 11.5 2.15383 11.5H5.1641V12.8333H2.15383C1.91452 12.8333 1.71794 12.9145 1.5641 13.0769C1.41026 13.2393 1.33333 13.4316 1.33333 13.6538V22.1666ZM2.66487 8.83331C1.9088 8.83331 1.27563 8.57833 0.765367 8.06838C0.255122 7.55842 0 6.92652 0 6.17268C0 5.43361 0.254978 4.80339 0.764933 4.28201C1.27489 3.76066 1.90679 3.49998 2.66063 3.49998C3.3997 3.49998 4.02992 3.75941 4.5513 4.27828C5.07266 4.79715 5.33333 5.4272 5.33333 6.16845C5.33333 6.92451 5.0739 7.55767 4.55503 8.06791C4.03617 8.57818 3.40611 8.83331 2.66487 8.83331Z" fill="#000E50"/>
</svg>
