<svg width="33" height="33" viewBox="0 0 33 33" fill="none" xmlns="http://www.w3.org/2000/svg">
<path d="M12.5769 23.0384C12.5769 23.0384 21.7308 24.3461 25.6539 28.2692H26.9615C27.6838 28.2692 28.2692 27.6837 28.2692 26.9615V19.0329C29.3973 18.7426 30.2308 17.7186 30.2308 16.4999C30.2308 15.2813 29.3973 14.2573 28.2692 13.9669V6.03841C28.2692 5.31619 27.6838 4.73071 26.9615 4.73071H25.6539C21.7308 8.65379 12.5769 9.96148 12.5769 9.96148H7.34616C5.90172 9.96148 4.73077 11.1324 4.73077 12.5769V20.423C4.73077 21.8675 5.90172 23.0384 7.34616 23.0384H8.65385L9.96154 29.5769H12.5769V23.0384ZM15.1923 12.1338C16.0859 11.9421 17.1898 11.6771 18.3822 11.3264C20.5767 10.6809 23.3654 9.66414 25.6539 8.09747V24.9024C23.3654 23.3358 20.5767 22.319 18.3822 21.6736C17.1898 21.3228 16.0859 21.0578 15.1923 20.8661V12.1338ZM7.34616 12.5769H12.5769V20.423H7.34616V12.5769Z" fill="#000E50" stroke="white"/>
</svg>
