<svg width="24" height="25" viewBox="0 0 24 25" fill="none" xmlns="http://www.w3.org/2000/svg">
<path d="M10.75 18.5C10.5333 18.5 10.3542 18.4292 10.2125 18.2875C10.0708 18.1458 10 17.9667 10 17.75C10 17.5333 10.0708 17.3542 10.2125 17.2125C10.3542 17.0708 10.5333 17 10.75 17H13.25C13.4667 17 13.6458 17.0708 13.7875 17.2125C13.9292 17.3542 14 17.5333 14 17.75C14 17.9667 13.9292 18.1458 13.7875 18.2875C13.6458 18.4292 13.4667 18.5 13.25 18.5H10.75ZM3.75 8C3.53333 8 3.35417 7.92917 3.2125 7.7875C3.07083 7.64583 3 7.46667 3 7.25C3 7.03333 3.07083 6.85417 3.2125 6.7125C3.35417 6.57083 3.53333 6.5 3.75 6.5H20.25C20.4667 6.5 20.6458 6.57083 20.7875 6.7125C20.9292 6.85417 21 7.03333 21 7.25C21 7.46667 20.9292 7.64583 20.7875 7.7875C20.6458 7.92917 20.4667 8 20.25 8H3.75ZM6.75 13.25C6.53333 13.25 6.35417 13.1792 6.2125 13.0375C6.07083 12.8958 6 12.7167 6 12.5C6 12.2833 6.07083 12.1042 6.2125 11.9625C6.35417 11.8208 6.53333 11.75 6.75 11.75H17.25C17.4667 11.75 17.6458 11.8208 17.7875 11.9625C17.9292 12.1042 18 12.2833 18 12.5C18 12.7167 17.9292 12.8958 17.7875 13.0375C17.6458 13.1792 17.4667 13.25 17.25 13.25H6.75Z" fill="#000728"/>
</svg>
