<svg width="25" height="24" viewBox="0 0 25 24" fill="none" xmlns="http://www.w3.org/2000/svg">
<path d="M5.46911 10.6515C8.39773 7.16666 10.5052 5.18111 11.3754 2C15.8645 4.49772 21.3956 10.8567 20.9792 15.5826C20.6459 19.3654 17.8703 21.1971 14.4908 22C14.4908 22 16.6466 19.0346 17.0495 16.7813C17.4167 13.087 14.7336 10.6672 13.4221 10.017C13.4221 10.017 14.2434 13.5002 12.4176 15.5092C11.3505 12.0355 8.90184 12.0141 8.90184 12.0141C9.90633 14.5106 7.67478 15.5699 7.4299 17.2908C6.93267 20.7851 9.48282 22 9.48282 22C2.85764 19.6629 3.22044 13.0012 5.46911 10.6515Z" stroke="#000E50" stroke-width="1.5" stroke-linejoin="round"/>
</svg>
