<svg width="20" height="20" viewBox="0 0 20 20" fill="none" xmlns="http://www.w3.org/2000/svg">
<path d="M7.24999 15C7.40277 15 7.53471 14.941 7.64582 14.8229C7.75693 14.7049 7.81249 14.5694 7.81249 14.4167V10.8333H9.99999L10.6667 12.1458C10.7222 12.2569 10.8021 12.3437 10.9062 12.4062C11.0104 12.4687 11.118 12.5 11.2292 12.5H14.375C14.5555 12.5 14.7049 12.441 14.8229 12.3229C14.941 12.2049 15 12.0555 15 11.875V8.12499C15 7.94443 14.941 7.79513 14.8229 7.67707C14.7049 7.55902 14.5555 7.49999 14.375 7.49999H12.5L11.8333 6.18749C11.7778 6.07638 11.6979 5.98957 11.5937 5.92707C11.4896 5.86457 11.3819 5.83332 11.2708 5.83332H7.29166C7.1111 5.83332 6.96179 5.89235 6.84374 6.01041C6.72568 6.12846 6.66666 6.27777 6.66666 6.45832V14.4375C6.66666 14.5903 6.72568 14.7222 6.84374 14.8333C6.96179 14.9444 7.09721 15 7.24999 15ZM11.6042 11.3542L10.7708 9.68749H7.81249V6.97916H10.8958L11.7292 8.64582H13.8542V11.3542H11.6042ZM9.99999 18.3333C8.81943 18.3333 7.72221 18.1215 6.70832 17.6979C5.69443 17.2743 4.81249 16.6875 4.06249 15.9375C3.31249 15.1875 2.72568 14.3055 2.30207 13.2917C1.87846 12.2778 1.66666 11.1805 1.66666 9.99999C1.66666 8.83332 1.87846 7.74305 2.30207 6.72916C2.72568 5.71527 3.31249 4.83332 4.06249 4.08332C4.81249 3.33332 5.69443 2.74305 6.70832 2.31249C7.72221 1.88193 8.81943 1.66666 9.99999 1.66666C11.1667 1.66666 12.2569 1.88193 13.2708 2.31249C14.2847 2.74305 15.1667 3.33332 15.9167 4.08332C16.6667 4.83332 17.2569 5.71527 17.6875 6.72916C18.118 7.74305 18.3333 8.83332 18.3333 9.99999C18.3333 11.1805 18.118 12.2778 17.6875 13.2917C17.2569 14.3055 16.6667 15.1875 15.9167 15.9375C15.1667 16.6875 14.2847 17.2743 13.2708 17.6979C12.2569 18.1215 11.1667 18.3333 9.99999 18.3333ZM9.99999 17.0833C12.0139 17.0833 13.6979 16.4062 15.0521 15.0521C16.4062 13.6979 17.0833 12.0139 17.0833 9.99999C17.0833 7.9861 16.4062 6.30207 15.0521 4.94791C13.6979 3.59374 12.0139 2.91666 9.99999 2.91666C7.9861 2.91666 6.30207 3.59374 4.94791 4.94791C3.59374 6.30207 2.91666 7.9861 2.91666 9.99999C2.91666 12.0139 3.59374 13.6979 4.94791 15.0521C6.30207 16.4062 7.9861 17.0833 9.99999 17.0833Z" fill="currentColor"/>
</svg>
