<svg width="34" height="35" viewBox="0 0 34 35" fill="none" xmlns="http://www.w3.org/2000/svg">
<path d="M18.0971 30.2603C17.861 30.2603 17.6662 30.1813 17.5128 30.0234C17.3593 29.8654 17.2826 29.6648 17.2826 29.4218V15.4218C16.3381 14.9114 15.618 14.1944 15.1221 13.2708C14.6263 12.3471 14.3784 11.2898 14.3784 10.0989C14.3784 8.73777 14.7089 7.50426 15.3701 6.39836C16.0312 5.29245 16.952 4.7395 18.1326 4.7395C19.3131 4.7395 20.2339 5.29245 20.8951 6.39836C21.5562 7.50426 21.8867 8.73777 21.8867 10.0989C21.8867 11.2898 21.627 12.3471 21.1076 13.2708C20.5881 14.1944 19.8562 14.9114 18.9117 15.4218V29.4218C18.9117 29.6648 18.835 29.8654 18.6815 30.0234C18.528 30.1813 18.3332 30.2603 18.0971 30.2603ZM25.4992 30.2603C25.2631 30.2603 25.0683 30.1813 24.9148 30.0234C24.7614 29.8654 24.6846 29.6648 24.6846 29.4218V5.97909C24.6846 5.6145 24.8027 5.34106 25.0388 5.15877C25.2749 4.97648 25.5346 4.9461 25.818 5.06763C26.786 5.43221 27.577 6.03985 28.1909 6.89054C28.8048 7.74124 29.1117 8.72561 29.1117 9.84367V17.2812C29.1117 17.5728 29.0173 17.822 28.8284 18.0286C28.6395 18.2352 28.3916 18.3385 28.0846 18.3385H26.2784V29.4218C26.2784 29.6648 26.2076 29.8654 26.0659 30.0234C25.9242 30.1813 25.7353 30.2603 25.4992 30.2603ZM8.4638 30.2603C8.22769 30.2603 8.0329 30.1813 7.87943 30.0234C7.72595 29.8654 7.64922 29.6648 7.64922 29.4218V15.4583C6.89366 15.4583 6.24436 15.1787 5.7013 14.6197C5.15825 14.0607 4.88672 13.3923 4.88672 12.6145V5.43221C4.88672 5.23777 4.95165 5.0737 5.08151 4.94002C5.21137 4.80634 5.37075 4.7395 5.55964 4.7395C5.72491 4.7395 5.87839 4.80634 6.02005 4.94002C6.16172 5.0737 6.23255 5.23777 6.23255 5.43221V10.6822H7.79089V5.43221C7.79089 5.23777 7.85582 5.0737 7.98568 4.94002C8.11554 4.80634 8.27491 4.7395 8.4638 4.7395C8.62908 4.7395 8.78255 4.80634 8.92422 4.94002C9.06589 5.0737 9.13672 5.23777 9.13672 5.43221V10.6822H10.6596V5.43221C10.6596 5.23777 10.7305 5.0737 10.8721 4.94002C11.0138 4.80634 11.1791 4.7395 11.368 4.7395C11.5569 4.7395 11.7162 4.80634 11.8461 4.94002C11.976 5.0737 12.0409 5.23777 12.0409 5.43221V12.6145C12.0409 13.3923 11.7694 14.0607 11.2263 14.6197C10.6832 15.1787 10.0339 15.4583 9.27839 15.4583V29.4218C9.27839 29.6648 9.20165 29.8654 9.04818 30.0234C8.8947 30.1813 8.69991 30.2603 8.4638 30.2603Z" fill="#000E50"/>
</svg>
