<svg width="25" height="24" viewBox="0 0 25 24" fill="none" xmlns="http://www.w3.org/2000/svg">
<path d="M7.50269 18H8.50269" stroke="#000E50" stroke-width="1.5" stroke-linecap="round" stroke-linejoin="round"/>
<path d="M16.5027 18H17.5027" stroke="#000E50" stroke-width="1.5" stroke-linecap="round" stroke-linejoin="round"/>
<path d="M19.5027 14H5.50269C4.39812 14 3.50269 14.8954 3.50269 16V20C3.50269 21.1046 4.39812 22 5.50269 22H19.5027C20.6073 22 21.5027 21.1046 21.5027 20V16C21.5027 14.8954 20.6073 14 19.5027 14Z" stroke="#000E50" stroke-width="1.5" stroke-linecap="round" stroke-linejoin="round"/>
<path d="M11.0027 11L10.5027 14M14.0027 11L14.5027 14" stroke="#000E50" stroke-width="1.5" stroke-linejoin="round"/>
<path d="M16.5027 2H8.50269C7.39812 2 6.50269 2.89543 6.50269 4V9C6.50269 10.1046 7.39812 11 8.50269 11H16.5027C17.6073 11 18.5027 10.1046 18.5027 9V4C18.5027 2.89543 17.6073 2 16.5027 2Z" stroke="#000E50" stroke-width="1.5" stroke-linecap="round" stroke-linejoin="round"/>
<path d="M12.5027 14V22" stroke="#000E50" stroke-width="1.5" stroke-linejoin="round"/>
</svg>
