<svg width="35" height="36" viewBox="0 0 35 36" fill="none" xmlns="http://www.w3.org/2000/svg">
<path d="M5.98991 28.9375C5.49408 28.9375 5.04546 28.7309 4.64408 28.3177C4.24269 27.9045 4.04199 27.4427 4.04199 26.9323V9.72396C4.04199 9.18924 4.25449 8.70312 4.67949 8.26562C5.10449 7.82812 5.57671 7.60938 6.09616 7.60938H15.092C15.3045 7.60938 15.5111 7.65799 15.7118 7.75521C15.9125 7.85243 16.0837 7.97396 16.2253 8.11979L17.5357 9.43229H28.9045C29.3767 9.43229 29.7958 9.60243 30.1618 9.94271C30.5278 10.283 30.758 10.6719 30.8524 11.1094H16.8274L15.0566 9.28646H6.09616C5.95449 9.28646 5.84234 9.32899 5.7597 9.41406C5.67706 9.49913 5.63574 9.60243 5.63574 9.72396V26.8229C5.63574 26.9444 5.66526 27.0356 5.72428 27.0964C5.78331 27.1571 5.84824 27.2118 5.91908 27.2604L9.14199 14.7188C9.23644 14.3542 9.43123 14.0564 9.72637 13.8255C10.0215 13.5946 10.358 13.4792 10.7357 13.4792H31.3128C31.8559 13.4792 32.2927 13.6918 32.6232 14.1172C32.9538 14.5425 33.0482 15.0226 32.9066 15.5573L29.8253 27.4063C29.6837 27.941 29.4416 28.3299 29.0993 28.5729C28.7569 28.816 28.3142 28.9375 27.7712 28.9375H5.98991ZM7.61908 27.2969H28.1962L31.242 15.1563H10.6649L7.61908 27.2969ZM7.61908 27.2969L10.6649 15.1563L7.61908 27.2969ZM5.63574 13.1875V9.72396C5.63574 9.60243 5.63574 9.49913 5.63574 9.41406C5.63574 9.32899 5.63574 9.28646 5.63574 9.28646V11.1094C5.63574 11.1094 5.63574 11.316 5.63574 11.7292C5.63574 12.1424 5.63574 12.6285 5.63574 13.1875Z" fill="#000E50"/>
</svg>
