<svg width="24" height="24" viewBox="0 0 24 24" fill="none" xmlns="http://www.w3.org/2000/svg">
<path d="M15.5 20C15.15 20 14.8542 19.8792 14.6125 19.6375C14.3708 19.3958 14.25 19.1 14.25 18.75V6.5H10.25C9.9 6.5 9.60417 6.37917 9.3625 6.1375C9.12083 5.89583 9 5.6 9 5.25C9 4.9 9.12083 4.60417 9.3625 4.3625C9.60417 4.12083 9.9 4 10.25 4H20.75C21.1 4 21.3958 4.12083 21.6375 4.3625C21.8792 4.60417 22 4.9 22 5.25C22 5.6 21.8792 5.89583 21.6375 6.1375C21.3958 6.37917 21.1 6.5 20.75 6.5H16.75V18.75C16.75 19.1 16.6292 19.3958 16.3875 19.6375C16.1458 19.8792 15.85 20 15.5 20ZM6.5 20C6.15 20 5.85417 19.8792 5.6125 19.6375C5.37083 19.3958 5.25 19.1 5.25 18.75V11.5H3.25C2.9 11.5 2.60417 11.3792 2.3625 11.1375C2.12083 10.8958 2 10.6 2 10.25C2 9.9 2.12083 9.60417 2.3625 9.3625C2.60417 9.12083 2.9 9 3.25 9H9.75C10.1 9 10.3958 9.12083 10.6375 9.3625C10.8792 9.60417 11 9.9 11 10.25C11 10.6 10.8792 10.8958 10.6375 11.1375C10.3958 11.3792 10.1 11.5 9.75 11.5H7.75V18.75C7.75 19.1 7.62917 19.3958 7.3875 19.6375C7.14583 19.8792 6.85 20 6.5 20Z" fill="#000E50"/>
</svg>
