<svg width="20" height="20" viewBox="0 0 20 20" fill="none" xmlns="http://www.w3.org/2000/svg">
<path d="M7.24984 15C7.40262 15 7.53456 14.941 7.64567 14.8229C7.75678 14.7049 7.81234 14.5695 7.81234 14.4167V10.8334H9.99984L10.6665 12.1459C10.7221 12.257 10.8019 12.3438 10.9061 12.4063C11.0103 12.4688 11.1179 12.5 11.229 12.5H14.3748C14.5554 12.5 14.7047 12.441 14.8228 12.3229C14.9408 12.2049 14.9998 12.0556 14.9998 11.875V8.12502C14.9998 7.94447 14.9408 7.79516 14.8228 7.6771C14.7047 7.55905 14.5554 7.50002 14.3748 7.50002H12.4998L11.8332 6.18752C11.7776 6.07641 11.6978 5.9896 11.5936 5.9271C11.4894 5.8646 11.3818 5.83335 11.2707 5.83335H7.2915C7.11095 5.83335 6.96164 5.89238 6.84359 6.01044C6.72553 6.12849 6.6665 6.2778 6.6665 6.45835V14.4375C6.6665 14.5903 6.72553 14.7222 6.84359 14.8334C6.96164 14.9445 7.09706 15 7.24984 15ZM11.604 11.3542L10.7707 9.68752H7.81234V6.97919H10.8957L11.729 8.64585H13.854V11.3542H11.604ZM9.99984 18.3334C8.81928 18.3334 7.72206 18.1215 6.70817 17.6979C5.69428 17.2743 4.81234 16.6875 4.06234 15.9375C3.31234 15.1875 2.72553 14.3056 2.30192 13.2917C1.87831 12.2778 1.6665 11.1806 1.6665 10C1.6665 8.83335 1.87831 7.74308 2.30192 6.72919C2.72553 5.7153 3.31234 4.83335 4.06234 4.08335C4.81234 3.33335 5.69428 2.74308 6.70817 2.31252C7.72206 1.88196 8.81928 1.66669 9.99984 1.66669C11.1665 1.66669 12.2568 1.88196 13.2707 2.31252C14.2846 2.74308 15.1665 3.33335 15.9165 4.08335C16.6665 4.83335 17.2568 5.7153 17.6873 6.72919C18.1179 7.74308 18.3332 8.83335 18.3332 10C18.3332 11.1806 18.1179 12.2778 17.6873 13.2917C17.2568 14.3056 16.6665 15.1875 15.9165 15.9375C15.1665 16.6875 14.2846 17.2743 13.2707 17.6979C12.2568 18.1215 11.1665 18.3334 9.99984 18.3334ZM9.99984 17.0834C12.0137 17.0834 13.6978 16.4063 15.0519 15.0521C16.4061 13.6979 17.0832 12.0139 17.0832 10C17.0832 7.98613 16.4061 6.3021 15.0519 4.94794C13.6978 3.59377 12.0137 2.91669 9.99984 2.91669C7.98595 2.91669 6.30192 3.59377 4.94775 4.94794C3.59359 6.3021 2.9165 7.98613 2.9165 10C2.9165 12.0139 3.59359 13.6979 4.94775 15.0521C6.30192 16.4063 7.98595 17.0834 9.99984 17.0834Z" fill="#FF6961"/>
</svg>
