<svg width="25" height="24" viewBox="0 0 25 24" fill="none" xmlns="http://www.w3.org/2000/svg">
<path d="M21.5054 14.25L20.6865 13.3287C20.1244 12.6964 19.8434 12.3802 19.8434 12C19.8434 11.6198 20.1244 11.3036 20.6865 10.6713L21.5054 9.75M3.50537 9.75L4.32428 10.6713C4.88637 11.3036 5.16742 11.6198 5.16742 12C5.16742 12.3802 4.88637 12.6964 4.32428 13.3287L3.50537 14.25" stroke="#000E50" stroke-width="1.5" stroke-linecap="round" stroke-linejoin="round"/>
<path d="M15.0772 21L15.4495 19.7966C15.7129 18.9453 15.8446 18.5197 16.1893 18.3241C16.534 18.1286 16.9669 18.2339 17.8328 18.4444L19.0054 18.7296M9.93357 3L9.56125 4.20337C9.29786 5.05465 9.16617 5.48029 8.82147 5.67587C8.47676 5.87144 8.04383 5.76615 7.17797 5.55556L6.00537 5.27038" stroke="#000E50" stroke-width="1.5" stroke-linecap="round" stroke-linejoin="round"/>
<path d="M5.50537 18.7317L7.10883 18.3965C8.00526 18.2091 8.45348 18.1154 8.79584 18.3317C9.1382 18.548 9.24607 18.993 9.46182 19.883L9.73259 21M19.5054 5.26825L17.9019 5.60349C17.0055 5.79091 16.5573 5.88462 16.2149 5.66833C15.8726 5.45205 15.7647 5.00703 15.5489 4.11698L15.2782 3" stroke="#000E50" stroke-width="1.5" stroke-linecap="round" stroke-linejoin="round"/>
<path d="M19.5054 12.0003H5.50537M16.0054 17.9998L9.00537 6M16.0054 6.00025L9.00537 18" stroke="#000E50" stroke-width="1.5" stroke-linecap="round" stroke-linejoin="round"/>
</svg>
