<?xml version="1.0" encoding="UTF-8"?>
<svg width="24px" height="24px" viewBox="0 0 24 24" version="1.1" xmlns="http://www.w3.org/2000/svg" xmlns:xlink="http://www.w3.org/1999/xlink">
    <title>Fridge</title>
    <g id="Icons" stroke="none" stroke-width="1" fill="none" fill-rule="evenodd">
        <g id="fridge" fill="currentColor">
            <path d="M18,2 L6,2 C4.9,2 4,2.9 4,4 L4,20 C4,21.1 4.9,22 6,22 L18,22 C19.1,22 20,21.1 20,20 L20,4 C20,2.9 19.1,2 18,2 Z M18,4 L18,9 L6,9 L6,4 L18,4 Z M6,20 L6,11 L18,11 L18,20 L6,20 Z M8,6 C8,6.55 7.55,7 7,7 C6.45,7 6,6.55 6,6 C6,5.45 6.45,5 7,5 C7.55,5 8,5.45 8,6 Z M8,16 C8,16.55 7.55,17 7,17 C6.45,17 6,16.55 6,16 C6,15.45 6.45,15 7,15 C7.55,15 8,15.45 8,16 Z" id="Shape"></path>
        </g>
    </g>
</svg>