<svg width="25" height="24" viewBox="0 0 25 24" fill="none" xmlns="http://www.w3.org/2000/svg">
<path d="M13.9419 1.67344C13.8494 1.59657 13.7398 1.54306 13.6224 1.51741C13.5049 1.49177 13.383 1.49474 13.2669 1.52608C13.1508 1.55742 13.044 1.61621 12.9554 1.69749C12.8668 1.77878 12.799 1.88017 12.7578 1.99313L10.6953 7.65656L8.43031 5.46188C8.35425 5.3881 8.26341 5.33128 8.16379 5.29516C8.06417 5.25904 7.95802 5.24444 7.85235 5.25232C7.74667 5.26021 7.64387 5.29039 7.55071 5.34089C7.45755 5.3914 7.37615 5.46107 7.31188 5.54531C5.28125 8.20594 4.25 10.8825 4.25 13.5C4.25 15.688 5.11919 17.7865 6.66637 19.3336C8.21354 20.8808 10.312 21.75 12.5 21.75C14.688 21.75 16.7865 20.8808 18.3336 19.3336C19.8808 17.7865 20.75 15.688 20.75 13.5C20.75 7.92656 15.9884 3.375 13.9419 1.67344ZM12.5 20.25C10.7104 20.248 8.99466 19.5362 7.72922 18.2708C6.46378 17.0053 5.75199 15.2896 5.75 13.5C5.75 11.4375 6.50844 9.30094 8.00562 7.14L10.4778 9.53813C10.5676 9.62532 10.6778 9.68866 10.7983 9.72237C10.9188 9.75608 11.0459 9.7591 11.1679 9.73114C11.2899 9.70318 11.4029 9.64514 11.4967 9.5623C11.5906 9.47947 11.6621 9.37447 11.705 9.25688L13.7928 3.53156C15.8947 5.445 19.25 9.17906 19.25 13.5C19.248 15.2896 18.5362 17.0053 17.2708 18.2708C16.0053 19.5362 14.2896 20.248 12.5 20.25Z" fill="#000E50"/>
</svg>
