<svg width="25" height="25" viewBox="0 0 25 25" fill="none" xmlns="http://www.w3.org/2000/svg">
<path d="M2.50566 16.3088C2.72864 12.8152 3.38511 10.2587 3.94139 8.77375C4.22223 8.02405 4.82644 7.46576 5.6 7.27866C9.89252 6.24045 15.1097 6.24045 19.4022 7.27866C20.1757 7.46576 20.78 8.02405 21.0608 8.77375C21.6171 10.2587 22.2735 12.8152 22.4965 16.3088C22.6287 18.3797 19.6931 19.648 18.0013 20.5L16.2891 17.5038C16.111 17.1923 15.7797 17 15.4209 17H9.58154C9.22268 17 8.89134 17.1923 8.71329 17.5039L7.00121 20.5C5.30946 19.648 2.37349 18.3797 2.50566 16.3088Z" stroke="#000728" stroke-width="1.5" stroke-linejoin="round"/>
<path d="M5.50134 5L7.46419 4.5M19.5013 5L17.5013 4.5" stroke="#000728" stroke-width="1.5" stroke-linecap="round" stroke-linejoin="round"/>
<path d="M9.50134 13.5L8.00134 12M8.00134 12L6.50134 10.5M8.00134 12L6.50134 13.5M8.00134 12L9.50134 10.5" stroke="#000728" stroke-width="1.5" stroke-linecap="round" stroke-linejoin="round"/>
<path d="M16.4896 10.5H16.4986" stroke="#000728" stroke-width="1.5" stroke-linecap="round" stroke-linejoin="round"/>
<path d="M18.4896 13.5H18.4986" stroke="#000728" stroke-width="1.5" stroke-linecap="round" stroke-linejoin="round"/>
</svg>
