<svg width="24" height="24" viewBox="0 0 24 24" fill="none" xmlns="http://www.w3.org/2000/svg">
<path d="M15.5 12C15.5 13.933 13.933 15.5 12 15.5C10.067 15.5 8.5 13.933 8.5 12C8.5 10.067 10.067 8.5 12 8.5C13.933 8.5 15.5 10.067 15.5 12Z" stroke="#000E50" stroke-width="1.5"/>
<path d="M9.77175 2.68377L8.99967 5L7.43983 5.98656L4.88763 5.35506C4.45976 5.2492 4.01304 5.43595 3.78783 5.81484L2.42363 8.10993C2.1778 8.52353 2.26134 9.05356 2.62248 9.37147L4.41261 10.9474V13.0526L2.62304 14.6285C2.26198 14.9464 2.17849 15.4764 2.4243 15.8899L3.78855 18.1851C4.01376 18.564 4.46049 18.7508 4.88835 18.6449L7.44056 18.0134L8.91825 18.8421L9.62361 21.2781C9.74742 21.7057 10.139 22 10.5842 22H13.416C13.8611 22 14.2527 21.7057 14.3765 21.2781L15.0819 18.8421L16.5588 18.0134L19.111 18.6449C19.5389 18.7508 19.9856 18.564 20.2108 18.1851L21.6008 15.8466C21.8349 15.4528 21.7714 14.9502 21.4468 14.627L19.6406 12.8287L19.6413 11.1713L21.4475 9.37298C21.7722 9.04974 21.8357 8.54721 21.6016 8.15339L20.2115 5.81484C19.9863 5.43595 19.5396 5.2492 19.1117 5.35506L16.5595 5.98656L14.9997 5L14.2276 2.68377C14.0915 2.27543 13.7094 2 13.2789 2H10.7205C10.29 2 9.90786 2.27543 9.77175 2.68377Z" stroke="#000E50" stroke-width="1.5" stroke-linecap="round" stroke-linejoin="round"/>
</svg>
