<svg width="24" height="25" viewBox="0 0 24 25" fill="none" xmlns="http://www.w3.org/2000/svg">
<path d="M22.0095 12.6954C22.0095 11.8351 21.9397 11.2072 21.7886 10.5562H11.9641V14.4394H17.7309C17.6146 15.4044 16.9868 16.8578 15.5916 17.8343L15.572 17.9643L18.6783 20.3708L18.8936 20.3922C20.87 18.5668 22.0095 15.8811 22.0095 12.6954Z" fill="#4285F4"/>
<path d="M11.964 22.9276C14.7892 22.9276 17.161 21.9974 18.8935 20.393L15.5915 17.8351C14.7079 18.4513 13.5219 18.8815 11.964 18.8815C9.19691 18.8815 6.84835 17.0562 6.01116 14.5332L5.88844 14.5436L2.65845 17.0433L2.61621 17.1608C4.33693 20.579 7.87142 22.9276 11.964 22.9276Z" fill="#34A853"/>
<path d="M6.01107 14.5334C5.79017 13.8824 5.66233 13.1847 5.66233 12.4639C5.66233 11.743 5.79017 11.0454 5.99945 10.3944L5.9936 10.2557L2.72313 7.71582L2.61613 7.76672C1.90694 9.18518 1.5 10.7781 1.5 12.4639C1.5 14.1498 1.90694 15.7425 2.61613 17.161L6.01107 14.5334Z" fill="#FBBC05"/>
<path d="M11.964 6.04603C13.9289 6.04603 15.2543 6.89476 16.01 7.60403L18.9632 4.72062C17.1495 3.03477 14.7892 2 11.964 2C7.87142 2 4.33693 4.34855 2.61621 7.76674L5.99954 10.3944C6.84835 7.87142 9.19691 6.04603 11.964 6.04603Z" fill="#EB4335"/>
</svg>
