<svg width="36" height="35" viewBox="0 0 36 35" fill="none" xmlns="http://www.w3.org/2000/svg">
<path d="M27.5 5C28.1312 5 28.6429 5.51168 28.6429 6.14286V11.8571C28.6429 12.4883 28.1312 13 27.5 13H21.7857V27.8571C21.7857 28.4883 21.2741 29 20.6429 29H16.0714C15.4403 29 14.9286 28.4883 14.9286 27.8571V13H8.64286C8.01168 13 7.5 12.4883 7.5 11.8571V9.13489C7.5 8.70201 7.74457 8.30629 8.13176 8.1127L14.3571 5H27.5ZM21.7857 7.28571H14.8967L9.78571 9.84122V10.7143H17.2143V26.7143H19.5V10.7143H21.7857V7.28571ZM26.3571 7.28571H24.0714V10.7143H26.3571V7.28571Z" fill="#000E50" stroke="white" stroke-width="0.7"/>
</svg>
