<svg width="35" height="36" viewBox="0 0 35 36" fill="none" xmlns="http://www.w3.org/2000/svg">
<path d="M26.9542 31.8178C26.8126 31.8178 26.6827 31.7996 26.5646 31.7631C26.4466 31.7266 26.3285 31.6477 26.2105 31.5261L18.4188 23.5053V21.3907L20.473 19.2397H22.5271L30.3542 27.297C30.4487 27.4185 30.5136 27.54 30.549 27.6615C30.5844 27.7831 30.6021 27.9167 30.6021 28.0626C30.6021 28.2084 30.5844 28.336 30.549 28.4454C30.5136 28.5548 30.4369 28.6702 30.3188 28.7917L27.6626 31.5261C27.5445 31.6477 27.4324 31.7266 27.3261 31.7631C27.2199 31.7996 27.0959 31.8178 26.9542 31.8178ZM26.9542 29.9584L28.7959 28.0261L21.5709 20.6251L19.7292 22.5209L26.9542 29.9584ZM7.51048 31.8542C7.36881 31.8542 7.23895 31.8299 7.1209 31.7813C7.00284 31.7327 6.89659 31.6477 6.80215 31.5261L4.11048 28.7917C4.01604 28.6945 3.9452 28.5791 3.89798 28.4454C3.85076 28.3117 3.82715 28.172 3.82715 28.0261C3.82715 27.8803 3.85076 27.7466 3.89798 27.6251C3.9452 27.5036 4.01604 27.3942 4.11048 27.297L11.8667 19.3126H14.8417L16.0813 18.0365L9.91881 11.6563H7.90006L3.86256 7.53654L7.01465 4.29175L11.0521 8.41154V10.4897L17.2146 16.8699L21.7834 12.2032L19.0917 9.43237L20.898 7.573H17.2855L16.7542 7.06258L20.898 2.7605L21.4292 3.27091V7.02612L23.2355 5.16675L29.2563 11.3282C29.5869 11.6685 29.8407 12.0634 30.0178 12.5131C30.1949 12.9628 30.2834 13.4428 30.2834 13.9532C30.2834 14.3421 30.2303 14.7188 30.124 15.0834C30.0178 15.448 29.8584 15.8004 29.6459 16.1407L26.6709 13.1147L24.6876 15.1563L22.9167 13.3699L15.9751 20.5157V23.5782L8.25423 31.5261C8.13618 31.6477 8.01812 31.7327 7.90006 31.7813C7.78201 31.8299 7.65215 31.8542 7.51048 31.8542ZM7.51048 29.9584L14.8063 22.448L12.9292 20.5522L5.66881 28.0261L7.51048 29.9584Z" fill="#000E50"/>
</svg>
