<svg width="24" height="24" viewBox="0 0 24 24" fill="none" xmlns="http://www.w3.org/2000/svg">
<path d="M3.75473 17.6316C3.52378 17.4983 3.34063 17.3155 3.20521 17.0834C3.06978 16.8513 3.00271 16.6008 3.00389 16.3321L2.98668 7.66191C2.98729 7.52751 3.00439 7.3979 3.03803 7.27298C3.07165 7.14805 3.12183 7.02783 3.18848 6.91239C3.25513 6.79695 3.33415 6.69339 3.42553 6.60181C3.51689 6.51022 3.62059 6.4306 3.73668 6.36287L11.2539 2.04268C11.486 1.90728 11.7365 1.84017 12.0052 1.84137C12.2739 1.84257 12.5238 1.90983 12.7547 2.04316L20.2458 6.36816C20.4768 6.50151 20.66 6.68425 20.7954 6.91637C20.9307 7.14849 20.9979 7.39896 20.9967 7.66768L21.0139 16.3379C21.0133 16.4723 20.9962 16.6019 20.9625 16.7268C20.9289 16.8517 20.8787 16.972 20.8121 17.0874C20.7454 17.2028 20.6664 17.3064 20.575 17.398C20.4837 17.4896 20.38 17.5692 20.2639 17.6369L12.7467 21.9571C12.5146 22.0925 12.2641 22.1596 11.9954 22.1584C11.7267 22.1572 11.4768 22.09 11.2458 21.9566L3.75473 17.6316ZM4.48307 16.3201L12.0175 20.6701L19.4914 16.3249L19.5175 7.6797L11.9831 3.3297L4.48751 7.66239L4.48307 16.3201Z" fill="#000728"/>
</svg>
