<svg width="34" height="36" viewBox="0 0 34 36" fill="none" xmlns="http://www.w3.org/2000/svg">
<path d="M16.9999 28.2084C16.693 28.2084 16.4392 28.1051 16.2385 27.8985C16.0378 27.6919 15.9374 27.4306 15.9374 27.1147V19.0938H8.14575C7.83881 19.0938 7.58499 18.9905 7.38429 18.7839C7.1836 18.5773 7.08325 18.3161 7.08325 18.0001C7.08325 17.6841 7.1836 17.4228 7.38429 17.2162C7.58499 17.0096 7.83881 16.9063 8.14575 16.9063H15.9374V8.8855C15.9374 8.56953 16.0378 8.30824 16.2385 8.10164C16.4392 7.89505 16.693 7.79175 16.9999 7.79175C17.3069 7.79175 17.5607 7.89505 17.7614 8.10164C17.9621 8.30824 18.0624 8.56953 18.0624 8.8855V16.9063H25.8541C26.161 16.9063 26.4148 17.0096 26.6155 17.2162C26.8162 17.4228 26.9166 17.6841 26.9166 18.0001C26.9166 18.3161 26.8162 18.5773 26.6155 18.7839C26.4148 18.9905 26.161 19.0938 25.8541 19.0938H18.0624V27.1147C18.0624 27.4306 17.9621 27.6919 17.7614 27.8985C17.5607 28.1051 17.3069 28.2084 16.9999 28.2084Z" fill="url(#paint0_linear_3061_1558)"/>
<defs>
<linearGradient id="paint0_linear_3061_1558" x1="26.9166" y1="7.79175" x2="2.86516" y2="16.3391" gradientUnits="userSpaceOnUse">
<stop stop-color="#C3B7FF"/>
<stop offset="1" stop-color="#6FF9D8"/>
</linearGradient>
</defs>
</svg>
