<svg width="25" height="24" viewBox="0 0 25 24" fill="none" xmlns="http://www.w3.org/2000/svg">
<path d="M19.0066 10C19.6733 9.44768 19.6733 8.55229 19.0066 8C18.3399 7.44771 18.3399 6.55229 19.0066 6M16.0066 10C16.6733 9.44768 16.6733 8.55229 16.0066 8C15.3399 7.44771 15.3399 6.55229 16.0066 6" stroke="#000E50" stroke-width="1.5" stroke-linecap="round" stroke-linejoin="round"/>
<path d="M5.50659 12.9953V10.264C5.50659 9.06157 6.56005 8.13096 7.75332 8.2793L8.55318 8.37873C9.15582 8.45364 9.69179 8.79832 10.01 9.31558L13.5066 15M9.50659 3.99915C9.50659 5.10326 8.61116 5.99831 7.50659 5.99831C6.40202 5.99831 5.50659 5.10326 5.50659 3.99915C5.50659 2.89505 6.40202 2 7.50659 2C8.61116 2 9.50659 2.89505 9.50659 3.99915Z" stroke="#000E50" stroke-width="1.5" stroke-linecap="round" stroke-linejoin="round"/>
<path d="M3.50659 13.0097L5.15828 20.4343C5.3618 21.3492 6.17333 22 7.11056 22H17.9023C18.8397 22 19.6513 21.3489 19.8546 20.4339L21.5066 13M3.50659 13.0097L2.50659 13M3.50659 13.0097L21.5066 13M21.5066 13L22.5066 13.0097" stroke="#000E50" stroke-width="1.5" stroke-linecap="round" stroke-linejoin="round"/>
</svg>
