<svg width="34" height="35" viewBox="0 0 34 35" fill="none" xmlns="http://www.w3.org/2000/svg">
<path d="M9.56159 12.7605C8.9477 12.7605 8.43416 12.5478 8.02096 12.1225C7.60777 11.6971 7.40117 11.1685 7.40117 10.5365C7.40117 9.9289 7.60777 9.40633 8.02096 8.96883C8.43416 8.53133 8.9477 8.31258 9.56159 8.31258C10.1519 8.31258 10.6536 8.52525 11.0668 8.9506C11.48 9.37595 11.6866 9.9046 11.6866 10.5365C11.6866 11.1442 11.48 11.6667 11.0668 12.1042C10.6536 12.5417 10.1519 12.7605 9.56159 12.7605ZM5.59492 31.3542C5.05187 31.3542 4.57964 31.1477 4.17826 30.7345C3.77687 30.3213 3.57617 29.823 3.57617 29.2397V19.9792C3.57617 19.6876 3.67062 19.4445 3.8595 19.2501C4.04839 19.0556 4.29631 18.9584 4.60326 18.9584H7.75534V16.5522C7.75534 15.9202 7.96194 15.3855 8.37513 14.948C8.78832 14.5105 9.30187 14.2917 9.91575 14.2917C10.2935 14.2917 10.6418 14.3707 10.9605 14.5287C11.2793 14.6867 11.5685 14.9237 11.8283 15.2397L13.7762 17.4636C13.9887 17.7067 14.2366 17.9497 14.5199 18.1928C14.8033 18.4358 15.1338 18.6911 15.5116 18.9584H29.3949C29.7019 18.9584 29.9498 19.0556 30.1387 19.2501C30.3276 19.4445 30.422 19.6876 30.422 19.9792V29.2397C30.422 29.823 30.2213 30.3213 29.8199 30.7345C29.4185 31.1477 28.9463 31.3542 28.4033 31.3542H5.59492ZM27.1991 14.7657C26.963 14.7657 26.78 14.6806 26.6501 14.5105C26.5203 14.3404 26.4671 14.1216 26.4908 13.8542C26.5144 13.1251 26.3904 12.4931 26.1189 11.9584C25.8474 11.4237 25.4755 10.8647 25.0033 10.2813C24.5074 9.57647 24.1237 8.85338 23.8522 8.11206C23.5807 7.37074 23.4685 6.62335 23.5158 5.86987C23.5158 5.65112 23.5807 5.46883 23.7105 5.323C23.8404 5.17716 24.0116 5.10425 24.2241 5.10425C24.4366 5.10425 24.6196 5.20147 24.773 5.39591C24.9265 5.59036 25.0033 5.82126 25.0033 6.08862C24.956 6.72057 25.0387 7.28567 25.2512 7.78394C25.4637 8.2822 25.806 8.823 26.2783 9.40633C26.8213 10.0626 27.2463 10.7978 27.5533 11.6121C27.8602 12.4263 28.0019 13.2102 27.9783 13.9636C27.9546 14.1824 27.872 14.3707 27.7303 14.5287C27.5887 14.6867 27.4116 14.7657 27.1991 14.7657ZM21.5678 14.7657C21.3317 14.7657 21.1428 14.6746 21.0012 14.4923C20.8595 14.31 20.8005 14.073 20.8241 13.7813C20.8241 13.0765 20.6883 12.4628 20.4168 11.9402C20.1453 11.4176 19.7852 10.8647 19.3366 10.2813C18.8408 9.57647 18.4571 8.85338 18.1855 8.11206C17.914 7.37074 17.8019 6.62335 17.8491 5.86987C17.8491 5.65112 17.914 5.46883 18.0439 5.323C18.1737 5.17716 18.3449 5.10425 18.5574 5.10425C18.7699 5.10425 18.9529 5.20147 19.1064 5.39591C19.2599 5.59036 19.3366 5.82126 19.3366 6.08862C19.2894 6.72057 19.372 7.28567 19.5845 7.78394C19.797 8.2822 20.1394 8.823 20.6116 9.40633C21.1546 10.0869 21.5796 10.8282 21.8866 11.6303C22.1935 12.4324 22.3352 13.2102 22.3116 13.9636C22.288 14.2067 22.2171 14.4011 22.0991 14.547C21.981 14.6928 21.8039 14.7657 21.5678 14.7657ZM24.6491 29.7136H26.8095C27.0928 29.7136 27.3349 29.6103 27.5355 29.4037C27.7362 29.1971 27.8366 28.948 27.8366 28.6563V21.6563C27.8366 21.3647 27.7362 21.1155 27.5355 20.9089C27.3349 20.7023 27.0928 20.599 26.8095 20.599H24.6491C24.3658 20.599 24.1237 20.7023 23.923 20.9089C23.7224 21.1155 23.622 21.3647 23.622 21.6563V28.6563C23.622 28.948 23.7224 29.1971 23.923 29.4037C24.1237 29.6103 24.3658 29.7136 24.6491 29.7136ZM18.8408 29.7136H21.0012C21.2845 29.7136 21.5265 29.6103 21.7272 29.4037C21.9279 29.1971 22.0283 28.948 22.0283 28.6563V21.6563C22.0283 21.3647 21.9279 21.1155 21.7272 20.9089C21.5265 20.7023 21.2845 20.599 21.0012 20.599H18.8408C18.5338 20.599 18.2859 20.7023 18.097 20.9089C17.9081 21.1155 17.8137 21.3647 17.8137 21.6563V28.6563C17.8137 28.948 17.9081 29.1971 18.097 29.4037C18.2859 29.6103 18.5338 29.7136 18.8408 29.7136ZM12.997 29.7136H15.1574C15.4644 29.7136 15.7123 29.6103 15.9012 29.4037C16.0901 29.1971 16.1845 28.948 16.1845 28.6563V21.6563C16.1845 21.3647 16.0901 21.1155 15.9012 20.9089C15.7123 20.7023 15.4644 20.599 15.1574 20.599H12.997C12.7137 20.599 12.4717 20.7023 12.271 20.9089C12.0703 21.1155 11.9699 21.3647 11.9699 21.6563V28.6563C11.9699 28.948 12.0703 29.1971 12.271 29.4037C12.4717 29.6103 12.7137 29.7136 12.997 29.7136ZM7.18867 29.7136H9.34909C9.63242 29.7136 9.87444 29.6103 10.0751 29.4037C10.2758 29.1971 10.3762 28.948 10.3762 28.6563V21.6563C10.3762 21.3647 10.2758 21.1155 10.0751 20.9089C9.87444 20.7023 9.63242 20.599 9.34909 20.599H7.18867C6.90534 20.599 6.66332 20.7023 6.46263 20.9089C6.26194 21.1155 6.16159 21.3647 6.16159 21.6563V28.6563C6.16159 28.948 6.26194 29.1971 6.46263 29.4037C6.66332 29.6103 6.90534 29.7136 7.18867 29.7136Z" fill="#000E50"/>
</svg>
