<svg width="25" height="24" viewBox="0 0 25 24" fill="none" xmlns="http://www.w3.org/2000/svg">
<path d="M19.2527 3.75H17.313L16.0333 2.46938C15.9636 2.39975 15.8809 2.34454 15.7898 2.3069C15.6988 2.26926 15.6012 2.24992 15.5027 2.25H9.50269C9.40417 2.24992 9.30659 2.26926 9.21555 2.3069C9.1245 2.34454 9.04176 2.39975 8.97206 2.46938L7.69237 3.75H5.75269C5.35486 3.75 4.97333 3.90804 4.69203 4.18934C4.41072 4.47064 4.25269 4.85218 4.25269 5.25V19.5C4.25269 19.8978 4.41072 20.2794 4.69203 20.5607C4.97333 20.842 5.35486 21 5.75269 21H19.2527C19.6505 21 20.032 20.842 20.3133 20.5607C20.5947 20.2794 20.7527 19.8978 20.7527 19.5V5.25C20.7527 4.85218 20.5947 4.47064 20.3133 4.18934C20.032 3.90804 19.6505 3.75 19.2527 3.75ZM12.5027 6.14813L10.9089 3.75H14.1058L12.5027 6.14813ZM15.6189 4.17938L16.2527 4.81031V9.75L13.4936 7.365L15.6189 4.17938ZM8.75269 4.81031L9.38644 4.1775L11.5117 7.365L8.75269 9.75V4.81031ZM5.75269 5.25H7.25269V9.75C7.25093 10.0354 7.33142 10.3154 7.48454 10.5563C7.63766 10.7972 7.85693 10.9889 8.11612 11.1084C8.31546 11.2014 8.53272 11.2498 8.75269 11.25C9.10261 11.2494 9.44115 11.1256 9.70894 10.9003C9.7128 10.8977 9.71628 10.8945 9.71925 10.8909L11.7527 9.13875V19.5H5.75269V5.25ZM19.2527 19.5H13.2527V9.13875L15.2824 10.8919C15.2853 10.8955 15.2888 10.8986 15.2927 10.9012C15.5616 11.127 15.9016 11.2505 16.2527 11.25C16.4741 11.2494 16.6927 11.2001 16.893 11.1056C17.1511 10.9857 17.3693 10.7942 17.5216 10.5539C17.674 10.3136 17.7542 10.0346 17.7527 9.75V5.25H19.2527V19.5Z" fill="#000E50"/>
</svg>
