<svg width="25" height="24" viewBox="0 0 25 24" fill="none" xmlns="http://www.w3.org/2000/svg">
<path d="M4.8254 20.64H16.3454C17.4058 20.64 18.2654 19.7804 18.2654 18.72V16.8C18.2654 12.5585 14.827 9.12003 10.5854 9.12003C6.34385 9.12003 2.9054 12.5585 2.9054 16.8V18.72C2.9054 19.7804 3.76501 20.64 4.8254 20.64Z" stroke="#000E50" stroke-width="1.44" stroke-linejoin="round"/>
<path d="M8.66541 9.12002V8.16002C8.66541 7.09963 9.52502 6.24002 10.5854 6.24002C11.6458 6.24002 12.5054 7.09963 12.5054 8.16002V9.12002" stroke="#000E50" stroke-width="1.44" stroke-linejoin="round"/>
<path d="M18.2654 16.8C19.4773 16.8 20.6654 15.9404 20.6654 14.88V12.48C20.6654 11.6847 21.3101 11.04 22.1054 11.04" stroke="#000E50" stroke-width="1.44" stroke-linecap="round" stroke-linejoin="round"/>
<path d="M16.3453 11.52V9.12002C16.3453 5.93885 13.7665 3.36002 10.5853 3.36002C7.40416 3.36002 4.82532 5.93885 4.82532 9.12002V11.52" stroke="#000E50" stroke-width="1.44" stroke-linejoin="round"/>
<path d="M2.9054 16.8H12.5054" stroke="#000E50" stroke-width="1.44" stroke-linecap="round" stroke-linejoin="round"/>
</svg>
