<svg width="25" height="25" viewBox="0 0 25 25" fill="none" xmlns="http://www.w3.org/2000/svg">
<path d="M6.50403 5.5H10.504" stroke="#000728" stroke-width="1.5" stroke-linecap="round"/>
<path d="M3.50403 8.5H21.504" stroke="#000728" stroke-width="1.5"/>
<path d="M2.50403 22.5H22.504" stroke="#000728" stroke-width="1.5" stroke-linecap="round"/>
<path d="M21.504 22.5V4.5C21.504 3.39543 20.6086 2.5 19.504 2.5H5.50403C4.39946 2.5 3.50403 3.39543 3.50403 4.5V22.5" stroke="#000728" stroke-width="1.5" stroke-linejoin="round"/>
<path d="M14.754 16.5007C14.754 17.7428 13.7468 18.75 12.504 18.75C11.2612 18.75 10.254 17.7428 10.254 16.5007C10.254 15.798 10.6537 15.0908 11.2321 14.4536C11.6756 13.9651 12.1693 13.5785 12.504 13.3414C12.8387 13.5785 13.3325 13.9651 13.7759 14.4536C14.3544 15.0908 14.754 15.798 14.754 16.5007ZM12.2678 13.1803L12.2679 13.1804L12.2678 13.1803Z" stroke="#000728" stroke-width="1.5" stroke-linecap="round" stroke-linejoin="round"/>
</svg>
