<svg width="24" height="24" viewBox="0 0 24 24" fill="none" xmlns="http://www.w3.org/2000/svg">
<path d="M12.8251 20.6653C12.715 20.8309 12.5435 20.9459 12.3486 20.9851C12.1536 21.0243 11.951 20.9845 11.7854 20.8744C8.95997 18.9947 5.64088 17.9945 2.24731 18C2.0484 18 1.85764 17.921 1.71698 17.7803C1.57633 17.6397 1.49731 17.4489 1.49731 17.25C1.49731 17.0511 1.57633 16.8603 1.71698 16.7197C1.85764 16.579 2.0484 16.5 2.24731 16.5C5.93649 16.4944 9.54462 17.582 12.6161 19.6256C12.7816 19.7358 12.8967 19.9072 12.9359 20.1022C12.9751 20.2971 12.9352 20.4997 12.8251 20.6653ZM2.24731 13.5C2.0484 13.5 1.85764 13.579 1.71698 13.7197C1.57633 13.8603 1.49731 14.0511 1.49731 14.25C1.49731 14.4489 1.57633 14.6397 1.71698 14.7803C1.85764 14.921 2.0484 15 2.24731 15C7.54872 14.9879 12.6411 17.0666 16.4195 20.7853C16.4892 20.857 16.5725 20.914 16.6646 20.953C16.7567 20.992 16.8556 21.0122 16.9556 21.0124C17.0556 21.0126 17.1546 20.9929 17.2468 20.9543C17.3391 20.9156 17.4226 20.859 17.4926 20.7876C17.5627 20.7162 17.6177 20.6315 17.6545 20.5386C17.6913 20.4456 17.7092 20.3462 17.707 20.2463C17.7049 20.1463 17.6827 20.0478 17.6419 19.9565C17.6012 19.8652 17.5425 19.783 17.4695 19.7147C13.4115 15.7199 7.94167 13.4868 2.24731 13.5ZM21.7473 15C20.2143 14.999 18.6861 15.1717 17.192 15.5147C17.707 15.9053 18.207 16.3166 18.692 16.7484C19.702 16.583 20.7238 16.4999 21.7473 16.5C21.9462 16.5 22.137 16.579 22.2776 16.7197C22.4183 16.8603 22.4973 17.0511 22.4973 17.25C22.4973 17.4489 22.4183 17.6397 22.2776 17.7803C22.137 17.921 21.9462 18 21.7473 18C21.1848 18 20.6289 18.0272 20.0739 18.0806C20.5939 18.6225 21.092 19.1894 21.5683 19.7812C21.6335 19.8576 21.6827 19.9464 21.713 20.0422C21.7433 20.138 21.754 20.2388 21.7446 20.3389C21.7351 20.4389 21.7057 20.536 21.658 20.6244C21.6103 20.7128 21.5453 20.7907 21.4669 20.8536C21.3885 20.9164 21.2983 20.9628 21.2016 20.9901C21.1049 21.0174 21.0037 21.025 20.904 21.0124C20.8044 20.9998 20.7082 20.9673 20.6213 20.9169C20.5345 20.8665 20.4586 20.7991 20.3983 20.7188C18.2244 17.9927 15.463 15.7928 12.3201 14.2831C9.17721 12.7735 5.73398 11.993 2.24731 12C2.0484 12 1.85764 11.921 1.71698 11.7803C1.57633 11.6397 1.49731 11.4489 1.49731 11.25C1.49731 11.0511 1.57633 10.8603 1.71698 10.7197C1.85764 10.579 2.0484 10.5 2.24731 10.5C3.75661 10.5003 5.26278 10.6374 6.74731 10.9097V7.5C6.74731 7.38357 6.77442 7.26873 6.82649 7.16459C6.87856 7.06045 6.95417 6.96986 7.04731 6.9L13.0473 2.4C13.1771 2.30263 13.335 2.25 13.4973 2.25C13.6596 2.25 13.8175 2.30263 13.9473 2.4L19.9473 6.9C20.0405 6.96986 20.1161 7.06045 20.1681 7.16459C20.2202 7.26873 20.2473 7.38357 20.2473 7.5V10.5459C20.7451 10.5169 21.2448 10.5 21.7473 10.5C21.9462 10.5 22.137 10.579 22.2776 10.7197C22.4183 10.8603 22.4973 11.0511 22.4973 11.25C22.4973 11.4489 22.4183 11.6397 22.2776 11.7803C22.137 11.921 21.9462 12 21.7473 12C19.054 11.9949 16.3806 12.4609 13.8479 13.3772C14.4379 13.6897 15.0148 14.0266 15.5786 14.3878C17.5816 13.7975 19.6591 13.4985 21.7473 13.5C21.9462 13.5 22.137 13.579 22.2776 13.7197C22.4183 13.8603 22.4973 14.0511 22.4973 14.25C22.4973 14.4489 22.4183 14.6397 22.2776 14.7803C22.137 14.921 21.9462 15 21.7473 15ZM11.2473 8.25H15.7473C15.9462 8.25 16.137 8.32902 16.2776 8.46967C16.4183 8.61032 16.4973 8.80109 16.4973 9V11.0569C17.2398 10.8969 17.9898 10.7719 18.7473 10.6819V7.875L13.4973 3.9375L8.24731 7.875V11.2322C9.00919 11.4197 9.75919 11.6441 10.4973 11.9053V9C10.4973 8.80109 10.5763 8.61032 10.717 8.46967C10.8576 8.32902 11.0484 8.25 11.2473 8.25ZM12.0039 12.4941C12.9778 12.0759 13.9777 11.7211 14.9973 11.4319V9.75H11.9973V12.4913L12.0039 12.4941Z" fill="#000E50"/>
</svg>
