<svg width="25" height="24" viewBox="0 0 25 24" fill="none" xmlns="http://www.w3.org/2000/svg">
<path d="M11.0001 20V5C11.0001 4.17157 10.3285 3.5 9.50007 3.5H4.50006C3.67164 3.5 3.00007 4.17157 3.00006 4.99999L3 20C3 20.8284 3.67157 21.5 4.5 21.5H9.50007C10.3285 21.5 11.0001 20.8284 11.0001 20Z" stroke="#000728" stroke-width="1.5" stroke-linecap="round" stroke-linejoin="round"/>
<path d="M7 18H7.00898" stroke="#000728" stroke-width="2" stroke-linecap="round" stroke-linejoin="round"/>
<path d="M18 18H18.009" stroke="#000728" stroke-width="2" stroke-linecap="round" stroke-linejoin="round"/>
<path d="M20.7498 20.7142C21.553 20.587 22.1052 19.8049 21.9831 18.9674L19.7731 3.80356C19.651 2.96609 18.9009 2.39035 18.0978 2.51762L13.2502 3.28576C12.447 3.41303 11.8948 4.19511 12.0169 5.03258L14.2269 20.1964C14.3489 21.0339 15.099 21.6096 15.9022 21.4824L20.7498 20.7142Z" stroke="#000728" stroke-width="1.5" stroke-linecap="round" stroke-linejoin="round"/>
<path d="M20.0187 6.61768L12.5 8.00004" stroke="#000728" stroke-width="1.5" stroke-linecap="round" stroke-linejoin="round"/>
<path d="M3 7.5H11" stroke="#000728" stroke-width="1.5" stroke-linecap="round" stroke-linejoin="round"/>
</svg>
