<svg width="24" height="25" viewBox="0 0 24 25" fill="none" xmlns="http://www.w3.org/2000/svg">
<path d="M19.3927 19.8933H16.2812V15.0204C16.2812 13.8584 16.2605 12.3626 14.6629 12.3626C13.0423 12.3626 12.7943 13.6286 12.7943 14.9358V19.893H9.68287V9.87234H12.6699V11.2418H12.7117C13.0106 10.7306 13.4426 10.3102 13.9616 10.0251C14.4806 9.74004 15.0672 9.6011 15.6589 9.62305C18.8126 9.62305 19.3941 11.6975 19.3941 14.3961L19.3927 19.8933ZM6.17193 8.50267C5.17467 8.50283 4.36609 7.6945 4.36593 6.69724C4.36576 5.69999 5.17402 4.89141 6.17127 4.89124C7.16853 4.891 7.97711 5.69933 7.97727 6.69659C7.97736 7.17549 7.7872 7.63481 7.44864 7.97352C7.11007 8.31222 6.65083 8.50256 6.17193 8.50267ZM7.72773 19.8934H4.61292V9.87234H7.72765V19.8933L7.72773 19.8934ZM20.944 2.00153H3.04941C2.20367 1.99201 1.51009 2.66951 1.49976 3.51525V21.4844C1.50976 22.3306 2.20326 23.0087 3.04933 22.9999H20.944C21.7918 23.0104 22.488 22.3322 22.4998 21.4844V3.51386C22.4877 2.66647 21.7914 1.98906 20.944 2.00013" fill="#0A66C2"/>
</svg>
