<svg width="34" height="35" viewBox="0 0 34 35" fill="none" xmlns="http://www.w3.org/2000/svg">
<path d="M29.2188 31.7188V9.95321C29.2188 8.95668 28.8823 8.11206 28.2094 7.41935C27.5365 6.72664 26.716 6.38029 25.7479 6.38029H23.7292V8.56779C23.7292 8.78654 23.6583 8.96276 23.5167 9.09644C23.375 9.23012 23.1979 9.29696 22.9854 9.29696H15.9729C15.666 9.29696 15.4594 9.1572 15.3531 8.87769C15.2469 8.59817 15.241 8.34904 15.3354 8.13029L17.7792 2.698C17.8972 2.40633 18.0743 2.18758 18.3104 2.04175C18.5465 1.89591 18.8417 1.823 19.1958 1.823H22.3833C22.7611 1.823 23.0799 1.96883 23.3396 2.2605C23.5993 2.55216 23.7292 2.89244 23.7292 3.28133V4.73966H25.7479C27.1646 4.73966 28.3628 5.244 29.3427 6.25269C30.3226 7.26137 30.8125 8.49487 30.8125 9.95321V31.7188H29.2188ZM17.3188 7.65633H22.1354V3.46362H19.125L17.3188 7.65633ZM6.83542 31.7188C5.79653 31.7188 4.92882 31.3603 4.23229 30.6433C3.53576 29.9263 3.1875 29.0331 3.1875 27.9636V24.3178C3.1875 23.6129 3.44132 22.9628 3.94896 22.3673C4.4566 21.7718 5.14722 21.4254 6.02083 21.3282V17.573C6.02083 17.014 6.22153 16.5279 6.62292 16.1147C7.02431 15.7015 7.50833 15.4949 8.075 15.4949H19.7625C20.3056 15.4949 20.7778 15.7015 21.1792 16.1147C21.5806 16.5279 21.7812 17.014 21.7812 17.573V21.3282C22.6549 21.4254 23.3455 21.7596 23.8531 22.3308C24.3608 22.902 24.6146 23.5643 24.6146 24.3178V27.9636C24.6146 29.0331 24.2663 29.9263 23.5698 30.6433C22.8733 31.3603 22.0174 31.7188 21.0021 31.7188H6.83542ZM7.61458 17.573V21.6928C8.03958 22.0088 8.38194 22.4037 8.64167 22.8777C8.90139 23.3516 9.03125 23.8317 9.03125 24.3178V25.7032H18.7708V24.3178C18.7708 23.8317 18.9007 23.3516 19.1604 22.8777C19.4201 22.4037 19.7625 22.0088 20.1875 21.6928V17.573C20.1875 17.4515 20.1462 17.3482 20.0635 17.2631C19.9809 17.178 19.8806 17.1355 19.7625 17.1355H8.075C7.93333 17.1355 7.82118 17.178 7.73854 17.2631C7.6559 17.3482 7.61458 17.4515 7.61458 17.573ZM6.83542 30.0782H21.0021C21.5924 30.0782 22.0764 29.8595 22.4542 29.422C22.8319 28.9845 23.0208 28.4983 23.0208 27.9636V24.3178C23.0208 23.9289 22.8969 23.6069 22.649 23.3516C22.401 23.0964 22.0882 22.9688 21.7104 22.9688C21.309 22.9688 20.9844 23.0964 20.7365 23.3516C20.4885 23.6069 20.3646 23.9289 20.3646 24.3178V27.3438H7.4375V24.3178C7.4375 23.9289 7.31354 23.6069 7.06563 23.3516C6.81771 23.0964 6.50486 22.9688 6.12708 22.9688C5.72569 22.9688 5.40104 23.0964 5.15313 23.3516C4.90521 23.6069 4.78125 23.9289 4.78125 24.3178V27.9636C4.78125 28.4983 4.97014 28.9845 5.34792 29.422C5.72569 29.8595 6.22153 30.0782 6.83542 30.0782Z" fill="#000E50"/>
</svg>
