<svg width="25" height="25" viewBox="0 0 25 25" fill="none" xmlns="http://www.w3.org/2000/svg">
<path d="M6.50134 17.5V20.5M18.5013 17.5V20.5" stroke="#000728" stroke-width="1.5" stroke-linecap="round" stroke-linejoin="round"/>
<path d="M4.50134 9.5V6.5C4.50134 5.39543 5.39677 4.5 6.50134 4.5H18.5013C19.6059 4.5 20.5013 5.39543 20.5013 6.5V9.5" stroke="#000728" stroke-width="1.5" stroke-linecap="round" stroke-linejoin="round"/>
<path d="M4.50134 9.5C3.39677 9.5 2.50134 10.3954 2.50134 11.5C2.50134 12.2403 2.90354 12.8866 3.50134 13.2324V15.5C3.50134 16.6046 4.39677 17.5 5.50134 17.5H19.5013C20.6059 17.5 21.5013 16.6046 21.5013 15.5V13.2324C22.0991 12.8866 22.5013 12.2403 22.5013 11.5C22.5013 10.3954 21.6059 9.5 20.5013 9.5C19.3967 9.5 18.5013 10.3954 18.5013 11.5V14C18.5013 14.2761 18.2774 14.5 18.0013 14.5H7.00134C6.7252 14.5 6.50134 14.2761 6.50134 14V11.5C6.50134 10.3954 5.60591 9.5 4.50134 9.5Z" stroke="#000728" stroke-width="1.5" stroke-linecap="round" stroke-linejoin="round"/>
<path d="M12.5013 14.5V4.5" stroke="#000728" stroke-width="1.5" stroke-linecap="round" stroke-linejoin="round"/>
</svg>
