<svg width="25" height="24" viewBox="0 0 25 24" fill="none" xmlns="http://www.w3.org/2000/svg">
<path d="M8.50015 18L7.50073 22M16.4955 18L17.495 22" stroke="#000728" stroke-width="1.5" stroke-linecap="round" stroke-linejoin="round"/>
<path d="M7.50271 9L6.82883 4.28284C6.65671 3.07797 7.59163 2 8.80873 2H16.1967C17.4138 2 18.3487 3.07798 18.1766 4.28284L17.5027 9" stroke="#000728" stroke-width="1.5" stroke-linecap="round" stroke-linejoin="round"/>
<path d="M9.00269 12.5C9.93547 11.8776 11.1608 11.5 12.5027 11.5C13.8446 11.5 15.0699 11.8776 16.0027 12.5" stroke="#000728" stroke-width="1.5" stroke-linecap="round"/>
<path d="M6.50269 9C5.39812 9 4.50269 9.89543 4.50269 11C4.50269 11.7403 4.90489 12.3866 5.50269 12.7324L6.79592 17.2739C6.91829 17.7036 7.31088 18 7.75768 18H17.2477C17.6945 18 18.0871 17.7036 18.2095 17.2739L19.5027 12.7324C20.1005 12.3866 20.5027 11.7403 20.5027 11C20.5027 9.89543 19.6073 9 18.5027 9C17.5393 9 16.7349 9.68123 16.5451 10.5883L15.6847 14.23C15.578 14.6812 15.1751 15 14.7114 15H10.2939C9.83024 15 9.42737 14.6812 9.32074 14.23L8.46027 10.5883C8.27045 9.68123 7.46613 9 6.50269 9Z" stroke="#000728" stroke-width="1.5" stroke-linecap="round" stroke-linejoin="round"/>
</svg>
