<svg width="24" height="24" viewBox="0 0 24 24" fill="none" xmlns="http://www.w3.org/2000/svg">
<path d="M16.125 15.825C15.975 15.675 15.9 15.4917 15.9 15.275C15.9 15.0583 15.975 14.8833 16.125 14.75L18.125 12.75H10.125C9.90833 12.75 9.72917 12.6792 9.5875 12.5375C9.44583 12.3958 9.375 12.2167 9.375 12C9.375 11.7833 9.44583 11.6042 9.5875 11.4625C9.72917 11.3208 9.90833 11.25 10.125 11.25H18.075L16.05 9.225C15.9167 9.09167 15.85 8.92083 15.85 8.7125C15.85 8.50417 15.925 8.325 16.075 8.175C16.225 8.025 16.4042 7.95 16.6125 7.95C16.8208 7.95 17 8.025 17.15 8.175L20.475 11.5C20.5583 11.5833 20.6167 11.6667 20.65 11.75C20.6833 11.8333 20.7 11.925 20.7 12.025C20.7 12.125 20.6833 12.2167 20.65 12.3C20.6167 12.3833 20.5583 12.4667 20.475 12.55L17.175 15.85C17.0417 15.9833 16.8708 16.05 16.6625 16.05C16.4542 16.05 16.275 15.975 16.125 15.825ZM4.5 21C4.1 21 3.75 20.85 3.45 20.55C3.15 20.25 3 19.9 3 19.5V4.5C3 4.1 3.15 3.75 3.45 3.45C3.75 3.15 4.1 3 4.5 3H11.025C11.2417 3 11.4208 3.07083 11.5625 3.2125C11.7042 3.35417 11.775 3.53333 11.775 3.75C11.775 3.96667 11.7042 4.14583 11.5625 4.2875C11.4208 4.42917 11.2417 4.5 11.025 4.5H4.5V19.5H11.025C11.2417 19.5 11.4208 19.5708 11.5625 19.7125C11.7042 19.8542 11.775 20.0333 11.775 20.25C11.775 20.4667 11.7042 20.6458 11.5625 20.7875C11.4208 20.9292 11.2417 21 11.025 21H4.5Z" fill="#000728"/>
</svg>
