<svg width="25" height="24" viewBox="0 0 25 24" fill="none" xmlns="http://www.w3.org/2000/svg">
<path d="M20.0096 17.25H14.754C14.5551 17.25 14.3643 17.329 14.2237 17.4697C14.083 17.6103 14.004 17.8011 14.004 18V19.125C14.004 20.0207 14.3598 20.8798 14.9932 21.5131C15.6266 22.1465 16.4856 22.5023 17.3813 22.5023C18.2771 22.5023 19.1361 22.1465 19.7695 21.5131C20.4028 20.8798 20.7587 20.0207 20.7587 19.125V18C20.7587 17.8012 20.6798 17.6106 20.5393 17.47C20.3989 17.3294 20.2084 17.2502 20.0096 17.25ZM19.2596 19.125C19.2596 19.6223 19.0621 20.0992 18.7104 20.4508C18.3588 20.8025 17.8819 21 17.3846 21C16.8873 21 16.4104 20.8025 16.0588 20.4508C15.7072 20.0992 15.5096 19.6223 15.5096 19.125V18.75H19.2596V19.125ZM10.254 15H5.00399C4.80507 15 4.61431 15.079 4.47366 15.2197C4.33301 15.3603 4.25399 15.5511 4.25399 15.75V16.875C4.25399 17.7701 4.60957 18.6285 5.2425 19.2615C5.87544 19.8944 6.73388 20.25 7.62899 20.25C8.52409 20.25 9.38254 19.8944 10.0155 19.2615C10.6484 18.6285 11.004 17.7701 11.004 16.875V15.75C11.004 15.5511 10.925 15.3603 10.7843 15.2197C10.6437 15.079 10.4529 15 10.254 15ZM9.50399 16.875C9.50399 17.3723 9.30644 17.8492 8.95481 18.2008C8.60318 18.5525 8.12627 18.75 7.62899 18.75C7.13171 18.75 6.65479 18.5525 6.30316 18.2008C5.95153 17.8492 5.75399 17.3723 5.75399 16.875V16.5H9.50399V16.875ZM7.62899 1.5C6.53774 1.5 5.4793 2.46656 4.64774 4.21875C3.3418 6.97312 2.90774 11.0625 4.67492 13.2187C4.74539 13.3048 4.8341 13.374 4.93463 13.4215C5.03515 13.469 5.14499 13.4936 5.25617 13.4934H9.99524C10.1064 13.4936 10.2163 13.469 10.3168 13.4215C10.4173 13.374 10.506 13.3048 10.5765 13.2187C12.3437 11.0625 11.9096 6.97031 10.6037 4.21875C9.77117 2.46656 8.71368 1.5 7.62899 1.5ZM9.6118 12H5.63961C4.57086 10.3031 4.96367 7.05937 6.0043 4.86469C6.61086 3.58312 7.26992 3 7.62899 3C7.98805 3 8.64336 3.58312 9.25086 4.86469C10.2877 7.05937 10.6805 10.3031 9.6118 12ZM15.0127 15.75H19.7518C19.863 15.7502 19.9728 15.7256 20.0733 15.6781C20.1739 15.6306 20.2626 15.5613 20.333 15.4753C22.1002 13.3191 21.6662 9.22687 20.3602 6.47531C19.5287 4.71656 18.4702 3.75 17.379 3.75C16.2877 3.75 15.233 4.71656 14.4005 6.46875C13.0946 9.22312 12.6606 13.3125 14.4277 15.4687C14.4982 15.5562 14.5873 15.6268 14.6885 15.6755C14.7897 15.7241 14.9004 15.7496 15.0127 15.75ZM15.7627 7.11469C16.3684 5.83312 17.0274 5.25 17.379 5.25C17.7306 5.25 18.3934 5.83312 18.9999 7.11469C20.0406 9.30937 20.4334 12.5522 19.3656 14.25H15.3962C14.3274 12.5531 14.7202 9.30937 15.7609 7.11469H15.7627Z" fill="black"/>
</svg>
