<svg width="25" height="24" viewBox="0 0 25 24" fill="none" xmlns="http://www.w3.org/2000/svg">
<path d="M8.5 9.5C8.5 10.8807 7.38071 12 6 12C4.61929 12 3.5 10.8807 3.5 9.5C3.5 8.11929 4.61929 7 6 7C7.38071 7 8.5 8.11929 8.5 9.5ZM8.5 9.5V2C8.83333 2.5 9.5 5 11.5 5" stroke="#000728" stroke-width="1.5" stroke-linecap="round" stroke-linejoin="round"/>
<path d="M12.5 19.5C12.5 20.8807 11.3807 22 10 22C8.61929 22 7.5 20.8807 7.5 19.5C7.5 18.1193 8.61929 17 10 17C11.3807 17 12.5 18.1193 12.5 19.5ZM12.5 19.5V9L21.5 6V17.9259M21.5 18C21.5 19.1046 20.6046 20 19.5 20C18.3954 20 17.5 19.1046 17.5 18C17.5 16.8954 18.3954 16 19.5 16C20.6046 16 21.5 16.8954 21.5 18Z" stroke="#000728" stroke-width="1.5" stroke-linejoin="round"/>
<path d="M12.5 14L21.5 11" stroke="#000728" stroke-width="1.5" stroke-linejoin="round"/>
</svg>
