<svg width="24" height="24" viewBox="0 0 24 24" fill="none" xmlns="http://www.w3.org/2000/svg">
<path d="M3.84995 9.825C3.63328 9.825 3.45411 9.75 3.31245 9.6C3.17078 9.45 3.10828 9.275 3.12495 9.075C3.20828 7.99167 3.47911 6.9625 3.93745 5.9875C4.39578 5.0125 5.01661 4.15 5.79995 3.4C5.94995 3.26667 6.13328 3.20417 6.34995 3.2125C6.56661 3.22083 6.74995 3.30833 6.89995 3.475C7.03328 3.625 7.09578 3.8 7.08745 4C7.07911 4.2 6.99995 4.375 6.84995 4.525C6.21661 5.14167 5.71245 5.8375 5.33745 6.6125C4.96245 7.3875 4.73328 8.20833 4.64995 9.075C4.61661 9.29167 4.52495 9.47083 4.37495 9.6125C4.22495 9.75417 4.04995 9.825 3.84995 9.825ZM20.1749 9.825C19.9749 9.825 19.8041 9.75417 19.6624 9.6125C19.5208 9.47083 19.4333 9.29167 19.3999 9.075C19.3166 8.20833 19.0916 7.3875 18.7249 6.6125C18.3583 5.8375 17.8666 5.14167 17.2499 4.525C17.0999 4.375 17.0208 4.2 17.0124 4C17.0041 3.8 17.0666 3.625 17.1999 3.475C17.3499 3.30833 17.5291 3.22083 17.7374 3.2125C17.9458 3.20417 18.1249 3.275 18.2749 3.425C19.0416 4.19167 19.6499 5.05417 20.0999 6.0125C20.5499 6.97083 20.8166 7.99167 20.8999 9.075C20.9166 9.275 20.8541 9.45 20.7124 9.6C20.5708 9.75 20.3916 9.825 20.1749 9.825ZM4.74995 19C4.53328 19 4.35411 18.9292 4.21245 18.7875C4.07078 18.6458 3.99995 18.4667 3.99995 18.25C3.99995 18.0333 4.07078 17.8542 4.21245 17.7125C4.35411 17.5708 4.53328 17.5 4.74995 17.5H6.09995V9.85C6.09995 8.48333 6.51245 7.24583 7.33745 6.1375C8.16245 5.02917 9.24995 4.33333 10.5999 4.05V3.325C10.5999 2.94167 10.7374 2.625 11.0124 2.375C11.2874 2.125 11.6166 2 11.9999 2C12.3833 2 12.7124 2.125 12.9874 2.375C13.2624 2.625 13.3999 2.94167 13.3999 3.325V4.05C14.7499 4.33333 15.8416 5.02917 16.6749 6.1375C17.5083 7.24583 17.9249 8.48333 17.9249 9.85V17.5H19.2499C19.4666 17.5 19.6458 17.5708 19.7874 17.7125C19.9291 17.8542 19.9999 18.0333 19.9999 18.25C19.9999 18.4667 19.9291 18.6458 19.7874 18.7875C19.6458 18.9292 19.4666 19 19.2499 19H4.74995ZM11.9999 22C11.4666 22 10.9999 21.8042 10.5999 21.4125C10.1999 21.0208 9.99995 20.55 9.99995 20H13.9999C13.9999 20.55 13.8041 21.0208 13.4124 21.4125C13.0208 21.8042 12.5499 22 11.9999 22ZM7.59995 17.5H16.4249V9.85C16.4249 8.6 15.9999 7.54583 15.1499 6.6875C14.2999 5.82917 13.2583 5.4 12.0249 5.4C10.7749 5.4 9.72495 5.82917 8.87495 6.6875C8.02495 7.54583 7.59995 8.6 7.59995 9.85V17.5Z" fill="#000E50"/>
</svg>
