<svg width="25" height="24" viewBox="0 0 25 24" fill="none" xmlns="http://www.w3.org/2000/svg">
<path d="M12.5013 14C15.8151 14 18.5013 11.3137 18.5013 8C18.5013 4.68629 15.8151 2 12.5013 2C9.18763 2 6.50134 4.68629 6.50134 8C6.50134 11.3137 9.18763 14 12.5013 14Z" stroke="#000728" stroke-width="1.5" stroke-linecap="round" stroke-linejoin="round"/>
<path d="M17.3753 12C18.0839 13.037 18.5013 14.3093 18.5013 15.6842C18.5013 16.5017 18.3537 17.2829 18.0851 18M18.0851 18C17.2077 20.3424 15.0384 22 12.5013 22C9.18763 22 6.50134 19.1723 6.50134 15.6842C6.50134 14.3093 6.91872 13.037 7.62739 12M18.0851 18C15.0013 17.5 13.5013 16.5 11.5013 14" stroke="#000728" stroke-width="1.5" stroke-linecap="round" stroke-linejoin="round"/>
<path d="M12.8013 2C11.8072 2 11.0013 2.7835 11.0013 3.75C11.0013 4.7165 11.8072 5.5 12.8013 5.5C13.2623 5.5 13.6828 5.3315 14.0013 5.0544" stroke="#000728" stroke-width="1.5" stroke-linecap="round" stroke-linejoin="round"/>
<path d="M10.5013 8H10.5094M14.4932 8H14.5013" stroke="#000728" stroke-width="1.5" stroke-linecap="round" stroke-linejoin="round"/>
</svg>
