<svg width="24" height="24" viewBox="0 0 24 24" fill="none" xmlns="http://www.w3.org/2000/svg">
<path d="M3.5 18C3.08333 18 2.72917 17.8542 2.4375 17.5625C2.14583 17.2708 2 16.9167 2 16.5V4.5C2 4.08333 2.14583 3.72917 2.4375 3.4375C2.72917 3.14583 3.08333 3 3.5 3H20.5C20.9167 3 21.2708 3.14583 21.5625 3.4375C21.8542 3.72917 22 4.08333 22 4.5V16.5C22 16.9167 21.8542 17.2708 21.5625 17.5625C21.2708 17.8542 20.9167 18 20.5 18H3.5ZM3.5 16.5H20.5V4.5H3.5V16.5ZM1.75 21C1.53333 21 1.35417 20.9292 1.2125 20.7875C1.07083 20.6458 1 20.4667 1 20.25C1 20.0333 1.07083 19.8542 1.2125 19.7125C1.35417 19.5708 1.53333 19.5 1.75 19.5H22.25C22.4667 19.5 22.6458 19.5708 22.7875 19.7125C22.9292 19.8542 23 20.0333 23 20.25C23 20.4667 22.9292 20.6458 22.7875 20.7875C22.6458 20.9292 22.4667 21 22.25 21H1.75ZM3.5 16.5V4.5V16.5Z" fill="#000E50"/>
</svg>
