<svg width="25" height="25" viewBox="0 0 25 25" fill="none" xmlns="http://www.w3.org/2000/svg">
<path d="M16.5027 6.5V12.5C16.5027 13.0523 16.055 13.5 15.5027 13.5H9.50269C8.95041 13.5 8.50269 13.0523 8.50269 12.5V6.5C8.50269 5.94772 8.95041 5.5 9.50269 5.5H15.5027C16.055 5.5 16.5027 5.94772 16.5027 6.5Z" stroke="#000E50" stroke-width="1.5" stroke-linecap="round" stroke-linejoin="round"/>
<path d="M5.50269 22.5V4.5C5.50269 3.39543 6.39812 2.5 7.50269 2.5H17.5027C18.6073 2.5 19.5027 3.39543 19.5027 4.5V22.5" stroke="#000E50" stroke-width="1.5" stroke-linecap="round" stroke-linejoin="round"/>
<path d="M3.50269 22.5H21.5027" stroke="#000E50" stroke-width="1.5" stroke-linecap="round" stroke-linejoin="round"/>
<path d="M12.5027 5.5V13.5M16.5027 9.5H8.50269" stroke="#000E50" stroke-width="1.5" stroke-linecap="round" stroke-linejoin="round"/>
<path d="M8.5107 17.5H8.50171" stroke="#000E50" stroke-width="2" stroke-linecap="round" stroke-linejoin="round"/>
</svg>
