<svg width="25" height="24" viewBox="0 0 25 24" fill="none" xmlns="http://www.w3.org/2000/svg">
<path d="M17.5 13.2308C17.5 13.2308 16.5909 12.7693 15.6818 12.7693C14.3182 12.7693 12.5 14.6154 12.5 17.3846C12.5 20.1537 14.9896 22 17.5 22C20.0104 22 22.5 20.1537 22.5 17.3846C22.5 14.6154 20.6818 12.7693 19.3182 12.7693C18.4091 12.7693 17.5 13.2308 17.5 13.2308ZM17.5 13.2308C17.5 11.8462 18.4091 10 20.2273 10" stroke="#000728" stroke-width="1.5" stroke-linecap="round" stroke-linejoin="round"/>
<path d="M6.5 5C6.5 5 5.39788 4.96992 5.22727 4.91465M5.22727 4.91465C4.59171 4.70873 4.13636 4.15311 4.13636 3.5C4.13636 2.67157 4.86899 2 5.77273 2H11.2273C12.131 2 12.8636 2.67157 12.8636 3.5C12.8636 4.16227 12.3954 4.7243 11.7459 4.92311M5.22727 4.91465C3.60674 7.88562 2.5 10.3773 2.5 13.7771V20C2.5 21.1046 3.39543 22 4.5 22H11M11.7459 4.92311C11.5829 4.97298 10.5 5 10.5 5M11.7459 4.92311C12.72 6.70907 13.5182 8.3188 14 10.0573" stroke="#000728" stroke-width="1.5" stroke-linecap="round" stroke-linejoin="round"/>
</svg>
