<svg width="32" height="23" viewBox="0 0 32 23" fill="none" xmlns="http://www.w3.org/2000/svg">
<path fill-rule="evenodd" clip-rule="evenodd" d="M1.63332 0.333496H30.3667C31.2671 0.333496 32 1.05791 32 1.948V20.719C32 21.6091 31.2671 22.3335 30.3667 22.3335H1.63332C0.732855 22.3335 0 21.6091 0 20.719V1.948C0 1.05791 0.732855 0.333496 1.63332 0.333496ZM30.5493 5.34571H1.45072V6.73122H30.5493V5.34571ZM30.3666 1.76773H1.63328C1.53343 1.76773 1.45064 1.84961 1.45064 1.94819V3.91013H30.5492V1.94819C30.5492 1.84955 30.4664 1.76773 30.3666 1.76773ZM1.63328 20.9009H30.3666C30.4665 20.9009 30.5493 20.819 30.5493 20.7204V8.1653H1.45072V20.7204C1.45072 20.819 1.5335 20.9009 1.63328 20.9009Z" fill="#000E50"/>
<path fill-rule="evenodd" clip-rule="evenodd" d="M24.3371 13.3105C23.7747 13.3105 23.2352 13.4527 22.7547 13.724C22.489 13.6436 22.2057 13.5977 21.9114 13.5977C20.3072 13.5977 19.0039 14.8877 19.0039 16.4717C19.0039 18.0574 20.3089 19.3457 21.9114 19.3457C22.206 19.3457 22.4883 19.2997 22.7544 19.2194C23.2341 19.4908 23.7748 19.6329 24.3356 19.6329H24.3371C26.1016 19.6329 27.5366 18.2144 27.5366 16.4702C27.5366 14.7288 26.1014 13.3105 24.3371 13.3105ZM23.7121 18.3699C23.8128 18.4023 23.9162 18.4271 24.0216 18.4438C24.1251 18.4601 24.2306 18.4686 24.3371 18.4686C25.4508 18.4686 26.3557 17.5726 26.3572 16.4717C26.3572 15.3708 25.4508 14.4748 24.3371 14.4748C24.2306 14.4748 24.1252 14.4833 24.0216 14.4997C23.9163 14.5163 23.8128 14.5411 23.7121 14.5736C23.7866 14.6426 23.8571 14.7159 23.9231 14.7929C24.3119 15.2463 24.5474 15.8311 24.5474 16.4717C24.5474 17.1111 24.3119 17.6968 23.923 18.1506C23.857 18.2276 23.7866 18.3008 23.7121 18.3699ZM20.1816 16.4717C20.1816 15.5294 20.9579 14.7635 21.9097 14.7635C22.863 14.7635 23.6378 15.5309 23.6378 16.4717C23.6378 17.4141 22.8615 18.1799 21.9097 18.1799C20.9579 18.1814 20.1816 17.4141 20.1816 16.4717Z" fill="#000E50"/>
</svg>
