<svg width="24" height="25" viewBox="0 0 24 25" fill="none" xmlns="http://www.w3.org/2000/svg">
<path d="M1.5 12.5002C1.5 16.7997 4.08546 20.4935 7.78515 22.1174C7.75562 21.3842 7.7799 20.504 7.96792 19.7063C8.1698 18.8539 9.31897 13.9848 9.31897 13.9848C9.31897 13.9848 8.98355 13.3143 8.98355 12.3235C8.98355 10.7674 9.8854 9.60528 11.0086 9.60528C11.9637 9.60528 12.4251 10.3226 12.4251 11.1817C12.4251 12.1418 11.8127 13.5779 11.4978 14.908C11.2347 16.0218 12.0563 16.9303 13.1551 16.9303C15.1445 16.9303 16.4844 14.3752 16.4844 11.3477C16.4844 9.0464 14.9344 7.32391 12.1153 7.32391C8.93014 7.32391 6.94589 9.69921 6.94589 12.3524C6.94589 13.2672 7.21561 13.9123 7.63807 14.4119C7.83232 14.6413 7.85931 14.7336 7.78901 14.9971C7.73864 15.1903 7.62298 15.6554 7.57507 15.8397C7.50518 16.1057 7.28968 16.2008 7.04933 16.1026C5.58229 15.5037 4.89905 13.8971 4.89905 12.0911C4.89905 9.10834 7.41462 5.53177 12.4034 5.53177C16.4123 5.53177 19.0508 8.43273 19.0508 11.5467C19.0508 15.6657 16.7608 18.743 13.3853 18.743C12.2517 18.743 11.1853 18.1302 10.8201 17.4342C10.8201 17.4342 10.2105 19.8534 10.0814 20.3206C9.85874 21.1302 9.42299 21.9393 9.02456 22.57C9.99069 22.8557 10.9929 23.0007 12.0004 23.0006C17.7987 23.0006 22.5001 18.2994 22.5001 12.5002C22.5001 6.70113 17.7987 2 12.0004 2C6.20154 2 1.5 6.70113 1.5 12.5002Z" fill="#CB1F27"/>
</svg>
