<svg width="34" height="35" viewBox="0 0 34 35" fill="none" xmlns="http://www.w3.org/2000/svg">
<path d="M10.6247 21.474C10.3886 21.474 10.1938 21.395 10.0403 21.237C9.88683 21.079 9.81009 20.8785 9.81009 20.6354V19.8698H6.83509C6.59898 19.8698 6.40419 19.7908 6.25072 19.6328C6.09724 19.4748 6.02051 19.2743 6.02051 19.0313C6.02051 18.7882 6.09724 18.5937 6.25072 18.4479C6.40419 18.3021 6.59898 18.2292 6.83509 18.2292H13.6351V13.8906H7.04759C6.78787 13.8906 6.55176 13.7934 6.33926 13.599C6.12676 13.4045 6.02051 13.1493 6.02051 12.8333V7.29167C6.02051 7 6.12086 6.75694 6.32155 6.5625C6.52224 6.36806 6.75245 6.27083 7.01217 6.27083H9.81009V5.50521C9.81009 5.28646 9.88683 5.09809 10.0403 4.9401C10.1938 4.78212 10.3886 4.70312 10.6247 4.70312C10.8608 4.70312 11.0556 4.78212 11.209 4.9401C11.3625 5.09809 11.4393 5.28646 11.4393 5.50521V6.27083H14.4143C14.6504 6.27083 14.8452 6.34983 14.9986 6.50781C15.1521 6.6658 15.2288 6.86632 15.2288 7.10938C15.2288 7.35243 15.1521 7.55295 14.9986 7.71094C14.8452 7.86892 14.6504 7.94792 14.4143 7.94792H7.61426V12.25H14.2018C14.5087 12.25 14.7566 12.3472 14.9455 12.5417C15.1344 12.7361 15.2288 12.9913 15.2288 13.3073V18.849C15.2288 19.1163 15.1344 19.3533 14.9455 19.5599C14.7566 19.7665 14.5205 19.8698 14.2372 19.8698H11.4393V20.6354C11.4393 20.8785 11.3625 21.079 11.209 21.237C11.0556 21.395 10.8608 21.474 10.6247 21.474ZM19.7622 29.6406C19.6205 29.6406 19.4906 29.6163 19.3726 29.5677C19.2545 29.5191 19.1483 29.4462 19.0538 29.349L14.8038 24.974C14.6386 24.8038 14.5559 24.6094 14.5559 24.3906C14.5559 24.1719 14.6386 23.9774 14.8038 23.8073C14.9691 23.6372 15.158 23.5521 15.3705 23.5521C15.583 23.5521 15.7719 23.6372 15.9372 23.8073L19.7622 27.7448L27.5893 19.6875C27.7545 19.5174 27.9434 19.4323 28.1559 19.4323C28.3684 19.4323 28.5573 19.5174 28.7226 19.6875C28.8879 19.8576 28.9705 20.0521 28.9705 20.2708C28.9705 20.4896 28.8879 20.684 28.7226 20.8542L20.4705 29.349C20.3761 29.4462 20.2698 29.5191 20.1518 29.5677C20.0337 29.6163 19.9038 29.6406 19.7622 29.6406Z" fill="#000E50"/>
</svg>
