<svg width="54" height="60" viewBox="0 0 54 60" fill="none" xmlns="http://www.w3.org/2000/svg">
<path d="M4.0865 45.8707L4.08653 45.8707L24.9159 57.9746C24.9159 57.9746 24.9159 57.9746 24.9159 57.9746C26.3125 58.7862 28.056 58.7993 29.4632 57.9889L50.1981 46.0483C51.6054 45.2379 52.4657 43.7254 52.4593 42.1131C52.4593 42.1131 52.4593 42.1131 52.4593 42.1131L52.3648 18.0687L52.3648 18.0687C52.3584 16.4551 51.4852 14.9515 50.0884 14.1315L50.0846 14.1293L29.259 2.02768C29.2585 2.02736 29.2579 2.02703 29.2574 2.02671C27.8492 1.20088 26.1103 1.20348 24.7079 2.01112L3.973 13.9517C2.56575 14.7621 1.70538 16.2747 1.71176 17.8869C1.71176 17.8869 1.71176 17.8869 1.71176 17.8869L1.80627 41.9313L1.80627 41.9314C1.81265 43.5432 2.69025 45.0593 4.0865 45.8707Z" fill="url(#paint0_linear_569_21204)" stroke="#000E50" stroke-width="2"/>
<path d="M32.9831 36.4933C32.8001 36.6763 32.5891 36.768 32.3501 36.7683C32.1111 36.7686 31.9003 36.6775 31.7178 36.4949L27.0839 31.8611L22.4382 36.5068C22.2552 36.6899 22.0442 36.7815 21.8052 36.7818C21.5662 36.7821 21.3554 36.691 21.1728 36.5085C20.9903 36.3259 20.8992 36.1151 20.8995 35.8761C20.8998 35.6371 20.9915 35.4261 21.1745 35.2431L25.8202 30.5974L21.1864 25.9636C21.0038 25.781 20.9127 25.5702 20.913 25.3312C20.9133 25.0922 21.005 24.8812 21.188 24.6982C21.371 24.5152 21.582 24.4235 21.821 24.4232C22.0601 24.4229 22.2708 24.514 22.4534 24.6965L27.0872 29.3304L31.7329 24.6846C31.9159 24.5016 32.1269 24.41 32.366 24.4097C32.605 24.4093 32.8158 24.5005 32.9983 24.683C33.1808 24.8656 33.272 25.0763 33.2717 25.3154C33.2714 25.5544 33.1797 25.7654 32.9967 25.9484L28.351 30.5941L32.9848 35.2279C33.1673 35.4105 33.2584 35.6212 33.2581 35.8603C33.2578 36.0993 33.1662 36.3103 32.9831 36.4933Z" fill="#000E50"/>
<defs>
<linearGradient id="paint0_linear_569_21204" x1="24.2727" y1="59.824" x2="42.9768" y2="-2.16252" gradientUnits="userSpaceOnUse">
<stop stop-color="#6FF9D8"/>
<stop offset="1" stop-color="#C3B7FF"/>
</linearGradient>
</defs>
</svg>
