<svg width="14" height="14" viewBox="0 0 14 14" fill="none" xmlns="http://www.w3.org/2000/svg">
<path d="M10.9809 10.3688C11.2531 10.3688 11.4841 10.274 11.6736 10.0844C11.8632 9.8948 11.958 9.6639 11.958 9.39168C11.958 9.11945 11.8632 8.89098 11.6736 8.70626C11.4841 8.52154 11.2531 8.42918 10.9809 8.42918C10.7087 8.42918 10.4802 8.52154 10.2955 8.70626C10.1108 8.89098 10.0184 9.11945 10.0184 9.39168C10.0184 9.6639 10.1132 9.8948 10.3028 10.0844C10.4924 10.274 10.7184 10.3688 10.9809 10.3688ZM10.9809 12.3083C11.3212 12.3083 11.6275 12.233 11.8997 12.0823C12.1719 11.9316 12.3955 11.725 12.5705 11.4625C12.3275 11.3264 12.0747 11.217 11.8122 11.1344C11.5497 11.0517 11.2726 11.0104 10.9809 11.0104C10.6893 11.0104 10.4122 11.0517 10.1497 11.1344C9.88717 11.217 9.6344 11.3264 9.39134 11.4625C9.56634 11.725 9.78995 11.9316 10.0622 12.0823C10.3344 12.233 10.6406 12.3083 10.9809 12.3083ZM5.10384 4.75418H8.89551V3.39793C8.89551 2.8632 8.71079 2.40626 8.34134 2.02709C7.9719 1.64793 7.52467 1.45834 6.99967 1.45834C6.47467 1.45834 6.02745 1.64793 5.65801 2.02709C5.28856 2.40626 5.10384 2.8632 5.10384 3.39793V4.75418ZM10.9809 13.3292C10.1934 13.3292 9.52745 13.057 8.98301 12.5125C8.43856 11.9681 8.16634 11.3021 8.16634 10.5146C8.16634 9.72709 8.43856 9.06112 8.98301 8.51668C9.52745 7.97223 10.1934 7.70001 10.9809 7.70001C11.7684 7.70001 12.4344 7.97223 12.9788 8.51668C13.5233 9.06112 13.7955 9.72709 13.7955 10.5146C13.7955 11.3021 13.5233 11.9681 12.9788 12.5125C12.4344 13.057 11.7684 13.3292 10.9809 13.3292ZM8.12259 12.8333H3.20801C2.96495 12.8333 2.75836 12.7483 2.58822 12.5781C2.41808 12.408 2.33301 12.2014 2.33301 11.9583V5.62918C2.33301 5.38612 2.41808 5.17952 2.58822 5.00938C2.75836 4.83925 2.96495 4.75418 3.20801 4.75418H4.22884V3.39793C4.22884 2.62015 4.49863 1.95661 5.03822 1.4073C5.5778 0.857996 6.23162 0.583344 6.99967 0.583344C7.76773 0.583344 8.42155 0.857996 8.96113 1.4073C9.50072 1.95661 9.77051 2.62015 9.77051 3.39793V4.75418H10.7913C11.0344 4.75418 11.241 4.83925 11.4111 5.00938C11.5813 5.17952 11.6663 5.38612 11.6663 5.62918V6.89793C11.5205 6.85904 11.3747 6.83473 11.2288 6.82501C11.083 6.81529 10.9372 6.81529 10.7913 6.82501C9.79967 6.8639 8.96843 7.24063 8.29759 7.95522C7.62676 8.6698 7.29134 9.52293 7.29134 10.5146C7.29134 10.9424 7.36426 11.3531 7.51009 11.7469C7.65592 12.1406 7.86009 12.5028 8.12259 12.8333Z" fill="#95A3DF"/>
</svg>
