<svg width="25" height="24" viewBox="0 0 25 24" fill="none" xmlns="http://www.w3.org/2000/svg">
<path d="M12.5093 22C11.5093 20 3.50928 20 3.50928 14C3.50928 11 6.50928 9 4.00928 5C4.84261 4 7.70928 2 12.5093 2C17.3093 2 20.176 4 21.0093 5C18.5093 9 21.5093 11 21.5093 14C21.5093 20 14.0093 20 12.5093 22Z" stroke="#000E50" stroke-width="1.5" stroke-linecap="round" stroke-linejoin="round"/>
<path d="M12.1306 7.24239C12.2883 6.9192 12.7303 6.9192 12.888 7.24239L13.8178 9.14813C13.8795 9.27463 13.9954 9.36266 14.1296 9.38499L16.1507 9.72121C16.4932 9.77819 16.6297 10.2166 16.3848 10.4732L14.9379 11.9885C14.8421 12.0889 14.7979 12.2311 14.819 12.3711L15.1379 14.486C15.1919 14.8442 14.8344 15.1153 14.5251 14.9507L12.7022 13.9807C12.581 13.9162 12.4376 13.9162 12.3164 13.9807L10.4935 14.9507C10.1842 15.1153 9.82666 14.8442 9.88067 14.486L10.1996 12.3711C10.2207 12.2311 10.1765 12.0889 10.0807 11.9885L8.63381 10.4732C8.38887 10.2166 8.52537 9.77819 8.86791 9.72121L10.889 9.38499C11.0232 9.36266 11.1391 9.27463 11.2008 9.14813L12.1306 7.24239Z" stroke="#000E50" stroke-width="1.5" stroke-linejoin="round"/>
</svg>
