<svg width="24" height="24" viewBox="0 0 24 24" fill="none" xmlns="http://www.w3.org/2000/svg">
<path d="M7.85002 19.5C7.46669 19.5 7.12919 19.3542 6.83752 19.0625C6.54586 18.7708 6.40002 18.4333 6.40002 18.05V1.95C6.40002 1.55 6.54586 1.20833 6.83752 0.925C7.12919 0.641667 7.46669 0.5 7.85002 0.5H16.15C16.5334 0.5 16.8709 0.641667 17.1625 0.925C17.4542 1.20833 17.6 1.55 17.6 1.95V18.05C17.6 18.4333 17.4542 18.7708 17.1625 19.0625C16.8709 19.3542 16.5334 19.5 16.15 19.5H7.85002ZM16.45 16.75H7.55002V18.05C7.55002 18.15 7.57502 18.2292 7.62502 18.2875C7.67502 18.3458 7.75002 18.375 7.85002 18.375H16.15C16.25 18.375 16.325 18.3458 16.375 18.2875C16.425 18.2292 16.45 18.15 16.45 18.05V16.75ZM16.45 15.625V4.375H7.55002V15.625H16.45ZM16.45 3.25V1.95C16.45 1.85 16.425 1.77083 16.375 1.7125C16.325 1.65417 16.25 1.625 16.15 1.625H7.85002C7.75002 1.625 7.67502 1.65417 7.62502 1.7125C7.57502 1.77083 7.55002 1.85 7.55002 1.95V3.25H16.45ZM7.80002 23.875C7.61669 23.875 7.45836 23.8083 7.32502 23.675C7.19169 23.5417 7.12502 23.375 7.12502 23.175C7.12502 22.9917 7.19169 22.8292 7.32502 22.6875C7.45836 22.5458 7.62502 22.475 7.82502 22.475C8.00836 22.475 8.17086 22.5458 8.31252 22.6875C8.45419 22.8292 8.52502 23 8.52502 23.2C8.52502 23.3833 8.45419 23.5417 8.31252 23.675C8.17086 23.8083 8.00002 23.875 7.80002 23.875ZM12 23.875C11.8 23.875 11.6334 23.8083 11.5 23.675C11.3667 23.5417 11.3 23.375 11.3 23.175C11.3 22.975 11.3709 22.8083 11.5125 22.675C11.6542 22.5417 11.8167 22.475 12 22.475C12.2 22.475 12.3667 22.5458 12.5 22.6875C12.6334 22.8292 12.7 22.9917 12.7 23.175C12.7 23.375 12.6292 23.5417 12.4875 23.675C12.3459 23.8083 12.1834 23.875 12 23.875ZM16.175 23.875C15.975 23.875 15.8084 23.8083 15.675 23.675C15.5417 23.5417 15.475 23.375 15.475 23.175C15.475 22.9917 15.5459 22.8292 15.6875 22.6875C15.8292 22.5458 15.9917 22.475 16.175 22.475C16.375 22.475 16.5417 22.5458 16.675 22.6875C16.8084 22.8292 16.875 23 16.875 23.2C16.875 23.3833 16.8084 23.5417 16.675 23.675C16.5417 23.8083 16.375 23.875 16.175 23.875ZM7.55002 16.75V18.05C7.55002 18.15 7.55002 18.2292 7.55002 18.2875C7.55002 18.3458 7.55002 18.375 7.55002 18.375C7.55002 18.375 7.55002 18.3458 7.55002 18.2875C7.55002 18.2292 7.55002 18.15 7.55002 18.05V16.75ZM7.55002 1.625C7.55002 1.625 7.55002 1.65417 7.55002 1.7125C7.55002 1.77083 7.55002 1.85 7.55002 1.95V3.25V1.95C7.55002 1.85 7.55002 1.77083 7.55002 1.7125C7.55002 1.65417 7.55002 1.625 7.55002 1.625Z" fill="#000E50"/>
</svg>
