<svg width="35" height="35" viewBox="0 0 35 35" fill="none" xmlns="http://www.w3.org/2000/svg">
<path d="M7.76217 29.8959C7.19551 29.8959 6.71148 29.6893 6.31009 29.2761C5.9087 28.8629 5.70801 28.3647 5.70801 27.7813V7.21883C5.70801 6.6355 5.9087 6.13723 6.31009 5.72404C6.71148 5.31085 7.19551 5.10425 7.76217 5.10425H27.7372C28.3038 5.10425 28.7879 5.31085 29.1893 5.72404C29.5906 6.13723 29.7913 6.6355 29.7913 7.21883V27.7813C29.7913 28.3647 29.5906 28.8629 29.1893 29.2761C28.7879 29.6893 28.3038 29.8959 27.7372 29.8959H7.76217ZM7.76217 28.2553H27.7372C27.8788 28.2553 27.991 28.2128 28.0736 28.1277C28.1563 28.0426 28.1976 27.9272 28.1976 27.7813V7.21883C28.1976 7.073 28.1563 6.95755 28.0736 6.87248C27.991 6.78741 27.8788 6.74487 27.7372 6.74487H7.76217C7.62051 6.74487 7.50836 6.78741 7.42572 6.87248C7.34308 6.95755 7.30176 7.073 7.30176 7.21883V27.7813C7.30176 27.9272 7.34308 28.0426 7.42572 28.1277C7.50836 28.2128 7.62051 28.2553 7.76217 28.2553ZM17.4309 24.0626H18.0684C18.1865 24.0626 18.2868 24.02 18.3695 23.935C18.4521 23.8499 18.5052 23.7466 18.5288 23.6251L18.7413 22.2397C19.2844 22.0938 19.7389 21.9055 20.1049 21.6746C20.4709 21.4437 20.8073 21.1581 21.1143 20.8178L22.6372 21.3647C22.7552 21.4133 22.8733 21.4133 22.9913 21.3647C23.1094 21.3161 23.192 21.2431 23.2393 21.1459L23.5226 20.4532C23.5698 20.356 23.5816 20.2466 23.558 20.1251C23.5344 20.0036 23.4636 19.9063 23.3455 19.8334L22.2122 19.0678C22.3538 18.5088 22.4247 17.9862 22.4247 17.5001C22.4247 17.014 22.3538 16.4914 22.2122 15.9324L23.3455 15.1667C23.4636 15.0938 23.5344 14.9966 23.558 14.8751C23.5816 14.7536 23.5698 14.6442 23.5226 14.547L23.2393 13.8542C23.192 13.757 23.1094 13.6841 22.9913 13.6355C22.8733 13.5869 22.7552 13.5869 22.6372 13.6355L21.1143 14.1824C20.8073 13.8421 20.4709 13.5565 20.1049 13.3256C19.7389 13.0947 19.2844 12.9063 18.7413 12.7605L18.5288 11.3751C18.5052 11.2536 18.458 11.1503 18.3872 11.0652C18.3163 10.9801 18.2101 10.9376 18.0684 10.9376H17.4309C17.3129 10.9376 17.2125 10.9801 17.1299 11.0652C17.0472 11.1503 16.9941 11.2536 16.9705 11.3751L16.758 12.7605C16.215 12.9063 15.7604 13.0947 15.3945 13.3256C15.0285 13.5565 14.692 13.8421 14.3851 14.1824L12.8622 13.6355C12.7441 13.5869 12.6261 13.5869 12.508 13.6355C12.39 13.6841 12.3073 13.757 12.2601 13.8542L11.9768 14.547C11.9295 14.6442 11.9177 14.7536 11.9413 14.8751C11.965 14.9966 12.0358 15.0938 12.1538 15.1667L13.2872 15.9324C13.1455 16.4914 13.0747 17.014 13.0747 17.5001C13.0747 17.9862 13.1455 18.5088 13.2872 19.0678L12.1538 19.8334C12.0358 19.9063 11.965 19.9975 11.9413 20.1069C11.9177 20.2162 11.9295 20.3317 11.9768 20.4532L12.2247 21.1095C12.2719 21.231 12.3604 21.3161 12.4903 21.3647C12.6202 21.4133 12.7441 21.4133 12.8622 21.3647L14.3851 20.8178C14.692 21.1581 15.0285 21.4437 15.3945 21.6746C15.7604 21.9055 16.215 22.0938 16.758 22.2397L16.9705 23.6251C16.9941 23.7466 17.0413 23.8499 17.1122 23.935C17.183 24.02 17.2893 24.0626 17.4309 24.0626ZM17.7497 20.5261C16.9233 20.5261 16.2268 20.2345 15.6601 19.6511C15.0934 19.0678 14.8101 18.3508 14.8101 17.5001C14.8101 16.6494 15.0934 15.9263 15.6601 15.3308C16.2268 14.7353 16.9233 14.4376 17.7497 14.4376C18.5761 14.4376 19.2785 14.7353 19.857 15.3308C20.4354 15.9263 20.7247 16.6494 20.7247 17.5001C20.7247 18.3508 20.4354 19.0678 19.857 19.6511C19.2785 20.2345 18.5761 20.5261 17.7497 20.5261ZM7.30176 28.2553C7.30176 28.2553 7.30176 28.2128 7.30176 28.1277C7.30176 28.0426 7.30176 27.9272 7.30176 27.7813V7.21883C7.30176 7.073 7.30176 6.95755 7.30176 6.87248C7.30176 6.78741 7.30176 6.74487 7.30176 6.74487C7.30176 6.74487 7.30176 6.78741 7.30176 6.87248C7.30176 6.95755 7.30176 7.073 7.30176 7.21883V27.7813C7.30176 27.9272 7.30176 28.0426 7.30176 28.1277C7.30176 28.2128 7.30176 28.2553 7.30176 28.2553Z" fill="#000E50"/>
</svg>
