<svg width="24" height="24" viewBox="0 0 24 24" fill="none" xmlns="http://www.w3.org/2000/svg">
<path d="M11.975 15.3248C11.7583 15.3248 11.5792 15.254 11.4375 15.1123C11.2958 14.9706 11.225 14.7915 11.225 14.5748V3.8998L9.55 5.5748C9.41667 5.70814 9.24583 5.77481 9.0375 5.77481C8.82917 5.77481 8.65 5.6998 8.5 5.5498C8.35 5.3998 8.275 5.22064 8.275 5.0123C8.275 4.80397 8.35 4.6248 8.5 4.4748L11.45 1.5248C11.5333 1.44147 11.6167 1.38314 11.7 1.3498C11.7833 1.31647 11.875 1.2998 11.975 1.2998C12.075 1.2998 12.1667 1.31647 12.25 1.3498C12.3333 1.38314 12.4167 1.44147 12.5 1.5248L15.475 4.4998C15.6083 4.63314 15.6792 4.80397 15.6875 5.0123C15.6958 5.22064 15.625 5.3998 15.475 5.5498C15.325 5.6998 15.1458 5.77481 14.9375 5.77481C14.7292 5.77481 14.55 5.6998 14.4 5.5498L12.725 3.8998V14.5748C12.725 14.7915 12.6542 14.9706 12.5125 15.1123C12.3708 15.254 12.1917 15.3248 11.975 15.3248ZM5.5 22.9998C5.1 22.9998 4.75 22.8498 4.45 22.5498C4.15 22.2498 4 21.8998 4 21.4998V8.7748C4 8.3748 4.15 8.02481 4.45 7.7248C4.75 7.4248 5.1 7.27481 5.5 7.27481H8.975C9.19167 7.27481 9.37083 7.34564 9.5125 7.4873C9.65417 7.62897 9.725 7.80814 9.725 8.0248C9.725 8.24147 9.65417 8.42064 9.5125 8.5623C9.37083 8.70397 9.19167 8.7748 8.975 8.7748H5.5V21.4998H18.5V8.7748H14.975C14.7583 8.7748 14.5792 8.70397 14.4375 8.5623C14.2958 8.42064 14.225 8.24147 14.225 8.0248C14.225 7.80814 14.2958 7.62897 14.4375 7.4873C14.5792 7.34564 14.7583 7.27481 14.975 7.27481H18.5C18.9 7.27481 19.25 7.4248 19.55 7.7248C19.85 8.02481 20 8.3748 20 8.7748V21.4998C20 21.8998 19.85 22.2498 19.55 22.5498C19.25 22.8498 18.9 22.9998 18.5 22.9998H5.5Z" fill="#000728"/>
</svg>
