<svg width="25" height="24" viewBox="0 0 25 24" fill="none" xmlns="http://www.w3.org/2000/svg">
<path d="M23.004 17.25H22.254V5.42812L23.1606 5.23312C23.259 5.21467 23.3527 5.1767 23.4362 5.12146C23.5197 5.06623 23.5912 4.99483 23.6467 4.91149C23.7022 4.82816 23.7404 4.73456 23.7591 4.63621C23.7778 4.53787 23.7767 4.43678 23.7557 4.33889C23.7347 4.241 23.6944 4.1483 23.637 4.06625C23.5797 3.98421 23.5065 3.91447 23.4217 3.86116C23.337 3.80785 23.2425 3.77204 23.1437 3.75585C23.0449 3.73966 22.9438 3.7434 22.8465 3.76687L1.84653 8.26687C1.66561 8.30591 1.50552 8.41046 1.39705 8.56042C1.28857 8.71038 1.23938 8.89515 1.25892 9.0792C1.27847 9.26324 1.36537 9.43356 1.50292 9.55739C1.64047 9.68122 1.81895 9.74982 2.00403 9.74999C2.05728 9.7499 2.11038 9.74424 2.16247 9.73312L2.75403 9.60656V17.25H2.00403C1.80512 17.25 1.61435 17.329 1.4737 17.4697C1.33305 17.6103 1.25403 17.8011 1.25403 18C1.25403 18.1989 1.33305 18.3897 1.4737 18.5303C1.61435 18.671 1.80512 18.75 2.00403 18.75H23.004C23.2029 18.75 23.3937 18.671 23.5344 18.5303C23.675 18.3897 23.754 18.1989 23.754 18C23.754 17.8011 23.675 17.6103 23.5344 17.4697C23.3937 17.329 23.2029 17.25 23.004 17.25ZM4.25403 9.28124L20.754 5.74968V17.25H18.504V12C18.504 11.8011 18.425 11.6103 18.2844 11.4697C18.1437 11.329 17.9529 11.25 17.754 11.25H7.25403C7.05512 11.25 6.86435 11.329 6.7237 11.4697C6.58305 11.6103 6.50403 11.8011 6.50403 12V17.25H4.25403V9.28124ZM17.004 14.25H8.00403V12.75H17.004V14.25ZM8.00403 15.75H17.004V17.25H8.00403V15.75Z" fill="#000E50"/>
</svg>
