<svg width="35" height="36" viewBox="0 0 35 36" fill="none" xmlns="http://www.w3.org/2000/svg">
<path d="M17.8182 6L26.7821 7.99198C27.2813 8.1029 27.6364 8.5456 27.6364 9.05691V19.9515C27.6364 22.14 26.5426 24.1837 24.7217 25.3977L17.8182 30L10.9147 25.3977C9.09376 24.1837 8 22.14 8 19.9515V9.05691C8 8.5456 8.35512 8.1029 8.85426 7.99198L17.8182 6ZM17.8182 8.23504L10.1818 9.93201V19.9515C10.1818 21.4105 10.911 22.7729 12.1249 23.5823L17.8182 27.3778L23.5114 23.5823C24.7254 22.7729 25.4545 21.4105 25.4545 19.9515V9.93201L17.8182 8.23504ZM22.6753 13.8784L24.2181 15.4211L17.2756 22.3636L12.6473 17.7353L14.19 16.1925L17.2748 19.2773L22.6753 13.8784Z" fill="#000E50" stroke="white" stroke-width="0.7"/>
</svg>
