<svg width="35" height="35" viewBox="0 0 35 35" fill="none" xmlns="http://www.w3.org/2000/svg">
<path d="M7.76217 29.8959C7.19551 29.8959 6.71148 29.6893 6.31009 29.2761C5.9087 28.8629 5.70801 28.3647 5.70801 27.7813V7.21883C5.70801 6.6355 5.9087 6.13723 6.31009 5.72404C6.71148 5.31085 7.19551 5.10425 7.76217 5.10425H27.7372C28.3038 5.10425 28.7879 5.31085 29.1893 5.72404C29.5906 6.13723 29.7913 6.6355 29.7913 7.21883V27.7813C29.7913 28.3647 29.5906 28.8629 29.1893 29.2761C28.7879 29.6893 28.3038 29.8959 27.7372 29.8959H7.76217ZM7.76217 28.2553H16.9351V6.74487H7.76217C7.64412 6.74487 7.53787 6.79348 7.44342 6.89071C7.34898 6.98793 7.30176 7.0973 7.30176 7.21883V27.7813C7.30176 27.9029 7.34898 28.0122 7.44342 28.1095C7.53787 28.2067 7.64412 28.2553 7.76217 28.2553ZM18.5643 28.2553H27.7372C27.8552 28.2553 27.9615 28.2067 28.0559 28.1095C28.1504 28.0122 28.1976 27.9029 28.1976 27.7813V17.4636H18.5643V28.2553ZM18.5643 15.823H28.1976V7.21883C28.1976 7.0973 28.1504 6.98793 28.0559 6.89071C27.9615 6.79348 27.8552 6.74487 27.7372 6.74487H18.5643V15.823Z" fill="#000E50"/>
</svg>
