<svg width="24" height="24" viewBox="0 0 24 24" fill="none" xmlns="http://www.w3.org/2000/svg">
<mask id="mask0_116_6186" style="mask-type:luminance" maskUnits="userSpaceOnUse" x="0" y="0" width="24" height="24">
<rect width="24" height="24" fill="white"/>
</mask>
<g mask="url(#mask0_116_6186)">
<path d="M3.7781 7.31507L3.778 7.31489C3.75496 7.2752 3.75 7.24798 3.75 7.22222C3.75 7.19646 3.75496 7.16925 3.778 7.12956L3.7781 7.12938L5.6827 3.84561C5.68272 3.84557 5.68274 3.84554 5.68276 3.8455C5.68278 3.84548 5.68279 3.84545 5.68281 3.84543C5.70717 3.8035 5.72965 3.78451 5.75221 3.77139C5.77223 3.75974 5.79761 3.75 5.8453 3.75H9.6547C9.70239 3.75 9.72777 3.75974 9.74779 3.77139L10.125 3.12315L9.74779 3.77139C9.77035 3.78451 9.79283 3.8035 9.81719 3.84543C9.81723 3.84549 9.81726 3.84555 9.8173 3.84561L11.7219 7.12938L11.722 7.12956C11.745 7.16925 11.75 7.19646 11.75 7.22222C11.75 7.24798 11.745 7.2752 11.722 7.31489L11.7219 7.31507L9.8173 10.5988C9.79289 10.6409 9.77038 10.6599 9.74779 10.6731C9.72777 10.6847 9.7024 10.6944 9.6547 10.6944H5.8453C5.7976 10.6944 5.77223 10.6847 5.75221 10.6731C5.72962 10.6599 5.70711 10.6409 5.6827 10.5988L3.7781 7.31507Z" stroke="#666E96" stroke-width="1.5"/>
<path d="M3.7781 17.3151L3.778 17.3149C3.75496 17.2752 3.75 17.248 3.75 17.2222C3.75 17.1965 3.75496 17.1692 3.778 17.1296L3.7781 17.1294L5.6827 13.8456C5.68272 13.8456 5.68274 13.8455 5.68276 13.8455C5.68278 13.8455 5.68279 13.8455 5.68281 13.8454C5.70717 13.8035 5.72965 13.7845 5.75221 13.7714C5.77223 13.7597 5.79761 13.75 5.8453 13.75H9.6547C9.70239 13.75 9.72777 13.7597 9.74779 13.7714L10.125 13.1231L9.74779 13.7714C9.77035 13.7845 9.79283 13.8035 9.81719 13.8454C9.81723 13.8455 9.81726 13.8455 9.8173 13.8456L11.7219 17.1294L11.722 17.1296C11.745 17.1692 11.75 17.1965 11.75 17.2222C11.75 17.248 11.745 17.2752 11.722 17.3149L11.7219 17.3151L9.8173 20.5988C9.79289 20.6409 9.77038 20.6599 9.74779 20.6731C9.72777 20.6847 9.7024 20.6944 9.6547 20.6944H5.8453C5.7976 20.6944 5.77223 20.6847 5.75221 20.6731C5.72962 20.6599 5.70711 20.6409 5.6827 20.5988L3.7781 17.3151Z" stroke="#666E96" stroke-width="1.5"/>
<path d="M12.7781 12.3151L12.778 12.3149C12.755 12.2752 12.75 12.248 12.75 12.2222C12.75 12.1965 12.755 12.1692 12.778 12.1296L12.7781 12.1294L14.6827 8.84561C14.6827 8.84557 14.6827 8.84554 14.6828 8.8455C14.6828 8.84548 14.6828 8.84545 14.6828 8.84543C14.7072 8.8035 14.7296 8.78451 14.7522 8.77139C14.7722 8.75974 14.7976 8.75 14.8453 8.75H18.6547C18.7024 8.75 18.7278 8.75974 18.7478 8.77139L19.125 8.12315L18.7478 8.77139C18.7704 8.78451 18.7928 8.8035 18.8172 8.84543C18.8172 8.84549 18.8173 8.84555 18.8173 8.84561L20.7219 12.1294L20.722 12.1296C20.745 12.1692 20.75 12.1965 20.75 12.2222C20.75 12.248 20.745 12.2752 20.722 12.3149L20.7219 12.3151L18.8173 15.5988C18.7929 15.6409 18.7704 15.6599 18.7478 15.6731C18.7278 15.6847 18.7024 15.6944 18.6547 15.6944H14.8453C14.7976 15.6944 14.7722 15.6847 14.7522 15.6731C14.7296 15.6599 14.7071 15.6409 14.6827 15.5988L12.7781 12.3151Z" stroke="#666E96" stroke-width="1.5"/>
</g>
</svg>
