<?xml version="1.0" encoding="UTF-8"?>
<svg width="632" height="165" viewBox="0 0 632 165" fill="none" xmlns="http://www.w3.org/2000/svg">
  <g clip-path="url(#clip0_2184_8535)">
    <path d="M598.2 148.6L595 156L592.8 164.3L587.6 163L592.8 148.2C568.2 146.7 366.8 145 350 144.2C333.2 143.5 108 143.8 92.6 143.8C63 143.8 32.1 145.3 0 148.4C15.7 95.5 32.5 52.5 50.6 19.4L55.4 22C38.9 51.6 23 91.7 7.4 142.3C36 139.7 64.3 138.4 92.2 138.4C119.5 138.4 546.8 139.9 594.1 143C608.5 90.5 619 44.7 625.7 5.7L110.3 10.3L43.6 12.9V7.6C89.3 6 545.4 3.5 631.8 0C625 41.4 614.2 89.2 599.6 143.4L613.8 144.3L613.4 149.5L598.2 148.6Z" fill="#4285F4"/>
  </g>
  <defs>
    <clipPath id="clip0_2184_8535">
      <rect width="631.8" height="164.3" fill="white"/>
    </clipPath>
  </defs>
</svg>
