<svg width="76" height="26" viewBox="0 0 76 26" fill="none" xmlns="http://www.w3.org/2000/svg">
<g clip-path="url(#clip0_842_8570)">
<path d="M4.63253 6.55914C7.7272 4.53763 12.2648 2.92473 18.2453 1.76344C24.2258 0.580645 31.3835 0 39.7182 0C44.2748 0 49.2111 0.258065 54.5271 0.752688C59.8431 1.24731 64.7604 2.36559 69.2601 4.08602C73.7597 5.80645 76 8.32258 76 11.6344C76 14.7312 74.0445 17.3548 70.1334 19.5269C66.2223 21.6989 61.6088 23.3118 56.3308 24.4086C51.0527 25.5054 46.5151 26.0215 42.699 26.0215C36.1869 26.0215 30.605 25.6559 25.9535 24.9462C23.5044 25.3548 21.0362 25.5484 18.5871 25.5484C15.4734 25.5484 12.4736 25.0108 9.6068 23.9355C6.73994 22.8602 4.42368 21.3979 2.65801 19.5484C0.892331 17.6989 0 15.6774 0 13.4409C0 10.8817 1.53785 8.58065 4.63253 6.55914ZM25.9346 23.8065C28.8584 23.2688 32.01 22.2366 35.4084 20.7097L35.7312 21.7419C33.396 22.7957 31.1556 23.6344 29.0292 24.2366C32.9973 24.6667 37.5538 24.8817 42.68 24.8817C46.3822 24.8817 50.7869 24.3656 55.9321 23.3333C61.0772 22.3011 65.5388 20.7957 69.317 18.7957C73.1142 16.7957 74.9938 14.4086 74.9938 11.6129C74.9938 8.66667 72.8294 6.43011 68.4816 4.86022C64.1339 3.29032 59.3495 2.27957 54.1094 1.80645C48.8694 1.33333 44.066 1.09677 39.7182 1.09677C31.5543 1.09677 24.5486 1.65591 18.701 2.75269C12.8534 3.87097 8.44866 5.35484 5.4679 7.2043C2.48713 9.09677 0.98726 11.1613 0.98726 13.4409C0.98726 15.4194 1.82263 17.2473 3.47439 18.9247C5.12616 20.6021 7.30952 21.957 10.0055 22.9247C12.7015 23.914 15.5683 24.4086 18.5681 24.4086C19.8971 24.4086 21.1501 24.3656 22.3273 24.2581C18.4731 23.4409 14.9228 22.3441 11.6952 20.9677L12.018 19.9355C16.1569 21.6774 20.7894 22.9677 25.9346 23.8065Z" fill="#6FF9D8"/>
</g>
<defs>
<clipPath id="clip0_842_8570">
<rect width="76" height="26" fill="white"/>
</clipPath>
</defs>
</svg>
