<?xml version="1.0" encoding="UTF-8"?>
<svg width="49" height="48" viewBox="0 0 49 48" fill="none" xmlns="http://www.w3.org/2000/svg">
  <g clip-path="url(#clip0_567_11883)">
    <path d="M10.3842 25.7956L10.9405 27.0095C7.27352 28.5269 3.93527 30.2972 0.976366 32.3456L0.192383 31.2329C3.50534 29.0327 6.89417 27.2118 10.3842 25.7956ZM2.94897 18.6133C4.64338 19.4984 5.95845 20.156 6.89417 20.5859C7.8299 21.0158 8.84149 21.3952 9.90366 21.6986L9.5496 23.039C7.67816 22.4826 5.25034 21.4204 2.26614 19.8525L2.94897 18.6133ZM13.1913 29.8166L14.1776 30.6006C10.9911 34.7229 7.70345 39.275 4.3652 44.2571L3.25245 43.4731C6.76772 38.2634 10.0807 33.7113 13.1913 29.8166ZM5.25034 9.53425L6.36309 8.75026C8.61388 12.1391 10.8394 15.3509 13.0902 18.411L11.9774 19.1949C9.75192 16.1349 7.50113 12.9231 5.25034 9.53425ZM13.6465 3.79347C14.3799 5.76607 15.2145 8.1686 16.1755 10.9505L18.047 16.2866L16.8331 16.7165L14.9616 11.3804C14.0006 8.59852 13.166 6.196 12.4326 4.22339L13.6465 3.79347ZM17.8194 32.295L19.1344 32.5227C18.5022 37.2013 17.7182 42.1833 16.7572 47.5195L15.4421 47.2919C16.4031 41.9557 17.2124 36.9484 17.8194 32.295ZM23.459 0H24.774C24.5464 6.82824 24.3694 11.9621 24.2177 15.3762L22.9026 15.275C23.0543 11.9115 23.2314 6.82824 23.459 0ZM24.4453 33.7871C25.0017 39.7808 25.4063 44.4847 25.7098 47.8988L24.3947 48C24.0912 44.5859 23.6866 39.882 23.1302 33.8883L24.4453 33.7871ZM28.8457 31.9663C30.009 35.3551 31.2988 39.3762 32.715 44.0801L31.4 44.4089C30.4137 40.7418 29.1492 36.7208 27.6571 32.3962L28.8457 31.9663ZM35.5728 7.81454L36.5591 8.69968L29.4021 16.3119L28.4158 15.4268L35.5728 7.81454ZM32.8162 28.5522C34.1313 29.6649 36.1292 31.2835 38.7593 33.4078L42.6286 36.4931L41.7941 37.53C40.479 36.4173 38.4811 34.824 35.851 32.6744L31.9816 29.589L32.8162 28.5522ZM44.6012 12.4426L45.4864 13.4289C41.8194 16.9189 37.5707 19.3973 32.7656 20.8641L32.3357 19.6502C36.989 18.2339 41.086 15.8314 44.6012 12.4426ZM47.813 22.255L48.1418 23.5701C44.8794 24.3793 40.0996 25.0116 33.8025 25.4921L33.7013 24.177C39.8973 23.7218 44.6012 23.0643 47.813 22.255Z" fill="#4285F4"/>
  </g>
  <defs>
    <clipPath id="clip0_567_11883">
      <rect width="47.9494" height="48" fill="white" transform="translate(0.192383)"/>
    </clipPath>
  </defs>
</svg>
