<svg width="25" height="25" viewBox="0 0 25 25" fill="none" xmlns="http://www.w3.org/2000/svg">
<path d="M23 18.5H22.25V12.741L22.3897 12.936C22.4449 13.0209 22.5167 13.0938 22.6009 13.1502C22.685 13.2066 22.7797 13.2454 22.8793 13.2642C22.9788 13.283 23.0812 13.2815 23.1801 13.2596C23.279 13.2378 23.3725 13.1962 23.4549 13.1372C23.5373 13.0783 23.6069 13.0033 23.6595 12.9167C23.7121 12.8301 23.7466 12.7337 23.761 12.6335C23.7753 12.5332 23.7692 12.431 23.743 12.3332C23.7168 12.2353 23.671 12.1438 23.6084 12.0641L19.8584 6.81408C19.8071 6.74295 19.7436 6.68139 19.6709 6.6322L13.3437 2.2597L13.3344 2.25314C13.0879 2.08868 12.7982 2.00092 12.5019 2.00092C12.2055 2.00092 11.9159 2.08868 11.6694 2.25314L11.66 2.2597L5.32343 6.63314C5.25077 6.68233 5.18731 6.74389 5.13593 6.81502L1.38593 12.065C1.32337 12.1447 1.2776 12.2362 1.25138 12.3341C1.22516 12.4319 1.21904 12.5341 1.23339 12.6344C1.24774 12.7347 1.28225 12.831 1.33486 12.9176C1.38746 13.0042 1.45706 13.0792 1.53946 13.1382C1.62185 13.1971 1.71534 13.2387 1.81427 13.2606C1.9132 13.2824 2.01553 13.2839 2.11508 13.2651C2.21463 13.2463 2.30933 13.2075 2.39348 13.1511C2.47763 13.0947 2.54947 13.0218 2.60468 12.9369L2.74999 12.741V18.5H1.99999C1.80108 18.5 1.61032 18.579 1.46966 18.7197C1.32901 18.8603 1.24999 19.0511 1.24999 19.25C1.24999 19.4489 1.32901 19.6397 1.46966 19.7803C1.61032 19.921 1.80108 20 1.99999 20H23C23.1989 20 23.3897 19.921 23.5303 19.7803C23.671 19.6397 23.75 19.4489 23.75 19.25C23.75 19.0511 23.671 18.8603 23.5303 18.7197C23.3897 18.579 23.1989 18.5 23 18.5ZM4.24999 10.641L6.28437 7.79283L12.5 3.50002L18.7156 7.79189L20.75 10.641V18.5H18.5V11.75C18.5 11.5511 18.421 11.3603 18.2803 11.2197C18.1397 11.079 17.9489 11 17.75 11H7.24999C7.05108 11 6.86032 11.079 6.71966 11.2197C6.57901 11.3603 6.49999 11.5511 6.49999 11.75V18.5H4.24999V10.641ZM12.5 14.5785L9.59374 12.5H15.4062L12.5 14.5785ZM17 13.2078V17.7931L13.79 15.5L17 13.2078ZM11.21 15.5L7.99999 17.7931V13.2078L11.21 15.5ZM12.5 16.4216L15.4062 18.5H9.59374L12.5 16.4216ZM10.25 8.75002C10.25 8.5511 10.329 8.36034 10.4697 8.21969C10.6103 8.07903 10.8011 8.00002 11 8.00002H14C14.1989 8.00002 14.3897 8.07903 14.5303 8.21969C14.671 8.36034 14.75 8.5511 14.75 8.75002C14.75 8.94893 14.671 9.13969 14.5303 9.28035C14.3897 9.421 14.1989 9.50002 14 9.50002H11C10.8011 9.50002 10.6103 9.421 10.4697 9.28035C10.329 9.13969 10.25 8.94893 10.25 8.75002Z" fill="#000E50"/>
</svg>
