<svg width="32" height="33" viewBox="0 0 32 33" fill="none" xmlns="http://www.w3.org/2000/svg">
<path d="M22.5385 3.4231V6.03848H26.4702C27.1876 6.03848 27.7692 6.62034 27.7692 7.33754V28.2779C27.7692 28.9953 27.1874 29.5769 26.4702 29.5769H5.52983C4.81238 29.5769 4.23077 28.9951 4.23077 28.2779V7.33754C4.23077 6.62009 4.81263 6.03848 5.52983 6.03848H9.46154V3.4231H22.5385ZM9.46154 8.65386H6.84615V26.9616H25.1538V8.65386H22.5385V11.2692H9.46154V8.65386ZM12.0769 21.7308V24.3462H9.46154V21.7308H12.0769ZM12.0769 17.8077V20.4231H9.46154V17.8077H12.0769ZM12.0769 13.8846V16.5H9.46154V13.8846H12.0769ZM19.9231 6.03848H12.0769V8.65386H19.9231V6.03848Z" fill="#000E50" stroke="white"/>
</svg>
