<svg width="25" height="24" viewBox="0 0 25 24" fill="none" xmlns="http://www.w3.org/2000/svg">
<path d="M21.5 15L14.5 21.9959" stroke="#000E50" stroke-width="1.5" stroke-linecap="round" stroke-linejoin="round"/>
<path d="M15.25 16.4982C15.6642 16.4982 16 16.1628 16 15.7491C16 15.3354 15.6642 15 15.25 15C14.8358 15 14.5 15.3354 14.5 15.7491C14.5 16.1628 14.8358 16.4982 15.25 16.4982Z" stroke="#000E50" stroke-width="1.5" stroke-linecap="round" stroke-linejoin="round"/>
<path d="M20.75 21.9948C21.1642 21.9948 21.5 21.6594 21.5 21.2457C21.5 20.832 21.1642 20.4966 20.75 20.4966C20.3358 20.4966 20 20.832 20 21.2457C20 21.6594 20.3358 21.9948 20.75 21.9948Z" stroke="#000E50" stroke-width="1.5" stroke-linecap="round" stroke-linejoin="round"/>
<path d="M12.4961 7H12.5051" stroke="#000E50" stroke-width="2" stroke-linecap="round" stroke-linejoin="round"/>
<path d="M5.5 9.99512V18.9998M9.5 9.99512V18.9998" stroke="#000E50" stroke-width="1.5" stroke-linecap="square" stroke-linejoin="round"/>
<path d="M11.5 19H3.5L3.5003 21.9999H11.5" stroke="#000E50" stroke-width="1.5" stroke-linecap="round" stroke-linejoin="round"/>
<path d="M3.5 7L12.5 2L21.5 7V9.99502H3.5V7Z" stroke="#000E50" stroke-width="1.5" stroke-linejoin="round"/>
</svg>
