<svg width="24" height="24" viewBox="0 0 24 24" fill="none" xmlns="http://www.w3.org/2000/svg">
<path d="M22.4974 7.5C22.4974 6.50544 22.1023 5.55161 21.399 4.84835C20.6958 4.14509 19.7419 3.75 18.7474 3.75H4.49736C3.63625 3.75052 2.80154 4.04739 2.13349 4.59074C1.46543 5.13408 1.00472 5.89079 0.828762 6.73374C0.652804 7.57669 0.772317 8.45451 1.16722 9.21974C1.56213 9.98497 2.20837 10.591 2.99736 10.9359V18.75C2.99736 19.1478 3.1554 19.5294 3.4367 19.8107C3.71801 20.092 4.09954 20.25 4.49736 20.25H18.7474C19.1452 20.25 19.5267 20.092 19.808 19.8107C20.0893 19.5294 20.2474 19.1478 20.2474 18.75V10.9359C20.9155 10.6435 21.4841 10.1629 21.8836 9.55278C22.2832 8.94263 22.4965 8.22934 22.4974 7.5ZM4.49736 11.25C4.69628 11.25 4.88704 11.171 5.02769 11.0303C5.16835 10.8897 5.24736 10.6989 5.24736 10.5C5.24736 10.3011 5.16835 10.1103 5.02769 9.96967C4.88704 9.82902 4.69628 9.75 4.49736 9.75C3.90063 9.75 3.32833 9.51295 2.90637 9.09099C2.48442 8.66903 2.24736 8.09674 2.24736 7.5C2.24736 6.90326 2.48442 6.33097 2.90637 5.90901C3.32833 5.48705 3.90063 5.25 4.49736 5.25H13.4974C14.0941 5.25 14.6664 5.48705 15.0884 5.90901C15.5103 6.33097 15.7474 6.90326 15.7474 7.5C15.7474 8.09674 15.5103 8.66903 15.0884 9.09099C14.6664 9.51295 14.0941 9.75 13.4974 9.75C13.2985 9.75 13.1077 9.82902 12.967 9.96967C12.8264 10.1103 12.7474 10.3011 12.7474 10.5C12.7474 10.6989 12.8264 10.8897 12.967 11.0303C13.1077 11.171 13.2985 11.25 13.4974 11.25V18.75H4.49736V11.25ZM18.7474 9.75C18.5485 9.75 18.3577 9.82902 18.217 9.96967C18.0764 10.1103 17.9974 10.3011 17.9974 10.5C17.9974 10.6989 18.0764 10.8897 18.217 11.0303C18.3577 11.171 18.5485 11.25 18.7474 11.25V18.75H14.9974V10.9359C15.5157 10.7096 15.9762 10.3689 16.3443 9.93943C16.7123 9.50993 16.9785 9.00273 17.1228 8.45581C17.267 7.90888 17.2857 7.33641 17.1774 6.78124C17.0691 6.22607 16.8366 5.70259 16.4974 5.25H18.7474C19.3441 5.25 19.9164 5.48705 20.3384 5.90901C20.7603 6.33097 20.9974 6.90326 20.9974 7.5C20.9974 8.09674 20.7603 8.66903 20.3384 9.09099C19.9164 9.51295 19.3441 9.75 18.7474 9.75Z" fill="#000E50"/>
</svg>
