<svg width="24" height="25" viewBox="0 0 24 25" fill="none" xmlns="http://www.w3.org/2000/svg">
<path d="M19.9987 3.5H3.99866C2.89409 3.5 1.99866 4.39543 1.99866 5.5V17.5C1.99866 18.6046 2.89409 19.5 3.99866 19.5H19.9987C21.1033 19.5 21.9987 18.6046 21.9987 17.5V5.5C21.9987 4.39543 21.1033 3.5 19.9987 3.5Z" stroke="#000E50" stroke-width="1.5" stroke-linejoin="round"/>
<path d="M15.4987 6.5H5.49866C5.22252 6.5 4.99866 6.72386 4.99866 7V16C4.99866 16.2761 5.22252 16.5 5.49866 16.5H15.4987C15.7748 16.5 15.9987 16.2761 15.9987 16V7C15.9987 6.72386 15.7748 6.5 15.4987 6.5Z" stroke="#000E50" stroke-width="1.5" stroke-linejoin="round"/>
<path d="M18.9987 6.50895V6.5M18.9987 9.50447V9.49553M18.9987 12.5V12.4911" stroke="#000E50" stroke-width="1.5" stroke-linecap="round" stroke-linejoin="round"/>
<path d="M4.99866 19.5V21.5M18.9987 19.5V21.5" stroke="#000E50" stroke-width="1.5" stroke-linecap="round" stroke-linejoin="round"/>
</svg>
