<svg width="25" height="26" viewBox="0 0 25 26" fill="none" xmlns="http://www.w3.org/2000/svg">
<path d="M20.6404 9.37695V20.4948C20.6404 21.6111 19.7355 22.5161 18.6192 22.5163L16.092 22.5166M4.46851 9.37695V20.4945C4.46851 21.611 5.37355 22.516 6.48999 22.516H11.5437C12.1019 22.516 12.5544 22.0635 12.5544 21.5052V18.979" stroke="#000E50" stroke-width="1.51611" stroke-linecap="round" stroke-linejoin="round"/>
<path d="M22.6619 10.8931L13.7673 4.22217C13.0486 3.68311 12.0603 3.68311 11.3416 4.22217L2.44702 10.8931" stroke="#000E50" stroke-width="1.51611" stroke-linecap="round" stroke-linejoin="round"/>
<path d="M10.533 12.9146H9.01685V15.6407C9.01685 15.8402 9.07591 16.0354 9.1866 16.2014L10.7382 18.5289C10.9257 18.8101 11.2413 18.979 11.5793 18.979H13.5296C13.8676 18.979 14.1832 18.8101 14.3706 18.5289L15.9223 16.2014C16.033 16.0354 16.092 15.8402 16.092 15.6407V12.9146H14.5759M10.533 12.9146V10.8931M10.533 12.9146H14.5759M14.5759 12.9146V10.8931" stroke="#000E50" stroke-width="1.51611" stroke-linecap="round" stroke-linejoin="round"/>
</svg>
