<svg width="34" height="34" viewBox="0 0 34 34" fill="none" xmlns="http://www.w3.org/2000/svg">
<path d="M22.4382 12.125H20V10.625C20 7.52338 17.4766 5 14.375 5C11.2734 5 8.75 7.52338 8.75 10.625V23.4693C6.61302 23.9048 5 25.7988 5 28.0625V29H14.375V28.0625C14.375 25.7988 12.762 23.9048 10.625 23.4693V10.625C10.625 8.55725 12.3073 6.875 14.375 6.875C16.4427 6.875 18.125 8.55725 18.125 10.625V21.6187C16.5094 22.036 15.3125 23.5058 15.3125 25.25C15.3125 27.3177 16.9948 29 19.0625 29H29V18.6875C29 15.0689 26.0564 12.125 22.4382 12.125ZM12.3394 27.125H7.03564C7.42255 26.0337 8.46523 25.25 9.6875 25.25C10.9098 25.25 11.9524 26.0337 12.3394 27.125ZM20 14H22.4382C25.0225 14 27.125 16.1028 27.125 18.6875V21.5H26.1875C25.6706 21.5 25.25 21.0794 25.25 20.5625V18.6866C25.25 17.1363 23.9887 15.875 22.4384 15.875H20V14ZM17.1875 25.25C17.1875 24.2161 18.0286 23.375 19.0625 23.375C20.0964 23.375 20.9375 24.2161 20.9375 25.25C20.9375 26.2839 20.0964 27.125 19.0625 27.125C18.0286 27.125 17.1875 26.2839 17.1875 25.25ZM22.308 27.125C22.6281 26.573 22.8125 25.9328 22.8125 25.25C22.8125 23.5058 21.6156 22.036 20 21.6187V17.75H22.4384C22.9549 17.75 23.375 18.1701 23.375 18.6866V20.5625C23.375 22.1133 24.6367 23.375 26.1875 23.375H27.125V27.125H22.308Z" fill="#000E50"/>
</svg>
