<svg width="40" height="12" viewBox="0 0 40 12" fill="none" xmlns="http://www.w3.org/2000/svg">
<g clip-path="url(#clip0_576_375)">
<path fill-rule="evenodd" clip-rule="evenodd" d="M16.1674 0.19688L14.1313 11.8109H17.3888L19.4251 0.19688H16.1674ZM11.3906 0.19688L8.28484 8.18493L7.91746 6.46483L7.91772 6.46539L7.83677 6.07986C7.46089 5.32797 6.59035 3.89892 4.94653 2.67935C4.46054 2.31887 3.97065 2.01122 3.49707 1.74842L6.31972 11.8109H9.71373L14.8966 0.19688H11.3906ZM24.1039 3.42117C24.1039 2.1081 27.2764 2.27683 28.6704 2.98982L29.1352 0.495429C29.1352 0.495429 27.7006 -0.0109863 26.2053 -0.0109863C24.5886 -0.0109863 20.7497 0.645228 20.7497 3.83377C20.7497 6.83457 25.2554 6.87186 25.2554 8.44732C25.2554 10.0228 21.2143 9.74123 19.8807 8.74741L19.396 11.3546C19.396 11.3546 20.8505 12.0108 23.0734 12.0108C25.296 12.0108 28.6501 10.942 28.6501 8.03473C28.6501 5.01516 24.1039 4.73393 24.1039 3.42117ZM37.3968 0.19688H34.7777C33.5683 0.19688 33.2738 1.06241 33.2738 1.06241L28.4159 11.8109H31.8112L32.4904 10.0859H36.6316L37.0137 11.8109H40.0047L37.3968 0.19688ZM33.4291 7.7026L35.1409 3.35634L36.1038 7.7026H33.4291Z" fill="#005BAC"/>
<path fill-rule="evenodd" clip-rule="evenodd" d="M6.86631 1.29038C6.86631 1.29038 6.73147 0.242188 5.292 0.242188H0.0622346L0.000976562 0.439181C0.000976562 0.439181 2.51482 0.914831 4.92653 2.69687C7.23126 4.40007 7.9831 6.52318 7.9831 6.52318L6.86631 1.29038Z" fill="#F6AC1D"/>
</g>
<defs>
<clipPath id="clip0_576_375">
<rect width="40" height="12" fill="white"/>
</clipPath>
</defs>
</svg>
