<svg width="25" height="25" viewBox="0 0 25 25" fill="none" xmlns="http://www.w3.org/2000/svg">
<path d="M4.62841 16.3668L12.5027 12L20.377 16.3668C21.0724 16.7579 21.5027 17.4937 21.5027 18.2916C21.5027 19.5112 20.514 20.5 19.2943 20.5H5.7111C4.49143 20.5 3.50269 19.5112 3.50269 18.2916C3.50269 17.4937 3.93303 16.7579 4.62841 16.3668Z" stroke="#000728" stroke-width="1.5" stroke-linecap="round" stroke-linejoin="round"/>
<path d="M10.5027 7.40476C10.5027 6.35279 11.3981 5.5 12.5027 5.5C13.6073 5.5 14.5027 6.35279 14.5027 7.40476C14.5027 8.12453 14.0835 8.75106 13.465 9.07498C12.9757 9.33119 12.5027 9.5 12.5027 9.5V12" stroke="#000728" stroke-width="1.5" stroke-linecap="round" stroke-linejoin="round"/>
</svg>
