<svg width="34" height="35" viewBox="0 0 34 35" fill="none" xmlns="http://www.w3.org/2000/svg">
<path d="M8.42917 31.3541C7.8625 31.3541 7.37847 31.1475 6.97708 30.7343C6.57569 30.3211 6.375 29.8228 6.375 29.2395V5.76034C6.375 5.177 6.57569 4.67874 6.97708 4.26554C7.37847 3.85235 7.8625 3.64575 8.42917 3.64575H25.5708C26.1375 3.64575 26.6215 3.85235 27.0229 4.26554C27.4243 4.67874 27.625 5.177 27.625 5.76034V29.2395C27.625 29.8228 27.4243 30.3211 27.0229 30.7343C26.6215 31.1475 26.1375 31.3541 25.5708 31.3541H8.42917ZM8.42917 29.7135H25.5708C25.6889 29.7135 25.7951 29.6648 25.8896 29.5676C25.984 29.4704 26.0312 29.361 26.0312 29.2395V5.76034C26.0312 5.63881 25.984 5.52943 25.8896 5.43221C25.7951 5.33499 25.6889 5.28638 25.5708 5.28638H8.42917C8.31111 5.28638 8.20486 5.33499 8.11042 5.43221C8.01597 5.52943 7.96875 5.63881 7.96875 5.76034V29.2395C7.96875 29.361 8.01597 29.4704 8.11042 29.5676C8.20486 29.6648 8.31111 29.7135 8.42917 29.7135ZM17 27.1614C18.7708 27.1614 20.276 26.5234 21.5156 25.2473C22.7552 23.9713 23.375 22.4218 23.375 20.5989C23.375 18.776 22.7552 17.2265 21.5156 15.9504C20.276 14.6744 18.7708 14.0364 17 14.0364C15.2292 14.0364 13.724 14.6805 12.4844 15.9687C11.2448 17.2569 10.625 18.8003 10.625 20.5989C10.625 22.4218 11.2448 23.9713 12.4844 25.2473C13.724 26.5234 15.2292 27.1614 17 27.1614ZM17 24.828C16.4333 24.828 15.8903 24.7187 15.3708 24.4999C14.8514 24.2812 14.4028 23.9773 14.025 23.5885L19.9042 17.5364C20.3056 17.9253 20.6066 18.381 20.8073 18.9036C21.008 19.4261 21.1083 19.9912 21.1083 20.5989C21.1083 21.8142 20.7187 22.8228 19.9396 23.6249C19.1604 24.427 18.1806 24.828 17 24.828ZM10.9083 9.47908C11.2153 9.47908 11.4868 9.35756 11.7229 9.1145C11.959 8.87145 12.0771 8.59193 12.0771 8.27596C12.0771 7.93568 11.959 7.65009 11.7229 7.41919C11.4868 7.18829 11.2153 7.07283 10.9083 7.07283C10.6014 7.07283 10.3358 7.18829 10.1115 7.41919C9.88715 7.65009 9.775 7.93568 9.775 8.27596C9.775 8.59193 9.88715 8.87145 10.1115 9.1145C10.3358 9.35756 10.6014 9.47908 10.9083 9.47908ZM15.5125 9.47908C15.8431 9.47908 16.1205 9.35756 16.3448 9.1145C16.5691 8.87145 16.6812 8.59193 16.6812 8.27596C16.6812 7.93568 16.5691 7.65009 16.3448 7.41919C16.1205 7.18829 15.8549 7.07283 15.5479 7.07283C15.2174 7.07283 14.9399 7.18829 14.7156 7.41919C14.4913 7.65009 14.3792 7.93568 14.3792 8.27596C14.3792 8.59193 14.4913 8.87145 14.7156 9.1145C14.9399 9.35756 15.2056 9.47908 15.5125 9.47908ZM7.96875 29.7135C7.96875 29.7135 7.96875 29.6648 7.96875 29.5676C7.96875 29.4704 7.96875 29.361 7.96875 29.2395V5.76034C7.96875 5.63881 7.96875 5.52943 7.96875 5.43221C7.96875 5.33499 7.96875 5.28638 7.96875 5.28638C7.96875 5.28638 7.96875 5.33499 7.96875 5.43221C7.96875 5.52943 7.96875 5.63881 7.96875 5.76034V29.2395C7.96875 29.361 7.96875 29.4704 7.96875 29.5676C7.96875 29.6648 7.96875 29.7135 7.96875 29.7135Z" fill="#000E50"/>
</svg>
