<svg width="24" height="24" viewBox="0 0 24 24" fill="none" xmlns="http://www.w3.org/2000/svg">
<path d="M12.8265 20.6653C12.7163 20.8309 12.5449 20.9459 12.3499 20.9851C12.1549 21.0243 11.9524 20.9845 11.7868 20.8744C8.96131 18.9947 5.64222 17.9945 2.24866 18C2.04974 18 1.85898 17.921 1.71833 17.7803C1.57767 17.6397 1.49866 17.4489 1.49866 17.25C1.49866 17.0511 1.57767 16.8603 1.71833 16.7197C1.85898 16.579 2.04974 16.5 2.24866 16.5C5.93784 16.4944 9.54596 17.582 12.6174 19.6256C12.783 19.7358 12.898 19.9072 12.9372 20.1022C12.9764 20.2971 12.9366 20.4997 12.8265 20.6653ZM2.24866 13.5C2.04974 13.5 1.85898 13.579 1.71833 13.7197C1.57767 13.8603 1.49866 14.0511 1.49866 14.25C1.49866 14.4489 1.57767 14.6397 1.71833 14.7803C1.85898 14.921 2.04974 15 2.24866 15C7.55006 14.9879 12.6424 17.0666 16.4208 20.7853C16.4906 20.857 16.5739 20.914 16.666 20.953C16.758 20.992 16.857 21.0122 16.9569 21.0124C17.0569 21.0126 17.1559 20.9929 17.2482 20.9543C17.3404 20.9156 17.424 20.859 17.494 20.7876C17.564 20.7162 17.619 20.6315 17.6558 20.5386C17.6927 20.4456 17.7105 20.3462 17.7084 20.2463C17.7062 20.1463 17.6841 20.0478 17.6433 19.9565C17.6025 19.8652 17.5439 19.783 17.4708 19.7147C13.4128 15.7199 7.94301 13.4868 2.24866 13.5ZM21.7487 15C20.2157 14.999 18.6875 15.1717 17.1933 15.5147C17.7083 15.9053 18.2083 16.3166 18.6933 16.7484C19.7034 16.583 20.7252 16.4999 21.7487 16.5C21.9476 16.5 22.1383 16.579 22.279 16.7197C22.4196 16.8603 22.4987 17.0511 22.4987 17.25C22.4987 17.4489 22.4196 17.6397 22.279 17.7803C22.1383 17.921 21.9476 18 21.7487 18C21.1862 18 20.6302 18.0272 20.0752 18.0806C20.5952 18.6225 21.0933 19.1894 21.5696 19.7812C21.6348 19.8576 21.6841 19.9464 21.7143 20.0422C21.7446 20.138 21.7554 20.2388 21.7459 20.3389C21.7365 20.4389 21.707 20.536 21.6593 20.6244C21.6116 20.7128 21.5466 20.7907 21.4682 20.8536C21.3898 20.9164 21.2996 20.9628 21.2029 20.9901C21.1062 21.0174 21.005 21.025 20.9054 21.0124C20.8057 20.9998 20.7096 20.9673 20.6227 20.9169C20.5358 20.8665 20.4599 20.7991 20.3996 20.7188C18.2257 17.9927 15.4643 15.7928 12.3214 14.2831C9.17855 12.7735 5.73532 11.993 2.24866 12C2.04974 12 1.85898 11.921 1.71833 11.7803C1.57767 11.6397 1.49866 11.4489 1.49866 11.25C1.49866 11.0511 1.57767 10.8603 1.71833 10.7197C1.85898 10.579 2.04974 10.5 2.24866 10.5C3.75796 10.5003 5.26412 10.6374 6.74866 10.9097V7.5C6.74866 7.38357 6.77577 7.26873 6.82784 7.16459C6.87991 7.06045 6.95551 6.96986 7.04866 6.9L13.0487 2.4C13.1785 2.30263 13.3364 2.25 13.4987 2.25C13.6609 2.25 13.8188 2.30263 13.9487 2.4L19.9487 6.9C20.0418 6.96986 20.1174 7.06045 20.1695 7.16459C20.2215 7.26873 20.2487 7.38357 20.2487 7.5V10.5459C20.7465 10.5169 21.2462 10.5 21.7487 10.5C21.9476 10.5 22.1383 10.579 22.279 10.7197C22.4196 10.8603 22.4987 11.0511 22.4987 11.25C22.4987 11.4489 22.4196 11.6397 22.279 11.7803C22.1383 11.921 21.9476 12 21.7487 12C19.0554 11.9949 16.3819 12.4609 13.8493 13.3772C14.4393 13.6897 15.0162 14.0266 15.5799 14.3878C17.5829 13.7975 19.6605 13.4985 21.7487 13.5C21.9476 13.5 22.1383 13.579 22.279 13.7197C22.4196 13.8603 22.4987 14.0511 22.4987 14.25C22.4987 14.4489 22.4196 14.6397 22.279 14.7803C22.1383 14.921 21.9476 15 21.7487 15ZM11.2487 8.25H15.7487C15.9476 8.25 16.1383 8.32902 16.279 8.46967C16.4196 8.61032 16.4987 8.80109 16.4987 9V11.0569C17.2412 10.8969 17.9912 10.7719 18.7487 10.6819V7.875L13.4987 3.9375L8.24866 7.875V11.2322C9.01053 11.4197 9.76053 11.6441 10.4987 11.9053V9C10.4987 8.80109 10.5777 8.61032 10.7183 8.46967C10.859 8.32902 11.0497 8.25 11.2487 8.25ZM12.0052 12.4941C12.9791 12.0759 13.979 11.7211 14.9987 11.4319V9.75H11.9987V12.4913L12.0052 12.4941Z" fill="#000E50"/>
</svg>
