<svg width="24" height="24" viewBox="0 0 24 24" fill="none" xmlns="http://www.w3.org/2000/svg">
<path d="M15 17.6V8C15 4.6863 12.3137 2 9 2C5.6863 2 3 4.6863 3 8V17.6C3 18.9255 4.07452 20 5.4 20H12.6C13.9255 20 15 18.9255 15 17.6Z" stroke="#000E50" stroke-width="1.5" stroke-linecap="round" stroke-linejoin="round"/>
<path d="M18 20C18 18.8954 18.8954 18 20 18C21.1046 18 22 18.8954 22 20" fill="#000E50"/>
<path d="M18 20C18 18.8954 18.8954 18 20 18C21.1046 18 22 18.8954 22 20H18Z" stroke="#000E50" stroke-linecap="round" stroke-linejoin="round"/>
<path d="M20 18V9C20 7.8954 19.1046 7 18 7H10.75H8.5" stroke="#000E50" stroke-width="1.5" stroke-linecap="round" stroke-linejoin="round"/>
<path d="M15 11H5.25H3" stroke="#000E50" stroke-width="1.5" stroke-linecap="round" stroke-linejoin="round"/>
<path d="M10 7C10 7.55229 9.55229 8 9 8C8.44771 8 8 7.55229 8 7C8 6.44772 8.44771 6 9 6C9.55229 6 10 6.44772 10 7Z" stroke="#000E50" stroke-width="1.2" stroke-linecap="round" stroke-linejoin="round"/>
<path d="M10.8182 14H7.18182C7.0814 14 7 14.0672 7 14.15V16.85C7 16.9328 7.0814 17 7.18182 17H10.8182C10.9186 17 11 16.9328 11 16.85V14.15C11 14.0672 10.9186 14 10.8182 14Z" stroke="#000E50" stroke-width="1.5" stroke-linejoin="round"/>
<path d="M6 21V21.1" stroke="#000E50" stroke-width="2" stroke-linecap="round" stroke-linejoin="round"/>
<path d="M12 21V21.1" stroke="#000E50" stroke-width="2" stroke-linecap="round" stroke-linejoin="round"/>
</svg>
