<svg width="25" height="25" viewBox="0 0 25 25" fill="none" xmlns="http://www.w3.org/2000/svg">
<path d="M19.7537 10.2191L17.7128 3.28812C17.6671 3.13284 17.5723 2.99652 17.4427 2.89953C17.3131 2.80254 17.1556 2.75008 16.9937 2.75H8.01437C7.85249 2.75008 7.69498 2.80254 7.56538 2.89953C7.43578 2.99652 7.34103 3.13284 7.2953 3.28812L5.25437 10.2191C4.93415 11.2814 4.91739 12.4121 5.20598 13.4835C5.49457 14.5548 6.07701 15.5241 6.88749 16.2819C8.22071 17.5322 9.93373 18.3007 11.7541 18.4653V22.25H8.75405C8.55514 22.25 8.36438 22.329 8.22372 22.4697C8.08307 22.6103 8.00405 22.8011 8.00405 23C8.00405 23.1989 8.08307 23.3897 8.22372 23.5303C8.36438 23.671 8.55514 23.75 8.75405 23.75H16.2541C16.453 23.75 16.6437 23.671 16.7844 23.5303C16.925 23.3897 17.0041 23.1989 17.0041 23C17.0041 22.8011 16.925 22.6103 16.7844 22.4697C16.6437 22.329 16.453 22.25 16.2541 22.25H13.2541V18.4653C15.0743 18.3006 16.7873 17.532 18.1206 16.2819C18.9311 15.5241 19.5135 14.5548 19.8021 13.4835C20.0907 12.4121 20.074 11.2814 19.7537 10.2191ZM8.57499 4.25H16.4331L18.3166 10.6428C18.325 10.6709 18.3325 10.6991 18.34 10.7272C16.3319 11.4472 14.0706 10.5772 12.8434 9.95563C10.4819 8.76031 8.60687 8.60844 7.22405 8.83719L8.57499 4.25ZM17.0978 15.1859C15.8524 16.3521 14.2102 17.0009 12.5041 17.0009C10.7979 17.0009 9.15568 16.3521 7.9103 15.1859C7.30382 14.6176 6.8683 13.891 6.65295 13.0882C6.43759 12.2854 6.45096 11.4384 6.69155 10.6428L6.73374 10.5003C7.85874 10.1197 9.64655 10.0184 12.1647 11.2944C13.21 11.8241 14.8984 12.4991 16.705 12.4991C17.3088 12.502 17.91 12.4199 18.4909 12.2553C18.4144 13.3734 17.9165 14.4207 17.0978 15.1859Z" fill="black"/>
</svg>
